<?xml version="1.0" encoding="utf-8" standalone="no"?>
<!DOCTYPE svg PUBLIC "-//W3C//DTD SVG 1.1//EN"
  "http://www.w3.org/Graphics/SVG/1.1/DTD/svg11.dtd">
<!-- Created with matplotlib (http://matplotlib.org/) -->
<svg height="345pt" version="1.1" viewBox="0 0 460 345" width="460pt" xmlns="http://www.w3.org/2000/svg" xmlns:xlink="http://www.w3.org/1999/xlink">
 <defs>
  <style type="text/css">
*{stroke-linecap:butt;stroke-linejoin:round;}
  </style>
 </defs>
 <g id="figure_1">
  <g id="patch_1">
   <path d="M 0 345.6 
L 460.8 345.6 
L 460.8 0 
L 0 0 
z
" style="fill:#ffffff;"/>
  </g>
  <g id="axes_1">
   <g id="patch_2">
    <path d="M 57.6 307.584 
L 414.72 307.584 
L 414.72 41.472 
L 57.6 41.472 
z
" style="fill:#ffffff;"/>
   </g>
   <g id="matplotlib.axis_1">
    <g id="xtick_1">
     <g id="line2d_1">
      <path clip-path="url(#pecbbecf230)" d="M 73.832727 307.584 
L 73.832727 41.472 
" style="fill:none;stroke:#b0b0b0;stroke-linecap:square;stroke-width:0.8;"/>
     </g>
     <g id="line2d_2">
      <defs>
       <path d="M 0 0 
L 0 3.5 
" id="m44d914b720" style="stroke:#000000;stroke-width:0.8;"/>
      </defs>
      <g>
       <use style="stroke:#000000;stroke-width:0.8;" x="73.832727" xlink:href="#m44d914b720" y="307.584"/>
      </g>
     </g>
     <g id="text_1">
      <!-- 0 -->
      <defs>
       <path d="M 31.78125 66.40625 
Q 24.171875 66.40625 20.328125 58.90625 
Q 16.5 51.421875 16.5 36.375 
Q 16.5 21.390625 20.328125 13.890625 
Q 24.171875 6.390625 31.78125 6.390625 
Q 39.453125 6.390625 43.28125 13.890625 
Q 47.125 21.390625 47.125 36.375 
Q 47.125 51.421875 43.28125 58.90625 
Q 39.453125 66.40625 31.78125 66.40625 
z
M 31.78125 74.21875 
Q 44.046875 74.21875 50.515625 64.515625 
Q 56.984375 54.828125 56.984375 36.375 
Q 56.984375 17.96875 50.515625 8.265625 
Q 44.046875 -1.421875 31.78125 -1.421875 
Q 19.53125 -1.421875 13.0625 8.265625 
Q 6.59375 17.96875 6.59375 36.375 
Q 6.59375 54.828125 13.0625 64.515625 
Q 19.53125 74.21875 31.78125 74.21875 
z
" id="DejaVuSans-30"/>
      </defs>
      <g transform="translate(70.651477 322.182437)scale(0.1 -0.1)">
       <use xlink:href="#DejaVuSans-30"/>
      </g>
     </g>
    </g>
    <g id="xtick_2">
     <g id="line2d_3">
      <path clip-path="url(#pecbbecf230)" d="M 139.419504 307.584 
L 139.419504 41.472 
" style="fill:none;stroke:#b0b0b0;stroke-linecap:square;stroke-width:0.8;"/>
     </g>
     <g id="line2d_4">
      <g>
       <use style="stroke:#000000;stroke-width:0.8;" x="139.419504" xlink:href="#m44d914b720" y="307.584"/>
      </g>
     </g>
     <g id="text_2">
      <!-- 20 -->
      <defs>
       <path d="M 19.1875 8.296875 
L 53.609375 8.296875 
L 53.609375 0 
L 7.328125 0 
L 7.328125 8.296875 
Q 12.9375 14.109375 22.625 23.890625 
Q 32.328125 33.6875 34.8125 36.53125 
Q 39.546875 41.84375 41.421875 45.53125 
Q 43.3125 49.21875 43.3125 52.78125 
Q 43.3125 58.59375 39.234375 62.25 
Q 35.15625 65.921875 28.609375 65.921875 
Q 23.96875 65.921875 18.8125 64.3125 
Q 13.671875 62.703125 7.8125 59.421875 
L 7.8125 69.390625 
Q 13.765625 71.78125 18.9375 73 
Q 24.125 74.21875 28.421875 74.21875 
Q 39.75 74.21875 46.484375 68.546875 
Q 53.21875 62.890625 53.21875 53.421875 
Q 53.21875 48.921875 51.53125 44.890625 
Q 49.859375 40.875 45.40625 35.40625 
Q 44.1875 33.984375 37.640625 27.21875 
Q 31.109375 20.453125 19.1875 8.296875 
z
" id="DejaVuSans-32"/>
      </defs>
      <g transform="translate(133.057004 322.182437)scale(0.1 -0.1)">
       <use xlink:href="#DejaVuSans-32"/>
       <use x="63.623047" xlink:href="#DejaVuSans-30"/>
      </g>
     </g>
    </g>
    <g id="xtick_3">
     <g id="line2d_5">
      <path clip-path="url(#pecbbecf230)" d="M 205.006281 307.584 
L 205.006281 41.472 
" style="fill:none;stroke:#b0b0b0;stroke-linecap:square;stroke-width:0.8;"/>
     </g>
     <g id="line2d_6">
      <g>
       <use style="stroke:#000000;stroke-width:0.8;" x="205.006281" xlink:href="#m44d914b720" y="307.584"/>
      </g>
     </g>
     <g id="text_3">
      <!-- 40 -->
      <defs>
       <path d="M 37.796875 64.3125 
L 12.890625 25.390625 
L 37.796875 25.390625 
z
M 35.203125 72.90625 
L 47.609375 72.90625 
L 47.609375 25.390625 
L 58.015625 25.390625 
L 58.015625 17.1875 
L 47.609375 17.1875 
L 47.609375 0 
L 37.796875 0 
L 37.796875 17.1875 
L 4.890625 17.1875 
L 4.890625 26.703125 
z
" id="DejaVuSans-34"/>
      </defs>
      <g transform="translate(198.643781 322.182437)scale(0.1 -0.1)">
       <use xlink:href="#DejaVuSans-34"/>
       <use x="63.623047" xlink:href="#DejaVuSans-30"/>
      </g>
     </g>
    </g>
    <g id="xtick_4">
     <g id="line2d_7">
      <path clip-path="url(#pecbbecf230)" d="M 270.593058 307.584 
L 270.593058 41.472 
" style="fill:none;stroke:#b0b0b0;stroke-linecap:square;stroke-width:0.8;"/>
     </g>
     <g id="line2d_8">
      <g>
       <use style="stroke:#000000;stroke-width:0.8;" x="270.593058" xlink:href="#m44d914b720" y="307.584"/>
      </g>
     </g>
     <g id="text_4">
      <!-- 60 -->
      <defs>
       <path d="M 33.015625 40.375 
Q 26.375 40.375 22.484375 35.828125 
Q 18.609375 31.296875 18.609375 23.390625 
Q 18.609375 15.53125 22.484375 10.953125 
Q 26.375 6.390625 33.015625 6.390625 
Q 39.65625 6.390625 43.53125 10.953125 
Q 47.40625 15.53125 47.40625 23.390625 
Q 47.40625 31.296875 43.53125 35.828125 
Q 39.65625 40.375 33.015625 40.375 
z
M 52.59375 71.296875 
L 52.59375 62.3125 
Q 48.875 64.0625 45.09375 64.984375 
Q 41.3125 65.921875 37.59375 65.921875 
Q 27.828125 65.921875 22.671875 59.328125 
Q 17.53125 52.734375 16.796875 39.40625 
Q 19.671875 43.65625 24.015625 45.921875 
Q 28.375 48.1875 33.59375 48.1875 
Q 44.578125 48.1875 50.953125 41.515625 
Q 57.328125 34.859375 57.328125 23.390625 
Q 57.328125 12.15625 50.6875 5.359375 
Q 44.046875 -1.421875 33.015625 -1.421875 
Q 20.359375 -1.421875 13.671875 8.265625 
Q 6.984375 17.96875 6.984375 36.375 
Q 6.984375 53.65625 15.1875 63.9375 
Q 23.390625 74.21875 37.203125 74.21875 
Q 40.921875 74.21875 44.703125 73.484375 
Q 48.484375 72.75 52.59375 71.296875 
z
" id="DejaVuSans-36"/>
      </defs>
      <g transform="translate(264.230558 322.182437)scale(0.1 -0.1)">
       <use xlink:href="#DejaVuSans-36"/>
       <use x="63.623047" xlink:href="#DejaVuSans-30"/>
      </g>
     </g>
    </g>
    <g id="xtick_5">
     <g id="line2d_9">
      <path clip-path="url(#pecbbecf230)" d="M 336.179835 307.584 
L 336.179835 41.472 
" style="fill:none;stroke:#b0b0b0;stroke-linecap:square;stroke-width:0.8;"/>
     </g>
     <g id="line2d_10">
      <g>
       <use style="stroke:#000000;stroke-width:0.8;" x="336.179835" xlink:href="#m44d914b720" y="307.584"/>
      </g>
     </g>
     <g id="text_5">
      <!-- 80 -->
      <defs>
       <path d="M 31.78125 34.625 
Q 24.75 34.625 20.71875 30.859375 
Q 16.703125 27.09375 16.703125 20.515625 
Q 16.703125 13.921875 20.71875 10.15625 
Q 24.75 6.390625 31.78125 6.390625 
Q 38.8125 6.390625 42.859375 10.171875 
Q 46.921875 13.96875 46.921875 20.515625 
Q 46.921875 27.09375 42.890625 30.859375 
Q 38.875 34.625 31.78125 34.625 
z
M 21.921875 38.8125 
Q 15.578125 40.375 12.03125 44.71875 
Q 8.5 49.078125 8.5 55.328125 
Q 8.5 64.0625 14.71875 69.140625 
Q 20.953125 74.21875 31.78125 74.21875 
Q 42.671875 74.21875 48.875 69.140625 
Q 55.078125 64.0625 55.078125 55.328125 
Q 55.078125 49.078125 51.53125 44.71875 
Q 48 40.375 41.703125 38.8125 
Q 48.828125 37.15625 52.796875 32.3125 
Q 56.78125 27.484375 56.78125 20.515625 
Q 56.78125 9.90625 50.3125 4.234375 
Q 43.84375 -1.421875 31.78125 -1.421875 
Q 19.734375 -1.421875 13.25 4.234375 
Q 6.78125 9.90625 6.78125 20.515625 
Q 6.78125 27.484375 10.78125 32.3125 
Q 14.796875 37.15625 21.921875 38.8125 
z
M 18.3125 54.390625 
Q 18.3125 48.734375 21.84375 45.5625 
Q 25.390625 42.390625 31.78125 42.390625 
Q 38.140625 42.390625 41.71875 45.5625 
Q 45.3125 48.734375 45.3125 54.390625 
Q 45.3125 60.0625 41.71875 63.234375 
Q 38.140625 66.40625 31.78125 66.40625 
Q 25.390625 66.40625 21.84375 63.234375 
Q 18.3125 60.0625 18.3125 54.390625 
z
" id="DejaVuSans-38"/>
      </defs>
      <g transform="translate(329.817335 322.182437)scale(0.1 -0.1)">
       <use xlink:href="#DejaVuSans-38"/>
       <use x="63.623047" xlink:href="#DejaVuSans-30"/>
      </g>
     </g>
    </g>
    <g id="xtick_6">
     <g id="line2d_11">
      <path clip-path="url(#pecbbecf230)" d="M 401.766612 307.584 
L 401.766612 41.472 
" style="fill:none;stroke:#b0b0b0;stroke-linecap:square;stroke-width:0.8;"/>
     </g>
     <g id="line2d_12">
      <g>
       <use style="stroke:#000000;stroke-width:0.8;" x="401.766612" xlink:href="#m44d914b720" y="307.584"/>
      </g>
     </g>
     <g id="text_6">
      <!-- 100 -->
      <defs>
       <path d="M 12.40625 8.296875 
L 28.515625 8.296875 
L 28.515625 63.921875 
L 10.984375 60.40625 
L 10.984375 69.390625 
L 28.421875 72.90625 
L 38.28125 72.90625 
L 38.28125 8.296875 
L 54.390625 8.296875 
L 54.390625 0 
L 12.40625 0 
z
" id="DejaVuSans-31"/>
      </defs>
      <g transform="translate(392.222862 322.182437)scale(0.1 -0.1)">
       <use xlink:href="#DejaVuSans-31"/>
       <use x="63.623047" xlink:href="#DejaVuSans-30"/>
       <use x="127.246094" xlink:href="#DejaVuSans-30"/>
      </g>
     </g>
    </g>
    <g id="text_7">
     <!-- Generations -->
     <defs>
      <path d="M 59.515625 10.40625 
L 59.515625 29.984375 
L 43.40625 29.984375 
L 43.40625 38.09375 
L 69.28125 38.09375 
L 69.28125 6.78125 
Q 63.578125 2.734375 56.6875 0.65625 
Q 49.8125 -1.421875 42 -1.421875 
Q 24.90625 -1.421875 15.25 8.5625 
Q 5.609375 18.5625 5.609375 36.375 
Q 5.609375 54.25 15.25 64.234375 
Q 24.90625 74.21875 42 74.21875 
Q 49.125 74.21875 55.546875 72.453125 
Q 61.96875 70.703125 67.390625 67.28125 
L 67.390625 56.78125 
Q 61.921875 61.421875 55.765625 63.765625 
Q 49.609375 66.109375 42.828125 66.109375 
Q 29.4375 66.109375 22.71875 58.640625 
Q 16.015625 51.171875 16.015625 36.375 
Q 16.015625 21.625 22.71875 14.15625 
Q 29.4375 6.6875 42.828125 6.6875 
Q 48.046875 6.6875 52.140625 7.59375 
Q 56.25 8.5 59.515625 10.40625 
z
" id="DejaVuSans-47"/>
      <path d="M 56.203125 29.59375 
L 56.203125 25.203125 
L 14.890625 25.203125 
Q 15.484375 15.921875 20.484375 11.0625 
Q 25.484375 6.203125 34.421875 6.203125 
Q 39.59375 6.203125 44.453125 7.46875 
Q 49.3125 8.734375 54.109375 11.28125 
L 54.109375 2.78125 
Q 49.265625 0.734375 44.1875 -0.34375 
Q 39.109375 -1.421875 33.890625 -1.421875 
Q 20.796875 -1.421875 13.15625 6.1875 
Q 5.515625 13.8125 5.515625 26.8125 
Q 5.515625 40.234375 12.765625 48.109375 
Q 20.015625 56 32.328125 56 
Q 43.359375 56 49.78125 48.890625 
Q 56.203125 41.796875 56.203125 29.59375 
z
M 47.21875 32.234375 
Q 47.125 39.59375 43.09375 43.984375 
Q 39.0625 48.390625 32.421875 48.390625 
Q 24.90625 48.390625 20.390625 44.140625 
Q 15.875 39.890625 15.1875 32.171875 
z
" id="DejaVuSans-65"/>
      <path d="M 54.890625 33.015625 
L 54.890625 0 
L 45.90625 0 
L 45.90625 32.71875 
Q 45.90625 40.484375 42.875 44.328125 
Q 39.84375 48.1875 33.796875 48.1875 
Q 26.515625 48.1875 22.3125 43.546875 
Q 18.109375 38.921875 18.109375 30.90625 
L 18.109375 0 
L 9.078125 0 
L 9.078125 54.6875 
L 18.109375 54.6875 
L 18.109375 46.1875 
Q 21.34375 51.125 25.703125 53.5625 
Q 30.078125 56 35.796875 56 
Q 45.21875 56 50.046875 50.171875 
Q 54.890625 44.34375 54.890625 33.015625 
z
" id="DejaVuSans-6e"/>
      <path d="M 41.109375 46.296875 
Q 39.59375 47.171875 37.8125 47.578125 
Q 36.03125 48 33.890625 48 
Q 26.265625 48 22.1875 43.046875 
Q 18.109375 38.09375 18.109375 28.8125 
L 18.109375 0 
L 9.078125 0 
L 9.078125 54.6875 
L 18.109375 54.6875 
L 18.109375 46.1875 
Q 20.953125 51.171875 25.484375 53.578125 
Q 30.03125 56 36.53125 56 
Q 37.453125 56 38.578125 55.875 
Q 39.703125 55.765625 41.0625 55.515625 
z
" id="DejaVuSans-72"/>
      <path d="M 34.28125 27.484375 
Q 23.390625 27.484375 19.1875 25 
Q 14.984375 22.515625 14.984375 16.5 
Q 14.984375 11.71875 18.140625 8.90625 
Q 21.296875 6.109375 26.703125 6.109375 
Q 34.1875 6.109375 38.703125 11.40625 
Q 43.21875 16.703125 43.21875 25.484375 
L 43.21875 27.484375 
z
M 52.203125 31.203125 
L 52.203125 0 
L 43.21875 0 
L 43.21875 8.296875 
Q 40.140625 3.328125 35.546875 0.953125 
Q 30.953125 -1.421875 24.3125 -1.421875 
Q 15.921875 -1.421875 10.953125 3.296875 
Q 6 8.015625 6 15.921875 
Q 6 25.140625 12.171875 29.828125 
Q 18.359375 34.515625 30.609375 34.515625 
L 43.21875 34.515625 
L 43.21875 35.40625 
Q 43.21875 41.609375 39.140625 45 
Q 35.0625 48.390625 27.6875 48.390625 
Q 23 48.390625 18.546875 47.265625 
Q 14.109375 46.140625 10.015625 43.890625 
L 10.015625 52.203125 
Q 14.9375 54.109375 19.578125 55.046875 
Q 24.21875 56 28.609375 56 
Q 40.484375 56 46.34375 49.84375 
Q 52.203125 43.703125 52.203125 31.203125 
z
" id="DejaVuSans-61"/>
      <path d="M 18.3125 70.21875 
L 18.3125 54.6875 
L 36.8125 54.6875 
L 36.8125 47.703125 
L 18.3125 47.703125 
L 18.3125 18.015625 
Q 18.3125 11.328125 20.140625 9.421875 
Q 21.96875 7.515625 27.59375 7.515625 
L 36.8125 7.515625 
L 36.8125 0 
L 27.59375 0 
Q 17.1875 0 13.234375 3.875 
Q 9.28125 7.765625 9.28125 18.015625 
L 9.28125 47.703125 
L 2.6875 47.703125 
L 2.6875 54.6875 
L 9.28125 54.6875 
L 9.28125 70.21875 
z
" id="DejaVuSans-74"/>
      <path d="M 9.421875 54.6875 
L 18.40625 54.6875 
L 18.40625 0 
L 9.421875 0 
z
M 9.421875 75.984375 
L 18.40625 75.984375 
L 18.40625 64.59375 
L 9.421875 64.59375 
z
" id="DejaVuSans-69"/>
      <path d="M 30.609375 48.390625 
Q 23.390625 48.390625 19.1875 42.75 
Q 14.984375 37.109375 14.984375 27.296875 
Q 14.984375 17.484375 19.15625 11.84375 
Q 23.34375 6.203125 30.609375 6.203125 
Q 37.796875 6.203125 41.984375 11.859375 
Q 46.1875 17.53125 46.1875 27.296875 
Q 46.1875 37.015625 41.984375 42.703125 
Q 37.796875 48.390625 30.609375 48.390625 
z
M 30.609375 56 
Q 42.328125 56 49.015625 48.375 
Q 55.71875 40.765625 55.71875 27.296875 
Q 55.71875 13.875 49.015625 6.21875 
Q 42.328125 -1.421875 30.609375 -1.421875 
Q 18.84375 -1.421875 12.171875 6.21875 
Q 5.515625 13.875 5.515625 27.296875 
Q 5.515625 40.765625 12.171875 48.375 
Q 18.84375 56 30.609375 56 
z
" id="DejaVuSans-6f"/>
      <path d="M 44.28125 53.078125 
L 44.28125 44.578125 
Q 40.484375 46.53125 36.375 47.5 
Q 32.28125 48.484375 27.875 48.484375 
Q 21.1875 48.484375 17.84375 46.4375 
Q 14.5 44.390625 14.5 40.28125 
Q 14.5 37.15625 16.890625 35.375 
Q 19.28125 33.59375 26.515625 31.984375 
L 29.59375 31.296875 
Q 39.15625 29.25 43.1875 25.515625 
Q 47.21875 21.78125 47.21875 15.09375 
Q 47.21875 7.46875 41.1875 3.015625 
Q 35.15625 -1.421875 24.609375 -1.421875 
Q 20.21875 -1.421875 15.453125 -0.5625 
Q 10.6875 0.296875 5.421875 2 
L 5.421875 11.28125 
Q 10.40625 8.6875 15.234375 7.390625 
Q 20.0625 6.109375 24.8125 6.109375 
Q 31.15625 6.109375 34.5625 8.28125 
Q 37.984375 10.453125 37.984375 14.40625 
Q 37.984375 18.0625 35.515625 20.015625 
Q 33.0625 21.96875 24.703125 23.78125 
L 21.578125 24.515625 
Q 13.234375 26.265625 9.515625 29.90625 
Q 5.8125 33.546875 5.8125 39.890625 
Q 5.8125 47.609375 11.28125 51.796875 
Q 16.75 56 26.8125 56 
Q 31.78125 56 36.171875 55.265625 
Q 40.578125 54.546875 44.28125 53.078125 
z
" id="DejaVuSans-73"/>
     </defs>
     <g transform="translate(205.662344 335.860562)scale(0.1 -0.1)">
      <use xlink:href="#DejaVuSans-47"/>
      <use x="77.490234" xlink:href="#DejaVuSans-65"/>
      <use x="139.013672" xlink:href="#DejaVuSans-6e"/>
      <use x="202.392578" xlink:href="#DejaVuSans-65"/>
      <use x="263.916016" xlink:href="#DejaVuSans-72"/>
      <use x="305.029297" xlink:href="#DejaVuSans-61"/>
      <use x="366.308594" xlink:href="#DejaVuSans-74"/>
      <use x="405.517578" xlink:href="#DejaVuSans-69"/>
      <use x="433.300781" xlink:href="#DejaVuSans-6f"/>
      <use x="494.482422" xlink:href="#DejaVuSans-6e"/>
      <use x="557.861328" xlink:href="#DejaVuSans-73"/>
     </g>
    </g>
   </g>
   <g id="matplotlib.axis_2">
    <g id="ytick_1">
     <g id="line2d_13">
      <path clip-path="url(#pecbbecf230)" d="M 57.6 278.093186 
L 414.72 278.093186 
" style="fill:none;stroke:#b0b0b0;stroke-linecap:square;stroke-width:0.8;"/>
     </g>
     <g id="line2d_14">
      <defs>
       <path d="M 0 0 
L -3.5 0 
" id="m0575da8420" style="stroke:#000000;stroke-width:0.8;"/>
      </defs>
      <g>
       <use style="stroke:#000000;stroke-width:0.8;" x="57.6" xlink:href="#m0575da8420" y="278.093186"/>
      </g>
     </g>
     <g id="text_8">
      <!-- 20 -->
      <g transform="translate(37.875 281.892405)scale(0.1 -0.1)">
       <use xlink:href="#DejaVuSans-32"/>
       <use x="63.623047" xlink:href="#DejaVuSans-30"/>
      </g>
     </g>
    </g>
    <g id="ytick_2">
     <g id="line2d_15">
      <path clip-path="url(#pecbbecf230)" d="M 57.6 228.627383 
L 414.72 228.627383 
" style="fill:none;stroke:#b0b0b0;stroke-linecap:square;stroke-width:0.8;"/>
     </g>
     <g id="line2d_16">
      <g>
       <use style="stroke:#000000;stroke-width:0.8;" x="57.6" xlink:href="#m0575da8420" y="228.627383"/>
      </g>
     </g>
     <g id="text_9">
      <!-- 40 -->
      <g transform="translate(37.875 232.426602)scale(0.1 -0.1)">
       <use xlink:href="#DejaVuSans-34"/>
       <use x="63.623047" xlink:href="#DejaVuSans-30"/>
      </g>
     </g>
    </g>
    <g id="ytick_3">
     <g id="line2d_17">
      <path clip-path="url(#pecbbecf230)" d="M 57.6 179.16158 
L 414.72 179.16158 
" style="fill:none;stroke:#b0b0b0;stroke-linecap:square;stroke-width:0.8;"/>
     </g>
     <g id="line2d_18">
      <g>
       <use style="stroke:#000000;stroke-width:0.8;" x="57.6" xlink:href="#m0575da8420" y="179.16158"/>
      </g>
     </g>
     <g id="text_10">
      <!-- 60 -->
      <g transform="translate(37.875 182.960799)scale(0.1 -0.1)">
       <use xlink:href="#DejaVuSans-36"/>
       <use x="63.623047" xlink:href="#DejaVuSans-30"/>
      </g>
     </g>
    </g>
    <g id="ytick_4">
     <g id="line2d_19">
      <path clip-path="url(#pecbbecf230)" d="M 57.6 129.695777 
L 414.72 129.695777 
" style="fill:none;stroke:#b0b0b0;stroke-linecap:square;stroke-width:0.8;"/>
     </g>
     <g id="line2d_20">
      <g>
       <use style="stroke:#000000;stroke-width:0.8;" x="57.6" xlink:href="#m0575da8420" y="129.695777"/>
      </g>
     </g>
     <g id="text_11">
      <!-- 80 -->
      <g transform="translate(37.875 133.494995)scale(0.1 -0.1)">
       <use xlink:href="#DejaVuSans-38"/>
       <use x="63.623047" xlink:href="#DejaVuSans-30"/>
      </g>
     </g>
    </g>
    <g id="ytick_5">
     <g id="line2d_21">
      <path clip-path="url(#pecbbecf230)" d="M 57.6 80.229974 
L 414.72 80.229974 
" style="fill:none;stroke:#b0b0b0;stroke-linecap:square;stroke-width:0.8;"/>
     </g>
     <g id="line2d_22">
      <g>
       <use style="stroke:#000000;stroke-width:0.8;" x="57.6" xlink:href="#m0575da8420" y="80.229974"/>
      </g>
     </g>
     <g id="text_12">
      <!-- 100 -->
      <g transform="translate(31.5125 84.029192)scale(0.1 -0.1)">
       <use xlink:href="#DejaVuSans-31"/>
       <use x="63.623047" xlink:href="#DejaVuSans-30"/>
       <use x="127.246094" xlink:href="#DejaVuSans-30"/>
      </g>
     </g>
    </g>
    <g id="text_13">
     <!-- Fitness -->
     <defs>
      <path d="M 9.8125 72.90625 
L 51.703125 72.90625 
L 51.703125 64.59375 
L 19.671875 64.59375 
L 19.671875 43.109375 
L 48.578125 43.109375 
L 48.578125 34.8125 
L 19.671875 34.8125 
L 19.671875 0 
L 9.8125 0 
z
" id="DejaVuSans-46"/>
     </defs>
     <g transform="translate(25.432812 192.202219)rotate(-90)scale(0.1 -0.1)">
      <use xlink:href="#DejaVuSans-46"/>
      <use x="57.410156" xlink:href="#DejaVuSans-69"/>
      <use x="85.193359" xlink:href="#DejaVuSans-74"/>
      <use x="124.402344" xlink:href="#DejaVuSans-6e"/>
      <use x="187.78125" xlink:href="#DejaVuSans-65"/>
      <use x="249.304688" xlink:href="#DejaVuSans-73"/>
      <use x="301.404297" xlink:href="#DejaVuSans-73"/>
     </g>
    </g>
   </g>
   <g id="line2d_23">
    <path clip-path="url(#pecbbecf230)" d="M 73.832727 150.983696 
L 77.112066 143.358412 
L 80.391405 134.91142 
L 83.670744 141.549877 
L 86.950083 136.237463 
L 90.229421 142.925745 
L 93.50876 144.3139 
L 96.788099 129.709973 
L 100.067438 149.527284 
L 103.346777 155.289435 
L 106.626116 145.807937 
L 109.905455 140.27377 
L 113.184793 140.150037 
L 116.464132 149.78939 
L 119.743471 149.965699 
L 123.02281 154.172987 
L 126.302149 149.282746 
L 129.581488 140.650739 
L 132.860826 148.563161 
L 136.140165 146.505273 
L 139.419504 151.564949 
L 142.698843 152.067414 
L 145.978182 140.68204 
L 149.257521 156.450298 
L 152.53686 132.955272 
L 155.816198 158.071436 
L 159.095537 148.722405 
L 162.374876 141.041733 
L 165.654215 137.193701 
L 168.933554 157.709223 
L 172.212893 152.8587 
L 175.492231 160.661166 
L 178.77157 151.17302 
L 182.050909 149.419242 
L 185.330248 149.979128 
L 188.609587 154.117001 
L 191.888926 172.931545 
L 195.168264 149.987806 
L 198.447603 140.025138 
L 201.726942 148.238552 
L 205.006281 146.951222 
L 208.28562 149.638527 
L 211.564959 158.969529 
L 214.844298 146.121211 
L 218.123636 153.46533 
L 221.402975 158.991386 
L 224.682314 166.101054 
L 227.961653 139.395634 
L 231.240992 168.233387 
L 234.520331 160.353174 
L 237.799669 159.277417 
L 241.079008 164.326964 
L 244.358347 142.423882 
L 247.637686 136.269563 
L 250.917025 143.52962 
L 254.196364 140.326138 
L 257.475702 165.919222 
L 260.755041 155.479625 
L 264.03438 141.17456 
L 267.313719 155.845098 
L 270.593058 147.185831 
L 273.872397 135.212737 
L 277.151736 171.102505 
L 280.431074 138.818355 
L 283.710413 148.079653 
L 286.989752 154.689311 
L 290.269091 181.007898 
L 293.54843 138.550201 
L 296.827769 156.131057 
L 300.107107 151.43196 
L 303.386446 147.056558 
L 306.665785 145.884597 
L 309.945124 157.672918 
L 313.224463 142.301497 
L 316.503802 155.657269 
L 319.78314 167.327674 
L 323.062479 167.888824 
L 326.341818 173.834114 
L 329.621157 164.659822 
L 332.900496 192.748022 
L 336.179835 150.030808 
L 339.459174 144.509906 
L 342.738512 145.266349 
L 346.017851 141.015292 
L 349.29719 146.163107 
L 352.576529 146.121021 
L 355.855868 143.925319 
L 359.135207 146.155488 
L 362.414545 149.425292 
L 365.693884 165.122628 
L 368.973223 166.677652 
L 372.252562 157.048073 
L 375.531901 171.528459 
L 378.81124 168.971179 
L 382.090579 165.586011 
L 385.369917 151.756514 
L 388.649256 159.908105 
L 391.928595 165.087295 
L 395.207934 159.972806 
L 398.487273 176.146669 
" style="fill:none;stroke:#0000ff;stroke-linecap:square;stroke-width:1.5;"/>
   </g>
   <g id="line2d_24">
    <path clip-path="url(#pecbbecf230)" d="M 73.832727 241.696257 
L 77.112066 227.018523 
L 80.391405 214.711335 
L 83.670744 223.40778 
L 86.950083 215.274214 
L 90.229421 225.743123 
L 93.50876 229.537012 
L 96.788099 202.958593 
L 100.067438 237.707573 
L 103.346777 243.700301 
L 106.626116 228.187371 
L 109.905455 224.21045 
L 113.184793 223.183729 
L 116.464132 240.283933 
L 119.743471 239.589154 
L 123.02281 243.477249 
L 126.302149 234.751326 
L 129.581488 222.86916 
L 132.860826 238.7473 
L 136.140165 236.421757 
L 139.419504 244.071294 
L 142.698843 240.757405 
L 145.978182 224.297442 
L 149.257521 249.100661 
L 152.53686 206.541832 
L 155.816198 251.861505 
L 159.095537 234.981817 
L 162.374876 222.765156 
L 165.654215 217.249571 
L 168.933554 249.353777 
L 172.212893 240.47076 
L 175.492231 253.87445 
L 178.77157 244.387126 
L 182.050909 241.674441 
L 185.330248 239.111762 
L 188.609587 244.277438 
L 191.888926 273.973524 
L 195.168264 235.173461 
L 198.447603 220.877288 
L 201.726942 230.718665 
L 205.006281 229.693063 
L 208.28562 238.812672 
L 211.564959 249.090942 
L 214.844298 234.276296 
L 218.123636 241.321964 
L 221.402975 255.266664 
L 224.682314 261.67084 
L 227.961653 223.49218 
L 231.240992 266.249564 
L 234.520331 252.86332 
L 237.799669 256.883924 
L 241.079008 261.469068 
L 244.358347 230.181303 
L 247.637686 218.798236 
L 250.917025 230.026471 
L 254.196364 224.480784 
L 257.475702 263.164672 
L 260.755041 248.398478 
L 264.03438 225.151719 
L 267.313719 251.534939 
L 270.593058 237.160938 
L 273.872397 210.801297 
L 277.151736 273.054941 
L 280.431074 222.909363 
L 283.710413 238.997504 
L 286.989752 248.437705 
L 290.269091 283.613779 
L 293.54843 223.532402 
L 296.827769 249.729193 
L 300.107107 244.33529 
L 303.386446 236.608038 
L 306.665785 234.87102 
L 309.945124 254.855657 
L 313.224463 226.572265 
L 316.503802 250.116637 
L 319.78314 266.561946 
L 323.062479 271.221237 
L 326.341818 275.930045 
L 329.621157 261.229962 
L 332.900496 295.488 
L 336.179835 240.739538 
L 339.459174 231.731458 
L 342.738512 233.621432 
L 346.017851 221.60132 
L 349.29719 234.479241 
L 352.576529 235.378772 
L 355.855868 233.096621 
L 359.135207 234.666375 
L 362.414545 243.054976 
L 365.693884 265.158684 
L 368.973223 266.927301 
L 372.252562 255.055878 
L 375.531901 273.054474 
L 378.81124 265.972909 
L 382.090579 263.843019 
L 385.369917 243.456389 
L 388.649256 256.002444 
L 391.928595 267.204016 
L 395.207934 258.333099 
L 398.487273 277.105691 
" style="fill:none;stroke:#008000;stroke-dasharray:9.6,2.4,1.5,2.4;stroke-dashoffset:0;stroke-width:1.5;"/>
   </g>
   <g id="line2d_25">
    <path clip-path="url(#pecbbecf230)" d="M 73.832727 60.271136 
L 77.112066 59.6983 
L 80.391405 55.111505 
L 83.670744 59.691974 
L 86.950083 57.200712 
L 90.229421 60.108366 
L 93.50876 59.090787 
L 96.788099 56.461353 
L 100.067438 61.346995 
L 103.346777 66.87857 
L 106.626116 63.428503 
L 109.905455 56.337091 
L 113.184793 57.116345 
L 116.464132 59.294847 
L 119.743471 60.342244 
L 123.02281 64.868725 
L 126.302149 63.814165 
L 129.581488 58.432318 
L 132.860826 58.379023 
L 136.140165 56.588789 
L 139.419504 59.058604 
L 142.698843 63.377422 
L 145.978182 57.066638 
L 149.257521 63.799936 
L 152.53686 59.368711 
L 155.816198 64.281367 
L 159.095537 62.462993 
L 162.374876 59.31831 
L 165.654215 57.137832 
L 168.933554 66.06467 
L 172.212893 65.246639 
L 175.492231 67.447881 
L 178.77157 57.958913 
L 182.050909 57.164043 
L 185.330248 60.846495 
L 188.609587 63.956564 
L 191.888926 71.889567 
L 195.168264 64.802152 
L 198.447603 59.172987 
L 201.726942 65.758439 
L 205.006281 64.209382 
L 208.28562 60.464381 
L 211.564959 68.848117 
L 214.844298 57.966127 
L 218.123636 65.608696 
L 221.402975 62.716107 
L 224.682314 70.531269 
L 227.961653 55.299087 
L 231.240992 70.217209 
L 234.520331 67.843027 
L 237.799669 61.670911 
L 241.079008 67.184859 
L 244.358347 54.666462 
L 247.637686 53.740889 
L 250.917025 57.032769 
L 254.196364 56.171493 
L 257.475702 68.673772 
L 260.755041 62.560772 
L 264.03438 57.1974 
L 267.313719 60.155257 
L 270.593058 57.210723 
L 273.872397 59.624177 
L 277.151736 69.150069 
L 280.431074 54.727347 
L 283.710413 57.161802 
L 286.989752 60.940917 
L 290.269091 78.402017 
L 293.54843 53.568 
L 296.827769 62.532921 
L 300.107107 58.52863 
L 303.386446 57.505079 
L 306.665785 56.898174 
L 309.945124 60.49018 
L 313.224463 58.030728 
L 316.503802 61.197901 
L 319.78314 68.093402 
L 323.062479 64.556412 
L 326.341818 71.738184 
L 329.621157 68.089681 
L 332.900496 90.008044 
L 336.179835 59.322079 
L 339.459174 57.288353 
L 342.738512 56.911265 
L 346.017851 60.429263 
L 349.29719 57.846972 
L 352.576529 56.863269 
L 355.855868 54.754017 
L 359.135207 57.644602 
L 362.414545 55.795608 
L 365.693884 65.086573 
L 368.973223 66.428003 
L 372.252562 59.040268 
L 375.531901 70.002445 
L 378.81124 71.96945 
L 382.090579 67.329002 
L 385.369917 60.056639 
L 388.649256 63.813765 
L 391.928595 62.970574 
L 395.207934 61.612513 
L 398.487273 75.187647 
" style="fill:none;stroke:#008000;stroke-dasharray:9.6,2.4,1.5,2.4;stroke-dashoffset:0;stroke-width:1.5;"/>
   </g>
   <g id="line2d_26">
    <path clip-path="url(#pecbbecf230)" d="M 73.832727 91.359309 
L 77.112066 91.359309 
L 80.391405 91.188669 
L 83.670744 91.246867 
L 86.950083 91.246867 
L 90.229421 91.331674 
L 93.50876 91.440407 
L 96.788099 91.246867 
L 100.067438 91.413669 
L 103.346777 91.188669 
L 106.626116 91.440407 
L 109.905455 91.188669 
L 113.184793 91.188669 
L 116.464132 91.217939 
L 119.743471 91.440407 
L 123.02281 91.386638 
L 126.302149 91.303727 
L 129.581488 91.331674 
L 132.860826 91.217939 
L 136.140165 91.359309 
L 139.419504 91.217939 
L 142.698843 91.27546 
L 145.978182 91.188669 
L 149.257521 91.217939 
L 152.53686 91.303727 
L 155.816198 91.303727 
L 159.095537 91.217939 
L 162.374876 91.303727 
L 165.654215 91.386638 
L 168.933554 91.246867 
L 172.212893 91.331674 
L 175.492231 91.217939 
L 178.77157 91.433507 
L 182.050909 91.331674 
L 185.330248 91.159049 
L 188.609587 91.337067 
L 191.888926 91.331674 
L 195.168264 91.188669 
L 198.447603 91.246867 
L 201.726942 91.188669 
L 205.006281 91.159049 
L 208.28562 91.246867 
L 211.564959 91.246867 
L 214.844298 91.303727 
L 218.123636 91.246867 
L 221.402975 91.217939 
L 224.682314 91.246867 
L 227.961653 91.303727 
L 231.240992 91.381645 
L 234.520331 91.413669 
L 237.799669 91.246867 
L 241.079008 91.411265 
L 244.358347 91.188669 
L 247.637686 91.067997 
L 250.917025 91.129069 
L 254.196364 91.098722 
L 257.475702 91.246867 
L 260.755041 91.440407 
L 264.03438 91.188669 
L 267.313719 91.217939 
L 270.593058 91.303727 
L 273.872397 91.359309 
L 277.151736 91.217939 
L 280.431074 91.188669 
L 283.710413 91.303727 
L 286.989752 90.973465 
L 290.269091 91.411265 
L 293.54843 91.188669 
L 296.827769 91.246867 
L 300.107107 91.331674 
L 303.386446 91.359309 
L 306.665785 91.331674 
L 309.945124 91.359309 
L 313.224463 91.188669 
L 316.503802 91.246867 
L 319.78314 91.359309 
L 323.062479 91.359309 
L 326.341818 91.188669 
L 329.621157 91.46686 
L 332.900496 91.303727 
L 336.179835 91.27546 
L 339.459174 91.331674 
L 342.738512 91.217939 
L 346.017851 91.331674 
L 349.29719 91.217939 
L 352.576529 91.331674 
L 355.855868 91.217939 
L 359.135207 91.331674 
L 362.414545 91.27546 
L 365.693884 91.246867 
L 368.973223 91.246867 
L 372.252562 91.246867 
L 375.531901 91.246867 
L 378.81124 91.386638 
L 382.090579 91.246867 
L 385.369917 91.303727 
L 388.649256 91.292138 
L 391.928595 91.188669 
L 395.207934 91.359309 
L 398.487273 91.246867 
" style="fill:none;stroke:#ff0000;stroke-linecap:square;stroke-width:1.5;"/>
   </g>
   <g id="patch_3">
    <path d="M 57.6 307.584 
L 57.6 41.472 
" style="fill:none;stroke:#000000;stroke-linecap:square;stroke-linejoin:miter;stroke-width:0.8;"/>
   </g>
   <g id="patch_4">
    <path d="M 414.72 307.584 
L 414.72 41.472 
" style="fill:none;stroke:#000000;stroke-linecap:square;stroke-linejoin:miter;stroke-width:0.8;"/>
   </g>
   <g id="patch_5">
    <path d="M 57.6 307.584 
L 414.72 307.584 
" style="fill:none;stroke:#000000;stroke-linecap:square;stroke-linejoin:miter;stroke-width:0.8;"/>
   </g>
   <g id="patch_6">
    <path d="M 57.6 41.472 
L 414.72 41.472 
" style="fill:none;stroke:#000000;stroke-linecap:square;stroke-linejoin:miter;stroke-width:0.8;"/>
   </g>
   <g id="text_14">
    <!-- Population's average and best fitness -->
    <defs>
     <path d="M 19.671875 64.796875 
L 19.671875 37.40625 
L 32.078125 37.40625 
Q 38.96875 37.40625 42.71875 40.96875 
Q 46.484375 44.53125 46.484375 51.125 
Q 46.484375 57.671875 42.71875 61.234375 
Q 38.96875 64.796875 32.078125 64.796875 
z
M 9.8125 72.90625 
L 32.078125 72.90625 
Q 44.34375 72.90625 50.609375 67.359375 
Q 56.890625 61.8125 56.890625 51.125 
Q 56.890625 40.328125 50.609375 34.8125 
Q 44.34375 29.296875 32.078125 29.296875 
L 19.671875 29.296875 
L 19.671875 0 
L 9.8125 0 
z
" id="DejaVuSans-50"/>
     <path d="M 18.109375 8.203125 
L 18.109375 -20.796875 
L 9.078125 -20.796875 
L 9.078125 54.6875 
L 18.109375 54.6875 
L 18.109375 46.390625 
Q 20.953125 51.265625 25.265625 53.625 
Q 29.59375 56 35.59375 56 
Q 45.5625 56 51.78125 48.09375 
Q 58.015625 40.1875 58.015625 27.296875 
Q 58.015625 14.40625 51.78125 6.484375 
Q 45.5625 -1.421875 35.59375 -1.421875 
Q 29.59375 -1.421875 25.265625 0.953125 
Q 20.953125 3.328125 18.109375 8.203125 
z
M 48.6875 27.296875 
Q 48.6875 37.203125 44.609375 42.84375 
Q 40.53125 48.484375 33.40625 48.484375 
Q 26.265625 48.484375 22.1875 42.84375 
Q 18.109375 37.203125 18.109375 27.296875 
Q 18.109375 17.390625 22.1875 11.75 
Q 26.265625 6.109375 33.40625 6.109375 
Q 40.53125 6.109375 44.609375 11.75 
Q 48.6875 17.390625 48.6875 27.296875 
z
" id="DejaVuSans-70"/>
     <path d="M 8.5 21.578125 
L 8.5 54.6875 
L 17.484375 54.6875 
L 17.484375 21.921875 
Q 17.484375 14.15625 20.5 10.265625 
Q 23.53125 6.390625 29.59375 6.390625 
Q 36.859375 6.390625 41.078125 11.03125 
Q 45.3125 15.671875 45.3125 23.6875 
L 45.3125 54.6875 
L 54.296875 54.6875 
L 54.296875 0 
L 45.3125 0 
L 45.3125 8.40625 
Q 42.046875 3.421875 37.71875 1 
Q 33.40625 -1.421875 27.6875 -1.421875 
Q 18.265625 -1.421875 13.375 4.4375 
Q 8.5 10.296875 8.5 21.578125 
z
M 31.109375 56 
z
" id="DejaVuSans-75"/>
     <path d="M 9.421875 75.984375 
L 18.40625 75.984375 
L 18.40625 0 
L 9.421875 0 
z
" id="DejaVuSans-6c"/>
     <path d="M 17.921875 72.90625 
L 17.921875 45.796875 
L 9.625 45.796875 
L 9.625 72.90625 
z
" id="DejaVuSans-27"/>
     <path id="DejaVuSans-20"/>
     <path d="M 2.984375 54.6875 
L 12.5 54.6875 
L 29.59375 8.796875 
L 46.6875 54.6875 
L 56.203125 54.6875 
L 35.6875 0 
L 23.484375 0 
z
" id="DejaVuSans-76"/>
     <path d="M 45.40625 27.984375 
Q 45.40625 37.75 41.375 43.109375 
Q 37.359375 48.484375 30.078125 48.484375 
Q 22.859375 48.484375 18.828125 43.109375 
Q 14.796875 37.75 14.796875 27.984375 
Q 14.796875 18.265625 18.828125 12.890625 
Q 22.859375 7.515625 30.078125 7.515625 
Q 37.359375 7.515625 41.375 12.890625 
Q 45.40625 18.265625 45.40625 27.984375 
z
M 54.390625 6.78125 
Q 54.390625 -7.171875 48.1875 -13.984375 
Q 42 -20.796875 29.203125 -20.796875 
Q 24.46875 -20.796875 20.265625 -20.09375 
Q 16.0625 -19.390625 12.109375 -17.921875 
L 12.109375 -9.1875 
Q 16.0625 -11.328125 19.921875 -12.34375 
Q 23.78125 -13.375 27.78125 -13.375 
Q 36.625 -13.375 41.015625 -8.765625 
Q 45.40625 -4.15625 45.40625 5.171875 
L 45.40625 9.625 
Q 42.625 4.78125 38.28125 2.390625 
Q 33.9375 0 27.875 0 
Q 17.828125 0 11.671875 7.65625 
Q 5.515625 15.328125 5.515625 27.984375 
Q 5.515625 40.671875 11.671875 48.328125 
Q 17.828125 56 27.875 56 
Q 33.9375 56 38.28125 53.609375 
Q 42.625 51.21875 45.40625 46.390625 
L 45.40625 54.6875 
L 54.390625 54.6875 
z
" id="DejaVuSans-67"/>
     <path d="M 45.40625 46.390625 
L 45.40625 75.984375 
L 54.390625 75.984375 
L 54.390625 0 
L 45.40625 0 
L 45.40625 8.203125 
Q 42.578125 3.328125 38.25 0.953125 
Q 33.9375 -1.421875 27.875 -1.421875 
Q 17.96875 -1.421875 11.734375 6.484375 
Q 5.515625 14.40625 5.515625 27.296875 
Q 5.515625 40.1875 11.734375 48.09375 
Q 17.96875 56 27.875 56 
Q 33.9375 56 38.25 53.625 
Q 42.578125 51.265625 45.40625 46.390625 
z
M 14.796875 27.296875 
Q 14.796875 17.390625 18.875 11.75 
Q 22.953125 6.109375 30.078125 6.109375 
Q 37.203125 6.109375 41.296875 11.75 
Q 45.40625 17.390625 45.40625 27.296875 
Q 45.40625 37.203125 41.296875 42.84375 
Q 37.203125 48.484375 30.078125 48.484375 
Q 22.953125 48.484375 18.875 42.84375 
Q 14.796875 37.203125 14.796875 27.296875 
z
" id="DejaVuSans-64"/>
     <path d="M 48.6875 27.296875 
Q 48.6875 37.203125 44.609375 42.84375 
Q 40.53125 48.484375 33.40625 48.484375 
Q 26.265625 48.484375 22.1875 42.84375 
Q 18.109375 37.203125 18.109375 27.296875 
Q 18.109375 17.390625 22.1875 11.75 
Q 26.265625 6.109375 33.40625 6.109375 
Q 40.53125 6.109375 44.609375 11.75 
Q 48.6875 17.390625 48.6875 27.296875 
z
M 18.109375 46.390625 
Q 20.953125 51.265625 25.265625 53.625 
Q 29.59375 56 35.59375 56 
Q 45.5625 56 51.78125 48.09375 
Q 58.015625 40.1875 58.015625 27.296875 
Q 58.015625 14.40625 51.78125 6.484375 
Q 45.5625 -1.421875 35.59375 -1.421875 
Q 29.59375 -1.421875 25.265625 0.953125 
Q 20.953125 3.328125 18.109375 8.203125 
L 18.109375 0 
L 9.078125 0 
L 9.078125 75.984375 
L 18.109375 75.984375 
z
" id="DejaVuSans-62"/>
     <path d="M 37.109375 75.984375 
L 37.109375 68.5 
L 28.515625 68.5 
Q 23.6875 68.5 21.796875 66.546875 
Q 19.921875 64.59375 19.921875 59.515625 
L 19.921875 54.6875 
L 34.71875 54.6875 
L 34.71875 47.703125 
L 19.921875 47.703125 
L 19.921875 0 
L 10.890625 0 
L 10.890625 47.703125 
L 2.296875 47.703125 
L 2.296875 54.6875 
L 10.890625 54.6875 
L 10.890625 58.5 
Q 10.890625 67.625 15.140625 71.796875 
Q 19.390625 75.984375 28.609375 75.984375 
z
" id="DejaVuSans-66"/>
    </defs>
    <g transform="translate(123.315 35.472)scale(0.12 -0.12)">
     <use xlink:href="#DejaVuSans-50"/>
     <use x="60.255859" xlink:href="#DejaVuSans-6f"/>
     <use x="121.4375" xlink:href="#DejaVuSans-70"/>
     <use x="184.914062" xlink:href="#DejaVuSans-75"/>
     <use x="248.292969" xlink:href="#DejaVuSans-6c"/>
     <use x="276.076172" xlink:href="#DejaVuSans-61"/>
     <use x="337.355469" xlink:href="#DejaVuSans-74"/>
     <use x="376.564453" xlink:href="#DejaVuSans-69"/>
     <use x="404.347656" xlink:href="#DejaVuSans-6f"/>
     <use x="465.529297" xlink:href="#DejaVuSans-6e"/>
     <use x="528.908203" xlink:href="#DejaVuSans-27"/>
     <use x="556.398438" xlink:href="#DejaVuSans-73"/>
     <use x="608.498047" xlink:href="#DejaVuSans-20"/>
     <use x="640.285156" xlink:href="#DejaVuSans-61"/>
     <use x="701.564453" xlink:href="#DejaVuSans-76"/>
     <use x="760.744141" xlink:href="#DejaVuSans-65"/>
     <use x="822.267578" xlink:href="#DejaVuSans-72"/>
     <use x="863.380859" xlink:href="#DejaVuSans-61"/>
     <use x="924.660156" xlink:href="#DejaVuSans-67"/>
     <use x="988.136719" xlink:href="#DejaVuSans-65"/>
     <use x="1049.660156" xlink:href="#DejaVuSans-20"/>
     <use x="1081.447266" xlink:href="#DejaVuSans-61"/>
     <use x="1142.726562" xlink:href="#DejaVuSans-6e"/>
     <use x="1206.105469" xlink:href="#DejaVuSans-64"/>
     <use x="1269.582031" xlink:href="#DejaVuSans-20"/>
     <use x="1301.369141" xlink:href="#DejaVuSans-62"/>
     <use x="1364.845703" xlink:href="#DejaVuSans-65"/>
     <use x="1426.369141" xlink:href="#DejaVuSans-73"/>
     <use x="1478.46875" xlink:href="#DejaVuSans-74"/>
     <use x="1517.677734" xlink:href="#DejaVuSans-20"/>
     <use x="1549.464844" xlink:href="#DejaVuSans-66"/>
     <use x="1584.669922" xlink:href="#DejaVuSans-69"/>
     <use x="1612.453125" xlink:href="#DejaVuSans-74"/>
     <use x="1651.662109" xlink:href="#DejaVuSans-6e"/>
     <use x="1715.041016" xlink:href="#DejaVuSans-65"/>
     <use x="1776.564453" xlink:href="#DejaVuSans-73"/>
     <use x="1828.664062" xlink:href="#DejaVuSans-73"/>
    </g>
   </g>
   <g id="legend_1">
    <g id="patch_7">
     <path d="M 64.6 302.584 
L 137.540625 302.584 
Q 139.540625 302.584 139.540625 300.584 
L 139.540625 242.8715 
Q 139.540625 240.8715 137.540625 240.8715 
L 64.6 240.8715 
Q 62.6 240.8715 62.6 242.8715 
L 62.6 300.584 
Q 62.6 302.584 64.6 302.584 
z
" style="fill:#ffffff;opacity:0.8;stroke:#cccccc;stroke-linejoin:miter;"/>
    </g>
    <g id="line2d_27">
     <path d="M 66.6 248.969937 
L 86.6 248.969937 
" style="fill:none;stroke:#0000ff;stroke-linecap:square;stroke-width:1.5;"/>
    </g>
    <g id="line2d_28"/>
    <g id="text_15">
     <!-- average -->
     <g transform="translate(94.6 252.469937)scale(0.1 -0.1)">
      <use xlink:href="#DejaVuSans-61"/>
      <use x="61.279297" xlink:href="#DejaVuSans-76"/>
      <use x="120.458984" xlink:href="#DejaVuSans-65"/>
      <use x="181.982422" xlink:href="#DejaVuSans-72"/>
      <use x="223.095703" xlink:href="#DejaVuSans-61"/>
      <use x="284.375" xlink:href="#DejaVuSans-67"/>
      <use x="347.851562" xlink:href="#DejaVuSans-65"/>
     </g>
    </g>
    <g id="line2d_29">
     <path d="M 66.6 263.648062 
L 86.6 263.648062 
" style="fill:none;stroke:#008000;stroke-dasharray:9.6,2.4,1.5,2.4;stroke-dashoffset:0;stroke-width:1.5;"/>
    </g>
    <g id="line2d_30"/>
    <g id="text_16">
     <!-- -1 sd -->
     <defs>
      <path d="M 4.890625 31.390625 
L 31.203125 31.390625 
L 31.203125 23.390625 
L 4.890625 23.390625 
z
" id="DejaVuSans-2d"/>
     </defs>
     <g transform="translate(94.6 267.148062)scale(0.1 -0.1)">
      <use xlink:href="#DejaVuSans-2d"/>
      <use x="36.083984" xlink:href="#DejaVuSans-31"/>
      <use x="99.707031" xlink:href="#DejaVuSans-20"/>
      <use x="131.494141" xlink:href="#DejaVuSans-73"/>
      <use x="183.59375" xlink:href="#DejaVuSans-64"/>
     </g>
    </g>
    <g id="line2d_31">
     <path d="M 66.6 278.326187 
L 86.6 278.326187 
" style="fill:none;stroke:#008000;stroke-dasharray:9.6,2.4,1.5,2.4;stroke-dashoffset:0;stroke-width:1.5;"/>
    </g>
    <g id="line2d_32"/>
    <g id="text_17">
     <!-- +1 sd -->
     <defs>
      <path d="M 46 62.703125 
L 46 35.5 
L 73.1875 35.5 
L 73.1875 27.203125 
L 46 27.203125 
L 46 0 
L 37.796875 0 
L 37.796875 27.203125 
L 10.59375 27.203125 
L 10.59375 35.5 
L 37.796875 35.5 
L 37.796875 62.703125 
z
" id="DejaVuSans-2b"/>
     </defs>
     <g transform="translate(94.6 281.826187)scale(0.1 -0.1)">
      <use xlink:href="#DejaVuSans-2b"/>
      <use x="83.789062" xlink:href="#DejaVuSans-31"/>
      <use x="147.412109" xlink:href="#DejaVuSans-20"/>
      <use x="179.199219" xlink:href="#DejaVuSans-73"/>
      <use x="231.298828" xlink:href="#DejaVuSans-64"/>
     </g>
    </g>
    <g id="line2d_33">
     <path d="M 66.6 293.004312 
L 86.6 293.004312 
" style="fill:none;stroke:#ff0000;stroke-linecap:square;stroke-width:1.5;"/>
    </g>
    <g id="line2d_34"/>
    <g id="text_18">
     <!-- best -->
     <g transform="translate(94.6 296.504312)scale(0.1 -0.1)">
      <use xlink:href="#DejaVuSans-62"/>
      <use x="63.476562" xlink:href="#DejaVuSans-65"/>
      <use x="125" xlink:href="#DejaVuSans-73"/>
      <use x="177.099609" xlink:href="#DejaVuSans-74"/>
     </g>
    </g>
   </g>
  </g>
 </g>
 <defs>
  <clipPath id="pecbbecf230">
   <rect height="266.112" width="357.12" x="57.6" y="41.472"/>
  </clipPath>
 </defs>
</svg>
