<?xml version="1.0" encoding="UTF-8" standalone="no"?>
<!DOCTYPE svg PUBLIC "-//W3C//DTD SVG 1.1//EN"
 "http://www.w3.org/Graphics/SVG/1.1/DTD/svg11.dtd">
<!-- Generated by graphviz version 2.38.0 (20140413.2041)
 -->
<!-- Title: %3 Pages: 1 -->
<svg width="2149pt" height="215pt"
 viewBox="0.00 0.00 2149.42 215.38" xmlns="http://www.w3.org/2000/svg" xmlns:xlink="http://www.w3.org/1999/xlink">
<g id="graph0" class="graph" transform="scale(1 1) rotate(0) translate(4 211.38)">
<title>%3</title>
<polygon fill="white" stroke="none" points="-4,4 -4,-211.38 2145.42,-211.38 2145.42,4 -4,4"/>
<!-- dintancia projetil 1 -->
<g id="node1" class="node"><title>dintancia projetil 1</title>
<polygon fill="lightgray" stroke="black" points="1700.92,-137.631 1616.92,-137.631 1616.92,-119.631 1700.92,-119.631 1700.92,-137.631"/>
<text text-anchor="middle" x="1658.92" y="-126.431" font-family="Times New Roman,serif" font-size="9.00">dintancia projetil 1</text>
</g>
<!-- esquerda -->
<g id="node21" class="node"><title>esquerda</title>
<ellipse fill="lightblue" stroke="black" cx="581.92" cy="-33.9411" rx="33.8824" ry="33.8824"/>
<text text-anchor="middle" x="581.92" y="-31.7411" font-family="Times New Roman,serif" font-size="9.00">esquerda</text>
</g>
<!-- dintancia projetil 1&#45;&gt;esquerda -->
<g id="edge3" class="edge"><title>dintancia projetil 1&#45;&gt;esquerda</title>
<path fill="none" stroke="green" stroke-width="0.795213" d="M1645.16,-119.499C1635.18,-114.042 1621.17,-107.256 1607.92,-103.882 1360.64,-40.9322 1289.51,-85.1357 1034.92,-67.8823 884.9,-57.7152 707.03,-44.4175 626.037,-38.2941"/>
<polygon fill="green" stroke="green" stroke-width="0.795213" points="625.96,-34.7784 615.724,-37.5136 625.432,-41.7584 625.96,-34.7784"/>
</g>
<!-- direita -->
<g id="node22" class="node"><title>direita</title>
<ellipse fill="lightblue" stroke="black" cx="1071.92" cy="-33.9411" rx="27.6545" ry="27.6545"/>
<text text-anchor="middle" x="1071.92" y="-31.7411" font-family="Times New Roman,serif" font-size="9.00">direita</text>
</g>
<!-- dintancia projetil 1&#45;&gt;direita -->
<g id="edge16" class="edge"><title>dintancia projetil 1&#45;&gt;direita</title>
<path fill="none" stroke="green" stroke-width="0.671203" d="M1645.15,-119.548C1635.16,-114.113 1621.15,-107.334 1607.92,-103.882 1400.06,-49.6586 1330.42,-133.65 1125.92,-67.8823 1117.91,-65.3055 1109.85,-61.3192 1102.5,-56.9982"/>
<polygon fill="green" stroke="green" stroke-width="0.671203" points="1103.95,-53.7748 1093.62,-51.427 1100.23,-59.7052 1103.95,-53.7748"/>
</g>
<!-- atirar -->
<g id="node24" class="node"><title>atirar</title>
<ellipse fill="lightblue" stroke="black" cx="1607.92" cy="-33.9411" rx="25" ry="25"/>
<text text-anchor="middle" x="1607.92" y="-31.7411" font-family="Times New Roman,serif" font-size="9.00">atirar</text>
</g>
<!-- dintancia projetil 1&#45;&gt;atirar -->
<g id="edge50" class="edge"><title>dintancia projetil 1&#45;&gt;atirar</title>
<path fill="none" stroke="red" stroke-width="0.274521" d="M1654.39,-119.405C1647.73,-107.297 1634.94,-84.0516 1624.46,-65.0071"/>
<polygon fill="red" stroke="red" stroke-width="0.274521" points="1627.43,-63.1368 1619.54,-56.0627 1621.3,-66.5113 1627.43,-63.1368"/>
</g>
<!-- release -->
<g id="node25" class="node"><title>release</title>
<ellipse fill="lightblue" stroke="black" cx="1452.92" cy="-33.9411" rx="28.9828" ry="28.9828"/>
<text text-anchor="middle" x="1452.92" y="-31.7411" font-family="Times New Roman,serif" font-size="9.00">release</text>
</g>
<!-- dintancia projetil 1&#45;&gt;release -->
<g id="edge6" class="edge"><title>dintancia projetil 1&#45;&gt;release</title>
<path fill="none" stroke="red" stroke-width="0.57901" stroke-dasharray="1,5" d="M1641.49,-119.423C1631.65,-114.813 1619.12,-108.981 1607.92,-103.882 1567.11,-85.3059 1520.02,-64.4408 1488.55,-50.5798"/>
<polygon fill="red" stroke="red" stroke-width="0.57901" points="1489.87,-47.3381 1479.31,-46.5132 1487.05,-53.745 1489.87,-47.3381"/>
</g>
<!-- distancia projetil 2 -->
<g id="node2" class="node"><title>distancia projetil 2</title>
<polygon fill="lightgray" stroke="black" points="1115.42,-137.631 1032.42,-137.631 1032.42,-119.631 1115.42,-119.631 1115.42,-137.631"/>
<text text-anchor="middle" x="1073.92" y="-126.431" font-family="Times New Roman,serif" font-size="9.00">distancia projetil 2</text>
</g>
<!-- distancia projetil 2&#45;&gt;esquerda -->
<g id="edge15" class="edge"><title>distancia projetil 2&#45;&gt;esquerda</title>
<path fill="none" stroke="red" stroke-width="0.364811" d="M1059.18,-119.418C1049.23,-114.211 1035.63,-107.75 1022.92,-103.882 881.731,-60.912 706.543,-43.721 626.084,-37.7347"/>
<polygon fill="red" stroke="red" stroke-width="0.364811" points="626.058,-34.2237 615.832,-36.9948 625.554,-41.2056 626.058,-34.2237"/>
</g>
<!-- distancia projetil 2&#45;&gt;direita -->
<g id="edge37" class="edge"><title>distancia projetil 2&#45;&gt;direita</title>
<path fill="none" stroke="red" stroke-width="0.491068" d="M1073.74,-119.405C1073.51,-108.665 1073.09,-89.1595 1072.71,-71.5973"/>
<polygon fill="red" stroke="red" stroke-width="0.491068" points="1076.21,-71.4846 1072.49,-61.5625 1069.21,-71.6357 1076.21,-71.4846"/>
</g>
<!-- pular -->
<g id="node23" class="node"><title>pular</title>
<ellipse fill="lightblue" stroke="black" cx="1159.92" cy="-33.9411" rx="25" ry="25"/>
<text text-anchor="middle" x="1159.92" y="-31.7411" font-family="Times New Roman,serif" font-size="9.00">pular</text>
</g>
<!-- distancia projetil 2&#45;&gt;pular -->
<g id="edge36" class="edge"><title>distancia projetil 2&#45;&gt;pular</title>
<path fill="none" stroke="green" stroke-width="0.205046" stroke-dasharray="1,5" d="M1081.55,-119.405C1093.75,-106.263 1118.11,-79.999 1136.46,-60.2282"/>
<polygon fill="green" stroke="green" stroke-width="0.205046" points="1139.17,-62.4553 1143.4,-52.7441 1134.03,-57.6942 1139.17,-62.4553"/>
</g>
<!-- distancia projetil 2&#45;&gt;release -->
<g id="edge58" class="edge"><title>distancia projetil 2&#45;&gt;release</title>
<path fill="none" stroke="red" stroke-width="1.13515" d="M1088.42,-119.619C1098.2,-114.497 1111.53,-108.055 1123.92,-103.882 1225.86,-69.533 1351.58,-48.9057 1413.98,-40.0487"/>
<polygon fill="red" stroke="red" stroke-width="1.13515" points="1414.73,-43.4773 1424.15,-38.6294 1413.76,-36.5444 1414.73,-43.4773"/>
</g>
<!-- distancia projetil 3 -->
<g id="node3" class="node"><title>distancia projetil 3</title>
<polygon fill="lightgray" stroke="black" points="1598.42,-137.631 1515.42,-137.631 1515.42,-119.631 1598.42,-119.631 1598.42,-137.631"/>
<text text-anchor="middle" x="1556.92" y="-126.431" font-family="Times New Roman,serif" font-size="9.00">distancia projetil 3</text>
</g>
<!-- distancia projetil 3&#45;&gt;esquerda -->
<g id="edge53" class="edge"><title>distancia projetil 3&#45;&gt;esquerda</title>
<path fill="none" stroke="red" stroke-width="0.317216" d="M1543.15,-119.547C1533.16,-114.112 1519.15,-107.333 1505.92,-103.882 1500.52,-102.474 809.226,-51.6341 626.042,-38.1801"/>
<polygon fill="red" stroke="red" stroke-width="0.317216" points="626.187,-34.6814 615.957,-37.4395 625.674,-41.6626 626.187,-34.6814"/>
</g>
<!-- distancia projetil 3&#45;&gt;pular -->
<g id="edge24" class="edge"><title>distancia projetil 3&#45;&gt;pular</title>
<path fill="none" stroke="green" stroke-width="0.200614" d="M1542.13,-119.591C1532.15,-114.458 1518.54,-108.013 1505.92,-103.882 1395.31,-67.6887 1258.29,-47.2433 1194.99,-39.1076"/>
<polygon fill="green" stroke="green" stroke-width="0.200614" points="1195.13,-35.5968 1184.77,-37.8185 1194.25,-42.5419 1195.13,-35.5968"/>
</g>
<!-- distancia projetil 3&#45;&gt;atirar -->
<g id="edge10" class="edge"><title>distancia projetil 3&#45;&gt;atirar</title>
<path fill="none" stroke="green" stroke-width="0.446777" stroke-dasharray="1,5" d="M1561.45,-119.405C1568.11,-107.297 1580.9,-84.0516 1591.38,-65.0071"/>
<polygon fill="green" stroke="green" stroke-width="0.446777" points="1594.54,-66.5113 1596.3,-56.0627 1588.41,-63.1368 1594.54,-66.5113"/>
</g>
<!-- distancia projetil 4 -->
<g id="node4" class="node"><title>distancia projetil 4</title>
<polygon fill="lightgray" stroke="black" points="907.42,-137.631 824.42,-137.631 824.42,-119.631 907.42,-119.631 907.42,-137.631"/>
<text text-anchor="middle" x="865.92" y="-126.431" font-family="Times New Roman,serif" font-size="9.00">distancia projetil 4</text>
</g>
<!-- distancia projetil 4&#45;&gt;esquerda -->
<g id="edge42" class="edge"><title>distancia projetil 4&#45;&gt;esquerda</title>
<path fill="none" stroke="red" stroke-width="0.322771" d="M850.102,-119.525C840.161,-114.616 826.978,-108.445 814.92,-103.882 749.859,-79.2638 671.939,-57.7559 624.721,-45.566"/>
<polygon fill="red" stroke="red" stroke-width="0.322771" points="625.396,-42.1259 614.84,-43.0356 623.659,-48.9071 625.396,-42.1259"/>
</g>
<!-- distancia projetil 4&#45;&gt;release -->
<g id="edge49" class="edge"><title>distancia projetil 4&#45;&gt;release</title>
<path fill="none" stroke="red" stroke-width="0.308403" stroke-dasharray="1,5" d="M880.178,-119.508C890.154,-114.201 903.961,-107.589 916.92,-103.882 1043.91,-67.5557 1080.93,-84.8265 1211.92,-67.8823 1283.17,-58.6656 1366.16,-47.1503 1413.82,-40.4624"/>
<polygon fill="red" stroke="red" stroke-width="0.308403" points="1414.59,-43.8886 1424,-39.0309 1413.61,-36.9567 1414.59,-43.8886"/>
</g>
<!-- distancia projetil 5 -->
<g id="node5" class="node"><title>distancia projetil 5</title>
<polygon fill="lightgray" stroke="black" points="965.42,-207.38 882.42,-207.38 882.42,-189.38 965.42,-189.38 965.42,-207.38"/>
<text text-anchor="middle" x="923.92" y="-196.18" font-family="Times New Roman,serif" font-size="9.00">distancia projetil 5</text>
</g>
<!-- distancia projetil 5&#45;&gt;esquerda -->
<g id="edge29" class="edge"><title>distancia projetil 5&#45;&gt;esquerda</title>
<path fill="none" stroke="green" stroke-width="0.341367" stroke-dasharray="1,5" d="M882.14,-197.548C751.5,-197.643 357.153,-194.495 318.92,-153.38 251.197,-80.5527 446.826,-49.4413 537.964,-39.1506"/>
<polygon fill="green" stroke="green" stroke-width="0.341367" points="538.454,-42.618 548.014,-38.0524 537.693,-35.6594 538.454,-42.618"/>
</g>
<!-- distancia projetil 5&#45;&gt;direita -->
<g id="edge17" class="edge"><title>distancia projetil 5&#45;&gt;direita</title>
<path fill="none" stroke="green" stroke-width="0.307307" stroke-dasharray="1,5" d="M882.176,-194.931C825.929,-190.661 730.36,-179.651 708.92,-153.38 695.011,-136.336 694.891,-120.827 708.92,-103.882 749.966,-54.3075 949.703,-40.0922 1034.13,-36.2631"/>
<polygon fill="green" stroke="green" stroke-width="0.307307" points="1034.47,-39.7519 1044.31,-35.8268 1034.17,-32.7584 1034.47,-39.7519"/>
</g>
<!-- distancia projetil 5&#45;&gt;release -->
<g id="edge27" class="edge"><title>distancia projetil 5&#45;&gt;release</title>
<path fill="none" stroke="green" stroke-width="0.513538" d="M965.652,-197.107C1149.17,-195.71 1876.81,-187.995 1909.92,-153.38 1999.78,-59.4231 1952.45,-139.216 1573.92,-67.8823 1545.46,-62.5198 1513.92,-53.8381 1490.17,-46.7333"/>
<polygon fill="green" stroke="green" stroke-width="0.513538" points="1491.09,-43.3543 1480.5,-43.7993 1489.06,-50.0526 1491.09,-43.3543"/>
</g>
<!-- 4342 -->
<g id="node26" class="node"><title>4342</title>
<ellipse fill="white" stroke="black" cx="1157.92" cy="-128.631" rx="25" ry="25"/>
<text text-anchor="middle" x="1157.92" y="-126.431" font-family="Times New Roman,serif" font-size="9.00">4342</text>
</g>
<!-- distancia projetil 5&#45;&gt;4342 -->
<g id="edge14" class="edge"><title>distancia projetil 5&#45;&gt;4342</title>
<path fill="none" stroke="red" stroke-width="0.394332" d="M965.498,-193.282C1007.26,-188.033 1072.72,-176.667 1124.92,-153.38 1126.76,-152.56 1128.59,-151.629 1130.41,-150.62"/>
<polygon fill="red" stroke="red" stroke-width="0.394332" points="1132.58,-153.388 1139.18,-145.101 1128.86,-147.462 1132.58,-153.388"/>
</g>
<!-- distancia projetil 6 -->
<g id="node6" class="node"><title>distancia projetil 6</title>
<polygon fill="lightgray" stroke="black" points="2040.42,-137.631 1957.42,-137.631 1957.42,-119.631 2040.42,-119.631 2040.42,-137.631"/>
<text text-anchor="middle" x="1998.92" y="-126.431" font-family="Times New Roman,serif" font-size="9.00">distancia projetil 6</text>
</g>
<!-- distancia projetil 6&#45;&gt;atirar -->
<g id="edge35" class="edge"><title>distancia projetil 6&#45;&gt;atirar</title>
<path fill="none" stroke="red" stroke-width="0.801862" stroke-dasharray="1,5" d="M1982.09,-119.459C1971.14,-114.401 1956.43,-108.092 1942.92,-103.882 1835.47,-70.4055 1703.5,-48.7091 1642.21,-39.6997"/>
<polygon fill="red" stroke="red" stroke-width="0.801862" points="1642.7,-36.2343 1632.3,-38.2636 1641.7,-43.1619 1642.7,-36.2343"/>
</g>
<!-- distancia projetil 6&#45;&gt;release -->
<g id="edge25" class="edge"><title>distancia projetil 6&#45;&gt;release</title>
<path fill="none" stroke="red" stroke-width="0.232936" stroke-dasharray="1,5" d="M1983.2,-119.436C1972.21,-114.096 1957.04,-107.476 1942.92,-103.882 1783.23,-63.2472 1735.99,-97.6299 1573.92,-67.8823 1545.44,-62.6548 1513.89,-53.9678 1490.15,-46.8268"/>
<polygon fill="red" stroke="red" stroke-width="0.232936" points="1491.07,-43.4488 1480.49,-43.8757 1489.03,-50.1436 1491.07,-43.4488"/>
</g>
<!-- distancia projetil 7 -->
<g id="node7" class="node"><title>distancia projetil 7</title>
<polygon fill="lightgray" stroke="black" points="623.42,-137.631 540.42,-137.631 540.42,-119.631 623.42,-119.631 623.42,-137.631"/>
<text text-anchor="middle" x="581.92" y="-126.431" font-family="Times New Roman,serif" font-size="9.00">distancia projetil 7</text>
</g>
<!-- distancia projetil 7&#45;&gt;esquerda -->
<g id="edge9" class="edge"><title>distancia projetil 7&#45;&gt;esquerda</title>
<path fill="none" stroke="red" stroke-width="0.19654" d="M581.92,-119.405C581.92,-110.028 581.92,-93.9714 581.92,-78.3592"/>
<polygon fill="red" stroke="red" stroke-width="0.19654" points="585.42,-78.2385 581.92,-68.2386 578.42,-78.2386 585.42,-78.2385"/>
</g>
<!-- distancia projetil 7&#45;&gt;pular -->
<g id="edge43" class="edge"><title>distancia projetil 7&#45;&gt;pular</title>
<path fill="none" stroke="red" stroke-width="0.165267" d="M619.55,-119.583C644.74,-114.445 678.693,-108 708.92,-103.882 801.3,-91.2982 1042.38,-107.189 1126.92,-67.8823 1130.8,-66.0777 1134.49,-63.6133 1137.89,-60.8386"/>
<polygon fill="red" stroke="red" stroke-width="0.165267" points="1140.35,-63.3365 1145.29,-53.9658 1135.58,-58.2083 1140.35,-63.3365"/>
</g>
<!-- distancia projetil 8 -->
<g id="node8" class="node"><title>distancia projetil 8</title>
<polygon fill="lightgray" stroke="black" points="2141.42,-137.631 2058.42,-137.631 2058.42,-119.631 2141.42,-119.631 2141.42,-137.631"/>
<text text-anchor="middle" x="2099.92" y="-126.431" font-family="Times New Roman,serif" font-size="9.00">distancia projetil 8</text>
</g>
<!-- distancia projetil 8&#45;&gt;atirar -->
<g id="edge39" class="edge"><title>distancia projetil 8&#45;&gt;atirar</title>
<path fill="none" stroke="red" stroke-width="0.179644" d="M2085.49,-119.407C2075.74,-114.195 2062.41,-107.733 2049.92,-103.882 1903.14,-58.626 1719.35,-42.1488 1643.34,-36.9946"/>
<polygon fill="red" stroke="red" stroke-width="0.179644" points="1643.13,-33.4736 1632.92,-36.3142 1642.67,-40.4587 1643.13,-33.4736"/>
</g>
<!-- distancia projetil 9 -->
<g id="node9" class="node"><title>distancia projetil 9</title>
<polygon fill="lightgray" stroke="black" points="271.42,-137.631 188.42,-137.631 188.42,-119.631 271.42,-119.631 271.42,-137.631"/>
<text text-anchor="middle" x="229.92" y="-126.431" font-family="Times New Roman,serif" font-size="9.00">distancia projetil 9</text>
</g>
<!-- distancia projetil 9&#45;&gt;esquerda -->
<g id="edge41" class="edge"><title>distancia projetil 9&#45;&gt;esquerda</title>
<path fill="none" stroke="red" stroke-width="0.160261" d="M246.786,-119.578C257.753,-114.567 272.465,-108.266 285.92,-103.882 373.949,-75.2019 480.363,-53.4495 538.605,-42.6018"/>
<polygon fill="red" stroke="red" stroke-width="0.160261" points="539.36,-46.0215 548.56,-40.7666 538.091,-39.1375 539.36,-46.0215"/>
</g>
<!-- distancia projetil 10 -->
<g id="node10" class="node"><title>distancia projetil 10</title>
<polygon fill="lightgray" stroke="black" points="415.92,-137.631 327.92,-137.631 327.92,-119.631 415.92,-119.631 415.92,-137.631"/>
<text text-anchor="middle" x="371.92" y="-126.431" font-family="Times New Roman,serif" font-size="9.00">distancia projetil 10</text>
</g>
<!-- distancia projetil 10&#45;&gt;esquerda -->
<g id="edge28" class="edge"><title>distancia projetil 10&#45;&gt;esquerda</title>
<path fill="none" stroke="green" stroke-width="0.10411" d="M390.057,-119.464C400.286,-114.867 413.307,-109.034 424.92,-103.882 464.501,-86.3245 509.787,-66.4627 541.518,-52.5831"/>
<polygon fill="green" stroke="green" stroke-width="0.10411" points="543.149,-55.6901 550.909,-48.4769 540.345,-49.2764 543.149,-55.6901"/>
</g>
<!-- distancia projetil 10&#45;&gt;direita -->
<g id="edge13" class="edge"><title>distancia projetil 10&#45;&gt;direita</title>
<path fill="none" stroke="green" stroke-width="0.139024" d="M386.759,-119.457C397.135,-114.127 411.487,-107.509 424.92,-103.882 541.369,-72.4415 913.773,-45.4812 1034.06,-37.4054"/>
<polygon fill="green" stroke="green" stroke-width="0.139024" points="1034.51,-40.8837 1044.25,-36.7261 1034.04,-33.8992 1034.51,-40.8837"/>
</g>
<!-- distancia projetil 11 -->
<g id="node11" class="node"><title>distancia projetil 11</title>
<polygon fill="lightgray" stroke="black" points="1806.92,-137.631 1718.92,-137.631 1718.92,-119.631 1806.92,-119.631 1806.92,-137.631"/>
<text text-anchor="middle" x="1762.92" y="-126.431" font-family="Times New Roman,serif" font-size="9.00">distancia projetil 11</text>
</g>
<!-- distancia projetil 11&#45;&gt;direita -->
<g id="edge4" class="edge"><title>distancia projetil 11&#45;&gt;direita</title>
<path fill="none" stroke="green" stroke-width="0.669912" stroke-dasharray="1,5" d="M1748.58,-119.5C1738.19,-114.043 1723.63,-107.257 1709.92,-103.882 1457.41,-41.7108 1373.99,-145.889 1125.92,-67.8823 1117.82,-65.3344 1109.68,-61.3193 1102.27,-56.956"/>
<polygon fill="green" stroke="green" stroke-width="0.669912" points="1103.66,-53.6939 1093.33,-51.3273 1099.93,-59.6174 1103.66,-53.6939"/>
</g>
<!-- distancia projetil 11&#45;&gt;release -->
<g id="edge23" class="edge"><title>distancia projetil 11&#45;&gt;release</title>
<path fill="none" stroke="red" stroke-width="0.541347" stroke-dasharray="1,5" d="M1746.49,-119.437C1736.17,-114.496 1722.47,-108.321 1709.92,-103.882 1650.97,-83.0295 1634.31,-84.0946 1573.92,-67.8823 1545.95,-60.3743 1514.39,-51.7763 1490.51,-45.2475"/>
<polygon fill="red" stroke="red" stroke-width="0.541347" points="1491.35,-41.8486 1480.78,-42.5853 1489.5,-48.6004 1491.35,-41.8486"/>
</g>
<!-- distancia projetil 12 -->
<g id="node12" class="node"><title>distancia projetil 12</title>
<polygon fill="lightgray" stroke="black" points="805.92,-137.631 717.92,-137.631 717.92,-119.631 805.92,-119.631 805.92,-137.631"/>
<text text-anchor="middle" x="761.92" y="-126.431" font-family="Times New Roman,serif" font-size="9.00">distancia projetil 12</text>
</g>
<!-- distancia projetil 12&#45;&gt;esquerda -->
<g id="edge7" class="edge"><title>distancia projetil 12&#45;&gt;esquerda</title>
<path fill="none" stroke="green" stroke-width="0.22158" d="M746.261,-119.568C718.547,-105.296 660.091,-75.1945 620.903,-55.0152"/>
<polygon fill="green" stroke="green" stroke-width="0.22158" points="622.368,-51.833 611.876,-50.3665 619.164,-58.0563 622.368,-51.833"/>
</g>
<!-- distancia projetil 12&#45;&gt;direita -->
<g id="edge21" class="edge"><title>distancia projetil 12&#45;&gt;direita</title>
<path fill="none" stroke="green" stroke-width="0.29141" d="M778.68,-119.475C789.211,-114.548 803.169,-108.374 815.92,-103.882 892.319,-76.9691 984.656,-54.4789 1034.91,-43.0488"/>
<polygon fill="green" stroke="green" stroke-width="0.29141" points="1035.99,-46.3934 1044.98,-40.78 1034.46,-39.5647 1035.99,-46.3934"/>
</g>
<!-- distancia projetil 12&#45;&gt;release -->
<g id="edge12" class="edge"><title>distancia projetil 12&#45;&gt;release</title>
<path fill="none" stroke="red" stroke-width="0.912731" d="M776.583,-119.628C787.188,-114.231 802.037,-107.464 815.92,-103.882 987.042,-59.7323 1036.33,-87.854 1211.92,-67.8823 1283.5,-59.7408 1366.7,-47.8216 1414.25,-40.775"/>
<polygon fill="red" stroke="red" stroke-width="0.912731" points="1415.03,-44.1976 1424.41,-39.2636 1414,-37.2739 1415.03,-44.1976"/>
</g>
<!-- distancia projetil 13 -->
<g id="node13" class="node"><title>distancia projetil 13</title>
<polygon fill="lightgray" stroke="black" points="521.92,-137.631 433.92,-137.631 433.92,-119.631 521.92,-119.631 521.92,-137.631"/>
<text text-anchor="middle" x="477.92" y="-126.431" font-family="Times New Roman,serif" font-size="9.00">distancia projetil 13</text>
</g>
<!-- distancia projetil 13&#45;&gt;esquerda -->
<g id="edge57" class="edge"><title>distancia projetil 13&#45;&gt;esquerda</title>
<path fill="none" stroke="green" stroke-width="0.162465" d="M487.15,-119.405C500.963,-107.094 527.698,-83.2669 549.259,-64.0503"/>
<polygon fill="green" stroke="green" stroke-width="0.162465" points="551.799,-66.4754 556.935,-57.209 547.141,-61.2496 551.799,-66.4754"/>
</g>
<!-- distancia projetil 13&#45;&gt;direita -->
<g id="edge45" class="edge"><title>distancia projetil 13&#45;&gt;direita</title>
<path fill="none" stroke="green" stroke-width="0.257646" stroke-dasharray="1,5" d="M493.082,-119.554C503.674,-114.267 518.301,-107.661 531.92,-103.882 715.478,-52.9512 944.735,-39.4834 1033.94,-36.0586"/>
<polygon fill="green" stroke="green" stroke-width="0.257646" points="1034.25,-39.5498 1044.12,-35.6889 1034,-32.5545 1034.25,-39.5498"/>
</g>
<!-- distancia projetil 13&#45;&gt;pular -->
<g id="edge33" class="edge"><title>distancia projetil 13&#45;&gt;pular</title>
<path fill="none" stroke="red" stroke-width="0.204746" stroke-dasharray="1,5" d="M492.55,-119.498C503.141,-114.04 517.984,-107.254 531.92,-103.882 660.67,-72.7323 1006.1,-122.194 1126.92,-67.8823 1130.82,-66.1273 1134.52,-63.692 1137.94,-60.9323"/>
<polygon fill="red" stroke="red" stroke-width="0.204746" points="1140.38,-63.4362 1145.34,-54.0717 1135.62,-58.3019 1140.38,-63.4362"/>
</g>
<!-- distancia projetil 14 -->
<g id="node14" class="node"><title>distancia projetil 14</title>
<polygon fill="lightgray" stroke="black" points="1288.92,-137.631 1200.92,-137.631 1200.92,-119.631 1288.92,-119.631 1288.92,-137.631"/>
<text text-anchor="middle" x="1244.92" y="-126.431" font-family="Times New Roman,serif" font-size="9.00">distancia projetil 14</text>
</g>
<!-- distancia projetil 14&#45;&gt;esquerda -->
<g id="edge47" class="edge"><title>distancia projetil 14&#45;&gt;esquerda</title>
<path fill="none" stroke="red" stroke-width="0.474269" d="M1230.07,-119.484C1219.69,-114.167 1205.34,-107.552 1191.92,-103.882 985.646,-47.4815 727.986,-37.1411 626.21,-35.3062"/>
<polygon fill="red" stroke="red" stroke-width="0.474269" points="626.054,-31.8033 615.999,-35.1417 625.941,-38.8024 626.054,-31.8033"/>
</g>
<!-- distancia projetil 14&#45;&gt;direita -->
<g id="edge59" class="edge"><title>distancia projetil 14&#45;&gt;direita</title>
<path fill="none" stroke="red" stroke-width="0.31026" stroke-dasharray="1,5" d="M1227.74,-119.556C1204.4,-108.46 1161.5,-87.6216 1125.92,-67.8823 1118.63,-63.8365 1110.91,-59.2924 1103.66,-54.9017"/>
<polygon fill="red" stroke="red" stroke-width="0.31026" points="1105.15,-51.7108 1094.8,-49.4711 1101.5,-57.6797 1105.15,-51.7108"/>
</g>
<!-- distancia projetil 14&#45;&gt;pular -->
<g id="edge18" class="edge"><title>distancia projetil 14&#45;&gt;pular</title>
<path fill="none" stroke="red" stroke-width="0.459392" stroke-dasharray="1,5" d="M1237.38,-119.405C1225.33,-106.263 1201.24,-79.999 1183.11,-60.2282"/>
<polygon fill="red" stroke="red" stroke-width="0.459392" points="1185.58,-57.7487 1176.25,-52.7441 1180.43,-62.4799 1185.58,-57.7487"/>
</g>
<!-- distancia projetil 14&#45;&gt;atirar -->
<g id="edge32" class="edge"><title>distancia projetil 14&#45;&gt;atirar</title>
<path fill="none" stroke="green" stroke-width="0.177837" d="M1260.62,-119.58C1271.2,-114.442 1285.61,-107.996 1298.92,-103.882 1381.87,-78.2383 1406.38,-87.6665 1490.92,-67.8823 1519.38,-61.222 1551.29,-52.1262 1574.59,-45.1799"/>
<polygon fill="green" stroke="green" stroke-width="0.177837" points="1575.76,-48.4831 1584.33,-42.2521 1573.74,-41.7795 1575.76,-48.4831"/>
</g>
<!-- distancia projetil 14&#45;&gt;release -->
<g id="edge20" class="edge"><title>distancia projetil 14&#45;&gt;release</title>
<path fill="none" stroke="green" stroke-width="0.536811" stroke-dasharray="1,5" d="M1263.01,-119.568C1297.36,-104.262 1372.57,-70.7491 1417.34,-50.7947"/>
<polygon fill="green" stroke="green" stroke-width="0.536811" points="1418.97,-53.9011 1426.68,-46.6338 1416.12,-47.5073 1418.97,-53.9011"/>
</g>
<!-- distancia projetil 15 -->
<g id="node15" class="node"><title>distancia projetil 15</title>
<polygon fill="lightgray" stroke="black" points="1013.92,-137.631 925.92,-137.631 925.92,-119.631 1013.92,-119.631 1013.92,-137.631"/>
<text text-anchor="middle" x="969.92" y="-126.431" font-family="Times New Roman,serif" font-size="9.00">distancia projetil 15</text>
</g>
<!-- distancia projetil 15&#45;&gt;direita -->
<g id="edge22" class="edge"><title>distancia projetil 15&#45;&gt;direita</title>
<path fill="none" stroke="green" stroke-width="0.395585" stroke-dasharray="1,5" d="M978.972,-119.405C993.475,-106.226 1022.5,-79.8494 1044.28,-60.0597"/>
<polygon fill="green" stroke="green" stroke-width="0.395585" points="1046.89,-62.4189 1051.93,-53.1034 1042.18,-57.2384 1046.89,-62.4189"/>
</g>
<!-- distancia projetil 15&#45;&gt;pular -->
<g id="edge8" class="edge"><title>distancia projetil 15&#45;&gt;pular</title>
<path fill="none" stroke="green" stroke-width="0.352519" d="M987.285,-119.582C997.801,-114.81 1011.53,-108.762 1023.92,-103.882 1069.04,-86.1075 1085.84,-93.6566 1126.92,-67.8823 1130.37,-65.7175 1133.74,-63.1313 1136.92,-60.3729"/>
<polygon fill="green" stroke="green" stroke-width="0.352519" points="1139.54,-62.7143 1144.41,-53.3035 1134.74,-57.6252 1139.54,-62.7143"/>
</g>
<!-- distancia projetil 16 -->
<g id="node16" class="node"><title>distancia projetil 16</title>
<polygon fill="lightgray" stroke="black" points="1496.92,-137.631 1408.92,-137.631 1408.92,-119.631 1496.92,-119.631 1496.92,-137.631"/>
<text text-anchor="middle" x="1452.92" y="-126.431" font-family="Times New Roman,serif" font-size="9.00">distancia projetil 16</text>
</g>
<!-- distancia projetil 16&#45;&gt;direita -->
<g id="edge38" class="edge"><title>distancia projetil 16&#45;&gt;direita</title>
<path fill="none" stroke="green" stroke-width="0.817052" stroke-dasharray="1,5" d="M1438.05,-119.562C1427.66,-114.278 1413.31,-107.673 1399.92,-103.882 1281.74,-70.4172 1241.75,-108.75 1125.92,-67.8823 1117.98,-65.0819 1109.96,-61.0058 1102.61,-56.6689"/>
<polygon fill="green" stroke="green" stroke-width="0.817052" points="1104.06,-53.4453 1093.72,-51.1123 1100.35,-59.381 1104.06,-53.4453"/>
</g>
<!-- distancia projetil 16&#45;&gt;pular -->
<g id="edge52" class="edge"><title>distancia projetil 16&#45;&gt;pular</title>
<path fill="none" stroke="green" stroke-width="0.107204" stroke-dasharray="1,5" d="M1436.46,-119.53C1426.12,-114.623 1412.42,-108.452 1399.92,-103.882 1327.81,-77.5196 1240.61,-54.6372 1193.71,-43.0371"/>
<polygon fill="green" stroke="green" stroke-width="0.107204" points="1194.33,-39.5856 1183.78,-40.6022 1192.66,-46.384 1194.33,-39.5856"/>
</g>
<!-- distancia projetil 16&#45;&gt;release -->
<g id="edge51" class="edge"><title>distancia projetil 16&#45;&gt;release</title>
<path fill="none" stroke="green" stroke-width="0.174333" stroke-dasharray="1,5" d="M1452.92,-119.405C1452.92,-109.059 1452.92,-90.5783 1452.92,-73.5369"/>
<polygon fill="green" stroke="green" stroke-width="0.174333" points="1456.42,-73.1976 1452.92,-63.1976 1449.42,-73.1977 1456.42,-73.1976"/>
</g>
<!-- distancia inimigo 1 -->
<g id="node17" class="node"><title>distancia inimigo 1</title>
<polygon fill="lightgray" stroke="black" points="1390.42,-137.631 1307.42,-137.631 1307.42,-119.631 1390.42,-119.631 1390.42,-137.631"/>
<text text-anchor="middle" x="1348.92" y="-126.431" font-family="Times New Roman,serif" font-size="9.00">distancia inimigo 1</text>
</g>
<!-- distancia inimigo 1&#45;&gt;esquerda -->
<g id="edge5" class="edge"><title>distancia inimigo 1&#45;&gt;esquerda</title>
<path fill="none" stroke="red" stroke-width="0.380832" d="M1334.69,-119.403C1324.73,-114.048 1310.93,-107.424 1297.92,-103.882 1233.19,-86.2545 772.699,-49.6491 626.41,-38.3425"/>
<polygon fill="red" stroke="red" stroke-width="0.380832" points="626.268,-34.8213 616.028,-37.5419 625.73,-41.8006 626.268,-34.8213"/>
</g>
<!-- distancia inimigo 1&#45;&gt;direita -->
<g id="edge56" class="edge"><title>distancia inimigo 1&#45;&gt;direita</title>
<path fill="none" stroke="green" stroke-width="0.354622" stroke-dasharray="1,5" d="M1333.67,-119.405C1323.73,-114.326 1310.34,-108.012 1297.92,-103.882 1223.81,-79.2355 1198.54,-96.6366 1125.92,-67.8823 1118.09,-64.7836 1110.12,-60.5878 1102.77,-56.2296"/>
<polygon fill="green" stroke="green" stroke-width="0.354622" points="1104.22,-53.0054 1093.88,-50.6927 1100.52,-58.9484 1104.22,-53.0054"/>
</g>
<!-- distancia inimigo 1&#45;&gt;pular -->
<g id="edge34" class="edge"><title>distancia inimigo 1&#45;&gt;pular</title>
<path fill="none" stroke="red" stroke-width="0.180666" stroke-dasharray="1,5" d="M1332.48,-119.568C1300.97,-104.114 1231.61,-70.0976 1191.07,-50.2182"/>
<polygon fill="red" stroke="red" stroke-width="0.180666" points="1192.43,-46.9873 1181.91,-45.7265 1189.35,-53.2722 1192.43,-46.9873"/>
</g>
<!-- distancia inimigo 1&#45;&gt;atirar -->
<g id="edge19" class="edge"><title>distancia inimigo 1&#45;&gt;atirar</title>
<path fill="none" stroke="red" stroke-width="0.113211" stroke-dasharray="1,5" d="M1365.25,-119.44C1375.15,-114.618 1388.12,-108.567 1399.92,-103.882 1460.51,-79.8259 1533.19,-57.0833 1574.62,-44.6756"/>
<polygon fill="red" stroke="red" stroke-width="0.113211" points="1575.62,-48.0296 1584.21,-41.8223 1573.62,-41.3205 1575.62,-48.0296"/>
</g>
<!-- distancia inimigo 1&#45;&gt;release -->
<g id="edge11" class="edge"><title>distancia inimigo 1&#45;&gt;release</title>
<path fill="none" stroke="green" stroke-width="0.326118" stroke-dasharray="1,5" d="M1358.15,-119.405C1372.82,-106.326 1402.08,-80.2518 1424.23,-60.5146"/>
<polygon fill="green" stroke="green" stroke-width="0.326118" points="1426.59,-63.0956 1431.73,-53.8292 1421.93,-57.8699 1426.59,-63.0956"/>
</g>
<!-- distancia inimigo 2 -->
<g id="node18" class="node"><title>distancia inimigo 2</title>
<polygon fill="lightgray" stroke="black" points="170.42,-137.631 87.4202,-137.631 87.4202,-119.631 170.42,-119.631 170.42,-137.631"/>
<text text-anchor="middle" x="128.92" y="-126.431" font-family="Times New Roman,serif" font-size="9.00">distancia inimigo 2</text>
</g>
<!-- distancia inimigo 2&#45;&gt;esquerda -->
<g id="edge55" class="edge"><title>distancia inimigo 2&#45;&gt;esquerda</title>
<path fill="none" stroke="red" stroke-width="0.556668" stroke-dasharray="1,5" d="M143.366,-119.467C153.127,-114.281 166.459,-107.825 178.92,-103.882 305.766,-63.7488 462.902,-45.427 537.976,-38.4916"/>
<polygon fill="red" stroke="red" stroke-width="0.556668" points="538.367,-41.9706 548.013,-37.5874 537.739,-34.9988 538.367,-41.9706"/>
</g>
<!-- direcao sprites 1 -->
<g id="node19" class="node"><title>direcao sprites 1</title>
<polygon fill="lightgray" stroke="black" points="385.92,-207.38 309.92,-207.38 309.92,-189.38 385.92,-189.38 385.92,-207.38"/>
<text text-anchor="middle" x="347.92" y="-196.18" font-family="Times New Roman,serif" font-size="9.00">direcao sprites 1</text>
</g>
<!-- direcao sprites 1&#45;&gt;esquerda -->
<g id="edge48" class="edge"><title>direcao sprites 1&#45;&gt;esquerda</title>
<path fill="none" stroke="red" stroke-width="0.524375" d="M309.707,-195.187C225.611,-189.971 30.4083,-175.578 10.9202,-153.38 -3.59352,-136.848 -3.67331,-120.344 10.9202,-103.882 45.7919,-64.547 409.653,-43.2764 537.669,-36.9669"/>
<polygon fill="red" stroke="red" stroke-width="0.524375" points="538.075,-40.4514 547.894,-36.4702 537.736,-33.4596 538.075,-40.4514"/>
</g>
<!-- direcao sprites 1&#45;&gt;direita -->
<g id="edge30" class="edge"><title>direcao sprites 1&#45;&gt;direita</title>
<path fill="none" stroke="green" stroke-width="0.498634" stroke-dasharray="1,5" d="M386.11,-197.716C442.511,-196.863 550.312,-190.016 632.92,-153.38 664.836,-139.225 662.2,-118.47 693.92,-103.882 809.79,-50.5963 963.417,-38.4491 1033.78,-35.7139"/>
<polygon fill="green" stroke="green" stroke-width="0.498634" points="1034.07,-39.2062 1043.94,-35.3628 1033.83,-32.2103 1034.07,-39.2062"/>
</g>
<!-- direcao sprites 1&#45;&gt;4342 -->
<g id="edge1" class="edge"><title>direcao sprites 1&#45;&gt;4342</title>
<path fill="none" stroke="red" stroke-width="0.58479" d="M386.038,-196.473C532.573,-192.815 1054.95,-178.146 1124.92,-153.38 1126.82,-152.709 1128.7,-151.892 1130.55,-150.972"/>
<polygon fill="red" stroke="red" stroke-width="0.58479" points="1132.62,-153.813 1139.42,-145.689 1129.04,-147.799 1132.62,-153.813"/>
</g>
<!-- 4608 -->
<g id="node27" class="node"><title>4608</title>
<ellipse fill="white" stroke="black" cx="44.9202" cy="-128.631" rx="25" ry="25"/>
<text text-anchor="middle" x="44.9202" y="-126.431" font-family="Times New Roman,serif" font-size="9.00">4608</text>
</g>
<!-- direcao sprites 1&#45;&gt;4608 -->
<g id="edge46" class="edge"><title>direcao sprites 1&#45;&gt;4608</title>
<path fill="none" stroke="green" stroke-width="0.360874" d="M309.751,-196.624C256.049,-194.365 156.024,-185.729 77.9202,-153.38 76.0616,-152.61 74.2079,-151.717 72.3809,-150.738"/>
<polygon fill="green" stroke="green" stroke-width="0.360874" points="73.9185,-147.574 63.5709,-145.299 70.2408,-153.531 73.9185,-147.574"/>
</g>
<!-- direcao sprites 2 -->
<g id="node20" class="node"><title>direcao sprites 2</title>
<polygon fill="lightgray" stroke="black" points="1900.92,-137.631 1824.92,-137.631 1824.92,-119.631 1900.92,-119.631 1900.92,-137.631"/>
<text text-anchor="middle" x="1862.92" y="-126.431" font-family="Times New Roman,serif" font-size="9.00">direcao sprites 2</text>
</g>
<!-- direcao sprites 2&#45;&gt;release -->
<g id="edge40" class="edge"><title>direcao sprites 2&#45;&gt;release</title>
<path fill="none" stroke="red" stroke-width="0.363545" stroke-dasharray="1,5" d="M1849.83,-119.581C1840.66,-114.307 1827.94,-107.704 1815.92,-103.882 1712.29,-70.9409 1680.34,-90.203 1573.92,-67.8823 1545.58,-61.9385 1514.03,-53.2794 1490.25,-46.3307"/>
<polygon fill="red" stroke="red" stroke-width="0.363545" points="1491.15,-42.947 1480.57,-43.4704 1489.17,-49.6602 1491.15,-42.947"/>
</g>
<!-- direita&#45;&gt;direita -->
<g id="edge54" class="edge"><title>direita&#45;&gt;direita</title>
<path fill="none" stroke="red" stroke-width="0.272419" stroke-dasharray="1,5" d="M1093.96,-50.7227C1106.21,-53.8553 1117.5,-48.2614 1117.5,-33.9411 1117.5,-23.7603 1111.79,-17.9901 1104.09,-16.6305"/>
<polygon fill="red" stroke="red" stroke-width="0.272419" points="1103.77,-13.1428 1093.96,-17.1595 1104.13,-20.1333 1103.77,-13.1428"/>
</g>
<!-- pular&#45;&gt;pular -->
<g id="edge26" class="edge"><title>pular&#45;&gt;pular</title>
<path fill="none" stroke="green" stroke-width="0.354511" stroke-dasharray="1,5" d="M1178.82,-50.172C1190.97,-54.4061 1202.67,-48.9958 1202.67,-33.9411 1202.67,-23.2382 1196.76,-17.4098 1188.97,-16.4561"/>
<polygon fill="green" stroke="green" stroke-width="0.354511" points="1188.32,-13.0106 1178.82,-17.7103 1189.17,-19.9578 1188.32,-13.0106"/>
</g>
<!-- 4342&#45;&gt;direita -->
<g id="edge44" class="edge"><title>4342&#45;&gt;direita</title>
<path fill="none" stroke="red" stroke-width="0.135313" d="M1141.34,-109.759C1128.87,-96.3201 1111.56,-77.6652 1097.35,-62.3453"/>
<polygon fill="red" stroke="red" stroke-width="0.135313" points="1099.6,-59.6335 1090.24,-54.6833 1094.47,-64.3946 1099.6,-59.6335"/>
</g>
<!-- 4342&#45;&gt;pular -->
<g id="edge2" class="edge"><title>4342&#45;&gt;pular</title>
<path fill="none" stroke="red" stroke-width="0.183178" d="M1158.44,-103.761C1158.66,-93.1656 1158.94,-80.5022 1159.19,-68.9436"/>
<polygon fill="red" stroke="red" stroke-width="0.183178" points="1162.69,-68.8034 1159.41,-58.7302 1155.69,-68.6523 1162.69,-68.8034"/>
</g>
<!-- 4608&#45;&gt;esquerda -->
<g id="edge31" class="edge"><title>4608&#45;&gt;esquerda</title>
<path fill="none" stroke="green" stroke-width="0.749035" d="M63.5326,-111.869C68.0057,-108.773 72.9381,-105.871 77.9202,-103.882 161.463,-70.5265 431.2,-46.601 537.894,-38.2195"/>
<polygon fill="green" stroke="green" stroke-width="0.749035" points="538.299,-41.6987 547.997,-37.4341 537.756,-34.7197 538.299,-41.6987"/>
</g>
</g>
</svg>
