<?xml version="1.0" encoding="UTF-8" standalone="no"?>
<!DOCTYPE svg PUBLIC "-//W3C//DTD SVG 1.1//EN"
 "http://www.w3.org/Graphics/SVG/1.1/DTD/svg11.dtd">
<!-- Generated by graphviz version 2.38.0 (20140413.2041)
 -->
<!-- Title: %3 Pages: 1 -->
<svg width="2311pt" height="372pt"
 viewBox="0.00 0.00 2311.24 372.23" xmlns="http://www.w3.org/2000/svg" xmlns:xlink="http://www.w3.org/1999/xlink">
<g id="graph0" class="graph" transform="scale(1 1) rotate(0) translate(4 368.233)">
<title>%3</title>
<polygon fill="white" stroke="none" points="-4,4 -4,-368.233 2307.24,-368.233 2307.24,4 -4,4"/>
<!-- dintancia projetil 1 -->
<g id="node1" class="node"><title>dintancia projetil 1</title>
<polygon fill="lightgray" stroke="black" points="1370.22,-298.019 1286.22,-298.019 1286.22,-280.019 1370.22,-280.019 1370.22,-298.019"/>
<text text-anchor="middle" x="1328.22" y="-286.819" font-family="Times New Roman,serif" font-size="9.00">dintancia projetil 1</text>
</g>
<!-- direita -->
<g id="node22" class="node"><title>direita</title>
<ellipse fill="lightblue" stroke="black" cx="815.224" cy="-197.865" rx="27.6545" ry="27.6545"/>
<text text-anchor="middle" x="815.224" y="-195.665" font-family="Times New Roman,serif" font-size="9.00">direita</text>
</g>
<!-- dintancia projetil 1&#45;&gt;direita -->
<g id="edge21" class="edge"><title>dintancia projetil 1&#45;&gt;direita</title>
<path fill="none" stroke="red" stroke-width="0.32342" stroke-dasharray="1,5" d="M1294.56,-279.961C1277.7,-276.051 1256.93,-271.428 1238.22,-267.806 1096.54,-240.374 926.728,-214.935 852.746,-204.216"/>
<polygon fill="red" stroke="red" stroke-width="0.32342" points="852.939,-200.707 842.541,-202.743 851.939,-207.636 852.939,-200.707"/>
</g>
<!-- atirar -->
<g id="node24" class="node"><title>atirar</title>
<ellipse fill="lightblue" stroke="black" cx="1716.22" cy="-197.865" rx="25" ry="25"/>
<text text-anchor="middle" x="1716.22" y="-195.665" font-family="Times New Roman,serif" font-size="9.00">atirar</text>
</g>
<!-- dintancia projetil 1&#45;&gt;atirar -->
<g id="edge62" class="edge"><title>dintancia projetil 1&#45;&gt;atirar</title>
<path fill="none" stroke="red" stroke-width="0.764676" d="M1346.73,-279.948C1356.55,-275.893 1368.89,-271.146 1380.22,-267.806 1488.49,-235.905 1620.62,-213.451 1681.93,-203.942"/>
<polygon fill="red" stroke="red" stroke-width="0.764676" points="1682.49,-207.398 1691.84,-202.422 1681.43,-200.478 1682.49,-207.398"/>
</g>
<!-- distancia projetil 2 -->
<g id="node2" class="node"><title>distancia projetil 2</title>
<polygon fill="lightgray" stroke="black" points="1229.72,-298.019 1146.72,-298.019 1146.72,-280.019 1229.72,-280.019 1229.72,-298.019"/>
<text text-anchor="middle" x="1188.22" y="-286.819" font-family="Times New Roman,serif" font-size="9.00">distancia projetil 2</text>
</g>
<!-- esquerda -->
<g id="node21" class="node"><title>esquerda</title>
<ellipse fill="lightblue" stroke="black" cx="1330.22" cy="-197.865" rx="33.8824" ry="33.8824"/>
<text text-anchor="middle" x="1330.22" y="-195.665" font-family="Times New Roman,serif" font-size="9.00">esquerda</text>
</g>
<!-- distancia projetil 2&#45;&gt;esquerda -->
<g id="edge3" class="edge"><title>distancia projetil 2&#45;&gt;esquerda</title>
<path fill="none" stroke="red" stroke-width="0.110145" d="M1201.33,-279.792C1222.01,-266.805 1262.98,-241.083 1293.2,-222.109"/>
<polygon fill="red" stroke="red" stroke-width="0.110145" points="1295.2,-224.987 1301.81,-216.706 1291.48,-219.059 1295.2,-224.987"/>
</g>
<!-- pular -->
<g id="node23" class="node"><title>pular</title>
<ellipse fill="lightblue" stroke="black" cx="1346.22" cy="-24.7487" rx="25" ry="25"/>
<text text-anchor="middle" x="1346.22" y="-22.5487" font-family="Times New Roman,serif" font-size="9.00">pular</text>
</g>
<!-- distancia projetil 2&#45;&gt;pular -->
<g id="edge45" class="edge"><title>distancia projetil 2&#45;&gt;pular</title>
<path fill="none" stroke="red" stroke-width="0.791546" d="M1193.13,-279.883C1213.55,-245.987 1292.45,-115.008 1328.31,-55.4871"/>
<polygon fill="red" stroke="red" stroke-width="0.791546" points="1331.52,-56.9455 1333.68,-46.5736 1325.52,-53.3333 1331.52,-56.9455"/>
</g>
<!-- distancia projetil 2&#45;&gt;atirar -->
<g id="edge20" class="edge"><title>distancia projetil 2&#45;&gt;atirar</title>
<path fill="none" stroke="red" stroke-width="0.332965" stroke-dasharray="1,5" d="M1221.08,-280C1237.83,-276.054 1258.55,-271.389 1277.22,-267.806 1426.71,-239.127 1606.53,-213.705 1681.14,-203.554"/>
<polygon fill="red" stroke="red" stroke-width="0.332965" points="1681.93,-206.979 1691.37,-202.168 1680.99,-200.042 1681.93,-206.979"/>
</g>
<!-- release -->
<g id="node25" class="node"><title>release</title>
<ellipse fill="lightblue" stroke="black" cx="707.224" cy="-197.865" rx="28.9828" ry="28.9828"/>
<text text-anchor="middle" x="707.224" y="-195.665" font-family="Times New Roman,serif" font-size="9.00">release</text>
</g>
<!-- distancia projetil 2&#45;&gt;release -->
<g id="edge76" class="edge"><title>distancia projetil 2&#45;&gt;release</title>
<path fill="none" stroke="green" stroke-width="0.625307" stroke-dasharray="1,5" d="M1171.15,-279.87C1161.42,-275.584 1148.88,-270.643 1137.22,-267.806 981.413,-229.9 932.89,-274.141 778.224,-231.806 765.732,-228.387 752.7,-222.947 741.262,-217.466"/>
<polygon fill="green" stroke="green" stroke-width="0.625307" points="742.587,-214.216 732.075,-212.895 739.469,-220.484 742.587,-214.216"/>
</g>
<!-- distancia projetil 3 -->
<g id="node3" class="node"><title>distancia projetil 3</title>
<polygon fill="lightgray" stroke="black" points="285.724,-298.019 202.724,-298.019 202.724,-280.019 285.724,-280.019 285.724,-298.019"/>
<text text-anchor="middle" x="244.224" y="-286.819" font-family="Times New Roman,serif" font-size="9.00">distancia projetil 3</text>
</g>
<!-- distancia projetil 3&#45;&gt;esquerda -->
<g id="edge67" class="edge"><title>distancia projetil 3&#45;&gt;esquerda</title>
<path fill="none" stroke="green" stroke-width="0.533205" d="M260.801,-279.907C270.576,-275.519 283.326,-270.466 295.224,-267.806 545.112,-211.943 614.743,-248.951 870.224,-231.806 1022.9,-221.56 1204,-208.252 1285.98,-202.165"/>
<polygon fill="green" stroke="green" stroke-width="0.533205" points="1286.47,-205.639 1296.18,-201.408 1285.95,-198.658 1286.47,-205.639"/>
</g>
<!-- distancia projetil 3&#45;&gt;direita -->
<g id="edge49" class="edge"><title>distancia projetil 3&#45;&gt;direita</title>
<path fill="none" stroke="green" stroke-width="0.224952" stroke-dasharray="1,5" d="M260.818,-279.985C270.6,-275.622 283.35,-270.569 295.224,-267.806 490.644,-222.341 551.32,-283.355 745.224,-231.806 757.9,-228.436 771.091,-222.844 782.56,-217.215"/>
<polygon fill="green" stroke="green" stroke-width="0.224952" points="784.426,-220.192 791.74,-212.526 781.242,-213.958 784.426,-220.192"/>
</g>
<!-- distancia projetil 3&#45;&gt;pular -->
<g id="edge34" class="edge"><title>distancia projetil 3&#45;&gt;pular</title>
<path fill="none" stroke="red" stroke-width="0.484937" d="M252.274,-279.915C285.391,-247.238 415.764,-125.033 551.224,-85.4975 697.081,-42.927 1177.5,-29.429 1311.34,-26.4484"/>
<polygon fill="red" stroke="red" stroke-width="0.484937" points="1311.52,-29.9456 1321.44,-26.2291 1311.36,-22.9472 1311.52,-29.9456"/>
</g>
<!-- distancia projetil 3&#45;&gt;release -->
<g id="edge77" class="edge"><title>distancia projetil 3&#45;&gt;release</title>
<path fill="none" stroke="green" stroke-width="1.00888" stroke-dasharray="1,5" d="M261.844,-279.966C271.525,-275.816 283.847,-270.974 295.224,-267.806 429.402,-230.444 594.137,-210.34 668.063,-202.627"/>
<polygon fill="green" stroke="green" stroke-width="1.00888" points="668.706,-206.08 678.297,-201.579 667.992,-199.116 668.706,-206.08"/>
</g>
<!-- distancia projetil 4 -->
<g id="node4" class="node"><title>distancia projetil 4</title>
<polygon fill="lightgray" stroke="black" points="184.724,-298.019 101.724,-298.019 101.724,-280.019 184.724,-280.019 184.724,-298.019"/>
<text text-anchor="middle" x="143.224" y="-286.819" font-family="Times New Roman,serif" font-size="9.00">distancia projetil 4</text>
</g>
<!-- distancia projetil 4&#45;&gt;direita -->
<g id="edge72" class="edge"><title>distancia projetil 4&#45;&gt;direita</title>
<path fill="none" stroke="green" stroke-width="0.266433" stroke-dasharray="1,5" d="M159.461,-279.915C169.04,-275.529 181.54,-270.476 193.224,-267.806 432.9,-213.038 507.164,-293.223 745.224,-231.806 757.924,-228.53 771.121,-222.959 782.588,-217.322"/>
<polygon fill="green" stroke="green" stroke-width="0.266433" points="784.461,-220.295 791.764,-212.62 781.269,-214.065 784.461,-220.295"/>
</g>
<!-- distancia projetil 4&#45;&gt;release -->
<g id="edge59" class="edge"><title>distancia projetil 4&#45;&gt;release</title>
<path fill="none" stroke="red" stroke-width="0.457199" stroke-dasharray="1,5" d="M159.987,-280.011C169.528,-275.769 181.819,-270.825 193.224,-267.806 366.596,-221.917 581.359,-205.701 668.137,-200.764"/>
<polygon fill="red" stroke="red" stroke-width="0.457199" points="668.522,-204.248 678.315,-200.203 668.138,-197.258 668.522,-204.248"/>
</g>
<!-- distancia projetil 5 -->
<g id="node5" class="node"><title>distancia projetil 5</title>
<polygon fill="lightgray" stroke="black" points="1128.72,-298.019 1045.72,-298.019 1045.72,-280.019 1128.72,-280.019 1128.72,-298.019"/>
<text text-anchor="middle" x="1087.22" y="-286.819" font-family="Times New Roman,serif" font-size="9.00">distancia projetil 5</text>
</g>
<!-- distancia projetil 5&#45;&gt;esquerda -->
<g id="edge40" class="edge"><title>distancia projetil 5&#45;&gt;esquerda</title>
<path fill="none" stroke="green" stroke-width="0.368468" d="M1106.62,-279.962C1115.86,-276.181 1127.07,-271.669 1137.22,-267.806 1189.19,-248.032 1249.62,-226.712 1288.82,-213.101"/>
<polygon fill="green" stroke="green" stroke-width="0.368468" points="1290.01,-216.393 1298.32,-209.812 1287.72,-209.779 1290.01,-216.393"/>
</g>
<!-- distancia projetil 5&#45;&gt;direita -->
<g id="edge22" class="edge"><title>distancia projetil 5&#45;&gt;direita</title>
<path fill="none" stroke="green" stroke-width="0.584893" stroke-dasharray="1,5" d="M1067.98,-279.997C1058.48,-276.14 1046.82,-271.553 1036.22,-267.806 971.716,-244.997 895.272,-222.037 851.294,-209.213"/>
<polygon fill="green" stroke="green" stroke-width="0.584893" points="852.208,-205.834 841.629,-206.406 850.256,-212.556 852.208,-205.834"/>
</g>
<!-- distancia projetil 5&#45;&gt;pular -->
<g id="edge79" class="edge"><title>distancia projetil 5&#45;&gt;pular</title>
<path fill="none" stroke="red" stroke-width="0.503579" d="M1094.94,-279.794C1121.03,-252.05 1208.46,-159.507 1283.22,-85.4975 1295.41,-73.4343 1309.2,-60.2949 1320.77,-49.4173"/>
<polygon fill="red" stroke="red" stroke-width="0.503579" points="1323.48,-51.6812 1328.38,-42.2891 1318.69,-46.5736 1323.48,-51.6812"/>
</g>
<!-- distancia projetil 5&#45;&gt;atirar -->
<g id="edge55" class="edge"><title>distancia projetil 5&#45;&gt;atirar</title>
<path fill="none" stroke="red" stroke-width="0.207062" stroke-dasharray="1,5" d="M1103.97,-279.946C1113.51,-275.683 1125.8,-270.74 1137.22,-267.806 1241.6,-241.004 1572.85,-211.098 1681.41,-201.789"/>
<polygon fill="red" stroke="red" stroke-width="0.207062" points="1681.83,-205.266 1691.49,-200.929 1681.23,-198.291 1681.83,-205.266"/>
</g>
<!-- distancia projetil 5&#45;&gt;release -->
<g id="edge31" class="edge"><title>distancia projetil 5&#45;&gt;release</title>
<path fill="none" stroke="red" stroke-width="0.24904" d="M1069.64,-279.843C1059.97,-275.656 1047.64,-270.819 1036.22,-267.806 924.278,-238.267 889.281,-264.527 778.224,-231.806 765.902,-228.176 752.999,-222.735 741.624,-217.316"/>
<polygon fill="red" stroke="red" stroke-width="0.24904" points="742.992,-214.088 732.475,-212.809 739.899,-220.367 742.992,-214.088"/>
</g>
<!-- distancia projetil 6 -->
<g id="node6" class="node"><title>distancia projetil 6</title>
<polygon fill="lightgray" stroke="black" points="1027.72,-298.019 944.724,-298.019 944.724,-280.019 1027.72,-280.019 1027.72,-298.019"/>
<text text-anchor="middle" x="986.224" y="-286.819" font-family="Times New Roman,serif" font-size="9.00">distancia projetil 6</text>
</g>
<!-- distancia projetil 6&#45;&gt;direita -->
<g id="edge58" class="edge"><title>distancia projetil 6&#45;&gt;direita</title>
<path fill="none" stroke="green" stroke-width="0.491664" d="M970.747,-279.95C943.235,-265.606 885.249,-235.374 848.377,-216.15"/>
<polygon fill="green" stroke="green" stroke-width="0.491664" points="849.975,-213.036 839.489,-211.516 846.738,-219.243 849.975,-213.036"/>
</g>
<!-- distancia projetil 6&#45;&gt;atirar -->
<g id="edge7" class="edge"><title>distancia projetil 6&#45;&gt;atirar</title>
<path fill="none" stroke="red" stroke-width="0.268576" stroke-dasharray="1,5" d="M1002.95,-279.868C1012.48,-275.581 1024.77,-270.64 1036.22,-267.806 1052.08,-263.881 1544.15,-215.665 1681.14,-202.287"/>
<polygon fill="red" stroke="red" stroke-width="0.268576" points="1681.86,-205.734 1691.47,-201.278 1681.18,-198.767 1681.86,-205.734"/>
</g>
<!-- distancia projetil 6&#45;&gt;release -->
<g id="edge39" class="edge"><title>distancia projetil 6&#45;&gt;release</title>
<path fill="none" stroke="red" stroke-width="0.151814" d="M967.577,-279.839C958.026,-275.852 946.138,-271.199 935.224,-267.806 866.862,-246.556 845.952,-254.997 778.224,-231.806 766.071,-227.645 753.212,-222.065 741.826,-216.682"/>
<polygon fill="red" stroke="red" stroke-width="0.151814" points="743.181,-213.449 732.656,-212.242 740.131,-219.75 743.181,-213.449"/>
</g>
<!-- distancia projetil 7 -->
<g id="node7" class="node"><title>distancia projetil 7</title>
<polygon fill="lightgray" stroke="black" points="926.724,-298.019 843.724,-298.019 843.724,-280.019 926.724,-280.019 926.724,-298.019"/>
<text text-anchor="middle" x="885.224" y="-286.819" font-family="Times New Roman,serif" font-size="9.00">distancia projetil 7</text>
</g>
<!-- distancia projetil 7&#45;&gt;esquerda -->
<g id="edge11" class="edge"><title>distancia projetil 7&#45;&gt;esquerda</title>
<path fill="none" stroke="green" stroke-width="0.141458" d="M902.492,-279.985C911.981,-275.84 924.061,-270.998 935.224,-267.806 1059.94,-232.148 1212.37,-211.874 1286.1,-203.48"/>
<polygon fill="green" stroke="green" stroke-width="0.141458" points="1286.84,-206.919 1296.39,-202.328 1286.06,-199.962 1286.84,-206.919"/>
</g>
<!-- distancia projetil 7&#45;&gt;direita -->
<g id="edge69" class="edge"><title>distancia projetil 7&#45;&gt;direita</title>
<path fill="none" stroke="green" stroke-width="0.466445" d="M878.764,-279.792C869.606,-268.129 852.384,-246.193 838.177,-228.099"/>
<polygon fill="green" stroke="green" stroke-width="0.466445" points="840.83,-225.81 831.902,-220.106 835.324,-230.133 840.83,-225.81"/>
</g>
<!-- distancia projetil 7&#45;&gt;release -->
<g id="edge4" class="edge"><title>distancia projetil 7&#45;&gt;release</title>
<path fill="none" stroke="red" stroke-width="0.341114" d="M869.114,-279.95C840.554,-265.646 780.448,-235.541 742.052,-216.309"/>
<polygon fill="red" stroke="red" stroke-width="0.341114" points="743.299,-213.019 732.79,-211.671 740.164,-219.278 743.299,-213.019"/>
</g>
<!-- distancia projetil 8 -->
<g id="node8" class="node"><title>distancia projetil 8</title>
<polygon fill="lightgray" stroke="black" points="493.724,-298.019 410.724,-298.019 410.724,-280.019 493.724,-280.019 493.724,-298.019"/>
<text text-anchor="middle" x="452.224" y="-286.819" font-family="Times New Roman,serif" font-size="9.00">distancia projetil 8</text>
</g>
<!-- distancia projetil 8&#45;&gt;direita -->
<g id="edge14" class="edge"><title>distancia projetil 8&#45;&gt;direita</title>
<path fill="none" stroke="red" stroke-width="0.413277" stroke-dasharray="1,5" d="M469.46,-279.87C478.94,-275.692 491.021,-270.854 502.224,-267.806 607.573,-239.145 640.713,-263.388 745.224,-231.806 757.679,-228.042 770.732,-222.41 782.146,-216.862"/>
<polygon fill="red" stroke="red" stroke-width="0.413277" points="783.934,-219.881 791.3,-212.265 780.793,-213.625 783.934,-219.881"/>
</g>
<!-- distancia projetil 8&#45;&gt;pular -->
<g id="edge32" class="edge"><title>distancia projetil 8&#45;&gt;pular</title>
<path fill="none" stroke="red" stroke-width="0.745576" d="M459.666,-279.919C479.381,-258.791 535.222,-201.076 590.224,-163.924 655.85,-119.596 674.066,-107.218 750.224,-85.4975 956.77,-26.5886 1217.98,-23.843 1311.21,-24.981"/>
<polygon fill="red" stroke="red" stroke-width="0.745576" points="1311.18,-28.4808 1321.23,-25.1269 1311.28,-21.4815 1311.18,-28.4808"/>
</g>
<!-- distancia projetil 8&#45;&gt;atirar -->
<g id="edge50" class="edge"><title>distancia projetil 8&#45;&gt;atirar</title>
<path fill="none" stroke="green" stroke-width="0.15985" stroke-dasharray="1,5" d="M467.991,-280.017C477.618,-275.548 490.326,-270.376 502.224,-267.806 691.577,-226.904 1179.96,-245.071 1373.22,-231.806 1486.34,-224.042 1619.98,-209.718 1681.74,-202.803"/>
<polygon fill="green" stroke="green" stroke-width="0.15985" points="1682.18,-206.277 1691.72,-201.68 1681.39,-199.321 1682.18,-206.277"/>
</g>
<!-- distancia projetil 8&#45;&gt;release -->
<g id="edge68" class="edge"><title>distancia projetil 8&#45;&gt;release</title>
<path fill="none" stroke="red" stroke-width="0.527877" d="M471.59,-279.876C480.816,-276.078 492.037,-271.574 502.224,-267.806 560.46,-246.264 628.999,-223.786 670.23,-210.57"/>
<polygon fill="red" stroke="red" stroke-width="0.527877" points="671.391,-213.873 679.851,-207.495 669.26,-207.206 671.391,-213.873"/>
</g>
<!-- distancia projetil 9 -->
<g id="node9" class="node"><title>distancia projetil 9</title>
<polygon fill="lightgray" stroke="black" points="1471.72,-298.019 1388.72,-298.019 1388.72,-280.019 1471.72,-280.019 1471.72,-298.019"/>
<text text-anchor="middle" x="1430.22" y="-286.819" font-family="Times New Roman,serif" font-size="9.00">distancia projetil 9</text>
</g>
<!-- distancia projetil 9&#45;&gt;esquerda -->
<g id="edge51" class="edge"><title>distancia projetil 9&#45;&gt;esquerda</title>
<path fill="none" stroke="green" stroke-width="0.407163" d="M1421,-279.792C1407.88,-268.095 1383.17,-246.068 1362.84,-227.944"/>
<polygon fill="green" stroke="green" stroke-width="0.407163" points="1365.09,-225.261 1355.3,-221.219 1360.43,-230.486 1365.09,-225.261"/>
</g>
<!-- distancia projetil 9&#45;&gt;direita -->
<g id="edge33" class="edge"><title>distancia projetil 9&#45;&gt;direita</title>
<path fill="none" stroke="red" stroke-width="0.341074" stroke-dasharray="1,5" d="M1413.12,-279.968C1403.39,-275.712 1390.85,-270.769 1379.22,-267.806 1185.44,-218.43 944.888,-204.023 853.159,-200.164"/>
<polygon fill="red" stroke="red" stroke-width="0.341074" points="853.108,-196.66 842.975,-199.754 852.826,-203.654 853.108,-196.66"/>
</g>
<!-- distancia projetil 9&#45;&gt;atirar -->
<g id="edge70" class="edge"><title>distancia projetil 9&#45;&gt;atirar</title>
<path fill="none" stroke="green" stroke-width="0.140436" d="M1456.11,-279.95C1508.12,-263.736 1625.27,-227.218 1682.91,-209.25"/>
<polygon fill="green" stroke="green" stroke-width="0.140436" points="1684.12,-212.54 1692.62,-206.222 1682.03,-205.857 1684.12,-212.54"/>
</g>
<!-- distancia projetil 10 -->
<g id="node10" class="node"><title>distancia projetil 10</title>
<polygon fill="lightgray" stroke="black" points="2286.22,-298.019 2198.22,-298.019 2198.22,-280.019 2286.22,-280.019 2286.22,-298.019"/>
<text text-anchor="middle" x="2242.22" y="-286.819" font-family="Times New Roman,serif" font-size="9.00">distancia projetil 10</text>
</g>
<!-- distancia projetil 10&#45;&gt;pular -->
<g id="edge2" class="edge"><title>distancia projetil 10&#45;&gt;pular</title>
<path fill="none" stroke="green" stroke-width="0.532771" d="M2236.71,-279.593C2214.63,-246.735 2128.63,-126.991 2022.22,-85.4975 1903.55,-39.2205 1503.09,-28.4927 1381.52,-26.2762"/>
<polygon fill="green" stroke="green" stroke-width="0.532771" points="1381.35,-22.7728 1371.29,-26.098 1381.22,-29.7717 1381.35,-22.7728"/>
</g>
<!-- distancia projetil 10&#45;&gt;atirar -->
<g id="edge19" class="edge"><title>distancia projetil 10&#45;&gt;atirar</title>
<path fill="none" stroke="red" stroke-width="0.49466" d="M2208.19,-279.939C2191.14,-276.024 2170.14,-271.403 2151.22,-267.806 2003.02,-239.63 1824.88,-213.935 1750.97,-203.633"/>
<polygon fill="red" stroke="red" stroke-width="0.49466" points="1751.23,-200.135 1740.84,-202.226 1750.27,-207.068 1751.23,-200.135"/>
</g>
<!-- distancia projetil 11 -->
<g id="node11" class="node"><title>distancia projetil 11</title>
<polygon fill="lightgray" stroke="black" points="1654.22,-298.019 1566.22,-298.019 1566.22,-280.019 1654.22,-280.019 1654.22,-298.019"/>
<text text-anchor="middle" x="1610.22" y="-286.819" font-family="Times New Roman,serif" font-size="9.00">distancia projetil 11</text>
</g>
<!-- distancia projetil 11&#45;&gt;esquerda -->
<g id="edge24" class="edge"><title>distancia projetil 11&#45;&gt;esquerda</title>
<path fill="none" stroke="green" stroke-width="0.538865" stroke-dasharray="1,5" d="M1587.7,-279.968C1576.98,-276.189 1563.97,-271.676 1552.22,-267.806 1489.86,-247.263 1417.1,-224.986 1372.35,-211.477"/>
<polygon fill="green" stroke="green" stroke-width="0.538865" points="1373.27,-208.101 1362.69,-208.566 1371.25,-214.803 1373.27,-208.101"/>
</g>
<!-- distancia projetil 11&#45;&gt;direita -->
<g id="edge5" class="edge"><title>distancia projetil 11&#45;&gt;direita</title>
<path fill="none" stroke="red" stroke-width="0.274368" d="M1566.12,-280.525C1541.24,-276.443 1509.55,-271.489 1481.22,-267.806 1242.69,-236.794 954.636,-210.873 852.964,-202.075"/>
<polygon fill="red" stroke="red" stroke-width="0.274368" points="853.145,-198.578 842.881,-201.206 852.543,-205.552 853.145,-198.578"/>
</g>
<!-- distancia projetil 11&#45;&gt;pular -->
<g id="edge65" class="edge"><title>distancia projetil 11&#45;&gt;pular</title>
<path fill="none" stroke="green" stroke-width="0.234124" d="M1602.03,-279.883C1566.8,-244.881 1427.36,-106.354 1370.53,-49.8926"/>
<polygon fill="green" stroke="green" stroke-width="0.234124" points="1372.95,-47.3655 1363.39,-42.8007 1368.02,-52.3315 1372.95,-47.3655"/>
</g>
<!-- distancia projetil 11&#45;&gt;atirar -->
<g id="edge48" class="edge"><title>distancia projetil 11&#45;&gt;atirar</title>
<path fill="none" stroke="red" stroke-width="0.263363" d="M1620.01,-279.792C1635.71,-266.585 1667.07,-240.206 1689.73,-221.149"/>
<polygon fill="red" stroke="red" stroke-width="0.263363" points="1692.24,-223.612 1697.64,-214.497 1687.73,-218.255 1692.24,-223.612"/>
</g>
<!-- distancia projetil 12 -->
<g id="node12" class="node"><title>distancia projetil 12</title>
<polygon fill="lightgray" stroke="black" points="1762.22,-364.233 1674.22,-364.233 1674.22,-346.233 1762.22,-346.233 1762.22,-364.233"/>
<text text-anchor="middle" x="1718.22" y="-353.033" font-family="Times New Roman,serif" font-size="9.00">distancia projetil 12</text>
</g>
<!-- distancia projetil 12&#45;&gt;esquerda -->
<g id="edge8" class="edge"><title>distancia projetil 12&#45;&gt;esquerda</title>
<path fill="none" stroke="green" stroke-width="1.33067" d="M1674.14,-347.109C1640.78,-340.571 1594.49,-328.994 1557.22,-310.233 1529.96,-296.509 1529.67,-283.04 1503.22,-267.806 1460.97,-243.468 1408.46,-223.878 1372.44,-211.89"/>
<polygon fill="green" stroke="green" stroke-width="1.33067" points="1373.33,-208.499 1362.74,-208.712 1371.15,-215.152 1373.33,-208.499"/>
</g>
<!-- distancia projetil 12&#45;&gt;direita -->
<g id="edge28" class="edge"><title>distancia projetil 12&#45;&gt;direita</title>
<path fill="none" stroke="red" stroke-width="0.776325" d="M1674.19,-352.132C1495.8,-343.612 836.212,-311.996 834.224,-310.233 813.684,-292.007 809.928,-260.409 810.74,-235.515"/>
<polygon fill="red" stroke="red" stroke-width="0.776325" points="814.247,-235.501 811.333,-225.315 807.259,-235.095 814.247,-235.501"/>
</g>
<!-- distancia projetil 12&#45;&gt;atirar -->
<g id="edge61" class="edge"><title>distancia projetil 12&#45;&gt;atirar</title>
<path fill="none" stroke="green" stroke-width="0.281985" stroke-dasharray="1,5" d="M1762.27,-354.223C1835.22,-353.166 1976.17,-346.368 2007.22,-310.233 2080.39,-225.086 1843.68,-204.802 1751.43,-200.173"/>
<polygon fill="green" stroke="green" stroke-width="0.281985" points="1751.34,-196.665 1741.18,-199.694 1751.01,-203.657 1751.34,-196.665"/>
</g>
<!-- 186 -->
<g id="node28" class="node"><title>186</title>
<ellipse fill="white" stroke="black" cx="1837.22" cy="-289.019" rx="21.4286" ry="21.4286"/>
<text text-anchor="middle" x="1837.22" y="-286.819" font-family="Times New Roman,serif" font-size="9.00">186</text>
</g>
<!-- distancia projetil 12&#45;&gt;186 -->
<g id="edge74" class="edge"><title>distancia projetil 12&#45;&gt;186</title>
<path fill="none" stroke="green" stroke-width="0.609585" d="M1734.12,-346.154C1751.09,-337.471 1778.71,-323.171 1802.22,-310.233 1804.9,-308.758 1807.69,-307.199 1810.46,-305.628"/>
<polygon fill="green" stroke="green" stroke-width="0.609585" points="1812.2,-308.662 1819.14,-300.653 1808.72,-302.588 1812.2,-308.662"/>
</g>
<!-- distancia projetil 13 -->
<g id="node13" class="node"><title>distancia projetil 13</title>
<polygon fill="lightgray" stroke="black" points="1760.22,-298.019 1672.22,-298.019 1672.22,-280.019 1760.22,-280.019 1760.22,-298.019"/>
<text text-anchor="middle" x="1716.22" y="-286.819" font-family="Times New Roman,serif" font-size="9.00">distancia projetil 13</text>
</g>
<!-- distancia projetil 13&#45;&gt;esquerda -->
<g id="edge75" class="edge"><title>distancia projetil 13&#45;&gt;esquerda</title>
<path fill="none" stroke="green" stroke-width="0.224948" d="M1697.34,-279.972C1687.33,-275.924 1674.76,-271.175 1663.22,-267.806 1561.23,-238.007 1438.05,-216.033 1373.89,-205.609"/>
<polygon fill="green" stroke="green" stroke-width="0.224948" points="1374.17,-202.109 1363.74,-203.977 1373.06,-209.02 1374.17,-202.109"/>
</g>
<!-- distancia projetil 13&#45;&gt;direita -->
<g id="edge54" class="edge"><title>distancia projetil 13&#45;&gt;direita</title>
<path fill="none" stroke="red" stroke-width="0.420253" d="M1698.94,-280.001C1688.77,-275.644 1675.52,-270.591 1663.22,-267.806 1623.18,-258.736 1012.76,-213.397 853.165,-201.649"/>
<polygon fill="red" stroke="red" stroke-width="0.420253" points="853.121,-198.136 842.891,-200.893 852.607,-205.117 853.121,-198.136"/>
</g>
<!-- distancia projetil 13&#45;&gt;pular -->
<g id="edge29" class="edge"><title>distancia projetil 13&#45;&gt;pular</title>
<path fill="none" stroke="green" stroke-width="0.123157" stroke-dasharray="1,5" d="M1705.63,-279.844C1669.26,-251.878 1545.96,-157.775 1440.22,-85.4975 1418.96,-70.9617 1394.37,-55.3763 1375.68,-43.769"/>
<polygon fill="green" stroke="green" stroke-width="0.123157" points="1377.36,-40.6948 1367.02,-38.4125 1373.68,-46.6485 1377.36,-40.6948"/>
</g>
<!-- distancia projetil 13&#45;&gt;atirar -->
<g id="edge12" class="edge"><title>distancia projetil 13&#45;&gt;atirar</title>
<path fill="none" stroke="green" stroke-width="0.145153" stroke-dasharray="1,5" d="M1716.22,-279.792C1716.22,-269.154 1716.22,-249.97 1716.22,-232.95"/>
<polygon fill="green" stroke="green" stroke-width="0.145153" points="1719.72,-232.727 1716.22,-222.727 1712.72,-232.727 1719.72,-232.727"/>
</g>
<!-- distancia projetil 14 -->
<g id="node14" class="node"><title>distancia projetil 14</title>
<polygon fill="lightgray" stroke="black" points="392.224,-298.019 304.224,-298.019 304.224,-280.019 392.224,-280.019 392.224,-298.019"/>
<text text-anchor="middle" x="348.224" y="-286.819" font-family="Times New Roman,serif" font-size="9.00">distancia projetil 14</text>
</g>
<!-- distancia projetil 14&#45;&gt;esquerda -->
<g id="edge57" class="edge"><title>distancia projetil 14&#45;&gt;esquerda</title>
<path fill="none" stroke="red" stroke-width="0.524943" d="M365.496,-279.969C375.67,-275.601 388.92,-270.547 401.224,-267.806 412.178,-265.366 1103.15,-215.284 1286.15,-202.05"/>
<polygon fill="red" stroke="red" stroke-width="0.524943" points="1286.51,-205.533 1296.23,-201.321 1286,-198.552 1286.51,-205.533"/>
</g>
<!-- distancia projetil 14&#45;&gt;direita -->
<g id="edge52" class="edge"><title>distancia projetil 14&#45;&gt;direita</title>
<path fill="none" stroke="green" stroke-width="0.379745" d="M366.008,-279.905C376.127,-275.629 389.155,-270.687 401.224,-267.806 550.747,-232.115 597.154,-273.114 745.224,-231.806 757.858,-228.282 771.039,-222.652 782.512,-217.037"/>
<polygon fill="green" stroke="green" stroke-width="0.379745" points="784.367,-220.02 791.697,-212.37 781.197,-213.78 784.367,-220.02"/>
</g>
<!-- distancia projetil 14&#45;&gt;pular -->
<g id="edge25" class="edge"><title>distancia projetil 14&#45;&gt;pular</title>
<path fill="none" stroke="red" stroke-width="0.469751" stroke-dasharray="1,5" d="M355.909,-279.99C387.536,-247.606 512.16,-126.378 643.224,-85.4975 770.195,-45.893 1187.66,-30.485 1311.37,-26.7221"/>
<polygon fill="red" stroke="red" stroke-width="0.469751" points="1311.54,-30.2189 1321.43,-26.4224 1311.33,-23.222 1311.54,-30.2189"/>
</g>
<!-- distancia projetil 14&#45;&gt;release -->
<g id="edge27" class="edge"><title>distancia projetil 14&#45;&gt;release</title>
<path fill="none" stroke="green" stroke-width="0.37185" stroke-dasharray="1,5" d="M367.626,-279.856C377.557,-275.874 389.91,-271.219 401.224,-267.806 495.901,-239.246 610.235,-216.514 668.697,-205.713"/>
<polygon fill="green" stroke="green" stroke-width="0.37185" points="669.401,-209.142 678.607,-203.898 668.14,-202.257 669.401,-209.142"/>
</g>
<!-- distancia projetil 15 -->
<g id="node15" class="node"><title>distancia projetil 15</title>
<polygon fill="lightgray" stroke="black" points="1373.22,-364.233 1285.22,-364.233 1285.22,-346.233 1373.22,-346.233 1373.22,-364.233"/>
<text text-anchor="middle" x="1329.22" y="-353.033" font-family="Times New Roman,serif" font-size="9.00">distancia projetil 15</text>
</g>
<!-- distancia projetil 15&#45;&gt;esquerda -->
<g id="edge44" class="edge"><title>distancia projetil 15&#45;&gt;esquerda</title>
<path fill="none" stroke="green" stroke-width="0.203267" d="M1313.7,-346.126C1301.26,-338.665 1284.69,-326.325 1277.22,-310.233 1269.29,-293.127 1271.15,-285.659 1277.22,-267.806 1281.92,-254.004 1290.61,-240.805 1299.62,-229.718"/>
<polygon fill="green" stroke="green" stroke-width="0.203267" points="1302.34,-231.916 1306.18,-222.04 1297.02,-227.368 1302.34,-231.916"/>
</g>
<!-- distancia projetil 15&#45;&gt;pular -->
<g id="edge9" class="edge"><title>distancia projetil 15&#45;&gt;pular</title>
<path fill="none" stroke="red" stroke-width="0.302707" stroke-dasharray="1,5" d="M1284.95,-354.376C1067.58,-354.87 121.925,-354.464 79.2238,-310.233 -8.23296,-219.643 -145.92,-245.197 449.224,-85.4975 616.322,-40.6587 1166.74,-28.6715 1311.23,-26.2643"/>
<polygon fill="red" stroke="red" stroke-width="0.302707" points="1311.36,-29.7627 1321.31,-26.1012 1311.25,-22.7636 1311.36,-29.7627"/>
</g>
<!-- distancia projetil 15&#45;&gt;atirar -->
<g id="edge71" class="edge"><title>distancia projetil 15&#45;&gt;atirar</title>
<path fill="none" stroke="green" stroke-width="0.304211" stroke-dasharray="1,5" d="M1373.48,-351.4C1482.48,-344.212 1756.04,-324.801 1769.22,-310.233 1792.56,-284.446 1764.95,-246.551 1741.65,-222.292"/>
<polygon fill="green" stroke="green" stroke-width="0.304211" points="1743.84,-219.536 1734.3,-214.927 1738.89,-224.479 1743.84,-219.536"/>
</g>
<!-- distancia projetil 15&#45;&gt;release -->
<g id="edge38" class="edge"><title>distancia projetil 15&#45;&gt;release</title>
<path fill="none" stroke="green" stroke-width="0.467639" d="M1285.06,-354.359C1069.26,-354.765 134.45,-353.988 92.2238,-310.233 79.1296,-296.664 79.6551,-281.863 92.2238,-267.806 130.709,-224.766 538.173,-205.398 667.837,-200.294"/>
<polygon fill="green" stroke="green" stroke-width="0.467639" points="668.242,-203.781 678.099,-199.897 667.971,-196.786 668.242,-203.781"/>
</g>
<!-- 174 -->
<g id="node27" class="node"><title>174</title>
<ellipse fill="white" stroke="black" cx="1956.22" cy="-106.711" rx="21.4286" ry="21.4286"/>
<text text-anchor="middle" x="1956.22" y="-104.511" font-family="Times New Roman,serif" font-size="9.00">174</text>
</g>
<!-- distancia projetil 15&#45;&gt;174 -->
<g id="edge36" class="edge"><title>distancia projetil 15&#45;&gt;174</title>
<path fill="none" stroke="red" stroke-width="0.302184" d="M1373.41,-351.243C1397.07,-349.677 1426.73,-347.77 1453.22,-346.233 1491.99,-343.983 2124.48,-338.387 2151.22,-310.233 2219.94,-237.877 2054.53,-151.925 1985.12,-120.24"/>
<polygon fill="red" stroke="red" stroke-width="0.302184" points="1986.18,-116.875 1975.62,-115.967 1983.31,-123.259 1986.18,-116.875"/>
</g>
<!-- distancia projetil 15&#45;&gt;186 -->
<g id="edge13" class="edge"><title>distancia projetil 15&#45;&gt;186</title>
<path fill="none" stroke="red" stroke-width="0.581796" d="M1373.27,-351.216C1482.87,-343.557 1761.95,-323.056 1802.22,-310.233 1805.2,-309.284 1808.21,-308.053 1811.13,-306.667"/>
<polygon fill="red" stroke="red" stroke-width="0.581796" points="1812.94,-309.669 1820.11,-301.866 1809.64,-303.496 1812.94,-309.669"/>
</g>
<!-- distancia projetil 16 -->
<g id="node16" class="node"><title>distancia projetil 16</title>
<polygon fill="lightgray" stroke="black" points="2142.22,-298.019 2054.22,-298.019 2054.22,-280.019 2142.22,-280.019 2142.22,-298.019"/>
<text text-anchor="middle" x="2098.22" y="-286.819" font-family="Times New Roman,serif" font-size="9.00">distancia projetil 16</text>
</g>
<!-- distancia projetil 16&#45;&gt;esquerda -->
<g id="edge30" class="edge"><title>distancia projetil 16&#45;&gt;esquerda</title>
<path fill="none" stroke="red" stroke-width="0.135991" d="M2066.39,-279.99C2049,-275.846 2027.04,-271.004 2007.22,-267.806 1944.92,-257.749 1514.94,-216.448 1374.5,-203.069"/>
<polygon fill="red" stroke="red" stroke-width="0.135991" points="1374.41,-199.545 1364.12,-202.081 1373.74,-206.513 1374.41,-199.545"/>
</g>
<!-- distancia projetil 16&#45;&gt;pular -->
<g id="edge66" class="edge"><title>distancia projetil 16&#45;&gt;pular</title>
<path fill="none" stroke="green" stroke-width="0.553194" stroke-dasharray="1,5" d="M2096.7,-279.823C2090.27,-247.83 2062.08,-130.883 1986.22,-85.4975 1883.03,-23.7529 1499.98,-23.6238 1381.43,-25.1266"/>
<polygon fill="green" stroke="green" stroke-width="0.553194" points="1381.06,-21.6313 1371.11,-25.2703 1381.16,-28.6306 1381.06,-21.6313"/>
</g>
<!-- distancia projetil 16&#45;&gt;atirar -->
<g id="edge6" class="edge"><title>distancia projetil 16&#45;&gt;atirar</title>
<path fill="none" stroke="green" stroke-width="0.678458" stroke-dasharray="1,5" d="M2077.21,-279.982C2066.29,-275.984 2052.65,-271.279 2040.22,-267.806 1935.98,-238.677 1809.9,-215.117 1750.43,-204.681"/>
<polygon fill="green" stroke="green" stroke-width="0.678458" points="1750.91,-201.212 1740.46,-202.945 1749.71,-208.108 1750.91,-201.212"/>
</g>
<!-- distancia projetil 16&#45;&gt;174 -->
<g id="edge15" class="edge"><title>distancia projetil 16&#45;&gt;174</title>
<path fill="none" stroke="red" stroke-width="0.481662" d="M2091.1,-279.731C2081.8,-268.847 2065.05,-249.088 2051.22,-231.806 2024.08,-197.885 1993.73,-157.849 1974.8,-132.618"/>
<polygon fill="red" stroke="red" stroke-width="0.481662" points="1977.4,-130.252 1968.6,-124.346 1971.79,-134.448 1977.4,-130.252"/>
</g>
<!-- distancia inimigo 1 -->
<g id="node17" class="node"><title>distancia inimigo 1</title>
<polygon fill="lightgray" stroke="black" points="594.724,-298.019 511.724,-298.019 511.724,-280.019 594.724,-280.019 594.724,-298.019"/>
<text text-anchor="middle" x="553.224" y="-286.819" font-family="Times New Roman,serif" font-size="9.00">distancia inimigo 1</text>
</g>
<!-- distancia inimigo 1&#45;&gt;direita -->
<g id="edge16" class="edge"><title>distancia inimigo 1&#45;&gt;direita</title>
<path fill="none" stroke="green" stroke-width="0.177394" d="M571.907,-279.952C581.467,-275.994 593.352,-271.333 604.224,-267.806 665.745,-247.85 684.356,-253.674 745.224,-231.806 757.469,-227.407 770.471,-221.62 781.903,-216.126"/>
<polygon fill="green" stroke="green" stroke-width="0.177394" points="783.652,-219.166 791.085,-211.616 780.566,-212.882 783.652,-219.166"/>
</g>
<!-- distancia inimigo 1&#45;&gt;pular -->
<g id="edge42" class="edge"><title>distancia inimigo 1&#45;&gt;pular</title>
<path fill="none" stroke="green" stroke-width="0.38843" d="M558.283,-279.727C572.572,-257.08 615.695,-193.881 669.224,-163.924 890.102,-40.3106 1206.8,-26.5989 1311.3,-25.5977"/>
<polygon fill="green" stroke="green" stroke-width="0.38843" points="1311.33,-29.0977 1321.31,-25.5356 1311.28,-22.0979 1311.33,-29.0977"/>
</g>
<!-- distancia inimigo 1&#45;&gt;atirar -->
<g id="edge26" class="edge"><title>distancia inimigo 1&#45;&gt;atirar</title>
<path fill="none" stroke="green" stroke-width="0.238705" d="M569.785,-279.837C579.556,-275.425 592.306,-270.372 604.224,-267.806 771.468,-231.799 1202.58,-243.987 1373.22,-231.806 1486.32,-223.733 1619.97,-209.557 1681.74,-202.741"/>
<polygon fill="green" stroke="green" stroke-width="0.238705" points="1682.17,-206.215 1691.72,-201.634 1681.39,-199.258 1682.17,-206.215"/>
</g>
<!-- distancia inimigo 1&#45;&gt;release -->
<g id="edge10" class="edge"><title>distancia inimigo 1&#45;&gt;release</title>
<path fill="none" stroke="red" stroke-width="0.170428" stroke-dasharray="1,5" d="M567.162,-279.95C590.984,-266.159 640.178,-237.68 673.447,-218.419"/>
<polygon fill="red" stroke="red" stroke-width="0.170428" points="675.473,-221.29 682.374,-213.251 671.966,-215.232 675.473,-221.29"/>
</g>
<!-- distancia inimigo 2 -->
<g id="node18" class="node"><title>distancia inimigo 2</title>
<polygon fill="lightgray" stroke="black" points="1997.72,-298.019 1914.72,-298.019 1914.72,-280.019 1997.72,-280.019 1997.72,-298.019"/>
<text text-anchor="middle" x="1956.22" y="-286.819" font-family="Times New Roman,serif" font-size="9.00">distancia inimigo 2</text>
</g>
<!-- distancia inimigo 2&#45;&gt;esquerda -->
<g id="edge73" class="edge"><title>distancia inimigo 2&#45;&gt;esquerda</title>
<path fill="none" stroke="green" stroke-width="0.236296" d="M1924.24,-279.977C1907.36,-275.93 1886.26,-271.181 1867.22,-267.806 1685.2,-235.529 1465.92,-212.156 1374.05,-203.056"/>
<polygon fill="green" stroke="green" stroke-width="0.236296" points="1374.3,-199.564 1364.01,-202.068 1373.62,-206.531 1374.3,-199.564"/>
</g>
<!-- distancia inimigo 2&#45;&gt;pular -->
<g id="edge35" class="edge"><title>distancia inimigo 2&#45;&gt;pular</title>
<path fill="none" stroke="green" stroke-width="0.213752" d="M1946.21,-279.99C1919.05,-258.538 1841.12,-199.131 1768.22,-163.924 1630.93,-97.6162 1453.9,-51.2928 1380.48,-33.6507"/>
<polygon fill="green" stroke="green" stroke-width="0.213752" points="1380.95,-30.1659 1370.41,-31.2569 1379.33,-36.9759 1380.95,-30.1659"/>
</g>
<!-- distancia inimigo 2&#45;&gt;atirar -->
<g id="edge53" class="edge"><title>distancia inimigo 2&#45;&gt;atirar</title>
<path fill="none" stroke="red" stroke-width="0.483898" d="M1934.5,-279.95C1892.19,-264.231 1798.5,-229.429 1748.75,-210.947"/>
<polygon fill="red" stroke="red" stroke-width="0.483898" points="1749.71,-207.572 1739.12,-207.371 1747.28,-214.134 1749.71,-207.572"/>
</g>
<!-- distancia inimigo 2&#45;&gt;release -->
<g id="edge63" class="edge"><title>distancia inimigo 2&#45;&gt;release</title>
<path fill="none" stroke="red" stroke-width="0.337164" d="M1927.21,-279.96C1909.94,-275.531 1887.5,-270.419 1867.22,-267.806 1627.08,-236.853 1013.77,-287.884 778.224,-231.806 765.624,-228.807 752.565,-223.474 741.135,-217.962"/>
<polygon fill="red" stroke="red" stroke-width="0.337164" points="742.467,-214.714 731.962,-213.337 739.315,-220.965 742.467,-214.714"/>
</g>
<!-- distancia inimigo 2&#45;&gt;174 -->
<g id="edge17" class="edge"><title>distancia inimigo 2&#45;&gt;174</title>
<path fill="none" stroke="red" stroke-width="0.633669" d="M1956.22,-279.803C1956.22,-255.097 1956.22,-180.576 1956.22,-138.142"/>
<polygon fill="red" stroke="red" stroke-width="0.633669" points="1959.72,-138.094 1956.22,-128.094 1952.72,-138.094 1959.72,-138.094"/>
</g>
<!-- direcao sprites 1 -->
<g id="node19" class="node"><title>direcao sprites 1</title>
<polygon fill="lightgray" stroke="black" points="787.224,-298.019 711.224,-298.019 711.224,-280.019 787.224,-280.019 787.224,-298.019"/>
<text text-anchor="middle" x="749.224" y="-286.819" font-family="Times New Roman,serif" font-size="9.00">direcao sprites 1</text>
</g>
<!-- direcao sprites 1&#45;&gt;esquerda -->
<g id="edge56" class="edge"><title>direcao sprites 1&#45;&gt;esquerda</title>
<path fill="none" stroke="red" stroke-width="1.1269" d="M779.761,-280.012C795.88,-275.975 816.037,-271.224 834.224,-267.806 1000.08,-236.633 1199.58,-213.097 1286.35,-203.539"/>
<polygon fill="red" stroke="red" stroke-width="1.1269" points="1286.81,-207.01 1296.36,-202.443 1286.04,-200.052 1286.81,-207.01"/>
</g>
<!-- direcao sprites 1&#45;&gt;release -->
<g id="edge64" class="edge"><title>direcao sprites 1&#45;&gt;release</title>
<path fill="none" stroke="red" stroke-width="1.5656" stroke-dasharray="1,5" d="M745.348,-279.792C740.413,-269.317 731.575,-250.556 723.65,-233.733"/>
<polygon fill="red" stroke="red" stroke-width="1.5656" points="726.8,-232.207 719.372,-224.652 720.467,-235.19 726.8,-232.207"/>
</g>
<!-- direcao sprites 2 -->
<g id="node20" class="node"><title>direcao sprites 2</title>
<polygon fill="lightgray" stroke="black" points="1538.22,-364.233 1462.22,-364.233 1462.22,-346.233 1538.22,-346.233 1538.22,-364.233"/>
<text text-anchor="middle" x="1500.22" y="-353.033" font-family="Times New Roman,serif" font-size="9.00">direcao sprites 2</text>
</g>
<!-- direcao sprites 2&#45;&gt;esquerda -->
<g id="edge43" class="edge"><title>direcao sprites 2&#45;&gt;esquerda</title>
<path fill="none" stroke="red" stroke-width="0.229379" d="M1500.7,-346.075C1501.23,-329.448 1500.14,-291.23 1481.22,-267.806 1454.28,-234.445 1407.63,-216.574 1373.3,-207.457"/>
<polygon fill="red" stroke="red" stroke-width="0.229379" points="1374.07,-204.043 1363.52,-205.007 1372.37,-210.833 1374.07,-204.043"/>
</g>
<!-- direcao sprites 2&#45;&gt;direita -->
<g id="edge60" class="edge"><title>direcao sprites 2&#45;&gt;direita</title>
<path fill="none" stroke="red" stroke-width="0.316443" stroke-dasharray="1,5" d="M1461.97,-351.495C1438.88,-349.879 1408.87,-347.841 1382.22,-346.233 1344.46,-343.953 728.257,-337.681 702.224,-310.233 668.495,-274.67 736.251,-234.739 780.706,-213.694"/>
<polygon fill="red" stroke="red" stroke-width="0.316443" points="782.452,-216.743 790.066,-209.376 779.52,-210.387 782.452,-216.743"/>
</g>
<!-- direcao sprites 2&#45;&gt;pular -->
<g id="edge1" class="edge"><title>direcao sprites 2&#45;&gt;pular</title>
<path fill="none" stroke="green" stroke-width="0.181186" d="M1538.39,-352.295C1696.5,-344.246 2291.93,-313.715 2295.22,-310.233 2308.18,-296.536 2302.73,-285.105 2295.22,-267.806 2244.15,-150.046 2192.04,-128.845 2071.22,-85.4975 1941.85,-39.0828 1508.39,-28.4027 1381.44,-26.2446"/>
<polygon fill="green" stroke="green" stroke-width="0.181186" points="1381.19,-22.7402 1371.14,-26.077 1381.08,-29.7393 1381.19,-22.7402"/>
</g>
<!-- direcao sprites 2&#45;&gt;atirar -->
<g id="edge18" class="edge"><title>direcao sprites 2&#45;&gt;atirar</title>
<path fill="none" stroke="green" stroke-width="0.348809" d="M1538.45,-352.471C1628.04,-347.953 1845.64,-334.563 1867.22,-310.233 1908.13,-264.127 1806.07,-225.334 1750.04,-208.233"/>
<polygon fill="green" stroke="green" stroke-width="0.348809" points="1750.74,-204.791 1740.16,-205.296 1748.74,-211.5 1750.74,-204.791"/>
</g>
<!-- 194 -->
<g id="node26" class="node"><title>194</title>
<ellipse fill="white" stroke="black" cx="634.224" cy="-289.019" rx="21.4286" ry="21.4286"/>
<text text-anchor="middle" x="634.224" y="-286.819" font-family="Times New Roman,serif" font-size="9.00">194</text>
</g>
<!-- direcao sprites 2&#45;&gt;194 -->
<g id="edge41" class="edge"><title>direcao sprites 2&#45;&gt;194</title>
<path fill="none" stroke="green" stroke-width="0.271304" d="M1461.97,-351.472C1438.88,-349.847 1408.87,-347.808 1382.22,-346.233 1223.85,-336.867 821.377,-355.155 669.224,-310.233 666.225,-309.347 663.209,-308.157 660.274,-306.796"/>
<polygon fill="green" stroke="green" stroke-width="0.271304" points="661.763,-303.624 651.289,-302.027 658.481,-309.807 661.763,-303.624"/>
</g>
<!-- direita&#45;&gt;direita -->
<g id="edge37" class="edge"><title>direita&#45;&gt;direita</title>
<path fill="none" stroke="green" stroke-width="0.507366" d="M837.736,-214.044C849.805,-216.793 860.801,-211.4 860.801,-197.865 860.801,-188.348 855.365,-182.857 847.942,-181.39"/>
<polygon fill="green" stroke="green" stroke-width="0.507366" points="847.63,-177.898 837.736,-181.686 847.833,-184.895 847.63,-177.898"/>
</g>
<!-- atirar&#45;&gt;atirar -->
<g id="edge23" class="edge"><title>atirar&#45;&gt;atirar</title>
<path fill="none" stroke="green" stroke-width="0.733824" stroke-dasharray="1,5" d="M1735.57,-213.549C1747.56,-217.331 1758.97,-212.103 1758.97,-197.865 1758.97,-187.742 1753.2,-182.174 1745.56,-181.159"/>
<polygon fill="green" stroke="green" stroke-width="0.733824" points="1745.16,-177.682 1735.57,-182.181 1745.87,-184.646 1745.16,-177.682"/>
</g>
<!-- atirar&#45;&gt;174 -->
<g id="edge80" class="edge"><title>atirar&#45;&gt;174</title>
<path fill="none" stroke="red" stroke-width="0.250586" d="M1739.24,-188.317C1783.16,-172 1878.86,-136.449 1927.14,-118.516"/>
<polygon fill="red" stroke="red" stroke-width="0.250586" points="1928.53,-121.733 1936.68,-114.969 1926.09,-115.171 1928.53,-121.733"/>
</g>
<!-- 194&#45;&gt;direita -->
<g id="edge47" class="edge"><title>194&#45;&gt;direita</title>
<path fill="none" stroke="red" stroke-width="0.327588" d="M652.231,-277.24C657.643,-274.104 663.629,-270.736 669.224,-267.806 671.936,-266.386 739,-234.769 781.281,-214.851"/>
<polygon fill="red" stroke="red" stroke-width="0.327588" points="782.855,-217.978 790.41,-210.55 779.872,-211.645 782.855,-217.978"/>
</g>
<!-- 174&#45;&gt;pular -->
<g id="edge78" class="edge"><title>174&#45;&gt;pular</title>
<path fill="none" stroke="green" stroke-width="0.581583" d="M1935.57,-100.73C1916.4,-96.2455 1887.02,-89.7279 1861.22,-85.4975 1681.68,-56.0484 1464.58,-35.8536 1381.18,-28.6595"/>
<polygon fill="green" stroke="green" stroke-width="0.581583" points="1381.26,-25.1536 1371,-27.7887 1380.66,-32.1281 1381.26,-25.1536"/>
</g>
<!-- 186&#45;&gt;atirar -->
<g id="edge46" class="edge"><title>186&#45;&gt;atirar</title>
<path fill="none" stroke="green" stroke-width="0.268585" d="M1820.4,-275.623C1800.62,-261.049 1767.5,-236.65 1743.92,-219.273"/>
<polygon fill="green" stroke="green" stroke-width="0.268585" points="1745.83,-216.334 1735.71,-213.22 1741.68,-221.97 1745.83,-216.334"/>
</g>
</g>
</svg>
