<?xml version="1.0" encoding="UTF-8" standalone="no"?>
<!DOCTYPE svg PUBLIC "-//W3C//DTD SVG 1.1//EN"
 "http://www.w3.org/Graphics/SVG/1.1/DTD/svg11.dtd">
<!-- Generated by graphviz version 2.38.0 (20140413.2041)
 -->
<!-- Title: %3 Pages: 1 -->
<svg width="2133pt" height="301pt"
 viewBox="0.00 0.00 2133.48 300.88" xmlns="http://www.w3.org/2000/svg" xmlns:xlink="http://www.w3.org/1999/xlink">
<g id="graph0" class="graph" transform="scale(1 1) rotate(0) translate(4 296.877)">
<title>%3</title>
<polygon fill="white" stroke="none" points="-4,4 -4,-296.877 2129.48,-296.877 2129.48,4 -4,4"/>
<!-- dintancia projetil 1 -->
<g id="node1" class="node"><title>dintancia projetil 1</title>
<polygon fill="lightgray" stroke="black" points="534.299,-223.128 450.299,-223.128 450.299,-205.128 534.299,-205.128 534.299,-223.128"/>
<text text-anchor="middle" x="492.299" y="-211.928" font-family="Times New Roman,serif" font-size="9.00">dintancia projetil 1</text>
</g>
<!-- esquerda -->
<g id="node21" class="node"><title>esquerda</title>
<ellipse fill="lightblue" stroke="black" cx="1299.3" cy="-119.439" rx="33.8824" ry="33.8824"/>
<text text-anchor="middle" x="1299.3" y="-117.239" font-family="Times New Roman,serif" font-size="9.00">esquerda</text>
</g>
<!-- dintancia projetil 1&#45;&gt;esquerda -->
<g id="edge2" class="edge"><title>dintancia projetil 1&#45;&gt;esquerda</title>
<path fill="none" stroke="green" stroke-width="0.275768" d="M506.05,-204.952C516.021,-199.473 530.029,-192.68 543.299,-189.38 843.457,-114.723 940.488,-236.908 1238.3,-153.38 1246.37,-151.115 1254.57,-147.643 1262.23,-143.789"/>
<polygon fill="green" stroke="green" stroke-width="0.275768" points="1264.09,-146.761 1271.25,-138.954 1260.78,-140.591 1264.09,-146.761"/>
</g>
<!-- direita -->
<g id="node22" class="node"><title>direita</title>
<ellipse fill="lightblue" stroke="black" cx="1107.3" cy="-119.439" rx="27.6545" ry="27.6545"/>
<text text-anchor="middle" x="1107.3" y="-117.239" font-family="Times New Roman,serif" font-size="9.00">direita</text>
</g>
<!-- dintancia projetil 1&#45;&gt;direita -->
<g id="edge20" class="edge"><title>dintancia projetil 1&#45;&gt;direita</title>
<path fill="none" stroke="green" stroke-width="0.238063" d="M506.533,-204.921C516.499,-199.576 530.303,-192.955 543.299,-189.38 696.207,-147.319 741.024,-173.733 898.299,-153.38 958.748,-145.557 1028.64,-134.035 1070.34,-126.896"/>
<polygon fill="green" stroke="green" stroke-width="0.238063" points="1071.05,-130.326 1080.31,-125.181 1069.86,-123.427 1071.05,-130.326"/>
</g>
<!-- release -->
<g id="node25" class="node"><title>release</title>
<ellipse fill="lightblue" stroke="black" cx="644.299" cy="-119.439" rx="28.9828" ry="28.9828"/>
<text text-anchor="middle" x="644.299" y="-117.239" font-family="Times New Roman,serif" font-size="9.00">release</text>
</g>
<!-- dintancia projetil 1&#45;&gt;release -->
<g id="edge82" class="edge"><title>dintancia projetil 1&#45;&gt;release</title>
<path fill="none" stroke="red" stroke-width="0.242739" d="M505.522,-205.065C528.828,-190.853 577.875,-160.944 610.963,-140.767"/>
<polygon fill="red" stroke="red" stroke-width="0.242739" points="613.122,-143.55 619.837,-135.355 609.477,-137.574 613.122,-143.55"/>
</g>
<!-- distancia projetil 2 -->
<g id="node2" class="node"><title>distancia projetil 2</title>
<polygon fill="lightgray" stroke="black" points="736.799,-223.128 653.799,-223.128 653.799,-205.128 736.799,-205.128 736.799,-223.128"/>
<text text-anchor="middle" x="695.299" y="-211.928" font-family="Times New Roman,serif" font-size="9.00">distancia projetil 2</text>
</g>
<!-- distancia projetil 2&#45;&gt;esquerda -->
<g id="edge18" class="edge"><title>distancia projetil 2&#45;&gt;esquerda</title>
<path fill="none" stroke="green" stroke-width="0.147667" d="M708.781,-205.035C718.557,-199.595 732.291,-192.815 745.299,-189.38 957.713,-133.291 1027.41,-214.942 1238.3,-153.38 1246.35,-151.03 1254.54,-147.519 1262.19,-143.654"/>
<polygon fill="green" stroke="green" stroke-width="0.147667" points="1264.05,-146.626 1271.21,-138.817 1260.74,-140.456 1264.05,-146.626"/>
</g>
<!-- pular -->
<g id="node23" class="node"><title>pular</title>
<ellipse fill="lightblue" stroke="black" cx="846.299" cy="-119.439" rx="25" ry="25"/>
<text text-anchor="middle" x="846.299" y="-117.239" font-family="Times New Roman,serif" font-size="9.00">pular</text>
</g>
<!-- distancia projetil 2&#45;&gt;pular -->
<g id="edge52" class="edge"><title>distancia projetil 2&#45;&gt;pular</title>
<path fill="none" stroke="green" stroke-width="0.707141" stroke-dasharray="1,5" d="M708.435,-205.065C732.44,-190.33 783.935,-158.72 816.747,-138.579"/>
<polygon fill="green" stroke="green" stroke-width="0.707141" points="818.776,-141.44 825.468,-133.226 815.114,-135.474 818.776,-141.44"/>
</g>
<!-- atirar -->
<g id="node24" class="node"><title>atirar</title>
<ellipse fill="lightblue" stroke="black" cx="1204.3" cy="-119.439" rx="25" ry="25"/>
<text text-anchor="middle" x="1204.3" y="-117.239" font-family="Times New Roman,serif" font-size="9.00">atirar</text>
</g>
<!-- distancia projetil 2&#45;&gt;atirar -->
<g id="edge70" class="edge"><title>distancia projetil 2&#45;&gt;atirar</title>
<path fill="none" stroke="red" stroke-width="0.140857" d="M708.795,-205.088C718.578,-199.673 732.314,-192.9 745.299,-189.38 924.839,-140.699 989.245,-221.62 1162.3,-153.38 1168.04,-151.115 1173.64,-147.798 1178.78,-144.129"/>
<polygon fill="red" stroke="red" stroke-width="0.140857" points="1181.22,-146.665 1186.94,-137.748 1176.91,-141.15 1181.22,-146.665"/>
</g>
<!-- distancia projetil 2&#45;&gt;release -->
<g id="edge7" class="edge"><title>distancia projetil 2&#45;&gt;release</title>
<path fill="none" stroke="green" stroke-width="0.152878" d="M690.773,-204.903C684.587,-193.66 673.116,-172.812 663.119,-154.643"/>
<polygon fill="green" stroke="green" stroke-width="0.152878" points="665.949,-152.525 658.062,-145.451 659.816,-155.9 665.949,-152.525"/>
</g>
<!-- distancia projetil 3 -->
<g id="node3" class="node"><title>distancia projetil 3</title>
<polygon fill="lightgray" stroke="black" points="1608.8,-292.877 1525.8,-292.877 1525.8,-274.877 1608.8,-274.877 1608.8,-292.877"/>
<text text-anchor="middle" x="1567.3" y="-281.677" font-family="Times New Roman,serif" font-size="9.00">distancia projetil 3</text>
</g>
<!-- distancia projetil 3&#45;&gt;esquerda -->
<g id="edge75" class="edge"><title>distancia projetil 3&#45;&gt;esquerda</title>
<path fill="none" stroke="green" stroke-width="0.317896" d="M1608.9,-282.7C1730.72,-281.752 2080.22,-275.811 2114.3,-238.877 2129.22,-222.71 2129.18,-205.578 2114.3,-189.38 2061.82,-132.279 1505.44,-122.429 1343.36,-120.768"/>
<polygon fill="green" stroke="green" stroke-width="0.317896" points="1343.3,-117.267 1333.27,-120.67 1343.23,-124.267 1343.3,-117.267"/>
</g>
<!-- distancia projetil 3&#45;&gt;direita -->
<g id="edge57" class="edge"><title>distancia projetil 3&#45;&gt;direita</title>
<path fill="none" stroke="green" stroke-width="0.406498" d="M1525.56,-278.908C1491.13,-273.978 1442.26,-263.03 1406.3,-238.877 1383.28,-223.414 1391.97,-203.828 1368.3,-189.38 1291.95,-142.785 1254.89,-182.432 1170.3,-153.38 1159.86,-149.795 1149.03,-144.695 1139.35,-139.576"/>
<polygon fill="green" stroke="green" stroke-width="0.406498" points="1140.93,-136.449 1130.47,-134.711 1137.56,-142.587 1140.93,-136.449"/>
</g>
<!-- distancia projetil 3&#45;&gt;pular -->
<g id="edge38" class="edge"><title>distancia projetil 3&#45;&gt;pular</title>
<path fill="none" stroke="green" stroke-width="0.140911" stroke-dasharray="1,5" d="M1525.67,-282.481C1282.28,-280.071 53.186,-266.543 26.2991,-238.877 10.9671,-223.101 11.1757,-205.356 26.2991,-189.38 76.4827,-136.367 609.884,-162.591 682.299,-153.38 727.661,-147.61 779.265,-136.475 812.271,-128.759"/>
<polygon fill="green" stroke="green" stroke-width="0.140911" points="813.377,-132.094 822.302,-126.384 811.765,-125.282 813.377,-132.094"/>
</g>
<!-- distancia projetil 3&#45;&gt;atirar -->
<g id="edge14" class="edge"><title>distancia projetil 3&#45;&gt;atirar</title>
<path fill="none" stroke="green" stroke-width="0.507133" stroke-dasharray="1,5" d="M1608.9,-281.42C1707.02,-277.555 1946.45,-265.469 1970.3,-238.877 1984.99,-222.499 1985.46,-205.322 1970.3,-189.38 1915.56,-131.814 1332.01,-177.425 1256.3,-153.38 1247.81,-150.683 1239.33,-146.248 1231.76,-141.494"/>
<polygon fill="green" stroke="green" stroke-width="0.507133" points="1233.6,-138.513 1223.34,-135.852 1229.7,-144.327 1233.6,-138.513"/>
</g>
<!-- distancia projetil 3&#45;&gt;release -->
<g id="edge83" class="edge"><title>distancia projetil 3&#45;&gt;release</title>
<path fill="none" stroke="red" stroke-width="0.579652" stroke-dasharray="1,5" d="M1525.67,-282.493C1280.85,-280.138 38.4661,-266.823 11.2991,-238.877 -4.03503,-223.103 -3.39023,-205.756 11.2991,-189.38 51.0963,-145.013 473.064,-126.471 605.063,-121.73"/>
<polygon fill="red" stroke="red" stroke-width="0.579652" points="605.265,-125.225 615.136,-121.375 605.018,-118.229 605.265,-125.225"/>
</g>
<!-- 1931 -->
<g id="node27" class="node"><title>1931</title>
<ellipse fill="white" stroke="black" cx="1748.3" cy="-214.128" rx="25" ry="25"/>
<text text-anchor="middle" x="1748.3" y="-211.928" font-family="Times New Roman,serif" font-size="9.00">1931</text>
</g>
<!-- distancia projetil 3&#45;&gt;1931 -->
<g id="edge31" class="edge"><title>distancia projetil 3&#45;&gt;1931</title>
<path fill="none" stroke="green" stroke-width="0.309302" d="M1607.28,-274.822C1637.86,-267.766 1680.53,-255.948 1715.3,-238.877 1717.1,-237.991 1718.92,-237.007 1720.71,-235.959"/>
<polygon fill="green" stroke="green" stroke-width="0.309302" points="1722.93,-238.694 1729.44,-230.334 1719.14,-232.81 1722.93,-238.694"/>
</g>
<!-- distancia projetil 4 -->
<g id="node4" class="node"><title>distancia projetil 4</title>
<polygon fill="lightgray" stroke="black" points="837.799,-223.128 754.799,-223.128 754.799,-205.128 837.799,-205.128 837.799,-223.128"/>
<text text-anchor="middle" x="796.299" y="-211.928" font-family="Times New Roman,serif" font-size="9.00">distancia projetil 4</text>
</g>
<!-- distancia projetil 4&#45;&gt;esquerda -->
<g id="edge61" class="edge"><title>distancia projetil 4&#45;&gt;esquerda</title>
<path fill="none" stroke="red" stroke-width="0.699688" stroke-dasharray="1,5" d="M809.801,-205.11C819.586,-199.705 833.324,-192.936 846.299,-189.38 1015.03,-143.135 1070.82,-203.972 1238.3,-153.38 1246.33,-150.955 1254.5,-147.41 1262.15,-143.534"/>
<polygon fill="red" stroke="red" stroke-width="0.699688" points="1264.02,-146.506 1271.18,-138.696 1260.71,-140.337 1264.02,-146.506"/>
</g>
<!-- distancia projetil 4&#45;&gt;pular -->
<g id="edge11" class="edge"><title>distancia projetil 4&#45;&gt;pular</title>
<path fill="none" stroke="red" stroke-width="0.383155" d="M800.736,-204.903C807.268,-192.795 819.807,-169.549 830.081,-150.505"/>
<polygon fill="red" stroke="red" stroke-width="0.383155" points="833.238,-152.023 834.905,-141.56 827.077,-148.7 833.238,-152.023"/>
</g>
<!-- distancia projetil 4&#45;&gt;atirar -->
<g id="edge30" class="edge"><title>distancia projetil 4&#45;&gt;atirar</title>
<path fill="none" stroke="red" stroke-width="0.322514" d="M810.248,-204.966C820.015,-199.641 833.548,-193.025 846.299,-189.38 982.208,-150.529 1031.52,-207.025 1162.3,-153.38 1168.01,-151.037 1173.59,-147.682 1178.73,-144.001"/>
<polygon fill="red" stroke="red" stroke-width="0.322514" points="1181.17,-146.536 1186.89,-137.619 1176.86,-141.021 1181.17,-146.536"/>
</g>
<!-- distancia projetil 4&#45;&gt;release -->
<g id="edge67" class="edge"><title>distancia projetil 4&#45;&gt;release</title>
<path fill="none" stroke="red" stroke-width="0.251312" stroke-dasharray="1,5" d="M783.076,-205.065C759.771,-190.853 710.723,-160.944 677.635,-140.767"/>
<polygon fill="red" stroke="red" stroke-width="0.251312" points="679.121,-137.574 668.761,-135.355 675.476,-143.55 679.121,-137.574"/>
</g>
<!-- distancia projetil 5 -->
<g id="node5" class="node"><title>distancia projetil 5</title>
<polygon fill="lightgray" stroke="black" points="635.799,-223.128 552.799,-223.128 552.799,-205.128 635.799,-205.128 635.799,-223.128"/>
<text text-anchor="middle" x="594.299" y="-211.928" font-family="Times New Roman,serif" font-size="9.00">distancia projetil 5</text>
</g>
<!-- distancia projetil 5&#45;&gt;esquerda -->
<g id="edge43" class="edge"><title>distancia projetil 5&#45;&gt;esquerda</title>
<path fill="none" stroke="red" stroke-width="0.238383" d="M607.768,-204.985C617.538,-199.522 631.27,-192.734 644.299,-189.38 900.431,-123.438 983.958,-225.922 1238.3,-153.38 1246.36,-151.08 1254.56,-147.592 1262.21,-143.733"/>
<polygon fill="red" stroke="red" stroke-width="0.238383" points="1264.07,-146.705 1271.23,-138.897 1260.77,-140.535 1264.07,-146.705"/>
</g>
<!-- distancia projetil 5&#45;&gt;direita -->
<g id="edge21" class="edge"><title>distancia projetil 5&#45;&gt;direita</title>
<path fill="none" stroke="red" stroke-width="0.335522" stroke-dasharray="1,5" d="M608.281,-205.077C618.062,-199.802 631.599,-193.199 644.299,-189.38 753.486,-156.546 785.538,-170.256 898.299,-153.38 958.413,-144.383 1028.14,-133.253 1069.93,-126.507"/>
<polygon fill="red" stroke="red" stroke-width="0.335522" points="1070.62,-129.942 1079.93,-124.891 1069.5,-123.032 1070.62,-129.942"/>
</g>
<!-- distancia projetil 5&#45;&gt;release -->
<g id="edge35" class="edge"><title>distancia projetil 5&#45;&gt;release</title>
<path fill="none" stroke="red" stroke-width="0.283807" stroke-dasharray="1,5" d="M598.736,-204.903C604.801,-193.66 616.047,-172.812 625.848,-154.643"/>
<polygon fill="red" stroke="red" stroke-width="0.283807" points="629.139,-155.914 630.806,-145.451 622.978,-152.591 629.139,-155.914"/>
</g>
<!-- distancia projetil 6 -->
<g id="node6" class="node"><title>distancia projetil 6</title>
<polygon fill="lightgray" stroke="black" points="938.799,-223.128 855.799,-223.128 855.799,-205.128 938.799,-205.128 938.799,-223.128"/>
<text text-anchor="middle" x="897.299" y="-211.928" font-family="Times New Roman,serif" font-size="9.00">distancia projetil 6</text>
</g>
<!-- distancia projetil 6&#45;&gt;esquerda -->
<g id="edge80" class="edge"><title>distancia projetil 6&#45;&gt;esquerda</title>
<path fill="none" stroke="red" stroke-width="0.165453" d="M911.56,-205.014C921.536,-199.711 935.344,-193.1 948.299,-189.38 1073.13,-153.53 1114.59,-192.917 1238.3,-153.38 1246.29,-150.827 1254.44,-147.224 1262.09,-143.331"/>
<polygon fill="red" stroke="red" stroke-width="0.165453" points="1263.95,-146.302 1271.11,-138.49 1260.65,-140.134 1263.95,-146.302"/>
</g>
<!-- distancia projetil 6&#45;&gt;pular -->
<g id="edge76" class="edge"><title>distancia projetil 6&#45;&gt;pular</title>
<path fill="none" stroke="green" stroke-width="0.62465" d="M892.773,-204.903C886.111,-192.795 873.321,-169.549 862.842,-150.505"/>
<polygon fill="green" stroke="green" stroke-width="0.62465" points="865.808,-148.634 857.921,-141.56 859.675,-152.009 865.808,-148.634"/>
</g>
<!-- distancia projetil 6&#45;&gt;atirar -->
<g id="edge79" class="edge"><title>distancia projetil 6&#45;&gt;atirar</title>
<path fill="none" stroke="green" stroke-width="0.277534" stroke-dasharray="1,5" d="M912.05,-204.964C922.013,-199.777 935.614,-193.321 948.299,-189.38 1040.4,-160.764 1074.07,-192.344 1162.3,-153.38 1167.95,-150.885 1173.5,-147.458 1178.62,-143.753"/>
<polygon fill="green" stroke="green" stroke-width="0.277534" points="1181.07,-146.287 1186.79,-137.369 1176.75,-140.773 1181.07,-146.287"/>
</g>
<!-- distancia projetil 6&#45;&gt;release -->
<g id="edge42" class="edge"><title>distancia projetil 6&#45;&gt;release</title>
<path fill="none" stroke="green" stroke-width="0.476247" d="M880.958,-204.975C871.047,-200.167 858.079,-194.117 846.299,-189.38 789.725,-166.629 722.419,-144.641 681.553,-131.836"/>
<polygon fill="green" stroke="green" stroke-width="0.476247" points="682.345,-128.416 671.756,-128.783 680.262,-135.099 682.345,-128.416"/>
</g>
<!-- distancia projetil 7 -->
<g id="node7" class="node"><title>distancia projetil 7</title>
<polygon fill="lightgray" stroke="black" points="1604.8,-223.128 1521.8,-223.128 1521.8,-205.128 1604.8,-205.128 1604.8,-223.128"/>
<text text-anchor="middle" x="1563.3" y="-211.928" font-family="Times New Roman,serif" font-size="9.00">distancia projetil 7</text>
</g>
<!-- distancia projetil 7&#45;&gt;esquerda -->
<g id="edge60" class="edge"><title>distancia projetil 7&#45;&gt;esquerda</title>
<path fill="none" stroke="green" stroke-width="0.164312" d="M1546.99,-204.907C1537.08,-200.075 1524.12,-194.023 1512.3,-189.38 1454.07,-166.499 1384.86,-145.136 1341.5,-132.428"/>
<polygon fill="green" stroke="green" stroke-width="0.164312" points="1342.43,-129.055 1331.85,-129.619 1340.47,-135.776 1342.43,-129.055"/>
</g>
<!-- distancia projetil 7&#45;&gt;direita -->
<g id="edge78" class="edge"><title>distancia projetil 7&#45;&gt;direita</title>
<path fill="none" stroke="green" stroke-width="0.122547" stroke-dasharray="1,5" d="M1549.06,-204.937C1539.09,-199.599 1525.29,-192.979 1512.3,-189.38 1365.01,-148.563 1316.61,-197.572 1170.3,-153.38 1159.73,-150.189 1148.86,-145.207 1139.19,-140.076"/>
<polygon fill="green" stroke="green" stroke-width="0.122547" points="1140.77,-136.952 1130.33,-135.164 1137.38,-143.074 1140.77,-136.952"/>
</g>
<!-- distancia projetil 7&#45;&gt;pular -->
<g id="edge62" class="edge"><title>distancia projetil 7&#45;&gt;pular</title>
<path fill="none" stroke="red" stroke-width="0.258701" d="M1549.52,-205.072C1539.53,-199.651 1525.52,-192.876 1512.3,-189.38 1321.75,-138.99 1266.12,-175.729 1070.3,-153.38 1003.01,-145.7 924.833,-133.437 880.902,-126.238"/>
<polygon fill="red" stroke="red" stroke-width="0.258701" points="881.195,-122.739 870.759,-124.566 880.057,-129.646 881.195,-122.739"/>
</g>
<!-- distancia projetil 7&#45;&gt;atirar -->
<g id="edge72" class="edge"><title>distancia projetil 7&#45;&gt;atirar</title>
<path fill="none" stroke="green" stroke-width="0.216444" d="M1549.02,-205.081C1539.03,-199.807 1525.22,-193.205 1512.3,-189.38 1402.13,-156.772 1364.14,-193.014 1256.3,-153.38 1247.94,-150.306 1239.5,-145.741 1231.94,-140.981"/>
<polygon fill="green" stroke="green" stroke-width="0.216444" points="1233.77,-137.998 1223.5,-135.382 1229.9,-143.829 1233.77,-137.998"/>
</g>
<!-- distancia projetil 8 -->
<g id="node8" class="node"><title>distancia projetil 8</title>
<polygon fill="lightgray" stroke="black" points="325.799,-223.128 242.799,-223.128 242.799,-205.128 325.799,-205.128 325.799,-223.128"/>
<text text-anchor="middle" x="284.299" y="-211.928" font-family="Times New Roman,serif" font-size="9.00">distancia projetil 8</text>
</g>
<!-- distancia projetil 8&#45;&gt;direita -->
<g id="edge15" class="edge"><title>distancia projetil 8&#45;&gt;direita</title>
<path fill="none" stroke="red" stroke-width="0.322056" stroke-dasharray="1,5" d="M298.062,-205.001C308.039,-199.546 322.05,-192.76 335.299,-189.38 578.248,-127.389 649.084,-180.928 898.299,-153.38 958.883,-146.683 1028.74,-134.827 1070.39,-127.315"/>
<polygon fill="red" stroke="red" stroke-width="0.322056" points="1071.14,-130.736 1080.35,-125.504 1069.89,-123.849 1071.14,-130.736"/>
</g>
<!-- distancia projetil 8&#45;&gt;pular -->
<g id="edge36" class="edge"><title>distancia projetil 8&#45;&gt;pular</title>
<path fill="none" stroke="green" stroke-width="0.40215" d="M298.536,-204.931C308.502,-199.59 322.307,-192.97 335.299,-189.38 484.749,-148.084 529.009,-176.673 682.299,-153.38 727.508,-146.51 779.147,-135.629 812.203,-128.27"/>
<polygon fill="green" stroke="green" stroke-width="0.40215" points="813.26,-131.62 822.251,-126.014 811.727,-124.79 813.26,-131.62"/>
</g>
<!-- distancia projetil 8&#45;&gt;atirar -->
<g id="edge58" class="edge"><title>distancia projetil 8&#45;&gt;atirar</title>
<path fill="none" stroke="red" stroke-width="0.129184" stroke-dasharray="1,5" d="M298.042,-204.918C308.009,-199.424 322.016,-192.625 335.299,-189.38 513.994,-145.716 989.773,-217.199 1162.3,-153.38 1168.34,-151.143 1174.21,-147.69 1179.54,-143.846"/>
<polygon fill="red" stroke="red" stroke-width="0.129184" points="1181.76,-146.553 1187.43,-137.604 1177.41,-141.064 1181.76,-146.553"/>
</g>
<!-- distancia projetil 8&#45;&gt;release -->
<g id="edge27" class="edge"><title>distancia projetil 8&#45;&gt;release</title>
<path fill="none" stroke="red" stroke-width="0.426029" d="M299.565,-204.958C309.515,-199.901 322.908,-193.592 335.299,-189.38 430.049,-157.173 546.321,-135.906 605.577,-126.309"/>
<polygon fill="red" stroke="red" stroke-width="0.426029" points="606.294,-129.739 615.617,-124.706 605.19,-122.826 606.294,-129.739"/>
</g>
<!-- distancia projetil 9 -->
<g id="node9" class="node"><title>distancia projetil 9</title>
<polygon fill="lightgray" stroke="black" points="1358.8,-223.128 1275.8,-223.128 1275.8,-205.128 1358.8,-205.128 1358.8,-223.128"/>
<text text-anchor="middle" x="1317.3" y="-211.928" font-family="Times New Roman,serif" font-size="9.00">distancia projetil 9</text>
</g>
<!-- distancia projetil 9&#45;&gt;esquerda -->
<g id="edge59" class="edge"><title>distancia projetil 9&#45;&gt;esquerda</title>
<path fill="none" stroke="green" stroke-width="0.152221" d="M1315.7,-204.903C1313.85,-195.381 1310.67,-178.969 1307.59,-163.131"/>
<polygon fill="green" stroke="green" stroke-width="0.152221" points="1310.94,-162.033 1305.6,-152.883 1304.07,-163.367 1310.94,-162.033"/>
</g>
<!-- distancia projetil 9&#45;&gt;direita -->
<g id="edge37" class="edge"><title>distancia projetil 9&#45;&gt;direita</title>
<path fill="none" stroke="green" stroke-width="0.439736" stroke-dasharray="1,5" d="M1300.91,-205.103C1290.98,-200.34 1278.01,-194.292 1266.3,-189.38 1224.28,-171.749 1211.9,-171.972 1170.3,-153.38 1160.31,-148.915 1149.68,-143.591 1140.06,-138.539"/>
<polygon fill="green" stroke="green" stroke-width="0.439736" points="1141.66,-135.428 1131.19,-133.816 1138.37,-141.607 1141.66,-135.428"/>
</g>
<!-- distancia projetil 9&#45;&gt;pular -->
<g id="edge8" class="edge"><title>distancia projetil 9&#45;&gt;pular</title>
<path fill="none" stroke="green" stroke-width="0.131627" stroke-dasharray="1,5" d="M1302.55,-204.947C1292.59,-199.753 1278.99,-193.296 1266.3,-189.38 1229.54,-178.04 974.714,-139.537 880.882,-125.561"/>
<polygon fill="green" stroke="green" stroke-width="0.131627" points="881.178,-122.066 870.772,-124.057 880.148,-128.99 881.178,-122.066"/>
</g>
<!-- distancia projetil 10 -->
<g id="node10" class="node"><title>distancia projetil 10</title>
<polygon fill="lightgray" stroke="black" points="432.299,-223.128 344.299,-223.128 344.299,-205.128 432.299,-205.128 432.299,-223.128"/>
<text text-anchor="middle" x="388.299" y="-211.928" font-family="Times New Roman,serif" font-size="9.00">distancia projetil 10</text>
</g>
<!-- distancia projetil 10&#45;&gt;direita -->
<g id="edge63" class="edge"><title>distancia projetil 10&#45;&gt;direita</title>
<path fill="none" stroke="red" stroke-width="0.15968" d="M402.659,-205.07C413.053,-199.647 427.622,-192.871 441.299,-189.38 638.709,-138.986 695.963,-177.258 898.299,-153.38 958.832,-146.236 1028.7,-134.513 1070.37,-127.149"/>
<polygon fill="red" stroke="red" stroke-width="0.15968" points="1071.11,-130.574 1080.34,-125.376 1069.88,-123.682 1071.11,-130.574"/>
</g>
<!-- distancia projetil 10&#45;&gt;pular -->
<g id="edge1" class="edge"><title>distancia projetil 10&#45;&gt;pular</title>
<path fill="none" stroke="red" stroke-width="0.259121" d="M403.643,-204.905C414.003,-199.694 428.139,-193.232 441.299,-189.38 545.237,-158.954 575.621,-172.049 682.299,-153.38 727.342,-145.497 779.019,-134.849 812.129,-127.82"/>
<polygon fill="red" stroke="red" stroke-width="0.259121" points="813.145,-131.182 822.195,-125.673 811.685,-124.336 813.145,-131.182"/>
</g>
<!-- distancia projetil 10&#45;&gt;atirar -->
<g id="edge19" class="edge"><title>distancia projetil 10&#45;&gt;atirar</title>
<path fill="none" stroke="red" stroke-width="0.202319" d="M402.629,-204.948C413.009,-199.468 427.573,-192.674 441.299,-189.38 597.29,-151.937 1012.02,-209.516 1162.3,-153.38 1168.34,-151.124 1174.2,-147.662 1179.53,-143.816"/>
<polygon fill="red" stroke="red" stroke-width="0.202319" points="1181.74,-146.523 1187.42,-137.573 1177.4,-141.033 1181.74,-146.523"/>
</g>
<!-- distancia projetil 10&#45;&gt;release -->
<g id="edge32" class="edge"><title>distancia projetil 10&#45;&gt;release</title>
<path fill="none" stroke="red" stroke-width="0.415942" d="M405.312,-205.016C415.622,-200.222 429.099,-194.173 441.299,-189.38 498.426,-166.937 566.187,-144.802 607.179,-131.89"/>
<polygon fill="red" stroke="red" stroke-width="0.415942" points="608.256,-135.22 616.752,-128.889 606.163,-128.54 608.256,-135.22"/>
</g>
<!-- distancia projetil 11 -->
<g id="node11" class="node"><title>distancia projetil 11</title>
<polygon fill="lightgray" stroke="black" points="1045.3,-223.128 957.299,-223.128 957.299,-205.128 1045.3,-205.128 1045.3,-223.128"/>
<text text-anchor="middle" x="1001.3" y="-211.928" font-family="Times New Roman,serif" font-size="9.00">distancia projetil 11</text>
</g>
<!-- distancia projetil 11&#45;&gt;esquerda -->
<g id="edge23" class="edge"><title>distancia projetil 11&#45;&gt;esquerda</title>
<path fill="none" stroke="green" stroke-width="1.00272" d="M1016.7,-205.1C1027.09,-199.97 1041.23,-193.527 1054.3,-189.38 1133.73,-164.179 1159.86,-181.497 1238.3,-153.38 1246.03,-150.61 1253.97,-146.978 1261.46,-143.139"/>
<polygon fill="green" stroke="green" stroke-width="1.00272" points="1263.49,-146.021 1270.65,-138.217 1260.19,-139.85 1263.49,-146.021"/>
</g>
<!-- distancia projetil 11&#45;&gt;direita -->
<g id="edge4" class="edge"><title>distancia projetil 11&#45;&gt;direita</title>
<path fill="none" stroke="green" stroke-width="0.215452" d="M1010.71,-204.903C1025.93,-191.586 1056.57,-164.797 1079.28,-144.942"/>
<polygon fill="green" stroke="green" stroke-width="0.215452" points="1081.72,-147.459 1086.94,-138.242 1077.11,-142.189 1081.72,-147.459"/>
</g>
<!-- distancia projetil 11&#45;&gt;pular -->
<g id="edge26" class="edge"><title>distancia projetil 11&#45;&gt;pular</title>
<path fill="none" stroke="red" stroke-width="0.111739" d="M987.815,-205.065C963.04,-190.249 909.736,-158.374 876.084,-138.25"/>
<polygon fill="red" stroke="red" stroke-width="0.111739" points="877.532,-135.038 867.153,-132.909 873.939,-141.045 877.532,-135.038"/>
</g>
<!-- distancia projetil 11&#45;&gt;atirar -->
<g id="edge55" class="edge"><title>distancia projetil 11&#45;&gt;atirar</title>
<path fill="none" stroke="green" stroke-width="0.108572" stroke-dasharray="1,5" d="M1018.3,-204.991C1028.61,-200.188 1042.09,-194.138 1054.3,-189.38 1101.44,-171.012 1117.74,-177.345 1162.3,-153.38 1167.74,-150.455 1173.19,-146.822 1178.28,-143.047"/>
<polygon fill="green" stroke="green" stroke-width="0.108572" points="1180.72,-145.579 1186.44,-136.659 1176.41,-140.067 1180.72,-145.579"/>
</g>
<!-- distancia projetil 11&#45;&gt;release -->
<g id="edge33" class="edge"><title>distancia projetil 11&#45;&gt;release</title>
<path fill="none" stroke="green" stroke-width="0.112982" stroke-dasharray="1,5" d="M985.075,-205.021C974.515,-199.989 960.33,-193.684 947.299,-189.38 898.208,-173.165 752.787,-142.587 682.793,-128.241"/>
<polygon fill="green" stroke="green" stroke-width="0.112982" points="683.131,-124.738 672.633,-126.164 681.729,-131.596 683.131,-124.738"/>
</g>
<!-- distancia projetil 12 -->
<g id="node12" class="node"><title>distancia projetil 12</title>
<polygon fill="lightgray" stroke="black" points="123.299,-223.128 35.2991,-223.128 35.2991,-205.128 123.299,-205.128 123.299,-223.128"/>
<text text-anchor="middle" x="79.2991" y="-211.928" font-family="Times New Roman,serif" font-size="9.00">distancia projetil 12</text>
</g>
<!-- distancia projetil 12&#45;&gt;direita -->
<g id="edge28" class="edge"><title>distancia projetil 12&#45;&gt;direita</title>
<path fill="none" stroke="green" stroke-width="0.517622" stroke-dasharray="1,5" d="M93.6256,-204.936C104.005,-199.45 118.568,-192.654 132.299,-189.38 298.06,-149.848 728.769,-170.671 898.299,-153.38 958.938,-147.195 1028.78,-135.188 1070.41,-127.505"/>
<polygon fill="green" stroke="green" stroke-width="0.517622" points="1071.18,-130.922 1080.37,-125.651 1069.9,-124.041 1071.18,-130.922"/>
</g>
<!-- distancia projetil 12&#45;&gt;pular -->
<g id="edge50" class="edge"><title>distancia projetil 12&#45;&gt;pular</title>
<path fill="none" stroke="red" stroke-width="0.20381" stroke-dasharray="1,5" d="M93.6445,-205.014C104.032,-199.564 118.599,-192.781 132.299,-189.38 370.051,-130.362 439.456,-185.571 682.299,-153.38 727.63,-147.371 779.241,-136.291 812.257,-128.652"/>
<polygon fill="red" stroke="red" stroke-width="0.20381" points="813.353,-131.991 822.292,-126.304 811.757,-125.175 813.353,-131.991"/>
</g>
<!-- distancia projetil 12&#45;&gt;atirar -->
<g id="edge69" class="edge"><title>distancia projetil 12&#45;&gt;atirar</title>
<path fill="none" stroke="green" stroke-width="0.388466" stroke-dasharray="1,5" d="M93.1717,-205.121C103.571,-199.57 118.352,-192.617 132.299,-189.38 355.395,-137.59 947.157,-231.917 1162.3,-153.38 1168.35,-151.169 1174.22,-147.728 1179.55,-143.888"/>
<polygon fill="green" stroke="green" stroke-width="0.388466" points="1181.77,-146.594 1187.44,-137.644 1177.43,-141.105 1181.77,-146.594"/>
</g>
<!-- distancia projetil 12&#45;&gt;release -->
<g id="edge16" class="edge"><title>distancia projetil 12&#45;&gt;release</title>
<path fill="none" stroke="red" stroke-width="0.257997" d="M94.1705,-205.073C104.561,-199.796 118.917,-193.192 132.299,-189.38 303.912,-140.486 518.018,-125.95 604.921,-121.899"/>
<polygon fill="red" stroke="red" stroke-width="0.257997" points="605.284,-125.387 615.118,-121.446 604.973,-118.394 605.284,-125.387"/>
</g>
<!-- distancia projetil 13 -->
<g id="node13" class="node"><title>distancia projetil 13</title>
<polygon fill="lightgray" stroke="black" points="1151.3,-223.128 1063.3,-223.128 1063.3,-205.128 1151.3,-205.128 1151.3,-223.128"/>
<text text-anchor="middle" x="1107.3" y="-211.928" font-family="Times New Roman,serif" font-size="9.00">distancia projetil 13</text>
</g>
<!-- distancia projetil 13&#45;&gt;esquerda -->
<g id="edge81" class="edge"><title>distancia projetil 13&#45;&gt;esquerda</title>
<path fill="none" stroke="green" stroke-width="0.407409" d="M1125.66,-204.936C1156.47,-191.161 1217.26,-163.843 1238.3,-153.38 1245.65,-149.724 1253.41,-145.678 1260.85,-141.71"/>
<polygon fill="green" stroke="green" stroke-width="0.407409" points="1262.89,-144.584 1270.03,-136.759 1259.57,-138.422 1262.89,-144.584"/>
</g>
<!-- distancia projetil 13&#45;&gt;direita -->
<g id="edge64" class="edge"><title>distancia projetil 13&#45;&gt;direita</title>
<path fill="none" stroke="green" stroke-width="0.10104" d="M1107.3,-204.903C1107.3,-194.162 1107.3,-174.657 1107.3,-157.095"/>
<polygon fill="green" stroke="green" stroke-width="0.10104" points="1110.8,-157.06 1107.3,-147.06 1103.8,-157.06 1110.8,-157.06"/>
</g>
<!-- distancia projetil 13&#45;&gt;pular -->
<g id="edge47" class="edge"><title>distancia projetil 13&#45;&gt;pular</title>
<path fill="none" stroke="red" stroke-width="0.170753" stroke-dasharray="1,5" d="M1090.3,-204.983C1079.99,-200.178 1066.52,-194.128 1054.3,-189.38 993.661,-165.814 921.221,-142.969 879.804,-130.397"/>
<polygon fill="red" stroke="red" stroke-width="0.170753" points="880.554,-126.968 869.969,-127.428 878.531,-133.669 880.554,-126.968"/>
</g>
<!-- distancia projetil 13&#45;&gt;atirar -->
<g id="edge13" class="edge"><title>distancia projetil 13&#45;&gt;atirar</title>
<path fill="none" stroke="green" stroke-width="0.885353" d="M1115.91,-204.903C1130.03,-191.408 1158.63,-164.076 1179.49,-144.147"/>
<polygon fill="green" stroke="green" stroke-width="0.885353" points="1181.97,-146.618 1186.78,-137.179 1177.13,-141.557 1181.97,-146.618"/>
</g>
<!-- distancia projetil 13&#45;&gt;release -->
<g id="edge73" class="edge"><title>distancia projetil 13&#45;&gt;release</title>
<path fill="none" stroke="green" stroke-width="0.284693" d="M1091.96,-204.903C1081.6,-199.69 1067.46,-193.228 1054.3,-189.38 949.93,-158.862 919.459,-171.846 812.299,-153.38 767.572,-145.672 716.428,-135.439 682.437,-128.436"/>
<polygon fill="green" stroke="green" stroke-width="0.284693" points="682.967,-124.971 672.465,-126.372 681.548,-131.826 682.967,-124.971"/>
</g>
<!-- distancia projetil 14 -->
<g id="node14" class="node"><title>distancia projetil 14</title>
<polygon fill="lightgray" stroke="black" points="2105.3,-223.128 2017.3,-223.128 2017.3,-205.128 2105.3,-205.128 2105.3,-223.128"/>
<text text-anchor="middle" x="2061.3" y="-211.928" font-family="Times New Roman,serif" font-size="9.00">distancia projetil 14</text>
</g>
<!-- distancia projetil 14&#45;&gt;esquerda -->
<g id="edge66" class="edge"><title>distancia projetil 14&#45;&gt;esquerda</title>
<path fill="none" stroke="red" stroke-width="0.32013" d="M2044.98,-204.947C2033.59,-199.613 2017.87,-192.995 2003.3,-189.38 1759.37,-128.877 1455.54,-121.05 1343.47,-120.344"/>
<polygon fill="red" stroke="red" stroke-width="0.32013" points="1343.25,-116.843 1333.23,-120.297 1343.22,-123.843 1343.25,-116.843"/>
</g>
<!-- distancia projetil 14&#45;&gt;atirar -->
<g id="edge46" class="edge"><title>distancia projetil 14&#45;&gt;atirar</title>
<path fill="none" stroke="red" stroke-width="0.917733" stroke-dasharray="1,5" d="M2045.53,-204.952C2034.12,-199.473 2018.17,-192.68 2003.3,-189.38 1841.05,-153.372 1414.75,-203.511 1256.3,-153.38 1247.8,-150.692 1239.33,-146.261 1231.76,-141.507"/>
<polygon fill="red" stroke="red" stroke-width="0.917733" points="1233.6,-138.526 1223.34,-135.864 1229.7,-144.34 1233.6,-138.526"/>
</g>
<!-- distancia projetil 15 -->
<g id="node15" class="node"><title>distancia projetil 15</title>
<polygon fill="lightgray" stroke="black" points="1257.3,-223.128 1169.3,-223.128 1169.3,-205.128 1257.3,-205.128 1257.3,-223.128"/>
<text text-anchor="middle" x="1213.3" y="-211.928" font-family="Times New Roman,serif" font-size="9.00">distancia projetil 15</text>
</g>
<!-- distancia projetil 15&#45;&gt;esquerda -->
<g id="edge51" class="edge"><title>distancia projetil 15&#45;&gt;esquerda</title>
<path fill="none" stroke="red" stroke-width="0.195051" d="M1220.93,-204.903C1231.72,-193.273 1252.05,-171.366 1269.29,-152.777"/>
<polygon fill="red" stroke="red" stroke-width="0.195051" points="1272.22,-154.765 1276.46,-145.053 1267.09,-150.004 1272.22,-154.765"/>
</g>
<!-- distancia projetil 15&#45;&gt;direita -->
<g id="edge29" class="edge"><title>distancia projetil 15&#45;&gt;direita</title>
<path fill="none" stroke="red" stroke-width="0.152143" stroke-dasharray="1,5" d="M1203.89,-204.903C1188.66,-191.586 1158.03,-164.797 1135.32,-144.942"/>
<polygon fill="red" stroke="red" stroke-width="0.152143" points="1137.49,-142.189 1127.66,-138.242 1132.88,-147.459 1137.49,-142.189"/>
</g>
<!-- distancia projetil 15&#45;&gt;pular -->
<g id="edge10" class="edge"><title>distancia projetil 15&#45;&gt;pular</title>
<path fill="none" stroke="green" stroke-width="0.479784" d="M1197.4,-204.973C1187.05,-199.922 1173.13,-193.613 1160.3,-189.38 1061.25,-156.701 939.496,-134.996 880.958,-125.656"/>
<polygon fill="green" stroke="green" stroke-width="0.479784" points="881.205,-122.152 870.783,-124.057 880.118,-129.067 881.205,-122.152"/>
</g>
<!-- distancia projetil 15&#45;&gt;atirar -->
<g id="edge77" class="edge"><title>distancia projetil 15&#45;&gt;atirar</title>
<path fill="none" stroke="red" stroke-width="0.318351" d="M1212.5,-204.903C1211.4,-193.591 1209.36,-172.558 1207.59,-154.311"/>
<polygon fill="red" stroke="red" stroke-width="0.318351" points="1211.06,-153.878 1206.61,-144.263 1204.1,-154.555 1211.06,-153.878"/>
</g>
<!-- distancia projetil 15&#45;&gt;release -->
<g id="edge41" class="edge"><title>distancia projetil 15&#45;&gt;release</title>
<path fill="none" stroke="green" stroke-width="0.428502" d="M1198.46,-204.941C1188.09,-199.605 1173.74,-192.986 1160.3,-189.38 1010.12,-149.079 966.083,-176.363 812.299,-153.38 767.411,-146.671 716.298,-136.245 682.359,-128.924"/>
<polygon fill="green" stroke="green" stroke-width="0.428502" points="682.918,-125.464 672.403,-126.759 681.431,-132.304 682.918,-125.464"/>
</g>
<!-- distancia projetil 16 -->
<g id="node16" class="node"><title>distancia projetil 16</title>
<polygon fill="lightgray" stroke="black" points="1503.3,-223.128 1415.3,-223.128 1415.3,-205.128 1503.3,-205.128 1503.3,-223.128"/>
<text text-anchor="middle" x="1459.3" y="-211.928" font-family="Times New Roman,serif" font-size="9.00">distancia projetil 16</text>
</g>
<!-- distancia projetil 16&#45;&gt;esquerda -->
<g id="edge34" class="edge"><title>distancia projetil 16&#45;&gt;esquerda</title>
<path fill="none" stroke="red" stroke-width="0.292362" d="M1445.38,-205.065C1421.51,-191.237 1371.99,-162.549 1337.25,-142.424"/>
<polygon fill="red" stroke="red" stroke-width="0.292362" points="1338.73,-139.234 1328.32,-137.25 1335.22,-145.291 1338.73,-139.234"/>
</g>
<!-- distancia projetil 16&#45;&gt;direita -->
<g id="edge56" class="edge"><title>distancia projetil 16&#45;&gt;direita</title>
<path fill="none" stroke="green" stroke-width="0.569215" stroke-dasharray="1,5" d="M1442.41,-204.983C1431.03,-199.804 1415.55,-193.35 1401.3,-189.38 1301.2,-161.503 1268.99,-185.886 1170.3,-153.38 1159.82,-149.927 1148.97,-144.867 1139.29,-139.744"/>
<polygon fill="green" stroke="green" stroke-width="0.569215" points="1140.87,-136.618 1130.42,-134.863 1137.5,-142.751 1140.87,-136.618"/>
</g>
<!-- distancia projetil 16&#45;&gt;atirar -->
<g id="edge5" class="edge"><title>distancia projetil 16&#45;&gt;atirar</title>
<path fill="none" stroke="green" stroke-width="0.380981" d="M1441.52,-205.064C1430.17,-200.111 1415.05,-193.877 1401.3,-189.38 1338.19,-168.745 1317.35,-179.483 1256.3,-153.38 1248.11,-149.877 1239.73,-145.162 1232.17,-140.395"/>
<polygon fill="green" stroke="green" stroke-width="0.380981" points="1234,-137.409 1223.72,-134.846 1230.16,-143.261 1234,-137.409"/>
</g>
<!-- distancia projetil 16&#45;&gt;release -->
<g id="edge24" class="edge"><title>distancia projetil 16&#45;&gt;release</title>
<path fill="none" stroke="green" stroke-width="0.135103" d="M1433.69,-205.046C1415.61,-199.686 1390.7,-192.995 1368.3,-189.38 1123.83,-149.935 1057.87,-185.27 812.299,-153.38 767.291,-147.535 716.201,-136.942 682.3,-129.345"/>
<polygon fill="green" stroke="green" stroke-width="0.135103" points="682.882,-125.889 672.356,-127.093 681.336,-132.716 682.882,-125.889"/>
</g>
<!-- distancia inimigo 1 -->
<g id="node17" class="node"><title>distancia inimigo 1</title>
<polygon fill="lightgray" stroke="black" points="1705.8,-223.128 1622.8,-223.128 1622.8,-205.128 1705.8,-205.128 1705.8,-223.128"/>
<text text-anchor="middle" x="1664.3" y="-211.928" font-family="Times New Roman,serif" font-size="9.00">distancia inimigo 1</text>
</g>
<!-- distancia inimigo 1&#45;&gt;esquerda -->
<g id="edge6" class="edge"><title>distancia inimigo 1&#45;&gt;esquerda</title>
<path fill="none" stroke="red" stroke-width="0.216196" d="M1649.36,-204.927C1639.61,-199.857 1626.48,-193.546 1614.3,-189.38 1520.16,-157.193 1404.92,-136.47 1343.24,-126.806"/>
<polygon fill="red" stroke="red" stroke-width="0.216196" points="1343.51,-123.306 1333.09,-125.24 1342.44,-130.224 1343.51,-123.306"/>
</g>
<!-- distancia inimigo 1&#45;&gt;pular -->
<g id="edge48" class="edge"><title>distancia inimigo 1&#45;&gt;pular</title>
<path fill="none" stroke="green" stroke-width="0.473893" stroke-dasharray="1,5" d="M1650.82,-205.007C1641.05,-199.555 1627.32,-192.77 1614.3,-189.38 1379.81,-128.317 1311.24,-179.027 1070.3,-153.38 1002.81,-146.196 924.466,-133.718 880.606,-126.355"/>
<polygon fill="green" stroke="green" stroke-width="0.473893" points="881.189,-122.904 870.746,-124.688 880.022,-129.806 881.189,-122.904"/>
</g>
<!-- distancia inimigo 1&#45;&gt;atirar -->
<g id="edge25" class="edge"><title>distancia inimigo 1&#45;&gt;atirar</title>
<path fill="none" stroke="red" stroke-width="0.508008" stroke-dasharray="1,5" d="M1650.37,-204.912C1640.61,-199.563 1627.07,-192.94 1614.3,-189.38 1460.26,-146.445 1407.46,-205.569 1256.3,-153.38 1247.88,-150.472 1239.42,-145.964 1231.86,-141.207"/>
<polygon fill="red" stroke="red" stroke-width="0.508008" points="1233.69,-138.225 1223.43,-135.589 1229.81,-144.049 1233.69,-138.225"/>
</g>
<!-- distancia inimigo 2 -->
<g id="node18" class="node"><title>distancia inimigo 2</title>
<polygon fill="lightgray" stroke="black" points="224.799,-223.128 141.799,-223.128 141.799,-205.128 224.799,-205.128 224.799,-223.128"/>
<text text-anchor="middle" x="183.299" y="-211.928" font-family="Times New Roman,serif" font-size="9.00">distancia inimigo 2</text>
</g>
<!-- distancia inimigo 2&#45;&gt;direita -->
<g id="edge12" class="edge"><title>distancia inimigo 2&#45;&gt;direita</title>
<path fill="none" stroke="green" stroke-width="0.5086" d="M196.762,-204.959C206.528,-199.484 220.259,-192.692 233.299,-189.38 520.177,-116.508 603.947,-184.462 898.299,-153.38 958.915,-146.979 1028.76,-135.036 1070.4,-127.424"/>
<polygon fill="green" stroke="green" stroke-width="0.5086" points="1071.16,-130.844 1080.36,-125.589 1069.89,-123.96 1071.16,-130.844"/>
</g>
<!-- distancia inimigo 2&#45;&gt;pular -->
<g id="edge39" class="edge"><title>distancia inimigo 2&#45;&gt;pular</title>
<path fill="none" stroke="green" stroke-width="0.378668" d="M196.789,-205.063C206.568,-199.637 220.303,-192.861 233.299,-189.38 426.678,-137.581 484.037,-181.14 682.299,-153.38 727.585,-147.039 779.206,-136.036 812.237,-128.505"/>
<polygon fill="green" stroke="green" stroke-width="0.378668" points="813.318,-131.848 822.277,-126.192 811.746,-125.027 813.318,-131.848"/>
</g>
<!-- distancia inimigo 2&#45;&gt;atirar -->
<g id="edge53" class="edge"><title>distancia inimigo 2&#45;&gt;atirar</title>
<path fill="none" stroke="red" stroke-width="0.287801" d="M196.746,-204.898C206.505,-199.393 220.234,-192.592 233.299,-189.38 433.924,-140.054 968.361,-224.594 1162.3,-153.38 1168.35,-151.158 1174.21,-147.711 1179.55,-143.869"/>
<polygon fill="red" stroke="red" stroke-width="0.287801" points="1181.77,-146.576 1187.44,-137.626 1177.42,-141.087 1181.77,-146.576"/>
</g>
<!-- distancia inimigo 2&#45;&gt;release -->
<g id="edge71" class="edge"><title>distancia inimigo 2&#45;&gt;release</title>
<path fill="none" stroke="red" stroke-width="0.1396" d="M197.74,-204.951C207.5,-199.759 220.832,-193.302 233.299,-189.38 365.847,-147.678 530.836,-129.745 604.989,-123.388"/>
<polygon fill="red" stroke="red" stroke-width="0.1396" points="605.582,-126.851 615.256,-122.533 605,-119.875 605.582,-126.851"/>
</g>
<!-- direcao sprites 1 -->
<g id="node19" class="node"><title>direcao sprites 1</title>
<polygon fill="lightgray" stroke="black" points="1867.3,-223.128 1791.3,-223.128 1791.3,-205.128 1867.3,-205.128 1867.3,-223.128"/>
<text text-anchor="middle" x="1829.3" y="-211.928" font-family="Times New Roman,serif" font-size="9.00">direcao sprites 1</text>
</g>
<!-- direcao sprites 1&#45;&gt;esquerda -->
<g id="edge65" class="edge"><title>direcao sprites 1&#45;&gt;esquerda</title>
<path fill="none" stroke="green" stroke-width="0.352345" stroke-dasharray="1,5" d="M1816.22,-205.056C1807.05,-199.771 1794.33,-193.166 1782.3,-189.38 1625.81,-140.145 1429.66,-125.948 1343.42,-121.953"/>
<polygon fill="green" stroke="green" stroke-width="0.352345" points="1343.36,-118.447 1333.22,-121.505 1343.05,-125.44 1343.36,-118.447"/>
</g>
<!-- direcao sprites 1&#45;&gt;direita -->
<g id="edge44" class="edge"><title>direcao sprites 1&#45;&gt;direita</title>
<path fill="none" stroke="red" stroke-width="0.214486" d="M1816.71,-204.971C1807.55,-199.501 1794.66,-192.711 1782.3,-189.38 1519.22,-118.461 1432.88,-226.126 1170.3,-153.38 1159.57,-150.408 1148.59,-145.442 1138.85,-140.256"/>
<polygon fill="red" stroke="red" stroke-width="0.214486" points="1140.39,-137.106 1129.95,-135.274 1136.97,-143.214 1140.39,-137.106"/>
</g>
<!-- direcao sprites 1&#45;&gt;atirar -->
<g id="edge3" class="edge"><title>direcao sprites 1&#45;&gt;atirar</title>
<path fill="none" stroke="green" stroke-width="0.678193" d="M1816.7,-205.007C1807.54,-199.555 1794.64,-192.77 1782.3,-189.38 1556.35,-127.306 1478.98,-226.313 1256.3,-153.38 1247.83,-150.606 1239.36,-146.146 1231.79,-141.39"/>
<polygon fill="green" stroke="green" stroke-width="0.678193" points="1233.63,-138.409 1223.37,-135.757 1229.74,-144.227 1233.63,-138.409"/>
</g>
<!-- direcao sprites 2 -->
<g id="node20" class="node"><title>direcao sprites 2</title>
<polygon fill="lightgray" stroke="black" points="1961.3,-223.128 1885.3,-223.128 1885.3,-205.128 1961.3,-205.128 1961.3,-223.128"/>
<text text-anchor="middle" x="1923.3" y="-211.928" font-family="Times New Roman,serif" font-size="9.00">direcao sprites 2</text>
</g>
<!-- direcao sprites 2&#45;&gt;esquerda -->
<g id="edge49" class="edge"><title>direcao sprites 2&#45;&gt;esquerda</title>
<path fill="none" stroke="green" stroke-width="0.388262" d="M1910.25,-204.968C1901.09,-199.644 1888.38,-193.028 1876.3,-189.38 1683.88,-131.248 1441.47,-121.843 1343.44,-120.53"/>
<polygon fill="green" stroke="green" stroke-width="0.388262" points="1343.34,-117.029 1333.31,-120.417 1343.27,-124.028 1343.34,-117.029"/>
</g>
<!-- direcao sprites 2&#45;&gt;direita -->
<g id="edge68" class="edge"><title>direcao sprites 2&#45;&gt;direita</title>
<path fill="none" stroke="green" stroke-width="0.279981" d="M1910.71,-204.941C1901.57,-199.458 1888.67,-192.663 1876.3,-189.38 1572.63,-108.788 1473.4,-236.081 1170.3,-153.38 1159.56,-150.45 1148.57,-145.497 1138.84,-140.309"/>
<polygon fill="green" stroke="green" stroke-width="0.279981" points="1140.38,-137.159 1129.94,-135.322 1136.95,-143.265 1140.38,-137.159"/>
</g>
<!-- direcao sprites 2&#45;&gt;atirar -->
<g id="edge17" class="edge"><title>direcao sprites 2&#45;&gt;atirar</title>
<path fill="none" stroke="red" stroke-width="0.242516" d="M1910.71,-204.968C1901.56,-199.497 1888.66,-192.706 1876.3,-189.38 1609.77,-117.638 1519.05,-237.934 1256.3,-153.38 1247.82,-150.65 1239.34,-146.205 1231.77,-141.45"/>
<polygon fill="red" stroke="red" stroke-width="0.242516" points="1233.61,-138.469 1223.36,-135.811 1229.72,-144.285 1233.61,-138.469"/>
</g>
<!-- esquerda&#45;&gt;esquerda -->
<g id="edge45" class="edge"><title>esquerda&#45;&gt;esquerda</title>
<path fill="none" stroke="green" stroke-width="0.273228" d="M1328.67,-136.909C1340.88,-138.114 1351.24,-132.29 1351.24,-119.439 1351.24,-110.402 1346.12,-104.841 1338.83,-102.754"/>
<polygon fill="green" stroke="green" stroke-width="0.273228" points="1338.91,-99.2491 1328.67,-101.969 1338.37,-106.228 1338.91,-99.2491"/>
</g>
<!-- 1863 -->
<g id="node26" class="node"><title>1863</title>
<ellipse fill="white" stroke="black" cx="1299.3" cy="-24.7487" rx="25" ry="25"/>
<text text-anchor="middle" x="1299.3" y="-22.5487" font-family="Times New Roman,serif" font-size="9.00">1863</text>
</g>
<!-- esquerda&#45;&gt;1863 -->
<g id="edge54" class="edge"><title>esquerda&#45;&gt;1863</title>
<path fill="none" stroke="red" stroke-width="0.19159" d="M1292.83,-86.0202C1292.47,-77.3354 1292.46,-67.9312 1292.79,-59.1921"/>
<polygon fill="red" stroke="red" stroke-width="0.19159" points="1296.3,-59.1353 1293.36,-48.9552 1289.31,-58.7437 1296.3,-59.1353"/>
</g>
<!-- direita&#45;&gt;direita -->
<g id="edge40" class="edge"><title>direita&#45;&gt;direita</title>
<path fill="none" stroke="red" stroke-width="0.326231" d="M1129.34,-136.22C1141.59,-139.353 1152.88,-133.759 1152.88,-119.439 1152.88,-109.258 1147.17,-103.488 1139.47,-102.128"/>
<polygon fill="red" stroke="red" stroke-width="0.326231" points="1139.14,-98.6403 1129.34,-102.657 1139.51,-105.631 1139.14,-98.6403"/>
</g>
<!-- pular&#45;&gt;pular -->
<g id="edge74" class="edge"><title>pular&#45;&gt;pular</title>
<path fill="none" stroke="green" stroke-width="0.104586" d="M865.199,-135.669C877.352,-139.904 889.048,-134.493 889.048,-119.439 889.048,-108.736 883.136,-102.907 875.352,-101.954"/>
<polygon fill="green" stroke="green" stroke-width="0.104586" points="874.694,-98.5081 865.199,-103.208 875.553,-105.455 874.694,-98.5081"/>
</g>
<!-- 1863&#45;&gt;esquerda -->
<g id="edge22" class="edge"><title>1863&#45;&gt;esquerda</title>
<path fill="none" stroke="red" stroke-width="0.415858" d="M1305.24,-48.9552C1305.86,-57.0998 1306.13,-66.5269 1306.03,-75.7588"/>
<polygon fill="red" stroke="red" stroke-width="0.415858" points="1302.52,-75.9348 1305.77,-86.0202 1309.52,-76.112 1302.52,-75.9348"/>
</g>
<!-- 1931&#45;&gt;atirar -->
<g id="edge9" class="edge"><title>1931&#45;&gt;atirar</title>
<path fill="none" stroke="green" stroke-width="0.399344" d="M1729.77,-197.152C1725.29,-194.067 1720.34,-191.224 1715.3,-189.38 1523.15,-119.015 1450.44,-218.035 1256.3,-153.38 1247.85,-150.564 1239.38,-146.089 1231.81,-141.333"/>
<polygon fill="green" stroke="green" stroke-width="0.399344" points="1233.65,-138.351 1223.39,-135.704 1229.76,-144.171 1233.65,-138.351"/>
</g>
</g>
</svg>
