<?xml version="1.0" encoding="UTF-8" standalone="no"?>
<!DOCTYPE svg PUBLIC "-//W3C//DTD SVG 1.1//EN"
 "http://www.w3.org/Graphics/SVG/1.1/DTD/svg11.dtd">
<!-- Generated by graphviz version 2.38.0 (20140413.2041)
 -->
<!-- Title: %3 Pages: 1 -->
<svg width="2040pt" height="208pt"
 viewBox="0.00 0.00 2039.50 208.31" xmlns="http://www.w3.org/2000/svg" xmlns:xlink="http://www.w3.org/1999/xlink">
<g id="graph0" class="graph" transform="scale(1 1) rotate(0) translate(4 204.309)">
<title>%3</title>
<polygon fill="white" stroke="none" points="-4,4 -4,-204.309 2035.5,-204.309 2035.5,4 -4,4"/>
<!-- dintancia projetil 1 -->
<g id="node1" class="node"><title>dintancia projetil 1</title>
<polygon fill="lightgray" stroke="black" points="600.5,-200.309 516.5,-200.309 516.5,-182.309 600.5,-182.309 600.5,-200.309"/>
<text text-anchor="middle" x="558.5" y="-189.109" font-family="Times New Roman,serif" font-size="9.00">dintancia projetil 1</text>
</g>
<!-- esquerda -->
<g id="node21" class="node"><title>esquerda</title>
<ellipse fill="lightblue" stroke="black" cx="558.5" cy="-112.368" rx="33.8824" ry="33.8824"/>
<text text-anchor="middle" x="558.5" y="-110.168" font-family="Times New Roman,serif" font-size="9.00">esquerda</text>
</g>
<!-- dintancia projetil 1&#45;&gt;esquerda -->
<g id="edge3" class="edge"><title>dintancia projetil 1&#45;&gt;esquerda</title>
<path fill="none" stroke="green" stroke-width="0.590673" d="M558.5,-182.075C558.5,-175.745 558.5,-166.464 558.5,-156.759"/>
<polygon fill="green" stroke="green" stroke-width="0.590673" points="562,-156.598 558.5,-146.598 555,-156.598 562,-156.598"/>
</g>
<!-- pular -->
<g id="node23" class="node"><title>pular</title>
<ellipse fill="lightblue" stroke="black" cx="1219.5" cy="-112.368" rx="25" ry="25"/>
<text text-anchor="middle" x="1219.5" y="-110.168" font-family="Times New Roman,serif" font-size="9.00">pular</text>
</g>
<!-- dintancia projetil 1&#45;&gt;pular -->
<g id="edge34" class="edge"><title>dintancia projetil 1&#45;&gt;pular</title>
<path fill="none" stroke="red" stroke-width="0.388112" d="M600.763,-183.395C603.716,-182.999 606.65,-182.632 609.5,-182.309 836.165,-156.61 897.805,-191.01 1121.5,-146.309 1144.03,-141.807 1168.53,-133.572 1187.4,-126.462"/>
<polygon fill="red" stroke="red" stroke-width="0.388112" points="1188.91,-129.63 1196.98,-122.766 1186.39,-123.099 1188.91,-129.63"/>
</g>
<!-- atirar -->
<g id="node24" class="node"><title>atirar</title>
<ellipse fill="lightblue" stroke="black" cx="660.5" cy="-112.368" rx="25" ry="25"/>
<text text-anchor="middle" x="660.5" y="-110.168" font-family="Times New Roman,serif" font-size="9.00">atirar</text>
</g>
<!-- dintancia projetil 1&#45;&gt;atirar -->
<g id="edge52" class="edge"><title>dintancia projetil 1&#45;&gt;atirar</title>
<path fill="none" stroke="red" stroke-width="0.445261" d="M569.416,-182.075C584.412,-170.763 611.9,-150.028 632.77,-134.285"/>
<polygon fill="red" stroke="red" stroke-width="0.445261" points="635.093,-136.916 640.969,-128.1 630.878,-131.328 635.093,-136.916"/>
</g>
<!-- release -->
<g id="node25" class="node"><title>release</title>
<ellipse fill="lightblue" stroke="black" cx="871.5" cy="-112.368" rx="28.9828" ry="28.9828"/>
<text text-anchor="middle" x="871.5" y="-110.168" font-family="Times New Roman,serif" font-size="9.00">release</text>
</g>
<!-- dintancia projetil 1&#45;&gt;release -->
<g id="edge62" class="edge"><title>dintancia projetil 1&#45;&gt;release</title>
<path fill="none" stroke="green" stroke-width="0.331504" d="M591.111,-182.292C649.549,-167.927 771.78,-137.881 833.748,-122.648"/>
<polygon fill="green" stroke="green" stroke-width="0.331504" points="834.64,-126.033 843.516,-120.247 832.969,-119.235 834.64,-126.033"/>
</g>
<!-- distancia projetil 2 -->
<g id="node2" class="node"><title>distancia projetil 2</title>
<polygon fill="lightgray" stroke="black" points="898,-200.309 815,-200.309 815,-182.309 898,-182.309 898,-200.309"/>
<text text-anchor="middle" x="856.5" y="-189.109" font-family="Times New Roman,serif" font-size="9.00">distancia projetil 2</text>
</g>
<!-- direita -->
<g id="node22" class="node"><title>direita</title>
<ellipse fill="lightblue" stroke="black" cx="1066.5" cy="-112.368" rx="27.6545" ry="27.6545"/>
<text text-anchor="middle" x="1066.5" y="-110.168" font-family="Times New Roman,serif" font-size="9.00">direita</text>
</g>
<!-- distancia projetil 2&#45;&gt;direita -->
<g id="edge17" class="edge"><title>distancia projetil 2&#45;&gt;direita</title>
<path fill="none" stroke="green" stroke-width="0.109198" stroke-dasharray="1,5" d="M878.577,-182.22C914.92,-168.904 987.652,-142.256 1031.2,-126.3"/>
<polygon fill="green" stroke="green" stroke-width="0.109198" points="1032.63,-129.503 1040.82,-122.777 1030.23,-122.931 1032.63,-129.503"/>
</g>
<!-- distancia projetil 2&#45;&gt;atirar -->
<g id="edge56" class="edge"><title>distancia projetil 2&#45;&gt;atirar</title>
<path fill="none" stroke="red" stroke-width="0.531562" stroke-dasharray="1,5" d="M835.895,-182.22C801.755,-168.818 733.208,-141.91 692.655,-125.99"/>
<polygon fill="red" stroke="red" stroke-width="0.531562" points="693.817,-122.686 683.229,-122.29 691.259,-129.202 693.817,-122.686"/>
</g>
<!-- distancia projetil 3 -->
<g id="node3" class="node"><title>distancia projetil 3</title>
<polygon fill="lightgray" stroke="black" points="1824,-200.309 1741,-200.309 1741,-182.309 1824,-182.309 1824,-200.309"/>
<text text-anchor="middle" x="1782.5" y="-189.109" font-family="Times New Roman,serif" font-size="9.00">distancia projetil 3</text>
</g>
<!-- distancia projetil 3&#45;&gt;direita -->
<g id="edge38" class="edge"><title>distancia projetil 3&#45;&gt;direita</title>
<path fill="none" stroke="red" stroke-width="0.552359" d="M1740.79,-183.454C1737.65,-183.034 1734.53,-182.645 1731.5,-182.309 1489.8,-155.438 1425.27,-186.96 1185.5,-146.309 1157.15,-141.502 1125.83,-132.687 1102.45,-125.385"/>
<polygon fill="red" stroke="red" stroke-width="0.552359" points="1103.21,-121.955 1092.62,-122.261 1101.09,-128.626 1103.21,-121.955"/>
</g>
<!-- distancia projetil 3&#45;&gt;pular -->
<g id="edge24" class="edge"><title>distancia projetil 3&#45;&gt;pular</title>
<path fill="none" stroke="green" stroke-width="0.457932" stroke-dasharray="1,5" d="M1740.76,-183.686C1737.63,-183.212 1734.52,-182.748 1731.5,-182.309 1552.09,-156.162 1336.79,-128.323 1254.13,-117.766"/>
<polygon fill="green" stroke="green" stroke-width="0.457932" points="1254.4,-114.273 1244.04,-116.479 1253.52,-121.217 1254.4,-114.273"/>
</g>
<!-- distancia projetil 4 -->
<g id="node4" class="node"><title>distancia projetil 4</title>
<polygon fill="lightgray" stroke="black" points="1925,-200.309 1842,-200.309 1842,-182.309 1925,-182.309 1925,-200.309"/>
<text text-anchor="middle" x="1883.5" y="-189.109" font-family="Times New Roman,serif" font-size="9.00">distancia projetil 4</text>
</g>
<!-- distancia projetil 4&#45;&gt;pular -->
<g id="edge9" class="edge"><title>distancia projetil 4&#45;&gt;pular</title>
<path fill="none" stroke="red" stroke-width="0.581815" d="M1841.78,-183.484C1838.98,-183.072 1836.2,-182.676 1833.5,-182.309 1613.46,-152.369 1347.77,-125.768 1254.16,-116.685"/>
<polygon fill="red" stroke="red" stroke-width="0.581815" points="1254.41,-113.192 1244.12,-115.713 1253.73,-120.16 1254.41,-113.192"/>
</g>
<!-- distancia projetil 5 -->
<g id="node5" class="node"><title>distancia projetil 5</title>
<polygon fill="lightgray" stroke="black" points="83,-200.309 0,-200.309 0,-182.309 83,-182.309 83,-200.309"/>
<text text-anchor="middle" x="41.5" y="-189.109" font-family="Times New Roman,serif" font-size="9.00">distancia projetil 5</text>
</g>
<!-- distancia projetil 5&#45;&gt;esquerda -->
<g id="edge29" class="edge"><title>distancia projetil 5&#45;&gt;esquerda</title>
<path fill="none" stroke="green" stroke-width="0.189986" d="M83.236,-183.592C86.0321,-183.154 88.8065,-182.723 91.5,-182.309 247.055,-158.383 432.021,-131.559 514.74,-119.648"/>
<polygon fill="green" stroke="green" stroke-width="0.189986" points="515.382,-123.091 524.782,-118.203 514.385,-116.163 515.382,-123.091"/>
</g>
<!-- distancia projetil 5&#45;&gt;atirar -->
<g id="edge45" class="edge"><title>distancia projetil 5&#45;&gt;atirar</title>
<path fill="none" stroke="green" stroke-width="1.31082" stroke-dasharray="1,5" d="M83.204,-183.354C86.0078,-182.974 88.7927,-182.62 91.5,-182.309 317.241,-156.333 383.747,-211.251 601.5,-146.309 611.955,-143.191 622.6,-137.991 631.918,-132.633"/>
<polygon fill="green" stroke="green" stroke-width="1.31082" points="633.995,-135.467 640.736,-127.294 630.369,-129.479 633.995,-135.467"/>
</g>
<!-- distancia projetil 6 -->
<g id="node6" class="node"><title>distancia projetil 6</title>
<polygon fill="lightgray" stroke="black" points="1616,-200.309 1533,-200.309 1533,-182.309 1616,-182.309 1616,-200.309"/>
<text text-anchor="middle" x="1574.5" y="-189.109" font-family="Times New Roman,serif" font-size="9.00">distancia projetil 6</text>
</g>
<!-- distancia projetil 6&#45;&gt;direita -->
<g id="edge31" class="edge"><title>distancia projetil 6&#45;&gt;direita</title>
<path fill="none" stroke="green" stroke-width="0.237749" stroke-dasharray="1,5" d="M1532.78,-183.592C1529.64,-183.139 1526.52,-182.706 1523.5,-182.309 1373.72,-162.597 1333.91,-174.555 1185.5,-146.309 1157.25,-140.932 1125.93,-132.145 1102.52,-124.998"/>
<polygon fill="green" stroke="green" stroke-width="0.237749" points="1103.26,-121.565 1092.68,-121.949 1101.19,-128.252 1103.26,-121.565"/>
</g>
<!-- distancia projetil 6&#45;&gt;pular -->
<g id="edge14" class="edge"><title>distancia projetil 6&#45;&gt;pular</title>
<path fill="none" stroke="green" stroke-width="0.684144" stroke-dasharray="1,5" d="M1537.51,-182.292C1468.4,-167.313 1320.61,-135.283 1253.69,-120.777"/>
<polygon fill="green" stroke="green" stroke-width="0.684144" points="1254.18,-117.303 1243.67,-118.605 1252.7,-124.144 1254.18,-117.303"/>
</g>
<!-- distancia projetil 6&#45;&gt;release -->
<g id="edge25" class="edge"><title>distancia projetil 6&#45;&gt;release</title>
<path fill="none" stroke="red" stroke-width="0.298375" d="M1532.79,-183.478C1529.65,-183.052 1526.53,-182.656 1523.5,-182.309 1304.8,-157.23 1247.51,-176.841 1029.5,-146.309 988.059,-140.505 941.2,-130.263 909.347,-122.735"/>
<polygon fill="red" stroke="red" stroke-width="0.298375" points="910.098,-119.316 899.558,-120.396 908.471,-126.124 910.098,-119.316"/>
</g>
<!-- distancia projetil 7 -->
<g id="node7" class="node"><title>distancia projetil 7</title>
<polygon fill="lightgray" stroke="black" points="184,-200.309 101,-200.309 101,-182.309 184,-182.309 184,-200.309"/>
<text text-anchor="middle" x="142.5" y="-189.109" font-family="Times New Roman,serif" font-size="9.00">distancia projetil 7</text>
</g>
<!-- distancia projetil 7&#45;&gt;esquerda -->
<g id="edge40" class="edge"><title>distancia projetil 7&#45;&gt;esquerda</title>
<path fill="none" stroke="red" stroke-width="0.327882" stroke-dasharray="1,5" d="M184.292,-182.579C263.462,-167.936 434.564,-136.29 515.021,-121.409"/>
<polygon fill="red" stroke="red" stroke-width="0.327882" points="516.096,-124.77 525.293,-119.509 514.823,-117.886 516.096,-124.77"/>
</g>
<!-- distancia projetil 7&#45;&gt;atirar -->
<g id="edge49" class="edge"><title>distancia projetil 7&#45;&gt;atirar</title>
<path fill="none" stroke="red" stroke-width="0.295021" d="M184.216,-183.53C187.355,-183.092 190.475,-182.679 193.5,-182.309 374.189,-160.191 427.518,-199.863 601.5,-146.309 611.843,-143.125 622.394,-137.958 631.658,-132.651"/>
<polygon fill="red" stroke="red" stroke-width="0.295021" points="633.677,-135.521 640.44,-127.365 630.067,-129.524 633.677,-135.521"/>
</g>
<!-- distancia projetil 7&#45;&gt;release -->
<g id="edge4" class="edge"><title>distancia projetil 7&#45;&gt;release</title>
<path fill="none" stroke="red" stroke-width="0.180005" stroke-dasharray="1,5" d="M184.209,-183.466C187.349,-183.043 190.472,-182.651 193.5,-182.309 423.261,-156.369 483.438,-177.834 712.5,-146.309 754.332,-140.551 801.646,-130.254 833.705,-122.7"/>
<polygon fill="red" stroke="red" stroke-width="0.180005" points="834.636,-126.076 843.552,-120.353 833.013,-119.267 834.636,-126.076"/>
</g>
<!-- distancia projetil 8 -->
<g id="node8" class="node"><title>distancia projetil 8</title>
<polygon fill="lightgray" stroke="black" points="392,-200.309 309,-200.309 309,-182.309 392,-182.309 392,-200.309"/>
<text text-anchor="middle" x="350.5" y="-189.109" font-family="Times New Roman,serif" font-size="9.00">distancia projetil 8</text>
</g>
<!-- distancia projetil 8&#45;&gt;esquerda -->
<g id="edge63" class="edge"><title>distancia projetil 8&#45;&gt;esquerda</title>
<path fill="none" stroke="red" stroke-width="0.117478" stroke-dasharray="1,5" d="M372.367,-182.22C406.694,-169.522 473.797,-144.7 517.357,-128.587"/>
<polygon fill="red" stroke="red" stroke-width="0.117478" points="518.647,-131.841 526.812,-125.089 516.219,-125.276 518.647,-131.841"/>
</g>
<!-- distancia projetil 8&#45;&gt;direita -->
<g id="edge13" class="edge"><title>distancia projetil 8&#45;&gt;direita</title>
<path fill="none" stroke="red" stroke-width="0.114838" stroke-dasharray="1,5" d="M392.209,-183.471C395.349,-183.047 398.472,-182.653 401.5,-182.309 626.396,-156.748 685.332,-177.62 909.5,-146.309 951.009,-140.511 997.969,-130.146 1029.63,-122.587"/>
<polygon fill="red" stroke="red" stroke-width="0.114838" points="1030.85,-125.893 1039.75,-120.142 1029.21,-119.089 1030.85,-125.893"/>
</g>
<!-- distancia projetil 8&#45;&gt;atirar -->
<g id="edge39" class="edge"><title>distancia projetil 8&#45;&gt;atirar</title>
<path fill="none" stroke="red" stroke-width="0.422253" d="M392.189,-183.783C458.398,-173.302 582.115,-153.196 601.5,-146.309 611.698,-142.686 622.207,-137.396 631.48,-132.112"/>
<polygon fill="red" stroke="red" stroke-width="0.422253" points="633.467,-135.003 640.282,-126.891 629.896,-128.982 633.467,-135.003"/>
</g>
<!-- distancia projetil 8&#45;&gt;release -->
<g id="edge55" class="edge"><title>distancia projetil 8&#45;&gt;release</title>
<path fill="none" stroke="red" stroke-width="0.16136" d="M392.228,-183.623C395.364,-183.163 398.481,-182.72 401.5,-182.309 539.371,-163.523 575.127,-168.445 712.5,-146.309 754.188,-139.591 801.527,-129.457 833.631,-122.204"/>
<polygon fill="red" stroke="red" stroke-width="0.16136" points="834.519,-125.592 843.493,-119.959 832.965,-118.766 834.519,-125.592"/>
</g>
<!-- distancia projetil 9 -->
<g id="node9" class="node"><title>distancia projetil 9</title>
<polygon fill="lightgray" stroke="black" points="1212,-200.309 1129,-200.309 1129,-182.309 1212,-182.309 1212,-200.309"/>
<text text-anchor="middle" x="1170.5" y="-189.109" font-family="Times New Roman,serif" font-size="9.00">distancia projetil 9</text>
</g>
<!-- distancia projetil 9&#45;&gt;pular -->
<g id="edge7" class="edge"><title>distancia projetil 9&#45;&gt;pular</title>
<path fill="none" stroke="green" stroke-width="0.215176" d="M1175.74,-182.075C1181.8,-172.572 1192.08,-156.42 1201.16,-142.163"/>
<polygon fill="green" stroke="green" stroke-width="0.215176" points="1204.19,-143.923 1206.61,-133.608 1198.29,-140.163 1204.19,-143.923"/>
</g>
<!-- distancia projetil 9&#45;&gt;atirar -->
<g id="edge57" class="edge"><title>distancia projetil 9&#45;&gt;atirar</title>
<path fill="none" stroke="red" stroke-width="0.209513" d="M1128.77,-183.657C1125.63,-183.189 1122.52,-182.735 1119.5,-182.309 992.647,-164.38 960.045,-166.3 833.5,-146.309 785.194,-138.677 729.715,-127.722 694.884,-120.576"/>
<polygon fill="red" stroke="red" stroke-width="0.209513" points="695.269,-117.082 684.768,-118.489 693.854,-123.938 695.269,-117.082"/>
</g>
<!-- distancia projetil 9&#45;&gt;release -->
<g id="edge47" class="edge"><title>distancia projetil 9&#45;&gt;release</title>
<path fill="none" stroke="red" stroke-width="0.25855" stroke-dasharray="1,5" d="M1139.35,-182.292C1084.06,-168.066 969.01,-138.46 909.295,-123.093"/>
<polygon fill="red" stroke="red" stroke-width="0.25855" points="910.066,-119.678 899.509,-120.575 908.321,-126.457 910.066,-119.678"/>
</g>
<!-- distancia projetil 10 -->
<g id="node10" class="node"><title>distancia projetil 10</title>
<polygon fill="lightgray" stroke="black" points="1004.5,-200.309 916.5,-200.309 916.5,-182.309 1004.5,-182.309 1004.5,-200.309"/>
<text text-anchor="middle" x="960.5" y="-189.109" font-family="Times New Roman,serif" font-size="9.00">distancia projetil 10</text>
</g>
<!-- distancia projetil 10&#45;&gt;esquerda -->
<g id="edge28" class="edge"><title>distancia projetil 10&#45;&gt;esquerda</title>
<path fill="none" stroke="red" stroke-width="0.377794" stroke-dasharray="1,5" d="M916.306,-183.691C912.988,-183.216 909.692,-182.75 906.5,-182.309 782.215,-165.114 746.748,-182.126 626.5,-146.309 616.6,-143.36 606.355,-139.108 596.916,-134.634"/>
<polygon fill="red" stroke="red" stroke-width="0.377794" points="598.303,-131.415 587.787,-130.126 595.204,-137.692 598.303,-131.415"/>
</g>
<!-- distancia projetil 10&#45;&gt;direita -->
<g id="edge43" class="edge"><title>distancia projetil 10&#45;&gt;direita</title>
<path fill="none" stroke="green" stroke-width="0.183286" stroke-dasharray="1,5" d="M971.844,-182.075C987.12,-170.986 1014.87,-150.844 1036.39,-135.224"/>
<polygon fill="green" stroke="green" stroke-width="0.183286" points="1038.55,-137.982 1044.58,-129.275 1034.44,-132.317 1038.55,-137.982"/>
</g>
<!-- distancia projetil 10&#45;&gt;pular -->
<g id="edge2" class="edge"><title>distancia projetil 10&#45;&gt;pular</title>
<path fill="none" stroke="red" stroke-width="0.603561" d="M992.121,-182.241C1024.7,-173.796 1076.87,-159.896 1121.5,-146.309 1143.33,-139.662 1167.65,-131.492 1186.6,-124.951"/>
<polygon fill="red" stroke="red" stroke-width="0.603561" points="1187.96,-128.186 1196.26,-121.6 1185.66,-121.573 1187.96,-128.186"/>
</g>
<!-- distancia projetil 10&#45;&gt;atirar -->
<g id="edge16" class="edge"><title>distancia projetil 10&#45;&gt;atirar</title>
<path fill="none" stroke="green" stroke-width="0.134792" d="M929.244,-182.292C872.473,-167.732 752.888,-137.062 694.298,-122.036"/>
<polygon fill="green" stroke="green" stroke-width="0.134792" points="694.987,-118.599 684.431,-119.505 693.248,-125.38 694.987,-118.599"/>
</g>
<!-- distancia projetil 11 -->
<g id="node11" class="node"><title>distancia projetil 11</title>
<polygon fill="lightgray" stroke="black" points="1722.5,-200.309 1634.5,-200.309 1634.5,-182.309 1722.5,-182.309 1722.5,-200.309"/>
<text text-anchor="middle" x="1678.5" y="-189.109" font-family="Times New Roman,serif" font-size="9.00">distancia projetil 11</text>
</g>
<!-- distancia projetil 11&#45;&gt;direita -->
<g id="edge5" class="edge"><title>distancia projetil 11&#45;&gt;direita</title>
<path fill="none" stroke="red" stroke-width="0.481713" stroke-dasharray="1,5" d="M1634.28,-183.404C1631.31,-183.011 1628.37,-182.642 1625.5,-182.309 1430.6,-159.653 1378.68,-180.634 1185.5,-146.309 1157.19,-141.278 1125.87,-132.474 1102.47,-125.233"/>
<polygon fill="red" stroke="red" stroke-width="0.481713" points="1103.23,-121.802 1092.64,-122.138 1101.13,-128.479 1103.23,-121.802"/>
</g>
<!-- distancia projetil 11&#45;&gt;pular -->
<g id="edge53" class="edge"><title>distancia projetil 11&#45;&gt;pular</title>
<path fill="none" stroke="red" stroke-width="0.495054" d="M1634.49,-182.931C1543.45,-167.671 1336.11,-132.915 1253.95,-119.143"/>
<polygon fill="red" stroke="red" stroke-width="0.495054" points="1254.33,-115.658 1243.89,-117.456 1253.18,-122.562 1254.33,-115.658"/>
</g>
<!-- distancia projetil 11&#45;&gt;release -->
<g id="edge22" class="edge"><title>distancia projetil 11&#45;&gt;release</title>
<path fill="none" stroke="green" stroke-width="0.636143" d="M1634.29,-183.333C1631.32,-182.958 1628.37,-182.611 1625.5,-182.309 1361.59,-154.477 1292.53,-181.482 1029.5,-146.309 988.024,-140.762 941.171,-130.477 909.329,-122.869"/>
<polygon fill="green" stroke="green" stroke-width="0.636143" points="910.086,-119.452 899.543,-120.503 908.44,-126.255 910.086,-119.452"/>
</g>
<!-- distancia projetil 12 -->
<g id="node12" class="node"><title>distancia projetil 12</title>
<polygon fill="lightgray" stroke="black" points="498.5,-200.309 410.5,-200.309 410.5,-182.309 498.5,-182.309 498.5,-200.309"/>
<text text-anchor="middle" x="454.5" y="-189.109" font-family="Times New Roman,serif" font-size="9.00">distancia projetil 12</text>
</g>
<!-- distancia projetil 12&#45;&gt;esquerda -->
<g id="edge8" class="edge"><title>distancia projetil 12&#45;&gt;esquerda</title>
<path fill="none" stroke="green" stroke-width="0.190869" stroke-dasharray="1,5" d="M465.63,-182.075C479.354,-171.921 503.34,-154.176 523.497,-139.263"/>
<polygon fill="green" stroke="green" stroke-width="0.190869" points="525.616,-142.049 531.574,-133.288 521.453,-136.422 525.616,-142.049"/>
</g>
<!-- distancia projetil 12&#45;&gt;pular -->
<g id="edge33" class="edge"><title>distancia projetil 12&#45;&gt;pular</title>
<path fill="none" stroke="red" stroke-width="0.206937" d="M498.708,-183.327C501.679,-182.953 504.631,-182.609 507.5,-182.309 779.375,-153.879 853.135,-198.315 1121.5,-146.309 1144.05,-141.938 1168.55,-133.703 1187.41,-126.56"/>
<polygon fill="red" stroke="red" stroke-width="0.206937" points="1188.94,-129.724 1196.99,-122.844 1186.4,-123.198 1188.94,-129.724"/>
</g>
<!-- distancia projetil 12&#45;&gt;atirar -->
<g id="edge51" class="edge"><title>distancia projetil 12&#45;&gt;atirar</title>
<path fill="none" stroke="green" stroke-width="0.465438" d="M488.807,-182.306C519.079,-174.715 564.082,-162.13 601.5,-146.309 611.387,-142.128 621.743,-136.728 630.971,-131.514"/>
<polygon fill="green" stroke="green" stroke-width="0.465438" points="632.869,-134.459 639.763,-126.414 629.356,-128.404 632.869,-134.459"/>
</g>
<!-- distancia projetil 13 -->
<g id="node13" class="node"><title>distancia projetil 13</title>
<polygon fill="lightgray" stroke="black" points="290.5,-200.309 202.5,-200.309 202.5,-182.309 290.5,-182.309 290.5,-200.309"/>
<text text-anchor="middle" x="246.5" y="-189.109" font-family="Times New Roman,serif" font-size="9.00">distancia projetil 13</text>
</g>
<!-- distancia projetil 13&#45;&gt;esquerda -->
<g id="edge61" class="edge"><title>distancia projetil 13&#45;&gt;esquerda</title>
<path fill="none" stroke="green" stroke-width="0.184154" d="M279.007,-182.292C335.631,-168.328 452.345,-139.546 515.557,-123.957"/>
<polygon fill="green" stroke="green" stroke-width="0.184154" points="516.726,-127.274 525.597,-121.482 515.05,-120.478 516.726,-127.274"/>
</g>
<!-- distancia projetil 13&#45;&gt;direita -->
<g id="edge44" class="edge"><title>distancia projetil 13&#45;&gt;direita</title>
<path fill="none" stroke="red" stroke-width="0.112544" d="M290.708,-183.329C293.68,-182.954 296.631,-182.609 299.5,-182.309 569.605,-154.012 640.311,-182.291 909.5,-146.309 951.166,-140.739 998.277,-130.286 1029.93,-122.644"/>
<polygon fill="red" stroke="red" stroke-width="0.112544" points="1031.16,-125.947 1040.04,-120.171 1029.49,-119.147 1031.16,-125.947"/>
</g>
<!-- distancia projetil 13&#45;&gt;atirar -->
<g id="edge11" class="edge"><title>distancia projetil 13&#45;&gt;atirar</title>
<path fill="none" stroke="red" stroke-width="0.15441" d="M290.732,-183.527C293.698,-183.105 296.641,-182.695 299.5,-182.309 433.457,-164.219 472.934,-188.05 601.5,-146.309 611.793,-142.967 622.33,-137.756 631.597,-132.457"/>
<polygon fill="red" stroke="red" stroke-width="0.15441" points="633.604,-135.335 640.386,-127.195 630.008,-129.329 633.604,-135.335"/>
</g>
<!-- distancia projetil 13&#45;&gt;release -->
<g id="edge36" class="edge"><title>distancia projetil 13&#45;&gt;release</title>
<path fill="none" stroke="red" stroke-width="0.101717" d="M290.718,-183.422C293.687,-183.025 296.635,-182.649 299.5,-182.309 482.462,-160.548 530.198,-173.044 712.5,-146.309 754.279,-140.182 801.602,-129.947 833.678,-122.509"/>
<polygon fill="red" stroke="red" stroke-width="0.101717" points="834.592,-125.89 843.53,-120.201 832.995,-119.074 834.592,-125.89"/>
</g>
<!-- distancia projetil 14 -->
<g id="node14" class="node"><title>distancia projetil 14</title>
<polygon fill="lightgray" stroke="black" points="1110.5,-200.309 1022.5,-200.309 1022.5,-182.309 1110.5,-182.309 1110.5,-200.309"/>
<text text-anchor="middle" x="1066.5" y="-189.109" font-family="Times New Roman,serif" font-size="9.00">distancia projetil 14</text>
</g>
<!-- distancia projetil 14&#45;&gt;esquerda -->
<g id="edge48" class="edge"><title>distancia projetil 14&#45;&gt;esquerda</title>
<path fill="none" stroke="red" stroke-width="0.336117" d="M1022.28,-183.441C1019.31,-183.039 1016.36,-182.658 1013.5,-182.309 842.026,-161.409 792.895,-192.707 626.5,-146.309 616.455,-143.508 606.09,-139.269 596.574,-134.757"/>
<polygon fill="red" stroke="red" stroke-width="0.336117" points="597.897,-131.506 587.384,-130.196 594.786,-137.777 597.897,-131.506"/>
</g>
<!-- distancia projetil 14&#45;&gt;direita -->
<g id="edge64" class="edge"><title>distancia projetil 14&#45;&gt;direita</title>
<path fill="none" stroke="red" stroke-width="0.151646" d="M1066.5,-182.075C1066.5,-174.399 1066.5,-162.384 1066.5,-150.535"/>
<polygon fill="red" stroke="red" stroke-width="0.151646" points="1070,-150.278 1066.5,-140.278 1063,-150.278 1070,-150.278"/>
</g>
<!-- distancia projetil 14&#45;&gt;pular -->
<g id="edge20" class="edge"><title>distancia projetil 14&#45;&gt;pular</title>
<path fill="none" stroke="green" stroke-width="0.28477" stroke-dasharray="1,5" d="M1082.58,-182.22C1107.72,-169.578 1156.76,-144.919 1188.81,-128.801"/>
<polygon fill="green" stroke="green" stroke-width="0.28477" points="1190.41,-131.917 1197.77,-124.297 1187.26,-125.663 1190.41,-131.917"/>
</g>
<!-- distancia projetil 14&#45;&gt;release -->
<g id="edge54" class="edge"><title>distancia projetil 14&#45;&gt;release</title>
<path fill="none" stroke="red" stroke-width="0.592101" d="M1046,-182.22C1013.21,-169.281 948.512,-143.754 907.773,-127.68"/>
<polygon fill="red" stroke="red" stroke-width="0.592101" points="908.802,-124.323 898.215,-123.909 906.233,-130.835 908.802,-124.323"/>
</g>
<!-- distancia projetil 15 -->
<g id="node15" class="node"><title>distancia projetil 15</title>
<polygon fill="lightgray" stroke="black" points="2031.5,-200.309 1943.5,-200.309 1943.5,-182.309 2031.5,-182.309 2031.5,-200.309"/>
<text text-anchor="middle" x="1987.5" y="-189.109" font-family="Times New Roman,serif" font-size="9.00">distancia projetil 15</text>
</g>
<!-- distancia projetil 16 -->
<g id="node16" class="node"><title>distancia projetil 16</title>
<polygon fill="lightgray" stroke="black" points="1514.5,-200.309 1426.5,-200.309 1426.5,-182.309 1514.5,-182.309 1514.5,-200.309"/>
<text text-anchor="middle" x="1470.5" y="-189.109" font-family="Times New Roman,serif" font-size="9.00">distancia projetil 16</text>
</g>
<!-- distancia projetil 16&#45;&gt;direita -->
<g id="edge37" class="edge"><title>distancia projetil 16&#45;&gt;direita</title>
<path fill="none" stroke="green" stroke-width="0.473957" d="M1426.36,-183.633C1349.28,-171.955 1197.16,-148.813 1185.5,-146.309 1157.38,-140.269 1126.06,-131.513 1102.61,-124.547"/>
<polygon fill="green" stroke="green" stroke-width="0.473957" points="1103.33,-121.111 1092.75,-121.586 1101.32,-127.815 1103.33,-121.111"/>
</g>
<!-- distancia projetil 16&#45;&gt;pular -->
<g id="edge12" class="edge"><title>distancia projetil 16&#45;&gt;pular</title>
<path fill="none" stroke="red" stroke-width="0.25985" d="M1444.11,-182.22C1398.07,-168.107 1303.17,-139.015 1252.72,-123.551"/>
<polygon fill="red" stroke="red" stroke-width="0.25985" points="1253.55,-120.143 1242.96,-120.559 1251.49,-126.836 1253.55,-120.143"/>
</g>
<!-- distancia projetil 16&#45;&gt;atirar -->
<g id="edge6" class="edge"><title>distancia projetil 16&#45;&gt;atirar</title>
<path fill="none" stroke="green" stroke-width="0.188575" stroke-dasharray="1,5" d="M1426.29,-183.337C1423.32,-182.961 1420.37,-182.613 1417.5,-182.309 1158.9,-154.876 1091.52,-178.695 833.5,-146.309 784.839,-140.201 729.237,-128.814 694.497,-121.162"/>
<polygon fill="green" stroke="green" stroke-width="0.188575" points="694.938,-117.674 684.416,-118.917 693.416,-124.507 694.938,-117.674"/>
</g>
<!-- distancia inimigo 1 -->
<g id="node17" class="node"><title>distancia inimigo 1</title>
<polygon fill="lightgray" stroke="black" points="1408,-200.309 1325,-200.309 1325,-182.309 1408,-182.309 1408,-200.309"/>
<text text-anchor="middle" x="1366.5" y="-189.109" font-family="Times New Roman,serif" font-size="9.00">distancia inimigo 1</text>
</g>
<!-- distancia inimigo 1&#45;&gt;direita -->
<g id="edge60" class="edge"><title>distancia inimigo 1&#45;&gt;direita</title>
<path fill="none" stroke="red" stroke-width="0.309909" stroke-dasharray="1,5" d="M1332.06,-182.278C1295.58,-173.693 1236.36,-159.527 1185.5,-146.309 1157.67,-139.075 1126.33,-130.377 1102.8,-123.736"/>
<polygon fill="red" stroke="red" stroke-width="0.309909" points="1103.48,-120.291 1092.9,-120.934 1101.57,-127.026 1103.48,-120.291"/>
</g>
<!-- distancia inimigo 1&#45;&gt;pular -->
<g id="edge41" class="edge"><title>distancia inimigo 1&#45;&gt;pular</title>
<path fill="none" stroke="green" stroke-width="0.430239" d="M1351.05,-182.22C1327.2,-169.737 1280.96,-145.538 1250.16,-129.413"/>
<polygon fill="green" stroke="green" stroke-width="0.430239" points="1251.62,-126.227 1241.13,-124.69 1248.37,-132.429 1251.62,-126.227"/>
</g>
<!-- distancia inimigo 1&#45;&gt;atirar -->
<g id="edge21" class="edge"><title>distancia inimigo 1&#45;&gt;atirar</title>
<path fill="none" stroke="red" stroke-width="0.22501" d="M1324.79,-183.484C1321.65,-183.057 1318.53,-182.659 1315.5,-182.309 1102.1,-157.643 1046.47,-174.445 833.5,-146.309 784.879,-139.885 729.267,-128.578 694.514,-121.03"/>
<polygon fill="red" stroke="red" stroke-width="0.22501" points="694.947,-117.542 684.429,-118.817 693.447,-124.379 694.947,-117.542"/>
</g>
<!-- distancia inimigo 2 -->
<g id="node18" class="node"><title>distancia inimigo 2</title>
<polygon fill="lightgray" stroke="black" points="702,-200.309 619,-200.309 619,-182.309 702,-182.309 702,-200.309"/>
<text text-anchor="middle" x="660.5" y="-189.109" font-family="Times New Roman,serif" font-size="9.00">distancia inimigo 2</text>
</g>
<!-- distancia inimigo 2&#45;&gt;esquerda -->
<g id="edge58" class="edge"><title>distancia inimigo 2&#45;&gt;esquerda</title>
<path fill="none" stroke="red" stroke-width="0.126063" d="M649.584,-182.075C636.273,-172.034 613.122,-154.57 593.491,-139.762"/>
<polygon fill="red" stroke="red" stroke-width="0.126063" points="595.424,-136.836 585.333,-133.608 591.208,-142.424 595.424,-136.836"/>
</g>
<!-- distancia inimigo 2&#45;&gt;direita -->
<g id="edge10" class="edge"><title>distancia inimigo 2&#45;&gt;direita</title>
<path fill="none" stroke="green" stroke-width="0.366931" d="M702.429,-183.32C751.978,-174.963 836.874,-160.341 909.5,-146.309 950.651,-138.358 997.674,-128.372 1029.45,-121.49"/>
<polygon fill="green" stroke="green" stroke-width="0.366931" points="1030.58,-124.826 1039.61,-119.283 1029.09,-117.986 1030.58,-124.826"/>
</g>
<!-- distancia inimigo 2&#45;&gt;pular -->
<g id="edge27" class="edge"><title>distancia inimigo 2&#45;&gt;pular</title>
<path fill="none" stroke="green" stroke-width="0.219967" d="M702.216,-183.528C705.354,-183.091 708.475,-182.678 711.5,-182.309 893.073,-160.122 942.441,-183.711 1121.5,-146.309 1143.99,-141.611 1168.49,-133.376 1187.37,-126.315"/>
<polygon fill="green" stroke="green" stroke-width="0.219967" points="1188.86,-129.49 1196.95,-122.65 1186.36,-122.951 1188.86,-129.49"/>
</g>
<!-- distancia inimigo 2&#45;&gt;atirar -->
<g id="edge42" class="edge"><title>distancia inimigo 2&#45;&gt;atirar</title>
<path fill="none" stroke="green" stroke-width="0.880673" d="M660.5,-182.075C660.5,-173.693 660.5,-160.139 660.5,-147.275"/>
<polygon fill="green" stroke="green" stroke-width="0.880673" points="664,-147.218 660.5,-137.218 657,-147.218 664,-147.218"/>
</g>
<!-- direcao sprites 1 -->
<g id="node19" class="node"><title>direcao sprites 1</title>
<polygon fill="lightgray" stroke="black" points="1306.5,-200.309 1230.5,-200.309 1230.5,-182.309 1306.5,-182.309 1306.5,-200.309"/>
<text text-anchor="middle" x="1268.5" y="-189.109" font-family="Times New Roman,serif" font-size="9.00">direcao sprites 1</text>
</g>
<!-- direcao sprites 1&#45;&gt;esquerda -->
<g id="edge46" class="edge"><title>direcao sprites 1&#45;&gt;esquerda</title>
<path fill="none" stroke="red" stroke-width="0.742767" d="M1230.33,-183.456C1227.35,-183.03 1224.38,-182.64 1221.5,-182.309 958.307,-152.037 882.809,-213.333 626.5,-146.309 616.411,-143.67 606.03,-139.494 596.512,-134.989"/>
<polygon fill="red" stroke="red" stroke-width="0.742767" points="597.836,-131.739 587.324,-130.419 594.719,-138.006 597.836,-131.739"/>
</g>
<!-- direcao sprites 1&#45;&gt;direita -->
<g id="edge30" class="edge"><title>direcao sprites 1&#45;&gt;direita</title>
<path fill="none" stroke="green" stroke-width="0.164745" d="M1247.26,-182.22C1212.66,-169.04 1143.76,-142.796 1101.74,-126.789"/>
<polygon fill="green" stroke="green" stroke-width="0.164745" points="1102.77,-123.437 1092.18,-123.148 1100.28,-129.979 1102.77,-123.437"/>
</g>
<!-- direcao sprites 1&#45;&gt;pular -->
<g id="edge18" class="edge"><title>direcao sprites 1&#45;&gt;pular</title>
<path fill="none" stroke="red" stroke-width="0.324071" d="M1263.26,-182.075C1257.2,-172.572 1246.92,-156.42 1237.84,-142.163"/>
<polygon fill="red" stroke="red" stroke-width="0.324071" points="1240.71,-140.163 1232.39,-133.608 1234.81,-143.923 1240.71,-140.163"/>
</g>
<!-- direcao sprites 2 -->
<g id="node20" class="node"><title>direcao sprites 2</title>
<polygon fill="lightgray" stroke="black" points="796.5,-200.309 720.5,-200.309 720.5,-182.309 796.5,-182.309 796.5,-200.309"/>
<text text-anchor="middle" x="758.5" y="-189.109" font-family="Times New Roman,serif" font-size="9.00">direcao sprites 2</text>
</g>
<!-- direcao sprites 2&#45;&gt;esquerda -->
<g id="edge32" class="edge"><title>direcao sprites 2&#45;&gt;esquerda</title>
<path fill="none" stroke="red" stroke-width="0.204022" d="M731.076,-182.303C704.114,-174.167 661.964,-160.739 626.5,-146.309 616.931,-142.415 606.815,-137.8 597.393,-133.276"/>
<polygon fill="red" stroke="red" stroke-width="0.204022" points="598.771,-130.053 588.249,-128.811 595.7,-136.344 598.771,-130.053"/>
</g>
<!-- direcao sprites 2&#45;&gt;direita -->
<g id="edge50" class="edge"><title>direcao sprites 2&#45;&gt;direita</title>
<path fill="none" stroke="red" stroke-width="0.23513" d="M790.59,-182.292C848.267,-167.884 969.096,-137.7 1029.9,-122.511"/>
<polygon fill="red" stroke="red" stroke-width="0.23513" points="1030.97,-125.85 1039.83,-120.031 1029.28,-119.059 1030.97,-125.85"/>
</g>
<!-- direcao sprites 2&#45;&gt;pular -->
<g id="edge1" class="edge"><title>direcao sprites 2&#45;&gt;pular</title>
<path fill="none" stroke="green" stroke-width="0.485443" stroke-dasharray="1,5" d="M796.692,-183.627C799.669,-183.161 802.632,-182.716 805.5,-182.309 945.45,-162.442 983.519,-176.998 1121.5,-146.309 1143.78,-141.354 1168.1,-133.195 1186.94,-126.237"/>
<polygon fill="green" stroke="green" stroke-width="0.485443" points="1188.4,-129.427 1196.53,-122.627 1185.93,-122.876 1188.4,-129.427"/>
</g>
<!-- direcao sprites 2&#45;&gt;atirar -->
<g id="edge15" class="edge"><title>direcao sprites 2&#45;&gt;atirar</title>
<path fill="none" stroke="green" stroke-width="0.423014" d="M748.012,-182.075C733.691,-170.831 707.512,-150.277 687.506,-134.57"/>
<polygon fill="green" stroke="green" stroke-width="0.423014" points="689.662,-131.813 679.635,-128.391 685.339,-137.319 689.662,-131.813"/>
</g>
<!-- direita&#45;&gt;direita -->
<g id="edge35" class="edge"><title>direita&#45;&gt;direita</title>
<path fill="none" stroke="red" stroke-width="0.240936" stroke-dasharray="1,5" d="M1090.42,-126.635C1101.92,-128.397 1112.08,-123.641 1112.08,-112.368 1112.08,-104.617 1107.28,-99.9471 1100.54,-98.3576"/>
<polygon fill="red" stroke="red" stroke-width="0.240936" points="1100.5,-94.8557 1090.42,-98.0996 1100.32,-101.853 1100.5,-94.8557"/>
</g>
<!-- 426 -->
<g id="node26" class="node"><title>426</title>
<ellipse fill="white" stroke="black" cx="1066.5" cy="-21.2132" rx="21.4286" ry="21.4286"/>
<text text-anchor="middle" x="1066.5" y="-19.0132" font-family="Times New Roman,serif" font-size="9.00">426</text>
</g>
<!-- direita&#45;&gt;426 -->
<g id="edge23" class="edge"><title>direita&#45;&gt;426</title>
<path fill="none" stroke="green" stroke-width="0.107127" d="M1060.28,-85.1005C1059.64,-74.6993 1059.58,-62.6884 1060.09,-51.9681"/>
<polygon fill="green" stroke="green" stroke-width="0.107127" points="1063.6,-52.0038 1060.8,-41.7854 1056.62,-51.519 1063.6,-52.0038"/>
</g>
<!-- pular&#45;&gt;pular -->
<g id="edge26" class="edge"><title>pular&#45;&gt;pular</title>
<path fill="none" stroke="red" stroke-width="0.321087" d="M1240.17,-126.293C1251.67,-128.892 1262.25,-124.25 1262.25,-112.368 1262.25,-104.198 1257.25,-99.4512 1250.39,-98.1269"/>
<polygon fill="red" stroke="red" stroke-width="0.321087" points="1250.06,-94.6352 1240.17,-98.4424 1250.28,-101.632 1250.06,-94.6352"/>
</g>
<!-- atirar&#45;&gt;atirar -->
<g id="edge19" class="edge"><title>atirar&#45;&gt;atirar</title>
<path fill="none" stroke="green" stroke-width="0.263566" stroke-dasharray="1,5" d="M681.174,-126.293C692.666,-128.892 703.249,-124.25 703.249,-112.368 703.249,-104.198 698.247,-99.4512 691.386,-98.1269"/>
<polygon fill="green" stroke="green" stroke-width="0.263566" points="691.061,-94.6352 681.174,-98.4424 691.277,-101.632 691.061,-94.6352"/>
</g>
<!-- 426&#45;&gt;direita -->
<g id="edge59" class="edge"><title>426&#45;&gt;direita</title>
<path fill="none" stroke="red" stroke-width="0.136903" d="M1072.2,-41.7854C1073.12,-51.5217 1073.43,-63.6105 1073.15,-74.9663"/>
<polygon fill="red" stroke="red" stroke-width="0.136903" points="1069.65,-74.9605 1072.72,-85.1005 1076.64,-75.2587 1069.65,-74.9605"/>
</g>
</g>
</svg>
