<?xml version="1.0" encoding="UTF-8" standalone="no"?>
<!DOCTYPE svg PUBLIC "-//W3C//DTD SVG 1.1//EN"
 "http://www.w3.org/Graphics/SVG/1.1/DTD/svg11.dtd">
<!-- Generated by graphviz version 2.38.0 (20140413.2041)
 -->
<!-- Title: %3 Pages: 1 -->
<svg width="2037pt" height="130pt"
 viewBox="0.00 0.00 2037.00 129.88" xmlns="http://www.w3.org/2000/svg" xmlns:xlink="http://www.w3.org/1999/xlink">
<g id="graph0" class="graph" transform="scale(1 1) rotate(0) translate(4 125.882)">
<title>%3</title>
<polygon fill="white" stroke="none" points="-4,4 -4,-125.882 2033,-125.882 2033,4 -4,4"/>
<!-- dintancia projetil 1 -->
<g id="node1" class="node"><title>dintancia projetil 1</title>
<polygon fill="lightgray" stroke="black" points="896.5,-121.882 812.5,-121.882 812.5,-103.882 896.5,-103.882 896.5,-121.882"/>
<text text-anchor="middle" x="854.5" y="-110.682" font-family="Times New Roman,serif" font-size="9.00">dintancia projetil 1</text>
</g>
<!-- esquerda -->
<g id="node21" class="node"><title>esquerda</title>
<ellipse fill="lightblue" stroke="black" cx="852.5" cy="-33.9411" rx="33.8824" ry="33.8824"/>
<text text-anchor="middle" x="852.5" y="-31.7411" font-family="Times New Roman,serif" font-size="9.00">esquerda</text>
</g>
<!-- dintancia projetil 1&#45;&gt;esquerda -->
<g id="edge16" class="edge"><title>dintancia projetil 1&#45;&gt;esquerda</title>
<path fill="none" stroke="green" stroke-width="0.368083" d="M854.286,-103.648C854.121,-97.3183 853.88,-88.038 853.628,-78.3329"/>
<polygon fill="green" stroke="green" stroke-width="0.368083" points="857.123,-78.0769 853.364,-68.1713 850.125,-78.2589 857.123,-78.0769"/>
</g>
<!-- direita -->
<g id="node22" class="node"><title>direita</title>
<ellipse fill="lightblue" stroke="black" cx="1005.5" cy="-33.9411" rx="27.6545" ry="27.6545"/>
<text text-anchor="middle" x="1005.5" y="-31.7411" font-family="Times New Roman,serif" font-size="9.00">direita</text>
</g>
<!-- dintancia projetil 1&#45;&gt;direita -->
<g id="edge17" class="edge"><title>dintancia projetil 1&#45;&gt;direita</title>
<path fill="none" stroke="green" stroke-width="0.447844" d="M870.374,-103.794C894.323,-91.5906 940.248,-68.1901 971.859,-52.0829"/>
<polygon fill="green" stroke="green" stroke-width="0.447844" points="973.848,-54.9974 981.169,-47.3388 970.67,-48.7603 973.848,-54.9974"/>
</g>
<!-- pular -->
<g id="node23" class="node"><title>pular</title>
<ellipse fill="lightblue" stroke="black" cx="754.5" cy="-33.9411" rx="25" ry="25"/>
<text text-anchor="middle" x="754.5" y="-31.7411" font-family="Times New Roman,serif" font-size="9.00">pular</text>
</g>
<!-- dintancia projetil 1&#45;&gt;pular -->
<g id="edge39" class="edge"><title>dintancia projetil 1&#45;&gt;pular</title>
<path fill="none" stroke="green" stroke-width="0.11445" stroke-dasharray="1,5" d="M843.798,-103.648C829.096,-92.3361 802.147,-71.6016 781.687,-55.8588"/>
<polygon fill="green" stroke="green" stroke-width="0.11445" points="783.708,-52.9978 773.648,-49.6737 779.439,-58.5457 783.708,-52.9978"/>
</g>
<!-- atirar -->
<g id="node24" class="node"><title>atirar</title>
<ellipse fill="lightblue" stroke="black" cx="1362.5" cy="-33.9411" rx="25" ry="25"/>
<text text-anchor="middle" x="1362.5" y="-31.7411" font-family="Times New Roman,serif" font-size="9.00">atirar</text>
</g>
<!-- dintancia projetil 1&#45;&gt;atirar -->
<g id="edge56" class="edge"><title>dintancia projetil 1&#45;&gt;atirar</title>
<path fill="none" stroke="red" stroke-width="0.643044" stroke-dasharray="1,5" d="M896.768,-105.254C900.059,-104.776 903.332,-104.313 906.5,-103.882 1041.31,-85.5354 1076.31,-90.3162 1210.5,-67.8823 1251.53,-61.0222 1298.24,-50.4867 1328.92,-43.1852"/>
<polygon fill="red" stroke="red" stroke-width="0.643044" points="1329.77,-46.5801 1338.68,-40.8431 1328.14,-39.7733 1329.77,-46.5801"/>
</g>
<!-- release -->
<g id="node25" class="node"><title>release</title>
<ellipse fill="lightblue" stroke="black" cx="1154.5" cy="-33.9411" rx="28.9828" ry="28.9828"/>
<text text-anchor="middle" x="1154.5" y="-31.7411" font-family="Times New Roman,serif" font-size="9.00">release</text>
</g>
<!-- dintancia projetil 1&#45;&gt;release -->
<g id="edge68" class="edge"><title>dintancia projetil 1&#45;&gt;release</title>
<path fill="none" stroke="red" stroke-width="0.105762" d="M896.702,-104.489C938.61,-96.7681 1004.52,-83.6018 1060.5,-67.8823 1079.71,-62.4893 1100.69,-55.2677 1117.95,-48.9606"/>
<polygon fill="red" stroke="red" stroke-width="0.105762" points="1119.48,-52.1273 1127.64,-45.3735 1117.05,-45.5627 1119.48,-52.1273"/>
</g>
<!-- distancia projetil 2 -->
<g id="node2" class="node"><title>distancia projetil 2</title>
<polygon fill="lightgray" stroke="black" points="184,-121.882 101,-121.882 101,-103.882 184,-103.882 184,-121.882"/>
<text text-anchor="middle" x="142.5" y="-110.682" font-family="Times New Roman,serif" font-size="9.00">distancia projetil 2</text>
</g>
<!-- distancia projetil 2&#45;&gt;esquerda -->
<g id="edge2" class="edge"><title>distancia projetil 2&#45;&gt;esquerda</title>
<path fill="none" stroke="green" stroke-width="0.271261" stroke-dasharray="1,5" d="M184.2,-104.89C187.005,-104.519 189.791,-104.178 192.5,-103.882 328.373,-89.0667 677.646,-113.464 806.5,-67.8823 810.563,-66.445 814.584,-64.5328 818.459,-62.3506"/>
<polygon fill="green" stroke="green" stroke-width="0.271261" points="820.581,-65.1508 827.185,-56.8656 816.856,-59.2244 820.581,-65.1508"/>
</g>
<!-- distancia projetil 2&#45;&gt;direita -->
<g id="edge26" class="edge"><title>distancia projetil 2&#45;&gt;direita</title>
<path fill="none" stroke="green" stroke-width="0.57599" d="M184.197,-104.863C187.002,-104.498 189.79,-104.166 192.5,-103.882 511.601,-70.4878 598.853,-130.637 913.5,-67.8823 933.11,-63.9711 954.165,-56.6785 971.178,-49.9472"/>
<polygon fill="green" stroke="green" stroke-width="0.57599" points="972.742,-53.0894 980.686,-46.0786 970.104,-46.6055 972.742,-53.0894"/>
</g>
<!-- distancia projetil 2&#45;&gt;pular -->
<g id="edge11" class="edge"><title>distancia projetil 2&#45;&gt;pular</title>
<path fill="none" stroke="green" stroke-width="0.438334" d="M184.225,-105.089C187.024,-104.67 189.802,-104.264 192.5,-103.882 391.723,-75.7346 631.634,-48.5262 719.817,-38.7485"/>
<polygon fill="green" stroke="green" stroke-width="0.438334" points="720.252,-42.2219 729.806,-37.6436 719.482,-35.2643 720.252,-42.2219"/>
</g>
<!-- distancia projetil 3 -->
<g id="node3" class="node"><title>distancia projetil 3</title>
<polygon fill="lightgray" stroke="black" points="794,-121.882 711,-121.882 711,-103.882 794,-103.882 794,-121.882"/>
<text text-anchor="middle" x="752.5" y="-110.682" font-family="Times New Roman,serif" font-size="9.00">distancia projetil 3</text>
</g>
<!-- distancia projetil 3&#45;&gt;esquerda -->
<g id="edge60" class="edge"><title>distancia projetil 3&#45;&gt;esquerda</title>
<path fill="none" stroke="green" stroke-width="0.415384" d="M763.202,-103.648C776.163,-93.6754 798.643,-76.3792 817.804,-61.6363"/>
<polygon fill="green" stroke="green" stroke-width="0.415384" points="819.984,-64.3751 825.776,-55.5031 815.716,-58.8272 819.984,-64.3751"/>
</g>
<!-- distancia projetil 3&#45;&gt;pular -->
<g id="edge29" class="edge"><title>distancia projetil 3&#45;&gt;pular</title>
<path fill="none" stroke="red" stroke-width="0.471227" d="M752.714,-103.648C752.932,-95.2667 753.284,-81.7123 753.619,-68.8483"/>
<polygon fill="red" stroke="red" stroke-width="0.471227" points="757.119,-68.8793 753.88,-58.7917 750.121,-68.6974 757.119,-68.8793"/>
</g>
<!-- distancia projetil 3&#45;&gt;atirar -->
<g id="edge12" class="edge"><title>distancia projetil 3&#45;&gt;atirar</title>
<path fill="none" stroke="green" stroke-width="0.635247" d="M794.217,-105.104C797.355,-104.666 800.475,-104.253 803.5,-103.882 983.747,-81.799 1030.97,-95.1667 1210.5,-67.8823 1251.63,-61.6312 1298.31,-50.9716 1328.97,-43.4748"/>
<polygon fill="green" stroke="green" stroke-width="0.635247" points="1329.85,-46.8624 1338.71,-41.0647 1328.17,-40.067 1329.85,-46.8624"/>
</g>
<!-- distancia projetil 3&#45;&gt;release -->
<g id="edge69" class="edge"><title>distancia projetil 3&#45;&gt;release</title>
<path fill="none" stroke="green" stroke-width="0.380793" d="M794.24,-105.278C797.373,-104.799 800.486,-104.33 803.5,-103.882 917.587,-86.9449 948.417,-95.0874 1060.5,-67.8823 1079.89,-63.1769 1100.89,-56.0232 1118.11,-49.5831"/>
<polygon fill="green" stroke="green" stroke-width="0.380793" points="1119.68,-52.7311 1127.78,-45.8977 1117.19,-46.1905 1119.68,-52.7311"/>
</g>
<!-- distancia projetil 4 -->
<g id="node4" class="node"><title>distancia projetil 4</title>
<polygon fill="lightgray" stroke="black" points="285,-121.882 202,-121.882 202,-103.882 285,-103.882 285,-121.882"/>
<text text-anchor="middle" x="243.5" y="-110.682" font-family="Times New Roman,serif" font-size="9.00">distancia projetil 4</text>
</g>
<!-- distancia projetil 4&#45;&gt;esquerda -->
<g id="edge47" class="edge"><title>distancia projetil 4&#45;&gt;esquerda</title>
<path fill="none" stroke="green" stroke-width="0.577865" stroke-dasharray="1,5" d="M285.204,-104.926C288.008,-104.546 290.793,-104.193 293.5,-103.882 407.034,-90.8419 698.983,-106.613 806.5,-67.8823 810.555,-66.4217 814.571,-64.4941 818.442,-62.3026"/>
<polygon fill="green" stroke="green" stroke-width="0.577865" points="820.57,-65.0986 827.164,-56.8055 816.837,-59.1768 820.57,-65.0986"/>
</g>
<!-- distancia projetil 4&#45;&gt;direita -->
<g id="edge64" class="edge"><title>distancia projetil 4&#45;&gt;direita</title>
<path fill="none" stroke="green" stroke-width="0.176993" d="M285.2,-104.889C288.005,-104.517 290.791,-104.177 293.5,-103.882 567.902,-74.0402 643.033,-122.967 913.5,-67.8823 933.094,-63.8916 954.148,-56.5927 971.164,-49.8778"/>
<polygon fill="green" stroke="green" stroke-width="0.176993" points="972.722,-53.0226 980.674,-46.0211 970.092,-46.5357 972.722,-53.0226"/>
</g>
<!-- distancia projetil 4&#45;&gt;pular -->
<g id="edge55" class="edge"><title>distancia projetil 4&#45;&gt;pular</title>
<path fill="none" stroke="red" stroke-width="1.25398" d="M285.237,-105.172C288.033,-104.732 290.807,-104.299 293.5,-103.882 452.752,-79.2349 643.191,-51.2176 719.938,-39.9866"/>
<polygon fill="red" stroke="red" stroke-width="1.25398" points="720.61,-43.4257 729.998,-38.5154 719.597,-36.4994 720.61,-43.4257"/>
</g>
<!-- distancia projetil 5 -->
<g id="node5" class="node"><title>distancia projetil 5</title>
<polygon fill="lightgray" stroke="black" points="1300,-121.882 1217,-121.882 1217,-103.882 1300,-103.882 1300,-121.882"/>
<text text-anchor="middle" x="1258.5" y="-110.682" font-family="Times New Roman,serif" font-size="9.00">distancia projetil 5</text>
</g>
<!-- distancia projetil 5&#45;&gt;esquerda -->
<g id="edge33" class="edge"><title>distancia projetil 5&#45;&gt;esquerda</title>
<path fill="none" stroke="green" stroke-width="1.10252" d="M1216.75,-105.313C1213.62,-104.826 1210.51,-104.345 1207.5,-103.882 1101.33,-87.5588 1073.49,-90.6004 968.5,-67.8823 943.658,-62.5069 916.289,-54.8214 894.377,-48.2257"/>
<polygon fill="green" stroke="green" stroke-width="1.10252" points="895.308,-44.8506 884.722,-45.2842 893.268,-51.5467 895.308,-44.8506"/>
</g>
<!-- distancia projetil 5&#45;&gt;pular -->
<g id="edge70" class="edge"><title>distancia projetil 5&#45;&gt;pular</title>
<path fill="none" stroke="green" stroke-width="0.194589" d="M1216.78,-105.111C1213.64,-104.671 1210.52,-104.256 1207.5,-103.882 1031.23,-82.1086 978.376,-122.895 809.5,-67.8823 800.174,-64.8442 790.751,-59.9942 782.403,-54.9398"/>
<polygon fill="green" stroke="green" stroke-width="0.194589" points="784.132,-51.8911 773.822,-49.4511 780.361,-57.788 784.132,-51.8911"/>
</g>
<!-- distancia projetil 5&#45;&gt;atirar -->
<g id="edge51" class="edge"><title>distancia projetil 5&#45;&gt;atirar</title>
<path fill="none" stroke="red" stroke-width="0.299399" stroke-dasharray="1,5" d="M1269.63,-103.648C1285.08,-92.2174 1313.54,-71.1653 1334.89,-55.3648"/>
<polygon fill="red" stroke="red" stroke-width="0.299399" points="1337.02,-58.1462 1342.98,-49.3849 1332.86,-52.5188 1337.02,-58.1462"/>
</g>
<!-- distancia projetil 5&#45;&gt;release -->
<g id="edge27" class="edge"><title>distancia projetil 5&#45;&gt;release</title>
<path fill="none" stroke="red" stroke-width="0.346943" d="M1247.37,-103.648C1232.82,-92.8813 1206.73,-73.5782 1185.9,-58.168"/>
<polygon fill="red" stroke="red" stroke-width="0.346943" points="1187.75,-55.1865 1177.63,-52.0527 1183.59,-60.8139 1187.75,-55.1865"/>
</g>
<!-- distancia projetil 6 -->
<g id="node6" class="node"><title>distancia projetil 6</title>
<polygon fill="lightgray" stroke="black" points="83,-121.882 0,-121.882 0,-103.882 83,-103.882 83,-121.882"/>
<text text-anchor="middle" x="41.5" y="-110.682" font-family="Times New Roman,serif" font-size="9.00">distancia projetil 6</text>
</g>
<!-- distancia projetil 6&#45;&gt;esquerda -->
<g id="edge66" class="edge"><title>distancia projetil 6&#45;&gt;esquerda</title>
<path fill="none" stroke="green" stroke-width="0.30868" stroke-dasharray="1,5" d="M83.197,-104.864C86.0025,-104.499 88.7897,-104.166 91.5,-103.882 249.723,-87.2905 656.3,-120.319 806.5,-67.8823 810.569,-66.4618 814.594,-64.5606 818.471,-62.3852"/>
<polygon fill="green" stroke="green" stroke-width="0.30868" points="820.589,-65.1883 827.2,-56.9089 816.869,-59.2586 820.589,-65.1883"/>
</g>
<!-- distancia projetil 6&#45;&gt;pular -->
<g id="edge61" class="edge"><title>distancia projetil 6&#45;&gt;pular</title>
<path fill="none" stroke="green" stroke-width="0.358879" d="M83.2168,-105.032C86.0176,-104.626 88.7982,-104.239 91.5,-103.882 331.16,-72.2734 621.14,-46.3467 719.753,-37.8747"/>
<polygon fill="green" stroke="green" stroke-width="0.358879" points="720.093,-41.3585 729.759,-37.0187 719.497,-34.384 720.093,-41.3585"/>
</g>
<!-- distancia projetil 7 -->
<g id="node7" class="node"><title>distancia projetil 7</title>
<polygon fill="lightgray" stroke="black" points="386,-121.882 303,-121.882 303,-103.882 386,-103.882 386,-121.882"/>
<text text-anchor="middle" x="344.5" y="-110.682" font-family="Times New Roman,serif" font-size="9.00">distancia projetil 7</text>
</g>
<!-- distancia projetil 7&#45;&gt;esquerda -->
<g id="edge46" class="edge"><title>distancia projetil 7&#45;&gt;esquerda</title>
<path fill="none" stroke="red" stroke-width="0.119083" stroke-dasharray="1,5" d="M386.216,-105.101C389.354,-104.664 392.475,-104.252 395.5,-103.882 577.515,-81.6614 634.53,-131.518 806.5,-67.8823 810.542,-66.3866 814.549,-64.4361 818.416,-62.2304"/>
<polygon fill="red" stroke="red" stroke-width="0.119083" points="820.552,-65.0204 827.131,-56.7151 816.809,-59.1054 820.552,-65.0204"/>
</g>
<!-- distancia projetil 7&#45;&gt;direita -->
<g id="edge65" class="edge"><title>distancia projetil 7&#45;&gt;direita</title>
<path fill="none" stroke="red" stroke-width="0.217569" d="M386.209,-105.04C389.349,-104.617 392.472,-104.224 395.5,-103.882 624.819,-77.9766 687.631,-115.225 913.5,-67.8823 933.071,-63.7801 954.123,-56.4724 971.143,-49.7804"/>
<polygon fill="red" stroke="red" stroke-width="0.217569" points="972.694,-52.9289 980.657,-45.9403 970.074,-46.4377 972.694,-52.9289"/>
</g>
<!-- distancia projetil 7&#45;&gt;pular -->
<g id="edge48" class="edge"><title>distancia projetil 7&#45;&gt;pular</title>
<path fill="none" stroke="red" stroke-width="0.196772" d="M386.069,-104.081C467.149,-88.8657 645.019,-55.4865 720.04,-41.4079"/>
<polygon fill="red" stroke="red" stroke-width="0.196772" points="720.74,-44.8378 729.922,-39.5534 719.448,-37.9579 720.74,-44.8378"/>
</g>
<!-- distancia projetil 7&#45;&gt;release -->
<g id="edge3" class="edge"><title>distancia projetil 7&#45;&gt;release</title>
<path fill="none" stroke="green" stroke-width="0.624753" d="M386.203,-104.988C389.344,-104.576 392.47,-104.201 395.5,-103.882 689.863,-72.908 770.154,-125.401 1060.5,-67.8823 1080.07,-64.0057 1101.09,-56.9338 1118.28,-50.3335"/>
<polygon fill="green" stroke="green" stroke-width="0.624753" points="1119.9,-53.4563 1127.92,-46.5296 1117.33,-46.945 1119.9,-53.4563"/>
</g>
<!-- distancia projetil 8 -->
<g id="node8" class="node"><title>distancia projetil 8</title>
<polygon fill="lightgray" stroke="black" points="2029,-121.882 1946,-121.882 1946,-103.882 2029,-103.882 2029,-121.882"/>
<text text-anchor="middle" x="1987.5" y="-110.682" font-family="Times New Roman,serif" font-size="9.00">distancia projetil 8</text>
</g>
<!-- distancia projetil 8&#45;&gt;direita -->
<g id="edge8" class="edge"><title>distancia projetil 8&#45;&gt;direita</title>
<path fill="none" stroke="green" stroke-width="0.104008" d="M1945.8,-104.953C1942.66,-104.55 1939.53,-104.186 1936.5,-103.882 1573.52,-67.5598 1476.27,-128.226 1116.5,-67.8823 1090.66,-63.5477 1062.35,-55.0863 1040.79,-47.8248"/>
<polygon fill="green" stroke="green" stroke-width="0.104008" points="1041.69,-44.4316 1031.09,-44.4861 1039.41,-51.0505 1041.69,-44.4316"/>
</g>
<!-- distancia projetil 8&#45;&gt;atirar -->
<g id="edge43" class="edge"><title>distancia projetil 8&#45;&gt;atirar</title>
<path fill="none" stroke="red" stroke-width="0.465519" stroke-dasharray="1,5" d="M1945.77,-105.211C1942.63,-104.748 1939.52,-104.3 1936.5,-103.882 1732.53,-75.6446 1486.83,-48.389 1397.29,-38.6771"/>
<polygon fill="red" stroke="red" stroke-width="0.465519" points="1397.48,-35.1769 1387.16,-37.5808 1396.72,-42.1363 1397.48,-35.1769"/>
</g>
<!-- distancia projetil 8&#45;&gt;release -->
<g id="edge14" class="edge"><title>distancia projetil 8&#45;&gt;release</title>
<path fill="none" stroke="red" stroke-width="0.370477" d="M1945.79,-105.005C1942.65,-104.59 1939.53,-104.209 1936.5,-103.882 1667.36,-74.874 1597.15,-101.127 1328.5,-67.8823 1281.29,-62.0401 1227.58,-51.2265 1192.48,-43.5852"/>
<polygon fill="red" stroke="red" stroke-width="0.370477" points="1193.17,-40.1536 1182.66,-41.4228 1191.67,-46.9901 1193.17,-40.1536"/>
</g>
<!-- distancia projetil 9 -->
<g id="node9" class="node"><title>distancia projetil 9</title>
<polygon fill="lightgray" stroke="black" points="1614,-121.882 1531,-121.882 1531,-103.882 1614,-103.882 1614,-121.882"/>
<text text-anchor="middle" x="1572.5" y="-110.682" font-family="Times New Roman,serif" font-size="9.00">distancia projetil 9</text>
</g>
<!-- distancia projetil 9&#45;&gt;esquerda -->
<g id="edge45" class="edge"><title>distancia projetil 9&#45;&gt;esquerda</title>
<path fill="none" stroke="green" stroke-width="0.926197" d="M1530.79,-105.025C1527.65,-104.605 1524.53,-104.218 1521.5,-103.882 1276.7,-76.7703 1211.21,-109.758 968.5,-67.8823 943.453,-63.5609 916.074,-55.9297 894.208,-49.0998"/>
<polygon fill="green" stroke="green" stroke-width="0.926197" points="895.168,-45.7323 884.577,-46.0329 893.043,-52.4023 895.168,-45.7323"/>
</g>
<!-- distancia projetil 9&#45;&gt;atirar -->
<g id="edge62" class="edge"><title>distancia projetil 9&#45;&gt;atirar</title>
<path fill="none" stroke="green" stroke-width="0.224699" stroke-dasharray="1,5" d="M1550.42,-103.794C1513.3,-90.1917 1438.2,-62.6778 1395.03,-46.8588"/>
<polygon fill="green" stroke="green" stroke-width="0.224699" points="1396.15,-43.5411 1385.55,-43.3872 1393.74,-50.1139 1396.15,-43.5411"/>
</g>
<!-- distancia projetil 10 -->
<g id="node10" class="node"><title>distancia projetil 10</title>
<polygon fill="lightgray" stroke="black" points="492.5,-121.882 404.5,-121.882 404.5,-103.882 492.5,-103.882 492.5,-121.882"/>
<text text-anchor="middle" x="448.5" y="-110.682" font-family="Times New Roman,serif" font-size="9.00">distancia projetil 10</text>
</g>
<!-- distancia projetil 10&#45;&gt;esquerda -->
<g id="edge30" class="edge"><title>distancia projetil 10&#45;&gt;esquerda</title>
<path fill="none" stroke="red" stroke-width="0.172349" stroke-dasharray="1,5" d="M492.731,-105.097C495.697,-104.675 498.641,-104.267 501.5,-103.882 636.779,-85.6936 679.215,-117.174 806.5,-67.8823 810.519,-66.3259 814.511,-64.3355 818.368,-62.1054"/>
<polygon fill="red" stroke="red" stroke-width="0.172349" points="820.52,-64.8848 827.071,-56.5586 816.757,-58.9818 820.52,-64.8848"/>
</g>
<!-- distancia projetil 10&#45;&gt;direita -->
<g id="edge49" class="edge"><title>distancia projetil 10&#45;&gt;direita</title>
<path fill="none" stroke="red" stroke-width="0.308483" d="M492.718,-104.996C495.688,-104.599 498.635,-104.223 501.5,-103.882 684.02,-82.1546 733.943,-107.186 913.5,-67.8823 932.895,-63.6367 953.784,-56.3886 970.748,-49.7704"/>
<polygon fill="red" stroke="red" stroke-width="0.308483" points="972.256,-52.9369 980.241,-45.9739 969.657,-46.4374 972.256,-52.9369"/>
</g>
<!-- distancia projetil 11 -->
<g id="node11" class="node"><title>distancia projetil 11</title>
<polygon fill="lightgray" stroke="black" points="598.5,-121.882 510.5,-121.882 510.5,-103.882 598.5,-103.882 598.5,-121.882"/>
<text text-anchor="middle" x="554.5" y="-110.682" font-family="Times New Roman,serif" font-size="9.00">distancia projetil 11</text>
</g>
<!-- distancia projetil 11&#45;&gt;esquerda -->
<g id="edge18" class="edge"><title>distancia projetil 11&#45;&gt;esquerda</title>
<path fill="none" stroke="red" stroke-width="0.281185" d="M598.585,-104.708C668.264,-93.2938 796.978,-71.8763 806.5,-67.8823 810.372,-66.258 814.234,-64.2576 817.981,-62.052"/>
<polygon fill="red" stroke="red" stroke-width="0.281185" points="819.935,-64.9566 826.466,-56.6136 816.158,-59.0633 819.935,-64.9566"/>
</g>
<!-- distancia projetil 11&#45;&gt;direita -->
<g id="edge4" class="edge"><title>distancia projetil 11&#45;&gt;direita</title>
<path fill="none" stroke="green" stroke-width="0.29774" d="M598.731,-105.095C601.697,-104.674 604.641,-104.266 607.5,-103.882 743.22,-85.6606 780.183,-99.1638 913.5,-67.8823 932.83,-63.3467 953.713,-56.0737 970.69,-49.514"/>
<polygon fill="green" stroke="green" stroke-width="0.29774" points="972.178,-52.6894 980.193,-45.7603 969.606,-46.1789 972.178,-52.6894"/>
</g>
<!-- distancia projetil 11&#45;&gt;pular -->
<g id="edge22" class="edge"><title>distancia projetil 11&#45;&gt;pular</title>
<path fill="none" stroke="green" stroke-width="0.154646" d="M575.525,-103.794C610.529,-90.3275 680.977,-63.2257 722.281,-47.3361"/>
<polygon fill="green" stroke="green" stroke-width="0.154646" points="723.543,-50.6007 731.619,-43.7435 721.029,-44.0675 723.543,-50.6007"/>
</g>
<!-- distancia projetil 11&#45;&gt;atirar -->
<g id="edge41" class="edge"><title>distancia projetil 11&#45;&gt;atirar</title>
<path fill="none" stroke="red" stroke-width="0.545111" d="M598.708,-104.905C601.68,-104.53 604.631,-104.184 607.5,-103.882 874.506,-75.8183 944.521,-104.422 1210.5,-67.8823 1251.72,-62.2199 1298.38,-51.4403 1329.01,-43.7547"/>
<polygon fill="red" stroke="red" stroke-width="0.545111" points="1329.92,-47.1348 1338.75,-41.2788 1328.19,-40.3506 1329.92,-47.1348"/>
</g>
<!-- distancia projetil 12 -->
<g id="node12" class="node"><title>distancia projetil 12</title>
<polygon fill="lightgray" stroke="black" points="1927.5,-121.882 1839.5,-121.882 1839.5,-103.882 1927.5,-103.882 1927.5,-121.882"/>
<text text-anchor="middle" x="1883.5" y="-110.682" font-family="Times New Roman,serif" font-size="9.00">distancia projetil 12</text>
</g>
<!-- distancia projetil 12&#45;&gt;direita -->
<g id="edge24" class="edge"><title>distancia projetil 12&#45;&gt;direita</title>
<path fill="none" stroke="red" stroke-width="0.230285" d="M1839.3,-104.874C1836.32,-104.506 1833.37,-104.171 1830.5,-103.882 1514.35,-72.1315 1429.69,-121.46 1116.5,-67.8823 1090.67,-63.4637 1062.37,-55.0039 1040.8,-47.7641"/>
<polygon fill="red" stroke="red" stroke-width="0.230285" points="1041.7,-44.3705 1031.1,-44.437 1039.43,-50.9919 1041.7,-44.3705"/>
</g>
<!-- distancia projetil 12&#45;&gt;atirar -->
<g id="edge54" class="edge"><title>distancia projetil 12&#45;&gt;atirar</title>
<path fill="none" stroke="red" stroke-width="0.397913" d="M1839.26,-105.192C1836.29,-104.747 1833.35,-104.308 1830.5,-103.882 1668.36,-79.7027 1474.54,-51.3153 1397.02,-39.9828"/>
<polygon fill="red" stroke="red" stroke-width="0.397913" points="1397.27,-36.4823 1386.86,-38.4992 1396.25,-43.4087 1397.27,-36.4823"/>
</g>
<!-- distancia projetil 13 -->
<g id="node13" class="node"><title>distancia projetil 13</title>
<polygon fill="lightgray" stroke="black" points="1821.5,-121.882 1733.5,-121.882 1733.5,-103.882 1821.5,-103.882 1821.5,-121.882"/>
<text text-anchor="middle" x="1777.5" y="-110.682" font-family="Times New Roman,serif" font-size="9.00">distancia projetil 13</text>
</g>
<!-- distancia projetil 13&#45;&gt;esquerda -->
<g id="edge67" class="edge"><title>distancia projetil 13&#45;&gt;esquerda</title>
<path fill="none" stroke="red" stroke-width="0.136286" d="M1733.3,-104.865C1730.32,-104.499 1727.37,-104.167 1724.5,-103.882 1389.76,-70.7361 1300.47,-122.183 968.5,-67.8823 943.417,-63.7793 916.035,-56.1593 894.177,-49.2808"/>
<polygon fill="red" stroke="red" stroke-width="0.136286" points="895.142,-45.9148 884.551,-46.188 893.001,-52.5792 895.142,-45.9148"/>
</g>
<!-- distancia projetil 13&#45;&gt;direita -->
<g id="edge50" class="edge"><title>distancia projetil 13&#45;&gt;direita</title>
<path fill="none" stroke="red" stroke-width="0.531636" d="M1733.29,-104.903C1730.32,-104.528 1727.37,-104.183 1724.5,-103.882 1455.28,-75.6522 1383.12,-114.697 1116.5,-67.8823 1090.69,-63.3506 1062.39,-54.8928 1040.82,-47.6823"/>
<polygon fill="red" stroke="red" stroke-width="0.531636" points="1041.71,-44.2882 1031.11,-44.3709 1039.45,-50.9131 1041.71,-44.2882"/>
</g>
<!-- distancia projetil 13&#45;&gt;atirar -->
<g id="edge10" class="edge"><title>distancia projetil 13&#45;&gt;atirar</title>
<path fill="none" stroke="green" stroke-width="0.262866" stroke-dasharray="1,5" d="M1734.26,-103.866C1651.38,-88.5001 1471.73,-55.1917 1396.6,-41.2637"/>
<polygon fill="green" stroke="green" stroke-width="0.262866" points="1397.19,-37.8125 1386.72,-39.4309 1395.91,-44.6952 1397.19,-37.8125"/>
</g>
<!-- distancia projetil 13&#45;&gt;release -->
<g id="edge58" class="edge"><title>distancia projetil 13&#45;&gt;release</title>
<path fill="none" stroke="green" stroke-width="0.48203" stroke-dasharray="1,5" d="M1733.28,-105.008C1730.31,-104.608 1727.36,-104.228 1724.5,-103.882 1549.05,-82.6846 1503.52,-92.3473 1328.5,-67.8823 1281.39,-61.2968 1227.66,-50.6385 1192.53,-43.2362"/>
<polygon fill="green" stroke="green" stroke-width="0.48203" points="1193.2,-39.801 1182.69,-41.1464 1191.75,-46.6482 1193.2,-39.801"/>
</g>
<!-- distancia projetil 14 -->
<g id="node14" class="node"><title>distancia projetil 14</title>
<polygon fill="lightgray" stroke="black" points="1512.5,-121.882 1424.5,-121.882 1424.5,-103.882 1512.5,-103.882 1512.5,-121.882"/>
<text text-anchor="middle" x="1468.5" y="-110.682" font-family="Times New Roman,serif" font-size="9.00">distancia projetil 14</text>
</g>
<!-- distancia projetil 14&#45;&gt;direita -->
<g id="edge71" class="edge"><title>distancia projetil 14&#45;&gt;direita</title>
<path fill="none" stroke="green" stroke-width="0.186763" stroke-dasharray="1,5" d="M1424.27,-105.104C1421.3,-104.681 1418.36,-104.27 1415.5,-103.882 1282.87,-85.8916 1247.57,-95.0189 1116.5,-67.8823 1091.01,-62.6049 1062.91,-54.238 1041.36,-47.2574"/>
<polygon fill="green" stroke="green" stroke-width="0.186763" points="1042.24,-43.8635 1031.65,-44.0629 1040.05,-50.5129 1042.24,-43.8635"/>
</g>
<!-- distancia projetil 14&#45;&gt;pular -->
<g id="edge19" class="edge"><title>distancia projetil 14&#45;&gt;pular</title>
<path fill="none" stroke="green" stroke-width="0.543786" d="M1424.29,-104.904C1421.32,-104.529 1418.37,-104.183 1415.5,-103.882 1281.33,-89.8004 938.399,-107.683 809.5,-67.8823 800.128,-64.9885 790.691,-60.1835 782.344,-55.126"/>
<polygon fill="green" stroke="green" stroke-width="0.543786" points="784.075,-52.0778 773.77,-49.6175 780.291,-57.9672 784.075,-52.0778"/>
</g>
<!-- distancia projetil 14&#45;&gt;atirar -->
<g id="edge36" class="edge"><title>distancia projetil 14&#45;&gt;atirar</title>
<path fill="none" stroke="red" stroke-width="0.128144" d="M1457.16,-103.648C1441.41,-92.2174 1412.41,-71.1653 1390.64,-55.3648"/>
<polygon fill="red" stroke="red" stroke-width="0.128144" points="1392.55,-52.4267 1382.4,-49.3849 1388.44,-58.0917 1392.55,-52.4267"/>
</g>
<!-- distancia projetil 14&#45;&gt;release -->
<g id="edge59" class="edge"><title>distancia projetil 14&#45;&gt;release</title>
<path fill="none" stroke="green" stroke-width="0.482862" d="M1435.79,-103.866C1377.16,-89.5009 1254.54,-59.4541 1192.37,-44.2212"/>
<polygon fill="green" stroke="green" stroke-width="0.482862" points="1193.12,-40.8007 1182.57,-41.8202 1191.45,-47.5996 1193.12,-40.8007"/>
</g>
<!-- distancia projetil 15 -->
<g id="node15" class="node"><title>distancia projetil 15</title>
<polygon fill="lightgray" stroke="black" points="1198.5,-121.882 1110.5,-121.882 1110.5,-103.882 1198.5,-103.882 1198.5,-121.882"/>
<text text-anchor="middle" x="1154.5" y="-110.682" font-family="Times New Roman,serif" font-size="9.00">distancia projetil 15</text>
</g>
<!-- distancia projetil 15&#45;&gt;esquerda -->
<g id="edge38" class="edge"><title>distancia projetil 15&#45;&gt;esquerda</title>
<path fill="none" stroke="green" stroke-width="0.45254" d="M1118.38,-103.837C1080.82,-95.354 1020.36,-81.3737 968.5,-67.8823 943.902,-61.4836 916.546,-53.7453 894.58,-47.3771"/>
<polygon fill="green" stroke="green" stroke-width="0.45254" points="895.475,-43.9926 884.896,-44.5573 893.518,-50.7135 895.475,-43.9926"/>
</g>
<!-- distancia projetil 15&#45;&gt;direita -->
<g id="edge25" class="edge"><title>distancia projetil 15&#45;&gt;direita</title>
<path fill="none" stroke="green" stroke-width="0.675279" stroke-dasharray="1,5" d="M1138.84,-103.794C1115.27,-91.6256 1070.15,-68.3241 1038.96,-52.2216"/>
<polygon fill="green" stroke="green" stroke-width="0.675279" points="1040.26,-48.954 1029.77,-47.4756 1037.05,-55.1737 1040.26,-48.954"/>
</g>
<!-- distancia projetil 15&#45;&gt;pular -->
<g id="edge7" class="edge"><title>distancia projetil 15&#45;&gt;pular</title>
<path fill="none" stroke="red" stroke-width="0.36278" stroke-dasharray="1,5" d="M1110.27,-105.114C1107.3,-104.688 1104.36,-104.274 1101.5,-103.882 971.951,-86.1224 933.156,-110.397 809.5,-67.8823 800.302,-64.7198 790.974,-59.8777 782.677,-54.8713"/>
<polygon fill="red" stroke="red" stroke-width="0.36278" points="784.452,-51.8522 774.134,-49.446 780.7,-57.7614 784.452,-51.8522"/>
</g>
<!-- distancia projetil 15&#45;&gt;atirar -->
<g id="edge63" class="edge"><title>distancia projetil 15&#45;&gt;atirar</title>
<path fill="none" stroke="green" stroke-width="0.783249" d="M1176.37,-103.794C1213.04,-90.2275 1287.13,-62.8225 1329.94,-46.984"/>
<polygon fill="green" stroke="green" stroke-width="0.783249" points="1331.18,-50.2573 1339.35,-43.5053 1328.75,-43.6921 1331.18,-50.2573"/>
</g>
<!-- distancia projetil 15&#45;&gt;release -->
<g id="edge31" class="edge"><title>distancia projetil 15&#45;&gt;release</title>
<path fill="none" stroke="green" stroke-width="0.204855" d="M1154.5,-103.648C1154.5,-96.2873 1154.5,-84.9367 1154.5,-73.568"/>
<polygon fill="green" stroke="green" stroke-width="0.204855" points="1158,-73.2361 1154.5,-63.2361 1151,-73.2361 1158,-73.2361"/>
</g>
<!-- distancia projetil 16 -->
<g id="node16" class="node"><title>distancia projetil 16</title>
<polygon fill="lightgray" stroke="black" points="1406.5,-121.882 1318.5,-121.882 1318.5,-103.882 1406.5,-103.882 1406.5,-121.882"/>
<text text-anchor="middle" x="1362.5" y="-110.682" font-family="Times New Roman,serif" font-size="9.00">distancia projetil 16</text>
</g>
<!-- distancia projetil 16&#45;&gt;direita -->
<g id="edge42" class="edge"><title>distancia projetil 16&#45;&gt;direita</title>
<path fill="none" stroke="red" stroke-width="0.126395" stroke-dasharray="1,5" d="M1318.37,-104.598C1258.33,-94.5816 1154.07,-76.7882 1116.5,-67.8823 1091.17,-61.8786 1063.07,-53.5202 1041.47,-46.7253"/>
<polygon fill="red" stroke="red" stroke-width="0.126395" points="1042.33,-43.3257 1031.74,-43.6302 1040.21,-49.9964 1042.33,-43.3257"/>
</g>
<!-- distancia projetil 16&#45;&gt;pular -->
<g id="edge20" class="edge"><title>distancia projetil 16&#45;&gt;pular</title>
<path fill="none" stroke="red" stroke-width="0.529656" d="M1318.29,-104.945C1315.32,-104.56 1312.37,-104.201 1309.5,-103.882 1088.07,-79.237 1021.96,-134.947 809.5,-67.8823 800.146,-64.9298 790.715,-60.1065 782.368,-55.0502"/>
<polygon fill="red" stroke="red" stroke-width="0.529656" points="784.098,-52.0019 773.791,-49.5498 780.319,-57.8943 784.098,-52.0019"/>
</g>
<!-- distancia projetil 16&#45;&gt;atirar -->
<g id="edge5" class="edge"><title>distancia projetil 16&#45;&gt;atirar</title>
<path fill="none" stroke="red" stroke-width="0.183635" d="M1362.5,-103.648C1362.5,-95.2667 1362.5,-81.7123 1362.5,-68.8483"/>
<polygon fill="red" stroke="red" stroke-width="0.183635" points="1366,-68.7917 1362.5,-58.7917 1359,-68.7917 1366,-68.7917"/>
</g>
<!-- distancia inimigo 1 -->
<g id="node17" class="node"><title>distancia inimigo 1</title>
<polygon fill="lightgray" stroke="black" points="1715,-121.882 1632,-121.882 1632,-103.882 1715,-103.882 1715,-121.882"/>
<text text-anchor="middle" x="1673.5" y="-110.682" font-family="Times New Roman,serif" font-size="9.00">distancia inimigo 1</text>
</g>
<!-- distancia inimigo 1&#45;&gt;esquerda -->
<g id="edge6" class="edge"><title>distancia inimigo 1&#45;&gt;esquerda</title>
<path fill="none" stroke="red" stroke-width="0.53755" d="M1631.8,-104.879C1629,-104.51 1626.21,-104.173 1623.5,-103.882 1333.61,-72.8093 1256.05,-116 968.5,-67.8823 943.432,-63.6875 916.051,-56.0627 894.19,-49.2047"/>
<polygon fill="red" stroke="red" stroke-width="0.53755" points="895.153,-45.8381 884.562,-46.1227 893.019,-52.5048 895.153,-45.8381"/>
</g>
<!-- distancia inimigo 1&#45;&gt;direita -->
<g id="edge72" class="edge"><title>distancia inimigo 1&#45;&gt;direita</title>
<path fill="none" stroke="red" stroke-width="0.133598" d="M1631.8,-104.929C1628.99,-104.548 1626.21,-104.194 1623.5,-103.882 1399.09,-78.0123 1338.76,-108.256 1116.5,-67.8823 1090.72,-63.1991 1062.41,-54.7441 1040.84,-47.5728"/>
<polygon fill="red" stroke="red" stroke-width="0.133598" points="1041.72,-44.1779 1031.13,-44.2823 1039.48,-50.8074 1041.72,-44.1779"/>
</g>
<!-- distancia inimigo 1&#45;&gt;atirar -->
<g id="edge21" class="edge"><title>distancia inimigo 1&#45;&gt;atirar</title>
<path fill="none" stroke="green" stroke-width="0.326591" d="M1641.1,-103.866C1581.83,-89.203 1456.52,-58.2014 1396.26,-43.2931"/>
<polygon fill="green" stroke="green" stroke-width="0.326591" points="1397.03,-39.8776 1386.48,-40.8736 1395.35,-46.6728 1397.03,-39.8776"/>
</g>
<!-- distancia inimigo 1&#45;&gt;release -->
<g id="edge13" class="edge"><title>distancia inimigo 1&#45;&gt;release</title>
<path fill="none" stroke="green" stroke-width="0.425194" d="M1631.78,-105.087C1628.98,-104.668 1626.2,-104.263 1623.5,-103.882 1492.71,-85.4451 1459.02,-88.1778 1328.5,-67.8823 1281.49,-60.5727 1227.75,-50.0656 1192.58,-42.8962"/>
<polygon fill="green" stroke="green" stroke-width="0.425194" points="1193.23,-39.4572 1182.73,-40.877 1191.82,-46.3145 1193.23,-39.4572"/>
</g>
<!-- distancia inimigo 2 -->
<g id="node18" class="node"><title>distancia inimigo 2</title>
<polygon fill="lightgray" stroke="black" points="998,-121.882 915,-121.882 915,-103.882 998,-103.882 998,-121.882"/>
<text text-anchor="middle" x="956.5" y="-110.682" font-family="Times New Roman,serif" font-size="9.00">distancia inimigo 2</text>
</g>
<!-- distancia inimigo 2&#45;&gt;esquerda -->
<g id="edge32" class="edge"><title>distancia inimigo 2&#45;&gt;esquerda</title>
<path fill="none" stroke="red" stroke-width="0.220565" d="M945.37,-103.648C931.646,-93.4946 907.66,-75.7496 887.503,-60.837"/>
<polygon fill="red" stroke="red" stroke-width="0.220565" points="889.547,-57.9955 879.426,-54.8617 885.384,-63.6229 889.547,-57.9955"/>
</g>
<!-- distancia inimigo 2&#45;&gt;direita -->
<g id="edge9" class="edge"><title>distancia inimigo 2&#45;&gt;direita</title>
<path fill="none" stroke="green" stroke-width="0.476525" d="M961.744,-103.648C967.415,-94.7439 976.803,-80.0014 985.433,-66.4509"/>
<polygon fill="green" stroke="green" stroke-width="0.476525" points="988.528,-68.1065 990.948,-57.7917 982.624,-64.3463 988.528,-68.1065"/>
</g>
<!-- distancia inimigo 2&#45;&gt;release -->
<g id="edge57" class="edge"><title>distancia inimigo 2&#45;&gt;release</title>
<path fill="none" stroke="red" stroke-width="0.270015" d="M977.315,-103.794C1010.77,-90.7919 1076.94,-65.0786 1118.27,-49.0188"/>
<polygon fill="red" stroke="red" stroke-width="0.270015" points="1119.65,-52.2385 1127.7,-45.354 1117.11,-45.7138 1119.65,-52.2385"/>
</g>
<!-- direcao sprites 1 -->
<g id="node19" class="node"><title>direcao sprites 1</title>
<polygon fill="lightgray" stroke="black" points="692.5,-121.882 616.5,-121.882 616.5,-103.882 692.5,-103.882 692.5,-121.882"/>
<text text-anchor="middle" x="654.5" y="-110.682" font-family="Times New Roman,serif" font-size="9.00">direcao sprites 1</text>
</g>
<!-- direcao sprites 1&#45;&gt;esquerda -->
<g id="edge52" class="edge"><title>direcao sprites 1&#45;&gt;esquerda</title>
<path fill="none" stroke="red" stroke-width="0.331509" stroke-dasharray="1,5" d="M692.662,-104.61C724.221,-97.7211 769.67,-85.7465 806.5,-67.8823 810.278,-66.0496 814.077,-63.9105 817.785,-61.6183"/>
<polygon fill="red" stroke="red" stroke-width="0.331509" points="819.791,-64.4878 826.217,-56.0642 815.941,-58.6419 819.791,-64.4878"/>
</g>
<!-- direcao sprites 1&#45;&gt;direita -->
<g id="edge34" class="edge"><title>direcao sprites 1&#45;&gt;direita</title>
<path fill="none" stroke="green" stroke-width="0.273704" d="M692.719,-105.376C695.69,-104.87 698.644,-104.368 701.5,-103.882 795.719,-87.8639 821.044,-92.0839 913.5,-67.8823 932.707,-62.8544 953.58,-55.5392 970.582,-49.0788"/>
<polygon fill="green" stroke="green" stroke-width="0.273704" points="972.038,-52.2684 980.103,-45.3975 969.514,-45.7394 972.038,-52.2684"/>
</g>
<!-- direcao sprites 2 -->
<g id="node20" class="node"><title>direcao sprites 2</title>
<polygon fill="lightgray" stroke="black" points="1092.5,-121.882 1016.5,-121.882 1016.5,-103.882 1092.5,-103.882 1092.5,-121.882"/>
<text text-anchor="middle" x="1054.5" y="-110.682" font-family="Times New Roman,serif" font-size="9.00">direcao sprites 2</text>
</g>
<!-- direcao sprites 2&#45;&gt;esquerda -->
<g id="edge37" class="edge"><title>direcao sprites 2&#45;&gt;esquerda</title>
<path fill="none" stroke="green" stroke-width="0.544016" d="M1033.26,-103.794C1000.19,-91.194 935.766,-66.6569 893.442,-50.5359"/>
<polygon fill="green" stroke="green" stroke-width="0.544016" points="894.57,-47.2203 883.979,-46.9315 892.079,-53.7618 894.57,-47.2203"/>
</g>
<!-- direcao sprites 2&#45;&gt;direita -->
<g id="edge53" class="edge"><title>direcao sprites 2&#45;&gt;direita</title>
<path fill="none" stroke="green" stroke-width="0.140679" stroke-dasharray="1,5" d="M1049.26,-103.648C1043.59,-94.7439 1034.2,-80.0014 1025.57,-66.4509"/>
<polygon fill="green" stroke="green" stroke-width="0.140679" points="1028.38,-64.3463 1020.05,-57.7917 1022.47,-68.1065 1028.38,-64.3463"/>
</g>
<!-- direcao sprites 2&#45;&gt;pular -->
<g id="edge1" class="edge"><title>direcao sprites 2&#45;&gt;pular</title>
<path fill="none" stroke="green" stroke-width="0.406639" stroke-dasharray="1,5" d="M1016.34,-105.21C948.685,-93.3565 814.337,-69.6955 809.5,-67.8823 800.392,-64.4679 791.093,-59.5459 782.795,-54.5435"/>
<polygon fill="green" stroke="green" stroke-width="0.406639" points="784.566,-51.5225 774.24,-49.1514 780.834,-57.4444 784.566,-51.5225"/>
</g>
<!-- direcao sprites 2&#45;&gt;atirar -->
<g id="edge15" class="edge"><title>direcao sprites 2&#45;&gt;atirar</title>
<path fill="none" stroke="red" stroke-width="0.22432" d="M1086.59,-103.866C1145.14,-89.2394 1268.77,-58.3552 1328.62,-43.4044"/>
<polygon fill="red" stroke="red" stroke-width="0.22432" points="1329.49,-46.7951 1338.34,-40.9758 1327.79,-40.0038 1329.49,-46.7951"/>
</g>
<!-- direcao sprites 2&#45;&gt;release -->
<g id="edge44" class="edge"><title>direcao sprites 2&#45;&gt;release</title>
<path fill="none" stroke="red" stroke-width="0.172728" stroke-dasharray="1,5" d="M1065.2,-103.648C1079.11,-92.9494 1103.97,-73.8222 1123.93,-58.4611"/>
<polygon fill="red" stroke="red" stroke-width="0.172728" points="1126.07,-61.2302 1131.86,-52.3582 1121.8,-55.6823 1126.07,-61.2302"/>
</g>
<!-- esquerda&#45;&gt;esquerda -->
<g id="edge35" class="edge"><title>esquerda&#45;&gt;esquerda</title>
<path fill="none" stroke="red" stroke-width="0.478105" d="M883.17,-48.5224C894.812,-49.0847 904.441,-44.2243 904.441,-33.9411 904.441,-26.8714 899.89,-22.3648 893.262,-20.4214"/>
<polygon fill="red" stroke="red" stroke-width="0.478105" points="893.481,-16.9252 883.17,-19.3599 892.749,-23.8868 893.481,-16.9252"/>
</g>
<!-- direita&#45;&gt;direita -->
<g id="edge40" class="edge"><title>direita&#45;&gt;direita</title>
<path fill="none" stroke="red" stroke-width="0.206803" stroke-dasharray="1,5" d="M1029.42,-48.2091C1040.92,-49.9705 1051.08,-45.2146 1051.08,-33.9411 1051.08,-26.1906 1046.28,-21.5207 1039.54,-19.9312"/>
<polygon fill="red" stroke="red" stroke-width="0.206803" points="1039.5,-16.4293 1029.42,-19.6732 1039.32,-23.427 1039.5,-16.4293"/>
</g>
<!-- pular&#45;&gt;pular -->
<g id="edge28" class="edge"><title>pular&#45;&gt;pular</title>
<path fill="none" stroke="red" stroke-width="0.454395" d="M775.174,-47.8663C786.666,-50.4657 797.249,-45.8239 797.249,-33.9411 797.249,-25.7717 792.247,-21.0248 785.386,-19.7005"/>
<polygon fill="red" stroke="red" stroke-width="0.454395" points="785.061,-16.2087 775.174,-20.016 785.277,-23.2054 785.061,-16.2087"/>
</g>
<!-- release&#45;&gt;release -->
<g id="edge23" class="edge"><title>release&#45;&gt;release</title>
<path fill="none" stroke="red" stroke-width="0.33158" d="M1180.12,-48.3376C1191.58,-49.7087 1201.49,-44.9099 1201.49,-33.9411 1201.49,-26.4001 1196.81,-21.7753 1190.15,-20.0668"/>
<polygon fill="red" stroke="red" stroke-width="0.33158" points="1190.29,-16.5691 1180.12,-19.5446 1189.92,-23.5596 1190.29,-16.5691"/>
</g>
</g>
</svg>
