<?xml version="1.0" encoding="UTF-8" standalone="no"?>
<!DOCTYPE svg PUBLIC "-//W3C//DTD SVG 1.1//EN"
 "http://www.w3.org/Graphics/SVG/1.1/DTD/svg11.dtd">
<!-- Generated by graphviz version 2.38.0 (20140413.2041)
 -->
<!-- Title: %3 Pages: 1 -->
<svg width="2300pt" height="203pt"
 viewBox="0.00 0.00 2299.99 202.65" xmlns="http://www.w3.org/2000/svg" xmlns:xlink="http://www.w3.org/1999/xlink">
<g id="graph0" class="graph" transform="scale(1 1) rotate(0) translate(4 198.652)">
<title>%3</title>
<polygon fill="white" stroke="none" points="-4,4 -4,-198.652 2295.99,-198.652 2295.99,4 -4,4"/>
<!-- dintancia projetil 1 -->
<g id="node1" class="node"><title>dintancia projetil 1</title>
<polygon fill="lightgray" stroke="black" points="166.712,-194.652 82.7119,-194.652 82.7119,-176.652 166.712,-176.652 166.712,-194.652"/>
<text text-anchor="middle" x="124.712" y="-183.452" font-family="Times New Roman,serif" font-size="9.00">dintancia projetil 1</text>
</g>
<!-- esquerda -->
<g id="node21" class="node"><title>esquerda</title>
<ellipse fill="lightblue" stroke="black" cx="808.712" cy="-33.9411" rx="33.8824" ry="33.8824"/>
<text text-anchor="middle" x="808.712" y="-31.7411" font-family="Times New Roman,serif" font-size="9.00">esquerda</text>
</g>
<!-- dintancia projetil 1&#45;&gt;esquerda -->
<g id="edge1" class="edge"><title>dintancia projetil 1&#45;&gt;esquerda</title>
<path fill="none" stroke="green" stroke-width="0.326876" d="M129.784,-176.587C141.023,-159.54 169.884,-120.083 205.712,-103.882 317.316,-53.4168 639.094,-105.332 755.712,-67.8823 761.527,-66.0148 767.351,-63.3724 772.898,-60.3869"/>
<polygon fill="green" stroke="green" stroke-width="0.326876" points="775.053,-63.1815 781.922,-55.1148 771.522,-57.1374 775.053,-63.1815"/>
</g>
<!-- direita -->
<g id="node22" class="node"><title>direita</title>
<ellipse fill="lightblue" stroke="black" cx="1168.71" cy="-33.9411" rx="27.6545" ry="27.6545"/>
<text text-anchor="middle" x="1168.71" y="-31.7411" font-family="Times New Roman,serif" font-size="9.00">direita</text>
</g>
<!-- dintancia projetil 1&#45;&gt;direita -->
<g id="edge32" class="edge"><title>dintancia projetil 1&#45;&gt;direita</title>
<path fill="none" stroke="red" stroke-width="0.211087" d="M166.969,-177.678C169.923,-177.297 172.859,-176.949 175.712,-176.652 329.09,-160.682 726.915,-201.262 868.712,-140.652 890.617,-131.289 886.888,-115.452 907.712,-103.882 980.687,-63.3396 1078.47,-45.8391 1131.21,-38.9435"/>
<polygon fill="red" stroke="red" stroke-width="0.211087" points="1131.65,-42.4161 1141.13,-37.7021 1130.78,-35.4702 1131.65,-42.4161"/>
</g>
<!-- atirar -->
<g id="node24" class="node"><title>atirar</title>
<ellipse fill="lightblue" stroke="black" cx="1416.71" cy="-33.9411" rx="25" ry="25"/>
<text text-anchor="middle" x="1416.71" y="-31.7411" font-family="Times New Roman,serif" font-size="9.00">atirar</text>
</g>
<!-- dintancia projetil 1&#45;&gt;atirar -->
<g id="edge69" class="edge"><title>dintancia projetil 1&#45;&gt;atirar</title>
<path fill="none" stroke="green" stroke-width="0.48256" stroke-dasharray="1,5" d="M166.958,-177.57C169.915,-177.214 172.855,-176.902 175.712,-176.652 228.354,-172.047 2040.7,-178.369 2077.71,-140.652 2089.16,-128.987 2088.91,-115.782 2077.71,-103.882 2032.39,-55.7341 1547.63,-84.8003 1483.71,-67.8823 1470.89,-64.4881 1457.61,-58.5429 1446.29,-52.629"/>
<polygon fill="green" stroke="green" stroke-width="0.48256" points="1447.75,-49.4386 1437.29,-47.7253 1444.4,-55.5847 1447.75,-49.4386"/>
</g>
<!-- release -->
<g id="node25" class="node"><title>release</title>
<ellipse fill="lightblue" stroke="black" cx="717.712" cy="-33.9411" rx="28.9828" ry="28.9828"/>
<text text-anchor="middle" x="717.712" y="-31.7411" font-family="Times New Roman,serif" font-size="9.00">release</text>
</g>
<!-- dintancia projetil 1&#45;&gt;release -->
<g id="edge43" class="edge"><title>dintancia projetil 1&#45;&gt;release</title>
<path fill="none" stroke="green" stroke-width="0.115076" stroke-dasharray="1,5" d="M82.473,-180.653C56.2472,-175.739 24.4498,-164.829 7.71194,-140.652 -1.5901,-127.216 -3.27103,-115.983 7.71194,-103.882 53.0821,-53.8932 536.234,-39.0455 678.508,-35.7416"/>
<polygon fill="green" stroke="green" stroke-width="0.115076" points="678.618,-39.2401 688.537,-35.5149 678.46,-32.2419 678.618,-39.2401"/>
</g>
<!-- 57 -->
<g id="node26" class="node"><title>57</title>
<ellipse fill="white" stroke="black" cx="34.7119" cy="-122.267" rx="18.2703" ry="18.2703"/>
<text text-anchor="middle" x="34.7119" y="-120.067" font-family="Times New Roman,serif" font-size="9.00">57</text>
</g>
<!-- dintancia projetil 1&#45;&gt;57 -->
<g id="edge7" class="edge"><title>dintancia projetil 1&#45;&gt;57</title>
<path fill="none" stroke="red" stroke-width="0.101637" d="M112.946,-176.627C99.0694,-167.162 75.6664,-151.2 58.0644,-139.195"/>
<polygon fill="red" stroke="red" stroke-width="0.101637" points="59.7032,-136.076 49.4697,-133.333 55.7589,-141.859 59.7032,-136.076"/>
</g>
<!-- distancia projetil 2 -->
<g id="node2" class="node"><title>distancia projetil 2</title>
<polygon fill="lightgray" stroke="black" points="759.212,-131.267 676.212,-131.267 676.212,-113.267 759.212,-113.267 759.212,-131.267"/>
<text text-anchor="middle" x="717.712" y="-120.067" font-family="Times New Roman,serif" font-size="9.00">distancia projetil 2</text>
</g>
<!-- distancia projetil 2&#45;&gt;esquerda -->
<g id="edge8" class="edge"><title>distancia projetil 2&#45;&gt;esquerda</title>
<path fill="none" stroke="green" stroke-width="0.308453" d="M726.437,-112.99C738.037,-101.986 759.161,-81.9472 777.099,-64.93"/>
<polygon fill="green" stroke="green" stroke-width="0.308453" points="779.709,-67.2786 784.555,-57.8571 774.891,-62.2002 779.709,-67.2786"/>
</g>
<!-- distancia projetil 2&#45;&gt;direita -->
<g id="edge86" class="edge"><title>distancia projetil 2&#45;&gt;direita</title>
<path fill="none" stroke="green" stroke-width="0.167099" d="M738.399,-113.217C747.315,-109.972 757.923,-106.407 767.712,-103.882 899.135,-69.9828 1059.17,-48.1341 1130.83,-39.3428"/>
<polygon fill="green" stroke="green" stroke-width="0.167099" points="1131.65,-42.7696 1141.16,-38.0922 1130.81,-35.8204 1131.65,-42.7696"/>
</g>
<!-- pular -->
<g id="node23" class="node"><title>pular</title>
<ellipse fill="lightblue" stroke="black" cx="1517.71" cy="-33.9411" rx="25" ry="25"/>
<text text-anchor="middle" x="1517.71" y="-31.7411" font-family="Times New Roman,serif" font-size="9.00">pular</text>
</g>
<!-- distancia projetil 2&#45;&gt;pular -->
<g id="edge41" class="edge"><title>distancia projetil 2&#45;&gt;pular</title>
<path fill="none" stroke="green" stroke-width="0.388995" d="M736.83,-113.19C746.002,-109.688 757.249,-105.927 767.712,-103.882 920.8,-73.9694 1320.73,-117.185 1468.71,-67.8823 1476.51,-65.2852 1484.22,-61.085 1491.15,-56.5402"/>
<polygon fill="green" stroke="green" stroke-width="0.388995" points="1493.29,-59.3165 1499.44,-50.6938 1489.25,-53.5953 1493.29,-59.3165"/>
</g>
<!-- distancia projetil 2&#45;&gt;atirar -->
<g id="edge21" class="edge"><title>distancia projetil 2&#45;&gt;atirar</title>
<path fill="none" stroke="green" stroke-width="0.279214" d="M737.332,-113.139C746.421,-109.715 757.458,-106.032 767.712,-103.882 966.682,-62.1589 1021.97,-93.0099 1223.71,-67.8823 1279.52,-60.9313 1343.8,-49.2064 1382.3,-41.7812"/>
<polygon fill="green" stroke="green" stroke-width="0.279214" points="1383.29,-45.1529 1392.44,-39.8085 1381.96,-38.2816 1383.29,-45.1529"/>
</g>
<!-- distancia projetil 2&#45;&gt;release -->
<g id="edge23" class="edge"><title>distancia projetil 2&#45;&gt;release</title>
<path fill="none" stroke="green" stroke-width="0.135929" d="M717.712,-112.99C717.712,-103.732 717.712,-88.0791 717.712,-73.2108"/>
<polygon fill="green" stroke="green" stroke-width="0.135929" points="721.212,-73.1309 717.712,-63.1309 714.212,-73.131 721.212,-73.1309"/>
</g>
<!-- distancia projetil 3 -->
<g id="node3" class="node"><title>distancia projetil 3</title>
<polygon fill="lightgray" stroke="black" points="1458.21,-131.267 1375.21,-131.267 1375.21,-113.267 1458.21,-113.267 1458.21,-131.267"/>
<text text-anchor="middle" x="1416.71" y="-120.067" font-family="Times New Roman,serif" font-size="9.00">distancia projetil 3</text>
</g>
<!-- distancia projetil 3&#45;&gt;direita -->
<g id="edge15" class="edge"><title>distancia projetil 3&#45;&gt;direita</title>
<path fill="none" stroke="green" stroke-width="0.614903" d="M1393.38,-113.146C1349.86,-97.9964 1256.05,-65.3415 1204.48,-47.391"/>
<polygon fill="green" stroke="green" stroke-width="0.614903" points="1205.35,-43.9885 1194.76,-44.0065 1203.05,-50.5995 1205.35,-43.9885"/>
</g>
<!-- distancia projetil 3&#45;&gt;pular -->
<g id="edge80" class="edge"><title>distancia projetil 3&#45;&gt;pular</title>
<path fill="none" stroke="green" stroke-width="0.16632" d="M1426.4,-112.99C1441.19,-100.342 1469.96,-75.7571 1491.27,-57.5446"/>
<polygon fill="green" stroke="green" stroke-width="0.16632" points="1493.7,-60.0725 1499.02,-50.9146 1489.15,-54.7513 1493.7,-60.0725"/>
</g>
<!-- distancia projetil 3&#45;&gt;atirar -->
<g id="edge52" class="edge"><title>distancia projetil 3&#45;&gt;atirar</title>
<path fill="none" stroke="red" stroke-width="0.398187" d="M1416.71,-112.99C1416.71,-102.881 1416.71,-85.1487 1416.71,-69.1379"/>
<polygon fill="red" stroke="red" stroke-width="0.398187" points="1420.21,-68.9626 1416.71,-58.9626 1413.21,-68.9626 1420.21,-68.9626"/>
</g>
<!-- distancia projetil 3&#45;&gt;release -->
<g id="edge24" class="edge"><title>distancia projetil 3&#45;&gt;release</title>
<path fill="none" stroke="green" stroke-width="0.203793" d="M1380.94,-113.187C1364.76,-109.815 1345.36,-106.161 1327.71,-103.882 1203.6,-87.8531 883.994,-108.755 765.712,-67.8823 759.568,-65.7593 753.482,-62.624 747.812,-59.119"/>
<polygon fill="green" stroke="green" stroke-width="0.203793" points="749.55,-56.0697 739.297,-53.3993 745.646,-61.8806 749.55,-56.0697"/>
</g>
<!-- distancia projetil 4 -->
<g id="node4" class="node"><title>distancia projetil 4</title>
<polygon fill="lightgray" stroke="black" points="860.212,-131.267 777.212,-131.267 777.212,-113.267 860.212,-113.267 860.212,-131.267"/>
<text text-anchor="middle" x="818.712" y="-120.067" font-family="Times New Roman,serif" font-size="9.00">distancia projetil 4</text>
</g>
<!-- distancia projetil 4&#45;&gt;esquerda -->
<g id="edge89" class="edge"><title>distancia projetil 4&#45;&gt;esquerda</title>
<path fill="none" stroke="red" stroke-width="0.335384" d="M817.753,-112.99C816.795,-104.717 815.245,-91.3379 813.697,-77.9752"/>
<polygon fill="red" stroke="red" stroke-width="0.335384" points="817.151,-77.3755 812.523,-67.8447 810.198,-78.181 817.151,-77.3755"/>
</g>
<!-- distancia projetil 4&#45;&gt;direita -->
<g id="edge22" class="edge"><title>distancia projetil 4&#45;&gt;direita</title>
<path fill="none" stroke="green" stroke-width="0.690677" d="M843.412,-113.186C853.124,-110.118 864.398,-106.689 874.712,-103.882 966.624,-78.8727 1076.16,-54.6363 1132.01,-42.6734"/>
<polygon fill="green" stroke="green" stroke-width="0.690677" points="1132.75,-46.095 1141.8,-40.5851 1131.29,-39.2491 1132.75,-46.095"/>
</g>
<!-- distancia projetil 4&#45;&gt;pular -->
<g id="edge51" class="edge"><title>distancia projetil 4&#45;&gt;pular</title>
<path fill="none" stroke="red" stroke-width="0.1349" d="M854.483,-113.188C870.66,-109.816 890.069,-106.162 907.712,-103.882 1031.61,-87.8745 1350.45,-108.124 1468.71,-67.8823 1476.49,-65.2355 1484.2,-61.0167 1491.13,-56.4698"/>
<polygon fill="red" stroke="red" stroke-width="0.1349" points="1493.26,-59.2481 1499.42,-50.6286 1489.23,-53.5249 1493.26,-59.2481"/>
</g>
<!-- distancia projetil 4&#45;&gt;atirar -->
<g id="edge79" class="edge"><title>distancia projetil 4&#45;&gt;atirar</title>
<path fill="none" stroke="green" stroke-width="0.559447" d="M856.271,-113.243C872.1,-110.041 890.753,-106.5 907.712,-103.882 1047.41,-82.3157 1083.77,-87.781 1223.71,-67.8823 1279.39,-59.9655 1343.71,-48.5231 1382.25,-41.4187"/>
<polygon fill="green" stroke="green" stroke-width="0.559447" points="1383.21,-44.7999 1392.41,-39.5364 1381.94,-37.9171 1383.21,-44.7999"/>
</g>
<!-- distancia projetil 4&#45;&gt;release -->
<g id="edge68" class="edge"><title>distancia projetil 4&#45;&gt;release</title>
<path fill="none" stroke="green" stroke-width="0.113546" d="M809.028,-112.99C794.93,-100.94 768.158,-78.0579 747.232,-60.1718"/>
<polygon fill="green" stroke="green" stroke-width="0.113546" points="749.412,-57.4312 739.536,-53.5945 744.864,-62.7524 749.412,-57.4312"/>
</g>
<!-- distancia projetil 5 -->
<g id="node5" class="node"><title>distancia projetil 5</title>
<polygon fill="lightgray" stroke="black" points="445.212,-131.267 362.212,-131.267 362.212,-113.267 445.212,-113.267 445.212,-131.267"/>
<text text-anchor="middle" x="403.712" y="-120.067" font-family="Times New Roman,serif" font-size="9.00">distancia projetil 5</text>
</g>
<!-- distancia projetil 5&#45;&gt;esquerda -->
<g id="edge40" class="edge"><title>distancia projetil 5&#45;&gt;esquerda</title>
<path fill="none" stroke="green" stroke-width="0.13133" d="M424.271,-113.16C433.458,-109.825 444.496,-106.207 454.712,-103.882 586.084,-73.983 628.585,-112.504 755.712,-67.8823 761.475,-65.8595 767.27,-63.1301 772.803,-60.1035"/>
<polygon fill="green" stroke="green" stroke-width="0.13133" points="774.972,-62.8884 781.817,-54.8014 771.423,-56.8548 774.972,-62.8884"/>
</g>
<!-- distancia projetil 5&#45;&gt;direita -->
<g id="edge10" class="edge"><title>distancia projetil 5&#45;&gt;direita</title>
<path fill="none" stroke="red" stroke-width="0.273321" d="M423.747,-113.182C433.022,-109.767 444.277,-106.079 454.712,-103.882 635.877,-65.7363 685.465,-86.0205 869.712,-67.8823 963.702,-58.6294 1074.11,-46.0106 1130.84,-39.399"/>
<polygon fill="red" stroke="red" stroke-width="0.273321" points="1131.59,-42.8348 1141.12,-38.198 1130.78,-35.8821 1131.59,-42.8348"/>
</g>
<!-- distancia projetil 5&#45;&gt;atirar -->
<g id="edge66" class="edge"><title>distancia projetil 5&#45;&gt;atirar</title>
<path fill="none" stroke="green" stroke-width="0.498945" stroke-dasharray="1,5" d="M423.222,-113.172C432.58,-109.666 444.051,-105.907 454.712,-103.882 790.857,-40.0527 883.55,-104.734 1223.71,-67.8823 1279.62,-61.8252 1343.88,-49.8387 1382.34,-42.1167"/>
<polygon fill="green" stroke="green" stroke-width="0.498945" points="1383.37,-45.4789 1392.47,-40.0603 1381.98,-38.6186 1383.37,-45.4789"/>
</g>
<!-- distancia projetil 5&#45;&gt;release -->
<g id="edge58" class="edge"><title>distancia projetil 5&#45;&gt;release</title>
<path fill="none" stroke="red" stroke-width="0.266818" d="M426.194,-113.213C435.037,-110.147 445.307,-106.714 454.712,-103.882 533.996,-80.0114 628.111,-56.4847 679.506,-44.0383"/>
<polygon fill="red" stroke="red" stroke-width="0.266818" points="680.601,-47.3747 689.501,-41.6272 678.959,-40.5698 680.601,-47.3747"/>
</g>
<!-- distancia projetil 6 -->
<g id="node6" class="node"><title>distancia projetil 6</title>
<polygon fill="lightgray" stroke="black" points="268.212,-194.652 185.212,-194.652 185.212,-176.652 268.212,-176.652 268.212,-194.652"/>
<text text-anchor="middle" x="226.712" y="-183.452" font-family="Times New Roman,serif" font-size="9.00">distancia projetil 6</text>
</g>
<!-- distancia projetil 6&#45;&gt;esquerda -->
<g id="edge78" class="edge"><title>distancia projetil 6&#45;&gt;esquerda</title>
<path fill="none" stroke="green" stroke-width="0.404983" d="M222.246,-176.247C214.262,-159.938 200.04,-123.848 218.712,-103.882 259.559,-60.2055 698.79,-86.2115 755.712,-67.8823 761.526,-66.0102 767.349,-63.3653 772.896,-60.3785"/>
<polygon fill="green" stroke="green" stroke-width="0.404983" points="775.051,-63.1728 781.919,-55.1055 771.519,-57.1291 775.051,-63.1728"/>
</g>
<!-- distancia projetil 6&#45;&gt;pular -->
<g id="edge20" class="edge"><title>distancia projetil 6&#45;&gt;pular</title>
<path fill="none" stroke="red" stroke-width="0.21916" d="M268.307,-184.487C543.761,-183.3 2095.06,-175.091 2128.71,-140.652 2140.13,-128.963 2139.6,-116.068 2128.71,-103.882 2090.05,-60.6156 1676.37,-41.1146 1552.54,-36.2189"/>
<polygon fill="red" stroke="red" stroke-width="0.21916" points="1552.59,-32.7185 1542.46,-35.8278 1552.32,-39.7132 1552.59,-32.7185"/>
</g>
<!-- distancia projetil 6&#45;&gt;atirar -->
<g id="edge49" class="edge"><title>distancia projetil 6&#45;&gt;atirar</title>
<path fill="none" stroke="red" stroke-width="0.345449" d="M268.354,-184.477C542.408,-183.234 2077.4,-174.751 2110.71,-140.652 2122.13,-128.962 2121.93,-115.764 2110.71,-103.882 2062.8,-53.1448 1551.2,-85.6296 1483.71,-67.8823 1470.88,-64.5084 1457.6,-58.5674 1446.28,-52.651"/>
<polygon fill="red" stroke="red" stroke-width="0.345449" points="1447.74,-49.4608 1437.29,-47.7439 1444.39,-55.6057 1447.74,-49.4608"/>
</g>
<!-- distancia projetil 6&#45;&gt;release -->
<g id="edge59" class="edge"><title>distancia projetil 6&#45;&gt;release</title>
<path fill="none" stroke="red" stroke-width="0.133252" d="M191.259,-176.644C159.012,-168.557 114.936,-155.208 104.712,-140.652 95.3189,-127.279 93.8212,-116.066 104.712,-103.882 143.066,-60.9731 549.209,-41.5162 678.452,-36.3803"/>
<polygon fill="red" stroke="red" stroke-width="0.133252" points="678.826,-39.8685 688.682,-35.9809 678.553,-32.8738 678.826,-39.8685"/>
</g>
<!-- distancia projetil 6&#45;&gt;57 -->
<g id="edge31" class="edge"><title>distancia projetil 6&#45;&gt;57</title>
<path fill="none" stroke="red" stroke-width="0.214348" stroke-dasharray="1,5" d="M188.079,-176.649C155.157,-169.214 106.928,-156.855 66.7119,-140.652 64.3002,-139.68 61.8375,-138.572 59.4025,-137.396"/>
<polygon fill="red" stroke="red" stroke-width="0.214348" points="60.8018,-134.179 50.3145,-132.673 57.5737,-140.39 60.8018,-134.179"/>
</g>
<!-- distancia projetil 7 -->
<g id="node7" class="node"><title>distancia projetil 7</title>
<polygon fill="lightgray" stroke="black" points="2068.21,-131.267 1985.21,-131.267 1985.21,-113.267 2068.21,-113.267 2068.21,-131.267"/>
<text text-anchor="middle" x="2026.71" y="-120.067" font-family="Times New Roman,serif" font-size="9.00">distancia projetil 7</text>
</g>
<!-- distancia projetil 7&#45;&gt;esquerda -->
<g id="edge30" class="edge"><title>distancia projetil 7&#45;&gt;esquerda</title>
<path fill="none" stroke="green" stroke-width="0.197965" stroke-dasharray="1,5" d="M2007.21,-113.152C1997.85,-109.642 1986.38,-105.884 1975.71,-103.882 1606.71,-34.6063 1506.19,-94.9405 1131.71,-67.8823 1031.8,-60.6628 914.943,-47.5916 852.82,-40.2727"/>
<polygon fill="green" stroke="green" stroke-width="0.197965" points="852.944,-36.763 842.602,-39.0625 852.121,-43.7144 852.944,-36.763"/>
</g>
<!-- distancia projetil 7&#45;&gt;direita -->
<g id="edge96" class="edge"><title>distancia projetil 7&#45;&gt;direita</title>
<path fill="none" stroke="green" stroke-width="1.13319" d="M2007.19,-113.238C1997.83,-109.747 1986.36,-105.98 1975.71,-103.882 1716.65,-52.8289 1645.25,-95.9975 1382.71,-67.8823 1320.39,-61.2078 1248.46,-49.252 1205.88,-41.727"/>
<polygon fill="green" stroke="green" stroke-width="1.13319" points="1206.43,-38.2695 1195.97,-39.9615 1205.2,-45.161 1206.43,-38.2695"/>
</g>
<!-- distancia projetil 7&#45;&gt;pular -->
<g id="edge64" class="edge"><title>distancia projetil 7&#45;&gt;pular</title>
<path fill="none" stroke="green" stroke-width="0.481645" d="M2005.62,-113.13C1996.53,-109.87 1985.71,-106.318 1975.71,-103.882 1820.14,-65.9816 1629.47,-45.3296 1552.44,-38.0248"/>
<polygon fill="green" stroke="green" stroke-width="0.481645" points="1552.62,-34.5266 1542.34,-37.0822 1551.97,-41.4963 1552.62,-34.5266"/>
</g>
<!-- distancia projetil 7&#45;&gt;atirar -->
<g id="edge38" class="edge"><title>distancia projetil 7&#45;&gt;atirar</title>
<path fill="none" stroke="red" stroke-width="1.16712" d="M2006.69,-113.117C1997.42,-109.689 1986.16,-106.009 1975.71,-103.882 1760.87,-60.1555 1695.31,-125.305 1483.71,-67.8823 1471.01,-64.4344 1457.84,-58.5376 1446.57,-52.6776"/>
<polygon fill="red" stroke="red" stroke-width="1.16712" points="1448.07,-49.5073 1437.61,-47.8184 1444.73,-55.6612 1448.07,-49.5073"/>
</g>
<!-- distancia projetil 8 -->
<g id="node8" class="node"><title>distancia projetil 8</title>
<polygon fill="lightgray" stroke="black" points="1106.21,-131.267 1023.21,-131.267 1023.21,-113.267 1106.21,-113.267 1106.21,-131.267"/>
<text text-anchor="middle" x="1064.71" y="-120.067" font-family="Times New Roman,serif" font-size="9.00">distancia projetil 8</text>
</g>
<!-- distancia projetil 8&#45;&gt;esquerda -->
<g id="edge73" class="edge"><title>distancia projetil 8&#45;&gt;esquerda</title>
<path fill="none" stroke="green" stroke-width="0.379064" d="M1041.11,-113.197C1032.49,-110.257 1022.66,-106.912 1013.71,-103.882 957.199,-84.7476 891.861,-62.806 850.427,-48.9139"/>
<polygon fill="green" stroke="green" stroke-width="0.379064" points="851.277,-45.5077 840.683,-45.6478 849.052,-52.1447 851.277,-45.5077"/>
</g>
<!-- distancia projetil 8&#45;&gt;direita -->
<g id="edge29" class="edge"><title>distancia projetil 8&#45;&gt;direita</title>
<path fill="none" stroke="green" stroke-width="0.182491" d="M1074.68,-112.99C1089.56,-100.641 1118.15,-76.9142 1139.91,-58.8482"/>
<polygon fill="green" stroke="green" stroke-width="0.182491" points="1142.42,-61.3171 1147.88,-52.237 1137.94,-55.9308 1142.42,-61.3171"/>
</g>
<!-- distancia projetil 8&#45;&gt;pular -->
<g id="edge36" class="edge"><title>distancia projetil 8&#45;&gt;pular</title>
<path fill="none" stroke="red" stroke-width="0.438675" d="M1084.76,-113.255C1094.04,-109.855 1105.29,-106.158 1115.71,-103.882 1269.78,-70.2247 1320.4,-121.477 1468.71,-67.8823 1476.3,-65.1389 1483.86,-60.9662 1490.69,-56.5031"/>
<polygon fill="red" stroke="red" stroke-width="0.438675" points="1492.69,-59.3725 1498.89,-50.7803 1488.69,-53.6315 1492.69,-59.3725"/>
</g>
<!-- distancia projetil 8&#45;&gt;atirar -->
<g id="edge63" class="edge"><title>distancia projetil 8&#45;&gt;atirar</title>
<path fill="none" stroke="red" stroke-width="0.102238" d="M1086.65,-113.235C1095.59,-110.104 1106.08,-106.618 1115.71,-103.882 1211.15,-76.7643 1325.91,-52.8242 1382.18,-41.6401"/>
<polygon fill="red" stroke="red" stroke-width="0.102238" points="1383.17,-45.0109 1392.31,-39.6392 1381.82,-38.1436 1383.17,-45.0109"/>
</g>
<!-- distancia projetil 8&#45;&gt;release -->
<g id="edge75" class="edge"><title>distancia projetil 8&#45;&gt;release</title>
<path fill="none" stroke="green" stroke-width="0.159349" d="M1043.63,-113.104C1034.54,-109.84 1023.72,-106.292 1013.71,-103.882 905.431,-77.8037 869.439,-108.449 765.712,-67.8823 759.782,-65.5631 753.864,-62.3904 748.31,-58.9247"/>
<polygon fill="green" stroke="green" stroke-width="0.159349" points="750.192,-55.9725 739.935,-53.3181 746.298,-61.7895 750.192,-55.9725"/>
</g>
<!-- distancia projetil 9 -->
<g id="node9" class="node"><title>distancia projetil 9</title>
<polygon fill="lightgray" stroke="black" points="1559.21,-131.267 1476.21,-131.267 1476.21,-113.267 1559.21,-113.267 1559.21,-131.267"/>
<text text-anchor="middle" x="1517.71" y="-120.067" font-family="Times New Roman,serif" font-size="9.00">distancia projetil 9</text>
</g>
<!-- distancia projetil 9&#45;&gt;direita -->
<g id="edge60" class="edge"><title>distancia projetil 9&#45;&gt;direita</title>
<path fill="none" stroke="green" stroke-width="0.100148" d="M1495.77,-113.246C1486.83,-110.116 1476.34,-106.629 1466.71,-103.882 1373.69,-77.3416 1262.17,-53.6649 1205.57,-42.2147"/>
<polygon fill="green" stroke="green" stroke-width="0.100148" points="1206.15,-38.7618 1195.66,-40.2211 1204.77,-45.6243 1206.15,-38.7618"/>
</g>
<!-- distancia projetil 9&#45;&gt;pular -->
<g id="edge50" class="edge"><title>distancia projetil 9&#45;&gt;pular</title>
<path fill="none" stroke="green" stroke-width="0.177024" d="M1517.71,-112.99C1517.71,-102.881 1517.71,-85.1487 1517.71,-69.1379"/>
<polygon fill="green" stroke="green" stroke-width="0.177024" points="1521.21,-68.9626 1517.71,-58.9626 1514.21,-68.9626 1521.21,-68.9626"/>
</g>
<!-- distancia projetil 9&#45;&gt;atirar -->
<g id="edge33" class="edge"><title>distancia projetil 9&#45;&gt;atirar</title>
<path fill="none" stroke="red" stroke-width="0.949349" d="M1508.03,-112.99C1493.23,-100.342 1464.47,-75.7571 1443.16,-57.5446"/>
<polygon fill="red" stroke="red" stroke-width="0.949349" points="1445.28,-54.7513 1435.4,-50.9146 1440.73,-60.0725 1445.28,-54.7513"/>
</g>
<!-- distancia projetil 9&#45;&gt;release -->
<g id="edge67" class="edge"><title>distancia projetil 9&#45;&gt;release</title>
<path fill="none" stroke="green" stroke-width="0.44705" d="M1498.2,-113.194C1488.84,-109.692 1477.37,-105.931 1466.71,-103.882 1313.53,-74.4361 913.46,-117.893 765.712,-67.8823 759.555,-65.7982 753.462,-62.6823 747.79,-59.1845"/>
<polygon fill="green" stroke="green" stroke-width="0.44705" points="749.527,-56.1351 739.274,-53.4671 745.625,-61.9469 749.527,-56.1351"/>
</g>
<!-- distancia projetil 10 -->
<g id="node10" class="node"><title>distancia projetil 10</title>
<polygon fill="lightgray" stroke="black" points="1766.71,-131.267 1678.71,-131.267 1678.71,-113.267 1766.71,-113.267 1766.71,-131.267"/>
<text text-anchor="middle" x="1722.71" y="-120.067" font-family="Times New Roman,serif" font-size="9.00">distancia projetil 10</text>
</g>
<!-- distancia projetil 10&#45;&gt;esquerda -->
<g id="edge39" class="edge"><title>distancia projetil 10&#45;&gt;esquerda</title>
<path fill="none" stroke="green" stroke-width="0.132987" d="M1702.14,-113.188C1692.45,-109.73 1680.64,-106.006 1669.71,-103.882 1434.46,-58.1794 1370.51,-88.0424 1131.71,-67.8823 1031.89,-59.455 915,-46.853 852.847,-39.9339"/>
<polygon fill="green" stroke="green" stroke-width="0.132987" points="852.95,-36.4238 842.623,-38.7921 852.173,-43.3805 852.95,-36.4238"/>
</g>
<!-- distancia projetil 10&#45;&gt;direita -->
<g id="edge65" class="edge"><title>distancia projetil 10&#45;&gt;direita</title>
<path fill="none" stroke="red" stroke-width="0.209378" d="M1701.31,-113.209C1691.76,-109.883 1680.29,-106.258 1669.71,-103.882 1544.28,-75.7186 1510.03,-85.6631 1382.71,-67.8823 1320.63,-59.2125 1248.63,-47.8608 1205.97,-40.9995"/>
<polygon fill="red" stroke="red" stroke-width="0.209378" points="1206.47,-37.5347 1196.04,-39.3979 1205.35,-44.4454 1206.47,-37.5347"/>
</g>
<!-- distancia projetil 10&#45;&gt;pular -->
<g id="edge74" class="edge"><title>distancia projetil 10&#45;&gt;pular</title>
<path fill="none" stroke="red" stroke-width="0.191113" d="M1703.43,-113.146C1668.1,-98.2711 1592.7,-66.5197 1549.63,-48.3815"/>
<polygon fill="red" stroke="red" stroke-width="0.191113" points="1550.76,-45.0605 1540.19,-44.4051 1548.04,-51.5118 1550.76,-45.0605"/>
</g>
<!-- distancia projetil 10&#45;&gt;atirar -->
<g id="edge9" class="edge"><title>distancia projetil 10&#45;&gt;atirar</title>
<path fill="none" stroke="red" stroke-width="0.186332" d="M1700.2,-113.19C1690.85,-110.016 1679.83,-106.511 1669.71,-103.882 1588.21,-82.7187 1563.53,-94.694 1483.71,-67.8823 1471.23,-63.6904 1458.11,-57.6399 1446.82,-51.8652"/>
<polygon fill="red" stroke="red" stroke-width="0.186332" points="1448.3,-48.6885 1437.82,-47.1263 1445.04,-54.8823 1448.3,-48.6885"/>
</g>
<!-- distancia projetil 11 -->
<g id="node11" class="node"><title>distancia projetil 11</title>
<polygon fill="lightgray" stroke="black" points="657.712,-131.267 569.712,-131.267 569.712,-113.267 657.712,-113.267 657.712,-131.267"/>
<text text-anchor="middle" x="613.712" y="-120.067" font-family="Times New Roman,serif" font-size="9.00">distancia projetil 11</text>
</g>
<!-- distancia projetil 11&#45;&gt;esquerda -->
<g id="edge77" class="edge"><title>distancia projetil 11&#45;&gt;esquerda</title>
<path fill="none" stroke="green" stroke-width="0.388499" stroke-dasharray="1,5" d="M636.775,-113.219C671.167,-101.113 734.154,-78.5053 755.712,-67.8823 761.128,-65.2132 766.698,-62.145 772.098,-58.9779"/>
<polygon fill="green" stroke="green" stroke-width="0.388499" points="774.227,-61.7807 780.969,-53.6076 770.602,-55.7926 774.227,-61.7807"/>
</g>
<!-- distancia projetil 11&#45;&gt;direita -->
<g id="edge48" class="edge"><title>distancia projetil 11&#45;&gt;direita</title>
<path fill="none" stroke="green" stroke-width="0.313454" d="M635.38,-113.179C644.883,-109.888 656.238,-106.298 666.712,-103.882 755.711,-83.3516 1030.62,-50.7679 1131.28,-39.1925"/>
<polygon fill="green" stroke="green" stroke-width="0.313454" points="1131.76,-42.6604 1141.3,-38.044 1130.96,-35.706 1131.76,-42.6604"/>
</g>
<!-- distancia projetil 11&#45;&gt;pular -->
<g id="edge19" class="edge"><title>distancia projetil 11&#45;&gt;pular</title>
<path fill="none" stroke="green" stroke-width="0.156502" stroke-dasharray="1,5" d="M633.762,-113.26C643.539,-109.727 655.567,-105.921 666.712,-103.882 842.202,-71.7839 1299.28,-123.724 1468.71,-67.8823 1476.52,-65.3104 1484.24,-61.1196 1491.16,-56.5758"/>
<polygon fill="green" stroke="green" stroke-width="0.156502" points="1493.3,-59.3511 1499.45,-50.7269 1489.26,-53.631 1493.3,-59.3511"/>
</g>
<!-- distancia projetil 11&#45;&gt;atirar -->
<g id="edge87" class="edge"><title>distancia projetil 11&#45;&gt;atirar</title>
<path fill="none" stroke="red" stroke-width="0.330311" d="M634.032,-113.267C643.766,-109.781 655.683,-106.012 666.712,-103.882 910.285,-56.8491 977.33,-96.7903 1223.71,-67.8823 1279.57,-61.3289 1343.84,-49.4876 1382.32,-41.9304"/>
<polygon fill="red" stroke="red" stroke-width="0.330311" points="1383.33,-45.298 1392.46,-39.9205 1381.97,-38.4315 1383.33,-45.298"/>
</g>
<!-- distancia projetil 11&#45;&gt;release -->
<g id="edge57" class="edge"><title>distancia projetil 11&#45;&gt;release</title>
<path fill="none" stroke="green" stroke-width="0.32783" stroke-dasharray="1,5" d="M623.684,-112.99C638.29,-100.866 666.111,-77.7732 687.716,-59.8392"/>
<polygon fill="green" stroke="green" stroke-width="0.32783" points="690.193,-62.332 695.652,-53.2519 685.722,-56.9458 690.193,-62.332"/>
</g>
<!-- distancia projetil 12 -->
<g id="node12" class="node"><title>distancia projetil 12</title>
<polygon fill="lightgray" stroke="black" points="1212.71,-131.267 1124.71,-131.267 1124.71,-113.267 1212.71,-113.267 1212.71,-131.267"/>
<text text-anchor="middle" x="1168.71" y="-120.067" font-family="Times New Roman,serif" font-size="9.00">distancia projetil 12</text>
</g>
<!-- distancia projetil 12&#45;&gt;esquerda -->
<g id="edge28" class="edge"><title>distancia projetil 12&#45;&gt;esquerda</title>
<path fill="none" stroke="red" stroke-width="0.193995" d="M1145.19,-113.188C1135.77,-110.085 1124.78,-106.632 1114.71,-103.882 1022.04,-78.5799 911.782,-55.4122 852.181,-43.452"/>
<polygon fill="red" stroke="red" stroke-width="0.193995" points="852.5,-39.9467 842.008,-41.4209 851.13,-46.8112 852.5,-39.9467"/>
</g>
<!-- distancia projetil 12&#45;&gt;direita -->
<g id="edge56" class="edge"><title>distancia projetil 12&#45;&gt;direita</title>
<path fill="none" stroke="green" stroke-width="0.250674" d="M1168.71,-112.99C1168.71,-103.458 1168.71,-87.1459 1168.71,-71.8914"/>
<polygon fill="green" stroke="green" stroke-width="0.250674" points="1172.21,-71.5958 1168.71,-61.5958 1165.21,-71.5959 1172.21,-71.5958"/>
</g>
<!-- distancia projetil 12&#45;&gt;pular -->
<g id="edge85" class="edge"><title>distancia projetil 12&#45;&gt;pular</title>
<path fill="none" stroke="red" stroke-width="0.169969" stroke-dasharray="1,5" d="M1190.39,-113.22C1199.89,-109.937 1211.25,-106.342 1221.71,-103.882 1329.71,-78.4999 1365.21,-107.823 1468.71,-67.8823 1476.08,-65.0406 1483.44,-60.9282 1490.14,-56.5665"/>
<polygon fill="red" stroke="red" stroke-width="0.169969" points="1492.58,-59.134 1498.81,-50.5604 1488.6,-53.381 1492.58,-59.134"/>
</g>
<!-- distancia projetil 12&#45;&gt;atirar -->
<g id="edge18" class="edge"><title>distancia projetil 12&#45;&gt;atirar</title>
<path fill="none" stroke="red" stroke-width="0.207342" d="M1192.04,-113.146C1236.47,-97.6817 1333.3,-63.9769 1384.1,-46.2914"/>
<polygon fill="red" stroke="red" stroke-width="0.207342" points="1385.33,-49.5709 1393.62,-42.978 1383.03,-42.96 1385.33,-49.5709"/>
</g>
<!-- distancia projetil 12&#45;&gt;release -->
<g id="edge6" class="edge"><title>distancia projetil 12&#45;&gt;release</title>
<path fill="none" stroke="green" stroke-width="0.249033" d="M1147.18,-113.196C1137.4,-109.826 1125.6,-106.171 1114.71,-103.882 962.111,-71.8148 912.078,-121.662 765.712,-67.8823 759.735,-65.6862 753.793,-62.576 748.231,-59.1347"/>
<polygon fill="green" stroke="green" stroke-width="0.249033" points="750.111,-56.1819 739.852,-53.538 746.223,-62.0028 750.111,-56.1819"/>
</g>
<!-- distancia projetil 13 -->
<g id="node13" class="node"><title>distancia projetil 13</title>
<polygon fill="lightgray" stroke="black" points="1318.71,-131.267 1230.71,-131.267 1230.71,-113.267 1318.71,-113.267 1318.71,-131.267"/>
<text text-anchor="middle" x="1274.71" y="-120.067" font-family="Times New Roman,serif" font-size="9.00">distancia projetil 13</text>
</g>
<!-- distancia projetil 13&#45;&gt;esquerda -->
<g id="edge72" class="edge"><title>distancia projetil 13&#45;&gt;esquerda</title>
<path fill="none" stroke="red" stroke-width="0.109586" stroke-dasharray="1,5" d="M1252.75,-113.236C1243.3,-109.994 1232.06,-106.426 1221.71,-103.882 1089.07,-71.2557 928.628,-49.3814 852.668,-40.0536"/>
<polygon fill="red" stroke="red" stroke-width="0.109586" points="852.871,-36.5526 842.522,-38.8209 852.027,-43.5015 852.871,-36.5526"/>
</g>
<!-- distancia projetil 13&#45;&gt;direita -->
<g id="edge45" class="edge"><title>distancia projetil 13&#45;&gt;direita</title>
<path fill="none" stroke="green" stroke-width="0.560869" d="M1264.55,-112.99C1249.32,-100.587 1219.99,-76.7049 1197.77,-58.6098"/>
<polygon fill="green" stroke="green" stroke-width="0.560869" points="1199.91,-55.8379 1189.95,-52.237 1195.49,-61.2657 1199.91,-55.8379"/>
</g>
<!-- distancia projetil 13&#45;&gt;pular -->
<g id="edge35" class="edge"><title>distancia projetil 13&#45;&gt;pular</title>
<path fill="none" stroke="green" stroke-width="0.415193" d="M1318.89,-113.361C1359.15,-105.175 1419.66,-90.391 1468.71,-67.8823 1475.89,-64.5905 1483.18,-60.2987 1489.87,-55.9064"/>
<polygon fill="green" stroke="green" stroke-width="0.415193" points="1492.29,-58.4882 1498.55,-49.9389 1488.32,-52.7197 1492.29,-58.4882"/>
</g>
<!-- distancia projetil 13&#45;&gt;atirar -->
<g id="edge4" class="edge"><title>distancia projetil 13&#45;&gt;atirar</title>
<path fill="none" stroke="green" stroke-width="0.220612" d="M1288.07,-113.146C1310.6,-99.4523 1356.65,-71.4564 1387.1,-52.9452"/>
<polygon fill="green" stroke="green" stroke-width="0.220612" points="1389.28,-55.7166 1396,-47.5312 1385.64,-49.7352 1389.28,-55.7166"/>
</g>
<!-- distancia projetil 13&#45;&gt;release -->
<g id="edge93" class="edge"><title>distancia projetil 13&#45;&gt;release</title>
<path fill="none" stroke="red" stroke-width="0.293039" d="M1254.13,-113.247C1244.44,-109.802 1232.63,-106.071 1221.71,-103.882 1022.38,-63.9178 957.363,-135.702 765.712,-67.8823 759.584,-65.7138 753.506,-62.556 747.839,-59.0426"/>
<polygon fill="red" stroke="red" stroke-width="0.293039" points="749.577,-55.9933 739.324,-53.3201 745.672,-61.8031 749.577,-55.9933"/>
</g>
<!-- distancia projetil 14 -->
<g id="node14" class="node"><title>distancia projetil 14</title>
<polygon fill="lightgray" stroke="black" points="1004.71,-131.267 916.712,-131.267 916.712,-113.267 1004.71,-113.267 1004.71,-131.267"/>
<text text-anchor="middle" x="960.712" y="-120.067" font-family="Times New Roman,serif" font-size="9.00">distancia projetil 14</text>
</g>
<!-- distancia projetil 14&#45;&gt;esquerda -->
<g id="edge17" class="edge"><title>distancia projetil 14&#45;&gt;esquerda</title>
<path fill="none" stroke="green" stroke-width="0.34491" d="M946.412,-113.146C923.782,-100.293 878.967,-74.8416 846.598,-56.458"/>
<polygon fill="green" stroke="green" stroke-width="0.34491" points="848.251,-53.3718 837.827,-51.4767 844.794,-59.4587 848.251,-53.3718"/>
</g>
<!-- distancia projetil 14&#45;&gt;direita -->
<g id="edge47" class="edge"><title>distancia projetil 14&#45;&gt;direita</title>
<path fill="none" stroke="red" stroke-width="0.208474" d="M980.28,-113.146C1015.54,-98.5129 1090.15,-67.5477 1134.17,-49.2768"/>
<polygon fill="red" stroke="red" stroke-width="0.208474" points="1135.71,-52.4277 1143.6,-45.3618 1133.03,-45.9624 1135.71,-52.4277"/>
</g>
<!-- distancia projetil 14&#45;&gt;pular -->
<g id="edge55" class="edge"><title>distancia projetil 14&#45;&gt;pular</title>
<path fill="none" stroke="red" stroke-width="0.29121" d="M981.298,-113.248C990.989,-109.803 1002.79,-106.072 1013.71,-103.882 1212.6,-63.9877 1277.16,-134.654 1468.71,-67.8823 1476.33,-65.2252 1483.9,-61.0856 1490.73,-56.6272"/>
<polygon fill="red" stroke="red" stroke-width="0.29121" points="1492.74,-59.4938 1498.93,-50.8968 1488.73,-53.7559 1492.74,-59.4938"/>
</g>
<!-- distancia projetil 14&#45;&gt;atirar -->
<g id="edge84" class="edge"><title>distancia projetil 14&#45;&gt;atirar</title>
<path fill="none" stroke="green" stroke-width="0.169968" d="M982.677,-113.256C992.134,-110.018 1003.37,-106.447 1013.71,-103.882 1015.97,-103.322 1285.33,-57.3535 1382.37,-40.7993"/>
<polygon fill="green" stroke="green" stroke-width="0.169968" points="1383,-44.2424 1392.27,-39.1105 1381.82,-37.3421 1383,-44.2424"/>
</g>
<!-- distancia projetil 14&#45;&gt;release -->
<g id="edge94" class="edge"><title>distancia projetil 14&#45;&gt;release</title>
<path fill="none" stroke="red" stroke-width="0.341915" d="M916.65,-113.586C876.14,-105.518 815.065,-90.7763 765.712,-67.8823 759.936,-65.2028 754.096,-61.8471 748.573,-58.3104"/>
<polygon fill="red" stroke="red" stroke-width="0.341915" points="750.459,-55.3607 740.21,-52.6747 746.547,-61.1657 750.459,-55.3607"/>
</g>
<!-- distancia projetil 15 -->
<g id="node15" class="node"><title>distancia projetil 15</title>
<polygon fill="lightgray" stroke="black" points="551.712,-131.267 463.712,-131.267 463.712,-113.267 551.712,-113.267 551.712,-131.267"/>
<text text-anchor="middle" x="507.712" y="-120.067" font-family="Times New Roman,serif" font-size="9.00">distancia projetil 15</text>
</g>
<!-- distancia projetil 15&#45;&gt;esquerda -->
<g id="edge62" class="edge"><title>distancia projetil 15&#45;&gt;esquerda</title>
<path fill="none" stroke="green" stroke-width="0.149618" d="M529.952,-113.234C539.358,-110.03 550.484,-106.491 560.712,-103.882 646.109,-82.0989 673.523,-99.6968 755.712,-67.8823 761.343,-65.7025 767.034,-62.9105 772.493,-59.8762"/>
<polygon fill="green" stroke="green" stroke-width="0.149618" points="774.58,-62.7081 781.407,-54.6061 771.018,-56.6824 774.58,-62.7081"/>
</g>
<!-- distancia projetil 15&#45;&gt;direita -->
<g id="edge34" class="edge"><title>distancia projetil 15&#45;&gt;direita</title>
<path fill="none" stroke="green" stroke-width="0.789623" d="M528.841,-113.238C538.442,-109.877 550.021,-106.216 560.712,-103.882 574.766,-100.814 1000.52,-53.5591 1131.05,-39.1077"/>
<polygon fill="green" stroke="green" stroke-width="0.789623" points="1131.78,-42.5475 1141.34,-37.9684 1131.01,-35.59 1131.78,-42.5475"/>
</g>
<!-- distancia projetil 15&#45;&gt;atirar -->
<g id="edge71" class="edge"><title>distancia projetil 15&#45;&gt;atirar</title>
<path fill="none" stroke="green" stroke-width="0.531989" d="M528.022,-113.216C537.755,-109.719 549.672,-105.955 560.712,-103.882 850.744,-49.4252 930.449,-100.761 1223.71,-67.8823 1279.6,-61.6165 1343.86,-49.6911 1382.33,-42.0384"/>
<polygon fill="green" stroke="green" stroke-width="0.531989" points="1383.35,-45.4028 1392.47,-40.0015 1381.97,-38.54 1383.35,-45.4028"/>
</g>
<!-- distancia projetil 15&#45;&gt;release -->
<g id="edge81" class="edge"><title>distancia projetil 15&#45;&gt;release</title>
<path fill="none" stroke="green" stroke-width="0.527251" d="M527.468,-113.146C562.759,-98.6386 637.101,-68.0783 681.686,-49.7504"/>
<polygon fill="green" stroke="green" stroke-width="0.527251" points="683.075,-52.9639 690.993,-45.9247 680.413,-46.4896 683.075,-52.9639"/>
</g>
<!-- distancia projetil 16 -->
<g id="node16" class="node"><title>distancia projetil 16</title>
<polygon fill="lightgray" stroke="black" points="1872.71,-131.267 1784.71,-131.267 1784.71,-113.267 1872.71,-113.267 1872.71,-131.267"/>
<text text-anchor="middle" x="1828.71" y="-120.067" font-family="Times New Roman,serif" font-size="9.00">distancia projetil 16</text>
</g>
<!-- distancia projetil 16&#45;&gt;esquerda -->
<g id="edge11" class="edge"><title>distancia projetil 16&#45;&gt;esquerda</title>
<path fill="none" stroke="green" stroke-width="0.337515" d="M1808.4,-113.224C1798.67,-109.729 1786.75,-105.964 1775.71,-103.882 1494.01,-50.7562 1417.49,-90.4307 1131.71,-67.8823 1031.85,-60.0028 914.973,-47.188 852.834,-40.0876"/>
<polygon fill="green" stroke="green" stroke-width="0.337515" points="852.947,-36.5776 842.613,-38.9147 852.149,-43.532 852.947,-36.5776"/>
</g>
<!-- distancia projetil 16&#45;&gt;direita -->
<g id="edge42" class="edge"><title>distancia projetil 16&#45;&gt;direita</title>
<path fill="none" stroke="green" stroke-width="0.11751" d="M1807.86,-113.22C1798.21,-109.813 1786.52,-106.12 1775.71,-103.882 1603.96,-68.3226 1556.81,-89.2347 1382.71,-67.8823 1320.5,-60.2515 1248.53,-48.5852 1205.92,-41.3783"/>
<polygon fill="green" stroke="green" stroke-width="0.11751" points="1206.45,-37.9174 1196,-39.6913 1205.27,-44.8183 1206.45,-37.9174"/>
</g>
<!-- distancia projetil 16&#45;&gt;pular -->
<g id="edge70" class="edge"><title>distancia projetil 16&#45;&gt;pular</title>
<path fill="none" stroke="red" stroke-width="0.388608" stroke-dasharray="1,5" d="M1805.06,-113.194C1795.92,-110.16 1785.37,-106.753 1775.71,-103.882 1695.85,-80.1331 1600.96,-55.7524 1551.51,-43.3311"/>
<polygon fill="red" stroke="red" stroke-width="0.388608" points="1552.22,-39.9007 1541.67,-40.8666 1550.52,-46.691 1552.22,-39.9007"/>
</g>
<!-- distancia projetil 16&#45;&gt;atirar -->
<g id="edge2" class="edge"><title>distancia projetil 16&#45;&gt;atirar</title>
<path fill="none" stroke="green" stroke-width="0.186854" d="M1807.32,-113.198C1797.76,-109.87 1786.3,-106.247 1775.71,-103.882 1648.1,-75.3704 1609.02,-105.25 1483.71,-67.8823 1471.1,-64.1203 1457.95,-58.1585 1446.67,-52.3346"/>
<polygon fill="green" stroke="green" stroke-width="0.186854" points="1448.16,-49.1622 1437.69,-47.5262 1444.85,-55.3329 1448.16,-49.1622"/>
</g>
<!-- distancia inimigo 1 -->
<g id="node17" class="node"><title>distancia inimigo 1</title>
<polygon fill="lightgray" stroke="black" points="344.212,-131.267 261.212,-131.267 261.212,-113.267 344.212,-113.267 344.212,-131.267"/>
<text text-anchor="middle" x="302.712" y="-120.067" font-family="Times New Roman,serif" font-size="9.00">distancia inimigo 1</text>
</g>
<!-- distancia inimigo 1&#45;&gt;esquerda -->
<g id="edge27" class="edge"><title>distancia inimigo 1&#45;&gt;esquerda</title>
<path fill="none" stroke="red" stroke-width="0.19651" d="M322.343,-113.188C331.434,-109.774 342.469,-106.085 352.712,-103.882 528.516,-66.0696 585.164,-124.892 755.712,-67.8823 761.504,-65.946 767.316,-63.265 772.857,-60.2613"/>
<polygon fill="red" stroke="red" stroke-width="0.19651" points="775.018,-63.0516 781.877,-54.9759 771.479,-57.0121 775.018,-63.0516"/>
</g>
<!-- distancia inimigo 1&#45;&gt;direita -->
<g id="edge95" class="edge"><title>distancia inimigo 1&#45;&gt;direita</title>
<path fill="none" stroke="green" stroke-width="0.56621" d="M322.323,-113.095C331.41,-109.662 342.448,-105.985 352.712,-103.882 578.36,-57.6547 640.302,-88.4982 869.712,-67.8823 963.777,-59.4291 1074.15,-46.4802 1130.85,-39.6058"/>
<polygon fill="green" stroke="green" stroke-width="0.56621" points="1131.63,-43.0378 1141.13,-38.3551 1130.78,-36.089 1131.63,-43.0378"/>
</g>
<!-- distancia inimigo 1&#45;&gt;release -->
<g id="edge5" class="edge"><title>distancia inimigo 1&#45;&gt;release</title>
<path fill="none" stroke="green" stroke-width="0.288716" stroke-dasharray="1,5" d="M323.908,-113.119C332.724,-109.934 343.122,-106.44 352.712,-103.882 469.821,-72.6471 611.709,-50.1165 678.871,-40.3448"/>
<polygon fill="green" stroke="green" stroke-width="0.288716" points="679.594,-43.7768 688.993,-38.8867 678.596,-36.8483 679.594,-43.7768"/>
</g>
<!-- distancia inimigo 2 -->
<g id="node18" class="node"><title>distancia inimigo 2</title>
<polygon fill="lightgray" stroke="black" points="1660.21,-131.267 1577.21,-131.267 1577.21,-113.267 1660.21,-113.267 1660.21,-131.267"/>
<text text-anchor="middle" x="1618.71" y="-120.067" font-family="Times New Roman,serif" font-size="9.00">distancia inimigo 2</text>
</g>
<!-- distancia inimigo 2&#45;&gt;direita -->
<g id="edge3" class="edge"><title>distancia inimigo 2&#45;&gt;direita</title>
<path fill="none" stroke="green" stroke-width="0.519565" d="M1598.02,-113.219C1589.11,-109.974 1578.5,-106.409 1568.71,-103.882 1499.94,-86.1272 1291.44,-53.5844 1205.92,-40.5536"/>
<polygon fill="green" stroke="green" stroke-width="0.519565" points="1206.29,-37.0701 1195.88,-39.0275 1205.24,-43.9906 1206.29,-37.0701"/>
</g>
<!-- distancia inimigo 2&#45;&gt;pular -->
<g id="edge12" class="edge"><title>distancia inimigo 2&#45;&gt;pular</title>
<path fill="none" stroke="green" stroke-width="0.523932" d="M1609.03,-112.99C1594.23,-100.342 1565.47,-75.7571 1544.16,-57.5446"/>
<polygon fill="green" stroke="green" stroke-width="0.523932" points="1546.28,-54.7513 1536.4,-50.9146 1541.73,-60.0725 1546.28,-54.7513"/>
</g>
<!-- distancia inimigo 2&#45;&gt;atirar -->
<g id="edge44" class="edge"><title>distancia inimigo 2&#45;&gt;atirar</title>
<path fill="none" stroke="green" stroke-width="0.649238" d="M1596.51,-113.113C1569.57,-103.077 1522.89,-85.2264 1483.71,-67.8823 1471.77,-62.5943 1458.84,-56.3646 1447.56,-50.7541"/>
<polygon fill="green" stroke="green" stroke-width="0.649238" points="1449.04,-47.5787 1438.53,-46.2213 1445.9,-53.835 1449.04,-47.5787"/>
</g>
<!-- distancia inimigo 2&#45;&gt;release -->
<g id="edge91" class="edge"><title>distancia inimigo 2&#45;&gt;release</title>
<path fill="none" stroke="red" stroke-width="0.18958" d="M1599.6,-113.16C1590.43,-109.651 1579.18,-105.893 1568.71,-103.882 1393.29,-70.1983 935.091,-124.601 765.712,-67.8823 759.548,-65.8183 753.452,-62.7123 747.779,-59.2182"/>
<polygon fill="red" stroke="red" stroke-width="0.18958" points="749.516,-56.1688 739.262,-53.502 745.615,-61.9811 749.516,-56.1688"/>
</g>
<!-- direcao sprites 1 -->
<g id="node19" class="node"><title>direcao sprites 1</title>
<polygon fill="lightgray" stroke="black" points="1816.71,-194.652 1740.71,-194.652 1740.71,-176.652 1816.71,-176.652 1816.71,-194.652"/>
<text text-anchor="middle" x="1778.71" y="-183.452" font-family="Times New Roman,serif" font-size="9.00">direcao sprites 1</text>
</g>
<!-- direcao sprites 1&#45;&gt;esquerda -->
<g id="edge16" class="edge"><title>direcao sprites 1&#45;&gt;esquerda</title>
<path fill="none" stroke="green" stroke-width="0.898131" d="M1740.55,-184.28C1506.86,-181.916 278.467,-168.189 251.712,-140.652 240.324,-128.931 240.576,-115.842 251.712,-103.882 289.97,-62.7935 702.309,-85.207 755.712,-67.8823 761.521,-65.9976 767.342,-63.3455 772.888,-60.3554"/>
<polygon fill="green" stroke="green" stroke-width="0.898131" points="775.045,-63.1489 781.911,-55.0799 771.512,-57.106 775.045,-63.1489"/>
</g>
<!-- direcao sprites 1&#45;&gt;direita -->
<g id="edge82" class="edge"><title>direcao sprites 1&#45;&gt;direita</title>
<path fill="none" stroke="red" stroke-width="0.403417" d="M1740.47,-183.733C1651.23,-181.089 1431.76,-171.548 1365.71,-140.652 1344.42,-130.694 1347.25,-116.938 1327.71,-103.882 1288.72,-77.8274 1238.26,-57.942 1204.76,-46.3727"/>
<polygon fill="red" stroke="red" stroke-width="0.403417" points="1205.53,-42.9393 1194.94,-43.0516 1203.29,-49.5705 1205.53,-42.9393"/>
</g>
<!-- direcao sprites 1&#45;&gt;pular -->
<g id="edge54" class="edge"><title>direcao sprites 1&#45;&gt;pular</title>
<path fill="none" stroke="red" stroke-width="0.577298" stroke-dasharray="1,5" d="M1816.73,-184.229C1928.85,-182.592 2252.31,-174.913 2283.71,-140.652 2294.75,-128.605 2294.74,-115.945 2283.71,-103.882 2233.78,-49.2569 1695.84,-37.5396 1552.59,-35.3804"/>
<polygon fill="red" stroke="red" stroke-width="0.577298" points="1552.64,-31.8809 1542.59,-35.2358 1552.54,-38.8802 1552.64,-31.8809"/>
</g>
<!-- direcao sprites 1&#45;&gt;atirar -->
<g id="edge26" class="edge"><title>direcao sprites 1&#45;&gt;atirar</title>
<path fill="none" stroke="green" stroke-width="0.370181" d="M1816.92,-182.931C1907.03,-178.483 2126.91,-165.198 2148.71,-140.652 2159.56,-128.433 2159.95,-115.746 2148.71,-103.882 2097.82,-50.1628 1555.31,-86.5847 1483.71,-67.8823 1470.88,-64.5294 1457.6,-58.5926 1446.28,-52.6737"/>
<polygon fill="green" stroke="green" stroke-width="0.370181" points="1447.74,-49.4835 1437.28,-47.7631 1444.38,-55.6274 1447.74,-49.4835"/>
</g>
<!-- direcao sprites 1&#45;&gt;release -->
<g id="edge92" class="edge"><title>direcao sprites 1&#45;&gt;release</title>
<path fill="none" stroke="green" stroke-width="0.13882" d="M1740.63,-184.29C1506.07,-181.971 266.694,-168.417 239.712,-140.652 228.323,-128.932 229.013,-116.235 239.712,-103.882 296.563,-38.2431 574.354,-33.6899 678.329,-34.3432"/>
<polygon fill="green" stroke="green" stroke-width="0.13882" points="678.382,-37.8436 688.411,-34.4266 678.44,-30.8439 678.382,-37.8436"/>
</g>
<!-- 30 -->
<g id="node27" class="node"><title>30</title>
<ellipse fill="white" stroke="black" cx="2256.71" cy="-122.267" rx="18.2703" ry="18.2703"/>
<text text-anchor="middle" x="2256.71" y="-120.067" font-family="Times New Roman,serif" font-size="9.00">30</text>
</g>
<!-- direcao sprites 1&#45;&gt;30 -->
<g id="edge97" class="edge"><title>direcao sprites 1&#45;&gt;30</title>
<path fill="none" stroke="red" stroke-width="0.214021" d="M1817.05,-182.827C1910.68,-178.059 2148.85,-163.953 2224.71,-140.652 2227.34,-139.844 2230,-138.809 2232.6,-137.647"/>
<polygon fill="red" stroke="red" stroke-width="0.214021" points="2234.3,-140.71 2241.64,-133.063 2231.13,-134.468 2234.3,-140.71"/>
</g>
<!-- direcao sprites 2 -->
<g id="node20" class="node"><title>direcao sprites 2</title>
<polygon fill="lightgray" stroke="black" points="1966.71,-131.267 1890.71,-131.267 1890.71,-113.267 1966.71,-113.267 1966.71,-131.267"/>
<text text-anchor="middle" x="1928.71" y="-120.067" font-family="Times New Roman,serif" font-size="9.00">direcao sprites 2</text>
</g>
<!-- direcao sprites 2&#45;&gt;esquerda -->
<g id="edge61" class="edge"><title>direcao sprites 2&#45;&gt;esquerda</title>
<path fill="none" stroke="red" stroke-width="0.761141" stroke-dasharray="1,5" d="M1910.79,-113.165C1902.18,-109.657 1891.6,-105.898 1881.71,-103.882 1554.72,-37.2158 1464.5,-92.8205 1131.71,-67.8823 1031.82,-60.3963 914.955,-47.4286 852.826,-40.198"/>
<polygon fill="red" stroke="red" stroke-width="0.761141" points="852.945,-36.6882 842.606,-39.0028 852.132,-43.6408 852.945,-36.6882"/>
</g>
<!-- direcao sprites 2&#45;&gt;direita -->
<g id="edge90" class="edge"><title>direcao sprites 2&#45;&gt;direita</title>
<path fill="none" stroke="green" stroke-width="0.562469" d="M1910.32,-113.091C1901.79,-109.657 1891.41,-105.98 1881.71,-103.882 1664.39,-56.8453 1603.66,-92.8169 1382.71,-67.8823 1320.43,-60.8531 1248.49,-49.0047 1205.89,-41.5977"/>
<polygon fill="green" stroke="green" stroke-width="0.562469" points="1206.43,-38.1389 1195.98,-39.8613 1205.23,-45.034 1206.43,-38.1389"/>
</g>
<!-- direcao sprites 2&#45;&gt;pular -->
<g id="edge25" class="edge"><title>direcao sprites 2&#45;&gt;pular</title>
<path fill="none" stroke="green" stroke-width="0.292181" d="M1909.29,-113.251C1900.91,-110.011 1890.93,-106.442 1881.71,-103.882 1762.83,-70.8871 1617.74,-48.6314 1552.46,-39.5462"/>
<polygon fill="green" stroke="green" stroke-width="0.292181" points="1552.7,-36.0466 1542.32,-38.1517 1551.75,-42.9813 1552.7,-36.0466"/>
</g>
<!-- direcao sprites 2&#45;&gt;atirar -->
<g id="edge53" class="edge"><title>direcao sprites 2&#45;&gt;atirar</title>
<path fill="none" stroke="green" stroke-width="0.72353" d="M1910.3,-113.172C1901.76,-109.755 1891.39,-106.068 1881.71,-103.882 1708.47,-64.7333 1654.72,-115.869 1483.71,-67.8823 1471.04,-64.3255 1457.87,-58.4062 1446.6,-52.5587"/>
<polygon fill="green" stroke="green" stroke-width="0.72353" points="1448.1,-49.3877 1437.64,-47.7171 1444.77,-55.5475 1448.1,-49.3877"/>
</g>
<!-- esquerda&#45;&gt;esquerda -->
<g id="edge83" class="edge"><title>esquerda&#45;&gt;esquerda</title>
<path fill="none" stroke="red" stroke-width="0.134371" stroke-dasharray="1,5" d="M838.602,-50.3404C850.591,-51.2669 860.653,-45.8005 860.653,-33.9411 860.653,-25.7878 855.897,-20.6561 849.029,-18.5462"/>
<polygon fill="red" stroke="red" stroke-width="0.134371" points="848.892,-15.0169 838.602,-17.5418 848.221,-21.9846 848.892,-15.0169"/>
</g>
<!-- direita&#45;&gt;direita -->
<g id="edge13" class="edge"><title>direita&#45;&gt;direita</title>
<path fill="none" stroke="green" stroke-width="0.290257" d="M1191.69,-49.861C1203.58,-52.3103 1214.29,-47.0036 1214.29,-33.9411 1214.29,-24.7566 1208.99,-19.4064 1201.72,-17.8906"/>
<polygon fill="green" stroke="green" stroke-width="0.290257" points="1201.65,-14.3911 1191.69,-18.0212 1201.74,-21.3905 1201.65,-14.3911"/>
</g>
<!-- pular&#45;&gt;pular -->
<g id="edge37" class="edge"><title>pular&#45;&gt;pular</title>
<path fill="none" stroke="green" stroke-width="0.150939" d="M1537.5,-49.4099C1549.33,-52.8474 1560.46,-47.6911 1560.46,-33.9411 1560.46,-24.2732 1554.96,-18.8538 1547.58,-17.6831"/>
<polygon fill="green" stroke="green" stroke-width="0.150939" points="1547.2,-14.2021 1537.5,-18.4724 1547.74,-21.1808 1547.2,-14.2021"/>
</g>
<!-- atirar&#45;&gt;atirar -->
<g id="edge76" class="edge"><title>atirar&#45;&gt;atirar</title>
<path fill="none" stroke="green" stroke-width="0.582274" stroke-dasharray="1,5" d="M1436.5,-49.4099C1448.33,-52.8474 1459.46,-47.6911 1459.46,-33.9411 1459.46,-24.2732 1453.96,-18.8538 1446.58,-17.6831"/>
<polygon fill="green" stroke="green" stroke-width="0.582274" points="1446.2,-14.2021 1436.5,-18.4724 1446.74,-21.1808 1446.2,-14.2021"/>
</g>
<!-- 57&#45;&gt;esquerda -->
<g id="edge88" class="edge"><title>57&#45;&gt;esquerda</title>
<path fill="none" stroke="green" stroke-width="0.106497" d="M52.5997,-117.819C73.9598,-113.835 110.807,-107.378 142.712,-103.882 278.357,-89.0202 625.651,-109.169 755.712,-67.8823 761.533,-66.0343 767.361,-63.4028 772.91,-60.4225"/>
<polygon fill="green" stroke="green" stroke-width="0.106497" points="775.063,-63.2183 781.935,-55.1541 771.534,-57.1729 775.063,-63.2183"/>
</g>
<!-- 57&#45;&gt;release -->
<g id="edge14" class="edge"><title>57&#45;&gt;release</title>
<path fill="none" stroke="green" stroke-width="0.602" d="M49.7952,-111.496C54.9674,-108.581 60.9163,-105.685 66.7119,-103.882 182.311,-67.9222 556.354,-44.0688 678.634,-37.0758"/>
<polygon fill="green" stroke="green" stroke-width="0.602" points="678.885,-40.5673 688.672,-36.5074 678.49,-33.5785 678.885,-40.5673"/>
</g>
<!-- 30&#45;&gt;pular -->
<g id="edge46" class="edge"><title>30&#45;&gt;pular</title>
<path fill="none" stroke="green" stroke-width="0.239053" d="M2241.64,-111.467C2236.47,-108.55 2230.52,-105.661 2224.71,-103.882 2096.68,-64.6366 1677.08,-42.3633 1552.74,-36.5095"/>
<polygon fill="green" stroke="green" stroke-width="0.239053" points="1552.78,-33.008 1542.63,-36.0395 1552.46,-40.0004 1552.78,-33.008"/>
</g>
</g>
</svg>
