<?xml version="1.0" encoding="UTF-8" standalone="no"?>
<!DOCTYPE svg PUBLIC "-//W3C//DTD SVG 1.1//EN"
 "http://www.w3.org/Graphics/SVG/1.1/DTD/svg11.dtd">
<!-- Generated by graphviz version 2.38.0 (20140413.2041)
 -->
<!-- Title: %3 Pages: 1 -->
<svg width="2123pt" height="208pt"
 viewBox="0.00 0.00 2122.57 208.31" xmlns="http://www.w3.org/2000/svg" xmlns:xlink="http://www.w3.org/1999/xlink">
<g id="graph0" class="graph" transform="scale(1 1) rotate(0) translate(4 204.309)">
<title>%3</title>
<polygon fill="white" stroke="none" points="-4,4 -4,-204.309 2118.57,-204.309 2118.57,4 -4,4"/>
<!-- dintancia projetil 1 -->
<g id="node1" class="node"><title>dintancia projetil 1</title>
<polygon fill="lightgray" stroke="black" points="852.574,-134.095 768.574,-134.095 768.574,-116.095 852.574,-116.095 852.574,-134.095"/>
<text text-anchor="middle" x="810.574" y="-122.895" font-family="Times New Roman,serif" font-size="9.00">dintancia projetil 1</text>
</g>
<!-- esquerda -->
<g id="node21" class="node"><title>esquerda</title>
<ellipse fill="lightblue" stroke="black" cx="607.574" cy="-33.9411" rx="33.8824" ry="33.8824"/>
<text text-anchor="middle" x="607.574" y="-31.7411" font-family="Times New Roman,serif" font-size="9.00">esquerda</text>
</g>
<!-- dintancia projetil 1&#45;&gt;esquerda -->
<g id="edge3" class="edge"><title>dintancia projetil 1&#45;&gt;esquerda</title>
<path fill="none" stroke="green" stroke-width="0.586893" d="M792.201,-116.026C759.74,-101.77 691.543,-71.8192 647.736,-52.5799"/>
<polygon fill="green" stroke="green" stroke-width="0.586893" points="649.075,-49.345 638.511,-48.5283 646.26,-55.7541 649.075,-49.345"/>
</g>
<!-- direita -->
<g id="node22" class="node"><title>direita</title>
<ellipse fill="lightblue" stroke="black" cx="1318.57" cy="-33.9411" rx="27.6545" ry="27.6545"/>
<text text-anchor="middle" x="1318.57" y="-31.7411" font-family="Times New Roman,serif" font-size="9.00">direita</text>
</g>
<!-- dintancia projetil 1&#45;&gt;direita -->
<g id="edge22" class="edge"><title>dintancia projetil 1&#45;&gt;direita</title>
<path fill="none" stroke="green" stroke-width="0.636391" stroke-dasharray="1,5" d="M827.642,-115.911C837.365,-111.613 849.902,-106.673 861.574,-103.882 1030.87,-63.4027 1084.02,-115.067 1251.57,-67.8823 1263.35,-64.5669 1275.54,-59.2202 1286.25,-53.7901"/>
<polygon fill="green" stroke="green" stroke-width="0.636391" points="1288.02,-56.8119 1295.23,-49.0456 1284.75,-50.6227 1288.02,-56.8119"/>
</g>
<!-- pular -->
<g id="node23" class="node"><title>pular</title>
<ellipse fill="lightblue" stroke="black" cx="1217.57" cy="-33.9411" rx="25" ry="25"/>
<text text-anchor="middle" x="1217.57" y="-31.7411" font-family="Times New Roman,serif" font-size="9.00">pular</text>
</g>
<!-- dintancia projetil 1&#45;&gt;pular -->
<g id="edge15" class="edge"><title>dintancia projetil 1&#45;&gt;pular</title>
<path fill="none" stroke="red" stroke-width="0.319834" d="M828.197,-116.053C837.879,-111.906 850.2,-107.064 861.574,-103.882 953.611,-78.1349 979.843,-86.5458 1073.57,-67.8823 1111.43,-60.3441 1154.55,-50.2828 1183.66,-43.2711"/>
<polygon fill="red" stroke="red" stroke-width="0.319834" points="1184.82,-46.5917 1193.71,-40.8362 1183.17,-39.7884 1184.82,-46.5917"/>
</g>
<!-- atirar -->
<g id="node24" class="node"><title>atirar</title>
<ellipse fill="lightblue" stroke="black" cx="1021.57" cy="-33.9411" rx="25" ry="25"/>
<text text-anchor="middle" x="1021.57" y="-31.7411" font-family="Times New Roman,serif" font-size="9.00">atirar</text>
</g>
<!-- dintancia projetil 1&#45;&gt;atirar -->
<g id="edge58" class="edge"><title>dintancia projetil 1&#45;&gt;atirar</title>
<path fill="none" stroke="red" stroke-width="0.628755" stroke-dasharray="1,5" d="M829.671,-116.026C865.886,-100.724 944.897,-67.3393 989.417,-48.5283"/>
<polygon fill="red" stroke="red" stroke-width="0.628755" points="991.044,-51.6407 998.893,-44.5245 988.319,-45.1927 991.044,-51.6407"/>
</g>
<!-- release -->
<g id="node25" class="node"><title>release</title>
<ellipse fill="lightblue" stroke="black" cx="509.574" cy="-33.9411" rx="28.9828" ry="28.9828"/>
<text text-anchor="middle" x="509.574" y="-31.7411" font-family="Times New Roman,serif" font-size="9.00">release</text>
</g>
<!-- dintancia projetil 1&#45;&gt;release -->
<g id="edge71" class="edge"><title>dintancia projetil 1&#45;&gt;release</title>
<path fill="none" stroke="green" stroke-width="0.302421" stroke-dasharray="1,5" d="M792.089,-115.936C782.282,-111.857 769.94,-107.115 758.574,-103.882 674.225,-79.8911 646.598,-98.9023 564.574,-67.8823 556.888,-64.9756 549.061,-61.0057 541.813,-56.8276"/>
<polygon fill="green" stroke="green" stroke-width="0.302421" points="543.363,-53.6749 532.997,-51.4884 539.737,-59.6625 543.363,-53.6749"/>
</g>
<!-- distancia projetil 2 -->
<g id="node2" class="node"><title>distancia projetil 2</title>
<polygon fill="lightgray" stroke="black" points="1158.07,-134.095 1075.07,-134.095 1075.07,-116.095 1158.07,-116.095 1158.07,-134.095"/>
<text text-anchor="middle" x="1116.57" y="-122.895" font-family="Times New Roman,serif" font-size="9.00">distancia projetil 2</text>
</g>
<!-- distancia projetil 2&#45;&gt;direita -->
<g id="edge43" class="edge"><title>distancia projetil 2&#45;&gt;direita</title>
<path fill="none" stroke="red" stroke-width="0.764438" d="M1136.25,-116.078C1168.22,-103.026 1230.01,-77.66 1251.57,-67.8823 1262.62,-62.8723 1274.55,-57.123 1285.23,-51.8445"/>
<polygon fill="red" stroke="red" stroke-width="0.764438" points="1286.85,-54.9464 1294.24,-47.3574 1283.73,-48.6796 1286.85,-54.9464"/>
</g>
<!-- distancia projetil 2&#45;&gt;pular -->
<g id="edge42" class="edge"><title>distancia projetil 2&#45;&gt;pular</title>
<path fill="none" stroke="green" stroke-width="0.593444" stroke-dasharray="1,5" d="M1125.89,-115.868C1140.77,-102.738 1170.39,-76.5886 1191.95,-57.5578"/>
<polygon fill="green" stroke="green" stroke-width="0.593444" points="1194.31,-60.1476 1199.49,-50.9059 1189.67,-54.8997 1194.31,-60.1476"/>
</g>
<!-- distancia projetil 2&#45;&gt;atirar -->
<g id="edge21" class="edge"><title>distancia projetil 2&#45;&gt;atirar</title>
<path fill="none" stroke="red" stroke-width="1.39211" d="M1107.81,-115.868C1094.04,-102.948 1066.84,-77.4236 1046.65,-58.4785"/>
<polygon fill="red" stroke="red" stroke-width="1.39211" points="1048.99,-55.8707 1039.3,-51.5797 1044.2,-60.975 1048.99,-55.8707"/>
</g>
<!-- distancia projetil 2&#45;&gt;release -->
<g id="edge8" class="edge"><title>distancia projetil 2&#45;&gt;release</title>
<path fill="none" stroke="red" stroke-width="0.544633" d="M1086.3,-116.067C1069.18,-111.818 1047.31,-106.875 1027.57,-103.882 823.507,-72.9441 761.221,-130.574 564.574,-67.8823 556.67,-65.3626 548.707,-61.5179 541.388,-57.3334"/>
<polygon fill="red" stroke="red" stroke-width="0.544633" points="542.877,-54.1416 532.516,-51.9253 539.233,-60.1187 542.877,-54.1416"/>
</g>
<!-- distancia projetil 3 -->
<g id="node3" class="node"><title>distancia projetil 3</title>
<polygon fill="lightgray" stroke="black" points="347.074,-134.095 264.074,-134.095 264.074,-116.095 347.074,-116.095 347.074,-134.095"/>
<text text-anchor="middle" x="305.574" y="-122.895" font-family="Times New Roman,serif" font-size="9.00">distancia projetil 3</text>
</g>
<!-- distancia projetil 3&#45;&gt;esquerda -->
<g id="edge63" class="edge"><title>distancia projetil 3&#45;&gt;esquerda</title>
<path fill="none" stroke="red" stroke-width="0.258623" d="M323.691,-115.935C333.307,-111.856 345.413,-107.114 356.574,-103.882 439.55,-79.8586 466.257,-97.0313 547.574,-67.8823 555.125,-65.1756 562.865,-61.6061 570.17,-57.817"/>
<polygon fill="red" stroke="red" stroke-width="0.258623" points="572.022,-60.7938 579.143,-52.9484 568.684,-54.6411 572.022,-60.7938"/>
</g>
<!-- distancia projetil 3&#45;&gt;pular -->
<g id="edge29" class="edge"><title>distancia projetil 3&#45;&gt;pular</title>
<path fill="none" stroke="red" stroke-width="0.342857" stroke-dasharray="1,5" d="M322.139,-115.928C331.91,-111.522 344.66,-106.468 356.574,-103.882 668.38,-36.1977 757.518,-111.625 1073.57,-67.8823 1111.81,-62.5903 1154.86,-52.1338 1183.85,-44.4152"/>
<polygon fill="red" stroke="red" stroke-width="0.342857" points="1185.12,-47.6981 1193.86,-41.71 1183.29,-40.9406 1185.12,-47.6981"/>
</g>
<!-- distancia projetil 3&#45;&gt;atirar -->
<g id="edge16" class="edge"><title>distancia projetil 3&#45;&gt;atirar</title>
<path fill="none" stroke="green" stroke-width="0.258727" d="M322.654,-115.962C332.381,-111.68 344.918,-106.739 356.574,-103.882 387.513,-96.3003 854.514,-51.0148 986.858,-38.2742"/>
<polygon fill="green" stroke="green" stroke-width="0.258727" points="987.239,-41.7537 996.858,-37.3121 986.569,-34.7859 987.239,-41.7537"/>
</g>
<!-- distancia projetil 3&#45;&gt;release -->
<g id="edge72" class="edge"><title>distancia projetil 3&#45;&gt;release</title>
<path fill="none" stroke="red" stroke-width="0.177111" d="M324.037,-116.026C357.775,-101.282 429.926,-69.7496 473.647,-50.6423"/>
<polygon fill="red" stroke="red" stroke-width="0.177111" points="475.288,-53.7447 483.05,-46.5329 472.485,-47.3305 475.288,-53.7447"/>
</g>
<!-- distancia projetil 4 -->
<g id="node4" class="node"><title>distancia projetil 4</title>
<polygon fill="lightgray" stroke="black" points="246.074,-134.095 163.074,-134.095 163.074,-116.095 246.074,-116.095 246.074,-134.095"/>
<text text-anchor="middle" x="204.574" y="-122.895" font-family="Times New Roman,serif" font-size="9.00">distancia projetil 4</text>
</g>
<!-- distancia projetil 4&#45;&gt;esquerda -->
<g id="edge49" class="edge"><title>distancia projetil 4&#45;&gt;esquerda</title>
<path fill="none" stroke="green" stroke-width="0.175521" d="M221.324,-116.038C230.862,-111.781 243.153,-106.838 254.574,-103.882 381.591,-71.0139 422.713,-108.178 547.574,-67.8823 555.287,-65.3931 563.149,-61.8921 570.533,-58.0951"/>
<polygon fill="green" stroke="green" stroke-width="0.175521" points="572.465,-61.0287 579.583,-53.1812 569.125,-54.8769 572.465,-61.0287"/>
</g>
<!-- distancia projetil 4&#45;&gt;direita -->
<g id="edge67" class="edge"><title>distancia projetil 4&#45;&gt;direita</title>
<path fill="none" stroke="green" stroke-width="0.281584" stroke-dasharray="1,5" d="M220.337,-116.071C229.962,-111.594 242.67,-106.421 254.574,-103.882 471.397,-57.6375 1036.58,-121.984 1251.57,-67.8823 1263.43,-64.8976 1275.65,-59.6378 1286.36,-54.1855"/>
<polygon fill="green" stroke="green" stroke-width="0.281584" points="1288.15,-57.1947 1295.33,-49.397 1284.86,-51.0199 1288.15,-57.1947"/>
</g>
<!-- distancia projetil 4&#45;&gt;release -->
<g id="edge47" class="edge"><title>distancia projetil 4&#45;&gt;release</title>
<path fill="none" stroke="green" stroke-width="0.103816" d="M222.897,-116.072C232.271,-112.125 243.923,-107.46 254.574,-103.882 330.424,-78.3996 421.335,-55.6281 471.543,-43.7093"/>
<polygon fill="green" stroke="green" stroke-width="0.103816" points="472.392,-47.1051 481.322,-41.4032 470.786,-40.292 472.392,-47.1051"/>
</g>
<!-- distancia projetil 5 -->
<g id="node5" class="node"><title>distancia projetil 5</title>
<polygon fill="lightgray" stroke="black" points="1864.07,-134.095 1781.07,-134.095 1781.07,-116.095 1864.07,-116.095 1864.07,-134.095"/>
<text text-anchor="middle" x="1822.57" y="-122.895" font-family="Times New Roman,serif" font-size="9.00">distancia projetil 5</text>
</g>
<!-- distancia projetil 5&#45;&gt;direita -->
<g id="edge23" class="edge"><title>distancia projetil 5&#45;&gt;direita</title>
<path fill="none" stroke="red" stroke-width="0.151943" d="M1804.97,-115.975C1795.3,-111.805 1782.97,-106.966 1771.57,-103.882 1620.86,-63.1117 1434.97,-44.3338 1356.44,-37.7906"/>
<polygon fill="red" stroke="red" stroke-width="0.151943" points="1356.33,-34.2706 1346.08,-36.9475 1355.76,-41.2476 1356.33,-34.2706"/>
</g>
<!-- distancia projetil 5&#45;&gt;pular -->
<g id="edge52" class="edge"><title>distancia projetil 5&#45;&gt;pular</title>
<path fill="none" stroke="green" stroke-width="0.78342" d="M1805.99,-116.032C1796.21,-111.66 1783.46,-106.606 1771.57,-103.882 1558.73,-55.091 1491.77,-127.04 1281.57,-67.8823 1269.66,-64.5307 1257.4,-58.8449 1246.83,-53.1316"/>
<polygon fill="green" stroke="green" stroke-width="0.78342" points="1248.45,-50.0319 1238.03,-48.1617 1245.01,-56.127 1248.45,-50.0319"/>
</g>
<!-- distancia projetil 6 -->
<g id="node6" class="node"><title>distancia projetil 6</title>
<polygon fill="lightgray" stroke="black" points="1259.07,-134.095 1176.07,-134.095 1176.07,-116.095 1259.07,-116.095 1259.07,-134.095"/>
<text text-anchor="middle" x="1217.57" y="-122.895" font-family="Times New Roman,serif" font-size="9.00">distancia projetil 6</text>
</g>
<!-- distancia projetil 6&#45;&gt;esquerda -->
<g id="edge69" class="edge"><title>distancia projetil 6&#45;&gt;esquerda</title>
<path fill="none" stroke="red" stroke-width="0.414401" d="M1200.47,-116.049C1190.74,-111.795 1178.2,-106.852 1166.57,-103.882 978.911,-55.9586 746.999,-40.9227 651.658,-36.572"/>
<polygon fill="red" stroke="red" stroke-width="0.414401" points="651.665,-33.069 641.521,-36.1266 651.357,-40.0623 651.665,-33.069"/>
</g>
<!-- distancia projetil 6&#45;&gt;direita -->
<g id="edge39" class="edge"><title>distancia projetil 6&#45;&gt;direita</title>
<path fill="none" stroke="green" stroke-width="0.19015" d="M1226.89,-115.868C1241.25,-103.198 1269.33,-78.4076 1290.65,-59.5865"/>
<polygon fill="green" stroke="green" stroke-width="0.19015" points="1292.98,-62.1978 1298.17,-52.956 1288.35,-56.9498 1292.98,-62.1978"/>
</g>
<!-- distancia projetil 6&#45;&gt;pular -->
<g id="edge64" class="edge"><title>distancia projetil 6&#45;&gt;pular</title>
<path fill="none" stroke="green" stroke-width="0.387039" d="M1217.57,-115.868C1217.57,-105.23 1217.57,-86.0459 1217.57,-69.0257"/>
<polygon fill="green" stroke="green" stroke-width="0.387039" points="1221.07,-68.8035 1217.57,-58.8036 1214.07,-68.8036 1221.07,-68.8035"/>
</g>
<!-- distancia projetil 6&#45;&gt;atirar -->
<g id="edge7" class="edge"><title>distancia projetil 6&#45;&gt;atirar</title>
<path fill="none" stroke="red" stroke-width="0.419177" d="M1199.83,-116.026C1166.61,-100.915 1094.63,-68.1708 1053.01,-49.2403"/>
<polygon fill="red" stroke="red" stroke-width="0.419177" points="1054.42,-46.0374 1043.87,-45.0828 1051.52,-52.4092 1054.42,-46.0374"/>
</g>
<!-- distancia projetil 7 -->
<g id="node7" class="node"><title>distancia projetil 7</title>
<polygon fill="lightgray" stroke="black" points="1360.07,-134.095 1277.07,-134.095 1277.07,-116.095 1360.07,-116.095 1360.07,-134.095"/>
<text text-anchor="middle" x="1318.57" y="-122.895" font-family="Times New Roman,serif" font-size="9.00">distancia projetil 7</text>
</g>
<!-- distancia projetil 7&#45;&gt;esquerda -->
<g id="edge62" class="edge"><title>distancia projetil 7&#45;&gt;esquerda</title>
<path fill="none" stroke="red" stroke-width="0.353268" d="M1301.49,-115.965C1291.77,-111.684 1279.23,-106.743 1267.57,-103.882 1207.94,-89.2439 789.889,-51.173 651.757,-38.851"/>
<polygon fill="red" stroke="red" stroke-width="0.353268" points="651.813,-35.3423 641.542,-37.9413 651.192,-42.3147 651.813,-35.3423"/>
</g>
<!-- distancia projetil 7&#45;&gt;direita -->
<g id="edge35" class="edge"><title>distancia projetil 7&#45;&gt;direita</title>
<path fill="none" stroke="green" stroke-width="0.30476" stroke-dasharray="1,5" d="M1318.57,-115.868C1318.57,-105.896 1318.57,-88.4149 1318.57,-72.2459"/>
<polygon fill="green" stroke="green" stroke-width="0.30476" points="1322.07,-71.902 1318.57,-61.902 1315.07,-71.9021 1322.07,-71.902"/>
</g>
<!-- distancia projetil 7&#45;&gt;pular -->
<g id="edge50" class="edge"><title>distancia projetil 7&#45;&gt;pular</title>
<path fill="none" stroke="red" stroke-width="0.431313" d="M1309.25,-115.868C1294.38,-102.738 1264.75,-76.5886 1243.2,-57.5578"/>
<polygon fill="red" stroke="red" stroke-width="0.431313" points="1245.47,-54.8997 1235.66,-50.9059 1240.84,-60.1476 1245.47,-54.8997"/>
</g>
<!-- distancia projetil 7&#45;&gt;atirar -->
<g id="edge55" class="edge"><title>distancia projetil 7&#45;&gt;atirar</title>
<path fill="none" stroke="red" stroke-width="0.149973" d="M1299.38,-115.938C1289.89,-112.049 1278.22,-107.474 1267.57,-103.882 1192.79,-78.6591 1103.11,-55.1917 1055.38,-43.2258"/>
<polygon fill="red" stroke="red" stroke-width="0.149973" points="1056.12,-39.8039 1045.57,-40.7815 1054.43,-46.5961 1056.12,-39.8039"/>
</g>
<!-- distancia projetil 8 -->
<g id="node8" class="node"><title>distancia projetil 8</title>
<polygon fill="lightgray" stroke="black" points="1461.07,-134.095 1378.07,-134.095 1378.07,-116.095 1461.07,-116.095 1461.07,-134.095"/>
<text text-anchor="middle" x="1419.57" y="-122.895" font-family="Times New Roman,serif" font-size="9.00">distancia projetil 8</text>
</g>
<!-- distancia projetil 8&#45;&gt;esquerda -->
<g id="edge73" class="edge"><title>distancia projetil 8&#45;&gt;esquerda</title>
<path fill="none" stroke="red" stroke-width="0.141933" d="M1402.86,-115.897C1393.33,-111.594 1381.04,-106.654 1369.57,-103.882 1351.98,-99.6296 811.824,-52.6302 651.815,-38.7678"/>
<polygon fill="red" stroke="red" stroke-width="0.141933" points="651.663,-35.2416 641.398,-37.8657 651.059,-42.2155 651.663,-35.2416"/>
</g>
<!-- distancia projetil 8&#45;&gt;direita -->
<g id="edge17" class="edge"><title>distancia projetil 8&#45;&gt;direita</title>
<path fill="none" stroke="green" stroke-width="0.494335" d="M1410.25,-115.868C1395.9,-103.198 1367.82,-78.4076 1346.49,-59.5865"/>
<polygon fill="green" stroke="green" stroke-width="0.494335" points="1348.8,-56.9498 1338.98,-52.956 1344.16,-62.1978 1348.8,-56.9498"/>
</g>
<!-- distancia projetil 8&#45;&gt;pular -->
<g id="edge30" class="edge"><title>distancia projetil 8&#45;&gt;pular</title>
<path fill="none" stroke="green" stroke-width="0.167994" stroke-dasharray="1,5" d="M1399.64,-116.032C1362.8,-101.116 1287.24,-70.4901 1281.57,-67.8823 1270.42,-62.7531 1258.41,-56.7104 1247.83,-51.2102"/>
<polygon fill="green" stroke="green" stroke-width="0.167994" points="1249.45,-48.1054 1238.97,-46.553 1246.19,-54.3023 1249.45,-48.1054"/>
</g>
<!-- distancia projetil 8&#45;&gt;atirar -->
<g id="edge46" class="edge"><title>distancia projetil 8&#45;&gt;atirar</title>
<path fill="none" stroke="green" stroke-width="0.112252" d="M1401.82,-115.943C1392.4,-111.866 1380.53,-107.123 1369.57,-103.882 1288.83,-79.992 1266.16,-84.2715 1183.57,-67.8823 1139.37,-59.1112 1088.45,-48.7081 1055.68,-41.974"/>
<polygon fill="green" stroke="green" stroke-width="0.112252" points="1056.21,-38.5097 1045.71,-39.9233 1054.8,-45.3662 1056.21,-38.5097"/>
</g>
<!-- distancia projetil 9 -->
<g id="node9" class="node"><title>distancia projetil 9</title>
<polygon fill="lightgray" stroke="black" points="1562.07,-134.095 1479.07,-134.095 1479.07,-116.095 1562.07,-116.095 1562.07,-134.095"/>
<text text-anchor="middle" x="1520.57" y="-122.895" font-family="Times New Roman,serif" font-size="9.00">distancia projetil 9</text>
</g>
<!-- distancia projetil 9&#45;&gt;esquerda -->
<g id="edge48" class="edge"><title>distancia projetil 9&#45;&gt;esquerda</title>
<path fill="none" stroke="green" stroke-width="0.592111" d="M1504.33,-116.032C1494.74,-111.659 1482.24,-106.606 1470.57,-103.882 1260.95,-54.9568 1202.14,-85.1779 987.574,-67.8823 865.932,-58.077 722.499,-45.318 651.687,-38.9392"/>
<polygon fill="green" stroke="green" stroke-width="0.592111" points="651.642,-35.4211 641.368,-38.0086 651.013,-42.3928 651.642,-35.4211"/>
</g>
<!-- distancia projetil 9&#45;&gt;direita -->
<g id="edge31" class="edge"><title>distancia projetil 9&#45;&gt;direita</title>
<path fill="none" stroke="green" stroke-width="0.139787" d="M1502.29,-116.026C1468.52,-101.123 1395.89,-69.0659 1352.75,-50.027"/>
<polygon fill="green" stroke="green" stroke-width="0.139787" points="1354.06,-46.7796 1343.5,-45.9437 1351.24,-53.1836 1354.06,-46.7796"/>
</g>
<!-- distancia projetil 9&#45;&gt;pular -->
<g id="edge9" class="edge"><title>distancia projetil 9&#45;&gt;pular</title>
<path fill="none" stroke="green" stroke-width="1.12088" stroke-dasharray="1,5" d="M1502.82,-115.929C1493.4,-111.849 1481.53,-107.107 1470.57,-103.882 1388.54,-79.742 1362.42,-95.7354 1281.57,-67.8823 1269.97,-63.884 1257.85,-58.1042 1247.31,-52.4988"/>
<polygon fill="green" stroke="green" stroke-width="1.12088" points="1248.97,-49.4146 1238.52,-47.6668 1245.6,-55.5496 1248.97,-49.4146"/>
</g>
<!-- distancia projetil 9&#45;&gt;atirar -->
<g id="edge65" class="edge"><title>distancia projetil 9&#45;&gt;atirar</title>
<path fill="none" stroke="red" stroke-width="0.238853" d="M1503.82,-116.05C1494.28,-111.795 1481.99,-106.852 1470.57,-103.882 1346.16,-71.5195 1310.43,-88.7053 1183.57,-67.8823 1139.11,-60.5832 1088.25,-49.8465 1055.56,-42.6344"/>
<polygon fill="red" stroke="red" stroke-width="0.238853" points="1056.14,-39.1778 1045.62,-40.4255 1054.62,-46.0111 1056.14,-39.1778"/>
</g>
<!-- distancia projetil 10 -->
<g id="node10" class="node"><title>distancia projetil 10</title>
<polygon fill="lightgray" stroke="black" points="1668.57,-134.095 1580.57,-134.095 1580.57,-116.095 1668.57,-116.095 1668.57,-134.095"/>
<text text-anchor="middle" x="1624.57" y="-122.895" font-family="Times New Roman,serif" font-size="9.00">distancia projetil 10</text>
</g>
<!-- distancia projetil 10&#45;&gt;direita -->
<g id="edge51" class="edge"><title>distancia projetil 10&#45;&gt;direita</title>
<path fill="none" stroke="red" stroke-width="0.792392" stroke-dasharray="1,5" d="M1604.86,-116.046C1594.95,-112.138 1582.72,-107.515 1571.57,-103.882 1495.61,-79.112 1404.88,-55.9008 1355.34,-43.7543"/>
<polygon fill="red" stroke="red" stroke-width="0.792392" points="1355.96,-40.3027 1345.42,-41.3337 1354.31,-47.1034 1355.96,-40.3027"/>
</g>
<!-- distancia projetil 10&#45;&gt;atirar -->
<g id="edge20" class="edge"><title>distancia projetil 10&#45;&gt;atirar</title>
<path fill="none" stroke="red" stroke-width="0.154003" d="M1606.8,-115.926C1596.69,-111.633 1583.66,-106.692 1571.57,-103.882 1402.89,-64.6637 1354.9,-93.1738 1183.57,-67.8823 1138.99,-61.3015 1088.16,-50.402 1055.51,-42.9566"/>
<polygon fill="red" stroke="red" stroke-width="0.154003" points="1056.11,-39.5033 1045.58,-40.6705 1054.54,-46.3249 1056.11,-39.5033"/>
</g>
<!-- distancia projetil 11 -->
<g id="node11" class="node"><title>distancia projetil 11</title>
<polygon fill="lightgray" stroke="black" points="1970.57,-134.095 1882.57,-134.095 1882.57,-116.095 1970.57,-116.095 1970.57,-134.095"/>
<text text-anchor="middle" x="1926.57" y="-122.895" font-family="Times New Roman,serif" font-size="9.00">distancia projetil 11</text>
</g>
<!-- distancia projetil 11&#45;&gt;direita -->
<g id="edge5" class="edge"><title>distancia projetil 11&#45;&gt;direita</title>
<path fill="none" stroke="red" stroke-width="0.8385" stroke-dasharray="1,5" d="M1908.77,-116.071C1898.64,-111.823 1885.61,-106.88 1873.57,-103.882 1682.8,-56.3922 1446.6,-40.897 1356.18,-36.4938"/>
<polygon fill="red" stroke="red" stroke-width="0.8385" points="1356.3,-32.9953 1346.14,-36.0217 1355.97,-39.9875 1356.3,-32.9953"/>
</g>
<!-- distancia projetil 11&#45;&gt;pular -->
<g id="edge61" class="edge"><title>distancia projetil 11&#45;&gt;pular</title>
<path fill="none" stroke="green" stroke-width="0.463927" d="M1909.31,-115.983C1899.15,-111.595 1885.9,-106.541 1873.57,-103.882 1615.91,-48.277 1535.76,-137.694 1281.57,-67.8823 1269.64,-64.6058 1257.37,-58.937 1246.8,-53.2163"/>
<polygon fill="green" stroke="green" stroke-width="0.463927" points="1248.43,-50.1171 1238.01,-48.2345 1244.98,-56.2081 1248.43,-50.1171"/>
</g>
<!-- distancia projetil 12 -->
<g id="node12" class="node"><title>distancia projetil 12</title>
<polygon fill="lightgray" stroke="black" points="106.574,-134.095 18.5738,-134.095 18.5738,-116.095 106.574,-116.095 106.574,-134.095"/>
<text text-anchor="middle" x="62.5738" y="-122.895" font-family="Times New Roman,serif" font-size="9.00">distancia projetil 12</text>
</g>
<!-- distancia projetil 12&#45;&gt;esquerda -->
<g id="edge10" class="edge"><title>distancia projetil 12&#45;&gt;esquerda</title>
<path fill="none" stroke="green" stroke-width="0.102992" d="M81.8234,-116.018C92.9502,-111.698 107.328,-106.702 120.574,-103.882 306.852,-64.232 365.245,-122.908 547.574,-67.8823 555.333,-65.5406 563.216,-62.1086 570.607,-58.3333"/>
<polygon fill="green" stroke="green" stroke-width="0.102992" points="572.537,-61.2682 579.659,-53.424 569.2,-55.1149 572.537,-61.2682"/>
</g>
<!-- distancia projetil 12&#45;&gt;atirar -->
<g id="edge57" class="edge"><title>distancia projetil 12&#45;&gt;atirar</title>
<path fill="none" stroke="red" stroke-width="0.419344" d="M93.5285,-116.019C111.034,-111.755 133.394,-106.812 153.574,-103.882 380.64,-70.9146 439.886,-86.5429 668.574,-67.8823 785.138,-58.3707 923.133,-44.8316 986.533,-38.4834"/>
<polygon fill="red" stroke="red" stroke-width="0.419344" points="987.168,-41.9373 996.769,-37.456 986.469,-34.9723 987.168,-41.9373"/>
</g>
<!-- distancia projetil 12&#45;&gt;release -->
<g id="edge1" class="edge"><title>distancia projetil 12&#45;&gt;release</title>
<path fill="none" stroke="green" stroke-width="0.131436" d="M82.996,-116.08C93.9981,-111.991 107.883,-107.195 120.574,-103.882 246.819,-70.9231 400.244,-48.8786 470.742,-39.7274"/>
<polygon fill="green" stroke="green" stroke-width="0.131436" points="471.455,-43.1647 480.928,-38.4203 470.564,-36.2216 471.455,-43.1647"/>
</g>
<!-- distancia projetil 13 -->
<g id="node13" class="node"><title>distancia projetil 13</title>
<polygon fill="lightgray" stroke="black" points="453.574,-134.095 365.574,-134.095 365.574,-116.095 453.574,-116.095 453.574,-134.095"/>
<text text-anchor="middle" x="409.574" y="-122.895" font-family="Times New Roman,serif" font-size="9.00">distancia projetil 13</text>
</g>
<!-- distancia projetil 13&#45;&gt;esquerda -->
<g id="edge70" class="edge"><title>distancia projetil 13&#45;&gt;esquerda</title>
<path fill="none" stroke="green" stroke-width="0.334955" d="M430.278,-116.001C463.184,-103.08 525.911,-78.1989 547.574,-67.8823 554.816,-64.4334 562.41,-60.5131 569.667,-56.6098"/>
<polygon fill="green" stroke="green" stroke-width="0.334955" points="571.532,-59.5792 578.628,-51.7114 568.175,-53.437 571.532,-59.5792"/>
</g>
<!-- distancia projetil 13&#45;&gt;pular -->
<g id="edge28" class="edge"><title>distancia projetil 13&#45;&gt;pular</title>
<path fill="none" stroke="red" stroke-width="0.175357" d="M426.831,-115.974C437,-111.583 450.25,-106.53 462.574,-103.882 728.533,-46.7493 804.28,-106.345 1073.57,-67.8823 1111.79,-62.4243 1154.84,-51.997 1183.84,-44.3307"/>
<polygon fill="red" stroke="red" stroke-width="0.175357" points="1185.1,-47.6167 1193.85,-41.6454 1183.29,-40.8556 1185.1,-47.6167"/>
</g>
<!-- distancia projetil 13&#45;&gt;atirar -->
<g id="edge14" class="edge"><title>distancia projetil 13&#45;&gt;atirar</title>
<path fill="none" stroke="red" stroke-width="0.4843" d="M427.379,-116.067C437.504,-111.818 450.532,-106.874 462.574,-103.882 563.152,-78.8923 880.42,-48.0202 986.58,-38.14"/>
<polygon fill="red" stroke="red" stroke-width="0.4843" points="987.119,-41.6051 996.753,-37.1974 986.473,-34.635 987.119,-41.6051"/>
</g>
<!-- distancia projetil 13&#45;&gt;release -->
<g id="edge44" class="edge"><title>distancia projetil 13&#45;&gt;release</title>
<path fill="none" stroke="red" stroke-width="0.118235" d="M418.802,-115.868C432.693,-103.483 459.576,-79.5165 480.496,-60.8651"/>
<polygon fill="red" stroke="red" stroke-width="0.118235" points="483.047,-63.2795 488.183,-54.0123 478.389,-58.0545 483.047,-63.2795"/>
</g>
<!-- distancia projetil 14 -->
<g id="node14" class="node"><title>distancia projetil 14</title>
<polygon fill="lightgray" stroke="black" points="1041.57,-200.309 953.574,-200.309 953.574,-182.309 1041.57,-182.309 1041.57,-200.309"/>
<text text-anchor="middle" x="997.574" y="-189.109" font-family="Times New Roman,serif" font-size="9.00">distancia projetil 14</text>
</g>
<!-- distancia projetil 14&#45;&gt;esquerda -->
<g id="edge54" class="edge"><title>distancia projetil 14&#45;&gt;esquerda</title>
<path fill="none" stroke="red" stroke-width="0.135884" d="M953.556,-189.675C784.017,-187.022 181.337,-175.557 153.574,-146.309 140.592,-132.633 140.861,-117.809 153.574,-103.882 212.847,-38.9464 463.493,-93.579 547.574,-67.8823 555.325,-65.5134 563.204,-62.0687 570.594,-58.2894"/>
<polygon fill="red" stroke="red" stroke-width="0.135884" points="572.524,-61.2241 579.646,-53.3793 569.187,-55.0711 572.524,-61.2241"/>
</g>
<!-- distancia projetil 14&#45;&gt;direita -->
<g id="edge74" class="edge"><title>distancia projetil 14&#45;&gt;direita</title>
<path fill="none" stroke="green" stroke-width="0.223922" d="M1041.62,-190.01C1228.37,-188.534 1946.75,-180.633 1979.57,-146.309 1992.61,-132.68 1992.2,-117.89 1979.57,-103.882 1937.6,-57.3051 1490.37,-40.1213 1356.33,-35.9953"/>
<polygon fill="green" stroke="green" stroke-width="0.223922" points="1356.24,-32.4913 1346.14,-35.6885 1356.03,-39.4881 1356.24,-32.4913"/>
</g>
<!-- distancia projetil 14&#45;&gt;atirar -->
<g id="edge38" class="edge"><title>distancia projetil 14&#45;&gt;atirar</title>
<path fill="none" stroke="red" stroke-width="0.183173" stroke-dasharray="1,5" d="M1005.5,-182.038C1012.85,-173.756 1023.27,-160.268 1027.57,-146.309 1035.41,-120.912 1033.12,-90.7328 1029.3,-68.201"/>
<polygon fill="red" stroke="red" stroke-width="0.183173" points="1032.7,-67.3038 1027.41,-58.1206 1025.82,-68.5945 1032.7,-67.3038"/>
</g>
<!-- distancia projetil 14&#45;&gt;release -->
<g id="edge26" class="edge"><title>distancia projetil 14&#45;&gt;release</title>
<path fill="none" stroke="red" stroke-width="0.700382" d="M953.258,-190.021C765.364,-188.587 42.5994,-180.838 9.57375,-146.309 -3.4596,-132.682 -2.81556,-118.097 9.57375,-103.882 39.8319,-69.1658 357.554,-44.9773 470.224,-37.4362"/>
<polygon fill="red" stroke="red" stroke-width="0.700382" points="470.724,-40.9109 480.471,-36.7586 470.262,-33.9261 470.724,-40.9109"/>
</g>
<!-- 125 -->
<g id="node26" class="node"><title>125</title>
<ellipse fill="white" stroke="black" cx="997.574" cy="-125.095" rx="21.4286" ry="21.4286"/>
<text text-anchor="middle" x="997.574" y="-122.895" font-family="Times New Roman,serif" font-size="9.00">125</text>
</g>
<!-- distancia projetil 14&#45;&gt;125 -->
<g id="edge40" class="edge"><title>distancia projetil 14&#45;&gt;125</title>
<path fill="none" stroke="green" stroke-width="0.546705" d="M997.574,-182.176C997.574,-175.633 997.574,-166.004 997.574,-156.565"/>
<polygon fill="green" stroke="green" stroke-width="0.546705" points="1001.07,-156.551 997.574,-146.551 994.074,-156.551 1001.07,-156.551"/>
</g>
<!-- distancia projetil 15 -->
<g id="node15" class="node"><title>distancia projetil 15</title>
<polygon fill="lightgray" stroke="black" points="958.574,-134.095 870.574,-134.095 870.574,-116.095 958.574,-116.095 958.574,-134.095"/>
<text text-anchor="middle" x="914.574" y="-122.895" font-family="Times New Roman,serif" font-size="9.00">distancia projetil 15</text>
</g>
<!-- distancia projetil 15&#45;&gt;esquerda -->
<g id="edge41" class="edge"><title>distancia projetil 15&#45;&gt;esquerda</title>
<path fill="none" stroke="green" stroke-width="0.259583" d="M894.858,-116.041C884.953,-112.132 872.717,-107.51 861.574,-103.882 788.407,-80.0655 701.591,-57.7509 650.743,-45.2679"/>
<polygon fill="green" stroke="green" stroke-width="0.259583" points="651.307,-41.8029 640.762,-42.8307 649.646,-48.6031 651.307,-41.8029"/>
</g>
<!-- distancia projetil 15&#45;&gt;direita -->
<g id="edge27" class="edge"><title>distancia projetil 15&#45;&gt;direita</title>
<path fill="none" stroke="red" stroke-width="0.111289" d="M932.383,-116.082C942.509,-111.838 955.537,-106.895 967.574,-103.882 1091,-72.994 1129.71,-104.45 1251.57,-67.8823 1263.29,-64.367 1275.47,-58.9678 1286.18,-53.551"/>
<polygon fill="red" stroke="red" stroke-width="0.111289" points="1287.94,-56.5802 1295.17,-48.8332 1284.69,-50.3822 1287.94,-56.5802"/>
</g>
<!-- distancia projetil 15&#45;&gt;pular -->
<g id="edge11" class="edge"><title>distancia projetil 15&#45;&gt;pular</title>
<path fill="none" stroke="green" stroke-width="0.196584" stroke-dasharray="1,5" d="M934.296,-116.061C944.202,-112.156 956.438,-107.532 967.574,-103.882 1043.9,-78.8653 1135.26,-55.2339 1183.63,-43.2071"/>
<polygon fill="green" stroke="green" stroke-width="0.196584" points="1184.7,-46.5498 1193.56,-40.7512 1183.02,-39.7546 1184.7,-46.5498"/>
</g>
<!-- distancia projetil 15&#45;&gt;atirar -->
<g id="edge66" class="edge"><title>distancia projetil 15&#45;&gt;atirar</title>
<path fill="none" stroke="red" stroke-width="0.256788" stroke-dasharray="1,5" d="M924.448,-115.868C940.368,-102.603 972.235,-76.0507 995.13,-56.9744"/>
<polygon fill="red" stroke="red" stroke-width="0.256788" points="997.371,-59.6629 1002.81,-50.5726 992.89,-54.2851 997.371,-59.6629"/>
</g>
<!-- distancia projetil 15&#45;&gt;release -->
<g id="edge34" class="edge"><title>distancia projetil 15&#45;&gt;release</title>
<path fill="none" stroke="red" stroke-width="0.22772" d="M896.771,-116.057C886.646,-111.805 873.619,-106.862 861.574,-103.882 732.498,-71.9545 690.36,-110.985 564.574,-67.8823 556.726,-65.1931 548.786,-61.2777 541.473,-57.0779"/>
<polygon fill="red" stroke="red" stroke-width="0.22772" points="542.96,-53.8861 532.598,-51.6771 539.321,-59.8658 542.96,-53.8861"/>
</g>
<!-- distancia projetil 16 -->
<g id="node16" class="node"><title>distancia projetil 16</title>
<polygon fill="lightgray" stroke="black" points="2114.57,-134.095 2026.57,-134.095 2026.57,-116.095 2114.57,-116.095 2114.57,-134.095"/>
<text text-anchor="middle" x="2070.57" y="-122.895" font-family="Times New Roman,serif" font-size="9.00">distancia projetil 16</text>
</g>
<!-- distancia projetil 16&#45;&gt;direita -->
<g id="edge45" class="edge"><title>distancia projetil 16&#45;&gt;direita</title>
<path fill="none" stroke="green" stroke-width="0.111038" stroke-dasharray="1,5" d="M2051.31,-116.093C2040.18,-111.798 2025.8,-106.8 2012.57,-103.882 1766.52,-49.5893 1461.9,-38.0091 1356.53,-35.5764"/>
<polygon fill="green" stroke="green" stroke-width="0.111038" points="1356.46,-32.0742 1346.38,-35.3567 1356.31,-39.0725 1356.46,-32.0742"/>
</g>
<!-- distancia inimigo 1 -->
<g id="node17" class="node"><title>distancia inimigo 1</title>
<polygon fill="lightgray" stroke="black" points="750.074,-134.095 667.074,-134.095 667.074,-116.095 750.074,-116.095 750.074,-134.095"/>
<text text-anchor="middle" x="708.574" y="-122.895" font-family="Times New Roman,serif" font-size="9.00">distancia inimigo 1</text>
</g>
<!-- distancia inimigo 1&#45;&gt;direita -->
<g id="edge18" class="edge"><title>distancia inimigo 1&#45;&gt;direita</title>
<path fill="none" stroke="green" stroke-width="0.376354" d="M725.161,-116.03C734.941,-111.658 747.691,-106.604 759.574,-103.882 973.289,-54.9247 1039.98,-125.305 1251.57,-67.8823 1263.38,-64.679 1275.58,-59.3617 1286.29,-53.9241"/>
<polygon fill="green" stroke="green" stroke-width="0.376354" points="1288.07,-56.9417 1295.26,-49.1647 1284.79,-50.7574 1288.07,-56.9417"/>
</g>
<!-- distancia inimigo 1&#45;&gt;atirar -->
<g id="edge25" class="edge"><title>distancia inimigo 1&#45;&gt;atirar</title>
<path fill="none" stroke="green" stroke-width="0.483715" d="M727.268,-116.062C736.831,-112.113 748.715,-107.448 759.574,-103.882 840.091,-77.4387 937.059,-54.0663 987.432,-42.5418"/>
<polygon fill="green" stroke="green" stroke-width="0.483715" points="988.475,-45.8941 997.451,-40.2656 986.924,-39.0681 988.475,-45.8941"/>
</g>
<!-- distancia inimigo 1&#45;&gt;release -->
<g id="edge12" class="edge"><title>distancia inimigo 1&#45;&gt;release</title>
<path fill="none" stroke="red" stroke-width="0.812334" d="M688.238,-115.993C678.903,-112.284 667.683,-107.842 657.574,-103.882 616.305,-87.7168 604.397,-87.3395 564.574,-67.8823 557.191,-64.2749 549.492,-60.0085 542.273,-55.7632"/>
<polygon fill="red" stroke="red" stroke-width="0.812334" points="543.819,-52.6084 533.446,-50.4483 540.208,-58.6052 543.819,-52.6084"/>
</g>
<!-- distancia inimigo 2 -->
<g id="node18" class="node"><title>distancia inimigo 2</title>
<polygon fill="lightgray" stroke="black" points="649.074,-134.095 566.074,-134.095 566.074,-116.095 649.074,-116.095 649.074,-134.095"/>
<text text-anchor="middle" x="607.574" y="-122.895" font-family="Times New Roman,serif" font-size="9.00">distancia inimigo 2</text>
</g>
<!-- distancia inimigo 2&#45;&gt;esquerda -->
<g id="edge68" class="edge"><title>distancia inimigo 2&#45;&gt;esquerda</title>
<path fill="none" stroke="green" stroke-width="0.284495" stroke-dasharray="1,5" d="M607.574,-115.868C607.574,-107.126 607.574,-92.615 607.574,-78.2752"/>
<polygon fill="green" stroke="green" stroke-width="0.284495" points="611.074,-77.9489 607.574,-67.9489 604.074,-77.9489 611.074,-77.9489"/>
</g>
<!-- distancia inimigo 2&#45;&gt;direita -->
<g id="edge13" class="edge"><title>distancia inimigo 2&#45;&gt;direita</title>
<path fill="none" stroke="red" stroke-width="0.784208" d="M623.807,-115.971C633.384,-111.579 645.884,-106.525 657.574,-103.882 915.547,-45.5564 995.893,-135.554 1251.57,-67.8823 1263.4,-64.7529 1275.61,-59.455 1286.31,-54.0125"/>
<polygon fill="red" stroke="red" stroke-width="0.784208" points="1288.1,-57.0273 1295.29,-49.2432 1284.81,-50.8462 1288.1,-57.0273"/>
</g>
<!-- distancia inimigo 2&#45;&gt;pular -->
<g id="edge32" class="edge"><title>distancia inimigo 2&#45;&gt;pular</title>
<path fill="none" stroke="red" stroke-width="0.126137" stroke-dasharray="1,5" d="M623.833,-116.084C633.419,-111.729 645.919,-106.676 657.574,-103.882 838.042,-60.6261 890.236,-96.6432 1073.57,-67.8823 1111.71,-61.8999 1154.78,-51.5649 1183.8,-44.0636"/>
<polygon fill="red" stroke="red" stroke-width="0.126137" points="1185.03,-47.359 1193.82,-41.4414 1183.26,-40.587 1185.03,-47.359"/>
</g>
<!-- distancia inimigo 2&#45;&gt;release -->
<g id="edge59" class="edge"><title>distancia inimigo 2&#45;&gt;release</title>
<path fill="none" stroke="green" stroke-width="0.45715" d="M598.53,-115.868C584.916,-103.483 558.572,-79.5165 538.07,-60.8651"/>
<polygon fill="green" stroke="green" stroke-width="0.45715" points="540.289,-58.1527 530.537,-54.0123 535.579,-63.3306 540.289,-58.1527"/>
</g>
<!-- direcao sprites 1 -->
<g id="node19" class="node"><title>direcao sprites 1</title>
<polygon fill="lightgray" stroke="black" points="547.574,-134.095 471.574,-134.095 471.574,-116.095 547.574,-116.095 547.574,-134.095"/>
<text text-anchor="middle" x="509.574" y="-122.895" font-family="Times New Roman,serif" font-size="9.00">direcao sprites 1</text>
</g>
<!-- direcao sprites 1&#45;&gt;esquerda -->
<g id="edge53" class="edge"><title>direcao sprites 1&#45;&gt;esquerda</title>
<path fill="none" stroke="red" stroke-width="0.116154" d="M518.618,-115.868C531.334,-104.299 555.161,-82.6232 574.956,-64.6147"/>
<polygon fill="red" stroke="red" stroke-width="0.116154" points="577.549,-66.9876 582.591,-57.6692 572.838,-61.8096 577.549,-66.9876"/>
</g>
<!-- direcao sprites 1&#45;&gt;direita -->
<g id="edge36" class="edge"><title>direcao sprites 1&#45;&gt;direita</title>
<path fill="none" stroke="red" stroke-width="0.217768" d="M524.769,-115.924C533.751,-111.516 545.501,-106.463 556.574,-103.882 857.805,-33.6832 952.222,-145.709 1251.57,-67.8823 1263.41,-64.8048 1275.62,-59.5206 1286.33,-54.0746"/>
<polygon fill="red" stroke="red" stroke-width="0.217768" points="1288.12,-57.0874 1295.3,-49.2984 1284.83,-50.9085 1288.12,-57.0874"/>
</g>
<!-- direcao sprites 1&#45;&gt;atirar -->
<g id="edge4" class="edge"><title>direcao sprites 1&#45;&gt;atirar</title>
<path fill="none" stroke="green" stroke-width="0.386006" stroke-dasharray="1,5" d="M525.724,-115.915C534.62,-111.727 545.979,-106.891 556.574,-103.882 713.284,-59.3836 908.322,-42.364 986.64,-37.0253"/>
<polygon fill="green" stroke="green" stroke-width="0.386006" points="987.152,-40.4992 996.9,-36.3478 986.691,-33.5144 987.152,-40.4992"/>
</g>
<!-- direcao sprites 1&#45;&gt;release -->
<g id="edge60" class="edge"><title>direcao sprites 1&#45;&gt;release</title>
<path fill="none" stroke="red" stroke-width="0.125451" stroke-dasharray="1,5" d="M509.574,-115.868C509.574,-106.108 509.574,-89.1554 509.574,-73.2796"/>
<polygon fill="red" stroke="red" stroke-width="0.125451" points="513.074,-73.0889 509.574,-63.0889 506.074,-73.0889 513.074,-73.0889"/>
</g>
<!-- direcao sprites 2 -->
<g id="node20" class="node"><title>direcao sprites 2</title>
<polygon fill="lightgray" stroke="black" points="1762.57,-134.095 1686.57,-134.095 1686.57,-116.095 1762.57,-116.095 1762.57,-134.095"/>
<text text-anchor="middle" x="1724.57" y="-122.895" font-family="Times New Roman,serif" font-size="9.00">direcao sprites 2</text>
</g>
<!-- direcao sprites 2&#45;&gt;direita -->
<g id="edge56" class="edge"><title>direcao sprites 2&#45;&gt;direita</title>
<path fill="none" stroke="red" stroke-width="0.495311" d="M1708.37,-116.094C1699.46,-111.959 1688.1,-107.115 1677.57,-103.882 1562.97,-68.6905 1422.04,-47.8975 1356.02,-39.4146"/>
<polygon fill="red" stroke="red" stroke-width="0.495311" points="1356.45,-35.9405 1346.09,-38.1586 1355.57,-42.8852 1356.45,-35.9405"/>
</g>
<!-- direcao sprites 2&#45;&gt;pular -->
<g id="edge2" class="edge"><title>direcao sprites 2&#45;&gt;pular</title>
<path fill="none" stroke="red" stroke-width="0.157881" d="M1709.34,-116.085C1700.34,-111.731 1688.59,-106.678 1677.57,-103.882 1506.27,-60.4323 1451.27,-117.231 1281.57,-67.8823 1269.69,-64.4276 1257.43,-58.7186 1246.86,-53.0153"/>
<polygon fill="red" stroke="red" stroke-width="0.157881" points="1248.49,-49.9149 1238.05,-48.0618 1245.05,-56.0156 1248.49,-49.9149"/>
</g>
<!-- direcao sprites 2&#45;&gt;atirar -->
<g id="edge19" class="edge"><title>direcao sprites 2&#45;&gt;atirar</title>
<path fill="none" stroke="green" stroke-width="0.318343" d="M1709.36,-116.011C1700.37,-111.632 1688.62,-106.579 1677.57,-103.882 1463.72,-51.6724 1401.66,-97.8761 1183.57,-67.8823 1138.93,-61.7425 1088.11,-50.7431 1055.48,-43.1544"/>
<polygon fill="green" stroke="green" stroke-width="0.318343" points="1056.1,-39.7031 1045.56,-40.8209 1054.49,-46.5172 1056.1,-39.7031"/>
</g>
<!-- esquerda&#45;&gt;esquerda -->
<g id="edge37" class="edge"><title>esquerda&#45;&gt;esquerda</title>
<path fill="none" stroke="red" stroke-width="0.283428" d="M637.203,-50.6915C649.306,-51.7414 659.515,-46.1579 659.515,-33.9411 659.515,-25.3512 654.468,-20.0407 647.264,-18.0096"/>
<polygon fill="red" stroke="red" stroke-width="0.283428" points="647.454,-14.5136 637.203,-17.1908 646.886,-21.4905 647.454,-14.5136"/>
</g>
<!-- direita&#45;&gt;direita -->
<g id="edge33" class="edge"><title>direita&#45;&gt;direita</title>
<path fill="none" stroke="green" stroke-width="0.124191" d="M1341.09,-50.1199C1353.16,-52.8692 1364.15,-47.4763 1364.15,-33.9411 1364.15,-24.4242 1358.71,-18.9327 1351.29,-17.4666"/>
<polygon fill="green" stroke="green" stroke-width="0.124191" points="1350.98,-13.9741 1341.09,-17.7624 1351.18,-20.9711 1350.98,-13.9741"/>
</g>
<!-- atirar&#45;&gt;atirar -->
<g id="edge24" class="edge"><title>atirar&#45;&gt;atirar</title>
<path fill="none" stroke="green" stroke-width="0.450042" d="M1040.92,-49.6255C1052.91,-53.4075 1064.32,-48.1794 1064.32,-33.9411 1064.32,-23.8186 1058.55,-18.2501 1050.91,-17.2356"/>
<polygon fill="green" stroke="green" stroke-width="0.450042" points="1050.51,-13.7582 1040.92,-18.2568 1051.22,-20.7219 1050.51,-13.7582"/>
</g>
<!-- 125&#45;&gt;atirar -->
<g id="edge6" class="edge"><title>125&#45;&gt;atirar</title>
<path fill="none" stroke="red" stroke-width="0.422533" d="M1002.9,-104.309C1005.77,-93.6484 1009.39,-80.2139 1012.67,-68.0136"/>
<polygon fill="red" stroke="red" stroke-width="0.422533" points="1016.11,-68.7096 1015.33,-58.1435 1009.35,-66.89 1016.11,-68.7096"/>
</g>
</g>
</svg>
