<?xml version="1.0" encoding="UTF-8" standalone="no"?>
<!DOCTYPE svg PUBLIC "-//W3C//DTD SVG 1.1//EN"
 "http://www.w3.org/Graphics/SVG/1.1/DTD/svg11.dtd">
<!-- Generated by graphviz version 2.38.0 (20140413.2041)
 -->
<!-- Title: %3 Pages: 1 -->
<svg width="2561pt" height="215pt"
 viewBox="0.00 0.00 2561.50 215.38" xmlns="http://www.w3.org/2000/svg" xmlns:xlink="http://www.w3.org/1999/xlink">
<g id="graph0" class="graph" transform="scale(1 1) rotate(0) translate(4 211.38)">
<title>%3</title>
<polygon fill="white" stroke="none" points="-4,4 -4,-211.38 2557.5,-211.38 2557.5,4 -4,4"/>
<!-- dintancia projetil 1 -->
<g id="node1" class="node"><title>dintancia projetil 1</title>
<polygon fill="lightgray" stroke="black" points="1707.75,-137.631 1623.75,-137.631 1623.75,-119.631 1707.75,-119.631 1707.75,-137.631"/>
<text text-anchor="middle" x="1665.75" y="-126.431" font-family="Times New Roman,serif" font-size="9.00">dintancia projetil 1</text>
</g>
<!-- esquerda -->
<g id="node21" class="node"><title>esquerda</title>
<ellipse fill="lightblue" stroke="black" cx="681.749" cy="-33.9411" rx="33.8824" ry="33.8824"/>
<text text-anchor="middle" x="681.749" y="-31.7411" font-family="Times New Roman,serif" font-size="9.00">esquerda</text>
</g>
<!-- dintancia projetil 1&#45;&gt;esquerda -->
<g id="edge1" class="edge"><title>dintancia projetil 1&#45;&gt;esquerda</title>
<path fill="none" stroke="green" stroke-width="1.06075" d="M1651.97,-119.544C1641.99,-114.108 1627.98,-107.329 1614.75,-103.882 1592.95,-98.204 907.688,-50.554 725.739,-37.9757"/>
<polygon fill="green" stroke="green" stroke-width="1.06075" points="725.938,-34.4812 715.72,-37.2834 725.455,-41.4645 725.938,-34.4812"/>
</g>
<!-- pular -->
<g id="node23" class="node"><title>pular</title>
<ellipse fill="lightblue" stroke="black" cx="2134.75" cy="-33.9411" rx="25" ry="25"/>
<text text-anchor="middle" x="2134.75" y="-31.7411" font-family="Times New Roman,serif" font-size="9.00">pular</text>
</g>
<!-- dintancia projetil 1&#45;&gt;pular -->
<g id="edge41" class="edge"><title>dintancia projetil 1&#45;&gt;pular</title>
<path fill="none" stroke="green" stroke-width="0.177417" d="M1706.55,-119.568C1797.69,-101.556 2016.41,-58.3292 2100.76,-41.6575"/>
<polygon fill="green" stroke="green" stroke-width="0.177417" points="2101.47,-45.0862 2110.6,-39.7137 2100.11,-38.2191 2101.47,-45.0862"/>
</g>
<!-- atirar -->
<g id="node24" class="node"><title>atirar</title>
<ellipse fill="lightblue" stroke="black" cx="1665.75" cy="-33.9411" rx="25" ry="25"/>
<text text-anchor="middle" x="1665.75" y="-31.7411" font-family="Times New Roman,serif" font-size="9.00">atirar</text>
</g>
<!-- dintancia projetil 1&#45;&gt;atirar -->
<g id="edge60" class="edge"><title>dintancia projetil 1&#45;&gt;atirar</title>
<path fill="none" stroke="red" stroke-width="1.39112" d="M1665.75,-119.405C1665.75,-108.093 1665.75,-87.0603 1665.75,-68.8138"/>
<polygon fill="red" stroke="red" stroke-width="1.39112" points="1669.25,-68.7659 1665.75,-58.7659 1662.25,-68.7659 1669.25,-68.7659"/>
</g>
<!-- distancia projetil 2 -->
<g id="node2" class="node"><title>distancia projetil 2</title>
<polygon fill="lightgray" stroke="black" points="1147.25,-137.631 1064.25,-137.631 1064.25,-119.631 1147.25,-119.631 1147.25,-137.631"/>
<text text-anchor="middle" x="1105.75" y="-126.431" font-family="Times New Roman,serif" font-size="9.00">distancia projetil 2</text>
</g>
<!-- direita -->
<g id="node22" class="node"><title>direita</title>
<ellipse fill="lightblue" stroke="black" cx="1194.75" cy="-33.9411" rx="27.6545" ry="27.6545"/>
<text text-anchor="middle" x="1194.75" y="-31.7411" font-family="Times New Roman,serif" font-size="9.00">direita</text>
</g>
<!-- distancia projetil 2&#45;&gt;direita -->
<g id="edge17" class="edge"><title>distancia projetil 2&#45;&gt;direita</title>
<path fill="none" stroke="green" stroke-width="0.137156" stroke-dasharray="1,5" d="M1113.65,-119.405C1125.89,-106.654 1149.99,-81.5507 1168.76,-62.0102"/>
<polygon fill="green" stroke="green" stroke-width="0.137156" points="1171.5,-64.2019 1175.91,-54.5646 1166.46,-59.3537 1171.5,-64.2019"/>
</g>
<!-- distancia projetil 2&#45;&gt;atirar -->
<g id="edge67" class="edge"><title>distancia projetil 2&#45;&gt;atirar</title>
<path fill="none" stroke="red" stroke-width="0.243385" stroke-dasharray="1,5" d="M1147.17,-119.594C1171.96,-114.855 1204.13,-108.836 1232.75,-103.882 1380.73,-78.27 1557.8,-51.1874 1631.23,-40.1136"/>
<polygon fill="red" stroke="red" stroke-width="0.243385" points="1631.93,-43.548 1641.3,-38.598 1630.89,-36.6261 1631.93,-43.548"/>
</g>
<!-- release -->
<g id="node25" class="node"><title>release</title>
<ellipse fill="lightblue" stroke="black" cx="554.749" cy="-33.9411" rx="28.9828" ry="28.9828"/>
<text text-anchor="middle" x="554.749" y="-31.7411" font-family="Times New Roman,serif" font-size="9.00">release</text>
</g>
<!-- distancia projetil 2&#45;&gt;release -->
<g id="edge74" class="edge"><title>distancia projetil 2&#45;&gt;release</title>
<path fill="none" stroke="red" stroke-width="0.245275" d="M1091.96,-119.596C1081.97,-114.183 1067.96,-107.412 1054.75,-103.882 875.457,-55.9828 819.441,-110.195 638.749,-67.8823 622.234,-64.0149 604.661,-57.5258 589.881,-51.3246"/>
<polygon fill="red" stroke="red" stroke-width="0.245275" points="591.178,-48.0726 580.61,-47.3216 588.403,-54.4991 591.178,-48.0726"/>
</g>
<!-- distancia projetil 3 -->
<g id="node3" class="node"><title>distancia projetil 3</title>
<polygon fill="lightgray" stroke="black" points="286.249,-207.38 203.249,-207.38 203.249,-189.38 286.249,-189.38 286.249,-207.38"/>
<text text-anchor="middle" x="244.749" y="-196.18" font-family="Times New Roman,serif" font-size="9.00">distancia projetil 3</text>
</g>
<!-- distancia projetil 3&#45;&gt;esquerda -->
<g id="edge64" class="edge"><title>distancia projetil 3&#45;&gt;esquerda</title>
<path fill="none" stroke="green" stroke-width="0.303422" d="M235.782,-189.319C227.473,-181.192 215.676,-167.815 210.749,-153.38 203.642,-132.56 195.941,-120.151 210.749,-103.882 268.142,-40.8258 509.618,-86.8411 592.749,-67.8823 609.088,-64.1559 626.494,-58.1901 641.54,-52.3528"/>
<polygon fill="green" stroke="green" stroke-width="0.303422" points="643.058,-55.5153 651.051,-48.5602 640.466,-49.0131 643.058,-55.5153"/>
</g>
<!-- distancia projetil 3&#45;&gt;direita -->
<g id="edge44" class="edge"><title>distancia projetil 3&#45;&gt;direita</title>
<path fill="none" stroke="green" stroke-width="0.754063" stroke-dasharray="1,5" d="M286.25,-196.676C459.89,-193.567 1120.74,-180.019 1155.75,-153.38 1180.73,-134.374 1189.92,-98.909 1193.2,-71.7231"/>
<polygon fill="green" stroke="green" stroke-width="0.754063" points="1196.68,-72.0572 1194.19,-61.7608 1189.72,-71.3669 1196.68,-72.0572"/>
</g>
<!-- distancia projetil 3&#45;&gt;release -->
<g id="edge75" class="edge"><title>distancia projetil 3&#45;&gt;release</title>
<path fill="none" stroke="green" stroke-width="0.279286" d="M222.306,-189.32C206.721,-182.406 187.133,-170.77 177.749,-153.38 167.301,-134.02 163.662,-120.779 177.749,-103.882 220.534,-52.5633 428.218,-39.3346 515.737,-36.0163"/>
<polygon fill="green" stroke="green" stroke-width="0.279286" points="515.925,-39.5119 525.795,-35.6589 515.677,-32.5163 515.925,-39.5119"/>
</g>
<!-- 1829 -->
<g id="node26" class="node"><title>1829</title>
<ellipse fill="white" stroke="black" cx="350.749" cy="-128.631" rx="25" ry="25"/>
<text text-anchor="middle" x="350.749" y="-126.431" font-family="Times New Roman,serif" font-size="9.00">1829</text>
</g>
<!-- distancia projetil 3&#45;&gt;1829 -->
<g id="edge58" class="edge"><title>distancia projetil 3&#45;&gt;1829</title>
<path fill="none" stroke="red" stroke-width="0.514542" d="M257.325,-189.342C273.064,-179.282 300.513,-161.739 321.599,-148.262"/>
<polygon fill="red" stroke="red" stroke-width="0.514542" points="323.652,-151.103 330.193,-142.769 319.882,-145.205 323.652,-151.103"/>
</g>
<!-- 2065 -->
<g id="node28" class="node"><title>2065</title>
<ellipse fill="white" stroke="black" cx="244.749" cy="-128.631" rx="25" ry="25"/>
<text text-anchor="middle" x="244.749" y="-126.431" font-family="Times New Roman,serif" font-size="9.00">2065</text>
</g>
<!-- distancia projetil 3&#45;&gt;2065 -->
<g id="edge16" class="edge"><title>distancia projetil 3&#45;&gt;2065</title>
<path fill="none" stroke="green" stroke-width="0.387709" d="M244.749,-189.342C244.749,-182.907 244.749,-173.409 244.749,-163.873"/>
<polygon fill="green" stroke="green" stroke-width="0.387709" points="248.249,-163.652 244.749,-153.652 241.249,-163.652 248.249,-163.652"/>
</g>
<!-- distancia projetil 4 -->
<g id="node4" class="node"><title>distancia projetil 4</title>
<polygon fill="lightgray" stroke="black" points="1367.25,-207.38 1284.25,-207.38 1284.25,-189.38 1367.25,-189.38 1367.25,-207.38"/>
<text text-anchor="middle" x="1325.75" y="-196.18" font-family="Times New Roman,serif" font-size="9.00">distancia projetil 4</text>
</g>
<!-- distancia projetil 4&#45;&gt;esquerda -->
<g id="edge49" class="edge"><title>distancia projetil 4&#45;&gt;esquerda</title>
<path fill="none" stroke="red" stroke-width="0.117784" stroke-dasharray="1,5" d="M1284.02,-196.735C1119.85,-193.998 526.016,-182.137 498.749,-153.38 483.612,-137.416 486.232,-121.973 498.749,-103.882 499.283,-103.11 586.545,-70.4547 640.362,-50.3697"/>
<polygon fill="red" stroke="red" stroke-width="0.117784" points="641.847,-53.5511 649.993,-46.7762 639.4,-46.9928 641.847,-53.5511"/>
</g>
<!-- distancia projetil 4&#45;&gt;direita -->
<g id="edge69" class="edge"><title>distancia projetil 4&#45;&gt;direita</title>
<path fill="none" stroke="green" stroke-width="0.115955" d="M1330.24,-189.123C1338.98,-171.841 1355.96,-131.199 1338.75,-103.882 1315.52,-67.0075 1266.5,-49.4222 1232.14,-41.342"/>
<polygon fill="green" stroke="green" stroke-width="0.115955" points="1232.51,-37.8397 1221.99,-39.1286 1231.01,-44.679 1232.51,-37.8397"/>
</g>
<!-- distancia projetil 4&#45;&gt;pular -->
<g id="edge9" class="edge"><title>distancia projetil 4&#45;&gt;pular</title>
<path fill="none" stroke="red" stroke-width="0.268664" d="M1367.44,-190.347C1370.25,-189.985 1373.04,-189.657 1375.75,-189.38 1419.57,-184.893 2137.32,-185.224 2167.75,-153.38 2191.2,-128.839 2172.78,-89.0846 2155.46,-62.4875"/>
<polygon fill="red" stroke="red" stroke-width="0.268664" points="2158.21,-60.3096 2149.69,-54.0129 2152.43,-64.2489 2158.21,-60.3096"/>
</g>
<!-- distancia projetil 4&#45;&gt;atirar -->
<g id="edge26" class="edge"><title>distancia projetil 4&#45;&gt;atirar</title>
<path fill="none" stroke="green" stroke-width="0.184782" d="M1367.46,-190.505C1370.26,-190.105 1373.05,-189.726 1375.75,-189.38 1417.16,-184.079 1721.68,-184.282 1749.75,-153.38 1764.54,-137.096 1759.15,-123.769 1749.75,-103.882 1738.75,-80.6197 1715.62,-62.5748 1696.42,-50.7914"/>
<polygon fill="green" stroke="green" stroke-width="0.184782" points="1698.05,-47.6922 1687.65,-45.6683 1694.52,-53.7358 1698.05,-47.6922"/>
</g>
<!-- distancia projetil 4&#45;&gt;1829 -->
<g id="edge53" class="edge"><title>distancia projetil 4&#45;&gt;1829</title>
<path fill="none" stroke="green" stroke-width="0.648822" d="M1284.14,-196.721C1130.52,-194.073 595.604,-182.896 427.749,-153.38 412.927,-150.773 396.964,-146.164 383.438,-141.695"/>
<polygon fill="green" stroke="green" stroke-width="0.648822" points="384.222,-138.264 373.627,-138.34 381.957,-144.888 384.222,-138.264"/>
</g>
<!-- distancia projetil 5 -->
<g id="node5" class="node"><title>distancia projetil 5</title>
<polygon fill="lightgray" stroke="black" points="1468.25,-207.38 1385.25,-207.38 1385.25,-189.38 1468.25,-189.38 1468.25,-207.38"/>
<text text-anchor="middle" x="1426.75" y="-196.18" font-family="Times New Roman,serif" font-size="9.00">distancia projetil 5</text>
</g>
<!-- distancia projetil 5&#45;&gt;esquerda -->
<g id="edge34" class="edge"><title>distancia projetil 5&#45;&gt;esquerda</title>
<path fill="none" stroke="green" stroke-width="0.346703" d="M1385.04,-190.493C1381.9,-190.08 1378.78,-189.702 1375.75,-189.38 1305.03,-181.86 795.594,-193.308 736.749,-153.38 711.297,-136.11 697.375,-103.881 689.91,-77.3986"/>
<polygon fill="green" stroke="green" stroke-width="0.346703" points="693.259,-76.3705 687.355,-67.5734 686.485,-78.1324 693.259,-76.3705"/>
</g>
<!-- distancia projetil 5&#45;&gt;direita -->
<g id="edge18" class="edge"><title>distancia projetil 5&#45;&gt;direita</title>
<path fill="none" stroke="green" stroke-width="0.268704" stroke-dasharray="1,5" d="M1422.6,-189.243C1413.18,-171.471 1388.5,-128.79 1356.75,-103.882 1318.77,-74.0893 1266.01,-54.8197 1231.15,-44.427"/>
<polygon fill="green" stroke="green" stroke-width="0.268704" points="1231.96,-41.018 1221.38,-41.6073 1230.02,-47.7434 1231.96,-41.018"/>
</g>
<!-- distancia projetil 5&#45;&gt;pular -->
<g id="edge54" class="edge"><title>distancia projetil 5&#45;&gt;pular</title>
<path fill="none" stroke="green" stroke-width="0.335376" stroke-dasharray="1,5" d="M1468.31,-196.805C1635.39,-194.296 2250.56,-183.065 2278.75,-153.38 2293.9,-137.428 2290.47,-122.496 2278.75,-103.882 2254.85,-65.9448 2203.66,-48.4247 2169.21,-40.6668"/>
<polygon fill="green" stroke="green" stroke-width="0.335376" points="2169.6,-37.1747 2159.1,-38.5608 2168.18,-44.0275 2169.6,-37.1747"/>
</g>
<!-- distancia projetil 5&#45;&gt;release -->
<g id="edge30" class="edge"><title>distancia projetil 5&#45;&gt;release</title>
<path fill="none" stroke="green" stroke-width="0.475147" stroke-dasharray="1,5" d="M1385.05,-190.44C1381.91,-190.04 1378.78,-189.679 1375.75,-189.38 1327.22,-184.594 532.515,-188.561 498.749,-153.38 473.52,-127.094 501.79,-87.3301 526.486,-61.2478"/>
<polygon fill="green" stroke="green" stroke-width="0.475147" points="529.139,-63.5412 533.639,-53.9498 524.14,-58.641 529.139,-63.5412"/>
</g>
<!-- 2276 -->
<g id="node30" class="node"><title>2276</title>
<ellipse fill="white" stroke="black" cx="2244.75" cy="-128.631" rx="25" ry="25"/>
<text text-anchor="middle" x="2244.75" y="-126.431" font-family="Times New Roman,serif" font-size="9.00">2276</text>
</g>
<!-- distancia projetil 5&#45;&gt;2276 -->
<g id="edge11" class="edge"><title>distancia projetil 5&#45;&gt;2276</title>
<path fill="none" stroke="green" stroke-width="0.265146" d="M1468.61,-197.681C1609.64,-198.281 2066.38,-196.749 2205.75,-153.38 2209.29,-152.279 2212.83,-150.787 2216.27,-149.086"/>
<polygon fill="green" stroke="green" stroke-width="0.265146" points="2217.98,-152.138 2225.01,-144.212 2214.57,-146.024 2217.98,-152.138"/>
</g>
<!-- distancia projetil 6 -->
<g id="node6" class="node"><title>distancia projetil 6</title>
<polygon fill="lightgray" stroke="black" points="1885.25,-137.631 1802.25,-137.631 1802.25,-119.631 1885.25,-119.631 1885.25,-137.631"/>
<text text-anchor="middle" x="1843.75" y="-126.431" font-family="Times New Roman,serif" font-size="9.00">distancia projetil 6</text>
</g>
<!-- distancia projetil 6&#45;&gt;atirar -->
<g id="edge6" class="edge"><title>distancia projetil 6&#45;&gt;atirar</title>
<path fill="none" stroke="red" stroke-width="0.546161" d="M1828.26,-119.568C1798.95,-104.301 1734.84,-70.9182 1696.48,-50.946"/>
<polygon fill="red" stroke="red" stroke-width="0.546161" points="1697.81,-47.6908 1687.32,-46.1765 1694.58,-53.8995 1697.81,-47.6908"/>
</g>
<!-- distancia projetil 7 -->
<g id="node7" class="node"><title>distancia projetil 7</title>
<polygon fill="lightgray" stroke="black" points="152.249,-207.38 69.2487,-207.38 69.2487,-189.38 152.249,-189.38 152.249,-207.38"/>
<text text-anchor="middle" x="110.749" y="-196.18" font-family="Times New Roman,serif" font-size="9.00">distancia projetil 7</text>
</g>
<!-- distancia projetil 7&#45;&gt;esquerda -->
<g id="edge10" class="edge"><title>distancia projetil 7&#45;&gt;esquerda</title>
<path fill="none" stroke="red" stroke-width="0.239563" stroke-dasharray="1,5" d="M115.44,-189.287C126.881,-170.416 158.27,-123.606 198.749,-103.882 356.823,-26.8601 421.255,-106.737 592.749,-67.8823 609.093,-64.1791 626.501,-58.2181 641.545,-52.3781"/>
<polygon fill="red" stroke="red" stroke-width="0.239563" points="643.065,-55.54 651.056,-48.5828 640.471,-49.0386 643.065,-55.54"/>
</g>
<!-- distancia projetil 7&#45;&gt;pular -->
<g id="edge12" class="edge"><title>distancia projetil 7&#45;&gt;pular</title>
<path fill="none" stroke="green" stroke-width="0.353143" stroke-dasharray="1,5" d="M152.499,-192.721C165.679,-191.421 180.308,-190.153 193.749,-189.38 246.532,-186.341 2054.33,-184.938 2096.75,-153.38 2122.71,-134.064 2131.3,-96.7776 2133.96,-69.1785"/>
<polygon fill="green" stroke="green" stroke-width="0.353143" points="2137.45,-69.3664 2134.71,-59.1329 2130.47,-68.8436 2137.45,-69.3664"/>
</g>
<!-- distancia projetil 7&#45;&gt;release -->
<g id="edge2" class="edge"><title>distancia projetil 7&#45;&gt;release</title>
<path fill="none" stroke="red" stroke-width="0.291474" d="M112.882,-189.28C118.199,-170.808 133.888,-125.497 164.749,-103.882 221.234,-64.3189 428.656,-44.4281 515.791,-37.6715"/>
<polygon fill="red" stroke="red" stroke-width="0.291474" points="516.096,-41.1585 525.803,-36.9122 515.567,-34.1785 516.096,-41.1585"/>
</g>
<!-- 2294 -->
<g id="node29" class="node"><title>2294</title>
<ellipse fill="white" stroke="black" cx="24.7487" cy="-128.631" rx="25" ry="25"/>
<text text-anchor="middle" x="24.7487" y="-126.431" font-family="Times New Roman,serif" font-size="9.00">2294</text>
</g>
<!-- distancia projetil 7&#45;&gt;2294 -->
<g id="edge76" class="edge"><title>distancia projetil 7&#45;&gt;2294</title>
<path fill="none" stroke="red" stroke-width="0.425711" d="M100.546,-189.342C88.6486,-179.97 68.505,-164.101 51.973,-151.078"/>
<polygon fill="red" stroke="red" stroke-width="0.425711" points="53.7412,-148.015 43.7199,-144.576 49.4094,-153.514 53.7412,-148.015"/>
</g>
<!-- distancia projetil 8 -->
<g id="node8" class="node"><title>distancia projetil 8</title>
<polygon fill="lightgray" stroke="black" points="2377.25,-207.38 2294.25,-207.38 2294.25,-189.38 2377.25,-189.38 2377.25,-207.38"/>
<text text-anchor="middle" x="2335.75" y="-196.18" font-family="Times New Roman,serif" font-size="9.00">distancia projetil 8</text>
</g>
<!-- distancia projetil 8&#45;&gt;pular -->
<g id="edge31" class="edge"><title>distancia projetil 8&#45;&gt;pular</title>
<path fill="none" stroke="red" stroke-width="0.775706" stroke-dasharray="1,5" d="M2377.3,-194.156C2404.78,-189.613 2438.92,-178.828 2456.75,-153.38 2469.37,-135.361 2470.58,-120.989 2456.75,-103.882 2438.6,-81.4394 2248.73,-51.5067 2169.34,-39.8643"/>
<polygon fill="red" stroke="red" stroke-width="0.775706" points="2169.74,-36.3857 2159.34,-38.4091 2168.73,-43.3128 2169.74,-36.3857"/>
</g>
<!-- distancia projetil 8&#45;&gt;atirar -->
<g id="edge45" class="edge"><title>distancia projetil 8&#45;&gt;atirar</title>
<path fill="none" stroke="green" stroke-width="0.498158" d="M2333.45,-189.132C2327.73,-170.349 2310.97,-124.427 2278.75,-103.882 2229.77,-72.6519 1823.55,-44.8413 1700.77,-37.0839"/>
<polygon fill="green" stroke="green" stroke-width="0.498158" points="1700.64,-33.5693 1690.44,-36.4368 1700.2,-40.5555 1700.64,-33.5693"/>
</g>
<!-- distancia projetil 8&#45;&gt;1829 -->
<g id="edge66" class="edge"><title>distancia projetil 8&#45;&gt;1829</title>
<path fill="none" stroke="red" stroke-width="0.376356" d="M2294.06,-197.148C2055.76,-195.707 864.08,-186.911 498.749,-153.38 459.457,-149.773 414.791,-142.108 384.9,-136.457"/>
<polygon fill="red" stroke="red" stroke-width="0.376356" points="385.457,-133 374.977,-134.552 384.138,-139.875 385.457,-133"/>
</g>
<!-- distancia projetil 9 -->
<g id="node9" class="node"><title>distancia projetil 9</title>
<polygon fill="lightgray" stroke="black" points="2447.25,-137.631 2364.25,-137.631 2364.25,-119.631 2447.25,-119.631 2447.25,-137.631"/>
<text text-anchor="middle" x="2405.75" y="-126.431" font-family="Times New Roman,serif" font-size="9.00">distancia projetil 9</text>
</g>
<!-- distancia projetil 9&#45;&gt;esquerda -->
<g id="edge47" class="edge"><title>distancia projetil 9&#45;&gt;esquerda</title>
<path fill="none" stroke="red" stroke-width="0.250722" stroke-dasharray="1,5" d="M2370.65,-119.574C2345.27,-114.115 2310.08,-107.294 2278.75,-103.882 1783.2,-49.9117 1655.59,-93.0938 1157.75,-67.8823 998.479,-59.8166 809.565,-45.2528 725.664,-38.5256"/>
<polygon fill="red" stroke="red" stroke-width="0.250722" points="725.734,-35.0201 715.485,-37.7066 725.172,-41.9975 725.734,-35.0201"/>
</g>
<!-- distancia projetil 9&#45;&gt;pular -->
<g id="edge7" class="edge"><title>distancia projetil 9&#45;&gt;pular</title>
<path fill="none" stroke="green" stroke-width="0.391948" d="M2388.01,-119.62C2377.08,-114.806 2362.72,-108.7 2349.75,-103.882 2286.44,-80.3631 2210.96,-57.2742 2168.37,-44.6897"/>
<polygon fill="green" stroke="green" stroke-width="0.391948" points="2169.11,-41.2598 2158.53,-41.7967 2167.14,-47.9755 2169.11,-41.2598"/>
</g>
<!-- 2437 -->
<g id="node31" class="node"><title>2437</title>
<ellipse fill="white" stroke="black" cx="2405.75" cy="-33.9411" rx="25" ry="25"/>
<text text-anchor="middle" x="2405.75" y="-31.7411" font-family="Times New Roman,serif" font-size="9.00">2437</text>
</g>
<!-- distancia projetil 9&#45;&gt;2437 -->
<g id="edge36" class="edge"><title>distancia projetil 9&#45;&gt;2437</title>
<path fill="none" stroke="green" stroke-width="0.283173" d="M2405.75,-119.405C2405.75,-108.093 2405.75,-87.0603 2405.75,-68.8138"/>
<polygon fill="green" stroke="green" stroke-width="0.283173" points="2409.25,-68.7659 2405.75,-58.7659 2402.25,-68.7659 2409.25,-68.7659"/>
</g>
<!-- distancia projetil 10 -->
<g id="node10" class="node"><title>distancia projetil 10</title>
<polygon fill="lightgray" stroke="black" points="939.749,-137.631 851.749,-137.631 851.749,-119.631 939.749,-119.631 939.749,-137.631"/>
<text text-anchor="middle" x="895.749" y="-126.431" font-family="Times New Roman,serif" font-size="9.00">distancia projetil 10</text>
</g>
<!-- distancia projetil 10&#45;&gt;esquerda -->
<g id="edge32" class="edge"><title>distancia projetil 10&#45;&gt;esquerda</title>
<path fill="none" stroke="green" stroke-width="0.206594" d="M877.63,-119.422C867.406,-114.813 854.385,-108.98 842.749,-103.882 801.684,-85.8915 754.515,-65.7549 721.894,-51.9123"/>
<polygon fill="green" stroke="green" stroke-width="0.206594" points="723.252,-48.6866 712.68,-48.0051 720.52,-55.1312 723.252,-48.6866"/>
</g>
<!-- distancia projetil 10&#45;&gt;direita -->
<g id="edge52" class="edge"><title>distancia projetil 10&#45;&gt;direita</title>
<path fill="none" stroke="green" stroke-width="0.470449" stroke-dasharray="1,5" d="M912.198,-119.501C922.534,-114.584 936.234,-108.412 948.749,-103.882 1021.56,-77.5304 1109.47,-55.0579 1158.02,-43.4291"/>
<polygon fill="green" stroke="green" stroke-width="0.470449" points="1158.85,-46.8311 1167.77,-41.1148 1157.23,-40.0205 1158.85,-46.8311"/>
</g>
<!-- distancia projetil 10&#45;&gt;atirar -->
<g id="edge15" class="edge"><title>distancia projetil 10&#45;&gt;atirar</title>
<path fill="none" stroke="green" stroke-width="0.777666" stroke-dasharray="1,5" d="M910.575,-119.413C920.947,-114.063 935.297,-107.44 948.749,-103.882 1015.18,-86.3123 1496.09,-48.0918 1630.77,-37.6332"/>
<polygon fill="green" stroke="green" stroke-width="0.777666" points="1631.24,-41.1077 1640.94,-36.8456 1630.7,-34.1286 1631.24,-41.1077"/>
</g>
<!-- distancia projetil 10&#45;&gt;release -->
<g id="edge21" class="edge"><title>distancia projetil 10&#45;&gt;release</title>
<path fill="none" stroke="green" stroke-width="0.437973" d="M880.371,-119.522C869.996,-114.359 855.857,-107.908 842.749,-103.882 754.738,-76.8532 727.377,-92.812 638.749,-67.8823 622.544,-63.3242 605.143,-56.7884 590.404,-50.7383"/>
<polygon fill="green" stroke="green" stroke-width="0.437973" points="591.719,-47.4944 581.143,-46.8584 589.014,-53.9507 591.719,-47.4944"/>
</g>
<!-- distancia projetil 11 -->
<g id="node11" class="node"><title>distancia projetil 11</title>
<polygon fill="lightgray" stroke="black" points="852.749,-207.38 764.749,-207.38 764.749,-189.38 852.749,-189.38 852.749,-207.38"/>
<text text-anchor="middle" x="808.749" y="-196.18" font-family="Times New Roman,serif" font-size="9.00">distancia projetil 11</text>
</g>
<!-- distancia projetil 11&#45;&gt;esquerda -->
<g id="edge20" class="edge"><title>distancia projetil 11&#45;&gt;esquerda</title>
<path fill="none" stroke="red" stroke-width="0.257488" d="M764.494,-195.519C668.884,-191.045 449.843,-178.173 427.749,-153.38 413.113,-136.956 413.95,-121.016 427.749,-103.882 474.828,-45.4241 520.711,-88.9605 592.749,-67.8823 608.704,-63.2139 625.907,-57.1083 640.897,-51.4236"/>
<polygon fill="red" stroke="red" stroke-width="0.257488" points="642.317,-54.6273 650.392,-47.7681 639.802,-48.0947 642.317,-54.6273"/>
</g>
<!-- distancia projetil 11&#45;&gt;direita -->
<g id="edge4" class="edge"><title>distancia projetil 11&#45;&gt;direita</title>
<path fill="none" stroke="red" stroke-width="0.342354" stroke-dasharray="1,5" d="M852.928,-195.45C948.385,-190.837 1167.14,-177.701 1189.75,-153.38 1209.91,-131.691 1208.99,-96.9627 1204.31,-70.7071"/>
<polygon fill="red" stroke="red" stroke-width="0.342354" points="1207.71,-69.854 1202.29,-60.7496 1200.85,-71.2458 1207.71,-69.854"/>
</g>
<!-- distancia projetil 11&#45;&gt;pular -->
<g id="edge62" class="edge"><title>distancia projetil 11&#45;&gt;pular</title>
<path fill="none" stroke="red" stroke-width="0.368012" d="M852.984,-196.725C1080.22,-193.261 2106.56,-176.361 2129.75,-153.38 2151.69,-131.637 2149.62,-94.682 2144.16,-67.8238"/>
<polygon fill="red" stroke="red" stroke-width="0.368012" points="2147.49,-66.6904 2141.85,-57.7209 2140.66,-68.2493 2147.49,-66.6904"/>
</g>
<!-- distancia projetil 11&#45;&gt;atirar -->
<g id="edge42" class="edge"><title>distancia projetil 11&#45;&gt;atirar</title>
<path fill="none" stroke="green" stroke-width="0.247949" d="M853.036,-196.911C1031.09,-194.813 1686.66,-184.964 1716.75,-153.38 1742.08,-126.792 1714.01,-85.6505 1690.57,-59.5216"/>
<polygon fill="green" stroke="green" stroke-width="0.247949" points="1692.89,-56.8679 1683.51,-51.9273 1687.76,-61.6342 1692.89,-56.8679"/>
</g>
<!-- distancia projetil 11&#45;&gt;release -->
<g id="edge28" class="edge"><title>distancia projetil 11&#45;&gt;release</title>
<path fill="none" stroke="green" stroke-width="0.190317" d="M764.448,-196.753C649.164,-194.664 346.663,-186.089 316.749,-153.38 254.619,-85.4454 433.802,-51.4709 515.968,-39.7787"/>
<polygon fill="green" stroke="green" stroke-width="0.190317" points="516.525,-43.2351 525.952,-38.3999 515.567,-36.301 516.525,-43.2351"/>
</g>
<!-- distancia projetil 11&#45;&gt;2065 -->
<g id="edge51" class="edge"><title>distancia projetil 11&#45;&gt;2065</title>
<path fill="none" stroke="green" stroke-width="0.343522" d="M764.352,-196.275C654.539,-193.126 372.662,-182.381 283.749,-153.38 280.225,-152.231 276.688,-150.709 273.26,-148.99"/>
<polygon fill="green" stroke="green" stroke-width="0.343522" points="274.958,-145.929 264.523,-144.095 271.537,-152.036 274.958,-145.929"/>
</g>
<!-- distancia projetil 12 -->
<g id="node12" class="node"><title>distancia projetil 12</title>
<polygon fill="lightgray" stroke="black" points="1329.75,-137.631 1241.75,-137.631 1241.75,-119.631 1329.75,-119.631 1329.75,-137.631"/>
<text text-anchor="middle" x="1285.75" y="-126.431" font-family="Times New Roman,serif" font-size="9.00">distancia projetil 12</text>
</g>
<!-- distancia projetil 12&#45;&gt;esquerda -->
<g id="edge8" class="edge"><title>distancia projetil 12&#45;&gt;esquerda</title>
<path fill="none" stroke="red" stroke-width="0.813404" d="M1243.96,-119.598C1218.5,-114.805 1185.29,-108.728 1155.75,-103.882 997.768,-77.972 809.335,-52.0435 725.593,-40.7771"/>
<polygon fill="red" stroke="red" stroke-width="0.813404" points="725.811,-37.2749 715.434,-39.4131 724.879,-44.2127 725.811,-37.2749"/>
</g>
<!-- distancia projetil 12&#45;&gt;direita -->
<g id="edge24" class="edge"><title>distancia projetil 12&#45;&gt;direita</title>
<path fill="none" stroke="green" stroke-width="0.517987" stroke-dasharray="1,5" d="M1277.67,-119.405C1265.02,-106.519 1239.99,-81.0178 1220.72,-61.3915"/>
<polygon fill="green" stroke="green" stroke-width="0.517987" points="1223.16,-58.8796 1213.65,-54.1958 1218.16,-63.7836 1223.16,-58.8796"/>
</g>
<!-- distancia projetil 12&#45;&gt;pular -->
<g id="edge40" class="edge"><title>distancia projetil 12&#45;&gt;pular</title>
<path fill="none" stroke="green" stroke-width="0.122177" stroke-dasharray="1,5" d="M1324.56,-119.58C1350.09,-114.506 1384.3,-108.134 1414.75,-103.882 1676.9,-67.2711 1995.49,-44.21 2099.84,-37.2066"/>
<polygon fill="green" stroke="green" stroke-width="0.122177" points="2100.36,-40.6801 2110.1,-36.5235 2099.89,-33.6955 2100.36,-40.6801"/>
</g>
<!-- distancia projetil 12&#45;&gt;atirar -->
<g id="edge59" class="edge"><title>distancia projetil 12&#45;&gt;atirar</title>
<path fill="none" stroke="green" stroke-width="0.255189" d="M1318.81,-119.568C1390.4,-102.104 1559.18,-60.9365 1631.68,-43.2517"/>
<polygon fill="green" stroke="green" stroke-width="0.255189" points="1632.77,-46.5885 1641.65,-40.8184 1631.11,-39.7879 1632.77,-46.5885"/>
</g>
<!-- distancia projetil 12&#45;&gt;release -->
<g id="edge13" class="edge"><title>distancia projetil 12&#45;&gt;release</title>
<path fill="none" stroke="green" stroke-width="0.451491" d="M1248.09,-119.606C1222.23,-114.378 1187.05,-107.819 1155.75,-103.882 927.215,-75.1414 863.449,-118.513 638.749,-67.8823 622.202,-64.1538 604.624,-57.686 589.849,-51.4633"/>
<polygon fill="green" stroke="green" stroke-width="0.451491" points="591.149,-48.2124 580.583,-47.4407 588.362,-54.6335 591.149,-48.2124"/>
</g>
<!-- distancia projetil 13 -->
<g id="node13" class="node"><title>distancia projetil 13</title>
<polygon fill="lightgray" stroke="black" points="689.749,-137.631 601.749,-137.631 601.749,-119.631 689.749,-119.631 689.749,-137.631"/>
<text text-anchor="middle" x="645.749" y="-126.431" font-family="Times New Roman,serif" font-size="9.00">distancia projetil 13</text>
</g>
<!-- distancia projetil 13&#45;&gt;esquerda -->
<g id="edge73" class="edge"><title>distancia projetil 13&#45;&gt;esquerda</title>
<path fill="none" stroke="red" stroke-width="0.16149" stroke-dasharray="1,5" d="M648.943,-119.405C652.799,-109.479 659.561,-92.0684 665.948,-75.6231"/>
<polygon fill="red" stroke="red" stroke-width="0.16149" points="669.283,-76.7046 669.641,-66.1158 662.758,-74.1702 669.283,-76.7046"/>
</g>
<!-- distancia projetil 13&#45;&gt;direita -->
<g id="edge71" class="edge"><title>distancia projetil 13&#45;&gt;direita</title>
<path fill="none" stroke="red" stroke-width="0.665533" stroke-dasharray="1,5" d="M673.449,-119.587C691.388,-114.58 715.316,-108.279 736.749,-103.882 891.536,-72.1276 1078.55,-48.5016 1157.12,-39.2355"/>
<polygon fill="red" stroke="red" stroke-width="0.665533" points="1157.94,-42.6628 1167.47,-38.024 1157.13,-35.7103 1157.94,-42.6628"/>
</g>
<!-- distancia projetil 13&#45;&gt;release -->
<g id="edge70" class="edge"><title>distancia projetil 13&#45;&gt;release</title>
<path fill="none" stroke="green" stroke-width="0.711538" d="M637.673,-119.405C625.253,-106.755 600.897,-81.9465 581.78,-62.4743"/>
<polygon fill="green" stroke="green" stroke-width="0.711538" points="584.249,-59.993 574.745,-55.3092 579.254,-64.897 584.249,-59.993"/>
</g>
<!-- distancia projetil 14 -->
<g id="node14" class="node"><title>distancia projetil 14</title>
<polygon fill="lightgray" stroke="black" points="833.749,-137.631 745.749,-137.631 745.749,-119.631 833.749,-119.631 833.749,-137.631"/>
<text text-anchor="middle" x="789.749" y="-126.431" font-family="Times New Roman,serif" font-size="9.00">distancia projetil 14</text>
</g>
<!-- distancia projetil 14&#45;&gt;esquerda -->
<g id="edge55" class="edge"><title>distancia projetil 14&#45;&gt;esquerda</title>
<path fill="none" stroke="red" stroke-width="0.251836" d="M780.164,-119.405C765.664,-106.961 737.454,-82.7497 714.941,-63.4279"/>
<polygon fill="red" stroke="red" stroke-width="0.251836" points="717.115,-60.6816 707.247,-56.8248 712.556,-65.9935 717.115,-60.6816"/>
</g>
<!-- distancia projetil 14&#45;&gt;direita -->
<g id="edge78" class="edge"><title>distancia projetil 14&#45;&gt;direita</title>
<path fill="none" stroke="red" stroke-width="0.733592" d="M805.152,-119.603C815.537,-114.474 829.679,-108.031 842.749,-103.882 954.354,-68.4596 1091.91,-47.8798 1157.09,-39.4488"/>
<polygon fill="red" stroke="red" stroke-width="0.733592" points="1157.8,-42.886 1167.28,-38.1532 1156.92,-35.9419 1157.8,-42.886"/>
</g>
<!-- distancia projetil 14&#45;&gt;atirar -->
<g id="edge37" class="edge"><title>distancia projetil 14&#45;&gt;atirar</title>
<path fill="none" stroke="red" stroke-width="0.410008" d="M804.114,-119.593C814.511,-114.18 829.08,-107.408 842.749,-103.882 862.154,-98.8772 1475.7,-50.0065 1630.54,-37.7286"/>
<polygon fill="red" stroke="red" stroke-width="0.410008" points="1631.19,-41.1883 1640.88,-36.909 1630.63,-34.2101 1631.19,-41.1883"/>
</g>
<!-- distancia projetil 14&#45;&gt;release -->
<g id="edge23" class="edge"><title>distancia projetil 14&#45;&gt;release</title>
<path fill="none" stroke="red" stroke-width="0.441431" stroke-dasharray="1,5" d="M769.305,-119.568C729.523,-103.877 641.227,-69.0503 591.189,-49.314"/>
<polygon fill="red" stroke="red" stroke-width="0.441431" points="592.304,-45.9914 581.717,-45.5781 589.735,-52.5032 592.304,-45.9914"/>
</g>
<!-- distancia projetil 15 -->
<g id="node15" class="node"><title>distancia projetil 15</title>
<polygon fill="lightgray" stroke="black" points="1045.75,-137.631 957.749,-137.631 957.749,-119.631 1045.75,-119.631 1045.75,-137.631"/>
<text text-anchor="middle" x="1001.75" y="-126.431" font-family="Times New Roman,serif" font-size="9.00">distancia projetil 15</text>
</g>
<!-- distancia projetil 15&#45;&gt;direita -->
<g id="edge25" class="edge"><title>distancia projetil 15&#45;&gt;direita</title>
<path fill="none" stroke="red" stroke-width="0.324079" d="M1018.54,-119.568C1050.19,-104.367 1119.23,-71.2082 1160.88,-51.2074"/>
<polygon fill="red" stroke="red" stroke-width="0.324079" points="1162.58,-54.272 1170.08,-46.7878 1159.55,-47.962 1162.58,-54.272"/>
</g>
<!-- distancia projetil 15&#45;&gt;atirar -->
<g id="edge68" class="edge"><title>distancia projetil 15&#45;&gt;atirar</title>
<path fill="none" stroke="green" stroke-width="0.219104" stroke-dasharray="1,5" d="M1016.59,-119.484C1026.97,-114.165 1041.33,-107.551 1054.75,-103.882 1164.98,-73.7537 1518.17,-45.8007 1630.85,-37.4564"/>
<polygon fill="green" stroke="green" stroke-width="0.219104" points="1631.27,-40.935 1640.99,-36.7107 1630.76,-33.9539 1631.27,-40.935"/>
</g>
<!-- distancia projetil 15&#45;&gt;release -->
<g id="edge33" class="edge"><title>distancia projetil 15&#45;&gt;release</title>
<path fill="none" stroke="red" stroke-width="0.62283" d="M986.899,-119.498C976.518,-114.185 962.165,-107.573 948.749,-103.882 815.013,-67.0945 773.322,-101.481 638.749,-67.8823 622.292,-63.7735 604.729,-57.2472 589.939,-51.0834"/>
<polygon fill="red" stroke="red" stroke-width="0.62283" points="591.231,-47.8293 580.66,-47.1144 588.478,-54.2653 591.231,-47.8293"/>
</g>
<!-- distancia projetil 16 -->
<g id="node16" class="node"><title>distancia projetil 16</title>
<polygon fill="lightgray" stroke="black" points="1605.75,-137.631 1517.75,-137.631 1517.75,-119.631 1605.75,-119.631 1605.75,-137.631"/>
<text text-anchor="middle" x="1561.75" y="-126.431" font-family="Times New Roman,serif" font-size="9.00">distancia projetil 16</text>
</g>
<!-- distancia projetil 16&#45;&gt;esquerda -->
<g id="edge29" class="edge"><title>distancia projetil 16&#45;&gt;esquerda</title>
<path fill="none" stroke="red" stroke-width="0.605578" d="M1547.38,-119.591C1536.99,-114.177 1522.42,-107.405 1508.75,-103.882 1432.72,-84.2881 886.513,-48.0747 725.998,-37.7532"/>
<polygon fill="red" stroke="red" stroke-width="0.605578" points="725.758,-34.2308 715.555,-37.0833 725.31,-41.2164 725.758,-34.2308"/>
</g>
<!-- distancia projetil 16&#45;&gt;direita -->
<g id="edge43" class="edge"><title>distancia projetil 16&#45;&gt;direita</title>
<path fill="none" stroke="red" stroke-width="0.765439" stroke-dasharray="1,5" d="M1545.85,-119.475C1535.5,-114.424 1521.58,-108.116 1508.75,-103.882 1411.25,-71.7129 1291.74,-50.178 1232.19,-40.6049"/>
<polygon fill="red" stroke="red" stroke-width="0.765439" points="1232.56,-37.1192 1222.13,-39.0102 1231.46,-44.0328 1232.56,-37.1192"/>
</g>
<!-- distancia projetil 16&#45;&gt;pular -->
<g id="edge63" class="edge"><title>distancia projetil 16&#45;&gt;pular</title>
<path fill="none" stroke="red" stroke-width="0.247835" d="M1576.62,-119.567C1587.01,-114.286 1601.36,-107.681 1614.75,-103.882 1792.44,-53.4521 2014.98,-39.6566 2099.76,-36.1014"/>
<polygon fill="red" stroke="red" stroke-width="0.247835" points="2100.02,-39.5941 2109.87,-35.6994 2099.74,-32.5997 2100.02,-39.5941"/>
</g>
<!-- distancia projetil 16&#45;&gt;atirar -->
<g id="edge5" class="edge"><title>distancia projetil 16&#45;&gt;atirar</title>
<path fill="none" stroke="green" stroke-width="0.441163" d="M1570.98,-119.405C1586.36,-105.692 1617.78,-77.6928 1640.22,-57.6906"/>
<polygon fill="green" stroke="green" stroke-width="0.441163" points="1642.61,-60.252 1647.75,-50.9856 1637.95,-55.0262 1642.61,-60.252"/>
</g>
<!-- distancia inimigo 1 -->
<g id="node17" class="node"><title>distancia inimigo 1</title>
<polygon fill="lightgray" stroke="black" points="2087.25,-137.631 2004.25,-137.631 2004.25,-119.631 2087.25,-119.631 2087.25,-137.631"/>
<text text-anchor="middle" x="2045.75" y="-126.431" font-family="Times New Roman,serif" font-size="9.00">distancia inimigo 1</text>
</g>
<!-- distancia inimigo 1&#45;&gt;direita -->
<g id="edge72" class="edge"><title>distancia inimigo 1&#45;&gt;direita</title>
<path fill="none" stroke="green" stroke-width="0.548612" stroke-dasharray="1,5" d="M2032.25,-119.589C2022.47,-114.174 2008.73,-107.401 1995.75,-103.882 1958.46,-93.777 1386.38,-49.5721 1232.57,-37.8194"/>
<polygon fill="green" stroke="green" stroke-width="0.548612" points="1232.47,-34.3017 1222.23,-37.0302 1231.94,-41.2814 1232.47,-34.3017"/>
</g>
<!-- distancia inimigo 1&#45;&gt;pular -->
<g id="edge38" class="edge"><title>distancia inimigo 1&#45;&gt;pular</title>
<path fill="none" stroke="green" stroke-width="0.170581" stroke-dasharray="1,5" d="M2053.65,-119.405C2066.4,-106.126 2092.01,-79.4511 2111.06,-59.6133"/>
<polygon fill="green" stroke="green" stroke-width="0.170581" points="2113.6,-62.0246 2118,-52.3873 2108.55,-57.1764 2113.6,-62.0246"/>
</g>
<!-- distancia inimigo 1&#45;&gt;atirar -->
<g id="edge22" class="edge"><title>distancia inimigo 1&#45;&gt;atirar</title>
<path fill="none" stroke="green" stroke-width="0.251088" d="M2031.25,-119.617C2021.47,-114.494 2008.14,-108.052 1995.75,-103.882 1891.09,-68.6545 1761.45,-47.9058 1700.5,-39.4286"/>
<polygon fill="green" stroke="green" stroke-width="0.251088" points="1700.67,-35.9189 1690.29,-38.0339 1699.72,-42.8546 1700.67,-35.9189"/>
</g>
<!-- distancia inimigo 2 -->
<g id="node18" class="node"><title>distancia inimigo 2</title>
<polygon fill="lightgray" stroke="black" points="1986.25,-137.631 1903.25,-137.631 1903.25,-119.631 1986.25,-119.631 1986.25,-137.631"/>
<text text-anchor="middle" x="1944.75" y="-126.431" font-family="Times New Roman,serif" font-size="9.00">distancia inimigo 2</text>
</g>
<!-- distancia inimigo 2&#45;&gt;atirar -->
<g id="edge50" class="edge"><title>distancia inimigo 2&#45;&gt;atirar</title>
<path fill="none" stroke="red" stroke-width="0.278185" d="M1928.92,-119.55C1918.98,-114.651 1905.79,-108.481 1893.75,-103.882 1826.19,-78.0876 1744.53,-55.3632 1699.57,-43.5514"/>
<polygon fill="red" stroke="red" stroke-width="0.278185" points="1700.31,-40.1284 1689.75,-40.9935 1698.55,-46.9022 1700.31,-40.1284"/>
</g>
<!-- direcao sprites 1 -->
<g id="node19" class="node"><title>direcao sprites 1</title>
<polygon fill="lightgray" stroke="black" points="1499.75,-137.631 1423.75,-137.631 1423.75,-119.631 1499.75,-119.631 1499.75,-137.631"/>
<text text-anchor="middle" x="1461.75" y="-126.431" font-family="Times New Roman,serif" font-size="9.00">direcao sprites 1</text>
</g>
<!-- direcao sprites 1&#45;&gt;direita -->
<g id="edge35" class="edge"><title>direcao sprites 1&#45;&gt;direita</title>
<path fill="none" stroke="red" stroke-width="0.328606" stroke-dasharray="1,5" d="M1445.1,-119.42C1435,-114.592 1421.78,-108.54 1409.75,-103.882 1347.99,-79.973 1274.1,-57.594 1230.99,-45.1397"/>
<polygon fill="red" stroke="red" stroke-width="0.328606" points="1231.82,-41.7355 1221.24,-42.34 1229.89,-48.4637 1231.82,-41.7355"/>
</g>
<!-- direcao sprites 1&#45;&gt;pular -->
<g id="edge19" class="edge"><title>direcao sprites 1&#45;&gt;pular</title>
<path fill="none" stroke="green" stroke-width="0.754824" d="M1474.79,-119.435C1483.94,-114.096 1496.65,-107.475 1508.75,-103.882 1621.2,-70.4751 1984.95,-44.6353 2099.72,-37.1479"/>
<polygon fill="green" stroke="green" stroke-width="0.754824" points="2100.28,-40.6192 2110.03,-36.481 2099.82,-33.6338 2100.28,-40.6192"/>
</g>
<!-- direcao sprites 1&#45;&gt;atirar -->
<g id="edge3" class="edge"><title>direcao sprites 1&#45;&gt;atirar</title>
<path fill="none" stroke="red" stroke-width="0.199212" d="M1477.31,-119.501C1486.42,-114.812 1498.17,-108.875 1508.75,-103.882 1551.69,-83.6228 1602.07,-61.8464 1633.95,-48.3078"/>
<polygon fill="red" stroke="red" stroke-width="0.199212" points="1635.37,-51.5043 1643.22,-44.3815 1632.64,-45.0586 1635.37,-51.5043"/>
</g>
<!-- direcao sprites 1&#45;&gt;release -->
<g id="edge77" class="edge"><title>direcao sprites 1&#45;&gt;release</title>
<path fill="none" stroke="red" stroke-width="0.374574" d="M1427.23,-119.629C1402.68,-114.269 1368.87,-107.546 1338.75,-103.882 1029.51,-66.2621 943.26,-133.6 638.749,-67.8823 622.169,-64.304 604.586,-57.8594 589.816,-51.6134"/>
<polygon fill="red" stroke="red" stroke-width="0.374574" points="591.119,-48.3635 580.554,-47.5696 588.318,-54.7787 591.119,-48.3635"/>
</g>
<!-- direcao sprites 2 -->
<g id="node20" class="node"><title>direcao sprites 2</title>
<polygon fill="lightgray" stroke="black" points="583.749,-137.631 507.749,-137.631 507.749,-119.631 583.749,-119.631 583.749,-137.631"/>
<text text-anchor="middle" x="545.749" y="-126.431" font-family="Times New Roman,serif" font-size="9.00">direcao sprites 2</text>
</g>
<!-- direcao sprites 2&#45;&gt;esquerda -->
<g id="edge39" class="edge"><title>direcao sprites 2&#45;&gt;esquerda</title>
<path fill="none" stroke="red" stroke-width="0.317093" d="M557.818,-119.405C577.343,-106.098 616.609,-79.337 645.735,-59.4862"/>
<polygon fill="red" stroke="red" stroke-width="0.317093" points="647.743,-62.3533 654.035,-53.8292 643.8,-56.5689 647.743,-62.3533"/>
</g>
<!-- direcao sprites 2&#45;&gt;direita -->
<g id="edge57" class="edge"><title>direcao sprites 2&#45;&gt;direita</title>
<path fill="none" stroke="green" stroke-width="0.152904" d="M558.797,-119.452C567.949,-114.12 580.663,-107.501 592.749,-103.882 799.16,-42.0735 1060.64,-35.0376 1156.94,-34.6946"/>
<polygon fill="green" stroke="green" stroke-width="0.152904" points="1157.06,-38.1946 1167.06,-34.6817 1157.06,-31.1946 1157.06,-38.1946"/>
</g>
<!-- direcao sprites 2&#45;&gt;release -->
<g id="edge46" class="edge"><title>direcao sprites 2&#45;&gt;release</title>
<path fill="none" stroke="green" stroke-width="0.386244" d="M546.547,-119.405C547.552,-109.059 549.346,-90.5783 551.001,-73.5369"/>
<polygon fill="green" stroke="green" stroke-width="0.386244" points="554.522,-73.4891 552.005,-63.1976 547.555,-72.8125 554.522,-73.4891"/>
</g>
<!-- direita&#45;&gt;direita -->
<g id="edge65" class="edge"><title>direita&#45;&gt;direita</title>
<path fill="none" stroke="green" stroke-width="0.557353" stroke-dasharray="1,5" d="M1216.79,-50.7227C1229.04,-53.8553 1240.33,-48.2614 1240.33,-33.9411 1240.33,-23.7603 1234.62,-17.9901 1226.92,-16.6305"/>
<polygon fill="green" stroke="green" stroke-width="0.557353" points="1226.59,-13.1428 1216.79,-17.1595 1226.96,-20.1333 1226.59,-13.1428"/>
</g>
<!-- 1829&#45;&gt;release -->
<g id="edge56" class="edge"><title>1829&#45;&gt;release</title>
<path fill="none" stroke="green" stroke-width="0.147032" d="M371.062,-114.465C376.983,-110.846 383.533,-107.05 389.749,-103.882 432.672,-82.0044 484.187,-61.3178 518.105,-48.4172"/>
<polygon fill="green" stroke="green" stroke-width="0.147032" points="519.489,-51.6358 527.609,-44.8308 517.018,-45.0865 519.489,-51.6358"/>
</g>
<!-- 2218 -->
<g id="node27" class="node"><title>2218</title>
<ellipse fill="white" stroke="black" cx="2528.75" cy="-128.631" rx="25" ry="25"/>
<text text-anchor="middle" x="2528.75" y="-126.431" font-family="Times New Roman,serif" font-size="9.00">2218</text>
</g>
<!-- 2218&#45;&gt;pular -->
<g id="edge14" class="edge"><title>2218&#45;&gt;pular</title>
<path fill="none" stroke="red" stroke-width="0.654476" d="M2508.81,-113.626C2502.9,-109.994 2496.25,-106.401 2489.75,-103.882 2377.72,-60.508 2234.83,-43.4578 2169.8,-37.6122"/>
<polygon fill="red" stroke="red" stroke-width="0.654476" points="2169.95,-34.1119 2159.68,-36.7375 2169.35,-41.0859 2169.95,-34.1119"/>
</g>
<!-- 2065&#45;&gt;esquerda -->
<g id="edge61" class="edge"><title>2065&#45;&gt;esquerda</title>
<path fill="none" stroke="red" stroke-width="0.290131" d="M267.781,-118.799C281.759,-113.75 300.066,-107.686 316.749,-103.882 437.36,-76.3847 472.651,-97.5392 592.749,-67.8823 609.019,-63.8645 626.411,-57.8389 641.464,-52.0353"/>
<polygon fill="red" stroke="red" stroke-width="0.290131" points="642.967,-55.2048 650.983,-48.2769 640.397,-48.6939 642.967,-55.2048"/>
</g>
<!-- 2294&#45;&gt;release -->
<g id="edge27" class="edge"><title>2294&#45;&gt;release</title>
<path fill="none" stroke="green" stroke-width="0.327946" d="M44.6045,-113.405C50.5183,-109.77 57.1795,-106.23 63.7487,-103.882 224.269,-46.5158 430.255,-36.6481 515.313,-35.1207"/>
<polygon fill="green" stroke="green" stroke-width="0.327946" points="515.604,-38.6168 525.55,-34.9674 515.499,-31.6176 515.604,-38.6168"/>
</g>
<!-- 2276&#45;&gt;atirar -->
<g id="edge48" class="edge"><title>2276&#45;&gt;atirar</title>
<path fill="none" stroke="red" stroke-width="0.11617" d="M2220.39,-123.719C2191.06,-119.009 2140.3,-110.86 2096.75,-103.882 1949.12,-80.2313 1773.05,-52.0869 1700.06,-40.423"/>
<polygon fill="red" stroke="red" stroke-width="0.11617" points="1700.48,-36.9461 1690.05,-38.8242 1699.37,-43.8584 1700.48,-36.9461"/>
</g>
</g>
</svg>
