<?xml version="1.0" encoding="UTF-8" standalone="no"?>
<!DOCTYPE svg PUBLIC "-//W3C//DTD SVG 1.1//EN"
 "http://www.w3.org/Graphics/SVG/1.1/DTD/svg11.dtd">
<!-- Generated by graphviz version 2.38.0 (20140413.2041)
 -->
<!-- Title: %3 Pages: 1 -->
<svg width="2086pt" height="196pt"
 viewBox="0.00 0.00 2085.58 195.58" xmlns="http://www.w3.org/2000/svg" xmlns:xlink="http://www.w3.org/1999/xlink">
<g id="graph0" class="graph" transform="scale(1 1) rotate(0) translate(4 191.581)">
<title>%3</title>
<polygon fill="white" stroke="none" points="-4,4 -4,-191.581 2081.58,-191.581 2081.58,4 -4,4"/>
<!-- dintancia projetil 1 -->
<g id="node1" class="node"><title>dintancia projetil 1</title>
<polygon fill="lightgray" stroke="black" points="287.798,-127.731 203.798,-127.731 203.798,-109.731 287.798,-109.731 287.798,-127.731"/>
<text text-anchor="middle" x="245.798" y="-116.531" font-family="Times New Roman,serif" font-size="9.00">dintancia projetil 1</text>
</g>
<!-- esquerda -->
<g id="node21" class="node"><title>esquerda</title>
<ellipse fill="lightblue" stroke="black" cx="886.798" cy="-33.9411" rx="33.8824" ry="33.8824"/>
<text text-anchor="middle" x="886.798" y="-31.7411" font-family="Times New Roman,serif" font-size="9.00">esquerda</text>
</g>
<!-- dintancia projetil 1&#45;&gt;esquerda -->
<g id="edge1" class="edge"><title>dintancia projetil 1&#45;&gt;esquerda</title>
<path fill="none" stroke="green" stroke-width="0.33583" d="M272.356,-109.716C280.174,-107.576 288.781,-105.43 296.798,-103.882 498.787,-64.8806 744.229,-44.8006 842.759,-37.8353"/>
<polygon fill="green" stroke="green" stroke-width="0.33583" points="843.203,-41.3129 852.935,-37.1258 842.716,-34.3299 843.203,-41.3129"/>
</g>
<!-- direita -->
<g id="node22" class="node"><title>direita</title>
<ellipse fill="lightblue" stroke="black" cx="984.798" cy="-33.9411" rx="27.6545" ry="27.6545"/>
<text text-anchor="middle" x="984.798" y="-31.7411" font-family="Times New Roman,serif" font-size="9.00">direita</text>
</g>
<!-- dintancia projetil 1&#45;&gt;direita -->
<g id="edge32" class="edge"><title>dintancia projetil 1&#45;&gt;direita</title>
<path fill="none" stroke="green" stroke-width="0.140606" d="M271.252,-109.693C279.341,-107.443 288.375,-105.243 296.798,-103.882 439.83,-80.7702 813.864,-123.146 947.798,-67.8823 951.733,-66.2584 955.53,-64.031 959.095,-61.494"/>
<polygon fill="green" stroke="green" stroke-width="0.140606" points="961.368,-64.1576 966.948,-55.1512 956.969,-58.7121 961.368,-64.1576"/>
</g>
<!-- pular -->
<g id="node23" class="node"><title>pular</title>
<ellipse fill="lightblue" stroke="black" cx="1072.8" cy="-33.9411" rx="25" ry="25"/>
<text text-anchor="middle" x="1072.8" y="-31.7411" font-family="Times New Roman,serif" font-size="9.00">pular</text>
</g>
<!-- dintancia projetil 1&#45;&gt;pular -->
<g id="edge43" class="edge"><title>dintancia projetil 1&#45;&gt;pular</title>
<path fill="none" stroke="red" stroke-width="0.158837" d="M270.985,-109.731C279.141,-107.454 288.28,-105.229 296.798,-103.882 460.075,-78.0707 888.622,-134.752 1039.8,-67.8823 1043.71,-66.1508 1047.42,-63.7293 1050.83,-60.9767"/>
<polygon fill="red" stroke="red" stroke-width="0.158837" points="1053.28,-63.4834 1058.24,-54.1219 1048.52,-58.3463 1053.28,-63.4834"/>
</g>
<!-- atirar -->
<g id="node24" class="node"><title>atirar</title>
<ellipse fill="lightblue" stroke="black" cx="1157.8" cy="-33.9411" rx="25" ry="25"/>
<text text-anchor="middle" x="1157.8" y="-31.7411" font-family="Times New Roman,serif" font-size="9.00">atirar</text>
</g>
<!-- dintancia projetil 1&#45;&gt;atirar -->
<g id="edge75" class="edge"><title>dintancia projetil 1&#45;&gt;atirar</title>
<path fill="none" stroke="red" stroke-width="0.403569" d="M270.981,-109.705C279.136,-107.427 288.276,-105.208 296.798,-103.882 387.791,-89.7291 1040.49,-104.925 1124.8,-67.8823 1128.72,-66.1605 1132.42,-63.7447 1135.84,-60.995"/>
<polygon fill="red" stroke="red" stroke-width="0.403569" points="1138.28,-63.5029 1143.25,-54.1426 1133.53,-58.3646 1138.28,-63.5029"/>
</g>
<!-- release -->
<g id="node25" class="node"><title>release</title>
<ellipse fill="lightblue" stroke="black" cx="1247.8" cy="-33.9411" rx="28.9828" ry="28.9828"/>
<text text-anchor="middle" x="1247.8" y="-31.7411" font-family="Times New Roman,serif" font-size="9.00">release</text>
</g>
<!-- dintancia projetil 1&#45;&gt;release -->
<g id="edge46" class="edge"><title>dintancia projetil 1&#45;&gt;release</title>
<path fill="none" stroke="green" stroke-width="0.300544" d="M270.978,-109.684C279.133,-107.405 288.274,-105.191 296.798,-103.882 397.146,-88.4815 1115.4,-105.238 1209.8,-67.8823 1213.53,-66.4065 1217.14,-64.3996 1220.56,-62.0998"/>
<polygon fill="green" stroke="green" stroke-width="0.300544" points="1222.82,-64.7798 1228.62,-55.9153 1218.56,-59.2264 1222.82,-64.7798"/>
</g>
<!-- distancia projetil 2 -->
<g id="node2" class="node"><title>distancia projetil 2</title>
<polygon fill="lightgray" stroke="black" points="389.298,-127.731 306.298,-127.731 306.298,-109.731 389.298,-109.731 389.298,-127.731"/>
<text text-anchor="middle" x="347.798" y="-116.531" font-family="Times New Roman,serif" font-size="9.00">distancia projetil 2</text>
</g>
<!-- distancia projetil 2&#45;&gt;esquerda -->
<g id="edge8" class="edge"><title>distancia projetil 2&#45;&gt;esquerda</title>
<path fill="none" stroke="green" stroke-width="0.13608" d="M374.909,-109.695C382.585,-107.604 390.979,-105.49 398.798,-103.882 561.116,-70.5134 757.139,-48.176 842.968,-39.277"/>
<polygon fill="green" stroke="green" stroke-width="0.13608" points="843.532,-42.7376 853.122,-38.2339 842.816,-35.7743 843.532,-42.7376"/>
</g>
<!-- distancia projetil 2&#45;&gt;direita -->
<g id="edge95" class="edge"><title>distancia projetil 2&#45;&gt;direita</title>
<path fill="none" stroke="green" stroke-width="0.225435" d="M373.522,-109.673C381.544,-107.451 390.472,-105.271 398.798,-103.882 519.393,-83.7619 835.019,-115.094 947.798,-67.8823 951.725,-66.2383 955.517,-63.9985 959.079,-61.4547"/>
<polygon fill="green" stroke="green" stroke-width="0.225435" points="961.355,-64.1154 966.928,-55.105 956.952,-58.673 961.355,-64.1154"/>
</g>
<!-- distancia projetil 2&#45;&gt;pular -->
<g id="edge42" class="edge"><title>distancia projetil 2&#45;&gt;pular</title>
<path fill="none" stroke="red" stroke-width="0.268861" d="M373.252,-109.697C381.342,-107.448 390.375,-105.247 398.798,-103.882 539.63,-81.0636 909.546,-126.097 1039.8,-67.8823 1043.71,-66.1357 1047.41,-63.7054 1050.82,-60.9483"/>
<polygon fill="red" stroke="red" stroke-width="0.268861" points="1053.27,-63.4531 1058.22,-54.0897 1048.51,-58.3179 1053.27,-63.4531"/>
</g>
<!-- distancia projetil 2&#45;&gt;atirar -->
<g id="edge21" class="edge"><title>distancia projetil 2&#45;&gt;atirar</title>
<path fill="none" stroke="red" stroke-width="0.199595" d="M373.247,-109.664C381.336,-107.413 390.371,-105.219 398.798,-103.882 558.334,-78.5696 977.11,-133.309 1124.8,-67.8823 1128.71,-66.1486 1132.42,-63.7258 1135.83,-60.9725"/>
<polygon fill="red" stroke="red" stroke-width="0.199595" points="1138.28,-63.4789 1143.24,-54.1171 1133.52,-58.3421 1138.28,-63.4789"/>
</g>
<!-- distancia projetil 2&#45;&gt;release -->
<g id="edge24" class="edge"><title>distancia projetil 2&#45;&gt;release</title>
<path fill="none" stroke="green" stroke-width="0.243579" d="M372.982,-109.71C381.137,-107.432 390.277,-105.212 398.798,-103.882 577.042,-76.0749 1042.22,-134.676 1209.8,-67.8823 1213.52,-66.3972 1217.14,-64.3845 1220.56,-62.0812"/>
<polygon fill="green" stroke="green" stroke-width="0.243579" points="1222.81,-64.7594 1228.61,-55.8924 1218.55,-59.2079 1222.81,-64.7594"/>
</g>
<!-- distancia projetil 3 -->
<g id="node3" class="node"><title>distancia projetil 3</title>
<polygon fill="lightgray" stroke="black" points="490.298,-127.731 407.298,-127.731 407.298,-109.731 490.298,-109.731 490.298,-127.731"/>
<text text-anchor="middle" x="448.798" y="-116.531" font-family="Times New Roman,serif" font-size="9.00">distancia projetil 3</text>
</g>
<!-- distancia projetil 3&#45;&gt;esquerda -->
<g id="edge49" class="edge"><title>distancia projetil 3&#45;&gt;esquerda</title>
<path fill="none" stroke="red" stroke-width="0.303141" d="M476.745,-109.662C484.202,-107.641 492.278,-105.57 499.798,-103.882 623.402,-76.1477 771.223,-52.3874 843.158,-41.4193"/>
<polygon fill="red" stroke="red" stroke-width="0.303141" points="843.847,-44.855 853.209,-39.8949 842.797,-37.9341 843.847,-44.855"/>
</g>
<!-- distancia projetil 3&#45;&gt;direita -->
<g id="edge15" class="edge"><title>distancia projetil 3&#45;&gt;direita</title>
<path fill="none" stroke="red" stroke-width="0.40434" d="M474.796,-109.676C482.751,-107.481 491.573,-105.317 499.798,-103.882 598.189,-86.7219 855.954,-107.126 947.798,-67.8823 951.713,-66.2095 955.497,-63.952 959.055,-61.3985"/>
<polygon fill="red" stroke="red" stroke-width="0.40434" points="961.336,-64.0549 966.9,-55.0388 956.928,-58.6171 961.336,-64.0549"/>
</g>
<!-- distancia projetil 3&#45;&gt;pular -->
<g id="edge88" class="edge"><title>distancia projetil 3&#45;&gt;pular</title>
<path fill="none" stroke="green" stroke-width="0.313652" d="M474.522,-109.678C482.545,-107.456 491.473,-105.276 499.798,-103.882 618.414,-84.0257 930.257,-117.529 1039.8,-67.8823 1043.7,-66.1153 1047.39,-63.673 1050.8,-60.9097"/>
<polygon fill="green" stroke="green" stroke-width="0.313652" points="1053.25,-63.4121 1058.2,-54.0461 1048.49,-58.2793 1053.25,-63.4121"/>
</g>
<!-- distancia projetil 3&#45;&gt;atirar -->
<g id="edge56" class="edge"><title>distancia projetil 3&#45;&gt;atirar</title>
<path fill="none" stroke="red" stroke-width="0.6973" d="M474.254,-109.705C482.343,-107.456 491.376,-105.253 499.798,-103.882 637.11,-81.5329 997.828,-124.739 1124.8,-67.8823 1128.7,-66.1329 1132.41,-63.701 1135.82,-60.943"/>
<polygon fill="red" stroke="red" stroke-width="0.6973" points="1138.26,-63.4475 1143.22,-54.0838 1133.51,-58.3126 1138.26,-63.4475"/>
</g>
<!-- distancia projetil 3&#45;&gt;release -->
<g id="edge25" class="edge"><title>distancia projetil 3&#45;&gt;release</title>
<path fill="none" stroke="red" stroke-width="0.30416" d="M474.248,-109.669C482.337,-107.419 491.372,-105.224 499.798,-103.882 655.813,-79.0391 1063.23,-126.837 1209.8,-67.8823 1213.52,-66.3855 1217.13,-64.3652 1220.55,-62.0575"/>
<polygon fill="red" stroke="red" stroke-width="0.30416" points="1222.81,-64.7336 1228.6,-55.8634 1218.54,-59.1843 1222.81,-64.7336"/>
</g>
<!-- distancia projetil 4 -->
<g id="node4" class="node"><title>distancia projetil 4</title>
<polygon fill="lightgray" stroke="black" points="591.298,-127.731 508.298,-127.731 508.298,-109.731 591.298,-109.731 591.298,-127.731"/>
<text text-anchor="middle" x="549.798" y="-116.531" font-family="Times New Roman,serif" font-size="9.00">distancia projetil 4</text>
</g>
<!-- distancia projetil 4&#45;&gt;esquerda -->
<g id="edge98" class="edge"><title>distancia projetil 4&#45;&gt;esquerda</title>
<path fill="none" stroke="red" stroke-width="0.149316" d="M578.887,-109.678C586.041,-107.74 593.688,-105.704 600.798,-103.882 686.733,-81.8615 787.713,-57.9863 843.763,-44.9098"/>
<polygon fill="red" stroke="red" stroke-width="0.149316" points="844.748,-48.2743 853.693,-42.5967 843.159,-41.4568 844.748,-48.2743"/>
</g>
<!-- distancia projetil 4&#45;&gt;direita -->
<g id="edge23" class="edge"><title>distancia projetil 4&#45;&gt;direita</title>
<path fill="none" stroke="green" stroke-width="0.107863" d="M576.08,-109.722C583.967,-107.556 592.681,-105.395 600.798,-103.882 753.223,-75.4729 805.935,-130.454 947.798,-67.8823 951.693,-66.1642 955.465,-63.8789 959.017,-61.3101"/>
<polygon fill="green" stroke="green" stroke-width="0.107863" points="961.306,-63.9599 966.855,-54.9348 956.889,-58.5292 961.306,-63.9599"/>
</g>
<!-- distancia projetil 4&#45;&gt;pular -->
<g id="edge55" class="edge"><title>distancia projetil 4&#45;&gt;pular</title>
<path fill="none" stroke="red" stroke-width="0.459726" d="M575.798,-109.684C583.753,-107.49 592.574,-105.323 600.798,-103.882 697.212,-86.9855 950.955,-108.968 1039.8,-67.8823 1043.68,-66.0856 1047.37,-63.6259 1050.78,-60.8536"/>
<polygon fill="red" stroke="red" stroke-width="0.459726" points="1053.23,-63.3525 1058.18,-53.9827 1048.47,-58.2233 1053.23,-63.3525"/>
</g>
<!-- distancia projetil 4&#45;&gt;atirar -->
<g id="edge87" class="edge"><title>distancia projetil 4&#45;&gt;atirar</title>
<path fill="none" stroke="red" stroke-width="0.323783" d="M575.524,-109.689C583.547,-107.467 592.474,-105.284 600.798,-103.882 715.896,-84.4948 1018.54,-116.173 1124.8,-67.8823 1128.69,-66.1114 1132.39,-63.6667 1135.8,-60.9022"/>
<polygon fill="red" stroke="red" stroke-width="0.323783" points="1138.25,-63.4042 1143.2,-54.0377 1133.49,-58.2718 1138.25,-63.4042"/>
</g>
<!-- distancia projetil 4&#45;&gt;release -->
<g id="edge73" class="edge"><title>distancia projetil 4&#45;&gt;release</title>
<path fill="none" stroke="red" stroke-width="0.282554" d="M575.255,-109.712C583.344,-107.464 592.377,-105.259 600.798,-103.882 734.59,-82.0023 1084.24,-119.001 1209.8,-67.8823 1213.51,-66.3699 1217.12,-64.3396 1220.53,-62.026"/>
<polygon fill="red" stroke="red" stroke-width="0.282554" points="1222.8,-64.6992 1228.59,-55.8248 1218.53,-59.1531 1222.8,-64.6992"/>
</g>
<!-- distancia projetil 5 -->
<g id="node5" class="node"><title>distancia projetil 5</title>
<polygon fill="lightgray" stroke="black" points="692.298,-127.731 609.298,-127.731 609.298,-109.731 692.298,-109.731 692.298,-127.731"/>
<text text-anchor="middle" x="650.798" y="-116.531" font-family="Times New Roman,serif" font-size="9.00">distancia projetil 5</text>
</g>
<!-- distancia projetil 5&#45;&gt;esquerda -->
<g id="edge41" class="edge"><title>distancia projetil 5&#45;&gt;esquerda</title>
<path fill="none" stroke="green" stroke-width="0.49434" d="M673.856,-109.642C713.653,-95.6814 795.746,-66.8828 845.57,-49.404"/>
<polygon fill="green" stroke="green" stroke-width="0.49434" points="846.805,-52.68 855.083,-46.067 844.488,-46.0746 846.805,-52.68"/>
</g>
<!-- distancia projetil 5&#45;&gt;direita -->
<g id="edge10" class="edge"><title>distancia projetil 5&#45;&gt;direita</title>
<path fill="none" stroke="red" stroke-width="0.2061" d="M677.914,-109.72C685.59,-107.63 693.983,-105.509 701.798,-103.882 809.977,-81.3631 847.655,-114.584 947.798,-67.8823 951.464,-66.1726 955.032,-63.9794 958.414,-61.5379"/>
<polygon fill="red" stroke="red" stroke-width="0.2061" points="960.811,-64.1003 966.387,-55.0917 956.41,-58.6567 960.811,-64.1003"/>
</g>
<!-- distancia projetil 5&#45;&gt;pular -->
<g id="edge106" class="edge"><title>distancia projetil 5&#45;&gt;pular</title>
<path fill="none" stroke="green" stroke-width="0.36308" d="M677.346,-109.664C685.163,-107.522 693.773,-105.389 701.798,-103.882 850.274,-75.9989 903.459,-132.954 1039.8,-67.8823 1043.66,-66.0386 1047.34,-63.5513 1050.74,-60.7648"/>
<polygon fill="green" stroke="green" stroke-width="0.36308" points="1053.19,-63.258 1058.13,-53.8823 1048.42,-58.1345 1053.19,-63.258"/>
</g>
<!-- distancia projetil 5&#45;&gt;atirar -->
<g id="edge71" class="edge"><title>distancia projetil 5&#45;&gt;atirar</title>
<path fill="none" stroke="green" stroke-width="0.331743" d="M676.801,-109.7C684.756,-107.506 693.577,-105.336 701.798,-103.882 794.696,-87.4541 1039.23,-107.613 1124.8,-67.8823 1128.68,-66.0797 1132.37,-63.6164 1135.77,-60.8423"/>
<polygon fill="green" stroke="green" stroke-width="0.331743" points="1138.23,-63.3404 1143.17,-53.97 1133.46,-58.212 1138.23,-63.3404"/>
</g>
<!-- distancia projetil 5&#45;&gt;release -->
<g id="edge64" class="edge"><title>distancia projetil 5&#45;&gt;release</title>
<path fill="none" stroke="green" stroke-width="0.117472" d="M676.526,-109.7C684.549,-107.479 693.476,-105.293 701.798,-103.882 813.378,-84.9638 1105.23,-111.168 1209.8,-67.8823 1213.5,-66.3482 1217.1,-64.304 1220.52,-61.9821"/>
<polygon fill="green" stroke="green" stroke-width="0.117472" points="1222.79,-64.6513 1228.56,-55.771 1218.51,-59.1095 1222.79,-64.6513"/>
</g>
<!-- distancia projetil 6 -->
<g id="node6" class="node"><title>distancia projetil 6</title>
<polygon fill="lightgray" stroke="black" points="185.298,-127.731 102.298,-127.731 102.298,-109.731 185.298,-109.731 185.298,-127.731"/>
<text text-anchor="middle" x="143.798" y="-116.531" font-family="Times New Roman,serif" font-size="9.00">distancia projetil 6</text>
</g>
<!-- distancia projetil 6&#45;&gt;esquerda -->
<g id="edge85" class="edge"><title>distancia projetil 6&#45;&gt;esquerda</title>
<path fill="none" stroke="red" stroke-width="0.224395" d="M170.076,-109.701C177.963,-107.535 186.677,-105.379 194.798,-103.882 436.924,-59.265 732.4,-41.9845 842.597,-36.8002"/>
<polygon fill="red" stroke="red" stroke-width="0.224395" points="842.847,-40.2925 852.675,-36.3357 842.524,-33.2999 842.847,-40.2925"/>
</g>
<!-- distancia projetil 6&#45;&gt;direita -->
<g id="edge14" class="edge"><title>distancia projetil 6&#45;&gt;direita</title>
<path fill="none" stroke="green" stroke-width="0.191882" d="M168.985,-109.727C177.14,-107.45 186.279,-105.226 194.798,-103.882 360.276,-77.7772 792.701,-131.201 947.798,-67.8823 951.74,-66.2731 955.54,-64.0547 959.107,-61.5227"/>
<polygon fill="green" stroke="green" stroke-width="0.191882" points="961.377,-64.1885 966.961,-55.185 956.981,-58.7407 961.377,-64.1885"/>
</g>
<!-- distancia projetil 6&#45;&gt;pular -->
<g id="edge20" class="edge"><title>distancia projetil 6&#45;&gt;pular</title>
<path fill="none" stroke="green" stroke-width="0.195407" d="M168.981,-109.701C177.136,-107.422 186.276,-105.204 194.798,-103.882 287.662,-89.4796 953.746,-105.646 1039.8,-67.8823 1043.72,-66.1622 1047.43,-63.7474 1050.84,-60.9983"/>
<polygon fill="green" stroke="green" stroke-width="0.195407" points="1053.29,-63.5063 1058.25,-54.1463 1048.53,-58.3679 1053.29,-63.5063"/>
</g>
<!-- distancia projetil 6&#45;&gt;atirar -->
<g id="edge53" class="edge"><title>distancia projetil 6&#45;&gt;atirar</title>
<path fill="none" stroke="red" stroke-width="0.410233" d="M168.978,-109.681C177.132,-107.401 186.273,-105.187 194.798,-103.882 297.018,-88.232 1030.02,-109.254 1124.8,-67.8823 1128.72,-66.1698 1132.43,-63.7595 1135.85,-61.0127"/>
<polygon fill="red" stroke="red" stroke-width="0.410233" points="1138.29,-63.5217 1143.26,-54.1626 1133.54,-58.3823 1138.29,-63.5217"/>
</g>
<!-- distancia projetil 7 -->
<g id="node7" class="node"><title>distancia projetil 7</title>
<polygon fill="lightgray" stroke="black" points="793.298,-127.731 710.298,-127.731 710.298,-109.731 793.298,-109.731 793.298,-127.731"/>
<text text-anchor="middle" x="751.798" y="-116.531" font-family="Times New Roman,serif" font-size="9.00">distancia projetil 7</text>
</g>
<!-- distancia projetil 7&#45;&gt;esquerda -->
<g id="edge31" class="edge"><title>distancia projetil 7&#45;&gt;esquerda</title>
<path fill="none" stroke="green" stroke-width="0.340552" d="M765.236,-109.491C784.674,-97.5699 821.374,-75.0634 849.384,-57.8859"/>
<polygon fill="green" stroke="green" stroke-width="0.340552" points="851.445,-60.7278 858.14,-52.5162 847.785,-54.7605 851.445,-60.7278"/>
</g>
<!-- distancia projetil 7&#45;&gt;direita -->
<g id="edge105" class="edge"><title>distancia projetil 7&#45;&gt;direita</title>
<path fill="none" stroke="red" stroke-width="0.116249" d="M780.896,-109.712C788.05,-107.773 795.694,-105.728 802.798,-103.882 867.064,-87.1806 889.067,-98.862 947.798,-67.8823 951.376,-65.9951 954.888,-63.6895 958.237,-61.1829"/>
<polygon fill="red" stroke="red" stroke-width="0.116249" points="960.669,-63.7146 966.174,-54.6621 956.226,-58.3059 960.669,-63.7146"/>
</g>
<!-- distancia projetil 7&#45;&gt;pular -->
<g id="edge69" class="edge"><title>distancia projetil 7&#45;&gt;pular</title>
<path fill="none" stroke="green" stroke-width="0.389994" d="M779.185,-109.676C786.789,-107.609 795.078,-105.511 802.798,-103.882 907.044,-81.886 944.695,-115.908 1039.8,-67.8823 1043.43,-66.0464 1046.91,-63.6597 1050.16,-61.0098"/>
<polygon fill="green" stroke="green" stroke-width="0.389994" points="1052.73,-63.3993 1057.71,-54.0438 1047.98,-58.2566 1052.73,-63.3993"/>
</g>
<!-- distancia projetil 7&#45;&gt;atirar -->
<g id="edge39" class="edge"><title>distancia projetil 7&#45;&gt;atirar</title>
<path fill="none" stroke="red" stroke-width="0.261326" d="M778.351,-109.691C786.169,-107.55 794.777,-105.41 802.798,-103.882 944.257,-76.9337 995.001,-130.249 1124.8,-67.8823 1128.47,-66.1183 1131.97,-63.7754 1135.23,-61.1492"/>
<polygon fill="red" stroke="red" stroke-width="0.261326" points="1137.79,-63.5496 1142.79,-54.2058 1133.05,-58.3957 1137.79,-63.5496"/>
</g>
<!-- distancia projetil 7&#45;&gt;release -->
<g id="edge51" class="edge"><title>distancia projetil 7&#45;&gt;release</title>
<path fill="none" stroke="red" stroke-width="0.242451" d="M777.804,-109.717C785.759,-107.524 794.579,-105.35 802.798,-103.882 981.566,-71.9627 1042.62,-138.802 1209.8,-67.8823 1213.49,-66.3159 1217.08,-64.251 1220.49,-61.9169"/>
<polygon fill="red" stroke="red" stroke-width="0.242451" points="1222.77,-64.58 1228.53,-55.691 1218.48,-59.0448 1222.77,-64.58"/>
</g>
<!-- distancia projetil 8 -->
<g id="node8" class="node"><title>distancia projetil 8</title>
<polygon fill="lightgray" stroke="black" points="1106.3,-187.581 1023.3,-187.581 1023.3,-169.581 1106.3,-169.581 1106.3,-187.581"/>
<text text-anchor="middle" x="1064.8" y="-176.381" font-family="Times New Roman,serif" font-size="9.00">distancia projetil 8</text>
</g>
<!-- distancia projetil 8&#45;&gt;esquerda -->
<g id="edge80" class="edge"><title>distancia projetil 8&#45;&gt;esquerda</title>
<path fill="none" stroke="red" stroke-width="0.131408" stroke-dasharray="1,5" d="M1023.27,-177.441C831.869,-176.6 42.5713,-170.873 6.79805,-133.581 -2.33932,-124.055 -2.16339,-113.573 6.79805,-103.882 63.9949,-42.0292 672.219,-35.5692 842.639,-34.9773"/>
<polygon fill="red" stroke="red" stroke-width="0.131408" points="842.769,-38.477 852.758,-34.9474 842.748,-31.4771 842.769,-38.477"/>
</g>
<!-- distancia projetil 8&#45;&gt;direita -->
<g id="edge30" class="edge"><title>distancia projetil 8&#45;&gt;direita</title>
<path fill="none" stroke="red" stroke-width="0.130635" d="M1023.05,-177.28C841.145,-175.771 125.387,-167.678 92.798,-133.581 -38.8663,4.17861 771.17,-139.406 947.798,-67.8823 951.744,-66.2844 955.547,-64.0728 959.116,-61.5446"/>
<polygon fill="red" stroke="red" stroke-width="0.130635" points="961.384,-64.212 966.972,-55.2108 956.99,-58.7625 961.384,-64.212"/>
</g>
<!-- distancia projetil 8&#45;&gt;pular -->
<g id="edge37" class="edge"><title>distancia projetil 8&#45;&gt;pular</title>
<path fill="none" stroke="green" stroke-width="0.253436" d="M1106.55,-177.28C1288.45,-175.771 2004.21,-167.678 2036.8,-133.581 2045.92,-124.039 2045.95,-113.398 2036.8,-103.882 1966.44,-30.6939 1220.59,-98.5094 1123.8,-67.8823 1115.6,-65.2887 1107.45,-61.004 1100.15,-56.369"/>
<polygon fill="green" stroke="green" stroke-width="0.253436" points="1101.65,-53.1547 1091.41,-50.4116 1097.7,-58.9378 1101.65,-53.1547"/>
</g>
<!-- distancia projetil 8&#45;&gt;atirar -->
<g id="edge68" class="edge"><title>distancia projetil 8&#45;&gt;atirar</title>
<path fill="none" stroke="red" stroke-width="0.337392" d="M1106.35,-177.316C1289.91,-175.945 2020.57,-168.319 2053.8,-133.581 2062.92,-124.042 2062.93,-113.412 2053.8,-103.882 1988.86,-36.1116 1299.37,-95.948 1209.8,-67.8823 1201.3,-65.2181 1192.82,-60.7952 1185.25,-56.0418"/>
<polygon fill="red" stroke="red" stroke-width="0.337392" points="1187.08,-53.0605 1176.83,-50.3954 1183.18,-58.8734 1187.08,-53.0605"/>
</g>
<!-- distancia projetil 8&#45;&gt;release -->
<g id="edge82" class="edge"><title>distancia projetil 8&#45;&gt;release</title>
<path fill="none" stroke="red" stroke-width="0.17648" d="M1106.44,-177.348C1292.12,-176.108 2036.95,-168.941 2070.8,-133.581 2079.93,-124.046 2079.73,-113.597 2070.8,-103.882 2017.19,-45.5951 1443.19,-36.5664 1286.9,-35.1865"/>
<polygon fill="red" stroke="red" stroke-width="0.17648" points="1286.82,-31.6859 1276.8,-35.103 1286.77,-38.6856 1286.82,-31.6859"/>
</g>
<!-- 7 -->
<g id="node26" class="node"><title>7</title>
<ellipse fill="white" stroke="black" cx="30.798" cy="-118.731" rx="14.7" ry="14.7"/>
<text text-anchor="middle" x="30.798" y="-116.531" font-family="Times New Roman,serif" font-size="9.00">7</text>
</g>
<!-- distancia projetil 8&#45;&gt;7 -->
<g id="edge33" class="edge"><title>distancia projetil 8&#45;&gt;7</title>
<path fill="none" stroke="green" stroke-width="0.236648" d="M1023.24,-177.966C857.898,-179.157 246.718,-180.244 59.798,-133.581 57.423,-132.988 55.0102,-132.191 52.6424,-131.278"/>
<polygon fill="green" stroke="green" stroke-width="0.236648" points="53.9287,-128.019 43.3742,-127.094 51.0484,-134.399 53.9287,-128.019"/>
</g>
<!-- distancia projetil 9 -->
<g id="node9" class="node"><title>distancia projetil 9</title>
<polygon fill="lightgray" stroke="black" points="894.298,-127.731 811.298,-127.731 811.298,-109.731 894.298,-109.731 894.298,-127.731"/>
<text text-anchor="middle" x="852.798" y="-116.531" font-family="Times New Roman,serif" font-size="9.00">distancia projetil 9</text>
</g>
<!-- distancia projetil 9&#45;&gt;esquerda -->
<g id="edge97" class="edge"><title>distancia projetil 9&#45;&gt;esquerda</title>
<path fill="none" stroke="green" stroke-width="0.100767" d="M856.182,-109.491C859.561,-101.263 865.012,-87.9914 870.384,-74.9102"/>
<polygon fill="green" stroke="green" stroke-width="0.100767" points="873.69,-76.0735 874.251,-65.4936 867.214,-73.4143 873.69,-76.0735"/>
</g>
<!-- distancia projetil 9&#45;&gt;direita -->
<g id="edge65" class="edge"><title>distancia projetil 9&#45;&gt;direita</title>
<path fill="none" stroke="red" stroke-width="0.7153" d="M871.417,-109.615C891.145,-100.644 922.833,-85.1582 947.798,-67.8823 951.047,-65.6341 954.321,-63.132 957.507,-60.5396"/>
<polygon fill="red" stroke="red" stroke-width="0.7153" points="959.838,-63.152 965.18,-54.0025 955.298,-57.8236 959.838,-63.152"/>
</g>
<!-- distancia projetil 9&#45;&gt;pular -->
<g id="edge54" class="edge"><title>distancia projetil 9&#45;&gt;pular</title>
<path fill="none" stroke="red" stroke-width="0.187849" d="M882.185,-109.717C889.26,-107.797 896.797,-105.759 903.798,-103.882 964.191,-87.6893 985.588,-99.0391 1039.8,-67.8823 1043.33,-65.8528 1046.75,-63.3486 1049.96,-60.6348"/>
<polygon fill="red" stroke="red" stroke-width="0.187849" points="1052.56,-62.9957 1057.47,-53.6079 1047.78,-57.884 1052.56,-62.9957"/>
</g>
<!-- distancia projetil 9&#45;&gt;atirar -->
<g id="edge22" class="edge"><title>distancia projetil 9&#45;&gt;atirar</title>
<path fill="none" stroke="red" stroke-width="0.236471" d="M880.197,-109.731C887.801,-107.664 896.087,-105.553 903.798,-103.882 1001.06,-82.8141 1036.21,-113.217 1124.8,-67.8823 1128.42,-66.0269 1131.9,-63.6284 1135.14,-60.972"/>
<polygon fill="red" stroke="red" stroke-width="0.236471" points="1137.72,-63.3587 1142.68,-53.9999 1132.96,-58.219 1137.72,-63.3587"/>
</g>
<!-- distancia projetil 9&#45;&gt;release -->
<g id="edge72" class="edge"><title>distancia projetil 9&#45;&gt;release</title>
<path fill="none" stroke="green" stroke-width="0.126723" d="M879.357,-109.72C887.174,-107.58 895.781,-105.433 903.798,-103.882 1038.24,-77.8678 1084.52,-123.177 1209.8,-67.8823 1213.47,-66.2627 1217.04,-64.1637 1220.44,-61.8095"/>
<polygon fill="green" stroke="green" stroke-width="0.126723" points="1222.73,-64.4629 1228.47,-55.5593 1218.43,-58.9384 1222.73,-64.4629"/>
</g>
<!-- distancia projetil 10 -->
<g id="node10" class="node"><title>distancia projetil 10</title>
<polygon fill="lightgray" stroke="black" points="1000.8,-127.731 912.798,-127.731 912.798,-109.731 1000.8,-109.731 1000.8,-127.731"/>
<text text-anchor="middle" x="956.798" y="-116.531" font-family="Times New Roman,serif" font-size="9.00">distancia projetil 10</text>
</g>
<!-- distancia projetil 10&#45;&gt;esquerda -->
<g id="edge40" class="edge"><title>distancia projetil 10&#45;&gt;esquerda</title>
<path fill="none" stroke="green" stroke-width="0.242243" d="M949.83,-109.491C941.644,-99.8081 927.552,-83.1417 914.766,-68.0197"/>
<polygon fill="green" stroke="green" stroke-width="0.242243" points="917.367,-65.6743 908.237,-60.2978 912.021,-70.1939 917.367,-65.6743"/>
</g>
<!-- distancia projetil 10&#45;&gt;direita -->
<g id="edge70" class="edge"><title>distancia projetil 10&#45;&gt;direita</title>
<path fill="none" stroke="green" stroke-width="0.400342" d="M959.585,-109.491C962.71,-100.252 967.984,-84.656 972.904,-70.1096"/>
<polygon fill="green" stroke="green" stroke-width="0.400342" points="976.334,-70.892 976.222,-60.2978 969.703,-68.6493 976.334,-70.892"/>
</g>
<!-- distancia projetil 10&#45;&gt;pular -->
<g id="edge81" class="edge"><title>distancia projetil 10&#45;&gt;pular</title>
<path fill="none" stroke="red" stroke-width="0.11266" d="M972.832,-109.616C990.115,-100.53 1018.07,-84.8421 1039.8,-67.8823 1042.94,-65.431 1046.09,-62.7047 1049.14,-59.8996"/>
<polygon fill="red" stroke="red" stroke-width="0.11266" points="1051.65,-62.3403 1056.41,-52.8767 1046.79,-57.3041 1051.65,-62.3403"/>
</g>
<!-- distancia projetil 10&#45;&gt;atirar -->
<g id="edge9" class="edge"><title>distancia projetil 10&#45;&gt;atirar</title>
<path fill="none" stroke="green" stroke-width="0.130613" d="M986.703,-109.718C1031.69,-97.5351 1112.8,-75.0157 1124.8,-67.8823 1128.3,-65.8006 1131.7,-63.2648 1134.9,-60.5338"/>
<polygon fill="green" stroke="green" stroke-width="0.130613" points="1137.51,-62.8871 1142.4,-53.4905 1132.72,-57.784 1137.51,-62.8871"/>
</g>
<!-- distancia projetil 10&#45;&gt;release -->
<g id="edge62" class="edge"><title>distancia projetil 10&#45;&gt;release</title>
<path fill="none" stroke="red" stroke-width="0.218065" d="M985.859,-109.705C993.608,-107.683 1002,-105.601 1009.8,-103.882 1098,-84.4507 1128.32,-106.854 1209.8,-67.8823 1213.23,-66.2411 1216.59,-64.2046 1219.81,-61.9549"/>
<polygon fill="red" stroke="red" stroke-width="0.218065" points="1222.2,-64.5293 1227.95,-55.6267 1217.91,-59.0041 1222.2,-64.5293"/>
</g>
<!-- distancia projetil 11 -->
<g id="node11" class="node"><title>distancia projetil 11</title>
<polygon fill="lightgray" stroke="black" points="1106.8,-127.731 1018.8,-127.731 1018.8,-109.731 1106.8,-109.731 1106.8,-127.731"/>
<text text-anchor="middle" x="1062.8" y="-116.531" font-family="Times New Roman,serif" font-size="9.00">distancia projetil 11</text>
</g>
<!-- distancia projetil 11&#45;&gt;esquerda -->
<g id="edge84" class="edge"><title>distancia projetil 11&#45;&gt;esquerda</title>
<path fill="none" stroke="green" stroke-width="0.137178" d="M1042.62,-109.602C1019.47,-100.134 980.487,-83.757 947.798,-67.8823 940.414,-64.2963 932.635,-60.283 925.195,-56.3245"/>
<polygon fill="green" stroke="green" stroke-width="0.137178" points="926.472,-53.0369 916.008,-51.376 923.152,-59.1997 926.472,-53.0369"/>
</g>
<!-- distancia projetil 11&#45;&gt;direita -->
<g id="edge52" class="edge"><title>distancia projetil 11&#45;&gt;direita</title>
<path fill="none" stroke="red" stroke-width="0.383363" d="M1055.03,-109.491C1044.68,-98.4955 1025.83,-78.4944 1010.27,-61.9759"/>
<polygon fill="red" stroke="red" stroke-width="0.383363" points="1012.8,-59.5546 1003.39,-54.6762 1007.7,-64.3548 1012.8,-59.5546"/>
</g>
<!-- distancia projetil 11&#45;&gt;pular -->
<g id="edge19" class="edge"><title>distancia projetil 11&#45;&gt;pular</title>
<path fill="none" stroke="red" stroke-width="0.153863" d="M1063.79,-109.491C1064.94,-99.9864 1066.9,-83.7531 1068.7,-68.8566"/>
<polygon fill="red" stroke="red" stroke-width="0.153863" points="1072.18,-69.2039 1069.91,-58.8563 1065.24,-68.3644 1072.18,-69.2039"/>
</g>
<!-- distancia projetil 11&#45;&gt;atirar -->
<g id="edge96" class="edge"><title>distancia projetil 11&#45;&gt;atirar</title>
<path fill="none" stroke="green" stroke-width="0.257395" d="M1073.62,-109.6C1086.22,-99.9987 1107.52,-83.3706 1124.8,-67.8823 1127.76,-65.2227 1130.81,-62.3682 1133.8,-59.492"/>
<polygon fill="green" stroke="green" stroke-width="0.257395" points="1136.33,-61.904 1141.01,-52.3964 1131.43,-56.9135 1136.33,-61.904"/>
</g>
<!-- distancia projetil 11&#45;&gt;release -->
<g id="edge63" class="edge"><title>distancia projetil 11&#45;&gt;release</title>
<path fill="none" stroke="green" stroke-width="0.256074" d="M1090.55,-109.717C1127.11,-98.9245 1189.17,-79.7108 1209.8,-67.8823 1213.1,-65.9905 1216.37,-63.7887 1219.54,-61.4372"/>
<polygon fill="green" stroke="green" stroke-width="0.256074" points="1221.99,-63.9587 1227.6,-54.9729 1217.61,-58.497 1221.99,-63.9587"/>
</g>
<!-- distancia projetil 12 -->
<g id="node12" class="node"><title>distancia projetil 12</title>
<polygon fill="lightgray" stroke="black" points="1212.8,-127.731 1124.8,-127.731 1124.8,-109.731 1212.8,-109.731 1212.8,-127.731"/>
<text text-anchor="middle" x="1168.8" y="-116.531" font-family="Times New Roman,serif" font-size="9.00">distancia projetil 12</text>
</g>
<!-- distancia projetil 12&#45;&gt;esquerda -->
<g id="edge29" class="edge"><title>distancia projetil 12&#45;&gt;esquerda</title>
<path fill="none" stroke="red" stroke-width="0.271074" d="M1138.87,-109.661C1131.35,-107.704 1123.29,-105.664 1115.8,-103.882 1041.51,-86.2251 1019.45,-94.2902 947.798,-67.8823 940.096,-65.0434 932.168,-61.3791 924.681,-57.5307"/>
<polygon fill="red" stroke="red" stroke-width="0.271074" points="925.952,-54.2411 915.484,-52.6057 922.648,-60.412 925.952,-54.2411"/>
</g>
<!-- distancia projetil 12&#45;&gt;direita -->
<g id="edge61" class="edge"><title>distancia projetil 12&#45;&gt;direita</title>
<path fill="none" stroke="red" stroke-width="0.4655" d="M1143.79,-109.658C1117.19,-100.722 1074.16,-85.2664 1038.8,-67.8823 1031.31,-64.2028 1023.52,-59.8078 1016.26,-55.4454"/>
<polygon fill="red" stroke="red" stroke-width="0.4655" points="1017.75,-52.2571 1007.4,-49.9935 1014.08,-58.2176 1017.75,-52.2571"/>
</g>
<!-- distancia projetil 12&#45;&gt;pular -->
<g id="edge94" class="edge"><title>distancia projetil 12&#45;&gt;pular</title>
<path fill="none" stroke="green" stroke-width="0.183017" d="M1159.24,-109.491C1145.26,-97.4308 1118.71,-74.5365 1098.71,-57.2866"/>
<polygon fill="green" stroke="green" stroke-width="0.183017" points="1100.99,-54.6344 1091.13,-50.754 1096.42,-59.9354 1100.99,-54.6344"/>
</g>
<!-- distancia projetil 12&#45;&gt;atirar -->
<g id="edge18" class="edge"><title>distancia projetil 12&#45;&gt;atirar</title>
<path fill="none" stroke="red" stroke-width="0.13458" d="M1167.7,-109.491C1166.43,-99.9199 1164.25,-83.5258 1162.26,-68.5443"/>
<polygon fill="red" stroke="red" stroke-width="0.13458" points="1165.71,-67.9513 1160.93,-58.4994 1158.78,-68.8733 1165.71,-67.9513"/>
</g>
<!-- distancia projetil 12&#45;&gt;release -->
<g id="edge7" class="edge"><title>distancia projetil 12&#45;&gt;release</title>
<path fill="none" stroke="green" stroke-width="0.232287" d="M1176.66,-109.491C1186.95,-98.7083 1205.5,-79.2653 1221.08,-62.9388"/>
<polygon fill="green" stroke="green" stroke-width="0.232287" points="1223.62,-65.3501 1227.99,-55.6991 1218.55,-60.5176 1223.62,-65.3501"/>
</g>
<!-- distancia projetil 13 -->
<g id="node13" class="node"><title>distancia projetil 13</title>
<polygon fill="lightgray" stroke="black" points="1318.8,-127.731 1230.8,-127.731 1230.8,-109.731 1318.8,-109.731 1318.8,-127.731"/>
<text text-anchor="middle" x="1274.8" y="-116.531" font-family="Times New Roman,serif" font-size="9.00">distancia projetil 13</text>
</g>
<!-- distancia projetil 13&#45;&gt;esquerda -->
<g id="edge79" class="edge"><title>distancia projetil 13&#45;&gt;esquerda</title>
<path fill="none" stroke="green" stroke-width="0.651115" d="M1246.62,-109.67C1238.64,-107.578 1229.92,-105.47 1221.8,-103.882 1101.26,-80.3102 1064.66,-105.689 947.798,-67.8823 939.82,-65.3011 931.666,-61.6849 924.023,-57.7884"/>
<polygon fill="green" stroke="green" stroke-width="0.651115" points="925.466,-54.591 915,-52.9471 922.157,-60.7592 925.466,-54.591"/>
</g>
<!-- distancia projetil 13&#45;&gt;direita -->
<g id="edge48" class="edge"><title>distancia projetil 13&#45;&gt;direita</title>
<path fill="none" stroke="red" stroke-width="0.256622" d="M1245.44,-109.718C1237.77,-107.717 1229.49,-105.643 1221.8,-103.882 1140.99,-85.3953 1116.05,-97.9345 1038.8,-67.8823 1030.95,-64.8309 1022.97,-60.6542 1015.63,-56.2993"/>
<polygon fill="red" stroke="red" stroke-width="0.256622" points="1017.07,-53.0753 1006.73,-50.7593 1013.37,-59.017 1017.07,-53.0753"/>
</g>
<!-- distancia projetil 13&#45;&gt;pular -->
<g id="edge36" class="edge"><title>distancia projetil 13&#45;&gt;pular</title>
<path fill="none" stroke="green" stroke-width="0.350036" d="M1242.65,-109.684C1211.44,-101.282 1163.15,-86.7046 1123.8,-67.8823 1116.18,-64.2364 1108.33,-59.6442 1101.14,-55.0556"/>
<polygon fill="green" stroke="green" stroke-width="0.350036" points="1102.73,-51.9115 1092.46,-49.317 1098.87,-57.7511 1102.73,-51.9115"/>
</g>
<!-- distancia projetil 13&#45;&gt;atirar -->
<g id="edge5" class="edge"><title>distancia projetil 13&#45;&gt;atirar</title>
<path fill="none" stroke="green" stroke-width="0.250193" d="M1263.15,-109.491C1245.26,-96.8317 1210.5,-72.235 1185.81,-54.7595"/>
<polygon fill="green" stroke="green" stroke-width="0.250193" points="1187.72,-51.8256 1177.53,-48.9064 1183.68,-57.5397 1187.72,-51.8256"/>
</g>
<!-- distancia projetil 13&#45;&gt;release -->
<g id="edge102" class="edge"><title>distancia projetil 13&#45;&gt;release</title>
<path fill="none" stroke="red" stroke-width="0.291059" d="M1272.11,-109.491C1269.18,-100.518 1264.3,-85.5484 1259.68,-71.3678"/>
<polygon fill="red" stroke="red" stroke-width="0.291059" points="1262.97,-70.182 1256.54,-61.76 1256.32,-72.3524 1262.97,-70.182"/>
</g>
<!-- distancia projetil 14 -->
<g id="node14" class="node"><title>distancia projetil 14</title>
<polygon fill="lightgray" stroke="black" points="1424.8,-127.731 1336.8,-127.731 1336.8,-109.731 1424.8,-109.731 1424.8,-127.731"/>
<text text-anchor="middle" x="1380.8" y="-116.531" font-family="Times New Roman,serif" font-size="9.00">distancia projetil 14</text>
</g>
<!-- distancia projetil 14&#45;&gt;esquerda -->
<g id="edge17" class="edge"><title>distancia projetil 14&#45;&gt;esquerda</title>
<path fill="none" stroke="green" stroke-width="0.301156" d="M1353.48,-109.694C1345.28,-107.527 1336.23,-105.373 1327.8,-103.882 1160.74,-74.3418 1110.12,-117.173 947.798,-67.8823 939.774,-65.4458 931.6,-61.8957 923.951,-58.0185"/>
<polygon fill="green" stroke="green" stroke-width="0.301156" points="925.394,-54.8209 914.927,-53.1798 922.086,-60.99 925.394,-54.8209"/>
</g>
<!-- distancia projetil 14&#45;&gt;direita -->
<g id="edge50" class="edge"><title>distancia projetil 14&#45;&gt;direita</title>
<path fill="none" stroke="red" stroke-width="0.155025" d="M1352.9,-109.706C1344.85,-107.591 1336.02,-105.461 1327.8,-103.882 1200.68,-79.4674 1161,-110.54 1038.8,-67.8823 1030.85,-65.1085 1022.82,-61.0431 1015.47,-56.7081"/>
<polygon fill="red" stroke="red" stroke-width="0.155025" points="1016.92,-53.4846 1006.59,-51.1498 1013.21,-59.4196 1016.92,-53.4846"/>
</g>
<!-- distancia projetil 14&#45;&gt;pular -->
<g id="edge59" class="edge"><title>distancia projetil 14&#45;&gt;pular</title>
<path fill="none" stroke="green" stroke-width="0.107305" d="M1351.74,-109.687C1343.99,-107.665 1335.6,-105.588 1327.8,-103.882 1237.85,-84.228 1209.5,-101.525 1123.8,-67.8823 1115.93,-64.7949 1107.99,-60.4114 1100.8,-55.8461"/>
<polygon fill="green" stroke="green" stroke-width="0.107305" points="1102.4,-52.7054 1092.14,-50.0501 1098.5,-58.522 1102.4,-52.7054"/>
</g>
<!-- distancia projetil 14&#45;&gt;atirar -->
<g id="edge92" class="edge"><title>distancia projetil 14&#45;&gt;atirar</title>
<path fill="none" stroke="green" stroke-width="0.205353" d="M1351.64,-109.714C1306.33,-97.1801 1222.83,-73.7684 1209.8,-67.8823 1201.99,-64.3568 1193.97,-59.8095 1186.65,-55.226"/>
<polygon fill="green" stroke="green" stroke-width="0.205353" points="1188.09,-51.9901 1177.8,-49.475 1184.28,-57.8593 1188.09,-51.9901"/>
</g>
<!-- distancia projetil 14&#45;&gt;release -->
<g id="edge103" class="edge"><title>distancia projetil 14&#45;&gt;release</title>
<path fill="none" stroke="red" stroke-width="0.22785" d="M1367.56,-109.491C1347.52,-97.0163 1308.86,-72.9502 1280.87,-55.5288"/>
<polygon fill="red" stroke="red" stroke-width="0.22785" points="1282.54,-52.4425 1272.2,-50.1292 1278.84,-58.3852 1282.54,-52.4425"/>
</g>
<!-- distancia projetil 15 -->
<g id="node15" class="node"><title>distancia projetil 15</title>
<polygon fill="lightgray" stroke="black" points="1530.8,-127.731 1442.8,-127.731 1442.8,-109.731 1530.8,-109.731 1530.8,-127.731"/>
<text text-anchor="middle" x="1486.8" y="-116.531" font-family="Times New Roman,serif" font-size="9.00">distancia projetil 15</text>
</g>
<!-- distancia projetil 15&#45;&gt;esquerda -->
<g id="edge67" class="edge"><title>distancia projetil 15&#45;&gt;esquerda</title>
<path fill="none" stroke="green" stroke-width="0.108191" d="M1460.04,-109.729C1451.7,-107.51 1442.43,-105.317 1433.8,-103.882 1220.14,-68.3567 1155.68,-128.684 947.798,-67.8823 939.75,-65.5283 931.564,-62.0157 923.912,-58.1495"/>
<polygon fill="green" stroke="green" stroke-width="0.108191" points="925.355,-54.9518 914.887,-53.3123 922.048,-61.1214 925.355,-54.9518"/>
</g>
<!-- distancia projetil 15&#45;&gt;direita -->
<g id="edge35" class="edge"><title>distancia projetil 15&#45;&gt;direita</title>
<path fill="none" stroke="green" stroke-width="0.256935" d="M1459.48,-109.675C1451.28,-107.507 1442.23,-105.358 1433.8,-103.882 1260.15,-73.4955 1206.17,-123.222 1038.8,-67.8823 1030.81,-65.2401 1022.76,-61.2276 1015.41,-56.902"/>
<polygon fill="green" stroke="green" stroke-width="0.256935" points="1016.86,-53.6786 1006.52,-51.335 1013.14,-59.6104 1016.86,-53.6786"/>
</g>
<!-- distancia projetil 15&#45;&gt;pular -->
<g id="edge3" class="edge"><title>distancia projetil 15&#45;&gt;pular</title>
<path fill="none" stroke="green" stroke-width="0.22918" d="M1458.91,-109.662C1450.86,-107.546 1442.02,-105.427 1433.8,-103.882 1297.48,-78.2862 1254.35,-114.733 1123.8,-67.8823 1115.85,-65.0284 1107.87,-60.7323 1100.67,-56.1767"/>
<polygon fill="green" stroke="green" stroke-width="0.22918" points="1102.28,-53.0365 1092.03,-50.3567 1098.37,-58.8438 1102.28,-53.0365"/>
</g>
<!-- distancia projetil 15&#45;&gt;atirar -->
<g id="edge77" class="edge"><title>distancia projetil 15&#45;&gt;atirar</title>
<path fill="none" stroke="red" stroke-width="0.279958" d="M1458.04,-109.678C1450.21,-107.634 1441.71,-105.547 1433.8,-103.882 1335.13,-83.112 1304.1,-103.593 1209.8,-67.8823 1201.47,-64.7267 1193.04,-60.1325 1185.48,-55.3714"/>
<polygon fill="red" stroke="red" stroke-width="0.279958" points="1187.31,-52.3881 1177.04,-49.782 1183.44,-58.2233 1187.31,-52.3881"/>
</g>
<!-- distancia projetil 15&#45;&gt;release -->
<g id="edge89" class="edge"><title>distancia projetil 15&#45;&gt;release</title>
<path fill="none" stroke="green" stroke-width="0.250912" d="M1463.45,-109.642C1421.8,-95.2157 1334.41,-64.9447 1284.61,-47.6934"/>
<polygon fill="green" stroke="green" stroke-width="0.250912" points="1285.48,-44.2888 1274.88,-44.3228 1283.18,-50.9032 1285.48,-44.2888"/>
</g>
<!-- distancia projetil 16 -->
<g id="node16" class="node"><title>distancia projetil 16</title>
<polygon fill="lightgray" stroke="black" points="1636.8,-127.731 1548.8,-127.731 1548.8,-109.731 1636.8,-109.731 1636.8,-127.731"/>
<text text-anchor="middle" x="1592.8" y="-116.531" font-family="Times New Roman,serif" font-size="9.00">distancia projetil 16</text>
</g>
<!-- distancia projetil 16&#45;&gt;esquerda -->
<g id="edge11" class="edge"><title>distancia projetil 16&#45;&gt;esquerda</title>
<path fill="none" stroke="green" stroke-width="0.168893" d="M1566.05,-109.659C1557.71,-107.437 1548.44,-105.26 1539.8,-103.882 1279.49,-62.3644 1201.28,-140.207 947.798,-67.8823 939.734,-65.5814 931.542,-62.0931 923.887,-58.234"/>
<polygon fill="green" stroke="green" stroke-width="0.168893" points="925.33,-55.0363 914.863,-53.3978 922.024,-61.2062 925.33,-55.0363"/>
</g>
<!-- distancia projetil 16&#45;&gt;direita -->
<g id="edge44" class="edge"><title>distancia projetil 16&#45;&gt;direita</title>
<path fill="none" stroke="red" stroke-width="0.345346" d="M1566.04,-109.718C1557.7,-107.497 1548.43,-105.308 1539.8,-103.882 1319.54,-67.5091 1251.42,-135.929 1038.8,-67.8823 1030.78,-65.3168 1022.73,-61.335 1015.37,-57.0149"/>
<polygon fill="red" stroke="red" stroke-width="0.345346" points="1016.82,-53.7915 1006.49,-51.4429 1013.1,-59.7215 1016.82,-53.7915"/>
</g>
<!-- distancia projetil 16&#45;&gt;pular -->
<g id="edge76" class="edge"><title>distancia projetil 16&#45;&gt;pular</title>
<path fill="none" stroke="green" stroke-width="0.114427" d="M1565.76,-109.723C1557.49,-107.53 1548.33,-105.355 1539.8,-103.882 1356.92,-72.3103 1299.37,-128.002 1123.8,-67.8823 1115.66,-65.0972 1107.54,-60.743 1100.24,-56.1022"/>
<polygon fill="green" stroke="green" stroke-width="0.114427" points="1101.73,-52.8884 1091.49,-50.1672 1097.8,-58.6798 1101.73,-52.8884"/>
</g>
<!-- distancia projetil 16&#45;&gt;atirar -->
<g id="edge2" class="edge"><title>distancia projetil 16&#45;&gt;atirar</title>
<path fill="none" stroke="green" stroke-width="0.215737" d="M1565.19,-109.697C1557.06,-107.556 1548.12,-105.415 1539.8,-103.882 1394.7,-77.1602 1349.05,-116.62 1209.8,-67.8823 1201.39,-64.9388 1192.94,-60.4186 1185.37,-55.6609"/>
<polygon fill="green" stroke="green" stroke-width="0.215737" points="1187.21,-52.6787 1176.95,-50.0468 1183.33,-58.5042 1187.21,-52.6787"/>
</g>
<!-- distancia projetil 16&#45;&gt;release -->
<g id="edge34" class="edge"><title>distancia projetil 16&#45;&gt;release</title>
<path fill="none" stroke="red" stroke-width="0.196255" d="M1562.56,-109.698C1555.13,-107.759 1547.18,-105.718 1539.8,-103.882 1448.91,-81.2807 1341.64,-56.4178 1285.84,-43.6203"/>
<polygon fill="red" stroke="red" stroke-width="0.196255" points="1286.57,-40.1958 1276.04,-41.3744 1285.01,-47.019 1286.57,-40.1958"/>
</g>
<!-- distancia inimigo 1 -->
<g id="node17" class="node"><title>distancia inimigo 1</title>
<polygon fill="lightgray" stroke="black" points="1738.3,-127.731 1655.3,-127.731 1655.3,-109.731 1738.3,-109.731 1738.3,-127.731"/>
<text text-anchor="middle" x="1696.8" y="-116.531" font-family="Times New Roman,serif" font-size="9.00">distancia inimigo 1</text>
</g>
<!-- distancia inimigo 1&#45;&gt;esquerda -->
<g id="edge28" class="edge"><title>distancia inimigo 1&#45;&gt;esquerda</title>
<path fill="none" stroke="red" stroke-width="0.370033" d="M1671.35,-109.674C1663.26,-107.423 1654.22,-105.228 1645.8,-103.882 1339.05,-54.9002 1246.9,-151.737 947.798,-67.8823 939.724,-65.6186 931.526,-62.1472 923.871,-58.293"/>
<polygon fill="red" stroke="red" stroke-width="0.370033" points="925.313,-55.0953 914.846,-53.4575 922.007,-61.2654 925.313,-55.0953"/>
</g>
<!-- distancia inimigo 1&#45;&gt;direita -->
<g id="edge104" class="edge"><title>distancia inimigo 1&#45;&gt;direita</title>
<path fill="none" stroke="green" stroke-width="0.101526" d="M1671.34,-109.713C1663.25,-107.465 1654.22,-105.26 1645.8,-103.882 1379.09,-60.2396 1296.7,-148.649 1038.8,-67.8823 1030.69,-65.3439 1022.56,-61.3324 1015.15,-56.9698"/>
<polygon fill="green" stroke="green" stroke-width="0.101526" points="1016.53,-53.7077 1006.21,-51.3404 1012.8,-59.631 1016.53,-53.7077"/>
</g>
<!-- distancia inimigo 1&#45;&gt;pular -->
<g id="edge93" class="edge"><title>distancia inimigo 1&#45;&gt;pular</title>
<path fill="none" stroke="green" stroke-width="0.459495" d="M1671.07,-109.69C1663.05,-107.469 1654.12,-105.285 1645.8,-103.882 1416.48,-65.2247 1344.46,-141.294 1123.8,-67.8823 1115.64,-65.1683 1107.5,-60.8399 1100.2,-56.2013"/>
<polygon fill="green" stroke="green" stroke-width="0.459495" points="1101.7,-52.9874 1091.46,-50.258 1097.76,-58.7757 1101.7,-52.9874"/>
</g>
<!-- distancia inimigo 1&#45;&gt;atirar -->
<g id="edge60" class="edge"><title>distancia inimigo 1&#45;&gt;atirar</title>
<path fill="none" stroke="red" stroke-width="0.293378" d="M1670.8,-109.687C1662.84,-107.493 1654.02,-105.326 1645.8,-103.882 1454.29,-70.2645 1394.15,-129.697 1209.8,-67.8823 1201.35,-65.0496 1192.89,-60.568 1185.32,-55.812"/>
<polygon fill="red" stroke="red" stroke-width="0.293378" points="1187.16,-52.8303 1176.9,-50.1851 1183.27,-58.6507 1187.16,-52.8303"/>
</g>
<!-- distancia inimigo 1&#45;&gt;release -->
<g id="edge6" class="edge"><title>distancia inimigo 1&#45;&gt;release</title>
<path fill="none" stroke="red" stroke-width="0.331911" d="M1669.12,-109.71C1661.59,-107.666 1653.41,-105.571 1645.8,-103.882 1515.24,-74.9137 1358.32,-50.846 1286.78,-40.4538"/>
<polygon fill="red" stroke="red" stroke-width="0.331911" points="1286.85,-36.9276 1276.45,-38.9627 1285.85,-43.8558 1286.85,-36.9276"/>
</g>
<!-- distancia inimigo 2 -->
<g id="node18" class="node"><title>distancia inimigo 2</title>
<polygon fill="lightgray" stroke="black" points="1839.3,-127.731 1756.3,-127.731 1756.3,-109.731 1839.3,-109.731 1839.3,-127.731"/>
<text text-anchor="middle" x="1797.8" y="-116.531" font-family="Times New Roman,serif" font-size="9.00">distancia inimigo 2</text>
</g>
<!-- distancia inimigo 2&#45;&gt;esquerda -->
<g id="edge78" class="edge"><title>distancia inimigo 2&#45;&gt;esquerda</title>
<path fill="none" stroke="green" stroke-width="0.30885" d="M1773.12,-109.709C1765.12,-107.431 1756.16,-105.211 1747.8,-103.882 1572.05,-75.9538 1119.31,-115.359 947.798,-67.8823 939.716,-65.6451 931.516,-62.1857 923.859,-58.3351"/>
<polygon fill="green" stroke="green" stroke-width="0.30885" points="925.302,-55.1374 914.834,-53.5001 921.996,-61.3077 925.302,-55.1374"/>
</g>
<!-- distancia inimigo 2&#45;&gt;direita -->
<g id="edge4" class="edge"><title>distancia inimigo 2&#45;&gt;direita</title>
<path fill="none" stroke="red" stroke-width="0.364871" d="M1772.86,-109.665C1764.93,-107.414 1756.07,-105.221 1747.8,-103.882 1592.07,-78.675 1189.55,-114.389 1038.8,-67.8823 1030.68,-65.3783 1022.54,-61.3806 1015.13,-57.0202"/>
<polygon fill="red" stroke="red" stroke-width="0.364871" points="1016.52,-53.758 1006.19,-51.3882 1012.79,-59.6804 1016.52,-53.758"/>
</g>
<!-- distancia inimigo 2&#45;&gt;pular -->
<g id="edge12" class="edge"><title>distancia inimigo 2&#45;&gt;pular</title>
<path fill="none" stroke="green" stroke-width="0.395984" d="M1772.85,-109.7C1764.92,-107.451 1756.06,-105.249 1747.8,-103.882 1610.76,-81.2161 1255.84,-110.989 1123.8,-67.8823 1115.63,-65.2142 1107.48,-60.9024 1100.18,-56.2652"/>
<polygon fill="green" stroke="green" stroke-width="0.395984" points="1101.68,-53.0511 1091.44,-50.3165 1097.74,-58.8374 1101.68,-53.0511"/>
</g>
<!-- distancia inimigo 2&#45;&gt;atirar -->
<g id="edge47" class="edge"><title>distancia inimigo 2&#45;&gt;atirar</title>
<path fill="none" stroke="green" stroke-width="0.429751" d="M1772.59,-109.674C1764.72,-107.452 1755.97,-105.272 1747.8,-103.882 1511.55,-63.6897 1437.6,-142.298 1209.8,-67.8823 1201.33,-65.1154 1192.86,-60.6568 1185.29,-55.9018"/>
<polygon fill="green" stroke="green" stroke-width="0.429751" points="1187.13,-52.9203 1176.87,-50.2673 1183.24,-58.7378 1187.13,-52.9203"/>
</g>
<!-- distancia inimigo 2&#45;&gt;release -->
<g id="edge100" class="edge"><title>distancia inimigo 2&#45;&gt;release</title>
<path fill="none" stroke="red" stroke-width="0.121989" d="M1771.23,-109.665C1763.71,-107.574 1755.47,-105.467 1747.8,-103.882 1577.86,-68.7932 1371.64,-46.7372 1286.96,-38.5476"/>
<polygon fill="red" stroke="red" stroke-width="0.121989" points="1287.06,-35.0415 1276.77,-37.573 1286.39,-42.0097 1287.06,-35.0415"/>
</g>
<!-- direcao sprites 1 -->
<g id="node19" class="node"><title>direcao sprites 1</title>
<polygon fill="lightgray" stroke="black" points="1933.8,-127.731 1857.8,-127.731 1857.8,-109.731 1933.8,-109.731 1933.8,-127.731"/>
<text text-anchor="middle" x="1895.8" y="-116.531" font-family="Times New Roman,serif" font-size="9.00">direcao sprites 1</text>
</g>
<!-- direcao sprites 1&#45;&gt;esquerda -->
<g id="edge16" class="edge"><title>direcao sprites 1&#45;&gt;esquerda</title>
<path fill="none" stroke="red" stroke-width="0.281343" d="M1872.63,-109.674C1865.12,-107.394 1856.69,-105.182 1848.8,-103.882 1651.08,-71.3161 1141.05,-120.855 947.798,-67.8823 939.711,-65.6654 931.507,-62.2154 923.85,-58.3675"/>
<polygon fill="red" stroke="red" stroke-width="0.281343" points="925.293,-55.1697 914.825,-53.5328 921.987,-61.3402 925.293,-55.1697"/>
</g>
<!-- direcao sprites 1&#45;&gt;direita -->
<g id="edge90" class="edge"><title>direcao sprites 1&#45;&gt;direita</title>
<path fill="none" stroke="green" stroke-width="0.156163" d="M1872.63,-109.695C1865.12,-107.417 1856.69,-105.199 1848.8,-103.882 1671.08,-74.2014 1211.14,-120.454 1038.8,-67.8823 1030.67,-65.404 1022.53,-61.4164 1015.12,-57.0577"/>
<polygon fill="green" stroke="green" stroke-width="0.156163" points="1016.51,-53.7955 1006.18,-51.4238 1012.77,-59.7172 1016.51,-53.7955"/>
</g>
<!-- direcao sprites 1&#45;&gt;pular -->
<g id="edge58" class="edge"><title>direcao sprites 1&#45;&gt;pular</title>
<path fill="none" stroke="green" stroke-width="0.104608" d="M1872.63,-109.72C1865.11,-107.443 1856.68,-105.22 1848.8,-103.882 1689.76,-76.8961 1277.34,-117.33 1123.8,-67.8823 1115.61,-65.2469 1107.47,-60.947 1100.17,-56.3108"/>
<polygon fill="green" stroke="green" stroke-width="0.104608" points="1101.67,-53.0967 1091.43,-50.3583 1097.72,-58.8815 1101.67,-53.0967"/>
</g>
<!-- direcao sprites 1&#45;&gt;atirar -->
<g id="edge27" class="edge"><title>direcao sprites 1&#45;&gt;atirar</title>
<path fill="none" stroke="green" stroke-width="0.373116" d="M1872.14,-109.606C1864.75,-107.381 1856.51,-105.217 1848.8,-103.882 1708.66,-79.6217 1345.22,-111.334 1209.8,-67.8823 1201.31,-65.1601 1192.84,-60.717 1185.27,-55.9627"/>
<polygon fill="green" stroke="green" stroke-width="0.373116" points="1187.11,-52.9813 1176.85,-50.323 1183.21,-58.7968 1187.11,-52.9813"/>
</g>
<!-- direcao sprites 1&#45;&gt;release -->
<g id="edge101" class="edge"><title>direcao sprites 1&#45;&gt;release</title>
<path fill="none" stroke="green" stroke-width="0.264302" d="M1871.12,-109.592C1863.98,-107.474 1856.13,-105.372 1848.8,-103.882 1639.48,-61.3673 1383.43,-42.8924 1287.01,-37.0934"/>
<polygon fill="green" stroke="green" stroke-width="0.264302" points="1287.04,-33.5891 1276.85,-36.4941 1286.63,-40.577 1287.04,-33.5891"/>
</g>
<!-- direcao sprites 2 -->
<g id="node20" class="node"><title>direcao sprites 2</title>
<polygon fill="lightgray" stroke="black" points="2027.8,-127.731 1951.8,-127.731 1951.8,-109.731 2027.8,-109.731 2027.8,-127.731"/>
<text text-anchor="middle" x="1989.8" y="-116.531" font-family="Times New Roman,serif" font-size="9.00">direcao sprites 2</text>
</g>
<!-- direcao sprites 2&#45;&gt;esquerda -->
<g id="edge66" class="edge"><title>direcao sprites 2&#45;&gt;esquerda</title>
<path fill="none" stroke="green" stroke-width="0.209599" d="M1966.64,-109.656C1959.12,-107.375 1950.69,-105.167 1942.8,-103.882 1724.42,-68.3351 1161.29,-125.971 947.798,-67.8823 939.707,-65.6807 931.501,-62.2375 923.843,-58.3917"/>
<polygon fill="green" stroke="green" stroke-width="0.209599" points="925.286,-55.194 914.818,-53.5573 921.981,-61.3645 925.286,-55.194"/>
</g>
<!-- direcao sprites 2&#45;&gt;direita -->
<g id="edge99" class="edge"><title>direcao sprites 2&#45;&gt;direita</title>
<path fill="none" stroke="green" stroke-width="0.394371" d="M1966.63,-109.673C1959.12,-107.394 1950.69,-105.181 1942.8,-103.882 1744.42,-71.2209 1231.23,-126.1 1038.8,-67.8823 1030.67,-65.4227 1022.52,-61.4426 1015.11,-57.0851"/>
<polygon fill="green" stroke="green" stroke-width="0.394371" points="1016.5,-53.8229 1006.17,-51.4498 1012.77,-59.7441 1016.5,-53.8229"/>
</g>
<!-- direcao sprites 2&#45;&gt;pular -->
<g id="edge26" class="edge"><title>direcao sprites 2&#45;&gt;pular</title>
<path fill="none" stroke="red" stroke-width="0.308684" d="M1966.63,-109.693C1959.12,-107.414 1950.69,-105.198 1942.8,-103.882 1763.1,-73.9161 1297.36,-123.233 1123.8,-67.8823 1115.61,-65.2702 1107.46,-60.9788 1100.16,-56.3432"/>
<polygon fill="red" stroke="red" stroke-width="0.308684" points="1101.66,-53.129 1091.42,-50.388 1097.71,-58.9128 1101.66,-53.129"/>
</g>
<!-- direcao sprites 2&#45;&gt;atirar -->
<g id="edge57" class="edge"><title>direcao sprites 2&#45;&gt;atirar</title>
<path fill="none" stroke="red" stroke-width="0.183535" d="M1966.63,-109.717C1959.11,-107.44 1950.68,-105.218 1942.8,-103.882 1782,-76.6425 1365.26,-117.147 1209.8,-67.8823 1201.3,-65.1907 1192.83,-60.7582 1185.26,-56.0044"/>
<polygon fill="red" stroke="red" stroke-width="0.183535" points="1187.1,-53.0231 1176.84,-50.3612 1183.2,-58.8372 1187.1,-53.0231"/>
</g>
<!-- direcao sprites 2&#45;&gt;release -->
<g id="edge45" class="edge"><title>direcao sprites 2&#45;&gt;release</title>
<path fill="none" stroke="green" stroke-width="0.234934" d="M1965.62,-109.663C1958.35,-107.496 1950.31,-105.349 1942.8,-103.882 1696.29,-55.78 1393.69,-40.3846 1287.15,-36.2599"/>
<polygon fill="green" stroke="green" stroke-width="0.234934" points="1287,-32.752 1276.88,-35.874 1286.74,-39.7471 1287,-32.752"/>
</g>
<!-- esquerda&#45;&gt;esquerda -->
<g id="edge91" class="edge"><title>esquerda&#45;&gt;esquerda</title>
<path fill="none" stroke="red" stroke-width="0.28158" d="M916.949,-49.6133C928.822,-50.4035 938.739,-45.1794 938.739,-33.9411 938.739,-26.2148 934.052,-21.3312 927.264,-19.2902"/>
<polygon fill="red" stroke="red" stroke-width="0.28158" points="927.245,-15.7713 916.949,-18.269 926.555,-22.7372 927.245,-15.7713"/>
</g>
<!-- direita&#45;&gt;direita -->
<g id="edge13" class="edge"><title>direita&#45;&gt;direita</title>
<path fill="none" stroke="green" stroke-width="0.196732" d="M1008.25,-49.2259C1019.94,-51.3407 1030.38,-46.2458 1030.38,-33.9411 1030.38,-25.4817 1025.44,-20.4299 1018.56,-18.7859"/>
<polygon fill="green" stroke="green" stroke-width="0.196732" points="1018.29,-15.2824 1008.25,-18.6564 1018.2,-22.2818 1018.29,-15.2824"/>
</g>
<!-- pular&#45;&gt;pular -->
<g id="edge38" class="edge"><title>pular&#45;&gt;pular</title>
<path fill="none" stroke="green" stroke-width="0.157295" d="M1093.03,-48.826C1104.69,-51.8637 1115.55,-46.9021 1115.55,-33.9411 1115.55,-25.0305 1110.42,-19.9008 1103.42,-18.552"/>
<polygon fill="green" stroke="green" stroke-width="0.157295" points="1102.85,-15.0755 1093.03,-19.0563 1103.19,-22.0673 1102.85,-15.0755"/>
</g>
<!-- atirar&#45;&gt;atirar -->
<g id="edge83" class="edge"><title>atirar&#45;&gt;atirar</title>
<path fill="none" stroke="red" stroke-width="0.370168" d="M1178.03,-48.826C1189.69,-51.8637 1200.55,-46.9021 1200.55,-33.9411 1200.55,-25.0305 1195.42,-19.9008 1188.42,-18.552"/>
<polygon fill="red" stroke="red" stroke-width="0.370168" points="1187.85,-15.0755 1178.03,-19.0563 1188.19,-22.0673 1187.85,-15.0755"/>
</g>
<!-- release&#45;&gt;release -->
<g id="edge86" class="edge"><title>release&#45;&gt;release</title>
<path fill="none" stroke="red" stroke-width="0.458992" d="M1272.46,-49.3066C1284.32,-51.2036 1294.79,-46.0818 1294.79,-33.9411 1294.79,-25.5944 1289.84,-20.5652 1282.89,-18.8535"/>
<polygon fill="red" stroke="red" stroke-width="0.458992" points="1282.55,-15.3432 1272.46,-18.5756 1282.36,-22.3407 1282.55,-15.3432"/>
</g>
<!-- 7&#45;&gt;esquerda -->
<g id="edge74" class="edge"><title>7&#45;&gt;esquerda</title>
<path fill="none" stroke="red" stroke-width="0.308763" d="M43.4047,-110.486C48.3607,-107.968 54.1971,-105.398 59.798,-103.882 209.698,-63.306 693.583,-42.1801 842.661,-36.52"/>
<polygon fill="red" stroke="red" stroke-width="0.308763" points="842.946,-40.0119 852.807,-36.1392 842.683,-33.0168 842.946,-40.0119"/>
</g>
</g>
</svg>
