<?xml version="1.0" encoding="UTF-8" standalone="no"?>
<!DOCTYPE svg PUBLIC "-//W3C//DTD SVG 1.1//EN"
 "http://www.w3.org/Graphics/SVG/1.1/DTD/svg11.dtd">
<!-- Generated by graphviz version 2.38.0 (20140413.2041)
 -->
<!-- Title: %3 Pages: 1 -->
<svg width="2035pt" height="130pt"
 viewBox="0.00 0.00 2035.00 129.88" xmlns="http://www.w3.org/2000/svg" xmlns:xlink="http://www.w3.org/1999/xlink">
<g id="graph0" class="graph" transform="scale(1 1) rotate(0) translate(4 125.882)">
<title>%3</title>
<polygon fill="white" stroke="none" points="-4,4 -4,-125.882 2031,-125.882 2031,4 -4,4"/>
<!-- dintancia projetil 1 -->
<g id="node1" class="node"><title>dintancia projetil 1</title>
<polygon fill="lightgray" stroke="black" points="995.5,-121.882 911.5,-121.882 911.5,-103.882 995.5,-103.882 995.5,-121.882"/>
<text text-anchor="middle" x="953.5" y="-110.682" font-family="Times New Roman,serif" font-size="9.00">dintancia projetil 1</text>
</g>
<!-- esquerda -->
<g id="node21" class="node"><title>esquerda</title>
<ellipse fill="lightblue" stroke="black" cx="751.5" cy="-33.9411" rx="33.8824" ry="33.8824"/>
<text text-anchor="middle" x="751.5" y="-31.7411" font-family="Times New Roman,serif" font-size="9.00">esquerda</text>
</g>
<!-- dintancia projetil 1&#45;&gt;esquerda -->
<g id="edge1" class="edge"><title>dintancia projetil 1&#45;&gt;esquerda</title>
<path fill="none" stroke="green" stroke-width="0.665312" d="M927.068,-103.814C900.596,-95.5294 858.825,-81.8984 823.5,-67.8823 812.837,-63.6515 801.475,-58.6785 791.002,-53.8967"/>
<polygon fill="green" stroke="green" stroke-width="0.665312" points="792.226,-50.6065 781.68,-49.5859 789.288,-56.9601 792.226,-50.6065"/>
</g>
<!-- direita -->
<g id="node22" class="node"><title>direita</title>
<ellipse fill="lightblue" stroke="black" cx="1005.5" cy="-33.9411" rx="27.6545" ry="27.6545"/>
<text text-anchor="middle" x="1005.5" y="-31.7411" font-family="Times New Roman,serif" font-size="9.00">direita</text>
</g>
<!-- dintancia projetil 1&#45;&gt;direita -->
<g id="edge29" class="edge"><title>dintancia projetil 1&#45;&gt;direita</title>
<path fill="none" stroke="green" stroke-width="1.40986" d="M959.065,-103.648C965.227,-94.5307 975.526,-79.292 984.861,-65.4796"/>
<polygon fill="green" stroke="green" stroke-width="1.40986" points="987.803,-67.3763 990.503,-57.1312 982.004,-63.4566 987.803,-67.3763"/>
</g>
<!-- pular -->
<g id="node23" class="node"><title>pular</title>
<ellipse fill="lightblue" stroke="black" cx="1252.5" cy="-33.9411" rx="25" ry="25"/>
<text text-anchor="middle" x="1252.5" y="-31.7411" font-family="Times New Roman,serif" font-size="9.00">pular</text>
</g>
<!-- dintancia projetil 1&#45;&gt;pular -->
<g id="edge36" class="edge"><title>dintancia projetil 1&#45;&gt;pular</title>
<path fill="none" stroke="red" stroke-width="0.58002" d="M995.764,-104.831C1064.04,-93.3758 1191.99,-71.6217 1201.5,-67.8823 1209.36,-64.7913 1217.3,-60.4064 1224.5,-55.841"/>
<polygon fill="red" stroke="red" stroke-width="0.58002" points="1226.79,-58.517 1233.16,-50.0454 1222.9,-52.7002 1226.79,-58.517"/>
</g>
<!-- atirar -->
<g id="node24" class="node"><title>atirar</title>
<ellipse fill="lightblue" stroke="black" cx="857.5" cy="-33.9411" rx="25" ry="25"/>
<text text-anchor="middle" x="857.5" y="-31.7411" font-family="Times New Roman,serif" font-size="9.00">atirar</text>
</g>
<!-- dintancia projetil 1&#45;&gt;atirar -->
<g id="edge20" class="edge"><title>dintancia projetil 1&#45;&gt;atirar</title>
<path fill="none" stroke="red" stroke-width="0.827938" d="M943.226,-103.648C929.344,-92.5221 904.089,-72.2807 884.573,-56.6392"/>
<polygon fill="red" stroke="red" stroke-width="0.827938" points="886.602,-53.7801 876.61,-50.2572 882.224,-59.2423 886.602,-53.7801"/>
</g>
<!-- release -->
<g id="node25" class="node"><title>release</title>
<ellipse fill="lightblue" stroke="black" cx="1163.5" cy="-33.9411" rx="28.9828" ry="28.9828"/>
<text text-anchor="middle" x="1163.5" y="-31.7411" font-family="Times New Roman,serif" font-size="9.00">release</text>
</g>
<!-- dintancia projetil 1&#45;&gt;release -->
<g id="edge23" class="edge"><title>dintancia projetil 1&#45;&gt;release</title>
<path fill="none" stroke="green" stroke-width="0.216437" d="M975.577,-103.794C1011.6,-90.5935 1083.39,-64.2912 1127.06,-48.2907"/>
<polygon fill="green" stroke="green" stroke-width="0.216437" points="1128.28,-51.5739 1136.46,-44.8472 1125.87,-45.0012 1128.28,-51.5739"/>
</g>
<!-- distancia projetil 2 -->
<g id="node2" class="node"><title>distancia projetil 2</title>
<polygon fill="lightgray" stroke="black" points="599,-121.882 516,-121.882 516,-103.882 599,-103.882 599,-121.882"/>
<text text-anchor="middle" x="557.5" y="-110.682" font-family="Times New Roman,serif" font-size="9.00">distancia projetil 2</text>
</g>
<!-- distancia projetil 2&#45;&gt;esquerda -->
<g id="edge8" class="edge"><title>distancia projetil 2&#45;&gt;esquerda</title>
<path fill="none" stroke="green" stroke-width="0.195419" d="M577.895,-103.794C609.327,-91.3276 670.222,-67.1762 710.878,-51.0519"/>
<polygon fill="green" stroke="green" stroke-width="0.195419" points="712.235,-54.279 720.24,-47.3388 709.655,-47.772 712.235,-54.279"/>
</g>
<!-- distancia projetil 2&#45;&gt;direita -->
<g id="edge77" class="edge"><title>distancia projetil 2&#45;&gt;direita</title>
<path fill="none" stroke="red" stroke-width="0.401355" d="M599.23,-105.209C602.365,-104.747 605.481,-104.299 608.5,-103.882 741.963,-85.4397 778.159,-97.9143 909.5,-67.8823 930.225,-63.1433 952.74,-55.5539 970.753,-48.8538"/>
<polygon fill="red" stroke="red" stroke-width="0.401355" points="972.149,-52.0674 980.257,-45.2467 969.665,-45.5228 972.149,-52.0674"/>
</g>
<!-- distancia projetil 2&#45;&gt;pular -->
<g id="edge35" class="edge"><title>distancia projetil 2&#45;&gt;pular</title>
<path fill="none" stroke="green" stroke-width="0.541858" d="M599.206,-105.01C602.346,-104.594 605.471,-104.211 608.5,-103.882 739.75,-89.6367 1076.06,-109.043 1201.5,-67.8823 1209.67,-65.2019 1217.81,-60.8857 1225.11,-56.248"/>
<polygon fill="green" stroke="green" stroke-width="0.541858" points="1227.55,-58.8209 1233.85,-50.3008 1223.61,-53.034 1227.55,-58.8209"/>
</g>
<!-- distancia projetil 2&#45;&gt;atirar -->
<g id="edge61" class="edge"><title>distancia projetil 2&#45;&gt;atirar</title>
<path fill="none" stroke="red" stroke-width="0.357301" d="M599.026,-105.226C668.751,-93.9772 802.743,-72.0234 812.5,-67.8823 818.967,-65.1374 825.384,-61.3021 831.258,-57.2149"/>
<polygon fill="red" stroke="red" stroke-width="0.357301" points="833.485,-59.9205 839.421,-51.1443 829.308,-54.3036 833.485,-59.9205"/>
</g>
<!-- distancia projetil 3 -->
<g id="node3" class="node"><title>distancia projetil 3</title>
<polygon fill="lightgray" stroke="black" points="498,-121.882 415,-121.882 415,-103.882 498,-103.882 498,-121.882"/>
<text text-anchor="middle" x="456.5" y="-110.682" font-family="Times New Roman,serif" font-size="9.00">distancia projetil 3</text>
</g>
<!-- distancia projetil 3&#45;&gt;esquerda -->
<g id="edge39" class="edge"><title>distancia projetil 3&#45;&gt;esquerda</title>
<path fill="none" stroke="green" stroke-width="0.502779" d="M487.235,-103.866C540.106,-90.0762 648.382,-61.836 708.635,-46.121"/>
<polygon fill="green" stroke="green" stroke-width="0.502779" points="709.797,-49.4351 718.59,-43.5246 708.031,-42.6617 709.797,-49.4351"/>
</g>
<!-- distancia projetil 3&#45;&gt;direita -->
<g id="edge14" class="edge"><title>distancia projetil 3&#45;&gt;direita</title>
<path fill="none" stroke="green" stroke-width="0.572162" stroke-dasharray="1,5" d="M498.211,-104.986C501.013,-104.591 503.796,-104.219 506.5,-103.882 684.946,-81.6635 733.62,-105.337 909.5,-67.8823 930.294,-63.4541 952.812,-55.8826 970.81,-49.1144"/>
<polygon fill="green" stroke="green" stroke-width="0.572162" points="972.228,-52.3192 980.304,-45.462 969.714,-45.7859 972.228,-52.3192"/>
</g>
<!-- distancia projetil 3&#45;&gt;pular -->
<g id="edge71" class="edge"><title>distancia projetil 3&#45;&gt;pular</title>
<path fill="none" stroke="green" stroke-width="0.109905" d="M498.197,-104.869C501.003,-104.503 503.79,-104.168 506.5,-103.882 660.296,-87.6423 1054.34,-115.446 1201.5,-67.8823 1209.68,-65.2382 1217.83,-60.9351 1225.13,-56.2986"/>
<polygon fill="green" stroke="green" stroke-width="0.109905" points="1227.57,-58.8697 1233.86,-50.3471 1223.63,-53.0845 1227.57,-58.8697"/>
</g>
<!-- distancia projetil 3&#45;&gt;atirar -->
<g id="edge44" class="edge"><title>distancia projetil 3&#45;&gt;atirar</title>
<path fill="none" stroke="red" stroke-width="0.279234" d="M498.222,-105.074C501.022,-104.658 503.801,-104.257 506.5,-103.882 642.138,-85.0607 685.053,-117.976 812.5,-67.8823 819.039,-65.3122 825.486,-61.5526 831.368,-57.4842"/>
<polygon fill="red" stroke="red" stroke-width="0.279234" points="833.6,-60.1865 839.527,-51.4052 829.417,-54.5732 833.6,-60.1865"/>
</g>
<!-- distancia projetil 4 -->
<g id="node4" class="node"><title>distancia projetil 4</title>
<polygon fill="lightgray" stroke="black" points="397,-121.882 314,-121.882 314,-103.882 397,-103.882 397,-121.882"/>
<text text-anchor="middle" x="355.5" y="-110.682" font-family="Times New Roman,serif" font-size="9.00">distancia projetil 4</text>
</g>
<!-- distancia projetil 4&#45;&gt;esquerda -->
<g id="edge79" class="edge"><title>distancia projetil 4&#45;&gt;esquerda</title>
<path fill="none" stroke="green" stroke-width="0.328833" stroke-dasharray="1,5" d="M396.758,-103.866C472.213,-89.2054 631.732,-58.2116 708.476,-43.3004"/>
<polygon fill="green" stroke="green" stroke-width="0.328833" points="709.149,-46.7353 718.298,-41.3922 707.814,-39.8638 709.149,-46.7353"/>
</g>
<!-- distancia projetil 4&#45;&gt;direita -->
<g id="edge22" class="edge"><title>distancia projetil 4&#45;&gt;direita</title>
<path fill="none" stroke="red" stroke-width="0.430229" stroke-dasharray="1,5" d="M397.204,-104.93C400.008,-104.549 402.793,-104.195 405.5,-103.882 628.588,-78.1177 689.447,-112.702 909.5,-67.8823 930.333,-63.6392 952.853,-56.0783 970.842,-49.2696"/>
<polygon fill="red" stroke="red" stroke-width="0.430229" points="972.273,-52.469 980.331,-45.5903 969.742,-45.9425 972.273,-52.469"/>
</g>
<!-- distancia projetil 4&#45;&gt;pular -->
<g id="edge43" class="edge"><title>distancia projetil 4&#45;&gt;pular</title>
<path fill="none" stroke="green" stroke-width="0.597755" d="M397.195,-104.848C400.001,-104.487 402.789,-104.16 405.5,-103.882 581.651,-85.8656 1032.84,-121.788 1201.5,-67.8823 1209.69,-65.265 1217.84,-60.9717 1225.14,-56.336"/>
<polygon fill="green" stroke="green" stroke-width="0.597755" points="1227.58,-58.9059 1233.87,-50.3814 1223.64,-53.1218 1227.58,-58.9059"/>
</g>
<!-- distancia projetil 4&#45;&gt;atirar -->
<g id="edge70" class="edge"><title>distancia projetil 4&#45;&gt;atirar</title>
<path fill="none" stroke="green" stroke-width="0.311138" stroke-dasharray="1,5" d="M397.211,-104.983C400.013,-104.589 402.796,-104.218 405.5,-103.882 585.713,-81.5232 642.55,-131.864 812.5,-67.8823 819.075,-65.4069 825.538,-61.6883 831.424,-57.6301"/>
<polygon fill="green" stroke="green" stroke-width="0.311138" points="833.658,-60.3305 839.582,-51.5465 829.473,-54.7191 833.658,-60.3305"/>
</g>
<!-- distancia projetil 5 -->
<g id="node5" class="node"><title>distancia projetil 5</title>
<polygon fill="lightgray" stroke="black" points="1718,-121.882 1635,-121.882 1635,-103.882 1718,-103.882 1718,-121.882"/>
<text text-anchor="middle" x="1676.5" y="-110.682" font-family="Times New Roman,serif" font-size="9.00">distancia projetil 5</text>
</g>
<!-- distancia projetil 5&#45;&gt;direita -->
<g id="edge10" class="edge"><title>distancia projetil 5&#45;&gt;direita</title>
<path fill="none" stroke="green" stroke-width="0.302452" d="M1634.8,-104.932C1631.99,-104.55 1629.21,-104.195 1626.5,-103.882 1404.74,-78.2231 1345.53,-105.611 1125.5,-67.8823 1096.62,-62.9303 1064.66,-53.9796 1040.99,-46.657"/>
<polygon fill="green" stroke="green" stroke-width="0.302452" points="1041.97,-43.2979 1031.39,-43.6349 1039.87,-49.9752 1041.97,-43.2979"/>
</g>
<!-- distancia projetil 5&#45;&gt;pular -->
<g id="edge87" class="edge"><title>distancia projetil 5&#45;&gt;pular</title>
<path fill="none" stroke="green" stroke-width="0.236995" stroke-dasharray="1,5" d="M1634.68,-104.294C1550.98,-89.1045 1364.25,-55.219 1286.99,-41.1992"/>
<polygon fill="green" stroke="green" stroke-width="0.236995" points="1287.3,-37.6987 1276.83,-39.3568 1286.05,-44.5862 1287.3,-37.6987"/>
</g>
<!-- distancia projetil 5&#45;&gt;atirar -->
<g id="edge59" class="edge"><title>distancia projetil 5&#45;&gt;atirar</title>
<path fill="none" stroke="red" stroke-width="0.271926" d="M1634.8,-104.878C1632,-104.51 1629.21,-104.172 1626.5,-103.882 1335.28,-72.7038 1257.08,-117.887 968.5,-67.8823 941.534,-63.2097 911.855,-54.19 889.976,-46.7686"/>
<polygon fill="red" stroke="red" stroke-width="0.271926" points="891.105,-43.4557 880.51,-43.4926 888.815,-50.0707 891.105,-43.4557"/>
</g>
<!-- distancia projetil 5&#45;&gt;release -->
<g id="edge51" class="edge"><title>distancia projetil 5&#45;&gt;release</title>
<path fill="none" stroke="red" stroke-width="0.442159" d="M1634.79,-104.983C1631.99,-104.589 1629.2,-104.218 1626.5,-103.882 1445.84,-81.4882 1391.65,-124.076 1218.5,-67.8823 1210.61,-65.3215 1202.65,-61.4597 1195.33,-57.2714"/>
<polygon fill="red" stroke="red" stroke-width="0.442159" points="1196.82,-54.0796 1186.46,-51.8651 1193.18,-60.0574 1196.82,-54.0796"/>
</g>
<!-- distancia projetil 6 -->
<g id="node6" class="node"><title>distancia projetil 6</title>
<polygon fill="lightgray" stroke="black" points="2027,-121.882 1944,-121.882 1944,-103.882 2027,-103.882 2027,-121.882"/>
<text text-anchor="middle" x="1985.5" y="-110.682" font-family="Times New Roman,serif" font-size="9.00">distancia projetil 6</text>
</g>
<!-- distancia projetil 6&#45;&gt;direita -->
<g id="edge13" class="edge"><title>distancia projetil 6&#45;&gt;direita</title>
<path fill="none" stroke="red" stroke-width="0.185971" d="M1943.8,-104.955C1940.66,-104.551 1937.53,-104.187 1934.5,-103.882 1576.39,-67.9395 1481.03,-123.869 1125.5,-67.8823 1096.56,-63.3244 1064.6,-54.3502 1040.95,-46.9184"/>
<polygon fill="red" stroke="red" stroke-width="0.185971" points="1041.94,-43.5621 1031.35,-43.8452 1039.81,-50.2286 1041.94,-43.5621"/>
</g>
<!-- distancia projetil 6&#45;&gt;pular -->
<g id="edge19" class="edge"><title>distancia projetil 6&#45;&gt;pular</title>
<path fill="none" stroke="green" stroke-width="0.205299" d="M1943.78,-105.147C1940.64,-104.699 1937.52,-104.272 1934.5,-103.882 1687.38,-72.0343 1388.3,-46.1665 1287.54,-37.7998"/>
<polygon fill="green" stroke="green" stroke-width="0.205299" points="1287.58,-34.2915 1277.33,-36.9555 1287.01,-41.2677 1287.58,-34.2915"/>
</g>
<!-- distancia projetil 6&#45;&gt;release -->
<g id="edge52" class="edge"><title>distancia projetil 6&#45;&gt;release</title>
<path fill="none" stroke="red" stroke-width="0.305877" d="M1943.8,-104.974C1940.66,-104.566 1937.53,-104.195 1934.5,-103.882 1776.03,-87.5154 1370.93,-114.191 1218.5,-67.8823 1210.56,-65.4709 1202.59,-61.6715 1195.26,-57.4967"/>
<polygon fill="red" stroke="red" stroke-width="0.305877" points="1196.75,-54.305 1186.39,-52.084 1193.11,-60.2805 1196.75,-54.305"/>
</g>
<!-- distancia projetil 7 -->
<g id="node7" class="node"><title>distancia projetil 7</title>
<polygon fill="lightgray" stroke="black" points="1516,-121.882 1433,-121.882 1433,-103.882 1516,-103.882 1516,-121.882"/>
<text text-anchor="middle" x="1474.5" y="-110.682" font-family="Times New Roman,serif" font-size="9.00">distancia projetil 7</text>
</g>
<!-- distancia projetil 7&#45;&gt;esquerda -->
<g id="edge28" class="edge"><title>distancia projetil 7&#45;&gt;esquerda</title>
<path fill="none" stroke="green" stroke-width="0.889675" stroke-dasharray="1,5" d="M1432.8,-104.894C1430,-104.522 1427.21,-104.179 1424.5,-103.882 1158.51,-74.7083 1083.13,-132.647 823.5,-67.8823 812.153,-65.0517 800.395,-60.4643 789.754,-55.6004"/>
<polygon fill="green" stroke="green" stroke-width="0.889675" points="791.26,-52.4411 780.728,-51.292 788.245,-58.7584 791.26,-52.4411"/>
</g>
<!-- distancia projetil 7&#45;&gt;direita -->
<g id="edge86" class="edge"><title>distancia projetil 7&#45;&gt;direita</title>
<path fill="none" stroke="red" stroke-width="0.155301" d="M1432.78,-105.082C1429.98,-104.664 1427.2,-104.26 1424.5,-103.882 1291.95,-85.3053 1256.84,-93.6689 1125.5,-67.8823 1096.75,-62.2374 1064.78,-53.328 1041.07,-46.1974"/>
<polygon fill="red" stroke="red" stroke-width="0.155301" points="1042.04,-42.8327 1031.45,-43.2651 1040,-49.5286 1042.04,-42.8327"/>
</g>
<!-- distancia projetil 7&#45;&gt;pular -->
<g id="edge57" class="edge"><title>distancia projetil 7&#45;&gt;pular</title>
<path fill="none" stroke="green" stroke-width="0.359653" d="M1451.16,-103.794C1411.52,-90.0555 1330.93,-62.1252 1285.53,-46.387"/>
<polygon fill="green" stroke="green" stroke-width="0.359653" points="1286.45,-43.0046 1275.86,-43.0368 1284.16,-49.6186 1286.45,-43.0046"/>
</g>
<!-- distancia projetil 7&#45;&gt;release -->
<g id="edge41" class="edge"><title>distancia projetil 7&#45;&gt;release</title>
<path fill="none" stroke="green" stroke-width="0.139874" stroke-dasharray="1,5" d="M1432.85,-105.134C1362.91,-93.7441 1228.48,-71.5798 1218.5,-67.8823 1210.79,-65.0266 1202.96,-61.0784 1195.71,-56.9052"/>
<polygon fill="green" stroke="green" stroke-width="0.139874" points="1197.26,-53.7526 1186.89,-51.5642 1193.63,-59.7395 1197.26,-53.7526"/>
</g>
<!-- distancia projetil 8 -->
<g id="node8" class="node"><title>distancia projetil 8</title>
<polygon fill="lightgray" stroke="black" points="83,-121.882 0,-121.882 0,-103.882 83,-103.882 83,-121.882"/>
<text text-anchor="middle" x="41.5" y="-110.682" font-family="Times New Roman,serif" font-size="9.00">distancia projetil 8</text>
</g>
<!-- distancia projetil 8&#45;&gt;esquerda -->
<g id="edge66" class="edge"><title>distancia projetil 8&#45;&gt;esquerda</title>
<path fill="none" stroke="green" stroke-width="0.645256" d="M83.2234,-105.159C86.3599,-104.708 89.4785,-104.277 92.5,-103.882 323.488,-73.7034 601.401,-48.1303 707.46,-38.7606"/>
<polygon fill="green" stroke="green" stroke-width="0.645256" points="707.82,-42.2425 717.475,-37.8789 707.207,-35.2694 707.82,-42.2425"/>
</g>
<!-- distancia projetil 8&#45;&gt;direita -->
<g id="edge27" class="edge"><title>distancia projetil 8&#45;&gt;direita</title>
<path fill="none" stroke="red" stroke-width="0.615197" stroke-dasharray="1,5" d="M83.1997,-104.953C86.3417,-104.55 89.4679,-104.186 92.5,-103.882 454.154,-67.6634 552.393,-135.559 909.5,-67.8823 930.389,-63.9236 952.912,-56.3791 970.889,-49.5082"/>
<polygon fill="red" stroke="red" stroke-width="0.615197" points="972.34,-52.6989 980.37,-45.7873 969.782,-46.1828 972.34,-52.6989"/>
</g>
<!-- distancia projetil 8&#45;&gt;atirar -->
<g id="edge56" class="edge"><title>distancia projetil 8&#45;&gt;atirar</title>
<path fill="none" stroke="green" stroke-width="0.18399" d="M83.2018,-104.973C86.3433,-104.566 89.4689,-104.195 92.5,-103.882 251.855,-87.4464 661.52,-121.447 812.5,-67.8823 819.121,-65.5332 825.604,-61.8692 831.496,-57.8245"/>
<polygon fill="green" stroke="green" stroke-width="0.18399" points="833.732,-60.5225 839.651,-51.7349 829.544,-54.9137 833.732,-60.5225"/>
</g>
<!-- distancia projetil 8&#45;&gt;release -->
<g id="edge85" class="edge"><title>distancia projetil 8&#45;&gt;release</title>
<path fill="none" stroke="green" stroke-width="0.176198" d="M83.1974,-104.93C86.3399,-104.532 89.4669,-104.176 92.5,-103.882 521.021,-62.4513 636.433,-142.142 1060.5,-67.8823 1083.28,-63.893 1107.99,-56.1154 1127.49,-49.119"/>
<polygon fill="green" stroke="green" stroke-width="0.176198" points="1128.72,-52.397 1136.9,-45.6619 1126.3,-45.8267 1128.72,-52.397"/>
</g>
<!-- distancia projetil 9 -->
<g id="node9" class="node"><title>distancia projetil 9</title>
<polygon fill="lightgray" stroke="black" points="1819,-121.882 1736,-121.882 1736,-103.882 1819,-103.882 1819,-121.882"/>
<text text-anchor="middle" x="1777.5" y="-110.682" font-family="Times New Roman,serif" font-size="9.00">distancia projetil 9</text>
</g>
<!-- distancia projetil 9&#45;&gt;direita -->
<g id="edge53" class="edge"><title>distancia projetil 9&#45;&gt;direita</title>
<path fill="none" stroke="red" stroke-width="0.111457" d="M1735.8,-104.894C1733,-104.522 1730.21,-104.179 1727.5,-103.882 1461.06,-74.6732 1389.94,-111.595 1125.5,-67.8823 1096.59,-63.1037 1064.63,-54.1427 1040.97,-46.772"/>
<polygon fill="red" stroke="red" stroke-width="0.111457" points="1041.96,-43.4142 1031.37,-43.7274 1039.84,-50.0867 1041.96,-43.4142"/>
</g>
<!-- distancia projetil 9&#45;&gt;pular -->
<g id="edge42" class="edge"><title>distancia projetil 9&#45;&gt;pular</title>
<path fill="none" stroke="red" stroke-width="0.599458" d="M1735.77,-105.158C1732.97,-104.722 1730.19,-104.293 1727.5,-103.882 1562.87,-78.7662 1365.8,-50.8493 1287.27,-39.8112"/>
<polygon fill="red" stroke="red" stroke-width="0.599458" points="1287.38,-36.2926 1276.99,-38.3678 1286.41,-43.2246 1287.38,-36.2926"/>
</g>
<!-- distancia projetil 9&#45;&gt;atirar -->
<g id="edge21" class="edge"><title>distancia projetil 9&#45;&gt;atirar</title>
<path fill="none" stroke="red" stroke-width="0.236681" stroke-dasharray="1,5" d="M1735.8,-104.855C1733,-104.492 1730.21,-104.163 1727.5,-103.882 1391.58,-69.1508 1301.46,-124.332 968.5,-67.8823 941.517,-63.3076 911.839,-54.2817 889.965,-46.833"/>
<polygon fill="red" stroke="red" stroke-width="0.236681" points="891.096,-43.5209 880.501,-43.5433 888.798,-50.1328 891.096,-43.5209"/>
</g>
<!-- distancia projetil 9&#45;&gt;release -->
<g id="edge60" class="edge"><title>distancia projetil 9&#45;&gt;release</title>
<path fill="none" stroke="red" stroke-width="0.172282" stroke-dasharray="1,5" d="M1735.8,-104.928C1732.99,-104.547 1730.21,-104.194 1727.5,-103.882 1502.2,-77.942 1434.81,-136.011 1218.5,-67.8823 1210.59,-65.3902 1202.62,-61.5571 1195.3,-57.375"/>
<polygon fill="red" stroke="red" stroke-width="0.172282" points="1196.79,-54.1833 1186.43,-51.9657 1193.15,-60.16 1196.79,-54.1833"/>
</g>
<!-- distancia projetil 10 -->
<g id="node10" class="node"><title>distancia projetil 10</title>
<polygon fill="lightgray" stroke="black" points="189.5,-121.882 101.5,-121.882 101.5,-103.882 189.5,-103.882 189.5,-121.882"/>
<text text-anchor="middle" x="145.5" y="-110.682" font-family="Times New Roman,serif" font-size="9.00">distancia projetil 10</text>
</g>
<!-- distancia projetil 10&#45;&gt;esquerda -->
<g id="edge34" class="edge"><title>distancia projetil 10&#45;&gt;esquerda</title>
<path fill="none" stroke="green" stroke-width="0.166668" d="M189.734,-105.118C192.699,-104.692 195.642,-104.276 198.5,-103.882 387.882,-77.7888 614.365,-50.9041 707.852,-39.9948"/>
<polygon fill="green" stroke="green" stroke-width="0.166668" points="708.268,-43.47 717.796,-38.8361 707.458,-36.5171 708.268,-43.47"/>
</g>
<!-- distancia projetil 10&#45;&gt;direita -->
<g id="edge58" class="edge"><title>distancia projetil 10&#45;&gt;direita</title>
<path fill="none" stroke="red" stroke-width="0.193296" d="M189.705,-104.875C192.677,-104.507 195.63,-104.171 198.5,-103.882 513.318,-72.2312 598.823,-127.815 909.5,-67.8823 930.375,-63.8552 952.898,-56.3067 970.878,-49.4508"/>
<polygon fill="red" stroke="red" stroke-width="0.193296" points="972.324,-52.6436 980.361,-45.7399 969.773,-46.125 972.324,-52.6436"/>
</g>
<!-- distancia projetil 10&#45;&gt;atirar -->
<g id="edge9" class="edge"><title>distancia projetil 10&#45;&gt;atirar</title>
<path fill="none" stroke="green" stroke-width="0.303693" stroke-dasharray="1,5" d="M189.708,-104.901C192.679,-104.527 195.631,-104.182 198.5,-103.882 334.438,-89.6676 683.886,-114.136 812.5,-67.8823 819.111,-65.5047 825.59,-61.8284 831.48,-57.7807"/>
<polygon fill="green" stroke="green" stroke-width="0.303693" points="833.716,-60.4792 839.636,-51.6924 829.528,-54.8698 833.716,-60.4792"/>
</g>
<!-- distancia projetil 10&#45;&gt;release -->
<g id="edge49" class="edge"><title>distancia projetil 10&#45;&gt;release</title>
<path fill="none" stroke="red" stroke-width="0.131766" stroke-dasharray="1,5" d="M189.702,-104.845C192.675,-104.484 195.628,-104.158 198.5,-103.882 580.188,-67.2136 682.954,-134.884 1060.5,-67.8823 1083.27,-63.841 1107.98,-56.0614 1127.48,-49.077"/>
<polygon fill="red" stroke="red" stroke-width="0.131766" points="1128.71,-52.3563 1136.89,-45.627 1126.3,-45.7843 1128.71,-52.3563"/>
</g>
<!-- distancia projetil 11 -->
<g id="node11" class="node"><title>distancia projetil 11</title>
<polygon fill="lightgray" stroke="black" points="893.5,-121.882 805.5,-121.882 805.5,-103.882 893.5,-103.882 893.5,-121.882"/>
<text text-anchor="middle" x="849.5" y="-110.682" font-family="Times New Roman,serif" font-size="9.00">distancia projetil 11</text>
</g>
<!-- distancia projetil 11&#45;&gt;esquerda -->
<g id="edge69" class="edge"><title>distancia projetil 11&#45;&gt;esquerda</title>
<path fill="none" stroke="green" stroke-width="0.687442" d="M839.012,-103.648C826.453,-93.7874 804.774,-76.7669 786.136,-62.1342"/>
<polygon fill="green" stroke="green" stroke-width="0.687442" points="788.128,-59.2483 778.101,-55.8259 783.805,-64.7542 788.128,-59.2483"/>
</g>
<!-- distancia projetil 11&#45;&gt;pular -->
<g id="edge18" class="edge"><title>distancia projetil 11&#45;&gt;pular</title>
<path fill="none" stroke="green" stroke-width="0.279986" d="M893.732,-105.104C896.698,-104.681 899.641,-104.27 902.5,-103.882 1035.13,-85.8916 1075.61,-113.358 1201.5,-67.8823 1209.45,-65.0117 1217.42,-60.7092 1224.62,-56.153"/>
<polygon fill="green" stroke="green" stroke-width="0.279986" points="1226.92,-58.8208 1233.26,-50.3348 1223.01,-53.0128 1226.92,-58.8208"/>
</g>
<!-- distancia projetil 11&#45;&gt;atirar -->
<g id="edge78" class="edge"><title>distancia projetil 11&#45;&gt;atirar</title>
<path fill="none" stroke="red" stroke-width="0.428033" d="M850.356,-103.648C851.228,-95.2667 852.637,-81.7123 853.974,-68.8483"/>
<polygon fill="red" stroke="red" stroke-width="0.428033" points="857.467,-69.1001 855.02,-58.7917 850.505,-68.3761 857.467,-69.1001"/>
</g>
<!-- distancia projetil 11&#45;&gt;release -->
<g id="edge50" class="edge"><title>distancia projetil 11&#45;&gt;release</title>
<path fill="none" stroke="green" stroke-width="0.509915" d="M893.862,-104.021C936.776,-96.0894 1003.51,-82.8947 1060.5,-67.8823 1082.61,-62.0588 1106.99,-54.322 1126.48,-47.8097"/>
<polygon fill="green" stroke="green" stroke-width="0.509915" points="1127.83,-51.0472 1136.19,-44.5325 1125.59,-44.4149 1127.83,-51.0472"/>
</g>
<!-- distancia projetil 12 -->
<g id="node12" class="node"><title>distancia projetil 12</title>
<polygon fill="lightgray" stroke="black" points="295.5,-121.882 207.5,-121.882 207.5,-103.882 295.5,-103.882 295.5,-121.882"/>
<text text-anchor="middle" x="251.5" y="-110.682" font-family="Times New Roman,serif" font-size="9.00">distancia projetil 12</text>
</g>
<!-- distancia projetil 12&#45;&gt;esquerda -->
<g id="edge26" class="edge"><title>distancia projetil 12&#45;&gt;esquerda</title>
<path fill="none" stroke="red" stroke-width="0.223342" d="M295.872,-105.054C391.013,-90.4137 613.637,-56.1558 707.997,-41.6355"/>
<polygon fill="red" stroke="red" stroke-width="0.223342" points="708.703,-45.0681 718.054,-40.0878 707.638,-38.1496 708.703,-45.0681"/>
</g>
<!-- distancia projetil 12&#45;&gt;direita -->
<g id="edge48" class="edge"><title>distancia projetil 12&#45;&gt;direita</title>
<path fill="none" stroke="green" stroke-width="0.234861" d="M295.708,-104.904C298.68,-104.529 301.631,-104.184 304.5,-103.882 572.392,-75.7518 645.24,-120.074 909.5,-67.8823 930.357,-63.7629 952.879,-56.2091 970.863,-49.3734"/>
<polygon fill="green" stroke="green" stroke-width="0.234861" points="972.302,-52.569 980.348,-45.676 969.76,-46.0471 972.302,-52.569"/>
</g>
<!-- distancia projetil 12&#45;&gt;atirar -->
<g id="edge17" class="edge"><title>distancia projetil 12&#45;&gt;atirar</title>
<path fill="none" stroke="green" stroke-width="0.278987" stroke-dasharray="1,5" d="M295.712,-104.942C298.683,-104.558 301.633,-104.2 304.5,-103.882 416.985,-91.4269 706.241,-106.829 812.5,-67.8823 819.096,-65.4645 825.569,-61.7708 831.457,-57.7187"/>
<polygon fill="green" stroke="green" stroke-width="0.278987" points="833.692,-60.418 839.614,-51.6324 829.506,-54.8078 833.692,-60.418"/>
</g>
<!-- distancia projetil 12&#45;&gt;release -->
<g id="edge7" class="edge"><title>distancia projetil 12&#45;&gt;release</title>
<path fill="none" stroke="red" stroke-width="0.335022" d="M295.704,-104.865C298.677,-104.499 301.629,-104.167 304.5,-103.882 639.244,-70.7361 729.468,-127.628 1060.5,-67.8823 1083.26,-63.7745 1107.97,-55.9924 1127.47,-49.0233"/>
<polygon fill="red" stroke="red" stroke-width="0.335022" points="1128.69,-52.3042 1136.88,-45.5823 1126.29,-45.7301 1128.69,-52.3042"/>
</g>
<!-- distancia projetil 13 -->
<g id="node13" class="node"><title>distancia projetil 13</title>
<polygon fill="lightgray" stroke="black" points="1207.5,-121.882 1119.5,-121.882 1119.5,-103.882 1207.5,-103.882 1207.5,-121.882"/>
<text text-anchor="middle" x="1163.5" y="-110.682" font-family="Times New Roman,serif" font-size="9.00">distancia projetil 13</text>
</g>
<!-- distancia projetil 13&#45;&gt;esquerda -->
<g id="edge65" class="edge"><title>distancia projetil 13&#45;&gt;esquerda</title>
<path fill="none" stroke="green" stroke-width="0.277271" d="M1119.27,-105.121C1116.3,-104.694 1113.36,-104.277 1110.5,-103.882 983.155,-86.2873 947.157,-103.03 823.5,-67.8823 812.466,-64.7458 800.974,-60.1537 790.496,-55.3882"/>
<polygon fill="green" stroke="green" stroke-width="0.277271" points="791.737,-52.1039 781.2,-50.9998 788.749,-58.434 791.737,-52.1039"/>
</g>
<!-- distancia projetil 13&#45;&gt;pular -->
<g id="edge32" class="edge"><title>distancia projetil 13&#45;&gt;pular</title>
<path fill="none" stroke="red" stroke-width="0.592551" d="M1173.02,-103.648C1185.62,-92.7559 1208.33,-73.1274 1226.25,-57.6312"/>
<polygon fill="red" stroke="red" stroke-width="0.592551" points="1228.82,-60.0361 1234.1,-50.8484 1224.25,-54.7406 1228.82,-60.0361"/>
</g>
<!-- distancia projetil 13&#45;&gt;atirar -->
<g id="edge5" class="edge"><title>distancia projetil 13&#45;&gt;atirar</title>
<path fill="none" stroke="green" stroke-width="0.17874" stroke-dasharray="1,5" d="M1124.47,-103.874C1084.97,-95.5832 1022.23,-81.9001 968.5,-67.8823 942.306,-61.0483 912.953,-52.2883 891.014,-45.52"/>
<polygon fill="green" stroke="green" stroke-width="0.17874" points="891.778,-42.0926 881.19,-42.4697 889.702,-48.7777 891.778,-42.0926"/>
</g>
<!-- distancia projetil 13&#45;&gt;release -->
<g id="edge83" class="edge"><title>distancia projetil 13&#45;&gt;release</title>
<path fill="none" stroke="green" stroke-width="0.956625" d="M1163.5,-103.648C1163.5,-96.2873 1163.5,-84.9367 1163.5,-73.568"/>
<polygon fill="green" stroke="green" stroke-width="0.956625" points="1167,-73.2361 1163.5,-63.2361 1160,-73.2361 1167,-73.2361"/>
</g>
<!-- distancia projetil 14 -->
<g id="node14" class="node"><title>distancia projetil 14</title>
<polygon fill="lightgray" stroke="black" points="1101.5,-121.882 1013.5,-121.882 1013.5,-103.882 1101.5,-103.882 1101.5,-121.882"/>
<text text-anchor="middle" x="1057.5" y="-110.682" font-family="Times New Roman,serif" font-size="9.00">distancia projetil 14</text>
</g>
<!-- distancia projetil 14&#45;&gt;esquerda -->
<g id="edge16" class="edge"><title>distancia projetil 14&#45;&gt;esquerda</title>
<path fill="none" stroke="green" stroke-width="0.163708" d="M1013.38,-104.903C955.771,-95.56 858.17,-78.8917 823.5,-67.8823 812.566,-64.4103 801.11,-59.7014 790.633,-54.931"/>
<polygon fill="green" stroke="green" stroke-width="0.163708" points="791.87,-51.6453 781.331,-50.5663 788.897,-57.9825 791.87,-51.6453"/>
</g>
<!-- distancia projetil 14&#45;&gt;direita -->
<g id="edge40" class="edge"><title>distancia projetil 14&#45;&gt;direita</title>
<path fill="none" stroke="green" stroke-width="0.40395" d="M1051.94,-103.648C1045.77,-94.5307 1035.47,-79.292 1026.14,-65.4796"/>
<polygon fill="green" stroke="green" stroke-width="0.40395" points="1029,-63.4566 1020.5,-57.1312 1023.2,-67.3763 1029,-63.4566"/>
</g>
<!-- distancia projetil 14&#45;&gt;pular -->
<g id="edge46" class="edge"><title>distancia projetil 14&#45;&gt;pular</title>
<path fill="none" stroke="green" stroke-width="0.247432" d="M1093.43,-103.851C1123.19,-96.5093 1166.18,-84.2969 1201.5,-67.8823 1209.16,-64.3217 1217.03,-59.7613 1224.21,-55.1763"/>
<polygon fill="green" stroke="green" stroke-width="0.247432" points="1226.49,-57.8689 1232.89,-49.4289 1222.62,-52.0329 1226.49,-57.8689"/>
</g>
<!-- distancia projetil 14&#45;&gt;atirar -->
<g id="edge75" class="edge"><title>distancia projetil 14&#45;&gt;atirar</title>
<path fill="none" stroke="green" stroke-width="0.303398" d="M1036.47,-103.794C1001.47,-90.3275 931.023,-63.2257 889.719,-47.3361"/>
<polygon fill="green" stroke="green" stroke-width="0.303398" points="890.971,-44.0675 880.381,-43.7435 888.457,-50.6007 890.971,-44.0675"/>
</g>
<!-- distancia projetil 14&#45;&gt;release -->
<g id="edge84" class="edge"><title>distancia projetil 14&#45;&gt;release</title>
<path fill="none" stroke="red" stroke-width="0.396655" d="M1068.84,-103.648C1083.84,-92.765 1110.85,-73.1602 1132.19,-57.67"/>
<polygon fill="red" stroke="red" stroke-width="0.396655" points="1134.31,-60.4557 1140.34,-51.7489 1130.2,-54.7907 1134.31,-60.4557"/>
</g>
<!-- distancia projetil 15 -->
<g id="node15" class="node"><title>distancia projetil 15</title>
<polygon fill="lightgray" stroke="black" points="1313.5,-121.882 1225.5,-121.882 1225.5,-103.882 1313.5,-103.882 1313.5,-121.882"/>
<text text-anchor="middle" x="1269.5" y="-110.682" font-family="Times New Roman,serif" font-size="9.00">distancia projetil 15</text>
</g>
<!-- distancia projetil 15&#45;&gt;esquerda -->
<g id="edge55" class="edge"><title>distancia projetil 15&#45;&gt;esquerda</title>
<path fill="none" stroke="red" stroke-width="0.217601" d="M1225.28,-105.01C1222.31,-104.61 1219.36,-104.229 1216.5,-103.882 1042.38,-82.7839 992.993,-113.01 823.5,-67.8823 812.415,-64.9307 800.905,-60.4029 790.426,-55.6402"/>
<polygon fill="red" stroke="red" stroke-width="0.217601" points="791.67,-52.3566 781.135,-51.2387 788.674,-58.6827 791.67,-52.3566"/>
</g>
<!-- distancia projetil 15&#45;&gt;direita -->
<g id="edge31" class="edge"><title>distancia projetil 15&#45;&gt;direita</title>
<path fill="none" stroke="red" stroke-width="0.624053" d="M1241.75,-103.794C1193.62,-89.7662 1094.72,-60.9426 1041.42,-45.4093"/>
<polygon fill="red" stroke="red" stroke-width="0.624053" points="1042.29,-42.017 1031.71,-42.5791 1040.33,-48.7374 1042.29,-42.017"/>
</g>
<!-- distancia projetil 15&#45;&gt;pular -->
<g id="edge3" class="edge"><title>distancia projetil 15&#45;&gt;pular</title>
<path fill="none" stroke="green" stroke-width="0.383126" d="M1267.68,-103.648C1265.82,-95.2055 1262.79,-81.5141 1259.93,-68.5667"/>
<polygon fill="green" stroke="green" stroke-width="0.383126" points="1263.27,-67.4665 1257.7,-58.4572 1256.44,-68.9768 1263.27,-67.4665"/>
</g>
<!-- distancia projetil 15&#45;&gt;atirar -->
<g id="edge63" class="edge"><title>distancia projetil 15&#45;&gt;atirar</title>
<path fill="none" stroke="red" stroke-width="0.269654" d="M1225.26,-105.185C1222.29,-104.742 1219.35,-104.305 1216.5,-103.882 1106.32,-87.5705 1077.28,-91.7881 968.5,-67.8823 941.89,-62.0345 912.343,-53.1453 890.428,-46.0743"/>
<polygon fill="red" stroke="red" stroke-width="0.269654" points="891.225,-42.6525 880.632,-42.8709 889.049,-49.3058 891.225,-42.6525"/>
</g>
<!-- distancia projetil 15&#45;&gt;release -->
<g id="edge72" class="edge"><title>distancia projetil 15&#45;&gt;release</title>
<path fill="none" stroke="red" stroke-width="0.121868" d="M1258.16,-103.648C1243.16,-92.765 1216.15,-73.1602 1194.81,-57.67"/>
<polygon fill="red" stroke="red" stroke-width="0.121868" points="1196.8,-54.7907 1186.66,-51.7489 1192.69,-60.4557 1196.8,-54.7907"/>
</g>
<!-- distancia projetil 16 -->
<g id="node16" class="node"><title>distancia projetil 16</title>
<polygon fill="lightgray" stroke="black" points="1925.5,-121.882 1837.5,-121.882 1837.5,-103.882 1925.5,-103.882 1925.5,-121.882"/>
<text text-anchor="middle" x="1881.5" y="-110.682" font-family="Times New Roman,serif" font-size="9.00">distancia projetil 16</text>
</g>
<!-- distancia projetil 16&#45;&gt;direita -->
<g id="edge37" class="edge"><title>distancia projetil 16&#45;&gt;direita</title>
<path fill="none" stroke="green" stroke-width="0.735626" d="M1837.29,-104.876C1834.32,-104.508 1831.37,-104.172 1828.5,-103.882 1517.22,-72.4969 1434.38,-117.583 1125.5,-67.8823 1096.57,-63.2275 1064.61,-54.2592 1040.96,-46.8542"/>
<polygon fill="green" stroke="green" stroke-width="0.735626" points="1041.95,-43.4972 1031.36,-43.7935 1039.82,-50.1663 1041.95,-43.4972"/>
</g>
<!-- distancia projetil 16&#45;&gt;pular -->
<g id="edge62" class="edge"><title>distancia projetil 16&#45;&gt;pular</title>
<path fill="none" stroke="green" stroke-width="0.798462" d="M1837.27,-105.102C1834.3,-104.679 1831.36,-104.269 1828.5,-103.882 1623.74,-76.1816 1377.23,-48.6023 1287.4,-38.7407"/>
<polygon fill="green" stroke="green" stroke-width="0.798462" points="1287.56,-35.2369 1277.24,-37.627 1286.8,-42.1953 1287.56,-35.2369"/>
</g>
<!-- distancia projetil 16&#45;&gt;atirar -->
<g id="edge2" class="edge"><title>distancia projetil 16&#45;&gt;atirar</title>
<path fill="none" stroke="red" stroke-width="0.26847" d="M1837.3,-104.845C1834.32,-104.485 1831.37,-104.158 1828.5,-103.882 1447.7,-67.2801 1345.85,-130.779 968.5,-67.8823 941.505,-63.3826 911.827,-54.3519 889.957,-46.8823"/>
<polygon fill="red" stroke="red" stroke-width="0.26847" points="891.09,-43.5708 880.495,-43.5821 888.784,-50.1803 891.09,-43.5708"/>
</g>
<!-- distancia projetil 16&#45;&gt;release -->
<g id="edge30" class="edge"><title>distancia projetil 16&#45;&gt;release</title>
<path fill="none" stroke="green" stroke-width="0.172245" d="M1837.29,-104.902C1834.32,-104.528 1831.37,-104.183 1828.5,-103.882 1693.45,-89.734 1348.25,-107.919 1218.5,-67.8823 1210.57,-65.4364 1202.6,-61.6226 1195.28,-57.4446"/>
<polygon fill="green" stroke="green" stroke-width="0.172245" points="1196.77,-54.2529 1186.41,-52.0334 1193.12,-60.2289 1196.77,-54.2529"/>
</g>
<!-- distancia inimigo 1 -->
<g id="node17" class="node"><title>distancia inimigo 1</title>
<polygon fill="lightgray" stroke="black" points="1415,-121.882 1332,-121.882 1332,-103.882 1415,-103.882 1415,-121.882"/>
<text text-anchor="middle" x="1373.5" y="-110.682" font-family="Times New Roman,serif" font-size="9.00">distancia inimigo 1</text>
</g>
<!-- distancia inimigo 1&#45;&gt;esquerda -->
<g id="edge25" class="edge"><title>distancia inimigo 1&#45;&gt;esquerda</title>
<path fill="none" stroke="red" stroke-width="0.429816" d="M1331.79,-105.049C1328.65,-104.624 1325.53,-104.228 1322.5,-103.882 1101.58,-78.6313 1038.91,-123.013 823.5,-67.8823 812.17,-64.9826 800.419,-60.372 789.777,-55.5079"/>
<polygon fill="red" stroke="red" stroke-width="0.429816" points="791.283,-52.3484 780.75,-51.2049 788.271,-58.6672 791.283,-52.3484"/>
</g>
<!-- distancia inimigo 1&#45;&gt;direita -->
<g id="edge67" class="edge"><title>distancia inimigo 1&#45;&gt;direita</title>
<path fill="none" stroke="red" stroke-width="0.466708" d="M1331.56,-104.923C1271.5,-94.8759 1164,-76.562 1125.5,-67.8823 1097.1,-61.4795 1065.35,-52.6904 1041.65,-45.8011"/>
<polygon fill="red" stroke="red" stroke-width="0.466708" points="1042.59,-42.4316 1032.01,-42.9774 1040.62,-49.149 1042.59,-42.4316"/>
</g>
<!-- distancia inimigo 1&#45;&gt;pular -->
<g id="edge76" class="edge"><title>distancia inimigo 1&#45;&gt;pular</title>
<path fill="none" stroke="red" stroke-width="0.830935" stroke-dasharray="1,5" d="M1360.55,-103.648C1341.87,-91.771 1306.86,-69.5063 1281.75,-53.5384"/>
<polygon fill="red" stroke="red" stroke-width="0.830935" points="1283.31,-50.3838 1272.99,-47.9714 1279.55,-56.2907 1283.31,-50.3838"/>
</g>
<!-- distancia inimigo 1&#45;&gt;atirar -->
<g id="edge47" class="edge"><title>distancia inimigo 1&#45;&gt;atirar</title>
<path fill="none" stroke="red" stroke-width="0.236899" d="M1331.78,-105.149C1328.64,-104.7 1325.52,-104.273 1322.5,-103.882 1165.66,-83.6211 1123.65,-98.5126 968.5,-67.8823 941.65,-62.5815 911.964,-53.6018 890.052,-46.3555"/>
<polygon fill="red" stroke="red" stroke-width="0.236899" points="891.164,-43.0369 880.57,-43.1676 888.934,-49.6719 891.164,-43.0369"/>
</g>
<!-- distancia inimigo 1&#45;&gt;release -->
<g id="edge6" class="edge"><title>distancia inimigo 1&#45;&gt;release</title>
<path fill="none" stroke="green" stroke-width="0.310559" d="M1334.63,-103.844C1302.68,-96.5337 1256.63,-84.3685 1218.5,-67.8823 1210.96,-64.621 1203.19,-60.5011 1195.96,-56.289"/>
<polygon fill="green" stroke="green" stroke-width="0.310559" points="1197.51,-53.1354 1187.14,-50.9621 1193.89,-59.1276 1197.51,-53.1354"/>
</g>
<!-- distancia inimigo 2 -->
<g id="node18" class="node"><title>distancia inimigo 2</title>
<polygon fill="lightgray" stroke="black" points="1617,-121.882 1534,-121.882 1534,-103.882 1617,-103.882 1617,-121.882"/>
<text text-anchor="middle" x="1575.5" y="-110.682" font-family="Times New Roman,serif" font-size="9.00">distancia inimigo 2</text>
</g>
<!-- distancia inimigo 2&#45;&gt;esquerda -->
<g id="edge64" class="edge"><title>distancia inimigo 2&#45;&gt;esquerda</title>
<path fill="none" stroke="green" stroke-width="0.430653" d="M1533.8,-104.867C1531,-104.501 1528.21,-104.168 1525.5,-103.882 1214.81,-71.1562 1126.94,-142.192 823.5,-67.8823 812.141,-65.1005 800.379,-60.5294 789.738,-55.6656"/>
<polygon fill="green" stroke="green" stroke-width="0.430653" points="791.245,-52.5066 780.713,-51.3536 788.227,-58.8227 791.245,-52.5066"/>
</g>
<!-- distancia inimigo 2&#45;&gt;direita -->
<g id="edge4" class="edge"><title>distancia inimigo 2&#45;&gt;direita</title>
<path fill="none" stroke="green" stroke-width="0.219928" d="M1533.79,-104.988C1530.99,-104.593 1528.2,-104.22 1525.5,-103.882 1348.38,-81.7688 1301.15,-99.6336 1125.5,-67.8823 1096.67,-62.6702 1064.7,-53.735 1041.02,-46.4845"/>
<polygon fill="green" stroke="green" stroke-width="0.219928" points="1042,-43.1234 1031.41,-43.4961 1039.92,-49.8077 1042,-43.1234"/>
</g>
<!-- distancia inimigo 2&#45;&gt;pular -->
<g id="edge11" class="edge"><title>distancia inimigo 2&#45;&gt;pular</title>
<path fill="none" stroke="green" stroke-width="0.213461" d="M1541.85,-103.866C1479.99,-89.1302 1348.85,-57.8933 1286.63,-43.0723"/>
<polygon fill="green" stroke="green" stroke-width="0.213461" points="1287.09,-39.5839 1276.56,-40.6713 1285.47,-46.3933 1287.09,-39.5839"/>
</g>
<!-- distancia inimigo 2&#45;&gt;release -->
<g id="edge81" class="edge"><title>distancia inimigo 2&#45;&gt;release</title>
<path fill="none" stroke="green" stroke-width="0.295627" d="M1533.78,-105.073C1530.98,-104.657 1528.2,-104.256 1525.5,-103.882 1389.42,-85.0258 1348.55,-112.163 1218.5,-67.8823 1210.65,-65.2084 1202.71,-61.2994 1195.39,-57.101"/>
<polygon fill="green" stroke="green" stroke-width="0.295627" points="1196.88,-53.9091 1186.52,-51.6995 1193.24,-59.8886 1196.88,-53.9091"/>
</g>
<!-- direcao sprites 1 -->
<g id="node19" class="node"><title>direcao sprites 1</title>
<polygon fill="lightgray" stroke="black" points="693.5,-121.882 617.5,-121.882 617.5,-103.882 693.5,-103.882 693.5,-121.882"/>
<text text-anchor="middle" x="655.5" y="-110.682" font-family="Times New Roman,serif" font-size="9.00">direcao sprites 1</text>
</g>
<!-- direcao sprites 1&#45;&gt;esquerda -->
<g id="edge15" class="edge"><title>direcao sprites 1&#45;&gt;esquerda</title>
<path fill="none" stroke="red" stroke-width="0.600623" stroke-dasharray="1,5" d="M665.774,-103.648C678.022,-93.8317 699.123,-76.9194 717.325,-62.3312"/>
<polygon fill="red" stroke="red" stroke-width="0.600623" points="719.828,-64.811 725.442,-55.8259 715.45,-59.3488 719.828,-64.811"/>
</g>
<!-- direcao sprites 1&#45;&gt;direita -->
<g id="edge73" class="edge"><title>direcao sprites 1&#45;&gt;direita</title>
<path fill="none" stroke="green" stroke-width="0.159651" d="M693.668,-105.351C763.292,-93.4249 904.284,-69.2198 909.5,-67.8823 930.094,-62.601 952.601,-54.9806 970.642,-48.3991"/>
<polygon fill="green" stroke="green" stroke-width="0.159651" points="972.004,-51.6271 980.166,-44.8711 969.572,-45.063 972.004,-51.6271"/>
</g>
<!-- direcao sprites 1&#45;&gt;release -->
<g id="edge82" class="edge"><title>direcao sprites 1&#45;&gt;release</title>
<path fill="none" stroke="green" stroke-width="0.143325" stroke-dasharray="1,5" d="M693.686,-105.158C696.665,-104.702 699.629,-104.27 702.5,-103.882 860.971,-82.453 903.931,-100.416 1060.5,-67.8823 1082.88,-63.231 1107.28,-55.5512 1126.71,-48.7765"/>
<polygon fill="green" stroke="green" stroke-width="0.143325" points="1128.13,-51.986 1136.38,-45.3371 1125.78,-45.3907 1128.13,-51.986"/>
</g>
<!-- direcao sprites 2 -->
<g id="node20" class="node"><title>direcao sprites 2</title>
<polygon fill="lightgray" stroke="black" points="787.5,-121.882 711.5,-121.882 711.5,-103.882 787.5,-103.882 787.5,-121.882"/>
<text text-anchor="middle" x="749.5" y="-110.682" font-family="Times New Roman,serif" font-size="9.00">direcao sprites 2</text>
</g>
<!-- direcao sprites 2&#45;&gt;esquerda -->
<g id="edge54" class="edge"><title>direcao sprites 2&#45;&gt;esquerda</title>
<path fill="none" stroke="green" stroke-width="0.206801" d="M749.714,-103.648C749.879,-97.3183 750.12,-88.038 750.372,-78.3329"/>
<polygon fill="green" stroke="green" stroke-width="0.206801" points="753.875,-78.2589 750.636,-68.1713 746.877,-78.0769 753.875,-78.2589"/>
</g>
<!-- direcao sprites 2&#45;&gt;direita -->
<g id="edge80" class="edge"><title>direcao sprites 2&#45;&gt;direita</title>
<path fill="none" stroke="red" stroke-width="0.319783" d="M780.939,-103.854C813.324,-95.4405 865.182,-81.5651 909.5,-67.8823 929.672,-61.6543 951.99,-54.0405 970.027,-47.7022"/>
<polygon fill="red" stroke="red" stroke-width="0.319783" points="971.305,-50.9627 979.567,-44.3291 968.972,-44.3631 971.305,-50.9627"/>
</g>
<!-- direcao sprites 2&#45;&gt;pular -->
<g id="edge24" class="edge"><title>direcao sprites 2&#45;&gt;pular</title>
<path fill="none" stroke="red" stroke-width="0.49384" d="M787.681,-105.121C790.661,-104.673 793.627,-104.254 796.5,-103.882 975.717,-80.7023 1030.6,-126.623 1201.5,-67.8823 1209.63,-65.0877 1217.76,-60.73 1225.06,-56.089"/>
<polygon fill="red" stroke="red" stroke-width="0.49384" points="1227.49,-58.6671 1233.8,-50.1551 1223.56,-52.8752 1227.49,-58.6671"/>
</g>
<!-- direcao sprites 2&#45;&gt;atirar -->
<g id="edge45" class="edge"><title>direcao sprites 2&#45;&gt;atirar</title>
<path fill="none" stroke="green" stroke-width="0.317879" d="M761.166,-103.85C773.853,-95.087 794.703,-80.6087 812.5,-67.8823 818.109,-63.8714 824.08,-59.5427 829.777,-55.3835"/>
<polygon fill="green" stroke="green" stroke-width="0.317879" points="831.855,-58.2 837.855,-49.4677 827.719,-52.5526 831.855,-58.2"/>
</g>
<!-- direcao sprites 2&#45;&gt;release -->
<g id="edge38" class="edge"><title>direcao sprites 2&#45;&gt;release</title>
<path fill="none" stroke="red" stroke-width="0.843186" stroke-dasharray="1,5" d="M787.702,-105.271C790.677,-104.789 793.636,-104.321 796.5,-103.882 913.553,-85.9445 945.001,-94.0174 1060.5,-67.8823 1082.8,-62.8366 1107.19,-55.1376 1126.64,-48.4512"/>
<polygon fill="red" stroke="red" stroke-width="0.843186" points="1128.03,-51.6706 1136.32,-45.0664 1125.72,-45.0628 1128.03,-51.6706"/>
</g>
<!-- esquerda&#45;&gt;esquerda -->
<g id="edge74" class="edge"><title>esquerda&#45;&gt;esquerda</title>
<path fill="none" stroke="green" stroke-width="0.117582" d="M782.17,-48.5224C793.812,-49.0847 803.441,-44.2243 803.441,-33.9411 803.441,-26.8714 798.89,-22.3648 792.262,-20.4214"/>
<polygon fill="green" stroke="green" stroke-width="0.117582" points="792.481,-16.9252 782.17,-19.3599 791.749,-23.8868 792.481,-16.9252"/>
</g>
<!-- direita&#45;&gt;direita -->
<g id="edge12" class="edge"><title>direita&#45;&gt;direita</title>
<path fill="none" stroke="red" stroke-width="0.138279" stroke-dasharray="1,5" d="M1029.42,-48.2091C1040.92,-49.9705 1051.08,-45.2146 1051.08,-33.9411 1051.08,-26.1906 1046.28,-21.5207 1039.54,-19.9312"/>
<polygon fill="red" stroke="red" stroke-width="0.138279" points="1039.5,-16.4293 1029.42,-19.6732 1039.32,-23.427 1039.5,-16.4293"/>
</g>
<!-- pular&#45;&gt;pular -->
<g id="edge33" class="edge"><title>pular&#45;&gt;pular</title>
<path fill="none" stroke="green" stroke-width="0.296576" d="M1273.17,-47.8663C1284.67,-50.4657 1295.25,-45.8239 1295.25,-33.9411 1295.25,-25.7717 1290.25,-21.0248 1283.39,-19.7005"/>
<polygon fill="green" stroke="green" stroke-width="0.296576" points="1283.06,-16.2087 1273.17,-20.016 1283.28,-23.2054 1283.06,-16.2087"/>
</g>
<!-- atirar&#45;&gt;atirar -->
<g id="edge68" class="edge"><title>atirar&#45;&gt;atirar</title>
<path fill="none" stroke="red" stroke-width="0.372852" stroke-dasharray="1,5" d="M878.174,-47.8663C889.666,-50.4657 900.249,-45.8239 900.249,-33.9411 900.249,-25.7717 895.247,-21.0248 888.386,-19.7005"/>
<polygon fill="red" stroke="red" stroke-width="0.372852" points="888.061,-16.2087 878.174,-20.016 888.277,-23.2054 888.061,-16.2087"/>
</g>
</g>
</svg>
