<?xml version="1.0" encoding="UTF-8" standalone="no"?>
<!DOCTYPE svg PUBLIC "-//W3C//DTD SVG 1.1//EN"
 "http://www.w3.org/Graphics/SVG/1.1/DTD/svg11.dtd">
<!-- Generated by graphviz version 2.38.0 (20140413.2041)
 -->
<!-- Title: %3 Pages: 1 -->
<svg width="2298pt" height="208pt"
 viewBox="0.00 0.00 2298.11 208.31" xmlns="http://www.w3.org/2000/svg" xmlns:xlink="http://www.w3.org/1999/xlink">
<g id="graph0" class="graph" transform="scale(1 1) rotate(0) translate(4 204.309)">
<title>%3</title>
<polygon fill="white" stroke="none" points="-4,4 -4,-204.309 2294.11,-204.309 2294.11,4 -4,4"/>
<!-- dintancia projetil 1 -->
<g id="node1" class="node"><title>dintancia projetil 1</title>
<polygon fill="lightgray" stroke="black" points="307.893,-134.095 223.893,-134.095 223.893,-116.095 307.893,-116.095 307.893,-134.095"/>
<text text-anchor="middle" x="265.893" y="-122.895" font-family="Times New Roman,serif" font-size="9.00">dintancia projetil 1</text>
</g>
<!-- esquerda -->
<g id="node21" class="node"><title>esquerda</title>
<ellipse fill="lightblue" stroke="black" cx="821.893" cy="-33.9411" rx="33.8824" ry="33.8824"/>
<text text-anchor="middle" x="821.893" y="-31.7411" font-family="Times New Roman,serif" font-size="9.00">esquerda</text>
</g>
<!-- dintancia projetil 1&#45;&gt;esquerda -->
<g id="edge1" class="edge"><title>dintancia projetil 1&#45;&gt;esquerda</title>
<path fill="none" stroke="green" stroke-width="0.549008" d="M283.476,-115.905C293.146,-111.715 305.469,-106.879 316.893,-103.882 483.651,-60.1433 689.083,-43.0488 777.736,-37.3768"/>
<polygon fill="green" stroke="green" stroke-width="0.549008" points="778.195,-40.8551 787.958,-36.7407 777.76,-33.8686 778.195,-40.8551"/>
</g>
<!-- direita -->
<g id="node22" class="node"><title>direita</title>
<ellipse fill="lightblue" stroke="black" cx="1294.89" cy="-33.9411" rx="27.6545" ry="27.6545"/>
<text text-anchor="middle" x="1294.89" y="-31.7411" font-family="Times New Roman,serif" font-size="9.00">direita</text>
</g>
<!-- dintancia projetil 1&#45;&gt;direita -->
<g id="edge33" class="edge"><title>dintancia projetil 1&#45;&gt;direita</title>
<path fill="none" stroke="green" stroke-width="0.472337" stroke-dasharray="1,5" d="M281.991,-116.083C291.816,-111.611 304.778,-106.438 316.893,-103.882 520.128,-61.0027 1055.11,-137.265 1250.89,-67.8823 1256.54,-65.8811 1262.06,-62.8803 1267.18,-59.4905"/>
<polygon fill="green" stroke="green" stroke-width="0.472337" points="1269.35,-62.2428 1275.37,-53.5263 1265.23,-56.5844 1269.35,-62.2428"/>
</g>
<!-- pular -->
<g id="node23" class="node"><title>pular</title>
<ellipse fill="lightblue" stroke="black" cx="976.893" cy="-33.9411" rx="25" ry="25"/>
<text text-anchor="middle" x="976.893" y="-31.7411" font-family="Times New Roman,serif" font-size="9.00">pular</text>
</g>
<!-- dintancia projetil 1&#45;&gt;pular -->
<g id="edge40" class="edge"><title>dintancia projetil 1&#45;&gt;pular</title>
<path fill="none" stroke="green" stroke-width="0.213084" d="M282.471,-115.988C292.247,-111.601 304.997,-106.548 316.893,-103.882 562.857,-48.7682 635.868,-118.032 882.893,-67.8823 904.198,-63.557 927.247,-55.5355 945.19,-48.4913"/>
<polygon fill="green" stroke="green" stroke-width="0.213084" points="946.619,-51.689 954.589,-44.7081 944.005,-45.1953 946.619,-51.689"/>
</g>
<!-- atirar -->
<g id="node24" class="node"><title>atirar</title>
<ellipse fill="lightblue" stroke="black" cx="1090.89" cy="-33.9411" rx="25" ry="25"/>
<text text-anchor="middle" x="1090.89" y="-31.7411" font-family="Times New Roman,serif" font-size="9.00">atirar</text>
</g>
<!-- dintancia projetil 1&#45;&gt;atirar -->
<g id="edge73" class="edge"><title>dintancia projetil 1&#45;&gt;atirar</title>
<path fill="none" stroke="red" stroke-width="0.673399" d="M282.459,-115.936C292.231,-111.532 304.981,-106.478 316.893,-103.882 618.668,-38.1129 709.56,-135.651 1010.89,-67.8823 1027.56,-64.1334 1045.21,-57.2123 1059.68,-50.6783"/>
<polygon fill="red" stroke="red" stroke-width="0.673399" points="1061.56,-53.6638 1069.14,-46.2602 1058.6,-47.3217 1061.56,-53.6638"/>
</g>
<!-- release -->
<g id="node25" class="node"><title>release</title>
<ellipse fill="lightblue" stroke="black" cx="1194.89" cy="-33.9411" rx="28.9828" ry="28.9828"/>
<text text-anchor="middle" x="1194.89" y="-31.7411" font-family="Times New Roman,serif" font-size="9.00">release</text>
</g>
<!-- dintancia projetil 1&#45;&gt;release -->
<g id="edge25" class="edge"><title>dintancia projetil 1&#45;&gt;release</title>
<path fill="none" stroke="green" stroke-width="0.485199" d="M282.451,-115.899C292.221,-111.482 304.971,-106.429 316.893,-103.882 496.569,-65.501 967.594,-122.9 1142.89,-67.8823 1150.11,-65.6161 1157.32,-62.0832 1163.96,-58.1578"/>
<polygon fill="green" stroke="green" stroke-width="0.485199" points="1166.07,-60.9657 1172.63,-52.6436 1162.31,-55.0604 1166.07,-60.9657"/>
</g>
<!-- distancia projetil 2 -->
<g id="node2" class="node"><title>distancia projetil 2</title>
<polygon fill="lightgray" stroke="black" points="2153.39,-134.095 2070.39,-134.095 2070.39,-116.095 2153.39,-116.095 2153.39,-134.095"/>
<text text-anchor="middle" x="2111.89" y="-122.895" font-family="Times New Roman,serif" font-size="9.00">distancia projetil 2</text>
</g>
<!-- distancia projetil 2&#45;&gt;direita -->
<g id="edge92" class="edge"><title>distancia projetil 2&#45;&gt;direita</title>
<path fill="none" stroke="red" stroke-width="0.39634" d="M2093.33,-116.037C2082.59,-111.723 2068.71,-106.726 2055.89,-103.882 1783.33,-43.3974 1444.58,-35.7681 1332.69,-34.9677"/>
<polygon fill="red" stroke="red" stroke-width="0.39634" points="1332.6,-31.4673 1322.58,-34.9101 1332.56,-38.4672 1332.6,-31.4673"/>
</g>
<!-- distancia projetil 2&#45;&gt;atirar -->
<g id="edge22" class="edge"><title>distancia projetil 2&#45;&gt;atirar</title>
<path fill="none" stroke="green" stroke-width="0.275137" d="M2070.29,-116.244C2045.57,-111.886 2013.55,-106.776 1984.89,-103.882 1801.65,-85.3777 1335.19,-114.017 1156.89,-67.8823 1144.3,-64.6242 1131.31,-58.7666 1120.22,-52.8848"/>
<polygon fill="green" stroke="green" stroke-width="0.275137" points="1121.85,-49.784 1111.41,-47.995 1118.45,-55.9057 1121.85,-49.784"/>
</g>
<!-- distancia projetil 2&#45;&gt;release -->
<g id="edge44" class="edge"><title>distancia projetil 2&#45;&gt;release</title>
<path fill="none" stroke="red" stroke-width="0.52141" d="M2093.63,-115.919C2082.87,-111.509 2068.87,-106.455 2055.89,-103.882 1707.64,-34.8323 1600.67,-160.329 1257.89,-67.8823 1247.61,-65.1103 1237.11,-60.4669 1227.7,-55.5279"/>
<polygon fill="red" stroke="red" stroke-width="0.52141" points="1229.15,-52.3285 1218.7,-50.5486 1225.76,-58.4531 1229.15,-52.3285"/>
</g>
<!-- distancia projetil 3 -->
<g id="node3" class="node"><title>distancia projetil 3</title>
<polygon fill="lightgray" stroke="black" points="409.393,-134.095 326.393,-134.095 326.393,-116.095 409.393,-116.095 409.393,-134.095"/>
<text text-anchor="middle" x="367.893" y="-122.895" font-family="Times New Roman,serif" font-size="9.00">distancia projetil 3</text>
</g>
<!-- distancia projetil 3&#45;&gt;esquerda -->
<g id="edge47" class="edge"><title>distancia projetil 3&#45;&gt;esquerda</title>
<path fill="none" stroke="red" stroke-width="0.300737" d="M385.156,-116.044C394.644,-111.894 406.724,-107.053 417.893,-103.882 546.188,-67.4625 703.187,-47.4163 778.083,-39.2908"/>
<polygon fill="red" stroke="red" stroke-width="0.300737" points="778.523,-42.7639 788.095,-38.2229 777.78,-35.8033 778.523,-42.7639"/>
</g>
<!-- distancia projetil 3&#45;&gt;direita -->
<g id="edge14" class="edge"><title>distancia projetil 3&#45;&gt;direita</title>
<path fill="none" stroke="green" stroke-width="0.530582" d="M384.108,-115.895C393.68,-111.477 406.18,-106.424 417.893,-103.882 598.962,-64.5907 1076.4,-130.181 1250.89,-67.8823 1256.53,-65.8679 1262.06,-62.8604 1267.18,-59.468"/>
<polygon fill="green" stroke="green" stroke-width="0.530582" points="1269.34,-62.2199 1275.36,-53.5028 1265.22,-56.562 1269.34,-62.2199"/>
</g>
<!-- distancia projetil 3&#45;&gt;pular -->
<g id="edge85" class="edge"><title>distancia projetil 3&#45;&gt;pular</title>
<path fill="none" stroke="green" stroke-width="0.242928" d="M384.142,-116.044C393.725,-111.676 406.225,-106.623 417.893,-103.882 619.685,-56.4804 680.04,-110.518 882.893,-67.8823 904.025,-63.4407 926.907,-55.4941 944.804,-48.5189"/>
<polygon fill="green" stroke="green" stroke-width="0.242928" points="946.201,-51.7299 954.191,-44.7721 943.606,-45.2286 946.201,-51.7299"/>
</g>
<!-- distancia projetil 3&#45;&gt;atirar -->
<g id="edge54" class="edge"><title>distancia projetil 3&#45;&gt;atirar</title>
<path fill="none" stroke="red" stroke-width="0.474021" d="M384.125,-115.972C393.703,-111.579 406.203,-106.526 417.893,-103.882 675.43,-45.6411 753.544,-126.951 1010.89,-67.8823 1027.55,-64.06 1045.19,-57.1308 1059.67,-50.6103"/>
<polygon fill="red" stroke="red" stroke-width="0.474021" points="1061.54,-53.5992 1069.13,-46.2046 1058.58,-47.2536 1061.54,-53.5992"/>
</g>
<!-- distancia projetil 3&#45;&gt;release -->
<g id="edge26" class="edge"><title>distancia projetil 3&#45;&gt;release</title>
<path fill="none" stroke="red" stroke-width="0.239167" d="M384.115,-115.923C393.689,-111.515 406.189,-106.461 417.893,-103.882 575.423,-69.1686 989.132,-116.652 1142.89,-67.8823 1150.11,-65.5943 1157.31,-62.0516 1163.95,-58.1234"/>
<polygon fill="red" stroke="red" stroke-width="0.239167" points="1166.06,-60.9315 1172.62,-52.6095 1162.3,-55.026 1166.06,-60.9315"/>
</g>
<!-- distancia projetil 4 -->
<g id="node4" class="node"><title>distancia projetil 4</title>
<polygon fill="lightgray" stroke="black" points="510.393,-134.095 427.393,-134.095 427.393,-116.095 510.393,-116.095 510.393,-134.095"/>
<text text-anchor="middle" x="468.893" y="-122.895" font-family="Times New Roman,serif" font-size="9.00">distancia projetil 4</text>
</g>
<!-- distancia projetil 4&#45;&gt;esquerda -->
<g id="edge96" class="edge"><title>distancia projetil 4&#45;&gt;esquerda</title>
<path fill="none" stroke="green" stroke-width="0.386362" d="M486.69,-116.089C496.127,-112.052 507.993,-107.301 518.893,-103.882 609.457,-75.4751 718.652,-53.5517 778.095,-42.6173"/>
<polygon fill="green" stroke="green" stroke-width="0.386362" points="779.038,-46.0031 788.249,-40.7676 777.783,-39.1165 779.038,-46.0031"/>
</g>
<!-- distancia projetil 4&#45;&gt;direita -->
<g id="edge24" class="edge"><title>distancia projetil 4&#45;&gt;direita</title>
<path fill="none" stroke="green" stroke-width="0.165896" d="M485.114,-115.921C494.688,-111.512 507.188,-106.459 518.893,-103.882 677.948,-68.8719 1097.68,-123.099 1250.89,-67.8823 1256.53,-65.8511 1262.05,-62.8351 1267.17,-59.4393"/>
<polygon fill="green" stroke="green" stroke-width="0.165896" points="1269.33,-62.1907 1275.35,-53.4729 1265.21,-56.5333 1269.33,-62.1907"/>
</g>
<!-- distancia projetil 4&#45;&gt;pular -->
<g id="edge53" class="edge"><title>distancia projetil 4&#45;&gt;pular</title>
<path fill="none" stroke="red" stroke-width="0.273318" d="M485.616,-115.934C495.146,-111.643 507.437,-106.702 518.893,-103.882 676.747,-65.022 724.167,-103.014 882.893,-67.8823 903.976,-63.2157 926.858,-55.2637 944.766,-48.3418"/>
<polygon fill="red" stroke="red" stroke-width="0.273318" points="946.147,-51.5598 954.161,-44.6298 943.574,-45.0496 946.147,-51.5598"/>
</g>
<!-- distancia projetil 4&#45;&gt;atirar -->
<g id="edge84" class="edge"><title>distancia projetil 4&#45;&gt;atirar</title>
<path fill="none" stroke="red" stroke-width="0.580688" d="M485.138,-116.026C494.72,-111.652 507.22,-106.598 518.893,-103.882 732.439,-54.1949 797.507,-118.256 1010.89,-67.8823 1027.52,-63.9568 1045.17,-57.0161 1059.64,-50.5147"/>
<polygon fill="red" stroke="red" stroke-width="0.580688" points="1061.51,-53.5083 1069.11,-46.1264 1058.56,-47.1577 1061.51,-53.5083"/>
</g>
<!-- distancia projetil 4&#45;&gt;release -->
<g id="edge72" class="edge"><title>distancia projetil 4&#45;&gt;release</title>
<path fill="none" stroke="red" stroke-width="0.448995" d="M485.122,-115.958C494.699,-111.562 507.199,-106.508 518.893,-103.882 789.937,-43.0146 878.437,-152.931 1142.89,-67.8823 1150.1,-65.5654 1157.29,-62.0098 1163.94,-58.0781"/>
<polygon fill="red" stroke="red" stroke-width="0.448995" points="1166.04,-60.8862 1172.6,-52.5645 1162.29,-54.9807 1166.04,-60.8862"/>
</g>
<!-- distancia projetil 5 -->
<g id="node5" class="node"><title>distancia projetil 5</title>
<polygon fill="lightgray" stroke="black" points="611.393,-134.095 528.393,-134.095 528.393,-116.095 611.393,-116.095 611.393,-134.095"/>
<text text-anchor="middle" x="569.893" y="-122.895" font-family="Times New Roman,serif" font-size="9.00">distancia projetil 5</text>
</g>
<!-- distancia projetil 5&#45;&gt;esquerda -->
<g id="edge39" class="edge"><title>distancia projetil 5&#45;&gt;esquerda</title>
<path fill="none" stroke="red" stroke-width="0.132766" d="M589.266,-115.973C598.494,-112.179 609.714,-107.673 619.893,-103.882 674.91,-83.3908 739.199,-61.8569 780.211,-48.4198"/>
<polygon fill="red" stroke="red" stroke-width="0.132766" points="781.444,-51.6991 789.862,-45.2663 779.27,-45.0452 781.444,-51.6991"/>
</g>
<!-- distancia projetil 5&#45;&gt;direita -->
<g id="edge9" class="edge"><title>distancia projetil 5&#45;&gt;direita</title>
<path fill="none" stroke="green" stroke-width="0.671774" d="M586.122,-115.956C595.698,-111.558 608.198,-106.504 619.893,-103.882 756.94,-73.1518 1118.95,-116.018 1250.89,-67.8823 1256.52,-65.829 1262.03,-62.8017 1267.15,-59.4015"/>
<polygon fill="green" stroke="green" stroke-width="0.671774" points="1269.32,-62.1523 1275.34,-53.4335 1265.2,-56.4956 1269.32,-62.1523"/>
</g>
<!-- distancia projetil 5&#45;&gt;pular -->
<g id="edge104" class="edge"><title>distancia projetil 5&#45;&gt;pular</title>
<path fill="none" stroke="red" stroke-width="0.312092" d="M587.115,-115.897C596.591,-111.704 608.673,-106.868 619.893,-103.882 733.903,-73.54 768.199,-95.5307 882.893,-67.8823 903.885,-62.8217 926.764,-54.8601 944.694,-48.0317"/>
<polygon fill="red" stroke="red" stroke-width="0.312092" points="946.047,-51.2613 954.103,-44.3804 943.514,-44.7355 946.047,-51.2613"/>
</g>
<!-- distancia projetil 5&#45;&gt;atirar -->
<g id="edge70" class="edge"><title>distancia projetil 5&#45;&gt;atirar</title>
<path fill="none" stroke="red" stroke-width="0.190007" d="M586.609,-115.904C596.136,-111.604 608.428,-106.664 619.893,-103.882 789.486,-62.7401 841.432,-109.569 1010.89,-67.8823 1027.48,-63.8009 1045.13,-56.8428 1059.61,-50.3703"/>
<polygon fill="red" stroke="red" stroke-width="0.190007" points="1061.46,-53.3708 1069.08,-46.0082 1058.53,-47.0128 1061.46,-53.3708"/>
</g>
<!-- distancia projetil 5&#45;&gt;release -->
<g id="edge62" class="edge"><title>distancia projetil 5&#45;&gt;release</title>
<path fill="none" stroke="red" stroke-width="0.608383" d="M586.134,-116.007C595.714,-111.626 608.214,-106.573 619.893,-103.882 846.939,-51.5702 921.485,-140.444 1142.89,-67.8823 1150.08,-65.5255 1157.28,-61.952 1163.92,-58.0154"/>
<polygon fill="red" stroke="red" stroke-width="0.608383" points="1166.02,-60.8237 1172.58,-52.5023 1162.27,-54.918 1166.02,-60.8237"/>
</g>
<!-- distancia projetil 6 -->
<g id="node6" class="node"><title>distancia projetil 6</title>
<polygon fill="lightgray" stroke="black" points="1975.39,-134.095 1892.39,-134.095 1892.39,-116.095 1975.39,-116.095 1975.39,-134.095"/>
<text text-anchor="middle" x="1933.89" y="-122.895" font-family="Times New Roman,serif" font-size="9.00">distancia projetil 6</text>
</g>
<!-- distancia projetil 6&#45;&gt;direita -->
<g id="edge13" class="edge"><title>distancia projetil 6&#45;&gt;direita</title>
<path fill="none" stroke="green" stroke-width="0.247104" stroke-dasharray="1,5" d="M1916.8,-116.022C1907.07,-111.759 1894.53,-106.817 1882.89,-103.882 1679.69,-52.6383 1427.18,-39.2892 1332.8,-35.978"/>
<polygon fill="green" stroke="green" stroke-width="0.247104" points="1332.72,-32.4733 1322.61,-35.6383 1332.49,-39.4695 1332.72,-32.4733"/>
</g>
<!-- distancia projetil 6&#45;&gt;pular -->
<g id="edge21" class="edge"><title>distancia projetil 6&#45;&gt;pular</title>
<path fill="none" stroke="green" stroke-width="0.124886" d="M1917.33,-115.899C1907.56,-111.482 1894.81,-106.429 1882.89,-103.882 1523.54,-27.1198 1415.73,-147.026 1056.89,-67.8823 1040.21,-64.2024 1022.56,-57.289 1008.09,-50.7421"/>
<polygon fill="green" stroke="green" stroke-width="0.124886" points="1009.18,-47.3857 998.635,-46.3125 1006.21,-53.7245 1009.18,-47.3857"/>
</g>
<!-- distancia projetil 6&#45;&gt;atirar -->
<g id="edge51" class="edge"><title>distancia projetil 6&#45;&gt;atirar</title>
<path fill="none" stroke="red" stroke-width="0.292361" d="M1917.33,-115.926C1907.56,-111.518 1894.81,-106.465 1882.89,-103.882 1567.16,-35.4483 1469.41,-149.761 1156.89,-67.8823 1144.31,-64.5859 1131.32,-58.7203 1120.23,-52.8429"/>
<polygon fill="red" stroke="red" stroke-width="0.292361" points="1121.86,-49.7419 1111.42,-47.9593 1118.47,-55.8657 1121.86,-49.7419"/>
</g>
<!-- distancia projetil 6&#45;&gt;release -->
<g id="edge63" class="edge"><title>distancia projetil 6&#45;&gt;release</title>
<path fill="none" stroke="green" stroke-width="0.293094" d="M1917.32,-115.961C1907.55,-111.566 1894.8,-106.512 1882.89,-103.882 1611.21,-43.8576 1526.08,-142.005 1257.89,-67.8823 1247.63,-65.0463 1237.13,-60.3821 1227.72,-55.4435"/>
<polygon fill="green" stroke="green" stroke-width="0.293094" points="1229.17,-52.244 1218.72,-50.471 1225.78,-58.3709 1229.17,-52.244"/>
</g>
<!-- distancia projetil 7 -->
<g id="node7" class="node"><title>distancia projetil 7</title>
<polygon fill="lightgray" stroke="black" points="712.393,-134.095 629.393,-134.095 629.393,-116.095 712.393,-116.095 712.393,-134.095"/>
<text text-anchor="middle" x="670.893" y="-122.895" font-family="Times New Roman,serif" font-size="9.00">distancia projetil 7</text>
</g>
<!-- distancia projetil 7&#45;&gt;esquerda -->
<g id="edge32" class="edge"><title>distancia projetil 7&#45;&gt;esquerda</title>
<path fill="none" stroke="green" stroke-width="0.475412" d="M684.559,-116.026C706.856,-102.862 751.819,-76.3145 784.232,-57.1767"/>
<polygon fill="green" stroke="green" stroke-width="0.475412" points="786.181,-60.0907 793.013,-51.9926 782.622,-54.0629 786.181,-60.0907"/>
</g>
<!-- distancia projetil 7&#45;&gt;direita -->
<g id="edge103" class="edge"><title>distancia projetil 7&#45;&gt;direita</title>
<path fill="none" stroke="green" stroke-width="0.381155" d="M687.133,-116.003C696.713,-111.621 709.213,-106.568 720.893,-103.882 950.987,-50.9774 1029.53,-149.999 1250.89,-67.8823 1256.51,-65.7986 1262.02,-62.7557 1267.13,-59.3495"/>
<polygon fill="green" stroke="green" stroke-width="0.381155" points="1269.3,-62.0994 1275.32,-53.3792 1265.18,-56.4436 1269.3,-62.0994"/>
</g>
<!-- distancia projetil 7&#45;&gt;pular -->
<g id="edge68" class="edge"><title>distancia projetil 7&#45;&gt;pular</title>
<path fill="none" stroke="green" stroke-width="0.115399" d="M688.683,-116.066C698.118,-112.023 709.985,-107.273 720.893,-103.882 791.324,-81.9855 811.965,-88.114 882.893,-67.8823 903.658,-61.9589 926.532,-53.9762 944.516,-47.3527"/>
<polygon fill="green" stroke="green" stroke-width="0.115399" points="945.81,-50.6054 953.959,-43.8345 943.367,-44.0458 945.81,-50.6054"/>
</g>
<!-- distancia projetil 7&#45;&gt;atirar -->
<g id="edge38" class="edge"><title>distancia projetil 7&#45;&gt;atirar</title>
<path fill="none" stroke="green" stroke-width="0.689946" d="M687.644,-116.044C697.182,-111.788 709.473,-106.845 720.893,-103.882 846.609,-71.2667 885.282,-100.902 1010.89,-67.8823 1027.42,-63.5385 1045.05,-56.5512 1059.55,-50.1272"/>
<polygon fill="green" stroke="green" stroke-width="0.689946" points="1061.38,-53.1391 1069.03,-45.8093 1058.48,-46.7686 1061.38,-53.1391"/>
</g>
<!-- distancia projetil 7&#45;&gt;release -->
<g id="edge49" class="edge"><title>distancia projetil 7&#45;&gt;release</title>
<path fill="none" stroke="red" stroke-width="0.107787" d="M687.15,-116.079C696.736,-111.722 709.236,-106.669 720.893,-103.882 903.971,-60.1186 964.503,-127.968 1142.89,-67.8823 1149.99,-65.4901 1157.11,-61.9368 1163.69,-58.0379"/>
<polygon fill="red" stroke="red" stroke-width="0.107787" points="1165.72,-60.8946 1172.29,-52.5836 1161.97,-54.9828 1165.72,-60.8946"/>
</g>
<!-- distancia projetil 8 -->
<g id="node8" class="node"><title>distancia projetil 8</title>
<polygon fill="lightgray" stroke="black" points="813.393,-134.095 730.393,-134.095 730.393,-116.095 813.393,-116.095 813.393,-134.095"/>
<text text-anchor="middle" x="771.893" y="-122.895" font-family="Times New Roman,serif" font-size="9.00">distancia projetil 8</text>
</g>
<!-- distancia projetil 8&#45;&gt;esquerda -->
<g id="edge78" class="edge"><title>distancia projetil 8&#45;&gt;esquerda</title>
<path fill="none" stroke="green" stroke-width="0.380081" d="M776.507,-115.868C782.055,-105.975 791.748,-88.6907 800.756,-72.6294"/>
<polygon fill="green" stroke="green" stroke-width="0.380081" points="803.82,-74.321 805.659,-63.887 797.715,-70.8969 803.82,-74.321"/>
</g>
<!-- distancia projetil 8&#45;&gt;direita -->
<g id="edge6" class="edge"><title>distancia projetil 8&#45;&gt;direita</title>
<path fill="none" stroke="red" stroke-width="0.491111" d="M788.149,-116.073C797.734,-111.714 810.234,-106.661 821.893,-103.882 1008.02,-59.5265 1072.04,-135.855 1250.89,-67.8823 1256.24,-65.8483 1261.5,-62.9582 1266.42,-59.7251"/>
<polygon fill="red" stroke="red" stroke-width="0.491111" points="1268.79,-62.3348 1274.85,-53.6458 1264.69,-56.6578 1268.79,-62.3348"/>
</g>
<!-- distancia projetil 8&#45;&gt;pular -->
<g id="edge37" class="edge"><title>distancia projetil 8&#45;&gt;pular</title>
<path fill="none" stroke="red" stroke-width="0.115145" d="M790.447,-116.026C825.541,-100.764 901.997,-67.5131 945.312,-48.6756"/>
<polygon fill="red" stroke="red" stroke-width="0.115145" points="946.764,-51.8607 954.538,-44.6629 943.972,-45.4415 946.764,-51.8607"/>
</g>
<!-- distancia projetil 8&#45;&gt;atirar -->
<g id="edge67" class="edge"><title>distancia projetil 8&#45;&gt;atirar</title>
<path fill="none" stroke="red" stroke-width="0.30695" d="M789.642,-115.929C799.065,-111.849 810.934,-107.107 821.893,-103.882 903.925,-79.742 928.939,-92.2861 1010.89,-67.8823 1027.27,-63.0062 1044.89,-55.9596 1059.41,-49.6342"/>
<polygon fill="red" stroke="red" stroke-width="0.30695" points="1061.2,-52.6677 1068.92,-45.4057 1058.36,-46.2718 1061.2,-52.6677"/>
</g>
<!-- distancia projetil 8&#45;&gt;release -->
<g id="edge102" class="edge"><title>distancia projetil 8&#45;&gt;release</title>
<path fill="none" stroke="red" stroke-width="0.351667" d="M788.631,-115.992C798.165,-111.719 810.456,-106.777 821.893,-103.882 961.064,-68.6527 1007.46,-115.512 1142.89,-67.8823 1149.96,-65.3959 1157.06,-61.8 1163.64,-57.8889"/>
<polygon fill="red" stroke="red" stroke-width="0.351667" points="1165.67,-60.7457 1172.24,-52.4349 1161.92,-54.8339 1165.67,-60.7457"/>
</g>
<!-- distancia projetil 9 -->
<g id="node9" class="node"><title>distancia projetil 9</title>
<polygon fill="lightgray" stroke="black" points="914.393,-134.095 831.393,-134.095 831.393,-116.095 914.393,-116.095 914.393,-134.095"/>
<text text-anchor="middle" x="872.893" y="-122.895" font-family="Times New Roman,serif" font-size="9.00">distancia projetil 9</text>
</g>
<!-- distancia projetil 9&#45;&gt;esquerda -->
<g id="edge94" class="edge"><title>distancia projetil 9&#45;&gt;esquerda</title>
<path fill="none" stroke="green" stroke-width="0.361799" d="M868.186,-115.868C862.527,-105.975 852.64,-88.6907 843.452,-72.6294"/>
<polygon fill="green" stroke="green" stroke-width="0.361799" points="846.454,-70.8292 838.451,-63.887 840.378,-74.305 846.454,-70.8292"/>
</g>
<!-- distancia projetil 9&#45;&gt;direita -->
<g id="edge64" class="edge"><title>distancia projetil 9&#45;&gt;direita</title>
<path fill="none" stroke="red" stroke-width="0.266475" d="M889.98,-115.99C899.709,-111.717 912.246,-106.776 923.893,-103.882 1065.79,-68.6309 1114.9,-121.592 1250.89,-67.8823 1256.22,-65.7791 1261.46,-62.8522 1266.38,-59.6034"/>
<polygon fill="red" stroke="red" stroke-width="0.266475" points="1268.74,-62.2099 1274.8,-53.516 1264.64,-56.5362 1268.74,-62.2099"/>
</g>
<!-- distancia projetil 9&#45;&gt;pular -->
<g id="edge52" class="edge"><title>distancia projetil 9&#45;&gt;pular</title>
<path fill="none" stroke="green" stroke-width="0.421162" d="M882.49,-115.868C897.807,-102.738 928.31,-76.5886 950.51,-57.5578"/>
<polygon fill="green" stroke="green" stroke-width="0.421162" points="952.955,-60.0715 958.269,-50.9059 948.399,-54.757 952.955,-60.0715"/>
</g>
<!-- distancia projetil 9&#45;&gt;atirar -->
<g id="edge23" class="edge"><title>distancia projetil 9&#45;&gt;atirar</title>
<path fill="none" stroke="red" stroke-width="0.394159" d="M893.014,-115.927C919.894,-105.009 968.998,-85.0403 1010.89,-67.8823 1026.59,-61.4531 1044.01,-54.2854 1058.57,-48.2821"/>
<polygon fill="red" stroke="red" stroke-width="0.394159" points="1060.23,-51.3834 1068.14,-44.3354 1057.56,-44.912 1060.23,-51.3834"/>
</g>
<!-- distancia projetil 9&#45;&gt;release -->
<g id="edge71" class="edge"><title>distancia projetil 9&#45;&gt;release</title>
<path fill="none" stroke="green" stroke-width="0.70544" d="M890.509,-116.029C900.19,-111.875 912.511,-107.034 923.893,-103.882 1018.96,-77.5591 1050.71,-102.981 1142.89,-67.8823 1149.9,-65.2156 1156.96,-61.5382 1163.54,-57.6038"/>
<polygon fill="green" stroke="green" stroke-width="0.70544" points="1165.57,-60.4607 1172.14,-52.1502 1161.82,-54.5487 1165.57,-60.4607"/>
</g>
<!-- distancia projetil 10 -->
<g id="node10" class="node"><title>distancia projetil 10</title>
<polygon fill="lightgray" stroke="black" points="1873.89,-134.095 1785.89,-134.095 1785.89,-116.095 1873.89,-116.095 1873.89,-134.095"/>
<text text-anchor="middle" x="1829.89" y="-122.895" font-family="Times New Roman,serif" font-size="9.00">distancia projetil 10</text>
</g>
<!-- distancia projetil 10&#45;&gt;direita -->
<g id="edge69" class="edge"><title>distancia projetil 10&#45;&gt;direita</title>
<path fill="none" stroke="green" stroke-width="0.185834" d="M1809.78,-116.016C1798.75,-111.858 1784.74,-107.018 1771.89,-103.882 1611.06,-64.6183 1413.89,-44.8645 1332.63,-37.9176"/>
<polygon fill="green" stroke="green" stroke-width="0.185834" points="1332.66,-34.4078 1322.4,-37.0588 1332.07,-41.3832 1332.66,-34.4078"/>
</g>
<!-- distancia projetil 10&#45;&gt;pular -->
<g id="edge79" class="edge"><title>distancia projetil 10&#45;&gt;pular</title>
<path fill="none" stroke="red" stroke-width="0.220084" d="M1799.79,-116.09C1782.17,-111.737 1759.42,-106.684 1738.89,-103.882 1438.15,-62.8324 1353,-134.617 1056.89,-67.8823 1040.23,-64.1258 1022.57,-57.2039 1008.11,-50.6712"/>
<polygon fill="red" stroke="red" stroke-width="0.220084" points="1009.19,-47.3147 998.648,-46.2545 1006.23,-53.6572 1009.19,-47.3147"/>
</g>
<!-- distancia projetil 10&#45;&gt;atirar -->
<g id="edge8" class="edge"><title>distancia projetil 10&#45;&gt;atirar</title>
<path fill="none" stroke="green" stroke-width="0.476096" d="M1811.19,-116.094C1800,-111.685 1785.38,-106.573 1771.89,-103.882 1503.38,-50.317 1421.44,-138.457 1156.89,-67.8823 1144.33,-64.5298 1131.34,-58.6526 1120.25,-52.7817"/>
<polygon fill="green" stroke="green" stroke-width="0.476096" points="1121.87,-49.6803 1111.43,-47.9071 1118.49,-55.8071 1121.87,-49.6803"/>
</g>
<!-- distancia projetil 10&#45;&gt;release -->
<g id="edge60" class="edge"><title>distancia projetil 10&#45;&gt;release</title>
<path fill="none" stroke="red" stroke-width="0.194231" d="M1810.92,-116.049C1799.76,-111.682 1785.26,-106.629 1771.89,-103.882 1547.57,-57.7954 1478.24,-130.255 1257.89,-67.8823 1247.74,-65.008 1237.34,-60.3793 1227.99,-55.4885"/>
<polygon fill="red" stroke="red" stroke-width="0.194231" points="1229.49,-52.319 1219.04,-50.5658 1226.12,-58.4522 1229.49,-52.319"/>
</g>
<!-- distancia projetil 11 -->
<g id="node11" class="node"><title>distancia projetil 11</title>
<polygon fill="lightgray" stroke="black" points="1020.89,-134.095 932.893,-134.095 932.893,-116.095 1020.89,-116.095 1020.89,-134.095"/>
<text text-anchor="middle" x="976.893" y="-122.895" font-family="Times New Roman,serif" font-size="9.00">distancia projetil 11</text>
</g>
<!-- distancia projetil 11&#45;&gt;esquerda -->
<g id="edge82" class="edge"><title>distancia projetil 11&#45;&gt;esquerda</title>
<path fill="none" stroke="green" stroke-width="0.389801" stroke-dasharray="1,5" d="M962.864,-116.026C939.841,-102.784 893.272,-75.998 859.958,-56.8357"/>
<polygon fill="green" stroke="green" stroke-width="0.389801" points="861.357,-53.6028 850.943,-51.6507 857.866,-59.6706 861.357,-53.6028"/>
</g>
<!-- distancia projetil 11&#45;&gt;direita -->
<g id="edge50" class="edge"><title>distancia projetil 11&#45;&gt;direita</title>
<path fill="none" stroke="green" stroke-width="0.179851" d="M995.229,-116.047C1005.3,-111.898 1018.1,-107.056 1029.89,-103.882 1125.99,-78.0181 1159.31,-106.825 1250.89,-67.8823 1256.16,-65.6418 1261.38,-62.642 1266.28,-59.362"/>
<polygon fill="green" stroke="green" stroke-width="0.179851" points="1268.65,-61.9623 1274.69,-53.2586 1264.54,-56.2952 1268.65,-61.9623"/>
</g>
<!-- distancia projetil 11&#45;&gt;pular -->
<g id="edge20" class="edge"><title>distancia projetil 11&#45;&gt;pular</title>
<path fill="none" stroke="red" stroke-width="0.289064" d="M976.893,-115.868C976.893,-105.23 976.893,-86.0459 976.893,-69.0257"/>
<polygon fill="red" stroke="red" stroke-width="0.289064" points="980.393,-68.8035 976.893,-58.8036 973.393,-68.8036 980.393,-68.8035"/>
</g>
<!-- distancia projetil 11&#45;&gt;atirar -->
<g id="edge93" class="edge"><title>distancia projetil 11&#45;&gt;atirar</title>
<path fill="none" stroke="green" stroke-width="0.29158" d="M987.413,-115.868C1004.57,-102.449 1039.12,-75.4314 1063.57,-56.312"/>
<polygon fill="green" stroke="green" stroke-width="0.29158" points="1066.03,-58.8312 1071.75,-49.9138 1061.71,-53.3172 1066.03,-58.8312"/>
</g>
<!-- distancia projetil 11&#45;&gt;release -->
<g id="edge61" class="edge"><title>distancia projetil 11&#45;&gt;release</title>
<path fill="none" stroke="green" stroke-width="0.237986" d="M997.181,-116.053C1007.01,-112.234 1019.02,-107.685 1029.89,-103.882 1079.65,-86.4841 1095.13,-90.1684 1142.89,-67.8823 1149.62,-64.7447 1156.52,-60.8857 1163.01,-56.9275"/>
<polygon fill="green" stroke="green" stroke-width="0.237986" points="1164.97,-59.8309 1171.55,-51.5267 1161.22,-53.9153 1164.97,-59.8309"/>
</g>
<!-- distancia projetil 12 -->
<g id="node12" class="node"><title>distancia projetil 12</title>
<polygon fill="lightgray" stroke="black" points="1126.89,-134.095 1038.89,-134.095 1038.89,-116.095 1126.89,-116.095 1126.89,-134.095"/>
<text text-anchor="middle" x="1082.89" y="-122.895" font-family="Times New Roman,serif" font-size="9.00">distancia projetil 12</text>
</g>
<!-- distancia projetil 12&#45;&gt;esquerda -->
<g id="edge30" class="edge"><title>distancia projetil 12&#45;&gt;esquerda</title>
<path fill="none" stroke="red" stroke-width="0.558374" d="M1062.33,-116.011C1052.54,-112.225 1040.65,-107.716 1029.89,-103.882 972.662,-83.4956 905.891,-61.7157 863.754,-48.2143"/>
<polygon fill="red" stroke="red" stroke-width="0.558374" points="864.704,-44.8433 854.113,-45.1317 862.572,-51.5109 864.704,-44.8433"/>
</g>
<!-- distancia projetil 12&#45;&gt;direita -->
<g id="edge59" class="edge"><title>distancia projetil 12&#45;&gt;direita</title>
<path fill="none" stroke="green" stroke-width="0.752641" d="M1103.17,-116.029C1113,-112.205 1125.01,-107.658 1135.89,-103.882 1186.49,-86.3317 1203.22,-92.2812 1250.89,-67.8823 1255.99,-65.2739 1261.11,-62.0787 1265.97,-58.715"/>
<polygon fill="green" stroke="green" stroke-width="0.752641" points="1268.37,-61.2994 1274.37,-52.5688 1264.23,-55.6507 1268.37,-61.2994"/>
</g>
<!-- distancia projetil 12&#45;&gt;pular -->
<g id="edge91" class="edge"><title>distancia projetil 12&#45;&gt;pular</title>
<path fill="none" stroke="green" stroke-width="0.132758" d="M1073.11,-115.868C1057.41,-102.661 1026.05,-76.2823 1003.39,-57.2247"/>
<polygon fill="green" stroke="green" stroke-width="0.132758" points="1005.38,-54.3309 995.478,-50.5726 1000.88,-59.688 1005.38,-54.3309"/>
</g>
<!-- distancia projetil 12&#45;&gt;atirar -->
<g id="edge19" class="edge"><title>distancia projetil 12&#45;&gt;atirar</title>
<path fill="none" stroke="green" stroke-width="0.307346" d="M1083.63,-115.868C1084.59,-105.23 1086.31,-86.0459 1087.83,-69.0257"/>
<polygon fill="green" stroke="green" stroke-width="0.307346" points="1091.34,-69.0764 1088.75,-58.8036 1084.37,-68.4507 1091.34,-69.0764"/>
</g>
<!-- distancia projetil 12&#45;&gt;release -->
<g id="edge7" class="edge"><title>distancia projetil 12&#45;&gt;release</title>
<path fill="none" stroke="green" stroke-width="0.353406" d="M1093.23,-115.868C1109.31,-103.066 1140.94,-77.887 1164.67,-58.9971"/>
<polygon fill="green" stroke="green" stroke-width="0.353406" points="1167.05,-61.5748 1172.7,-52.6084 1162.69,-56.0981 1167.05,-61.5748"/>
</g>
<!-- distancia projetil 13 -->
<g id="node13" class="node"><title>distancia projetil 13</title>
<polygon fill="lightgray" stroke="black" points="1232.89,-134.095 1144.89,-134.095 1144.89,-116.095 1232.89,-116.095 1232.89,-134.095"/>
<text text-anchor="middle" x="1188.89" y="-122.895" font-family="Times New Roman,serif" font-size="9.00">distancia projetil 13</text>
</g>
<!-- distancia projetil 13&#45;&gt;esquerda -->
<g id="edge77" class="edge"><title>distancia projetil 13&#45;&gt;esquerda</title>
<path fill="none" stroke="red" stroke-width="0.356047" d="M1170.04,-115.954C1160.04,-111.881 1147.46,-107.138 1135.89,-103.882 1051.9,-80.2398 1027.95,-87.3588 942.893,-67.8823 916.549,-61.85 887.304,-53.9227 864.165,-47.3564"/>
<polygon fill="red" stroke="red" stroke-width="0.356047" points="864.9,-43.9263 854.323,-44.5413 862.975,-50.6564 864.9,-43.9263"/>
</g>
<!-- distancia projetil 13&#45;&gt;direita -->
<g id="edge46" class="edge"><title>distancia projetil 13&#45;&gt;direita</title>
<path fill="none" stroke="green" stroke-width="0.694741" d="M1198.67,-115.868C1213.83,-103.122 1243.57,-78.1067 1266,-59.245"/>
<polygon fill="green" stroke="green" stroke-width="0.694741" points="1268.49,-61.7238 1273.89,-52.6084 1263.98,-56.3667 1268.49,-61.7238"/>
</g>
<!-- distancia projetil 13&#45;&gt;pular -->
<g id="edge36" class="edge"><title>distancia projetil 13&#45;&gt;pular</title>
<path fill="none" stroke="red" stroke-width="0.458618" d="M1169.71,-116.026C1133.15,-100.652 1053.18,-67.0244 1008.57,-48.2635"/>
<polygon fill="red" stroke="red" stroke-width="0.458618" points="1009.93,-45.0372 999.354,-44.3869 1007.21,-51.4899 1009.93,-45.0372"/>
</g>
<!-- distancia projetil 13&#45;&gt;atirar -->
<g id="edge5" class="edge"><title>distancia projetil 13&#45;&gt;atirar</title>
<path fill="none" stroke="red" stroke-width="0.190828" d="M1179.85,-115.868C1165.56,-102.872 1137.26,-77.1211 1116.4,-58.1429"/>
<polygon fill="red" stroke="red" stroke-width="0.190828" points="1118.56,-55.382 1108.81,-51.2415 1113.85,-60.5599 1118.56,-55.382"/>
</g>
<!-- distancia projetil 13&#45;&gt;release -->
<g id="edge100" class="edge"><title>distancia projetil 13&#45;&gt;release</title>
<path fill="none" stroke="red" stroke-width="0.462162" d="M1189.45,-115.868C1190.1,-106.108 1191.24,-89.1554 1192.31,-73.2796"/>
<polygon fill="red" stroke="red" stroke-width="0.462162" points="1195.82,-73.3014 1193,-63.0889 1188.83,-72.8313 1195.82,-73.3014"/>
</g>
<!-- distancia projetil 14 -->
<g id="node14" class="node"><title>distancia projetil 14</title>
<polygon fill="lightgray" stroke="black" points="1338.89,-134.095 1250.89,-134.095 1250.89,-116.095 1338.89,-116.095 1338.89,-134.095"/>
<text text-anchor="middle" x="1294.89" y="-122.895" font-family="Times New Roman,serif" font-size="9.00">distancia projetil 14</text>
</g>
<!-- distancia projetil 14&#45;&gt;esquerda -->
<g id="edge18" class="edge"><title>distancia projetil 14&#45;&gt;esquerda</title>
<path fill="none" stroke="green" stroke-width="0.723757" d="M1277.09,-116.053C1266.97,-111.8 1253.94,-106.857 1241.89,-103.882 1111.95,-71.7946 1074.26,-93.5302 942.893,-67.8823 916.368,-62.7037 887.118,-54.8022 864.021,-48.036"/>
<polygon fill="green" stroke="green" stroke-width="0.723757" points="864.783,-44.6113 854.2,-45.1192 862.79,-51.3216 864.783,-44.6113"/>
</g>
<!-- distancia projetil 14&#45;&gt;direita -->
<g id="edge48" class="edge"><title>distancia projetil 14&#45;&gt;direita</title>
<path fill="none" stroke="red" stroke-width="0.23359" d="M1294.89,-115.868C1294.89,-105.896 1294.89,-88.4149 1294.89,-72.2459"/>
<polygon fill="red" stroke="red" stroke-width="0.23359" points="1298.39,-71.902 1294.89,-61.902 1291.39,-71.9021 1298.39,-71.902"/>
</g>
<!-- distancia projetil 14&#45;&gt;pular -->
<g id="edge57" class="edge"><title>distancia projetil 14&#45;&gt;pular</title>
<path fill="none" stroke="green" stroke-width="0.461861" d="M1276.03,-115.991C1266.02,-111.928 1253.44,-107.183 1241.89,-103.882 1161.35,-80.8725 1137.13,-91.9472 1056.89,-67.8823 1040.53,-62.9737 1022.91,-55.9235 1008.39,-49.604"/>
<polygon fill="green" stroke="green" stroke-width="0.461861" points="1009.44,-46.2414 998.877,-45.3811 1006.6,-52.6388 1009.44,-46.2414"/>
</g>
<!-- distancia projetil 14&#45;&gt;atirar -->
<g id="edge89" class="edge"><title>distancia projetil 14&#45;&gt;atirar</title>
<path fill="none" stroke="red" stroke-width="0.188123" d="M1273.64,-116.018C1246.35,-105.516 1197.67,-86.3305 1156.89,-67.8823 1145.34,-62.6562 1132.85,-56.5458 1121.88,-51.0166"/>
<polygon fill="red" stroke="red" stroke-width="0.188123" points="1123.19,-47.7562 1112.69,-46.344 1120.02,-53.996 1123.19,-47.7562"/>
</g>
<!-- distancia projetil 14&#45;&gt;release -->
<g id="edge101" class="edge"><title>distancia projetil 14&#45;&gt;release</title>
<path fill="none" stroke="green" stroke-width="0.192149" d="M1285.66,-115.868C1271.77,-103.483 1244.89,-79.5165 1223.97,-60.8651"/>
<polygon fill="green" stroke="green" stroke-width="0.192149" points="1226.08,-58.0545 1216.28,-54.0123 1221.42,-63.2795 1226.08,-58.0545"/>
</g>
<!-- distancia projetil 15 -->
<g id="node15" class="node"><title>distancia projetil 15</title>
<polygon fill="lightgray" stroke="black" points="163.893,-200.309 75.8926,-200.309 75.8926,-182.309 163.893,-182.309 163.893,-200.309"/>
<text text-anchor="middle" x="119.893" y="-189.109" font-family="Times New Roman,serif" font-size="9.00">distancia projetil 15</text>
</g>
<!-- distancia projetil 15&#45;&gt;esquerda -->
<g id="edge66" class="edge"><title>distancia projetil 15&#45;&gt;esquerda</title>
<path fill="none" stroke="green" stroke-width="0.302653" d="M75.8563,-184.835C51.7694,-179.343 23.8607,-168.343 8.89257,-146.309 -1.70302,-130.711 -3.86503,-117.767 8.89257,-103.882 61.1745,-46.9792 615.013,-36.9929 777.391,-35.2846"/>
<polygon fill="green" stroke="green" stroke-width="0.302653" points="777.546,-38.7833 787.511,-35.1836 777.476,-31.7836 777.546,-38.7833"/>
</g>
<!-- distancia projetil 15&#45;&gt;direita -->
<g id="edge35" class="edge"><title>distancia projetil 15&#45;&gt;direita</title>
<path fill="none" stroke="red" stroke-width="0.107567" d="M164.096,-190.205C458.654,-189.412 2126.7,-183.291 2162.89,-146.309 2176.08,-132.833 2175.69,-117.733 2162.89,-103.882 2105.86,-42.1447 1492.87,-35.6443 1332.9,-35.0016"/>
<polygon fill="red" stroke="red" stroke-width="0.107567" points="1332.61,-31.5007 1322.6,-34.966 1332.59,-38.5006 1332.61,-31.5007"/>
</g>
<!-- distancia projetil 15&#45;&gt;pular -->
<g id="edge3" class="edge"><title>distancia projetil 15&#45;&gt;pular</title>
<path fill="none" stroke="red" stroke-width="0.429799" stroke-dasharray="1,5" d="M119.332,-182.24C118.611,-164.722 119.686,-123.23 143.893,-103.882 208.109,-52.5552 802.208,-83.6397 882.893,-67.8823 904.229,-63.7152 927.279,-55.6966 945.214,-48.6143"/>
<polygon fill="red" stroke="red" stroke-width="0.429799" points="946.656,-51.8067 954.609,-44.8064 944.026,-45.3194 946.656,-51.8067"/>
</g>
<!-- distancia projetil 15&#45;&gt;atirar -->
<g id="edge75" class="edge"><title>distancia projetil 15&#45;&gt;atirar</title>
<path fill="none" stroke="red" stroke-width="0.192431" d="M125.625,-182.155C138.877,-164.081 173.676,-120.906 214.893,-103.882 378.552,-36.2864 838.01,-106.161 1010.89,-67.8823 1027.57,-64.1887 1045.23,-57.2738 1059.69,-50.7295"/>
<polygon fill="red" stroke="red" stroke-width="0.192431" points="1061.58,-53.7125 1069.15,-46.3022 1058.61,-47.3731 1061.58,-53.7125"/>
</g>
<!-- distancia projetil 15&#45;&gt;release -->
<g id="edge86" class="edge"><title>distancia projetil 15&#45;&gt;release</title>
<path fill="none" stroke="red" stroke-width="0.379512" d="M164.222,-190.111C443.791,-188.764 1952.04,-179.941 1984.89,-146.309 1998.07,-132.819 1997.89,-117.541 1984.89,-103.882 1929.14,-45.2966 1335.93,-89.1137 1257.89,-67.8823 1247.62,-65.0877 1237.12,-60.437 1227.71,-55.4981"/>
<polygon fill="red" stroke="red" stroke-width="0.379512" points="1229.16,-52.2986 1218.71,-50.5212 1225.77,-58.4241 1229.16,-52.2986"/>
</g>
<!-- 78 -->
<g id="node26" class="node"><title>78</title>
<ellipse fill="white" stroke="black" cx="35.8926" cy="-125.095" rx="18.2703" ry="18.2703"/>
<text text-anchor="middle" x="35.8926" y="-122.895" font-family="Times New Roman,serif" font-size="9.00">78</text>
</g>
<!-- distancia projetil 15&#45;&gt;78 -->
<g id="edge16" class="edge"><title>distancia projetil 15&#45;&gt;78</title>
<path fill="none" stroke="red" stroke-width="0.256447" d="M109.254,-182.176C96.472,-172.405 74.6867,-155.751 58.1681,-143.124"/>
<polygon fill="red" stroke="red" stroke-width="0.256447" points="60.1558,-140.238 50.0856,-136.945 55.9046,-145.799 60.1558,-140.238"/>
</g>
<!-- distancia projetil 16 -->
<g id="node16" class="node"><title>distancia projetil 16</title>
<polygon fill="lightgray" stroke="black" points="1943.89,-200.309 1855.89,-200.309 1855.89,-182.309 1943.89,-182.309 1943.89,-200.309"/>
<text text-anchor="middle" x="1899.89" y="-189.109" font-family="Times New Roman,serif" font-size="9.00">distancia projetil 16</text>
</g>
<!-- distancia projetil 16&#45;&gt;esquerda -->
<g id="edge10" class="edge"><title>distancia projetil 16&#45;&gt;esquerda</title>
<path fill="none" stroke="red" stroke-width="0.250999" d="M1855.75,-190.007C1591.72,-188.102 231.621,-176.818 201.893,-146.309 188.733,-132.804 189.318,-117.933 201.893,-103.882 240.3,-60.9672 642.92,-41.772 777.993,-36.5072"/>
<polygon fill="red" stroke="red" stroke-width="0.250999" points="778.136,-40.0044 787.994,-36.1239 777.867,-33.0095 778.136,-40.0044"/>
</g>
<!-- distancia projetil 16&#45;&gt;direita -->
<g id="edge42" class="edge"><title>distancia projetil 16&#45;&gt;direita</title>
<path fill="none" stroke="red" stroke-width="0.240453" stroke-dasharray="1,5" d="M1944.03,-190.984C2043.16,-191.141 2269.29,-183.114 2195.89,-103.882 2136.43,-39.6929 1496.3,-35.0239 1332.76,-34.8839"/>
<polygon fill="red" stroke="red" stroke-width="0.240453" points="1332.69,-31.384 1322.69,-34.8807 1332.69,-38.384 1332.69,-31.384"/>
</g>
<!-- distancia projetil 16&#45;&gt;pular -->
<g id="edge74" class="edge"><title>distancia projetil 16&#45;&gt;pular</title>
<path fill="none" stroke="green" stroke-width="0.248539" d="M1855.67,-189.998C1592.62,-188.045 244.375,-176.571 214.893,-146.309 201.734,-132.802 201.923,-117.57 214.893,-103.882 266.018,-49.9274 809.978,-82.3179 882.893,-67.8823 904.219,-63.6601 927.268,-55.6405 945.206,-48.5715"/>
<polygon fill="green" stroke="green" stroke-width="0.248539" points="946.643,-51.7657 954.602,-44.7722 944.019,-45.2762 946.643,-51.7657"/>
</g>
<!-- distancia projetil 16&#45;&gt;atirar -->
<g id="edge2" class="edge"><title>distancia projetil 16&#45;&gt;atirar</title>
<path fill="none" stroke="red" stroke-width="0.164078" d="M1863.25,-182.306C1837.56,-175.524 1803.24,-164.025 1776.89,-146.309 1755.89,-132.184 1761.67,-114.917 1738.89,-103.882 1622.27,-47.3934 1282.04,-101.49 1156.89,-67.8823 1144.33,-64.509 1131.35,-58.6275 1120.26,-52.759"/>
<polygon fill="red" stroke="red" stroke-width="0.164078" points="1121.88,-49.6575 1111.43,-47.8878 1118.5,-55.7854 1121.88,-49.6575"/>
</g>
<!-- distancia projetil 16&#45;&gt;release -->
<g id="edge34" class="edge"><title>distancia projetil 16&#45;&gt;release</title>
<path fill="none" stroke="green" stroke-width="0.123798" d="M1943.95,-186.139C1970.11,-181.137 2001.31,-170.194 2017.89,-146.309 2028.65,-130.82 2030.91,-117.527 2017.89,-103.882 1959.55,-42.7062 1339.49,-89.9876 1257.89,-67.8823 1247.62,-65.0987 1237.12,-60.4516 1227.7,-55.5126"/>
<polygon fill="green" stroke="green" stroke-width="0.123798" points="1229.15,-52.3132 1218.71,-50.5346 1225.76,-58.4382 1229.15,-52.3132"/>
</g>
<!-- 148 -->
<g id="node27" class="node"><title>148</title>
<ellipse fill="white" stroke="black" cx="2268.89" cy="-125.095" rx="21.4286" ry="21.4286"/>
<text text-anchor="middle" x="2268.89" y="-122.895" font-family="Times New Roman,serif" font-size="9.00">148</text>
</g>
<!-- distancia projetil 16&#45;&gt;148 -->
<g id="edge15" class="edge"><title>distancia projetil 16&#45;&gt;148</title>
<path fill="none" stroke="green" stroke-width="0.208765" d="M1944.1,-189.935C2009.23,-188.183 2134.07,-180.206 2233.89,-146.309 2236.85,-145.303 2239.84,-144.035 2242.76,-142.627"/>
<polygon fill="green" stroke="green" stroke-width="0.208765" points="2244.59,-145.621 2251.73,-137.798 2241.27,-139.458 2244.59,-145.621"/>
</g>
<!-- distancia inimigo 1 -->
<g id="node17" class="node"><title>distancia inimigo 1</title>
<polygon fill="lightgray" stroke="black" points="1440.39,-134.095 1357.39,-134.095 1357.39,-116.095 1440.39,-116.095 1440.39,-134.095"/>
<text text-anchor="middle" x="1398.89" y="-122.895" font-family="Times New Roman,serif" font-size="9.00">distancia inimigo 1</text>
</g>
<!-- distancia inimigo 1&#45;&gt;esquerda -->
<g id="edge29" class="edge"><title>distancia inimigo 1&#45;&gt;esquerda</title>
<path fill="none" stroke="green" stroke-width="0.100342" d="M1381.83,-115.896C1372.11,-111.593 1359.57,-106.653 1347.89,-103.882 1172.07,-62.1568 1120.77,-99.7416 942.893,-67.8823 916.197,-63.101 886.832,-55.1733 863.716,-48.2933"/>
<polygon fill="green" stroke="green" stroke-width="0.100342" points="864.479,-44.8673 853.894,-45.3214 862.452,-51.5674 864.479,-44.8673"/>
</g>
<!-- distancia inimigo 1&#45;&gt;direita -->
<g id="edge80" class="edge"><title>distancia inimigo 1&#45;&gt;direita</title>
<path fill="none" stroke="red" stroke-width="0.234451" d="M1389.29,-115.868C1374.43,-103.122 1345.25,-78.1067 1323.24,-59.245"/>
<polygon fill="red" stroke="red" stroke-width="0.234451" points="1325.37,-56.4596 1315.5,-52.6084 1320.82,-61.7741 1325.37,-56.4596"/>
</g>
<!-- distancia inimigo 1&#45;&gt;pular -->
<g id="edge90" class="edge"><title>distancia inimigo 1&#45;&gt;pular</title>
<path fill="none" stroke="red" stroke-width="0.298618" d="M1381.79,-116.051C1372.06,-111.797 1359.52,-106.854 1347.89,-103.882 1221.63,-71.6135 1182.94,-100.987 1056.89,-67.8823 1040.37,-63.542 1022.73,-56.5551 1008.24,-50.1305"/>
<polygon fill="red" stroke="red" stroke-width="0.298618" points="1009.31,-46.7718 998.756,-45.8119 1006.41,-53.1421 1009.31,-46.7718"/>
</g>
<!-- distancia inimigo 1&#45;&gt;atirar -->
<g id="edge58" class="edge"><title>distancia inimigo 1&#45;&gt;atirar</title>
<path fill="none" stroke="red" stroke-width="0.129405" d="M1380.77,-115.935C1371.16,-111.856 1359.05,-107.114 1347.89,-103.882 1264.92,-79.8586 1238.76,-95.4338 1156.89,-67.8823 1144.66,-63.7659 1131.83,-57.7853 1120.77,-52.0462"/>
<polygon fill="red" stroke="red" stroke-width="0.129405" points="1122.41,-48.9571 1111.95,-47.3285 1119.11,-55.1302 1122.41,-48.9571"/>
</g>
<!-- distancia inimigo 1&#45;&gt;release -->
<g id="edge31" class="edge"><title>distancia inimigo 1&#45;&gt;release</title>
<path fill="none" stroke="green" stroke-width="0.178762" d="M1378.6,-116.036C1340.27,-100.81 1260.8,-69.2159 1257.89,-67.8823 1248.39,-63.5163 1238.27,-58.4308 1228.99,-53.5807"/>
<polygon fill="green" stroke="green" stroke-width="0.178762" points="1230.52,-50.4287 1220.04,-48.8444 1227.24,-56.6157 1230.52,-50.4287"/>
</g>
<!-- distancia inimigo 2 -->
<g id="node18" class="node"><title>distancia inimigo 2</title>
<polygon fill="lightgray" stroke="black" points="1541.39,-134.095 1458.39,-134.095 1458.39,-116.095 1541.39,-116.095 1541.39,-134.095"/>
<text text-anchor="middle" x="1499.89" y="-122.895" font-family="Times New Roman,serif" font-size="9.00">distancia inimigo 2</text>
</g>
<!-- distancia inimigo 2&#45;&gt;esquerda -->
<g id="edge76" class="edge"><title>distancia inimigo 2&#45;&gt;esquerda</title>
<path fill="none" stroke="green" stroke-width="0.285515" d="M1483.65,-116.016C1474.07,-111.639 1461.57,-106.586 1449.89,-103.882 1229.81,-52.925 1165.6,-105.732 942.893,-67.8823 916.156,-63.3383 886.79,-55.4171 863.684,-48.481"/>
<polygon fill="green" stroke="green" stroke-width="0.285515" points="864.452,-45.0561 853.866,-45.4807 862.406,-51.7505 864.452,-45.0561"/>
</g>
<!-- distancia inimigo 2&#45;&gt;direita -->
<g id="edge4" class="edge"><title>distancia inimigo 2&#45;&gt;direita</title>
<path fill="none" stroke="green" stroke-width="0.502907" d="M1481.34,-116.026C1446.98,-101.083 1372.96,-68.8943 1329.23,-49.8746"/>
<polygon fill="green" stroke="green" stroke-width="0.502907" points="1330.42,-46.5769 1319.86,-45.7983 1327.63,-52.9962 1330.42,-46.5769"/>
</g>
<!-- distancia inimigo 2&#45;&gt;pular -->
<g id="edge11" class="edge"><title>distancia inimigo 2&#45;&gt;pular</title>
<path fill="none" stroke="green" stroke-width="0.174908" d="M1483.18,-115.902C1473.65,-111.601 1461.36,-106.661 1449.89,-103.882 1279.43,-62.571 1227.22,-109.741 1056.89,-67.8823 1040.3,-63.8048 1022.66,-56.8471 1008.18,-50.3739"/>
<polygon fill="green" stroke="green" stroke-width="0.174908" points="1009.25,-47.0164 998.706,-46.0111 1006.32,-53.3742 1009.25,-47.0164"/>
</g>
<!-- distancia inimigo 2&#45;&gt;atirar -->
<g id="edge45" class="edge"><title>distancia inimigo 2&#45;&gt;atirar</title>
<path fill="none" stroke="green" stroke-width="0.368766" d="M1483.14,-116.038C1473.6,-111.781 1461.31,-106.838 1449.89,-103.882 1322.87,-71.0139 1282.52,-105.726 1156.89,-67.8823 1144.53,-64.1596 1131.68,-58.2627 1120.63,-52.4805"/>
<polygon fill="green" stroke="green" stroke-width="0.368766" points="1122.29,-49.3962 1111.83,-47.7006 1118.95,-55.548 1122.29,-49.3962"/>
</g>
<!-- distancia inimigo 2&#45;&gt;release -->
<g id="edge98" class="edge"><title>distancia inimigo 2&#45;&gt;release</title>
<path fill="none" stroke="red" stroke-width="0.379198" d="M1482.15,-115.916C1472.72,-111.832 1460.86,-107.091 1449.89,-103.882 1366.57,-79.4919 1339.93,-96.3083 1257.89,-67.8823 1247.92,-64.4271 1237.58,-59.6055 1228.24,-54.7155"/>
<polygon fill="red" stroke="red" stroke-width="0.379198" points="1229.73,-51.5429 1219.27,-49.8509 1226.39,-57.6958 1229.73,-51.5429"/>
</g>
<!-- direcao sprites 1 -->
<g id="node19" class="node"><title>direcao sprites 1</title>
<polygon fill="lightgray" stroke="black" points="1635.89,-134.095 1559.89,-134.095 1559.89,-116.095 1635.89,-116.095 1635.89,-134.095"/>
<text text-anchor="middle" x="1597.89" y="-122.895" font-family="Times New Roman,serif" font-size="9.00">direcao sprites 1</text>
</g>
<!-- direcao sprites 1&#45;&gt;esquerda -->
<g id="edge17" class="edge"><title>direcao sprites 1&#45;&gt;esquerda</title>
<path fill="none" stroke="red" stroke-width="0.164563" d="M1582.69,-115.955C1573.71,-111.557 1561.96,-106.504 1550.89,-103.882 1287.49,-41.4719 1210.02,-111.669 942.893,-67.8823 916.13,-63.4954 886.763,-55.5784 863.663,-48.6053"/>
<polygon fill="red" stroke="red" stroke-width="0.164563" points="864.435,-45.181 853.848,-45.5861 862.377,-51.8716 864.435,-45.181"/>
</g>
<!-- direcao sprites 1&#45;&gt;direita -->
<g id="edge87" class="edge"><title>direcao sprites 1&#45;&gt;direita</title>
<path fill="none" stroke="green" stroke-width="0.589489" d="M1580.72,-116.006C1571.92,-112.043 1560.96,-107.383 1550.89,-103.882 1474.38,-77.2816 1382.09,-54.6743 1331.87,-43.1404"/>
<polygon fill="green" stroke="green" stroke-width="0.589489" points="1332.34,-39.6579 1321.81,-40.8498 1330.78,-46.4831 1332.34,-39.6579"/>
</g>
<!-- direcao sprites 1&#45;&gt;pular -->
<g id="edge56" class="edge"><title>direcao sprites 1&#45;&gt;pular</title>
<path fill="none" stroke="green" stroke-width="0.258591" d="M1582.68,-116.011C1573.69,-111.632 1561.94,-106.579 1550.89,-103.882 1337.04,-51.6724 1271.15,-118.428 1056.89,-67.8823 1040.26,-63.9593 1022.62,-57.0188 1008.14,-50.517"/>
<polygon fill="green" stroke="green" stroke-width="0.258591" points="1009.22,-47.16 998.677,-46.1282 1006.28,-53.5104 1009.22,-47.16"/>
</g>
<!-- direcao sprites 1&#45;&gt;atirar -->
<g id="edge28" class="edge"><title>direcao sprites 1&#45;&gt;atirar</title>
<path fill="none" stroke="red" stroke-width="0.520588" d="M1582.66,-116.087C1573.66,-111.733 1561.91,-106.68 1550.89,-103.882 1380.46,-60.6109 1326.03,-115.974 1156.89,-67.8823 1144.38,-64.3251 1131.41,-58.4056 1120.31,-52.5582"/>
<polygon fill="red" stroke="red" stroke-width="0.520588" points="1121.93,-49.4553 1111.48,-47.7167 1118.57,-55.5933 1121.93,-49.4553"/>
</g>
<!-- direcao sprites 1&#45;&gt;release -->
<g id="edge99" class="edge"><title>direcao sprites 1&#45;&gt;release</title>
<path fill="none" stroke="green" stroke-width="0.164125" d="M1582.2,-116.013C1573.25,-111.747 1561.7,-106.805 1550.89,-103.882 1424.24,-69.6201 1383.16,-106.908 1257.89,-67.8823 1247.82,-64.7434 1237.44,-60.0267 1228.1,-55.1363"/>
<polygon fill="green" stroke="green" stroke-width="0.164125" points="1229.59,-51.9656 1219.14,-50.2401 1226.24,-58.1078 1229.59,-51.9656"/>
</g>
<!-- direcao sprites 2 -->
<g id="node20" class="node"><title>direcao sprites 2</title>
<polygon fill="lightgray" stroke="black" points="1729.89,-134.095 1653.89,-134.095 1653.89,-116.095 1729.89,-116.095 1729.89,-134.095"/>
<text text-anchor="middle" x="1691.89" y="-122.895" font-family="Times New Roman,serif" font-size="9.00">direcao sprites 2</text>
</g>
<!-- direcao sprites 2&#45;&gt;esquerda -->
<g id="edge65" class="edge"><title>direcao sprites 2&#45;&gt;esquerda</title>
<path fill="none" stroke="red" stroke-width="0.391212" d="M1676.7,-115.922C1667.72,-111.513 1655.97,-106.46 1644.89,-103.882 1340.62,-33.0564 1251.39,-117.198 942.893,-67.8823 916.113,-63.6012 886.745,-55.687 863.649,-48.6889"/>
<polygon fill="red" stroke="red" stroke-width="0.391212" points="864.424,-45.2652 853.837,-45.6571 862.358,-51.9532 864.424,-45.2652"/>
</g>
<!-- direcao sprites 2&#45;&gt;direita -->
<g id="edge97" class="edge"><title>direcao sprites 2&#45;&gt;direita</title>
<path fill="none" stroke="green" stroke-width="0.599694" d="M1675.25,-115.914C1666.4,-111.829 1655.24,-107.088 1644.89,-103.882 1533.65,-69.433 1397,-48.3966 1332.28,-39.6546"/>
<polygon fill="green" stroke="green" stroke-width="0.599694" points="1332.53,-36.1572 1322.16,-38.3087 1331.61,-43.0962 1332.53,-36.1572"/>
</g>
<!-- direcao sprites 2&#45;&gt;pular -->
<g id="edge27" class="edge"><title>direcao sprites 2&#45;&gt;pular</title>
<path fill="none" stroke="green" stroke-width="0.239156" d="M1676.69,-115.963C1667.7,-111.568 1655.95,-106.515 1644.89,-103.882 1390.18,-43.262 1312.06,-126.52 1056.89,-67.8823 1040.24,-64.0558 1022.59,-57.126 1008.12,-50.6063"/>
<polygon fill="green" stroke="green" stroke-width="0.239156" points="1009.2,-47.2497 998.66,-46.2014 1006.25,-53.5955 1009.2,-47.2497"/>
</g>
<!-- direcao sprites 2&#45;&gt;atirar -->
<g id="edge55" class="edge"><title>direcao sprites 2&#45;&gt;atirar</title>
<path fill="none" stroke="green" stroke-width="0.179178" d="M1676.68,-116.015C1667.69,-111.637 1655.94,-106.584 1644.89,-103.882 1433.64,-52.209 1366.59,-125.531 1156.89,-67.8823 1144.35,-64.4346 1131.37,-58.5377 1120.28,-52.6777"/>
<polygon fill="green" stroke="green" stroke-width="0.179178" points="1121.9,-49.5757 1111.45,-47.8185 1118.52,-55.7077 1121.9,-49.5757"/>
</g>
<!-- direcao sprites 2&#45;&gt;release -->
<g id="edge43" class="edge"><title>direcao sprites 2&#45;&gt;release</title>
<path fill="none" stroke="red" stroke-width="0.237183" d="M1676.66,-116.094C1667.66,-111.742 1655.91,-106.689 1644.89,-103.882 1477.5,-61.2361 1423.56,-116.826 1257.89,-67.8823 1247.77,-64.8923 1237.38,-60.2251 1228.04,-55.3345"/>
<polygon fill="red" stroke="red" stroke-width="0.237183" points="1229.54,-52.1645 1219.08,-50.4233 1226.17,-58.3017 1229.54,-52.1645"/>
</g>
<!-- esquerda&#45;&gt;esquerda -->
<g id="edge88" class="edge"><title>esquerda&#45;&gt;esquerda</title>
<path fill="none" stroke="green" stroke-width="0.217522" d="M851.522,-50.6915C863.625,-51.7414 873.834,-46.1579 873.834,-33.9411 873.834,-25.3512 868.787,-20.0407 861.583,-18.0096"/>
<polygon fill="green" stroke="green" stroke-width="0.217522" points="861.773,-14.5136 851.522,-17.1908 861.205,-21.4905 861.773,-14.5136"/>
</g>
<!-- direita&#45;&gt;direita -->
<g id="edge12" class="edge"><title>direita&#45;&gt;direita</title>
<path fill="none" stroke="green" stroke-width="0.610372" d="M1317.4,-50.1199C1329.47,-52.8692 1340.47,-47.4763 1340.47,-33.9411 1340.47,-24.4242 1335.03,-18.9327 1327.61,-17.4666"/>
<polygon fill="green" stroke="green" stroke-width="0.610372" points="1327.3,-13.9741 1317.4,-17.7624 1327.5,-20.9711 1327.3,-13.9741"/>
</g>
<!-- atirar&#45;&gt;atirar -->
<g id="edge81" class="edge"><title>atirar&#45;&gt;atirar</title>
<path fill="none" stroke="green" stroke-width="0.155963" d="M1110.24,-49.6255C1122.23,-53.4075 1133.64,-48.1794 1133.64,-33.9411 1133.64,-23.8186 1127.87,-18.2501 1120.23,-17.2356"/>
<polygon fill="green" stroke="green" stroke-width="0.155963" points="1119.83,-13.7582 1110.24,-18.2568 1120.54,-20.7219 1119.83,-13.7582"/>
</g>
<!-- release&#45;&gt;release -->
<g id="edge83" class="edge"><title>release&#45;&gt;release</title>
<path fill="none" stroke="green" stroke-width="0.284779" d="M1219.07,-50.3176C1231.13,-52.5836 1241.88,-47.1247 1241.88,-33.9411 1241.88,-24.6714 1236.57,-19.2207 1229.22,-17.589"/>
<polygon fill="green" stroke="green" stroke-width="0.284779" points="1229.08,-14.0888 1219.07,-17.5646 1229.06,-21.0887 1229.08,-14.0888"/>
</g>
<!-- 78&#45;&gt;esquerda -->
<g id="edge95" class="edge"><title>78&#45;&gt;esquerda</title>
<path fill="none" stroke="red" stroke-width="0.254519" d="M50.1271,-113.079C55.4264,-109.541 61.6703,-105.995 67.8926,-103.882 200.861,-58.7411 637.066,-40.9285 777.739,-36.2707"/>
<polygon fill="red" stroke="red" stroke-width="0.254519" points="777.854,-39.7689 787.735,-35.9455 777.627,-32.7726 777.854,-39.7689"/>
</g>
<!-- 148&#45;&gt;direita -->
<g id="edge41" class="edge"><title>148&#45;&gt;direita</title>
<path fill="none" stroke="red" stroke-width="0.267551" d="M2251.8,-112.175C2246.32,-108.925 2240.06,-105.781 2233.89,-103.882 2061.3,-50.7749 1487.17,-37.9847 1333.18,-35.4777"/>
<polygon fill="red" stroke="red" stroke-width="0.267551" points="1332.88,-31.9727 1322.83,-35.3146 1332.77,-38.9719 1332.88,-31.9727"/>
</g>
</g>
</svg>
