<?xml version="1.0" encoding="UTF-8" standalone="no"?>
<!DOCTYPE svg PUBLIC "-//W3C//DTD SVG 1.1//EN"
 "http://www.w3.org/Graphics/SVG/1.1/DTD/svg11.dtd">
<!-- Generated by graphviz version 2.38.0 (20140413.2041)
 -->
<!-- Title: %3 Pages: 1 -->
<svg width="2854pt" height="208pt"
 viewBox="0.00 0.00 2854.26 208.31" xmlns="http://www.w3.org/2000/svg" xmlns:xlink="http://www.w3.org/1999/xlink">
<g id="graph0" class="graph" transform="scale(1 1) rotate(0) translate(4 204.309)">
<title>%3</title>
<polygon fill="white" stroke="none" points="-4,4 -4,-204.309 2850.26,-204.309 2850.26,4 -4,4"/>
<!-- dintancia projetil 1 -->
<g id="node1" class="node"><title>dintancia projetil 1</title>
<polygon fill="lightgray" stroke="black" points="857.581,-134.095 773.581,-134.095 773.581,-116.095 857.581,-116.095 857.581,-134.095"/>
<text text-anchor="middle" x="815.581" y="-122.895" font-family="Times New Roman,serif" font-size="9.00">dintancia projetil 1</text>
</g>
<!-- esquerda -->
<g id="node21" class="node"><title>esquerda</title>
<ellipse fill="lightblue" stroke="black" cx="964.581" cy="-33.9411" rx="33.8824" ry="33.8824"/>
<text text-anchor="middle" x="964.581" y="-31.7411" font-family="Times New Roman,serif" font-size="9.00">esquerda</text>
</g>
<!-- dintancia projetil 1&#45;&gt;esquerda -->
<g id="edge1" class="edge"><title>dintancia projetil 1&#45;&gt;esquerda</title>
<path fill="none" stroke="green" stroke-width="0.325859" d="M832.965,-115.983C854.38,-105.741 891.605,-87.1236 921.581,-67.8823 924.351,-66.1043 927.167,-64.1967 929.966,-62.2283"/>
<polygon fill="green" stroke="green" stroke-width="0.325859" points="932.213,-64.9215 938.241,-56.2089 928.096,-59.2606 932.213,-64.9215"/>
</g>
<!-- direita -->
<g id="node22" class="node"><title>direita</title>
<ellipse fill="lightblue" stroke="black" cx="1464.58" cy="-33.9411" rx="27.6545" ry="27.6545"/>
<text text-anchor="middle" x="1464.58" y="-31.7411" font-family="Times New Roman,serif" font-size="9.00">direita</text>
</g>
<!-- dintancia projetil 1&#45;&gt;direita -->
<g id="edge31" class="edge"><title>dintancia projetil 1&#45;&gt;direita</title>
<path fill="none" stroke="red" stroke-width="0.179096" stroke-dasharray="1,5" d="M833.026,-116.022C842.953,-111.76 855.735,-106.817 867.581,-103.882 1074.52,-52.6136 1331.47,-39.2662 1426.74,-35.967"/>
<polygon fill="red" stroke="red" stroke-width="0.179096" points="1426.88,-39.4643 1436.76,-35.6369 1426.65,-32.4681 1426.88,-39.4643"/>
</g>
<!-- atirar -->
<g id="node24" class="node"><title>atirar</title>
<ellipse fill="lightblue" stroke="black" cx="869.581" cy="-33.9411" rx="25" ry="25"/>
<text text-anchor="middle" x="869.581" y="-31.7411" font-family="Times New Roman,serif" font-size="9.00">atirar</text>
</g>
<!-- dintancia projetil 1&#45;&gt;atirar -->
<g id="edge73" class="edge"><title>dintancia projetil 1&#45;&gt;atirar</title>
<path fill="none" stroke="red" stroke-width="0.33204" d="M820.565,-115.868C827.591,-104.268 840.771,-82.507 851.696,-64.4701"/>
<polygon fill="red" stroke="red" stroke-width="0.33204" points="854.972,-65.8175 857.159,-55.4509 848.984,-62.191 854.972,-65.8175"/>
</g>
<!-- distancia projetil 2 -->
<g id="node2" class="node"><title>distancia projetil 2</title>
<polygon fill="lightgray" stroke="black" points="2248.08,-134.095 2165.08,-134.095 2165.08,-116.095 2248.08,-116.095 2248.08,-134.095"/>
<text text-anchor="middle" x="2206.58" y="-122.895" font-family="Times New Roman,serif" font-size="9.00">distancia projetil 2</text>
</g>
<!-- distancia projetil 2&#45;&gt;direita -->
<g id="edge97" class="edge"><title>distancia projetil 2&#45;&gt;direita</title>
<path fill="none" stroke="green" stroke-width="0.2938" d="M2189.86,-115.937C2180.33,-111.647 2168.04,-106.706 2156.58,-103.882 1912.64,-43.7354 1608.02,-35.8186 1502.57,-34.9616"/>
<polygon fill="green" stroke="green" stroke-width="0.2938" points="1502.44,-31.4608 1492.42,-34.8965 1502.4,-38.4607 1502.44,-31.4608"/>
</g>
<!-- pular -->
<g id="node23" class="node"><title>pular</title>
<ellipse fill="lightblue" stroke="black" cx="2150.58" cy="-33.9411" rx="25" ry="25"/>
<text text-anchor="middle" x="2150.58" y="-31.7411" font-family="Times New Roman,serif" font-size="9.00">pular</text>
</g>
<!-- distancia projetil 2&#45;&gt;pular -->
<g id="edge40" class="edge"><title>distancia projetil 2&#45;&gt;pular</title>
<path fill="none" stroke="green" stroke-width="0.3552" d="M2201.41,-115.868C2194.06,-104.162 2180.21,-82.1069 2168.82,-63.9746"/>
<polygon fill="green" stroke="green" stroke-width="0.3552" points="2171.75,-62.0573 2163.46,-55.4509 2165.82,-65.7806 2171.75,-62.0573"/>
</g>
<!-- distancia projetil 2&#45;&gt;atirar -->
<g id="edge19" class="edge"><title>distancia projetil 2&#45;&gt;atirar</title>
<path fill="none" stroke="red" stroke-width="0.916632" d="M2190.82,-116.041C2181.2,-111.553 2168.49,-106.38 2156.58,-103.882 1887.86,-47.5447 1184.13,-148.209 921.581,-67.8823 913.061,-65.2755 904.575,-60.8726 897.005,-56.12"/>
<polygon fill="red" stroke="red" stroke-width="0.916632" points="898.843,-53.1389 888.591,-50.467 894.939,-58.9492 898.843,-53.1389"/>
</g>
<!-- release -->
<g id="node25" class="node"><title>release</title>
<ellipse fill="lightblue" stroke="black" cx="2060.58" cy="-33.9411" rx="28.9828" ry="28.9828"/>
<text text-anchor="middle" x="2060.58" y="-31.7411" font-family="Times New Roman,serif" font-size="9.00">release</text>
</g>
<!-- distancia projetil 2&#45;&gt;release -->
<g id="edge23" class="edge"><title>distancia projetil 2&#45;&gt;release</title>
<path fill="none" stroke="red" stroke-width="0.48354" d="M2193.37,-116.026C2171.07,-102.411 2125.33,-74.4802 2093.82,-55.2371"/>
<polygon fill="red" stroke="red" stroke-width="0.48354" points="2095.3,-52.0391 2084.94,-49.8145 2091.65,-58.0133 2095.3,-52.0391"/>
</g>
<!-- distancia projetil 3 -->
<g id="node3" class="node"><title>distancia projetil 3</title>
<polygon fill="lightgray" stroke="black" points="2147.08,-134.095 2064.08,-134.095 2064.08,-116.095 2147.08,-116.095 2147.08,-134.095"/>
<text text-anchor="middle" x="2105.58" y="-122.895" font-family="Times New Roman,serif" font-size="9.00">distancia projetil 3</text>
</g>
<!-- distancia projetil 3&#45;&gt;direita -->
<g id="edge14" class="edge"><title>distancia projetil 3&#45;&gt;direita</title>
<path fill="none" stroke="red" stroke-width="0.445531" d="M2088.49,-116.02C2078.75,-111.757 2066.22,-106.814 2054.58,-103.882 1850.69,-52.5063 1597.32,-39.2355 1502.62,-35.9616"/>
<polygon fill="red" stroke="red" stroke-width="0.445531" points="1502.5,-32.4558 1492.39,-35.626 1502.27,-39.4521 1502.5,-32.4558"/>
</g>
<!-- distancia projetil 3&#45;&gt;pular -->
<g id="edge89" class="edge"><title>distancia projetil 3&#45;&gt;pular</title>
<path fill="none" stroke="red" stroke-width="0.252048" stroke-dasharray="1,5" d="M2109.73,-115.868C2115.48,-104.488 2126.16,-83.3297 2135.16,-65.5014"/>
<polygon fill="red" stroke="red" stroke-width="0.252048" points="2138.29,-67.0557 2139.67,-56.5513 2132.04,-63.9015 2138.29,-67.0557"/>
</g>
<!-- distancia projetil 3&#45;&gt;atirar -->
<g id="edge51" class="edge"><title>distancia projetil 3&#45;&gt;atirar</title>
<path fill="none" stroke="green" stroke-width="0.181175" d="M2089.49,-116.054C2079.67,-111.57 2066.7,-106.397 2054.58,-103.882 1807.93,-52.7127 1162.37,-141.897 921.581,-67.8823 913.064,-65.2643 904.58,-60.8575 897.009,-56.1048"/>
<polygon fill="green" stroke="green" stroke-width="0.181175" points="898.848,-53.1237 888.595,-50.4531 894.945,-58.9345 898.848,-53.1237"/>
</g>
<!-- distancia projetil 3&#45;&gt;release -->
<g id="edge24" class="edge"><title>distancia projetil 3&#45;&gt;release</title>
<path fill="none" stroke="green" stroke-width="0.373243" d="M2101.43,-115.868C2096.1,-105.32 2086.54,-86.3708 2078,-69.4594"/>
<polygon fill="green" stroke="green" stroke-width="0.373243" points="2081.03,-67.6902 2073.4,-60.3401 2074.78,-70.8445 2081.03,-67.6902"/>
</g>
<!-- distancia projetil 4 -->
<g id="node4" class="node"><title>distancia projetil 4</title>
<polygon fill="lightgray" stroke="black" points="537.081,-200.309 454.081,-200.309 454.081,-182.309 537.081,-182.309 537.081,-200.309"/>
<text text-anchor="middle" x="495.581" y="-189.109" font-family="Times New Roman,serif" font-size="9.00">distancia projetil 4</text>
</g>
<!-- distancia projetil 4&#45;&gt;esquerda -->
<g id="edge100" class="edge"><title>distancia projetil 4&#45;&gt;esquerda</title>
<path fill="none" stroke="red" stroke-width="0.131504" d="M497.032,-182.164C500.653,-164.494 511.87,-122.716 539.581,-103.882 610.101,-55.9544 842.205,-99.0201 921.581,-67.8823 924.831,-66.6073 928.043,-65.0093 931.159,-63.2089"/>
<polygon fill="red" stroke="red" stroke-width="0.131504" points="933.162,-66.0817 939.641,-57.6987 929.348,-60.2116 933.162,-66.0817"/>
</g>
<!-- distancia projetil 4&#45;&gt;direita -->
<g id="edge21" class="edge"><title>distancia projetil 4&#45;&gt;direita</title>
<path fill="none" stroke="red" stroke-width="0.73334" d="M537.296,-188.584C705.676,-181.567 1327.15,-155.124 1345.58,-146.309 1368.42,-135.388 1365.46,-121.554 1383.58,-103.882 1400.02,-87.8542 1419.6,-71.1338 1435.39,-58.1739"/>
<polygon fill="red" stroke="red" stroke-width="0.73334" points="1437.71,-60.7908 1443.26,-51.7631 1433.3,-55.3622 1437.71,-60.7908"/>
</g>
<!-- distancia projetil 4&#45;&gt;pular -->
<g id="edge50" class="edge"><title>distancia projetil 4&#45;&gt;pular</title>
<path fill="none" stroke="red" stroke-width="0.64229" d="M537.461,-188.346C577.335,-186.54 639.036,-183.906 692.581,-182.309 745.04,-180.744 2544.83,-183.771 2581.58,-146.309 2594.79,-132.849 2593.82,-118.23 2581.58,-103.882 2530.57,-44.0597 2279.08,-35.9218 2185.63,-34.9855"/>
<polygon fill="red" stroke="red" stroke-width="0.64229" points="2185.58,-31.485 2175.55,-34.9067 2185.52,-38.4848 2185.58,-31.485"/>
</g>
<!-- distancia projetil 4&#45;&gt;atirar -->
<g id="edge88" class="edge"><title>distancia projetil 4&#45;&gt;atirar</title>
<path fill="none" stroke="red" stroke-width="0.380156" d="M454.008,-186.61C380.888,-179.681 235.542,-163.853 220.581,-146.309 208.346,-131.961 207.972,-117.902 220.581,-103.882 261.991,-57.8409 705.921,-40.1603 834.732,-35.9773"/>
<polygon fill="red" stroke="red" stroke-width="0.380156" points="834.949,-39.4722 844.833,-35.6562 834.727,-32.4758 834.949,-39.4722"/>
</g>
<!-- distancia projetil 4&#45;&gt;release -->
<g id="edge71" class="edge"><title>distancia projetil 4&#45;&gt;release</title>
<path fill="none" stroke="red" stroke-width="0.483788" d="M537.461,-188.367C577.336,-186.575 639.037,-183.951 692.581,-182.309 740.819,-180.829 2395.81,-180.786 2429.58,-146.309 2442.78,-132.838 2442.13,-117.957 2429.58,-103.882 2382.99,-51.6229 2182.97,-90.1135 2116.58,-67.8823 2108.36,-65.1278 2100.02,-61.0554 2092.38,-56.7055"/>
<polygon fill="red" stroke="red" stroke-width="0.483788" points="2094.15,-53.6884 2083.78,-51.534 2090.55,-59.6872 2094.15,-53.6884"/>
</g>
<!-- 193 -->
<g id="node26" class="node"><title>193</title>
<ellipse fill="white" stroke="black" cx="250.581" cy="-125.095" rx="21.4286" ry="21.4286"/>
<text text-anchor="middle" x="250.581" y="-122.895" font-family="Times New Roman,serif" font-size="9.00">193</text>
</g>
<!-- distancia projetil 4&#45;&gt;193 -->
<g id="edge63" class="edge"><title>distancia projetil 4&#45;&gt;193</title>
<path fill="none" stroke="red" stroke-width="0.146521" d="M453.746,-186.623C409.35,-181.609 337.845,-170.343 280.581,-146.309 278.989,-145.64 277.392,-144.882 275.811,-144.062"/>
<polygon fill="red" stroke="red" stroke-width="0.146521" points="277.44,-140.958 267.054,-138.863 273.867,-146.978 277.44,-140.958"/>
</g>
<!-- 334 -->
<g id="node29" class="node"><title>334</title>
<ellipse fill="white" stroke="black" cx="310.581" cy="-125.095" rx="21.4286" ry="21.4286"/>
<text text-anchor="middle" x="310.581" y="-122.895" font-family="Times New Roman,serif" font-size="9.00">334</text>
</g>
<!-- distancia projetil 4&#45;&gt;334 -->
<g id="edge107" class="edge"><title>distancia projetil 4&#45;&gt;334</title>
<path fill="none" stroke="green" stroke-width="0.158181" d="M459.283,-182.24C428.371,-174.766 383.129,-162.384 345.581,-146.309 342.86,-145.144 340.085,-143.814 337.348,-142.405"/>
<polygon fill="green" stroke="green" stroke-width="0.158181" points="338.77,-139.192 328.322,-137.435 335.394,-145.324 338.77,-139.192"/>
</g>
<!-- distancia projetil 5 -->
<g id="node5" class="node"><title>distancia projetil 5</title>
<polygon fill="lightgray" stroke="black" points="785.081,-200.309 702.081,-200.309 702.081,-182.309 785.081,-182.309 785.081,-200.309"/>
<text text-anchor="middle" x="743.581" y="-189.109" font-family="Times New Roman,serif" font-size="9.00">distancia projetil 5</text>
</g>
<!-- distancia projetil 5&#45;&gt;esquerda -->
<g id="edge38" class="edge"><title>distancia projetil 5&#45;&gt;esquerda</title>
<path fill="none" stroke="red" stroke-width="0.297024" d="M701.71,-186.649C651.226,-181.267 570.857,-169.273 552.581,-146.309 540.839,-131.554 539.912,-117.848 552.581,-103.882 607.939,-42.8613 844.932,-98.0961 921.581,-67.8823 924.829,-66.6019 928.04,-65.0002 931.155,-63.1972"/>
<polygon fill="red" stroke="red" stroke-width="0.297024" points="933.159,-66.0685 939.635,-57.6826 929.343,-60.2002 933.159,-66.0685"/>
</g>
<!-- distancia projetil 5&#45;&gt;direita -->
<g id="edge9" class="edge"><title>distancia projetil 5&#45;&gt;direita</title>
<path fill="none" stroke="green" stroke-width="0.642894" d="M785.398,-189.473C919.247,-186.52 1331.44,-175.152 1383.58,-146.309 1400.22,-137.105 1427.45,-96.3514 1445.69,-66.8026"/>
<polygon fill="green" stroke="green" stroke-width="0.642894" points="1448.81,-68.3982 1451.04,-58.0393 1442.84,-64.7507 1448.81,-68.3982"/>
</g>
<!-- distancia projetil 5&#45;&gt;pular -->
<g id="edge108" class="edge"><title>distancia projetil 5&#45;&gt;pular</title>
<path fill="none" stroke="green" stroke-width="0.190875" stroke-dasharray="1,5" d="M785.313,-189.374C1065.06,-183.105 2656.52,-147.393 2657.58,-146.309 2670.76,-132.823 2669.98,-118.085 2657.58,-103.882 2626.41,-68.1863 2294.92,-44.0975 2185.45,-37.0681"/>
<polygon fill="green" stroke="green" stroke-width="0.190875" points="2185.47,-33.5626 2175.27,-36.4228 2185.03,-40.5485 2185.47,-33.5626"/>
</g>
<!-- distancia projetil 5&#45;&gt;atirar -->
<g id="edge69" class="edge"><title>distancia projetil 5&#45;&gt;atirar</title>
<path fill="none" stroke="red" stroke-width="0.233201" stroke-dasharray="1,5" d="M701.865,-188.341C610.623,-183.611 399.754,-170.187 378.581,-146.309 366.071,-132.2 366.21,-118.112 378.581,-103.882 438.106,-35.4163 732.497,-32.9588 834.62,-34.2262"/>
<polygon fill="red" stroke="red" stroke-width="0.233201" points="834.671,-37.7272 844.72,-34.3719 834.772,-30.7279 834.671,-37.7272"/>
</g>
<!-- distancia projetil 5&#45;&gt;release -->
<g id="edge60" class="edge"><title>distancia projetil 5&#45;&gt;release</title>
<path fill="none" stroke="red" stroke-width="0.87185" d="M785.245,-189.343C1047.92,-183.245 2463.79,-150.199 2467.58,-146.309 2480.74,-132.806 2480.22,-117.879 2467.58,-103.882 2415.04,-45.6788 2191.08,-92.3212 2116.58,-67.8823 2108.34,-65.1785 2099.99,-61.1263 2092.35,-56.7799"/>
<polygon fill="red" stroke="red" stroke-width="0.87185" points="2094.13,-53.763 2083.76,-51.6056 2090.52,-59.7607 2094.13,-53.763"/>
</g>
<!-- 461 -->
<g id="node28" class="node"><title>461</title>
<ellipse fill="white" stroke="black" cx="408.581" cy="-125.095" rx="21.4286" ry="21.4286"/>
<text text-anchor="middle" x="408.581" y="-122.895" font-family="Times New Roman,serif" font-size="9.00">461</text>
</g>
<!-- distancia projetil 5&#45;&gt;461 -->
<g id="edge82" class="edge"><title>distancia projetil 5&#45;&gt;461</title>
<path fill="none" stroke="green" stroke-width="0.301649" d="M701.649,-189.115C642.55,-186.336 532.083,-177.086 443.581,-146.309 440.628,-145.282 437.642,-144 434.725,-142.583"/>
<polygon fill="green" stroke="green" stroke-width="0.301649" points="436.224,-139.415 425.762,-137.743 432.898,-145.574 436.224,-139.415"/>
</g>
<!-- distancia projetil 6 -->
<g id="node6" class="node"><title>distancia projetil 6</title>
<polygon fill="lightgray" stroke="black" points="959.081,-134.095 876.081,-134.095 876.081,-116.095 959.081,-116.095 959.081,-134.095"/>
<text text-anchor="middle" x="917.581" y="-122.895" font-family="Times New Roman,serif" font-size="9.00">distancia projetil 6</text>
</g>
<!-- distancia projetil 6&#45;&gt;esquerda -->
<g id="edge86" class="edge"><title>distancia projetil 6&#45;&gt;esquerda</title>
<path fill="none" stroke="red" stroke-width="0.515514" stroke-dasharray="1,5" d="M921.919,-115.868C927.048,-106.138 935.945,-89.2606 944.292,-73.4276"/>
<polygon fill="red" stroke="red" stroke-width="0.515514" points="947.543,-74.7662 949.11,-64.288 941.351,-71.5018 947.543,-74.7662"/>
</g>
<!-- distancia projetil 6&#45;&gt;direita -->
<g id="edge13" class="edge"><title>distancia projetil 6&#45;&gt;direita</title>
<path fill="none" stroke="green" stroke-width="0.160338" d="M935.168,-115.916C944.839,-111.729 957.161,-106.892 968.581,-103.882 1136.07,-59.7345 1343.27,-42.5472 1426.93,-37.0953"/>
<polygon fill="green" stroke="green" stroke-width="0.160338" points="1427.22,-40.5843 1436.98,-36.459 1426.78,-33.5983 1427.22,-40.5843"/>
</g>
<!-- distancia projetil 6&#45;&gt;atirar -->
<g id="edge48" class="edge"><title>distancia projetil 6&#45;&gt;atirar</title>
<path fill="none" stroke="red" stroke-width="0.293046" d="M913.152,-115.868C906.985,-104.415 895.486,-83.0563 885.849,-65.1568"/>
<polygon fill="red" stroke="red" stroke-width="0.293046" points="888.84,-63.3283 881.017,-56.1825 882.676,-66.6467 888.84,-63.3283"/>
</g>
<!-- distancia projetil 6&#45;&gt;release -->
<g id="edge61" class="edge"><title>distancia projetil 6&#45;&gt;release</title>
<path fill="none" stroke="red" stroke-width="0.455796" d="M934.159,-115.986C943.935,-111.598 956.685,-106.545 968.581,-103.882 981.714,-100.943 1827.96,-49.1444 2021.47,-37.3276"/>
<polygon fill="red" stroke="red" stroke-width="0.455796" points="2021.71,-40.8195 2031.48,-36.7165 2021.28,-33.8325 2021.71,-40.8195"/>
</g>
<!-- distancia projetil 7 -->
<g id="node7" class="node"><title>distancia projetil 7</title>
<polygon fill="lightgray" stroke="black" points="1633.08,-200.309 1550.08,-200.309 1550.08,-182.309 1633.08,-182.309 1633.08,-200.309"/>
<text text-anchor="middle" x="1591.58" y="-189.109" font-family="Times New Roman,serif" font-size="9.00">distancia projetil 7</text>
</g>
<!-- distancia projetil 7&#45;&gt;esquerda -->
<g id="edge30" class="edge"><title>distancia projetil 7&#45;&gt;esquerda</title>
<path fill="none" stroke="red" stroke-width="0.496771" d="M1549.83,-187.557C1525.06,-185.955 1493.03,-183.936 1464.58,-182.309 1425.7,-180.085 791.4,-174.542 764.581,-146.309 751.595,-132.637 752.832,-118.631 764.581,-103.882 809.188,-47.8896 856.798,-98.3459 921.581,-67.8823 924.741,-66.3966 927.888,-64.6491 930.96,-62.7468"/>
<polygon fill="red" stroke="red" stroke-width="0.496771" points="933.042,-65.5644 939.368,-57.0654 929.123,-59.7644 933.042,-65.5644"/>
</g>
<!-- distancia projetil 7&#45;&gt;direita -->
<g id="edge91" class="edge"><title>distancia projetil 7&#45;&gt;direita</title>
<path fill="none" stroke="green" stroke-width="0.211498" d="M1580.7,-182.275C1569.85,-173.963 1553.04,-160.265 1540.58,-146.309 1518.56,-121.646 1497.7,-90.2948 1483.43,-67.144"/>
<polygon fill="green" stroke="green" stroke-width="0.211498" points="1486.29,-65.1172 1478.1,-58.3929 1480.31,-68.7553 1486.29,-65.1172"/>
</g>
<!-- distancia projetil 7&#45;&gt;pular -->
<g id="edge67" class="edge"><title>distancia projetil 7&#45;&gt;pular</title>
<path fill="none" stroke="green" stroke-width="0.123615" d="M1633.2,-190.44C1844.89,-190.91 2793.89,-190.536 2836.58,-146.309 2849.68,-132.742 2849.23,-117.866 2836.58,-103.882 2792.51,-55.158 2319.45,-39.3002 2185.65,-35.7725"/>
<polygon fill="green" stroke="green" stroke-width="0.123615" points="2185.63,-32.2709 2175.55,-35.5127 2185.45,-39.2686 2185.63,-32.2709"/>
</g>
<!-- distancia projetil 7&#45;&gt;atirar -->
<g id="edge36" class="edge"><title>distancia projetil 7&#45;&gt;atirar</title>
<path fill="none" stroke="green" stroke-width="0.430052" d="M1549.83,-187.548C1525.06,-185.942 1493.03,-183.923 1464.58,-182.309 1424.98,-180.062 778.91,-175.052 751.581,-146.309 716.155,-109.048 791.224,-68.3088 837.239,-47.991"/>
<polygon fill="green" stroke="green" stroke-width="0.430052" points="838.767,-51.1439 846.567,-43.974 835.998,-44.7148 838.767,-51.1439"/>
</g>
<!-- distancia projetil 7&#45;&gt;release -->
<g id="edge46" class="edge"><title>distancia projetil 7&#45;&gt;release</title>
<path fill="none" stroke="red" stroke-width="0.253569" d="M1633.18,-190.116C1821.32,-189.047 2584.92,-182.485 2619.58,-146.309 2632.63,-132.693 2632.43,-117.683 2619.58,-103.882 2581.4,-62.8719 2170.08,-84.5257 2116.58,-67.8823 2108.3,-65.3056 2099.94,-61.3041 2092.29,-56.9665"/>
<polygon fill="red" stroke="red" stroke-width="0.253569" points="2094.07,-53.9499 2083.7,-51.7853 2090.46,-59.9451 2094.07,-53.9499"/>
</g>
<!-- 222 -->
<g id="node31" class="node"><title>222</title>
<ellipse fill="white" stroke="black" cx="2806.58" cy="-125.095" rx="21.4286" ry="21.4286"/>
<text text-anchor="middle" x="2806.58" y="-122.895" font-family="Times New Roman,serif" font-size="9.00">222</text>
</g>
<!-- distancia projetil 7&#45;&gt;222 -->
<g id="edge39" class="edge"><title>distancia projetil 7&#45;&gt;222</title>
<path fill="none" stroke="green" stroke-width="0.530958" d="M1633.11,-189.946C1829.54,-188.072 2660.53,-178.303 2771.58,-146.309 2774.59,-145.443 2777.61,-144.266 2780.54,-142.913"/>
<polygon fill="green" stroke="green" stroke-width="0.530958" points="2782.33,-145.926 2789.53,-138.153 2779.06,-139.74 2782.33,-145.926"/>
</g>
<!-- distancia projetil 8 -->
<g id="node8" class="node"><title>distancia projetil 8</title>
<polygon fill="lightgray" stroke="black" points="129.081,-200.309 46.0812,-200.309 46.0812,-182.309 129.081,-182.309 129.081,-200.309"/>
<text text-anchor="middle" x="87.5812" y="-189.109" font-family="Times New Roman,serif" font-size="9.00">distancia projetil 8</text>
</g>
<!-- distancia projetil 8&#45;&gt;esquerda -->
<g id="edge79" class="edge"><title>distancia projetil 8&#45;&gt;esquerda</title>
<path fill="none" stroke="red" stroke-width="0.558052" d="M95.4193,-182.15C113.399,-164.066 159.827,-120.874 208.581,-103.882 358.391,-51.6729 772.667,-122.591 921.581,-67.8823 925.051,-66.6074 928.47,-64.9472 931.771,-63.0502"/>
<polygon fill="red" stroke="red" stroke-width="0.558052" points="933.712,-65.9628 940.188,-57.5773 929.896,-60.0942 933.712,-65.9628"/>
</g>
<!-- distancia projetil 8&#45;&gt;direita -->
<g id="edge5" class="edge"><title>distancia projetil 8&#45;&gt;direita</title>
<path fill="none" stroke="red" stroke-width="0.376353" d="M129.236,-187.998C159.557,-186.341 201.609,-184.096 238.581,-182.309 330.117,-177.884 979.746,-185.51 1062.58,-146.309 1085.46,-135.48 1078.54,-116.323 1100.58,-103.882 1207.45,-43.5716 1357.21,-34.8649 1426.56,-34.3423"/>
<polygon fill="red" stroke="red" stroke-width="0.376353" points="1426.99,-37.8416 1436.99,-34.3221 1426.98,-30.8416 1426.99,-37.8416"/>
</g>
<!-- distancia projetil 8&#45;&gt;atirar -->
<g id="edge66" class="edge"><title>distancia projetil 8&#45;&gt;atirar</title>
<path fill="none" stroke="red" stroke-width="0.193358" d="M58.1186,-182.212C40.3852,-175.651 19.2398,-164.445 8.58125,-146.309 -0.972514,-130.052 -4.20892,-117.737 8.58125,-103.882 65.449,-42.279 680.005,-35.6946 834.498,-35.0143"/>
<polygon fill="red" stroke="red" stroke-width="0.193358" points="834.826,-38.5132 844.812,-34.9749 834.799,-31.5133 834.826,-38.5132"/>
</g>
<!-- distancia projetil 8&#45;&gt;release -->
<g id="edge106" class="edge"><title>distancia projetil 8&#45;&gt;release</title>
<path fill="none" stroke="red" stroke-width="0.152655" d="M129.224,-187.699C159.538,-185.898 201.588,-183.602 238.581,-182.309 297.443,-180.25 2317.29,-188.307 2358.58,-146.309 2371.8,-132.863 2370.89,-118.163 2358.58,-103.882 2323.08,-62.7058 2167.84,-85.9984 2116.58,-67.8823 2108.4,-64.9918 2100.08,-60.8651 2092.45,-56.5058"/>
<polygon fill="red" stroke="red" stroke-width="0.152655" points="2094.22,-53.4882 2083.85,-51.3417 2090.62,-59.4897 2094.22,-53.4882"/>
</g>
<!-- 267 -->
<g id="node27" class="node"><title>267</title>
<ellipse fill="white" stroke="black" cx="38.5812" cy="-125.095" rx="21.4286" ry="21.4286"/>
<text text-anchor="middle" x="38.5812" y="-122.895" font-family="Times New Roman,serif" font-size="9.00">267</text>
</g>
<!-- distancia projetil 8&#45;&gt;267 -->
<g id="edge64" class="edge"><title>distancia projetil 8&#45;&gt;267</title>
<path fill="none" stroke="red" stroke-width="0.144255" d="M81.3754,-182.176C75.3421,-174.27 65.87,-161.857 57.3694,-150.717"/>
<polygon fill="red" stroke="red" stroke-width="0.144255" points="59.9802,-148.369 51.1314,-142.542 54.4153,-152.615 59.9802,-148.369"/>
</g>
<!-- distancia projetil 9 -->
<g id="node9" class="node"><title>distancia projetil 9</title>
<polygon fill="lightgray" stroke="black" points="1455.08,-200.309 1372.08,-200.309 1372.08,-182.309 1455.08,-182.309 1455.08,-200.309"/>
<text text-anchor="middle" x="1413.58" y="-189.109" font-family="Times New Roman,serif" font-size="9.00">distancia projetil 9</text>
</g>
<!-- distancia projetil 9&#45;&gt;esquerda -->
<g id="edge99" class="edge"><title>distancia projetil 9&#45;&gt;esquerda</title>
<path fill="none" stroke="red" stroke-width="0.312782" d="M1371.94,-188.385C1225.52,-181.527 742.594,-158.055 731.581,-146.309 718.684,-132.553 719.553,-118.404 731.581,-103.882 786.407,-37.6931 843.121,-102.966 921.581,-67.8823 924.768,-66.4571 927.935,-64.7526 931.021,-62.8796"/>
<polygon fill="red" stroke="red" stroke-width="0.312782" points="933.081,-65.7129 939.452,-57.2474 929.192,-59.8923 933.081,-65.7129"/>
</g>
<!-- distancia projetil 9&#45;&gt;direita -->
<g id="edge62" class="edge"><title>distancia projetil 9&#45;&gt;direita</title>
<path fill="none" stroke="red" stroke-width="0.30577" d="M1426.32,-182.3C1437.33,-174.58 1452.54,-161.805 1459.58,-146.309 1470.15,-123.033 1471.14,-94.1289 1469.63,-71.6007"/>
<polygon fill="red" stroke="red" stroke-width="0.30577" points="1473.1,-71.0859 1468.75,-61.4247 1466.12,-71.6891 1473.1,-71.0859"/>
</g>
<!-- distancia projetil 9&#45;&gt;pular -->
<g id="edge49" class="edge"><title>distancia projetil 9&#45;&gt;pular</title>
<path fill="none" stroke="green" stroke-width="0.14745" d="M1455.36,-187.367C1480.36,-185.689 1512.78,-183.658 1541.58,-182.309 1605.65,-179.308 2650.94,-192.366 2695.58,-146.309 2708.71,-132.769 2708.05,-118.028 2695.58,-103.882 2661.68,-65.4203 2300.19,-42.93 2185.37,-36.7174"/>
<polygon fill="green" stroke="green" stroke-width="0.14745" points="2185.53,-33.2209 2175.36,-36.1831 2185.16,-40.211 2185.53,-33.2209"/>
</g>
<!-- distancia projetil 9&#45;&gt;atirar -->
<g id="edge20" class="edge"><title>distancia projetil 9&#45;&gt;atirar</title>
<path fill="none" stroke="red" stroke-width="0.330274" stroke-dasharray="1,5" d="M1371.97,-188.661C1215.13,-182.355 667.978,-159.446 655.581,-146.309 598.184,-85.4832 760.524,-51.7895 834.731,-39.9082"/>
<polygon fill="red" stroke="red" stroke-width="0.330274" points="835.66,-43.3061 845.004,-38.3128 834.585,-36.389 835.66,-43.3061"/>
</g>
<!-- distancia projetil 9&#45;&gt;release -->
<g id="edge70" class="edge"><title>distancia projetil 9&#45;&gt;release</title>
<path fill="none" stroke="red" stroke-width="0.370366" d="M1455.36,-187.417C1480.37,-185.756 1512.78,-183.726 1541.58,-182.309 1597.22,-179.571 2504.91,-186.397 2543.58,-146.309 2556.67,-132.738 2556.34,-117.764 2543.58,-103.882 2479.14,-33.7762 2207.33,-96.7426 2116.58,-67.8823 2108.31,-65.2532 2099.96,-61.2308 2092.32,-56.8896"/>
<polygon fill="red" stroke="red" stroke-width="0.370366" points="2094.09,-53.8729 2083.72,-51.7112 2090.48,-59.8691 2094.09,-53.8729"/>
</g>
<!-- 409 -->
<g id="node30" class="node"><title>409</title>
<ellipse fill="white" stroke="black" cx="582.581" cy="-125.095" rx="21.4286" ry="21.4286"/>
<text text-anchor="middle" x="582.581" y="-122.895" font-family="Times New Roman,serif" font-size="9.00">409</text>
</g>
<!-- distancia projetil 9&#45;&gt;409 -->
<g id="edge83" class="edge"><title>distancia projetil 9&#45;&gt;409</title>
<path fill="none" stroke="red" stroke-width="0.448017" d="M1371.87,-188.541C1213.16,-181.747 653.976,-157.149 617.581,-146.309 614.584,-145.416 611.57,-144.222 608.636,-142.858"/>
<polygon fill="red" stroke="red" stroke-width="0.448017" points="610.125,-139.686 599.652,-138.085 606.841,-145.867 610.125,-139.686"/>
</g>
<!-- distancia projetil 10 -->
<g id="node10" class="node"><title>distancia projetil 10</title>
<polygon fill="lightgray" stroke="black" points="1197.58,-134.095 1109.58,-134.095 1109.58,-116.095 1197.58,-116.095 1197.58,-134.095"/>
<text text-anchor="middle" x="1153.58" y="-122.895" font-family="Times New Roman,serif" font-size="9.00">distancia projetil 10</text>
</g>
<!-- distancia projetil 10&#45;&gt;esquerda -->
<g id="edge37" class="edge"><title>distancia projetil 10&#45;&gt;esquerda</title>
<path fill="none" stroke="red" stroke-width="0.786369" d="M1136.48,-116.026C1106.8,-102.029 1045.05,-72.9006 1004.22,-53.6373"/>
<polygon fill="red" stroke="red" stroke-width="0.786369" points="1005.62,-50.4281 995.079,-49.3272 1002.63,-56.7591 1005.62,-50.4281"/>
</g>
<!-- distancia projetil 10&#45;&gt;direita -->
<g id="edge68" class="edge"><title>distancia projetil 10&#45;&gt;direita</title>
<path fill="none" stroke="green" stroke-width="0.187961" d="M1173.29,-116.022C1183.19,-112.109 1195.43,-107.488 1206.58,-103.882 1284.58,-78.6607 1377.92,-55.3908 1428.19,-43.4089"/>
<polygon fill="green" stroke="green" stroke-width="0.187961" points="1429.02,-46.808 1437.95,-41.0962 1427.41,-39.9967 1429.02,-46.808"/>
</g>
<!-- distancia projetil 10&#45;&gt;pular -->
<g id="edge80" class="edge"><title>distancia projetil 10&#45;&gt;pular</title>
<path fill="none" stroke="green" stroke-width="0.386025" d="M1170.35,-116.092C1180.57,-111.622 1194.04,-106.45 1206.58,-103.882 1404.85,-63.2894 1930.54,-147.542 2116.58,-67.8823 2120.77,-66.0868 2124.75,-63.5216 2128.4,-60.6047"/>
<polygon fill="green" stroke="green" stroke-width="0.386025" points="2130.81,-63.1444 2135.84,-53.82 2126.09,-57.9721 2130.81,-63.1444"/>
</g>
<!-- distancia projetil 10&#45;&gt;atirar -->
<g id="edge7" class="edge"><title>distancia projetil 10&#45;&gt;atirar</title>
<path fill="none" stroke="red" stroke-width="0.612373" d="M1117.45,-116.023C1056.85,-102.382 939.561,-75.5092 921.581,-67.8823 913.379,-64.4027 905.003,-59.6955 897.438,-54.9295"/>
<polygon fill="red" stroke="red" stroke-width="0.612373" points="899.267,-51.9434 888.987,-49.3775 895.423,-57.7937 899.267,-51.9434"/>
</g>
<!-- distancia projetil 10&#45;&gt;release -->
<g id="edge58" class="edge"><title>distancia projetil 10&#45;&gt;release</title>
<path fill="none" stroke="red" stroke-width="0.532635" d="M1170.86,-116.075C1181.04,-111.717 1194.29,-106.663 1206.58,-103.882 1286.71,-85.7572 1864.55,-47.5721 2021.39,-37.4484"/>
<polygon fill="red" stroke="red" stroke-width="0.532635" points="2021.77,-40.9314 2031.52,-36.7956 2021.32,-33.9458 2021.77,-40.9314"/>
</g>
<!-- distancia projetil 11 -->
<g id="node11" class="node"><title>distancia projetil 11</title>
<polygon fill="lightgray" stroke="black" points="1303.58,-134.095 1215.58,-134.095 1215.58,-116.095 1303.58,-116.095 1303.58,-134.095"/>
<text text-anchor="middle" x="1259.58" y="-122.895" font-family="Times New Roman,serif" font-size="9.00">distancia projetil 11</text>
</g>
<!-- distancia projetil 11&#45;&gt;esquerda -->
<g id="edge85" class="edge"><title>distancia projetil 11&#45;&gt;esquerda</title>
<path fill="none" stroke="red" stroke-width="0.51938" d="M1239.6,-116.003C1229.73,-112.129 1217.61,-107.548 1206.58,-103.882 1137.5,-80.9167 1055.81,-58.6366 1007.2,-45.8813"/>
<polygon fill="red" stroke="red" stroke-width="0.51938" points="1007.9,-42.4482 997.344,-43.3072 1006.13,-49.221 1007.9,-42.4482"/>
</g>
<!-- distancia projetil 11&#45;&gt;direita -->
<g id="edge47" class="edge"><title>distancia projetil 11&#45;&gt;direita</title>
<path fill="none" stroke="red" stroke-width="0.178142" d="M1278.14,-116.026C1312.5,-101.083 1386.51,-68.8943 1430.24,-49.8746"/>
<polygon fill="red" stroke="red" stroke-width="0.178142" points="1431.84,-52.9962 1439.62,-45.7983 1429.05,-46.5769 1431.84,-52.9962"/>
</g>
<!-- distancia projetil 11&#45;&gt;pular -->
<g id="edge18" class="edge"><title>distancia projetil 11&#45;&gt;pular</title>
<path fill="none" stroke="green" stroke-width="0.415099" stroke-dasharray="1,5" d="M1303.86,-120.781C1359.22,-116.668 1456.89,-109.508 1540.58,-103.882 1668.54,-95.2813 1999.27,-119.709 2116.58,-67.8823 2120.56,-66.1261 2124.34,-63.6902 2127.84,-60.9301"/>
<polygon fill="green" stroke="green" stroke-width="0.415099" points="2130.37,-63.363 2135.46,-54.0692 2125.68,-58.1622 2130.37,-63.363"/>
</g>
<!-- distancia projetil 11&#45;&gt;atirar -->
<g id="edge98" class="edge"><title>distancia projetil 11&#45;&gt;atirar</title>
<path fill="none" stroke="red" stroke-width="0.258103" stroke-dasharray="1,5" d="M1241.77,-116.08C1231.65,-111.836 1218.62,-106.892 1206.58,-103.882 1082.72,-72.9141 1041.72,-111.081 921.581,-67.8823 913.197,-64.8675 904.758,-60.3224 897.19,-55.5636"/>
<polygon fill="red" stroke="red" stroke-width="0.258103" points="899.025,-52.5811 888.76,-49.9578 895.149,-58.4098 899.025,-52.5811"/>
</g>
<!-- distancia projetil 11&#45;&gt;release -->
<g id="edge57" class="edge"><title>distancia projetil 11&#45;&gt;release</title>
<path fill="none" stroke="red" stroke-width="0.623656" d="M1303.79,-119.175C1445.57,-103.395 1887.43,-54.213 2021.58,-39.2825"/>
<polygon fill="red" stroke="red" stroke-width="0.623656" points="2022.23,-42.731 2031.79,-38.1462 2021.46,-35.774 2022.23,-42.731"/>
</g>
<!-- distancia projetil 12 -->
<g id="node12" class="node"><title>distancia projetil 12</title>
<polygon fill="lightgray" stroke="black" points="1637.58,-134.095 1549.58,-134.095 1549.58,-116.095 1637.58,-116.095 1637.58,-134.095"/>
<text text-anchor="middle" x="1593.58" y="-122.895" font-family="Times New Roman,serif" font-size="9.00">distancia projetil 12</text>
</g>
<!-- distancia projetil 12&#45;&gt;esquerda -->
<g id="edge28" class="edge"><title>distancia projetil 12&#45;&gt;esquerda</title>
<path fill="none" stroke="red" stroke-width="0.192244" d="M1549.35,-117.826C1433.7,-101.433 1123.31,-57.44 1008.27,-41.1336"/>
<polygon fill="red" stroke="red" stroke-width="0.192244" points="1008.47,-37.6271 998.079,-39.689 1007.49,-44.5579 1008.47,-37.6271"/>
</g>
<!-- distancia projetil 12&#45;&gt;direita -->
<g id="edge56" class="edge"><title>distancia projetil 12&#45;&gt;direita</title>
<path fill="none" stroke="green" stroke-width="0.244887" d="M1581.68,-115.868C1562.32,-102.487 1523.39,-75.5859 1495.74,-56.4763"/>
<polygon fill="green" stroke="green" stroke-width="0.244887" points="1497.42,-53.3789 1487.2,-50.5726 1493.44,-59.1375 1497.42,-53.3789"/>
</g>
<!-- distancia projetil 12&#45;&gt;pular -->
<g id="edge96" class="edge"><title>distancia projetil 12&#45;&gt;pular</title>
<path fill="none" stroke="green" stroke-width="0.504628" d="M1610.86,-116.056C1621.03,-111.691 1634.28,-106.638 1646.58,-103.882 1748.8,-80.9817 2021.06,-110.883 2116.58,-67.8823 2120.54,-66.0983 2124.32,-63.646 2127.82,-60.8775"/>
<polygon fill="green" stroke="green" stroke-width="0.504628" points="2130.35,-63.3071 2135.43,-54.0098 2125.66,-58.1096 2130.35,-63.3071"/>
</g>
<!-- distancia projetil 12&#45;&gt;atirar -->
<g id="edge17" class="edge"><title>distancia projetil 12&#45;&gt;atirar</title>
<path fill="none" stroke="red" stroke-width="0.204779" d="M1549.43,-120.985C1404.59,-110.702 951.39,-77.8952 921.581,-67.8823 913.135,-65.0451 904.675,-60.5619 897.105,-55.8058"/>
<polygon fill="red" stroke="red" stroke-width="0.204779" points="898.943,-52.824 888.683,-50.1794 895.054,-58.6447 898.943,-52.824"/>
</g>
<!-- distancia projetil 12&#45;&gt;release -->
<g id="edge6" class="edge"><title>distancia projetil 12&#45;&gt;release</title>
<path fill="none" stroke="red" stroke-width="0.190398" d="M1611.92,-116.063C1621.99,-111.919 1634.8,-107.077 1646.58,-103.882 1781.82,-67.2282 1947.48,-46.7413 2021.55,-38.8147"/>
<polygon fill="red" stroke="red" stroke-width="0.190398" points="2022.22,-42.2634 2031.8,-37.7359 2021.49,-35.3019 2022.22,-42.2634"/>
</g>
<!-- distancia projetil 13 -->
<g id="node13" class="node"><title>distancia projetil 13</title>
<polygon fill="lightgray" stroke="black" points="1743.58,-134.095 1655.58,-134.095 1655.58,-116.095 1743.58,-116.095 1743.58,-134.095"/>
<text text-anchor="middle" x="1699.58" y="-122.895" font-family="Times New Roman,serif" font-size="9.00">distancia projetil 13</text>
</g>
<!-- distancia projetil 13&#45;&gt;esquerda -->
<g id="edge78" class="edge"><title>distancia projetil 13&#45;&gt;esquerda</title>
<path fill="none" stroke="red" stroke-width="0.158517" d="M1681.8,-115.964C1671.68,-111.683 1658.66,-106.742 1646.58,-103.882 1524.25,-74.9097 1139.31,-46.8017 1008.55,-37.8653"/>
<polygon fill="red" stroke="red" stroke-width="0.158517" points="1008.71,-34.3682 998.495,-37.1818 1008.23,-41.3521 1008.71,-34.3682"/>
</g>
<!-- distancia projetil 13&#45;&gt;direita -->
<g id="edge44" class="edge"><title>distancia projetil 13&#45;&gt;direita</title>
<path fill="none" stroke="red" stroke-width="0.19518" d="M1678.44,-116.019C1668.73,-112.316 1657.08,-107.871 1646.58,-103.882 1595.63,-84.515 1536.61,-62.178 1499.94,-48.3061"/>
<polygon fill="red" stroke="red" stroke-width="0.19518" points="1500.8,-44.891 1490.21,-44.6275 1498.32,-51.4385 1500.8,-44.891"/>
</g>
<!-- distancia projetil 13&#45;&gt;pular -->
<g id="edge35" class="edge"><title>distancia projetil 13&#45;&gt;pular</title>
<path fill="none" stroke="green" stroke-width="0.144521" d="M1717.36,-115.954C1727.48,-111.67 1740.5,-106.729 1752.58,-103.882 1910.81,-66.5885 1969.09,-136.254 2116.58,-67.8823 2120.52,-66.0545 2124.29,-63.5766 2127.78,-60.7949"/>
<polygon fill="green" stroke="green" stroke-width="0.144521" points="2130.32,-63.2192 2135.39,-53.9163 2125.62,-58.0269 2130.32,-63.2192"/>
</g>
<!-- distancia projetil 13&#45;&gt;atirar -->
<g id="edge4" class="edge"><title>distancia projetil 13&#45;&gt;atirar</title>
<path fill="none" stroke="red" stroke-width="0.168273" d="M1682.33,-115.932C1672.17,-111.526 1658.92,-106.473 1646.58,-103.882 1488.71,-70.7317 1075.34,-116.652 921.581,-67.8823 913.088,-65.1884 904.612,-60.7552 897.042,-56.0013"/>
<polygon fill="red" stroke="red" stroke-width="0.168273" points="898.88,-53.02 888.625,-50.3583 894.982,-58.8342 898.88,-53.02"/>
</g>
<!-- distancia projetil 13&#45;&gt;release -->
<g id="edge104" class="edge"><title>distancia projetil 13&#45;&gt;release</title>
<path fill="none" stroke="green" stroke-width="0.294172" stroke-dasharray="1,5" d="M1718.98,-115.926C1728.91,-111.941 1741.27,-107.287 1752.58,-103.882 1848.12,-75.1364 1963.55,-52.4077 2022.26,-41.6772"/>
<polygon fill="green" stroke="green" stroke-width="0.294172" points="2022.99,-45.1023 2032.2,-39.8755 2021.74,-38.2144 2022.99,-45.1023"/>
</g>
<!-- distancia projetil 14 -->
<g id="node14" class="node"><title>distancia projetil 14</title>
<polygon fill="lightgray" stroke="black" points="1849.58,-134.095 1761.58,-134.095 1761.58,-116.095 1849.58,-116.095 1849.58,-134.095"/>
<text text-anchor="middle" x="1805.58" y="-122.895" font-family="Times New Roman,serif" font-size="9.00">distancia projetil 14</text>
</g>
<!-- distancia projetil 14&#45;&gt;esquerda -->
<g id="edge16" class="edge"><title>distancia projetil 14&#45;&gt;esquerda</title>
<path fill="none" stroke="green" stroke-width="0.157844" d="M1787.82,-115.901C1777.7,-111.6 1764.67,-106.66 1752.58,-103.882 1679.97,-87.2008 1164.2,-49.2595 1008.79,-38.0902"/>
<polygon fill="green" stroke="green" stroke-width="0.157844" points="1008.88,-34.588 998.657,-37.3633 1008.38,-41.57 1008.88,-34.588"/>
</g>
<!-- distancia projetil 14&#45;&gt;direita -->
<g id="edge45" class="edge"><title>distancia projetil 14&#45;&gt;direita</title>
<path fill="none" stroke="green" stroke-width="0.49438" stroke-dasharray="1,5" d="M1786.16,-115.996C1776.22,-112.03 1763.87,-107.371 1752.58,-103.882 1663.75,-76.4363 1556.7,-53.3632 1501.5,-42.1814"/>
<polygon fill="green" stroke="green" stroke-width="0.49438" points="1501.99,-38.7092 1491.5,-40.1696 1500.61,-45.5719 1501.99,-38.7092"/>
</g>
<!-- distancia projetil 14&#45;&gt;pular -->
<g id="edge54" class="edge"><title>distancia projetil 14&#45;&gt;pular</title>
<path fill="none" stroke="red" stroke-width="0.440758" d="M1824.25,-115.952C1834.5,-111.775 1847.55,-106.937 1859.58,-103.882 1971.37,-75.4957 2012.95,-118.504 2116.58,-67.8823 2120.49,-65.9749 2124.23,-63.4502 2127.71,-60.6445"/>
<polygon fill="red" stroke="red" stroke-width="0.440758" points="2130.26,-63.0594 2135.31,-53.7462 2125.55,-57.8767 2130.26,-63.0594"/>
</g>
<!-- distancia projetil 14&#45;&gt;atirar -->
<g id="edge94" class="edge"><title>distancia projetil 14&#45;&gt;atirar</title>
<path fill="none" stroke="red" stroke-width="0.438289" d="M1788.34,-115.902C1778.18,-111.487 1764.93,-106.434 1752.58,-103.882 1571.57,-66.4678 1097.95,-123.209 921.581,-67.8823 913.08,-65.2152 904.6,-60.7914 897.03,-56.0379"/>
<polygon fill="red" stroke="red" stroke-width="0.438289" points="898.868,-53.0567 888.614,-50.3918 894.969,-58.8697 898.868,-53.0567"/>
</g>
<!-- distancia projetil 14&#45;&gt;release -->
<g id="edge81" class="edge"><title>distancia projetil 14&#45;&gt;release</title>
<path fill="none" stroke="red" stroke-width="0.102353" d="M1826.56,-116.088C1836.54,-112.319 1848.65,-107.802 1859.58,-103.882 1916.57,-83.4492 1983.08,-60.8851 2023.5,-47.3173"/>
<polygon fill="red" stroke="red" stroke-width="0.102353" points="2024.82,-50.5656 2033.19,-44.0685 2022.59,-43.9286 2024.82,-50.5656"/>
</g>
<!-- distancia projetil 15 -->
<g id="node15" class="node"><title>distancia projetil 15</title>
<polygon fill="lightgray" stroke="black" points="1199.58,-200.309 1111.58,-200.309 1111.58,-182.309 1199.58,-182.309 1199.58,-200.309"/>
<text text-anchor="middle" x="1155.58" y="-189.109" font-family="Times New Roman,serif" font-size="9.00">distancia projetil 15</text>
</g>
<!-- distancia projetil 15&#45;&gt;direita -->
<g id="edge34" class="edge"><title>distancia projetil 15&#45;&gt;direita</title>
<path fill="none" stroke="red" stroke-width="0.440306" stroke-dasharray="1,5" d="M1199.76,-188.227C1266.38,-184.241 1388.32,-173.38 1421.58,-146.309 1444.05,-128.026 1454.8,-96.5178 1459.93,-71.6709"/>
<polygon fill="red" stroke="red" stroke-width="0.440306" points="1463.37,-72.3017 1461.75,-61.8322 1456.49,-71.03 1463.37,-72.3017"/>
</g>
<!-- distancia projetil 15&#45;&gt;atirar -->
<g id="edge75" class="edge"><title>distancia projetil 15&#45;&gt;atirar</title>
<path fill="none" stroke="green" stroke-width="0.341705" d="M1111.39,-188.716C975.467,-183.605 571.588,-166.753 552.581,-146.309 469.136,-56.5527 736.161,-39.1108 834.608,-35.7416"/>
<polygon fill="green" stroke="green" stroke-width="0.341705" points="834.788,-39.2378 844.673,-35.4265 834.568,-32.2412 834.788,-39.2378"/>
</g>
<!-- distancia projetil 15&#45;&gt;release -->
<g id="edge90" class="edge"><title>distancia projetil 15&#45;&gt;release</title>
<path fill="none" stroke="green" stroke-width="0.353993" d="M1199.81,-188.519C1241.91,-186.836 1307.06,-184.286 1363.58,-182.309 1427.02,-180.089 2461.41,-191.895 2505.58,-146.309 2518.7,-132.767 2518.29,-117.816 2505.58,-103.882 2447.09,-39.7295 2199.2,-94.5311 2116.58,-67.8823 2108.33,-65.2194 2099.98,-61.1836 2092.33,-56.84"/>
<polygon fill="green" stroke="green" stroke-width="0.353993" points="2094.11,-53.8232 2083.74,-51.6635 2090.5,-59.8201 2094.11,-53.8232"/>
</g>
<!-- distancia projetil 15&#45;&gt;409 -->
<g id="edge22" class="edge"><title>distancia projetil 15&#45;&gt;409</title>
<path fill="none" stroke="red" stroke-width="0.317971" d="M1111.36,-189.186C999.815,-185.958 709.384,-174.975 617.581,-146.309 614.596,-145.377 611.59,-144.157 608.661,-142.777"/>
<polygon fill="red" stroke="red" stroke-width="0.317971" points="610.153,-139.606 599.683,-137.984 606.856,-145.781 610.153,-139.606"/>
</g>
<!-- distancia projetil 16 -->
<g id="node16" class="node"><title>distancia projetil 16</title>
<polygon fill="lightgray" stroke="black" points="335.581,-200.309 247.581,-200.309 247.581,-182.309 335.581,-182.309 335.581,-200.309"/>
<text text-anchor="middle" x="291.581" y="-189.109" font-family="Times New Roman,serif" font-size="9.00">distancia projetil 16</text>
</g>
<!-- distancia projetil 16&#45;&gt;esquerda -->
<g id="edge10" class="edge"><title>distancia projetil 16&#45;&gt;esquerda</title>
<path fill="none" stroke="red" stroke-width="0.299463" d="M266.79,-182.174C250.476,-175.379 230.386,-163.92 220.581,-146.309 211.409,-129.834 207.594,-117.553 220.581,-103.882 274.297,-47.3374 848.385,-94.8091 921.581,-67.8823 925.051,-66.6059 928.469,-64.9447 931.769,-63.0469"/>
<polygon fill="red" stroke="red" stroke-width="0.299463" points="933.711,-65.9592 940.186,-57.573 929.895,-60.0911 933.711,-65.9592"/>
</g>
<!-- distancia projetil 16&#45;&gt;direita -->
<g id="edge41" class="edge"><title>distancia projetil 16&#45;&gt;direita</title>
<path fill="none" stroke="green" stroke-width="0.133885" d="M335.764,-187.872C366.32,-186.218 407.915,-184.028 444.581,-182.309 541.003,-177.788 1226.77,-190.505 1312.58,-146.309 1333.82,-135.371 1327.58,-119.587 1345.58,-103.882 1371.27,-81.4728 1405.31,-62.6173 1430.4,-50.321"/>
<polygon fill="green" stroke="green" stroke-width="0.133885" points="1432.04,-53.4162 1439.55,-45.9358 1429.02,-47.1047 1432.04,-53.4162"/>
</g>
<!-- distancia projetil 16&#45;&gt;pular -->
<g id="edge74" class="edge"><title>distancia projetil 16&#45;&gt;pular</title>
<path fill="none" stroke="green" stroke-width="0.201278" d="M335.753,-187.602C366.304,-185.827 407.898,-183.603 444.581,-182.309 499.14,-180.383 2371.33,-185.263 2409.58,-146.309 2479.94,-74.6443 2271.12,-46.3141 2185.45,-37.8916"/>
<polygon fill="green" stroke="green" stroke-width="0.201278" points="2185.69,-34.3986 2175.41,-36.9399 2185.03,-41.3674 2185.69,-34.3986"/>
</g>
<!-- distancia projetil 16&#45;&gt;atirar -->
<g id="edge2" class="edge"><title>distancia projetil 16&#45;&gt;atirar</title>
<path fill="none" stroke="red" stroke-width="0.464666" d="M247.504,-189.688C214.686,-186.618 171.861,-176.537 149.581,-146.309 138.394,-131.13 136.899,-117.837 149.581,-103.882 196.138,-52.6545 696.676,-38.5277 834.581,-35.5952"/>
<polygon fill="red" stroke="red" stroke-width="0.464666" points="834.68,-39.094 844.606,-35.3883 834.536,-32.0955 834.68,-39.094"/>
</g>
<!-- distancia projetil 16&#45;&gt;release -->
<g id="edge32" class="edge"><title>distancia projetil 16&#45;&gt;release</title>
<path fill="none" stroke="green" stroke-width="0.526604" stroke-dasharray="1,5" d="M335.753,-187.604C366.304,-185.83 407.898,-183.606 444.581,-182.309 498.64,-180.396 2353.69,-184.91 2391.58,-146.309 2404.79,-132.853 2404.02,-118.055 2391.58,-103.882 2350.93,-57.5593 2174.87,-87.909 2116.58,-67.8823 2108.38,-65.0635 2100.05,-60.9655 2092.41,-56.6111"/>
<polygon fill="green" stroke="green" stroke-width="0.526604" points="2094.18,-53.5938 2083.81,-51.4431 2090.58,-59.5938 2094.18,-53.5938"/>
</g>
<!-- distancia projetil 16&#45;&gt;267 -->
<g id="edge8" class="edge"><title>distancia projetil 16&#45;&gt;267</title>
<path fill="none" stroke="green" stroke-width="0.657949" d="M257.331,-182.264C221.06,-173.667 162.168,-159.492 111.581,-146.309 97.5236,-142.645 82.005,-138.38 68.904,-134.714"/>
<polygon fill="green" stroke="green" stroke-width="0.657949" points="69.5638,-131.263 58.9896,-131.925 67.6685,-138.002 69.5638,-131.263"/>
</g>
<!-- distancia inimigo 1 -->
<g id="node17" class="node"><title>distancia inimigo 1</title>
<polygon fill="lightgray" stroke="black" points="1951.08,-134.095 1868.08,-134.095 1868.08,-116.095 1951.08,-116.095 1951.08,-134.095"/>
<text text-anchor="middle" x="1909.58" y="-122.895" font-family="Times New Roman,serif" font-size="9.00">distancia inimigo 1</text>
</g>
<!-- distancia inimigo 1&#45;&gt;esquerda -->
<g id="edge27" class="edge"><title>distancia inimigo 1&#45;&gt;esquerda</title>
<path fill="none" stroke="red" stroke-width="0.394439" d="M1892.99,-116.048C1883.21,-111.681 1870.46,-106.628 1858.58,-103.882 1837.61,-99.0351 1185.31,-51.0849 1008.44,-38.1448"/>
<polygon fill="red" stroke="red" stroke-width="0.394439" points="1008.68,-34.6526 998.449,-37.4137 1008.17,-41.634 1008.68,-34.6526"/>
</g>
<!-- distancia inimigo 1&#45;&gt;direita -->
<g id="edge77" class="edge"><title>distancia inimigo 1&#45;&gt;direita</title>
<path fill="none" stroke="red" stroke-width="0.63806" d="M1891.95,-116.076C1882.27,-111.935 1869.95,-107.092 1858.58,-103.882 1730.5,-67.7047 1573.36,-47.0551 1502.46,-38.9607"/>
<polygon fill="red" stroke="red" stroke-width="0.63806" points="1502.57,-35.4508 1492.24,-37.813 1501.79,-42.4071 1502.57,-35.4508"/>
</g>
<!-- distancia inimigo 1&#45;&gt;pular -->
<g id="edge95" class="edge"><title>distancia inimigo 1&#45;&gt;pular</title>
<path fill="none" stroke="red" stroke-width="0.476348" d="M1928.23,-115.921C1937.78,-111.936 1949.67,-107.282 1960.58,-103.882 2028.52,-82.7136 2054.07,-101.883 2116.58,-67.8823 2120.4,-65.8057 2124.09,-63.1817 2127.54,-60.3249"/>
<polygon fill="red" stroke="red" stroke-width="0.476348" points="2130.11,-62.7203 2135.12,-53.3849 2125.38,-57.5584 2130.11,-62.7203"/>
</g>
<!-- distancia inimigo 1&#45;&gt;atirar -->
<g id="edge55" class="edge"><title>distancia inimigo 1&#45;&gt;atirar</title>
<path fill="none" stroke="red" stroke-width="0.332592" d="M1893.48,-116.083C1883.66,-111.61 1870.7,-106.438 1858.58,-103.882 1654.69,-60.8778 1120.56,-129.768 921.581,-67.8823 913.073,-65.236 904.591,-60.8194 897.021,-56.0663"/>
<polygon fill="red" stroke="red" stroke-width="0.332592" points="898.86,-53.0851 888.606,-50.4178 894.958,-58.8971 898.86,-53.0851"/>
</g>
<!-- distancia inimigo 1&#45;&gt;release -->
<g id="edge29" class="edge"><title>distancia inimigo 1&#45;&gt;release</title>
<path fill="none" stroke="green" stroke-width="0.324812" d="M1923.25,-116.026C1946.54,-102.274 1994.57,-73.9175 2027.18,-54.6597"/>
<polygon fill="green" stroke="green" stroke-width="0.324812" points="2029.11,-57.5871 2035.94,-49.489 2025.55,-51.5594 2029.11,-57.5871"/>
</g>
<!-- distancia inimigo 2 -->
<g id="node18" class="node"><title>distancia inimigo 2</title>
<polygon fill="lightgray" stroke="black" points="2349.08,-134.095 2266.08,-134.095 2266.08,-116.095 2349.08,-116.095 2349.08,-134.095"/>
<text text-anchor="middle" x="2307.58" y="-122.895" font-family="Times New Roman,serif" font-size="9.00">distancia inimigo 2</text>
</g>
<!-- distancia inimigo 2&#45;&gt;esquerda -->
<g id="edge76" class="edge"><title>distancia inimigo 2&#45;&gt;esquerda</title>
<path fill="none" stroke="red" stroke-width="0.529553" d="M2291.37,-115.896C2281.79,-111.478 2269.29,-106.425 2257.58,-103.882 2077.17,-64.7179 1611.9,-78.4342 1427.58,-67.8823 1273.47,-59.0593 1090.75,-44.9963 1008.53,-38.4752"/>
<polygon fill="red" stroke="red" stroke-width="0.529553" points="1008.79,-34.9847 998.542,-37.6808 1008.23,-41.9627 1008.79,-34.9847"/>
</g>
<!-- distancia inimigo 2&#45;&gt;direita -->
<g id="edge3" class="edge"><title>distancia inimigo 2&#45;&gt;direita</title>
<path fill="none" stroke="red" stroke-width="0.343827" d="M2291.32,-116.086C2281.74,-111.731 2269.24,-106.678 2257.58,-103.882 2111.22,-68.7716 1639.8,-43.4977 1502.46,-36.7408"/>
<polygon fill="red" stroke="red" stroke-width="0.343827" points="1502.58,-33.2424 1492.42,-36.2505 1502.24,-40.2341 1502.58,-33.2424"/>
</g>
<!-- distancia inimigo 2&#45;&gt;pular -->
<g id="edge11" class="edge"><title>distancia inimigo 2&#45;&gt;pular</title>
<path fill="none" stroke="red" stroke-width="0.736989" d="M2293.37,-116.026C2268.05,-101.647 2214.61,-71.3019 2180.77,-52.0851"/>
<polygon fill="red" stroke="red" stroke-width="0.736989" points="2182.21,-48.8771 2171.79,-46.9826 2178.75,-54.9642 2182.21,-48.8771"/>
</g>
<!-- distancia inimigo 2&#45;&gt;release -->
<g id="edge102" class="edge"><title>distancia inimigo 2&#45;&gt;release</title>
<path fill="none" stroke="green" stroke-width="0.365662" d="M2289.28,-116.009C2279.91,-112.046 2268.26,-107.385 2257.58,-103.882 2196.13,-83.7165 2176.38,-92.5226 2116.58,-67.8823 2108.81,-64.6795 2100.81,-60.5495 2093.39,-56.3036"/>
<polygon fill="green" stroke="green" stroke-width="0.365662" points="2094.73,-53.0277 2084.34,-50.9246 2091.15,-59.0443 2094.73,-53.0277"/>
</g>
<!-- direcao sprites 1 -->
<g id="node19" class="node"><title>direcao sprites 1</title>
<polygon fill="lightgray" stroke="black" points="2045.58,-134.095 1969.58,-134.095 1969.58,-116.095 2045.58,-116.095 2045.58,-134.095"/>
<text text-anchor="middle" x="2007.58" y="-122.895" font-family="Times New Roman,serif" font-size="9.00">direcao sprites 1</text>
</g>
<!-- direcao sprites 1&#45;&gt;esquerda -->
<g id="edge15" class="edge"><title>direcao sprites 1&#45;&gt;esquerda</title>
<path fill="none" stroke="green" stroke-width="0.631873" stroke-dasharray="1,5" d="M1992.37,-115.989C1983.38,-111.603 1971.63,-106.549 1960.58,-103.882 1729.78,-48.1837 1664.44,-84.3072 1427.58,-67.8823 1273.58,-57.2034 1090.81,-44.0619 1008.55,-38.1223"/>
<polygon fill="green" stroke="green" stroke-width="0.631873" points="1008.79,-34.6302 998.56,-37.4005 1008.28,-41.612 1008.79,-34.6302"/>
</g>
<!-- direcao sprites 1&#45;&gt;direita -->
<g id="edge92" class="edge"><title>direcao sprites 1&#45;&gt;direita</title>
<path fill="none" stroke="red" stroke-width="0.541906" d="M1991.87,-116.079C1982.92,-111.834 1971.36,-106.89 1960.58,-103.882 1793.75,-57.3265 1586.18,-41.4791 1502.33,-36.74"/>
<polygon fill="red" stroke="red" stroke-width="0.541906" points="1502.43,-33.2408 1492.26,-36.1914 1502.05,-40.2304 1502.43,-33.2408"/>
</g>
<!-- direcao sprites 1&#45;&gt;pular -->
<g id="edge53" class="edge"><title>direcao sprites 1&#45;&gt;pular</title>
<path fill="none" stroke="red" stroke-width="0.38035" d="M2027.47,-115.958C2050.12,-106.227 2087.7,-88.6251 2116.58,-67.8823 2120.04,-65.4011 2123.48,-62.5769 2126.78,-59.6498"/>
<polygon fill="red" stroke="red" stroke-width="0.38035" points="2129.25,-62.1353 2134.16,-52.7462 2124.47,-57.025 2129.25,-62.1353"/>
</g>
<!-- direcao sprites 1&#45;&gt;atirar -->
<g id="edge26" class="edge"><title>direcao sprites 1&#45;&gt;atirar</title>
<path fill="none" stroke="green" stroke-width="0.374777" d="M1992.82,-116.06C1983.79,-111.58 1971.85,-106.407 1960.58,-103.882 1735.14,-53.3761 1142.31,-136.08 921.581,-67.8823 913.068,-65.2521 904.585,-60.841 897.014,-56.0881"/>
<polygon fill="green" stroke="green" stroke-width="0.374777" points="898.853,-53.107 888.6,-50.4378 894.951,-58.9183 898.853,-53.107"/>
</g>
<!-- direcao sprites 1&#45;&gt;release -->
<g id="edge103" class="edge"><title>direcao sprites 1&#45;&gt;release</title>
<path fill="none" stroke="red" stroke-width="0.308397" stroke-dasharray="1,5" d="M2012.47,-115.868C2018.93,-105.002 2030.69,-85.2209 2040.97,-67.936"/>
<polygon fill="red" stroke="red" stroke-width="0.308397" points="2044.07,-69.5695 2046.17,-59.1852 2038.05,-65.9925 2044.07,-69.5695"/>
</g>
<!-- direcao sprites 2 -->
<g id="node20" class="node"><title>direcao sprites 2</title>
<polygon fill="lightgray" stroke="black" points="1053.58,-134.095 977.581,-134.095 977.581,-116.095 1053.58,-116.095 1053.58,-134.095"/>
<text text-anchor="middle" x="1015.58" y="-122.895" font-family="Times New Roman,serif" font-size="9.00">direcao sprites 2</text>
</g>
<!-- direcao sprites 2&#45;&gt;esquerda -->
<g id="edge65" class="edge"><title>direcao sprites 2&#45;&gt;esquerda</title>
<path fill="none" stroke="red" stroke-width="0.193312" d="M1010.87,-115.868C1005.22,-105.975 995.328,-88.6907 986.141,-72.6294"/>
<polygon fill="red" stroke="red" stroke-width="0.193312" points="989.143,-70.8292 981.139,-63.887 983.067,-74.305 989.143,-70.8292"/>
</g>
<!-- direcao sprites 2&#45;&gt;direita -->
<g id="edge101" class="edge"><title>direcao sprites 2&#45;&gt;direita</title>
<path fill="none" stroke="red" stroke-width="0.321212" d="M1033.57,-116.083C1043.45,-111.944 1056.01,-107.101 1067.58,-103.882 1197.07,-67.8574 1355.82,-47.0737 1426.96,-38.946"/>
<polygon fill="red" stroke="red" stroke-width="0.321212" points="1427.67,-42.3892 1437.21,-37.794 1426.88,-35.433 1427.67,-42.3892"/>
</g>
<!-- direcao sprites 2&#45;&gt;pular -->
<g id="edge25" class="edge"><title>direcao sprites 2&#45;&gt;pular</title>
<path fill="none" stroke="green" stroke-width="0.200081" stroke-dasharray="1,5" d="M1043.27,-116.044C1059.76,-111.617 1081.19,-106.505 1100.58,-103.882 1212.52,-88.7414 2012.65,-112.131 2116.58,-67.8823 2120.78,-66.0954 2124.75,-63.5351 2128.41,-60.6207"/>
<polygon fill="green" stroke="green" stroke-width="0.200081" points="2130.81,-63.1611 2135.85,-53.8376 2126.1,-57.9881 2130.81,-63.1611"/>
</g>
<!-- direcao sprites 2&#45;&gt;atirar -->
<g id="edge52" class="edge"><title>direcao sprites 2&#45;&gt;atirar</title>
<path fill="none" stroke="green" stroke-width="0.519779" stroke-dasharray="1,5" d="M1001.82,-116.013C983.44,-105.19 949.918,-85.3268 921.581,-67.8823 914.287,-63.3916 906.462,-58.4836 899.154,-53.8599"/>
<polygon fill="green" stroke="green" stroke-width="0.519779" points="900.572,-50.6138 890.254,-48.208 896.819,-56.5231 900.572,-50.6138"/>
</g>
<!-- direcao sprites 2&#45;&gt;release -->
<g id="edge42" class="edge"><title>direcao sprites 2&#45;&gt;release</title>
<path fill="none" stroke="green" stroke-width="0.249134" stroke-dasharray="1,5" d="M1044.46,-115.999C1060.8,-111.729 1081.69,-106.787 1100.58,-103.882 1192.64,-89.7258 1852.58,-47.9311 2021.36,-37.3812"/>
<polygon fill="green" stroke="green" stroke-width="0.249134" points="2021.76,-40.8627 2031.53,-36.7462 2021.33,-33.8763 2021.76,-40.8627"/>
</g>
<!-- esquerda&#45;&gt;esquerda -->
<g id="edge93" class="edge"><title>esquerda&#45;&gt;esquerda</title>
<path fill="none" stroke="green" stroke-width="0.251466" d="M994.211,-50.6915C1006.31,-51.7414 1016.52,-46.1579 1016.52,-33.9411 1016.52,-25.3512 1011.48,-20.0407 1004.27,-18.0096"/>
<polygon fill="green" stroke="green" stroke-width="0.251466" points="1004.46,-14.5136 994.211,-17.1908 1003.89,-21.4905 1004.46,-14.5136"/>
</g>
<!-- direita&#45;&gt;direita -->
<g id="edge12" class="edge"><title>direita&#45;&gt;direita</title>
<path fill="none" stroke="green" stroke-width="0.556504" d="M1487.09,-50.1199C1499.16,-52.8692 1510.16,-47.4763 1510.16,-33.9411 1510.16,-24.4242 1504.72,-18.9327 1497.3,-17.4666"/>
<polygon fill="green" stroke="green" stroke-width="0.556504" points="1496.99,-13.9741 1487.09,-17.7624 1497.19,-20.9711 1496.99,-13.9741"/>
</g>
<!-- atirar&#45;&gt;atirar -->
<g id="edge84" class="edge"><title>atirar&#45;&gt;atirar</title>
<path fill="none" stroke="green" stroke-width="0.131869" stroke-dasharray="1,5" d="M888.925,-49.6255C900.917,-53.4075 912.33,-48.1794 912.33,-33.9411 912.33,-23.8186 906.562,-18.2501 898.918,-17.2356"/>
<polygon fill="green" stroke="green" stroke-width="0.131869" points="898.518,-13.7582 888.925,-18.2568 899.229,-20.7219 898.518,-13.7582"/>
</g>
<!-- release&#45;&gt;release -->
<g id="edge87" class="edge"><title>release&#45;&gt;release</title>
<path fill="none" stroke="red" stroke-width="0.566567" d="M2084.76,-50.3176C2096.82,-52.5836 2107.57,-47.1247 2107.57,-33.9411 2107.57,-24.6714 2102.26,-19.2207 2094.91,-17.589"/>
<polygon fill="red" stroke="red" stroke-width="0.566567" points="2094.77,-14.0888 2084.76,-17.5646 2094.75,-21.0887 2094.77,-14.0888"/>
</g>
<!-- 267&#45;&gt;atirar -->
<g id="edge105" class="edge"><title>267&#45;&gt;atirar</title>
<path fill="none" stroke="red" stroke-width="0.180039" d="M55.6883,-112.225C61.1717,-108.977 67.4237,-105.821 73.5812,-103.882 218.824,-58.1468 700.423,-40.1512 834.606,-35.9543"/>
<polygon fill="red" stroke="red" stroke-width="0.180039" points="834.842,-39.4488 844.73,-35.6434 834.627,-32.4521 834.842,-39.4488"/>
</g>
<!-- 461&#45;&gt;atirar -->
<g id="edge72" class="edge"><title>461&#45;&gt;atirar</title>
<path fill="none" stroke="green" stroke-width="0.155256" d="M425.782,-112.504C431.269,-109.267 437.5,-106.048 443.581,-103.882 582.832,-54.2972 760.473,-40.1931 834.62,-36.332"/>
<polygon fill="green" stroke="green" stroke-width="0.155256" points="834.976,-39.8189 844.792,-35.8336 834.633,-32.8272 834.976,-39.8189"/>
</g>
<!-- 334&#45;&gt;esquerda -->
<g id="edge43" class="edge"><title>334&#45;&gt;esquerda</title>
<path fill="none" stroke="red" stroke-width="0.134557" d="M330.235,-116.985C343.667,-112.442 361.974,-106.863 378.581,-103.882 497.611,-82.5213 808.4,-110.478 921.581,-67.8823 924.849,-66.6525 928.073,-65.0867 931.198,-63.3081"/>
<polygon fill="red" stroke="red" stroke-width="0.134557" points="933.182,-66.1929 939.693,-57.8347 929.391,-60.3084 933.182,-66.1929"/>
</g>
<!-- 409&#45;&gt;esquerda -->
<g id="edge59" class="edge"><title>409&#45;&gt;esquerda</title>
<path fill="none" stroke="red" stroke-width="0.742651" d="M603.423,-120.149C625.711,-115.964 662.105,-109.232 693.581,-103.882 794.719,-86.6914 827.298,-108.319 921.581,-67.8823 924.79,-66.5061 927.972,-64.8364 931.068,-62.9871"/>
<polygon fill="red" stroke="red" stroke-width="0.742651" points="933.11,-65.8332 939.516,-57.3947 929.246,-59.9962 933.11,-65.8332"/>
</g>
<!-- 222&#45;&gt;pular -->
<g id="edge33" class="edge"><title>222&#45;&gt;pular</title>
<path fill="none" stroke="red" stroke-width="0.738481" d="M2789.44,-112.316C2783.96,-109.072 2777.71,-105.895 2771.58,-103.882 2661.13,-67.629 2300.32,-43.755 2185.8,-36.9442"/>
<polygon fill="red" stroke="red" stroke-width="0.738481" points="2185.69,-33.4319 2175.5,-36.3385 2185.28,-40.4198 2185.69,-33.4319"/>
</g>
</g>
</svg>
