<?xml version="1.0" encoding="UTF-8" standalone="no"?>
<!DOCTYPE svg PUBLIC "-//W3C//DTD SVG 1.1//EN"
 "http://www.w3.org/Graphics/SVG/1.1/DTD/svg11.dtd">
<!-- Generated by graphviz version 2.38.0 (20140413.2041)
 -->
<!-- Title: %3 Pages: 1 -->
<svg width="2092pt" height="215pt"
 viewBox="0.00 0.00 2092.30 215.38" xmlns="http://www.w3.org/2000/svg" xmlns:xlink="http://www.w3.org/1999/xlink">
<g id="graph0" class="graph" transform="scale(1 1) rotate(0) translate(4 211.38)">
<title>%3</title>
<polygon fill="white" stroke="none" points="-4,4 -4,-211.38 2088.3,-211.38 2088.3,4 -4,4"/>
<!-- dintancia projetil 1 -->
<g id="node1" class="node"><title>dintancia projetil 1</title>
<polygon fill="lightgray" stroke="black" points="615.296,-137.631 531.296,-137.631 531.296,-119.631 615.296,-119.631 615.296,-137.631"/>
<text text-anchor="middle" x="573.296" y="-126.431" font-family="Times New Roman,serif" font-size="9.00">dintancia projetil 1</text>
</g>
<!-- esquerda -->
<g id="node21" class="node"><title>esquerda</title>
<ellipse fill="lightblue" stroke="black" cx="1231.3" cy="-33.9411" rx="33.8824" ry="33.8824"/>
<text text-anchor="middle" x="1231.3" y="-31.7411" font-family="Times New Roman,serif" font-size="9.00">esquerda</text>
</g>
<!-- dintancia projetil 1&#45;&gt;esquerda -->
<g id="edge3" class="edge"><title>dintancia projetil 1&#45;&gt;esquerda</title>
<path fill="none" stroke="green" stroke-width="1.95669" d="M587.078,-119.574C597.063,-114.152 611.076,-107.377 624.296,-103.882 815.274,-53.3962 871.681,-95.3797 1067.3,-67.8823 1108.73,-62.0572 1155.48,-52.3533 1188.43,-44.9825"/>
<polygon fill="green" stroke="green" stroke-width="1.95669" points="1189.21,-48.3947 1198.2,-42.7768 1187.67,-41.5668 1189.21,-48.3947"/>
</g>
<!-- direita -->
<g id="node22" class="node"><title>direita</title>
<ellipse fill="lightblue" stroke="black" cx="677.296" cy="-33.9411" rx="27.6545" ry="27.6545"/>
<text text-anchor="middle" x="677.296" y="-31.7411" font-family="Times New Roman,serif" font-size="9.00">direita</text>
</g>
<!-- dintancia projetil 1&#45;&gt;direita -->
<g id="edge18" class="edge"><title>dintancia projetil 1&#45;&gt;direita</title>
<path fill="none" stroke="green" stroke-width="0.457595" d="M582.525,-119.405C597.378,-106.168 627.168,-79.6178 649.404,-59.7997"/>
<polygon fill="green" stroke="green" stroke-width="0.457595" points="651.781,-62.3698 656.918,-53.1034 647.124,-57.144 651.781,-62.3698"/>
</g>
<!-- atirar -->
<g id="node24" class="node"><title>atirar</title>
<ellipse fill="lightblue" stroke="black" cx="1015.3" cy="-33.9411" rx="25" ry="25"/>
<text text-anchor="middle" x="1015.3" y="-31.7411" font-family="Times New Roman,serif" font-size="9.00">atirar</text>
</g>
<!-- dintancia projetil 1&#45;&gt;atirar -->
<g id="edge17" class="edge"><title>dintancia projetil 1&#45;&gt;atirar</title>
<path fill="none" stroke="red" stroke-width="1.2003" d="M587.53,-119.422C597.495,-114.075 611.299,-107.453 624.296,-103.882 778.068,-61.6305 836.679,-135.091 981.296,-67.8823 985.237,-66.0508 989,-63.5706 992.492,-60.7878"/>
<polygon fill="red" stroke="red" stroke-width="1.2003" points="995.029,-63.2116 1000.1,-53.9083 990.334,-58.0198 995.029,-63.2116"/>
</g>
<!-- release -->
<g id="node25" class="node"><title>release</title>
<ellipse fill="lightblue" stroke="black" cx="925.296" cy="-33.9411" rx="28.9828" ry="28.9828"/>
<text text-anchor="middle" x="925.296" y="-31.7411" font-family="Times New Roman,serif" font-size="9.00">release</text>
</g>
<!-- dintancia projetil 1&#45;&gt;release -->
<g id="edge68" class="edge"><title>dintancia projetil 1&#45;&gt;release</title>
<path fill="none" stroke="green" stroke-width="0.888587" d="M588.57,-119.485C598.523,-114.437 611.916,-108.129 624.296,-103.882 715.953,-72.4385 828.233,-51.0287 886.321,-41.1589"/>
<polygon fill="green" stroke="green" stroke-width="0.888587" points="887.236,-44.5546 896.52,-39.4505 886.079,-37.6508 887.236,-44.5546"/>
</g>
<!-- distancia projetil 2 -->
<g id="node2" class="node"><title>distancia projetil 2</title>
<polygon fill="lightgray" stroke="black" points="1067.8,-137.631 984.796,-137.631 984.796,-119.631 1067.8,-119.631 1067.8,-137.631"/>
<text text-anchor="middle" x="1026.3" y="-126.431" font-family="Times New Roman,serif" font-size="9.00">distancia projetil 2</text>
</g>
<!-- distancia projetil 2&#45;&gt;esquerda -->
<g id="edge15" class="edge"><title>distancia projetil 2&#45;&gt;esquerda</title>
<path fill="none" stroke="red" stroke-width="0.53816" d="M1043.73,-119.433C1053.57,-114.827 1066.1,-108.994 1077.3,-103.882 1115.93,-86.2392 1160.21,-66.465 1191.34,-52.634"/>
<polygon fill="red" stroke="red" stroke-width="0.53816" points="1192.84,-55.7981 1200.56,-48.5414 1190,-49.4003 1192.84,-55.7981"/>
</g>
<!-- distancia projetil 2&#45;&gt;direita -->
<g id="edge41" class="edge"><title>distancia projetil 2&#45;&gt;direita</title>
<path fill="none" stroke="red" stroke-width="0.160539" stroke-dasharray="1,5" d="M1011.34,-119.476C1001.59,-114.425 988.457,-108.116 976.296,-103.882 884.65,-71.9764 772.036,-50.5699 714.697,-40.8757"/>
<polygon fill="red" stroke="red" stroke-width="0.160539" points="715.091,-37.3931 704.652,-39.202 713.941,-44.298 715.091,-37.3931"/>
</g>
<!-- pular -->
<g id="node23" class="node"><title>pular</title>
<ellipse fill="lightblue" stroke="black" cx="1437.3" cy="-33.9411" rx="25" ry="25"/>
<text text-anchor="middle" x="1437.3" y="-31.7411" font-family="Times New Roman,serif" font-size="9.00">pular</text>
</g>
<!-- distancia projetil 2&#45;&gt;pular -->
<g id="edge40" class="edge"><title>distancia projetil 2&#45;&gt;pular</title>
<path fill="none" stroke="green" stroke-width="0.413041" d="M1041.07,-119.525C1051.04,-114.363 1064.64,-107.913 1077.3,-103.882 1162.11,-76.8767 1186.89,-84.6984 1274.3,-67.8823 1318.81,-59.318 1370.03,-48.868 1402.99,-42.0668"/>
<polygon fill="green" stroke="green" stroke-width="0.413041" points="1403.94,-45.4459 1413.02,-39.9939 1402.52,-38.5908 1403.94,-45.4459"/>
</g>
<!-- distancia projetil 2&#45;&gt;atirar -->
<g id="edge58" class="edge"><title>distancia projetil 2&#45;&gt;atirar</title>
<path fill="none" stroke="red" stroke-width="0.299444" d="M1025.32,-119.405C1023.98,-108.093 1021.48,-87.0603 1019.32,-68.8138"/>
<polygon fill="red" stroke="red" stroke-width="0.299444" points="1022.78,-68.2837 1018.12,-58.7659 1015.83,-69.1087 1022.78,-68.2837"/>
</g>
<!-- distancia projetil 2&#45;&gt;release -->
<g id="edge49" class="edge"><title>distancia projetil 2&#45;&gt;release</title>
<path fill="none" stroke="red" stroke-width="0.215965" d="M1017.33,-119.405C1003.23,-106.462 975.259,-80.7928 953.836,-61.1325"/>
<polygon fill="red" stroke="red" stroke-width="0.215965" points="956.011,-58.3786 946.277,-54.1958 951.278,-63.536 956.011,-58.3786"/>
</g>
<!-- distancia projetil 3 -->
<g id="node3" class="node"><title>distancia projetil 3</title>
<polygon fill="lightgray" stroke="black" points="310.796,-137.631 227.796,-137.631 227.796,-119.631 310.796,-119.631 310.796,-137.631"/>
<text text-anchor="middle" x="269.296" y="-126.431" font-family="Times New Roman,serif" font-size="9.00">distancia projetil 3</text>
</g>
<!-- distancia projetil 3&#45;&gt;esquerda -->
<g id="edge60" class="edge"><title>distancia projetil 3&#45;&gt;esquerda</title>
<path fill="none" stroke="red" stroke-width="0.706383" stroke-dasharray="1,5" d="M282.753,-119.438C292.516,-113.951 306.246,-107.156 319.296,-103.882 480.71,-63.3947 902.142,-88.3256 1067.3,-67.8823 1108.96,-62.7255 1155.86,-52.89 1188.8,-45.3034"/>
<polygon fill="red" stroke="red" stroke-width="0.706383" points="1189.61,-48.7085 1198.55,-43.0288 1188.02,-41.8915 1189.61,-48.7085"/>
</g>
<!-- distancia projetil 3&#45;&gt;direita -->
<g id="edge44" class="edge"><title>distancia projetil 3&#45;&gt;direita</title>
<path fill="none" stroke="red" stroke-width="0.198298" d="M283.769,-119.553C293.542,-114.402 306.877,-107.954 319.296,-103.882 432.905,-66.6319 573.771,-46.8182 639.814,-38.9903"/>
<polygon fill="red" stroke="red" stroke-width="0.198298" points="640.226,-42.4661 649.756,-37.836 639.419,-35.5128 640.226,-42.4661"/>
</g>
<!-- distancia projetil 3&#45;&gt;atirar -->
<g id="edge11" class="edge"><title>distancia projetil 3&#45;&gt;atirar</title>
<path fill="none" stroke="red" stroke-width="0.396424" d="M282.759,-119.463C292.525,-113.988 306.257,-107.196 319.296,-103.882 462.085,-67.5929 846.293,-126.873 981.296,-67.8823 985.278,-66.1422 989.066,-63.7157 992.569,-60.9605"/>
<polygon fill="red" stroke="red" stroke-width="0.396424" points="995.096,-63.3953 1000.19,-54.1036 990.413,-58.1927 995.096,-63.3953"/>
</g>
<!-- distancia projetil 3&#45;&gt;release -->
<g id="edge69" class="edge"><title>distancia projetil 3&#45;&gt;release</title>
<path fill="none" stroke="green" stroke-width="0.443046" stroke-dasharray="1,5" d="M282.798,-119.609C292.582,-114.204 306.319,-107.434 319.296,-103.882 489.326,-57.345 539.342,-89.4892 714.296,-67.8823 774.804,-60.4095 844.639,-48.945 886.852,-41.7004"/>
<polygon fill="green" stroke="green" stroke-width="0.443046" points="887.45,-45.1489 896.709,-39.999 886.26,-38.2509 887.45,-45.1489"/>
</g>
<!-- distancia projetil 4 -->
<g id="node4" class="node"><title>distancia projetil 4</title>
<polygon fill="lightgray" stroke="black" points="411.796,-137.631 328.796,-137.631 328.796,-119.631 411.796,-119.631 411.796,-137.631"/>
<text text-anchor="middle" x="370.296" y="-126.431" font-family="Times New Roman,serif" font-size="9.00">distancia projetil 4</text>
</g>
<!-- distancia projetil 4&#45;&gt;atirar -->
<g id="edge25" class="edge"><title>distancia projetil 4&#45;&gt;atirar</title>
<path fill="none" stroke="green" stroke-width="0.176861" d="M384.06,-119.505C394.037,-114.051 408.047,-107.265 421.296,-103.882 542.121,-73.0307 867.275,-118.376 981.296,-67.8823 985.27,-66.1226 989.052,-63.6846 992.553,-60.9234"/>
<polygon fill="green" stroke="green" stroke-width="0.176861" points="995.082,-63.3559 1000.17,-54.0617 990.396,-58.1555 995.082,-63.3559"/>
</g>
<!-- distancia projetil 4&#45;&gt;release -->
<g id="edge48" class="edge"><title>distancia projetil 4&#45;&gt;release</title>
<path fill="none" stroke="green" stroke-width="0.259505" d="M384.555,-119.511C394.531,-114.206 408.339,-107.595 421.296,-103.882 547.423,-67.7466 584.352,-86.0036 714.296,-67.8823 774.679,-59.4615 844.55,-48.2669 886.804,-41.3366"/>
<polygon fill="green" stroke="green" stroke-width="0.259505" points="887.373,-44.7902 896.672,-39.7132 886.236,-37.883 887.373,-44.7902"/>
</g>
<!-- distancia projetil 5 -->
<g id="node5" class="node"><title>distancia projetil 5</title>
<polygon fill="lightgray" stroke="black" points="1951.8,-137.631 1868.8,-137.631 1868.8,-119.631 1951.8,-119.631 1951.8,-137.631"/>
<text text-anchor="middle" x="1910.3" y="-126.431" font-family="Times New Roman,serif" font-size="9.00">distancia projetil 5</text>
</g>
<!-- distancia projetil 5&#45;&gt;pular -->
<g id="edge35" class="edge"><title>distancia projetil 5&#45;&gt;pular</title>
<path fill="none" stroke="red" stroke-width="0.521413" stroke-dasharray="1,5" d="M1895.86,-119.435C1886.1,-114.235 1872.77,-107.776 1860.3,-103.882 1720.5,-60.2554 1545.63,-42.9607 1472.25,-37.2961"/>
<polygon fill="red" stroke="red" stroke-width="0.521413" points="1472.41,-33.7984 1462.17,-36.543 1471.89,-40.7789 1472.41,-33.7984"/>
</g>
<!-- distancia projetil 5&#45;&gt;atirar -->
<g id="edge54" class="edge"><title>distancia projetil 5&#45;&gt;atirar</title>
<path fill="none" stroke="red" stroke-width="0.347068" stroke-dasharray="1,5" d="M1896.83,-119.46C1887.07,-113.983 1873.34,-107.191 1860.3,-103.882 1570.39,-30.3273 1485.21,-103.937 1188.3,-67.8823 1139.61,-61.9703 1084.01,-50.534 1049.28,-42.8174"/>
<polygon fill="red" stroke="red" stroke-width="0.347068" points="1049.73,-39.3304 1039.2,-40.5523 1048.19,-46.16 1049.73,-39.3304"/>
</g>
<!-- distancia projetil 6 -->
<g id="node6" class="node"><title>distancia projetil 6</title>
<polygon fill="lightgray" stroke="black" points="512.796,-137.631 429.796,-137.631 429.796,-119.631 512.796,-119.631 512.796,-137.631"/>
<text text-anchor="middle" x="471.296" y="-126.431" font-family="Times New Roman,serif" font-size="9.00">distancia projetil 6</text>
</g>
<!-- distancia projetil 6&#45;&gt;esquerda -->
<g id="edge66" class="edge"><title>distancia projetil 6&#45;&gt;esquerda</title>
<path fill="none" stroke="green" stroke-width="0.126782" stroke-dasharray="1,5" d="M485.062,-119.513C495.039,-114.061 509.05,-107.277 522.296,-103.882 757.447,-43.6179 826.661,-99.8542 1067.3,-67.8823 1108.91,-62.3535 1155.81,-52.5661 1188.77,-45.0919"/>
<polygon fill="green" stroke="green" stroke-width="0.126782" points="1189.56,-48.5008 1198.53,-42.8539 1188,-41.6779 1189.56,-48.5008"/>
</g>
<!-- distancia projetil 6&#45;&gt;direita -->
<g id="edge36" class="edge"><title>distancia projetil 6&#45;&gt;direita</title>
<path fill="none" stroke="green" stroke-width="0.19819" stroke-dasharray="1,5" d="M488.729,-119.423C498.566,-114.813 511.095,-108.981 522.296,-103.882 563.714,-85.0295 611.602,-63.8193 643.06,-49.9656"/>
<polygon fill="green" stroke="green" stroke-width="0.19819" points="644.527,-53.1442 652.27,-45.9132 641.707,-46.737 644.527,-53.1442"/>
</g>
<!-- distancia projetil 6&#45;&gt;atirar -->
<g id="edge6" class="edge"><title>distancia projetil 6&#45;&gt;atirar</title>
<path fill="none" stroke="red" stroke-width="0.59326" stroke-dasharray="1,5" d="M485.075,-119.563C495.059,-114.135 509.071,-107.358 522.296,-103.882 720.2,-51.8631 794.783,-152.054 981.296,-67.8823 985.257,-66.0947 989.032,-63.6403 992.53,-60.8707"/>
<polygon fill="red" stroke="red" stroke-width="0.59326" points="995.062,-63.2998 1000.14,-54.002 990.373,-58.1027 995.062,-63.2998"/>
</g>
<!-- distancia projetil 6&#45;&gt;release -->
<g id="edge34" class="edge"><title>distancia projetil 6&#45;&gt;release</title>
<path fill="none" stroke="green" stroke-width="1.07145" d="M486.05,-119.478C496.015,-114.296 509.616,-107.841 522.296,-103.882 556.869,-93.0886 792.471,-55.6849 886.582,-40.9622"/>
<polygon fill="green" stroke="green" stroke-width="1.07145" points="887.212,-44.4064 896.551,-39.4047 886.131,-37.4903 887.212,-44.4064"/>
</g>
<!-- distancia projetil 7 -->
<g id="node7" class="node"><title>distancia projetil 7</title>
<polygon fill="lightgray" stroke="black" points="1168.8,-137.631 1085.8,-137.631 1085.8,-119.631 1168.8,-119.631 1168.8,-137.631"/>
<text text-anchor="middle" x="1127.3" y="-126.431" font-family="Times New Roman,serif" font-size="9.00">distancia projetil 7</text>
</g>
<!-- distancia projetil 7&#45;&gt;esquerda -->
<g id="edge38" class="edge"><title>distancia projetil 7&#45;&gt;esquerda</title>
<path fill="none" stroke="red" stroke-width="0.201993" d="M1136.53,-119.405C1150.34,-107.094 1177.07,-83.2669 1198.63,-64.0503"/>
<polygon fill="red" stroke="red" stroke-width="0.201993" points="1201.17,-66.4754 1206.31,-57.209 1196.52,-61.2496 1201.17,-66.4754"/>
</g>
<!-- distancia projetil 7&#45;&gt;direita -->
<g id="edge62" class="edge"><title>distancia projetil 7&#45;&gt;direita</title>
<path fill="none" stroke="green" stroke-width="0.733144" d="M1112.85,-119.472C1103.09,-114.288 1089.75,-107.833 1077.3,-103.882 1042.89,-92.9742 807.413,-55.3777 714.694,-40.7906"/>
<polygon fill="green" stroke="green" stroke-width="0.733144" points="715.052,-37.304 704.63,-39.2095 713.966,-44.2192 715.052,-37.304"/>
</g>
<!-- distancia projetil 7&#45;&gt;pular -->
<g id="edge50" class="edge"><title>distancia projetil 7&#45;&gt;pular</title>
<path fill="none" stroke="red" stroke-width="0.498352" d="M1143.07,-119.407C1153,-114.455 1166.18,-108.279 1178.3,-103.882 1256.91,-75.3669 1352.79,-52.9119 1402.95,-42.0615"/>
<polygon fill="red" stroke="red" stroke-width="0.498352" points="1403.89,-45.4394 1412.94,-39.9243 1402.43,-38.5944 1403.89,-45.4394"/>
</g>
<!-- distancia projetil 7&#45;&gt;atirar -->
<g id="edge31" class="edge"><title>distancia projetil 7&#45;&gt;atirar</title>
<path fill="none" stroke="red" stroke-width="0.131254" stroke-dasharray="1,5" d="M1117.36,-119.405C1100.62,-105.553 1066.26,-77.1217 1042.05,-57.0827"/>
<polygon fill="red" stroke="red" stroke-width="0.131254" points="1044.2,-54.3211 1034.27,-50.6417 1039.74,-59.7139 1044.2,-54.3211"/>
</g>
<!-- distancia projetil 7&#45;&gt;release -->
<g id="edge4" class="edge"><title>distancia projetil 7&#45;&gt;release</title>
<path fill="none" stroke="green" stroke-width="0.229672" d="M1111.24,-119.58C1101.51,-114.808 1088.8,-108.76 1077.3,-103.882 1035.34,-86.0911 1022.42,-87.5075 981.296,-67.8823 973.709,-64.2616 965.793,-59.9571 958.383,-55.6737"/>
<polygon fill="green" stroke="green" stroke-width="0.229672" points="959.718,-52.3965 949.33,-50.3125 956.151,-58.4196 959.718,-52.3965"/>
</g>
<!-- distancia projetil 8 -->
<g id="node8" class="node"><title>distancia projetil 8</title>
<polygon fill="lightgray" stroke="black" points="966.796,-137.631 883.796,-137.631 883.796,-119.631 966.796,-119.631 966.796,-137.631"/>
<text text-anchor="middle" x="925.296" y="-126.431" font-family="Times New Roman,serif" font-size="9.00">distancia projetil 8</text>
</g>
<!-- distancia projetil 8&#45;&gt;esquerda -->
<g id="edge70" class="edge"><title>distancia projetil 8&#45;&gt;esquerda</title>
<path fill="none" stroke="green" stroke-width="0.338218" stroke-dasharray="1,5" d="M941.077,-119.424C951.004,-114.478 964.185,-108.302 976.296,-103.882 1049.05,-77.333 1136.77,-55.8119 1188.07,-44.2375"/>
<polygon fill="green" stroke="green" stroke-width="0.338218" points="1189.13,-47.5849 1198.13,-41.9885 1187.61,-40.7534 1189.13,-47.5849"/>
</g>
<!-- distancia projetil 8&#45;&gt;direita -->
<g id="edge12" class="edge"><title>distancia projetil 8&#45;&gt;direita</title>
<path fill="none" stroke="red" stroke-width="0.484934" stroke-dasharray="1,5" d="M903.722,-119.568C860.877,-103.554 764.708,-67.6113 712.549,-48.1171"/>
<polygon fill="red" stroke="red" stroke-width="0.484934" points="713.632,-44.7851 703.039,-44.5626 711.181,-51.3421 713.632,-44.7851"/>
</g>
<!-- distancia projetil 8&#45;&gt;pular -->
<g id="edge29" class="edge"><title>distancia projetil 8&#45;&gt;pular</title>
<path fill="none" stroke="red" stroke-width="0.520794" d="M939.553,-119.503C949.528,-114.193 963.335,-107.581 976.296,-103.882 1104.58,-67.2693 1142.59,-89.1121 1274.3,-67.8823 1319.18,-60.648 1370.51,-49.8508 1403.38,-42.6104"/>
<polygon fill="red" stroke="red" stroke-width="0.520794" points="1404.37,-45.9765 1413.38,-40.3937 1402.86,-39.1427 1404.37,-45.9765"/>
</g>
<!-- distancia projetil 8&#45;&gt;atirar -->
<g id="edge45" class="edge"><title>distancia projetil 8&#45;&gt;atirar</title>
<path fill="none" stroke="red" stroke-width="0.172221" d="M933.283,-119.405C946.177,-106.126 972.078,-79.4511 991.34,-59.6133"/>
<polygon fill="red" stroke="red" stroke-width="0.172221" points="993.901,-61.9999 998.356,-52.3873 988.879,-57.1235 993.901,-61.9999"/>
</g>
<!-- distancia projetil 8&#45;&gt;release -->
<g id="edge61" class="edge"><title>distancia projetil 8&#45;&gt;release</title>
<path fill="none" stroke="green" stroke-width="0.204111" d="M925.296,-119.405C925.296,-109.059 925.296,-90.5783 925.296,-73.5369"/>
<polygon fill="green" stroke="green" stroke-width="0.204111" points="928.796,-73.1976 925.296,-63.1976 921.796,-73.1977 928.796,-73.1976"/>
</g>
<!-- distancia projetil 9 -->
<g id="node9" class="node"><title>distancia projetil 9</title>
<polygon fill="lightgray" stroke="black" points="1682.8,-137.631 1599.8,-137.631 1599.8,-119.631 1682.8,-119.631 1682.8,-137.631"/>
<text text-anchor="middle" x="1641.3" y="-126.431" font-family="Times New Roman,serif" font-size="9.00">distancia projetil 9</text>
</g>
<!-- distancia projetil 9&#45;&gt;esquerda -->
<g id="edge47" class="edge"><title>distancia projetil 9&#45;&gt;esquerda</title>
<path fill="none" stroke="red" stroke-width="0.193648" d="M1626.51,-119.563C1616.54,-114.416 1602.93,-107.969 1590.3,-103.882 1589.35,-103.576 1369.79,-61.4832 1274.54,-43.2286"/>
<polygon fill="red" stroke="red" stroke-width="0.193648" points="1275.12,-39.7761 1264.64,-41.3313 1273.81,-46.651 1275.12,-39.7761"/>
</g>
<!-- distancia projetil 9&#45;&gt;atirar -->
<g id="edge63" class="edge"><title>distancia projetil 9&#45;&gt;atirar</title>
<path fill="none" stroke="red" stroke-width="0.163683" stroke-dasharray="1,5" d="M1627.51,-119.608C1617.52,-114.201 1603.5,-107.431 1590.3,-103.882 1417.06,-57.3235 1365.95,-92.6892 1188.3,-67.8823 1139.72,-61.1 1084.1,-49.884 1049.33,-42.4534"/>
<polygon fill="red" stroke="red" stroke-width="0.163683" points="1049.75,-38.9642 1039.24,-40.2779 1048.28,-45.807 1049.75,-38.9642"/>
</g>
<!-- distancia projetil 10 -->
<g id="node10" class="node"><title>distancia projetil 10</title>
<polygon fill="lightgray" stroke="black" points="1381.3,-137.631 1293.3,-137.631 1293.3,-119.631 1381.3,-119.631 1381.3,-137.631"/>
<text text-anchor="middle" x="1337.3" y="-126.431" font-family="Times New Roman,serif" font-size="9.00">distancia projetil 10</text>
</g>
<!-- distancia projetil 10&#45;&gt;esquerda -->
<g id="edge32" class="edge"><title>distancia projetil 10&#45;&gt;esquerda</title>
<path fill="none" stroke="red" stroke-width="0.299694" d="M1327.89,-119.405C1313.75,-107.04 1286.32,-83.0577 1264.3,-63.7977"/>
<polygon fill="red" stroke="red" stroke-width="0.299694" points="1266.59,-61.1569 1256.76,-57.209 1261.99,-66.4264 1266.59,-61.1569"/>
</g>
<!-- distancia projetil 10&#45;&gt;direita -->
<g id="edge52" class="edge"><title>distancia projetil 10&#45;&gt;direita</title>
<path fill="none" stroke="red" stroke-width="0.287555" d="M1322.92,-119.622C1312.52,-114.222 1297.95,-107.455 1284.3,-103.882 1112.89,-59.0469 1063.13,-89.6215 887.296,-67.8823 826.521,-60.3681 756.301,-48.7549 714.416,-41.5136"/>
<polygon fill="red" stroke="red" stroke-width="0.287555" points="714.852,-38.0371 704.401,-39.772 713.653,-44.9336 714.852,-38.0371"/>
</g>
<!-- distancia projetil 10&#45;&gt;pular -->
<g id="edge2" class="edge"><title>distancia projetil 10&#45;&gt;pular</title>
<path fill="none" stroke="green" stroke-width="0.353062" d="M1346.17,-119.405C1360.82,-105.831 1390.56,-78.2582 1412.09,-58.3004"/>
<polygon fill="green" stroke="green" stroke-width="0.353062" points="1414.66,-60.697 1419.61,-51.3321 1409.9,-55.5631 1414.66,-60.697"/>
</g>
<!-- distancia projetil 10&#45;&gt;atirar -->
<g id="edge16" class="edge"><title>distancia projetil 10&#45;&gt;atirar</title>
<path fill="none" stroke="green" stroke-width="0.299661" d="M1321.35,-119.627C1310.97,-114.636 1297.05,-108.338 1284.3,-103.882 1201.69,-75.0259 1101.01,-52.4337 1049.4,-41.7277"/>
<polygon fill="green" stroke="green" stroke-width="0.299661" points="1049.95,-38.2685 1039.45,-39.6861 1048.54,-45.1255 1049.95,-38.2685"/>
</g>
<!-- distancia projetil 10&#45;&gt;release -->
<g id="edge26" class="edge"><title>distancia projetil 10&#45;&gt;release</title>
<path fill="none" stroke="red" stroke-width="0.116947" d="M1322.44,-119.509C1312.06,-114.202 1297.71,-107.59 1284.3,-103.882 1153.59,-67.7411 1109.81,-111.184 981.296,-67.8823 973.075,-65.1124 964.74,-61.0339 957.101,-56.6829"/>
<polygon fill="red" stroke="red" stroke-width="0.116947" points="958.875,-53.6657 948.501,-51.5122 955.268,-59.6648 958.875,-53.6657"/>
</g>
<!-- distancia projetil 11 -->
<g id="node11" class="node"><title>distancia projetil 11</title>
<polygon fill="lightgray" stroke="black" points="1275.3,-137.631 1187.3,-137.631 1187.3,-119.631 1275.3,-119.631 1275.3,-137.631"/>
<text text-anchor="middle" x="1231.3" y="-126.431" font-family="Times New Roman,serif" font-size="9.00">distancia projetil 11</text>
</g>
<!-- distancia projetil 11&#45;&gt;esquerda -->
<g id="edge21" class="edge"><title>distancia projetil 11&#45;&gt;esquerda</title>
<path fill="none" stroke="red" stroke-width="0.307796" d="M1231.3,-119.405C1231.3,-110.028 1231.3,-93.9714 1231.3,-78.3592"/>
<polygon fill="red" stroke="red" stroke-width="0.307796" points="1234.8,-78.2385 1231.3,-68.2386 1227.8,-78.2386 1234.8,-78.2385"/>
</g>
<!-- distancia projetil 11&#45;&gt;atirar -->
<g id="edge42" class="edge"><title>distancia projetil 11&#45;&gt;atirar</title>
<path fill="none" stroke="red" stroke-width="0.235854" stroke-dasharray="1,5" d="M1213.67,-119.621C1203.38,-114.972 1190.13,-109.035 1178.3,-103.882 1133.11,-84.2048 1080.55,-62.1196 1047.6,-48.3695"/>
<polygon fill="red" stroke="red" stroke-width="0.235854" points="1048.62,-44.9989 1038.04,-44.3817 1045.92,-51.46 1048.62,-44.9989"/>
</g>
<!-- distancia projetil 11&#45;&gt;release -->
<g id="edge27" class="edge"><title>distancia projetil 11&#45;&gt;release</title>
<path fill="none" stroke="green" stroke-width="1.14332" d="M1215.91,-119.548C1205.53,-114.396 1191.39,-107.948 1178.3,-103.882 1093.29,-77.4939 1064.71,-98.9227 981.296,-67.8823 973.166,-64.857 964.867,-60.6765 957.234,-56.3079"/>
<polygon fill="green" stroke="green" stroke-width="1.14332" points="959.006,-53.2896 948.629,-51.151 955.408,-59.2939 959.006,-53.2896"/>
</g>
<!-- distancia projetil 12 -->
<g id="node12" class="node"><title>distancia projetil 12</title>
<polygon fill="lightgray" stroke="black" points="1384.3,-207.38 1296.3,-207.38 1296.3,-189.38 1384.3,-189.38 1384.3,-207.38"/>
<text text-anchor="middle" x="1340.3" y="-196.18" font-family="Times New Roman,serif" font-size="9.00">distancia projetil 12</text>
</g>
<!-- distancia projetil 12&#45;&gt;esquerda -->
<g id="edge7" class="edge"><title>distancia projetil 12&#45;&gt;esquerda</title>
<path fill="none" stroke="green" stroke-width="0.382812" stroke-dasharray="1,5" d="M1384.6,-197.639C1520.11,-197.974 1922.16,-195.391 1961.3,-153.38 1976.29,-137.284 1976.34,-119.931 1961.3,-103.882 1918.8,-58.5583 1464.93,-75.7408 1403.3,-67.8823 1358.96,-62.2295 1308.84,-52.208 1274.18,-44.6983"/>
<polygon fill="green" stroke="green" stroke-width="0.382812" points="1274.91,-41.2748 1264.39,-42.5544 1273.41,-48.1128 1274.91,-41.2748"/>
</g>
<!-- distancia projetil 12&#45;&gt;direita -->
<g id="edge24" class="edge"><title>distancia projetil 12&#45;&gt;direita</title>
<path fill="none" stroke="red" stroke-width="0.119137" d="M1296.25,-197.619C1071.02,-198.634 56.9428,-200.563 11.2961,-153.38 -3.99996,-137.569 -3.4369,-120.219 11.2961,-103.882 53.6002,-56.973 504.205,-40.021 639.256,-35.9726"/>
<polygon fill="red" stroke="red" stroke-width="0.119137" points="639.626,-39.4634 649.519,-35.6718 639.421,-32.4664 639.626,-39.4634"/>
</g>
<!-- distancia projetil 12&#45;&gt;atirar -->
<g id="edge57" class="edge"><title>distancia projetil 12&#45;&gt;atirar</title>
<path fill="none" stroke="green" stroke-width="0.154819" d="M1296.02,-196.506C1185.31,-193.866 903.298,-184.157 875.296,-153.38 860.491,-137.108 862.484,-121.765 875.296,-103.882 904.274,-63.4377 938.84,-93.824 981.296,-67.8823 984.925,-65.6646 988.477,-62.9974 991.833,-60.1531"/>
<polygon fill="green" stroke="green" stroke-width="0.154819" points="994.268,-62.6695 999.257,-53.323 989.528,-57.518 994.268,-62.6695"/>
</g>
<!-- 1635 -->
<g id="node26" class="node"><title>1635</title>
<ellipse fill="white" stroke="black" cx="1826.3" cy="-128.631" rx="25" ry="25"/>
<text text-anchor="middle" x="1826.3" y="-126.431" font-family="Times New Roman,serif" font-size="9.00">1635</text>
</g>
<!-- distancia projetil 12&#45;&gt;1635 -->
<g id="edge30" class="edge"><title>distancia projetil 12&#45;&gt;1635</title>
<path fill="none" stroke="green" stroke-width="0.556014" d="M1384.49,-196.01C1483.28,-192.479 1719.17,-181.308 1793.3,-153.38 1795.18,-152.67 1797.05,-151.825 1798.89,-150.882"/>
<polygon fill="green" stroke="green" stroke-width="0.556014" points="1800.99,-153.704 1807.74,-145.538 1797.37,-147.712 1800.99,-153.704"/>
</g>
<!-- distancia projetil 13 -->
<g id="node13" class="node"><title>distancia projetil 13</title>
<polygon fill="lightgray" stroke="black" points="721.296,-137.631 633.296,-137.631 633.296,-119.631 721.296,-119.631 721.296,-137.631"/>
<text text-anchor="middle" x="677.296" y="-126.431" font-family="Times New Roman,serif" font-size="9.00">distancia projetil 13</text>
</g>
<!-- distancia projetil 13&#45;&gt;esquerda -->
<g id="edge67" class="edge"><title>distancia projetil 13&#45;&gt;esquerda</title>
<path fill="none" stroke="red" stroke-width="0.105639" stroke-dasharray="1,5" d="M692.135,-119.458C702.511,-114.129 716.863,-107.511 730.296,-103.882 875.713,-64.5991 918.41,-90.7379 1067.3,-67.8823 1108.66,-61.5328 1155.42,-51.8948 1188.39,-44.6818"/>
<polygon fill="red" stroke="red" stroke-width="0.105639" points="1189.15,-48.0988 1198.16,-42.5275 1187.64,-41.263 1189.15,-48.0988"/>
</g>
<!-- distancia projetil 13&#45;&gt;direita -->
<g id="edge53" class="edge"><title>distancia projetil 13&#45;&gt;direita</title>
<path fill="none" stroke="green" stroke-width="0.314765" d="M677.296,-119.405C677.296,-108.665 677.296,-89.1595 677.296,-71.5973"/>
<polygon fill="green" stroke="green" stroke-width="0.314765" points="680.796,-71.5624 677.296,-61.5625 673.796,-71.5625 680.796,-71.5624"/>
</g>
<!-- distancia projetil 13&#45;&gt;atirar -->
<g id="edge10" class="edge"><title>distancia projetil 13&#45;&gt;atirar</title>
<path fill="none" stroke="green" stroke-width="0.100684" d="M692.178,-119.612C702.574,-114.351 716.931,-107.752 730.296,-103.882 838.546,-72.5364 880.115,-117.511 981.296,-67.8823 985.198,-65.9685 988.938,-63.44 992.417,-60.6324"/>
<polygon fill="green" stroke="green" stroke-width="0.100684" points="994.965,-63.0466 1000.01,-53.7326 990.259,-57.8646 994.965,-63.0466"/>
</g>
<!-- distancia projetil 14 -->
<g id="node14" class="node"><title>distancia projetil 14</title>
<polygon fill="lightgray" stroke="black" points="108.296,-137.631 20.2961,-137.631 20.2961,-119.631 108.296,-119.631 108.296,-137.631"/>
<text text-anchor="middle" x="64.2961" y="-126.431" font-family="Times New Roman,serif" font-size="9.00">distancia projetil 14</text>
</g>
<!-- distancia projetil 14&#45;&gt;direita -->
<g id="edge71" class="edge"><title>distancia projetil 14&#45;&gt;direita</title>
<path fill="none" stroke="red" stroke-width="0.163763" stroke-dasharray="1,5" d="M79.1538,-119.527C89.5387,-114.228 103.893,-107.619 117.296,-103.882 308.582,-50.5553 548.082,-38.4542 639.484,-35.7271"/>
<polygon fill="red" stroke="red" stroke-width="0.163763" points="639.733,-39.2216 649.632,-35.4453 639.538,-32.2243 639.733,-39.2216"/>
</g>
<!-- distancia projetil 14&#45;&gt;release -->
<g id="edge59" class="edge"><title>distancia projetil 14&#45;&gt;release</title>
<path fill="none" stroke="green" stroke-width="0.188127" d="M78.6361,-119.495C89.0215,-114.035 103.587,-107.248 117.296,-103.882 375.445,-40.5046 450.017,-96.4153 714.296,-67.8823 774.912,-61.3379 844.716,-49.6091 886.893,-42.0567"/>
<polygon fill="green" stroke="green" stroke-width="0.188127" points="887.523,-45.4997 896.742,-40.2789 886.279,-38.611 887.523,-45.4997"/>
</g>
<!-- distancia projetil 15 -->
<g id="node15" class="node"><title>distancia projetil 15</title>
<polygon fill="lightgray" stroke="black" points="1581.3,-137.631 1493.3,-137.631 1493.3,-119.631 1581.3,-119.631 1581.3,-137.631"/>
<text text-anchor="middle" x="1537.3" y="-126.431" font-family="Times New Roman,serif" font-size="9.00">distancia projetil 15</text>
</g>
<!-- distancia projetil 15&#45;&gt;esquerda -->
<g id="edge39" class="edge"><title>distancia projetil 15&#45;&gt;esquerda</title>
<path fill="none" stroke="green" stroke-width="0.317236" d="M1520.86,-119.469C1510.53,-114.54 1496.83,-108.367 1484.3,-103.882 1412.11,-78.0523 1325.42,-56.3731 1274.54,-44.5607"/>
<polygon fill="green" stroke="green" stroke-width="0.317236" points="1275.08,-41.0937 1264.55,-42.2617 1273.51,-47.9154 1275.08,-41.0937"/>
</g>
<!-- distancia projetil 15&#45;&gt;pular -->
<g id="edge8" class="edge"><title>distancia projetil 15&#45;&gt;pular</title>
<path fill="none" stroke="red" stroke-width="0.893238" d="M1528.42,-119.405C1513.78,-105.831 1484.03,-78.2582 1462.5,-58.3004"/>
<polygon fill="red" stroke="red" stroke-width="0.893238" points="1464.69,-55.5631 1454.98,-51.3321 1459.93,-60.697 1464.69,-55.5631"/>
</g>
<!-- distancia projetil 15&#45;&gt;atirar -->
<g id="edge64" class="edge"><title>distancia projetil 15&#45;&gt;atirar</title>
<path fill="none" stroke="green" stroke-width="0.253911" stroke-dasharray="1,5" d="M1522.44,-119.521C1512.06,-114.219 1497.7,-107.609 1484.3,-103.882 1356.61,-68.3874 1319.24,-88.2882 1188.3,-67.8823 1139.97,-60.352 1084.5,-49.3717 1049.67,-42.1925"/>
<polygon fill="green" stroke="green" stroke-width="0.253911" points="1050.06,-38.6986 1039.56,-40.0945 1048.64,-45.5527 1050.06,-38.6986"/>
</g>
<!-- distancia projetil 15&#45;&gt;release -->
<g id="edge33" class="edge"><title>distancia projetil 15&#45;&gt;release</title>
<path fill="none" stroke="green" stroke-width="0.270441" d="M1522.94,-119.542C1512.55,-114.105 1497.99,-107.325 1484.3,-103.882 1266.94,-49.2239 1195.31,-134.456 981.296,-67.8823 973.013,-65.3056 964.653,-61.3041 957.009,-56.9665"/>
<polygon fill="green" stroke="green" stroke-width="0.270441" points="958.784,-53.9499 948.413,-51.7853 955.171,-59.9451 958.784,-53.9499"/>
</g>
<!-- distancia projetil 16 -->
<g id="node16" class="node"><title>distancia projetil 16</title>
<polygon fill="lightgray" stroke="black" points="827.296,-137.631 739.296,-137.631 739.296,-119.631 827.296,-119.631 827.296,-137.631"/>
<text text-anchor="middle" x="783.296" y="-126.431" font-family="Times New Roman,serif" font-size="9.00">distancia projetil 16</text>
</g>
<!-- distancia projetil 16&#45;&gt;esquerda -->
<g id="edge28" class="edge"><title>distancia projetil 16&#45;&gt;esquerda</title>
<path fill="none" stroke="red" stroke-width="0.694267" d="M812.592,-119.532C830.606,-114.685 854.203,-108.577 875.296,-103.882 960.043,-85.0214 982.067,-84.4312 1067.3,-67.8823 1108.2,-59.9403 1154.76,-50.5537 1187.8,-43.8363"/>
<polygon fill="red" stroke="red" stroke-width="0.694267" points="1188.93,-47.1791 1198.03,-41.7543 1187.53,-40.3198 1188.93,-47.1791"/>
</g>
<!-- distancia projetil 16&#45;&gt;direita -->
<g id="edge43" class="edge"><title>distancia projetil 16&#45;&gt;direita</title>
<path fill="none" stroke="red" stroke-width="0.569922" d="M773.889,-119.405C758.66,-106.089 728.024,-79.2994 705.318,-59.4444"/>
<polygon fill="red" stroke="red" stroke-width="0.569922" points="707.487,-56.692 697.656,-52.7441 702.879,-61.9615 707.487,-56.692"/>
</g>
<!-- distancia projetil 16&#45;&gt;atirar -->
<g id="edge5" class="edge"><title>distancia projetil 16&#45;&gt;atirar</title>
<path fill="none" stroke="red" stroke-width="0.557244" stroke-dasharray="1,5" d="M801.085,-119.606C812.442,-114.669 827.56,-108.437 841.296,-103.882 902.278,-83.6625 925.245,-99.2815 981.296,-67.8823 985.087,-65.7584 988.763,-63.1066 992.209,-60.2355"/>
<polygon fill="red" stroke="red" stroke-width="0.557244" points="994.781,-62.6255 999.779,-53.2838 990.046,-57.4696 994.781,-62.6255"/>
</g>
<!-- distancia inimigo 1 -->
<g id="node17" class="node"><title>distancia inimigo 1</title>
<polygon fill="lightgray" stroke="black" points="209.796,-137.631 126.796,-137.631 126.796,-119.631 209.796,-119.631 209.796,-137.631"/>
<text text-anchor="middle" x="168.296" y="-126.431" font-family="Times New Roman,serif" font-size="9.00">distancia inimigo 1</text>
</g>
<!-- distancia inimigo 1&#45;&gt;direita -->
<g id="edge13" class="edge"><title>distancia inimigo 1&#45;&gt;direita</title>
<path fill="none" stroke="green" stroke-width="0.403048" stroke-dasharray="1,5" d="M182.288,-119.613C192.074,-114.353 205.612,-107.754 218.296,-103.882 370.24,-57.503 560.376,-41.6711 639.766,-36.8431"/>
<polygon fill="green" stroke="green" stroke-width="0.403048" points="639.998,-40.3356 649.777,-36.2575 639.589,-33.3475 639.998,-40.3356"/>
</g>
<!-- distancia inimigo 1&#45;&gt;atirar -->
<g id="edge22" class="edge"><title>distancia inimigo 1&#45;&gt;atirar</title>
<path fill="none" stroke="green" stroke-width="0.443686" stroke-dasharray="1,5" d="M181.752,-119.434C191.515,-113.946 205.245,-107.149 218.296,-103.882 382.959,-62.6624 825.51,-135.289 981.296,-67.8823 985.284,-66.1565 989.076,-63.7384 992.581,-60.9875"/>
<polygon fill="green" stroke="green" stroke-width="0.443686" points="995.106,-63.424 1000.2,-54.1341 990.425,-58.2197 995.106,-63.424"/>
</g>
<!-- distancia inimigo 2 -->
<g id="node18" class="node"><title>distancia inimigo 2</title>
<polygon fill="lightgray" stroke="black" points="1783.8,-137.631 1700.8,-137.631 1700.8,-119.631 1783.8,-119.631 1783.8,-137.631"/>
<text text-anchor="middle" x="1742.3" y="-126.431" font-family="Times New Roman,serif" font-size="9.00">distancia inimigo 2</text>
</g>
<!-- distancia inimigo 2&#45;&gt;esquerda -->
<g id="edge65" class="edge"><title>distancia inimigo 2&#45;&gt;esquerda</title>
<path fill="none" stroke="red" stroke-width="0.445496" stroke-dasharray="1,5" d="M1728.33,-119.511C1718.56,-114.205 1705.03,-107.594 1692.3,-103.882 1568.03,-67.6542 1531.15,-88.0665 1403.3,-67.8823 1359.15,-60.9132 1309,-51.087 1274.29,-43.9823"/>
<polygon fill="red" stroke="red" stroke-width="0.445496" points="1274.98,-40.5517 1264.48,-41.9632 1273.57,-47.4079 1274.98,-40.5517"/>
</g>
<!-- distancia inimigo 2&#45;&gt;direita -->
<g id="edge9" class="edge"><title>distancia inimigo 2&#45;&gt;direita</title>
<path fill="none" stroke="red" stroke-width="0.661928" d="M1728.84,-119.424C1719.08,-113.931 1705.35,-107.133 1692.3,-103.882 1518.54,-60.6117 1065.47,-85.7846 887.296,-67.8823 826.365,-61.76 756.192,-49.7342 714.358,-42.0304"/>
<polygon fill="red" stroke="red" stroke-width="0.661928" points="714.827,-38.5577 704.356,-40.1712 713.548,-45.4398 714.827,-38.5577"/>
</g>
<!-- distancia inimigo 2&#45;&gt;pular -->
<g id="edge56" class="edge"><title>distancia inimigo 2&#45;&gt;pular</title>
<path fill="none" stroke="red" stroke-width="0.431047" d="M1727.28,-119.63C1717.51,-114.641 1704.38,-108.343 1692.3,-103.882 1615.18,-75.4062 1521.04,-53.0077 1471.52,-42.1369"/>
<polygon fill="red" stroke="red" stroke-width="0.431047" points="1472.17,-38.6961 1461.65,-39.9941 1470.68,-45.5367 1472.17,-38.6961"/>
</g>
<!-- direcao sprites 1 -->
<g id="node19" class="node"><title>direcao sprites 1</title>
<polygon fill="lightgray" stroke="black" points="2084.3,-137.631 2008.3,-137.631 2008.3,-119.631 2084.3,-119.631 2084.3,-137.631"/>
<text text-anchor="middle" x="2046.3" y="-126.431" font-family="Times New Roman,serif" font-size="9.00">direcao sprites 1</text>
</g>
<!-- direcao sprites 1&#45;&gt;esquerda -->
<g id="edge55" class="edge"><title>direcao sprites 1&#45;&gt;esquerda</title>
<path fill="none" stroke="red" stroke-width="0.9449" stroke-dasharray="1,5" d="M2032.25,-119.494C2022.06,-114.035 2007.78,-107.247 1994.3,-103.882 1738.98,-40.1477 1664.4,-100.699 1403.3,-67.8823 1358.95,-62.309 1308.83,-52.2757 1274.18,-44.7415"/>
<polygon fill="red" stroke="red" stroke-width="0.9449" points="1274.91,-41.3185 1264.39,-42.5901 1273.4,-48.1553 1274.91,-41.3185"/>
</g>
<!-- direcao sprites 1&#45;&gt;pular -->
<g id="edge19" class="edge"><title>direcao sprites 1&#45;&gt;pular</title>
<path fill="none" stroke="green" stroke-width="0.227958" d="M2031.74,-119.522C2021.56,-114.221 2007.47,-107.612 1994.3,-103.882 1802.39,-49.5754 1561.29,-38.038 1472.34,-35.5946"/>
<polygon fill="green" stroke="green" stroke-width="0.227958" points="1472.34,-32.0937 1462.26,-35.3395 1472.17,-39.0915 1472.34,-32.0937"/>
</g>
<!-- direcao sprites 2 -->
<g id="node20" class="node"><title>direcao sprites 2</title>
<polygon fill="lightgray" stroke="black" points="1475.3,-137.631 1399.3,-137.631 1399.3,-119.631 1475.3,-119.631 1475.3,-137.631"/>
<text text-anchor="middle" x="1437.3" y="-126.431" font-family="Times New Roman,serif" font-size="9.00">direcao sprites 2</text>
</g>
<!-- direcao sprites 2&#45;&gt;esquerda -->
<g id="edge37" class="edge"><title>direcao sprites 2&#45;&gt;esquerda</title>
<path fill="none" stroke="red" stroke-width="0.823265" d="M1421.74,-119.483C1412.64,-114.788 1400.89,-108.851 1390.3,-103.882 1350.43,-85.1856 1304.17,-65.3332 1271.87,-51.7578"/>
<polygon fill="red" stroke="red" stroke-width="0.823265" points="1272.89,-48.3906 1262.31,-47.7545 1270.19,-54.8469 1272.89,-48.3906"/>
</g>
<!-- direcao sprites 2&#45;&gt;pular -->
<g id="edge1" class="edge"><title>direcao sprites 2&#45;&gt;pular</title>
<path fill="none" stroke="green" stroke-width="0.183164" d="M1437.3,-119.405C1437.3,-108.093 1437.3,-87.0603 1437.3,-68.8138"/>
<polygon fill="green" stroke="green" stroke-width="0.183164" points="1440.8,-68.7659 1437.3,-58.7659 1433.8,-68.7659 1440.8,-68.7659"/>
</g>
<!-- direcao sprites 2&#45;&gt;atirar -->
<g id="edge14" class="edge"><title>direcao sprites 2&#45;&gt;atirar</title>
<path fill="none" stroke="red" stroke-width="0.244198" stroke-dasharray="1,5" d="M1423.77,-119.463C1414.62,-114.275 1402.09,-107.818 1390.3,-103.882 1303.79,-75.0128 1277.98,-84.4113 1188.3,-67.8823 1140.2,-59.018 1084.67,-48.3708 1049.77,-41.6291"/>
<polygon fill="red" stroke="red" stroke-width="0.244198" points="1050.11,-38.1311 1039.63,-39.6686 1048.79,-45.0038 1050.11,-38.1311"/>
</g>
<!-- direcao sprites 2&#45;&gt;release -->
<g id="edge46" class="edge"><title>direcao sprites 2&#45;&gt;release</title>
<path fill="none" stroke="green" stroke-width="0.693824" d="M1424.67,-119.584C1415.51,-114.166 1402.6,-107.393 1390.3,-103.882 1214.81,-53.8329 1155.09,-123.508 981.296,-67.8823 973.034,-65.238 964.682,-61.2095 957.04,-56.8672"/>
<polygon fill="green" stroke="green" stroke-width="0.693824" points="958.815,-53.8505 948.443,-51.6897 955.204,-59.847 958.815,-53.8505"/>
</g>
<!-- atirar&#45;&gt;atirar -->
<g id="edge20" class="edge"><title>atirar&#45;&gt;atirar</title>
<path fill="none" stroke="green" stroke-width="0.190298" d="M1034.2,-50.172C1046.35,-54.4061 1058.04,-48.9958 1058.04,-33.9411 1058.04,-23.2382 1052.13,-17.4098 1044.35,-16.4561"/>
<polygon fill="green" stroke="green" stroke-width="0.190298" points="1043.69,-13.0106 1034.2,-17.7103 1044.55,-19.9578 1043.69,-13.0106"/>
</g>
<!-- release&#45;&gt;release -->
<g id="edge23" class="edge"><title>release&#45;&gt;release</title>
<path fill="none" stroke="red" stroke-width="0.409764" stroke-dasharray="1,5" d="M948.991,-50.9465C961.243,-53.5627 972.287,-47.8943 972.287,-33.9411 972.287,-24.0213 966.705,-18.2889 959.076,-16.7437"/>
<polygon fill="red" stroke="red" stroke-width="0.409764" points="958.923,-13.2459 948.991,-16.9358 959.056,-20.2447 958.923,-13.2459"/>
</g>
<!-- 1635&#45;&gt;esquerda -->
<g id="edge51" class="edge"><title>1635&#45;&gt;esquerda</title>
<path fill="none" stroke="green" stroke-width="0.284134" d="M1807.75,-111.706C1803.27,-108.618 1798.32,-105.762 1793.3,-103.882 1630.26,-42.9004 1575.65,-92.2823 1403.3,-67.8823 1359.05,-61.6178 1308.91,-51.6871 1274.23,-44.3655"/>
<polygon fill="green" stroke="green" stroke-width="0.284134" points="1274.94,-40.9389 1264.43,-42.2797 1273.48,-47.7854 1274.94,-40.9389"/>
</g>
</g>
</svg>
