<?xml version="1.0" encoding="UTF-8" standalone="no"?>
<!DOCTYPE svg PUBLIC "-//W3C//DTD SVG 1.1//EN"
 "http://www.w3.org/Graphics/SVG/1.1/DTD/svg11.dtd">
<!-- Generated by graphviz version 2.38.0 (20140413.2041)
 -->
<!-- Title: %3 Pages: 1 -->
<svg width="2116pt" height="203pt"
 viewBox="0.00 0.00 2115.81 202.65" xmlns="http://www.w3.org/2000/svg" xmlns:xlink="http://www.w3.org/1999/xlink">
<g id="graph0" class="graph" transform="scale(1 1) rotate(0) translate(4 198.652)">
<title>%3</title>
<polygon fill="white" stroke="none" points="-4,4 -4,-198.652 2111.81,-198.652 2111.81,4 -4,4"/>
<!-- dintancia projetil 1 -->
<g id="node1" class="node"><title>dintancia projetil 1</title>
<polygon fill="lightgray" stroke="black" points="396.387,-131.267 312.387,-131.267 312.387,-113.267 396.387,-113.267 396.387,-131.267"/>
<text text-anchor="middle" x="354.387" y="-120.067" font-family="Times New Roman,serif" font-size="9.00">dintancia projetil 1</text>
</g>
<!-- esquerda -->
<g id="node21" class="node"><title>esquerda</title>
<ellipse fill="lightblue" stroke="black" cx="860.387" cy="-33.9411" rx="33.8824" ry="33.8824"/>
<text text-anchor="middle" x="860.387" y="-31.7411" font-family="Times New Roman,serif" font-size="9.00">esquerda</text>
</g>
<!-- dintancia projetil 1&#45;&gt;esquerda -->
<g id="edge1" class="edge"><title>dintancia projetil 1&#45;&gt;esquerda</title>
<path fill="none" stroke="green" stroke-width="0.586986" d="M375.476,-113.134C384.569,-109.876 395.391,-106.323 405.387,-103.882 553.913,-67.622 734.63,-47.0493 816.42,-38.9721"/>
<polygon fill="green" stroke="green" stroke-width="0.586986" points="816.98,-42.4342 826.594,-37.9817 816.302,-35.4671 816.98,-42.4342"/>
</g>
<!-- direita -->
<g id="node22" class="node"><title>direita</title>
<ellipse fill="lightblue" stroke="black" cx="959.387" cy="-33.9411" rx="27.6545" ry="27.6545"/>
<text text-anchor="middle" x="959.387" y="-31.7411" font-family="Times New Roman,serif" font-size="9.00">direita</text>
</g>
<!-- dintancia projetil 1&#45;&gt;direita -->
<g id="edge32" class="edge"><title>dintancia projetil 1&#45;&gt;direita</title>
<path fill="none" stroke="green" stroke-width="0.539044" d="M374.405,-113.101C383.677,-109.67 394.933,-105.991 405.387,-103.882 518.062,-81.1487 815.157,-111.788 921.387,-67.8823 925.381,-66.2314 929.251,-63.9874 932.896,-61.4413"/>
<polygon fill="green" stroke="green" stroke-width="0.539044" points="935.263,-64.032 940.944,-55.0892 930.926,-58.5372 935.263,-64.032"/>
</g>
<!-- pular -->
<g id="node23" class="node"><title>pular</title>
<ellipse fill="lightblue" stroke="black" cx="1069.39" cy="-33.9411" rx="25" ry="25"/>
<text text-anchor="middle" x="1069.39" y="-31.7411" font-family="Times New Roman,serif" font-size="9.00">pular</text>
</g>
<!-- dintancia projetil 1&#45;&gt;pular -->
<g id="edge42" class="edge"><title>dintancia projetil 1&#45;&gt;pular</title>
<path fill="none" stroke="red" stroke-width="0.317262" d="M373.909,-113.231C383.269,-109.737 394.739,-105.972 405.387,-103.882 671.451,-51.6678 755.305,-147.838 1014.39,-67.8823 1023.76,-64.9898 1033.2,-60.1853 1041.54,-55.1277"/>
<polygon fill="red" stroke="red" stroke-width="0.317262" points="1043.6,-57.9689 1050.12,-49.6191 1039.81,-52.0796 1043.6,-57.9689"/>
</g>
<!-- atirar -->
<g id="node24" class="node"><title>atirar</title>
<ellipse fill="lightblue" stroke="black" cx="1273.39" cy="-33.9411" rx="25" ry="25"/>
<text text-anchor="middle" x="1273.39" y="-31.7411" font-family="Times New Roman,serif" font-size="9.00">atirar</text>
</g>
<!-- dintancia projetil 1&#45;&gt;atirar -->
<g id="edge72" class="edge"><title>dintancia projetil 1&#45;&gt;atirar</title>
<path fill="none" stroke="red" stroke-width="0.869563" d="M373.895,-113.159C383.252,-109.65 394.723,-105.892 405.387,-103.882 584.194,-70.1884 1050.29,-123.955 1223.39,-67.8823 1231.31,-65.3145 1239.18,-61.1252 1246.24,-56.5816"/>
<polygon fill="red" stroke="red" stroke-width="0.869563" points="1248.47,-59.2967 1254.71,-50.7323 1244.49,-53.5379 1248.47,-59.2967"/>
</g>
<!-- release -->
<g id="node25" class="node"><title>release</title>
<ellipse fill="lightblue" stroke="black" cx="1167.39" cy="-33.9411" rx="28.9828" ry="28.9828"/>
<text text-anchor="middle" x="1167.39" y="-31.7411" font-family="Times New Roman,serif" font-size="9.00">release</text>
</g>
<!-- dintancia projetil 1&#45;&gt;release -->
<g id="edge24" class="edge"><title>dintancia projetil 1&#45;&gt;release</title>
<path fill="none" stroke="red" stroke-width="0.321812" d="M373.9,-113.189C383.259,-109.686 394.73,-105.925 405.387,-103.882 561.851,-73.8916 970.975,-120.387 1121.39,-67.8823 1126.97,-65.9328 1132.47,-63.0778 1137.62,-59.8511"/>
<polygon fill="red" stroke="red" stroke-width="0.321812" points="1139.65,-62.7083 1145.91,-54.1641 1135.69,-56.9367 1139.65,-62.7083"/>
</g>
<!-- distancia projetil 2 -->
<g id="node2" class="node"><title>distancia projetil 2</title>
<polygon fill="lightgray" stroke="black" points="497.887,-131.267 414.887,-131.267 414.887,-113.267 497.887,-113.267 497.887,-131.267"/>
<text text-anchor="middle" x="456.387" y="-120.067" font-family="Times New Roman,serif" font-size="9.00">distancia projetil 2</text>
</g>
<!-- distancia projetil 2&#45;&gt;esquerda -->
<g id="edge8" class="edge"><title>distancia projetil 2&#45;&gt;esquerda</title>
<path fill="none" stroke="red" stroke-width="0.34946" d="M477.59,-113.146C486.408,-109.965 496.804,-106.467 506.387,-103.882 616.561,-74.1626 749.281,-51.8177 816.607,-41.4098"/>
<polygon fill="red" stroke="red" stroke-width="0.34946" points="817.482,-44.8166 826.837,-39.8426 816.422,-37.8973 817.482,-44.8166"/>
</g>
<!-- distancia projetil 2&#45;&gt;direita -->
<g id="edge90" class="edge"><title>distancia projetil 2&#45;&gt;direita</title>
<path fill="none" stroke="green" stroke-width="0.298103" d="M476.015,-113.176C485.106,-109.759 496.141,-106.072 506.387,-103.882 687.434,-65.1844 750.891,-140.041 921.387,-67.8823 925.367,-66.1978 929.228,-63.9331 932.869,-61.3756"/>
<polygon fill="green" stroke="green" stroke-width="0.298103" points="935.241,-63.9614 940.912,-55.0119 930.898,-58.4717 935.241,-63.9614"/>
</g>
<!-- distancia projetil 2&#45;&gt;pular -->
<g id="edge41" class="edge"><title>distancia projetil 2&#45;&gt;pular</title>
<path fill="none" stroke="green" stroke-width="0.109967" d="M475.999,-113.101C485.087,-109.669 496.124,-105.991 506.387,-103.882 728.098,-58.3194 798.502,-135.893 1014.39,-67.8823 1023.74,-64.935 1033.17,-60.1134 1041.52,-55.0571"/>
<polygon fill="green" stroke="green" stroke-width="0.109967" points="1043.57,-57.9009 1050.1,-49.5559 1039.79,-52.0087 1043.57,-57.9009"/>
</g>
<!-- distancia projetil 2&#45;&gt;atirar -->
<g id="edge22" class="edge"><title>distancia projetil 2&#45;&gt;atirar</title>
<path fill="none" stroke="red" stroke-width="0.274412" d="M475.504,-113.185C484.676,-109.681 495.923,-105.921 506.387,-103.882 662.977,-73.3779 1071.77,-117.515 1223.39,-67.8823 1231.31,-65.29 1239.17,-61.0916 1246.23,-56.5469"/>
<polygon fill="red" stroke="red" stroke-width="0.274412" points="1248.46,-59.263 1254.7,-50.7001 1244.48,-53.5032 1248.46,-59.263"/>
</g>
<!-- distancia projetil 2&#45;&gt;release -->
<g id="edge45" class="edge"><title>distancia projetil 2&#45;&gt;release</title>
<path fill="none" stroke="red" stroke-width="0.912157" d="M475.511,-113.224C484.685,-109.729 495.931,-105.964 506.387,-103.882 640.652,-77.148 992.321,-113.532 1121.39,-67.8823 1126.96,-65.9099 1132.46,-63.0427 1137.61,-59.8108"/>
<polygon fill="red" stroke="red" stroke-width="0.912157" points="1139.63,-62.667 1145.9,-54.121 1135.67,-56.8965 1139.63,-62.667"/>
</g>
<!-- distancia projetil 3 -->
<g id="node3" class="node"><title>distancia projetil 3</title>
<polygon fill="lightgray" stroke="black" points="293.887,-131.267 210.887,-131.267 210.887,-113.267 293.887,-113.267 293.887,-131.267"/>
<text text-anchor="middle" x="252.387" y="-120.067" font-family="Times New Roman,serif" font-size="9.00">distancia projetil 3</text>
</g>
<!-- distancia projetil 3&#45;&gt;esquerda -->
<g id="edge48" class="edge"><title>distancia projetil 3&#45;&gt;esquerda</title>
<path fill="none" stroke="red" stroke-width="0.373422" d="M272.951,-113.18C282.138,-109.849 293.176,-106.228 303.387,-103.882 491.26,-60.7175 721.402,-43.0954 816.285,-37.3159"/>
<polygon fill="red" stroke="red" stroke-width="0.373422" points="816.602,-40.8034 826.376,-36.7152 816.186,-33.8157 816.602,-40.8034"/>
</g>
<!-- distancia projetil 3&#45;&gt;direita -->
<g id="edge15" class="edge"><title>distancia projetil 3&#45;&gt;direita</title>
<path fill="none" stroke="red" stroke-width="0.299453" d="M271.908,-113.227C281.268,-109.732 292.738,-105.967 303.387,-103.882 438.389,-77.4484 793.953,-119.699 921.387,-67.8823 925.39,-66.2544 929.266,-64.0244 932.915,-61.4861"/>
<polygon fill="red" stroke="red" stroke-width="0.299453" points="935.278,-64.0801 940.966,-55.1419 930.945,-58.5818 935.278,-64.0801"/>
</g>
<!-- distancia projetil 3&#45;&gt;pular -->
<g id="edge83" class="edge"><title>distancia projetil 3&#45;&gt;pular</title>
<path fill="none" stroke="red" stroke-width="0.148544" d="M271.901,-113.19C281.26,-109.688 292.73,-105.927 303.387,-103.882 458.755,-74.0731 863.024,-113.895 1014.39,-67.8823 1023.77,-65.0295 1033.21,-60.2373 1041.56,-55.1789"/>
<polygon fill="red" stroke="red" stroke-width="0.148544" points="1043.61,-58.0181 1050.13,-49.6648 1039.83,-52.1308 1043.61,-58.0181"/>
</g>
<!-- distancia projetil 3&#45;&gt;release -->
<g id="edge25" class="edge"><title>distancia projetil 3&#45;&gt;release</title>
<path fill="none" stroke="green" stroke-width="0.113832" d="M271.895,-113.159C281.252,-109.65 292.723,-105.892 303.387,-103.882 482.194,-70.1884 949.412,-127.311 1121.39,-67.8823 1126.98,-65.9503 1132.48,-63.1045 1137.63,-59.8817"/>
<polygon fill="green" stroke="green" stroke-width="0.113832" points="1139.66,-62.7398 1145.92,-54.1969 1135.7,-56.9673 1139.66,-62.7398"/>
</g>
<!-- distancia projetil 4 -->
<g id="node4" class="node"><title>distancia projetil 4</title>
<polygon fill="lightgray" stroke="black" points="598.887,-131.267 515.887,-131.267 515.887,-113.267 598.887,-113.267 598.887,-131.267"/>
<text text-anchor="middle" x="557.387" y="-120.067" font-family="Times New Roman,serif" font-size="9.00">distancia projetil 4</text>
</g>
<!-- distancia projetil 4&#45;&gt;esquerda -->
<g id="edge93" class="edge"><title>distancia projetil 4&#45;&gt;esquerda</title>
<path fill="none" stroke="green" stroke-width="0.88561" d="M579.68,-113.149C588.293,-110.109 598.257,-106.71 607.387,-103.882 680.619,-81.2026 766.981,-58.5291 817.512,-45.6674"/>
<polygon fill="green" stroke="green" stroke-width="0.88561" points="818.596,-49.0032 827.429,-43.152 816.875,-42.218 818.596,-49.0032"/>
</g>
<!-- distancia projetil 4&#45;&gt;direita -->
<g id="edge23" class="edge"><title>distancia projetil 4&#45;&gt;direita</title>
<path fill="none" stroke="green" stroke-width="0.198507" d="M577.524,-113.127C586.527,-109.786 597.352,-106.173 607.387,-103.882 744.335,-72.6267 792.794,-124.413 921.387,-67.8823 925.343,-66.143 929.19,-63.8447 932.823,-61.2687"/>
<polygon fill="green" stroke="green" stroke-width="0.198507" points="935.204,-63.8465 940.858,-54.8861 930.851,-58.3653 935.204,-63.8465"/>
</g>
<!-- distancia projetil 4&#45;&gt;pular -->
<g id="edge54" class="edge"><title>distancia projetil 4&#45;&gt;pular</title>
<path fill="none" stroke="green" stroke-width="0.10862" d="M577.017,-113.184C586.108,-109.769 597.143,-106.081 607.387,-103.882 784.938,-65.7745 841.667,-123.958 1014.39,-67.8823 1023.72,-64.8534 1033.14,-60.0063 1041.49,-54.9518"/>
<polygon fill="green" stroke="green" stroke-width="0.10862" points="1043.53,-57.7995 1050.07,-49.4618 1039.76,-51.9031 1043.53,-57.7995"/>
</g>
<!-- distancia projetil 4&#45;&gt;atirar -->
<g id="edge82" class="edge"><title>distancia projetil 4&#45;&gt;atirar</title>
<path fill="none" stroke="green" stroke-width="0.107129" stroke-dasharray="1,5" d="M576.511,-113.223C585.685,-109.728 596.931,-105.964 607.387,-103.882 876.354,-50.3399 963.104,-154.271 1223.39,-67.8823 1231.29,-65.2575 1239.15,-61.047 1246.22,-56.501"/>
<polygon fill="green" stroke="green" stroke-width="0.107129" points="1248.44,-59.2183 1254.68,-50.6575 1244.46,-53.4572 1248.44,-59.2183"/>
</g>
<!-- distancia projetil 4&#45;&gt;release -->
<g id="edge71" class="edge"><title>distancia projetil 4&#45;&gt;release</title>
<path fill="none" stroke="red" stroke-width="0.218308" d="M576.999,-113.097C586.086,-109.665 597.123,-105.987 607.387,-103.882 831.722,-57.8762 905.93,-145.48 1121.39,-67.8823 1126.95,-65.8779 1132.44,-62.9939 1137.59,-59.7548"/>
<polygon fill="red" stroke="red" stroke-width="0.218308" points="1139.62,-62.6097 1145.87,-54.0612 1135.65,-56.8407 1139.62,-62.6097"/>
</g>
<!-- distancia projetil 5 -->
<g id="node5" class="node"><title>distancia projetil 5</title>
<polygon fill="lightgray" stroke="black" points="699.887,-131.267 616.887,-131.267 616.887,-113.267 699.887,-113.267 699.887,-131.267"/>
<text text-anchor="middle" x="658.387" y="-120.067" font-family="Times New Roman,serif" font-size="9.00">distancia projetil 5</text>
</g>
<!-- distancia projetil 5&#45;&gt;esquerda -->
<g id="edge40" class="edge"><title>distancia projetil 5&#45;&gt;esquerda</title>
<path fill="none" stroke="green" stroke-width="0.462575" d="M677.39,-113.146C709.896,-99.2543 776.844,-70.6435 820.123,-52.148"/>
<polygon fill="green" stroke="green" stroke-width="0.462575" points="821.691,-55.2841 829.512,-48.1359 818.941,-48.8472 821.691,-55.2841"/>
</g>
<!-- distancia projetil 5&#45;&gt;direita -->
<g id="edge10" class="edge"><title>distancia projetil 5&#45;&gt;direita</title>
<path fill="none" stroke="red" stroke-width="0.275725" d="M679.07,-113.203C687.986,-109.956 698.594,-106.393 708.387,-103.882 801.387,-80.0337 834.556,-108.848 921.387,-67.8823 925.295,-66.0382 929.113,-63.6757 932.729,-61.0642"/>
<polygon fill="red" stroke="red" stroke-width="0.275725" points="935.128,-63.627 940.748,-54.6454 930.754,-58.1621 935.128,-63.627"/>
</g>
<!-- distancia projetil 5&#45;&gt;pular -->
<g id="edge101" class="edge"><title>distancia projetil 5&#45;&gt;pular</title>
<path fill="none" stroke="green" stroke-width="0.137546" stroke-dasharray="1,5" d="M678.528,-113.141C687.531,-109.803 698.355,-106.187 708.387,-103.882 841.847,-73.2151 884.766,-112.045 1014.39,-67.8823 1023.59,-64.7454 1032.92,-59.9114 1041.22,-54.9046"/>
<polygon fill="green" stroke="green" stroke-width="0.137546" points="1043.2,-57.7936 1049.76,-49.476 1039.45,-51.8857 1043.2,-57.7936"/>
</g>
<!-- distancia projetil 5&#45;&gt;atirar -->
<g id="edge69" class="edge"><title>distancia projetil 5&#45;&gt;atirar</title>
<path fill="none" stroke="green" stroke-width="0.200089" d="M677.998,-113.096C687.086,-109.664 698.123,-105.986 708.387,-103.882 933.16,-57.8024 1006.04,-141.401 1223.39,-67.8823 1231.28,-65.2124 1239.13,-60.985 1246.2,-56.4371"/>
<polygon fill="green" stroke="green" stroke-width="0.200089" points="1248.42,-59.1563 1254.66,-50.5983 1244.44,-53.3934 1248.42,-59.1563"/>
</g>
<!-- distancia projetil 5&#45;&gt;release -->
<g id="edge62" class="edge"><title>distancia projetil 5&#45;&gt;release</title>
<path fill="none" stroke="green" stroke-width="0.707538" d="M678.015,-113.178C687.106,-109.762 698.142,-106.074 708.387,-103.882 888.56,-65.3319 948.573,-131.788 1121.39,-67.8823 1126.93,-65.8307 1132.42,-62.9215 1137.56,-59.6718"/>
<polygon fill="green" stroke="green" stroke-width="0.707538" points="1139.59,-62.5246 1145.84,-53.9725 1135.62,-56.758 1139.59,-62.5246"/>
</g>
<!-- distancia projetil 6 -->
<g id="node6" class="node"><title>distancia projetil 6</title>
<polygon fill="lightgray" stroke="black" points="800.887,-131.267 717.887,-131.267 717.887,-113.267 800.887,-113.267 800.887,-131.267"/>
<text text-anchor="middle" x="759.387" y="-120.067" font-family="Times New Roman,serif" font-size="9.00">distancia projetil 6</text>
</g>
<!-- distancia projetil 6&#45;&gt;esquerda -->
<g id="edge80" class="edge"><title>distancia projetil 6&#45;&gt;esquerda</title>
<path fill="none" stroke="red" stroke-width="0.117684" stroke-dasharray="1,5" d="M769.071,-112.99C782.322,-101.664 806.771,-80.7675 827.038,-63.4452"/>
<polygon fill="red" stroke="red" stroke-width="0.117684" points="829.524,-65.9245 834.851,-56.7666 824.976,-60.6033 829.524,-65.9245"/>
</g>
<!-- distancia projetil 6&#45;&gt;direita -->
<g id="edge14" class="edge"><title>distancia projetil 6&#45;&gt;direita</title>
<path fill="none" stroke="red" stroke-width="0.643922" d="M782.248,-113.191C790.754,-110.22 800.497,-106.856 809.387,-103.882 858.972,-87.2955 875.821,-93.5258 921.387,-67.8823 925.153,-65.7626 928.884,-63.2311 932.452,-60.5262"/>
<polygon fill="red" stroke="red" stroke-width="0.643922" points="934.893,-63.0508 940.421,-54.0124 930.463,-57.6308 934.893,-63.0508"/>
</g>
<!-- distancia projetil 6&#45;&gt;pular -->
<g id="edge21" class="edge"><title>distancia projetil 6&#45;&gt;pular</title>
<path fill="none" stroke="green" stroke-width="0.453808" d="M780.078,-113.234C788.995,-109.992 799.602,-106.425 809.387,-103.882 898.919,-80.6172 927.705,-100.187 1014.39,-67.8823 1023.5,-64.4855 1032.8,-59.5691 1041.1,-54.5664"/>
<polygon fill="green" stroke="green" stroke-width="0.453808" points="1043.06,-57.4666 1049.65,-49.1719 1039.33,-51.5456 1043.06,-57.4666"/>
</g>
<!-- distancia projetil 6&#45;&gt;atirar -->
<g id="edge52" class="edge"><title>distancia projetil 6&#45;&gt;atirar</title>
<path fill="none" stroke="red" stroke-width="0.183487" d="M779.015,-113.177C788.106,-109.76 799.142,-106.073 809.387,-103.882 989.997,-65.2582 1048.94,-128.542 1223.39,-67.8823 1231.26,-65.1456 1239.1,-60.8932 1246.16,-56.3426"/>
<polygon fill="red" stroke="red" stroke-width="0.183487" points="1248.38,-59.0643 1254.63,-50.5106 1244.41,-53.2987 1248.38,-59.0643"/>
</g>
<!-- distancia projetil 6&#45;&gt;release -->
<g id="edge63" class="edge"><title>distancia projetil 6&#45;&gt;release</title>
<path fill="none" stroke="red" stroke-width="0.449561" d="M779.525,-113.131C788.528,-109.79 799.353,-106.176 809.387,-103.882 945.463,-72.7738 991.154,-118.12 1121.39,-67.8823 1126.91,-65.7534 1132.37,-62.8033 1137.51,-59.5362"/>
<polygon fill="red" stroke="red" stroke-width="0.449561" points="1139.54,-62.3857 1145.79,-53.8276 1135.57,-56.6229 1139.54,-62.3857"/>
</g>
<!-- distancia projetil 7 -->
<g id="node7" class="node"><title>distancia projetil 7</title>
<polygon fill="lightgray" stroke="black" points="901.887,-131.267 818.887,-131.267 818.887,-113.267 901.887,-113.267 901.887,-131.267"/>
<text text-anchor="middle" x="860.387" y="-120.067" font-family="Times New Roman,serif" font-size="9.00">distancia projetil 7</text>
</g>
<!-- distancia projetil 7&#45;&gt;esquerda -->
<g id="edge31" class="edge"><title>distancia projetil 7&#45;&gt;esquerda</title>
<path fill="none" stroke="green" stroke-width="0.318147" d="M860.387,-112.99C860.387,-104.784 860.387,-91.5551 860.387,-78.3011"/>
<polygon fill="green" stroke="green" stroke-width="0.318147" points="863.887,-78.2436 860.387,-68.2436 856.887,-78.2437 863.887,-78.2436"/>
</g>
<!-- distancia projetil 7&#45;&gt;direita -->
<g id="edge100" class="edge"><title>distancia projetil 7&#45;&gt;direita</title>
<path fill="none" stroke="red" stroke-width="0.143062" d="M869.879,-112.99C883.869,-100.791 910.594,-77.4877 931.214,-59.5076"/>
<polygon fill="red" stroke="red" stroke-width="0.143062" points="933.541,-62.1216 938.778,-52.9115 928.941,-56.8457 933.541,-62.1216"/>
</g>
<!-- distancia projetil 7&#45;&gt;pular -->
<g id="edge67" class="edge"><title>distancia projetil 7&#45;&gt;pular</title>
<path fill="none" stroke="green" stroke-width="0.117176" d="M883.535,-113.211C891.985,-110.272 901.617,-106.925 910.387,-103.882 956.598,-87.8505 970.059,-88.5585 1014.39,-67.8823 1023.13,-63.8052 1032.25,-58.7138 1040.5,-53.7619"/>
<polygon fill="green" stroke="green" stroke-width="0.117176" points="1042.37,-56.7227 1049.05,-48.498 1038.7,-50.7626 1042.37,-56.7227"/>
</g>
<!-- distancia projetil 7&#45;&gt;atirar -->
<g id="edge38" class="edge"><title>distancia projetil 7&#45;&gt;atirar</title>
<path fill="none" stroke="red" stroke-width="0.358122" d="M880.525,-113.129C889.527,-109.788 900.352,-106.174 910.387,-103.882 1046.9,-72.7002 1091.78,-115.705 1223.39,-67.8823 1231.22,-65.0366 1239.05,-60.7435 1246.11,-56.1883"/>
<polygon fill="red" stroke="red" stroke-width="0.358122" points="1248.32,-58.9142 1254.58,-50.3675 1244.36,-53.1442 1248.32,-58.9142"/>
</g>
<!-- distancia projetil 7&#45;&gt;release -->
<g id="edge50" class="edge"><title>distancia projetil 7&#45;&gt;release</title>
<path fill="none" stroke="red" stroke-width="0.265844" d="M881.072,-113.211C889.988,-109.965 900.596,-106.401 910.387,-103.882 1002.52,-80.1797 1033.59,-104.51 1121.39,-67.8823 1126.85,-65.6049 1132.28,-62.5762 1137.4,-59.2756"/>
<polygon fill="red" stroke="red" stroke-width="0.265844" points="1139.45,-62.1189 1145.68,-53.5491 1135.46,-56.3635 1139.45,-62.1189"/>
</g>
<!-- distancia projetil 8 -->
<g id="node8" class="node"><title>distancia projetil 8</title>
<polygon fill="lightgray" stroke="black" points="1002.89,-131.267 919.887,-131.267 919.887,-113.267 1002.89,-113.267 1002.89,-131.267"/>
<text text-anchor="middle" x="961.387" y="-120.067" font-family="Times New Roman,serif" font-size="9.00">distancia projetil 8</text>
</g>
<!-- distancia projetil 8&#45;&gt;esquerda -->
<g id="edge76" class="edge"><title>distancia projetil 8&#45;&gt;esquerda</title>
<path fill="none" stroke="green" stroke-width="0.104171" stroke-dasharray="1,5" d="M951.703,-112.99C938.452,-101.664 914.003,-80.7675 893.736,-63.4452"/>
<polygon fill="green" stroke="green" stroke-width="0.104171" points="895.798,-60.6033 885.922,-56.7666 891.25,-65.9245 895.798,-60.6033"/>
</g>
<!-- distancia projetil 8&#45;&gt;direita -->
<g id="edge6" class="edge"><title>distancia projetil 8&#45;&gt;direita</title>
<path fill="none" stroke="green" stroke-width="0.399498" stroke-dasharray="1,5" d="M961.195,-112.99C960.974,-103.458 960.596,-87.1459 960.243,-71.8914"/>
<polygon fill="green" stroke="green" stroke-width="0.399498" points="963.735,-71.5121 960.004,-61.5958 956.737,-71.6743 963.735,-71.5121"/>
</g>
<!-- distancia projetil 8&#45;&gt;pular -->
<g id="edge36" class="edge"><title>distancia projetil 8&#45;&gt;pular</title>
<path fill="none" stroke="green" stroke-width="0.147034" d="M971.742,-112.99C987.824,-100.136 1019.33,-74.9529 1042.22,-56.6596"/>
<polygon fill="green" stroke="green" stroke-width="0.147034" points="1044.59,-59.2449 1050.21,-50.2672 1040.22,-53.777 1044.59,-59.2449"/>
</g>
<!-- distancia projetil 8&#45;&gt;atirar -->
<g id="edge66" class="edge"><title>distancia projetil 8&#45;&gt;atirar</title>
<path fill="none" stroke="green" stroke-width="0.156468" stroke-dasharray="1,5" d="M982.499,-113.225C991.595,-109.982 1002.41,-106.416 1012.39,-103.882 1104.59,-80.4606 1134.89,-102.795 1223.39,-67.8823 1231.14,-64.8244 1238.94,-60.4519 1245.99,-55.8879"/>
<polygon fill="green" stroke="green" stroke-width="0.156468" points="1248.2,-58.6218 1254.48,-50.0889 1244.25,-52.8431 1248.2,-58.6218"/>
</g>
<!-- distancia projetil 8&#45;&gt;release -->
<g id="edge99" class="edge"><title>distancia projetil 8&#45;&gt;release</title>
<path fill="none" stroke="green" stroke-width="0.465747" d="M984.729,-113.258C993.407,-110.294 1003.34,-106.918 1012.39,-103.882 1060.75,-87.6516 1075.91,-90.998 1121.39,-67.8823 1126.66,-65.2022 1132,-61.9603 1137.08,-58.5691"/>
<polygon fill="green" stroke="green" stroke-width="0.465747" points="1139.14,-61.3963 1145.33,-52.794 1135.13,-55.6619 1139.14,-61.3963"/>
</g>
<!-- distancia projetil 9 -->
<g id="node9" class="node"><title>distancia projetil 9</title>
<polygon fill="lightgray" stroke="black" points="192.887,-131.267 109.887,-131.267 109.887,-113.267 192.887,-113.267 192.887,-131.267"/>
<text text-anchor="middle" x="151.387" y="-120.067" font-family="Times New Roman,serif" font-size="9.00">distancia projetil 9</text>
</g>
<!-- distancia projetil 9&#45;&gt;esquerda -->
<g id="edge92" class="edge"><title>distancia projetil 9&#45;&gt;esquerda</title>
<path fill="none" stroke="green" stroke-width="0.231498" d="M171.033,-113.259C180.128,-109.86 191.161,-106.163 201.387,-103.882 429.024,-53.1148 709.443,-39.5188 816.255,-36.0592"/>
<polygon fill="green" stroke="green" stroke-width="0.231498" points="816.453,-39.5548 826.34,-35.7463 816.236,-32.5582 816.453,-39.5548"/>
</g>
<!-- distancia projetil 9&#45;&gt;direita -->
<g id="edge64" class="edge"><title>distancia projetil 9&#45;&gt;direita</title>
<path fill="none" stroke="red" stroke-width="0.271658" d="M170.503,-113.184C179.675,-109.68 190.923,-105.92 201.387,-103.882 358.634,-73.267 772.739,-127.613 921.387,-67.8823 925.602,-66.1884 929.674,-63.8224 933.486,-61.1273"/>
<polygon fill="red" stroke="red" stroke-width="0.271658" points="935.738,-63.8079 941.372,-54.835 931.372,-58.3362 935.738,-63.8079"/>
</g>
<!-- distancia projetil 9&#45;&gt;pular -->
<g id="edge53" class="edge"><title>distancia projetil 9&#45;&gt;pular</title>
<path fill="none" stroke="green" stroke-width="0.36262" d="M170.498,-113.157C179.669,-109.647 190.917,-105.89 201.387,-103.882 378.995,-69.8285 841.195,-119.931 1014.39,-67.8823 1023.78,-65.0592 1033.22,-60.2763 1041.57,-55.2173"/>
<polygon fill="green" stroke="green" stroke-width="0.36262" points="1043.63,-58.0551 1050.14,-49.6991 1039.84,-52.1693 1043.63,-58.0551"/>
</g>
<!-- distancia projetil 9&#45;&gt;release -->
<g id="edge70" class="edge"><title>distancia projetil 9&#45;&gt;release</title>
<path fill="none" stroke="red" stroke-width="0.228892" d="M170.494,-113.133C179.664,-109.618 190.912,-105.863 201.387,-103.882 402.426,-65.8715 927.845,-134.237 1121.39,-67.8823 1126.98,-65.9639 1132.49,-63.1254 1137.64,-59.9056"/>
<polygon fill="red" stroke="red" stroke-width="0.228892" points="1139.66,-62.7643 1145.93,-54.2224 1135.7,-56.9911 1139.66,-62.7643"/>
</g>
<!-- distancia projetil 10 -->
<g id="node10" class="node"><title>distancia projetil 10</title>
<polygon fill="lightgray" stroke="black" points="910.387,-194.652 822.387,-194.652 822.387,-176.652 910.387,-176.652 910.387,-194.652"/>
<text text-anchor="middle" x="866.387" y="-183.452" font-family="Times New Roman,serif" font-size="9.00">distancia projetil 10</text>
</g>
<!-- distancia projetil 10&#45;&gt;esquerda -->
<g id="edge39" class="edge"><title>distancia projetil 10&#45;&gt;esquerda</title>
<path fill="none" stroke="green" stroke-width="0.103449" stroke-dasharray="1,5" d="M822.226,-184.055C650.684,-181.523 36.6541,-170.406 8.38682,-140.652 -2.86894,-128.804 -2.69294,-115.895 8.38682,-103.882 63.5202,-44.1074 648.828,-36.1518 816.021,-35.0998"/>
<polygon fill="green" stroke="green" stroke-width="0.103449" points="816.439,-38.5975 826.419,-35.04 816.399,-31.5976 816.439,-38.5975"/>
</g>
<!-- distancia projetil 10&#45;&gt;direita -->
<g id="edge68" class="edge"><title>distancia projetil 10&#45;&gt;direita</title>
<path fill="none" stroke="green" stroke-width="0.455876" d="M822.137,-183.77C662.64,-180.379 125.293,-167.029 100.387,-140.652 89.1675,-128.77 89.0872,-115.688 100.387,-103.882 163.523,-37.9174 836.557,-101.667 921.387,-67.8823 925.607,-66.2014 929.682,-63.843 933.496,-61.1519"/>
<polygon fill="green" stroke="green" stroke-width="0.455876" points="935.746,-63.834 941.383,-54.8633 931.382,-58.3607 935.746,-63.834"/>
</g>
<!-- distancia projetil 10&#45;&gt;pular -->
<g id="edge77" class="edge"><title>distancia projetil 10&#45;&gt;pular</title>
<path fill="none" stroke="green" stroke-width="0.476567" d="M910.637,-183.77C1070.13,-180.379 1607.48,-167.029 1632.39,-140.652 1643.61,-128.77 1643.52,-115.843 1632.39,-103.882 1594.21,-62.8719 1183.13,-83.7311 1129.39,-67.8823 1118.68,-64.7237 1107.74,-59.4456 1098.2,-54.0295"/>
<polygon fill="green" stroke="green" stroke-width="0.476567" points="1099.9,-50.9712 1089.52,-48.8591 1096.32,-56.9846 1099.9,-50.9712"/>
</g>
<!-- distancia projetil 10&#45;&gt;atirar -->
<g id="edge9" class="edge"><title>distancia projetil 10&#45;&gt;atirar</title>
<path fill="none" stroke="green" stroke-width="0.142368" d="M910.41,-184.773C1125.51,-185.152 2057.3,-184.268 2099.39,-140.652 2110.73,-128.892 2110.45,-115.909 2099.39,-103.882 2045.09,-44.8689 1459.13,-36.3559 1308.52,-35.141"/>
<polygon fill="green" stroke="green" stroke-width="0.142368" points="1308.47,-31.6406 1298.44,-35.0655 1308.41,-38.6404 1308.47,-31.6406"/>
</g>
<!-- distancia projetil 10&#45;&gt;release -->
<g id="edge60" class="edge"><title>distancia projetil 10&#45;&gt;release</title>
<path fill="none" stroke="red" stroke-width="0.452613" d="M910.718,-184.745C1124.13,-184.979 2037.1,-183.468 2078.39,-140.652 2208.3,-5.94164 1421.34,-111.637 1239.39,-67.8823 1226.42,-64.7631 1212.93,-59.2743 1201.19,-53.6609"/>
<polygon fill="red" stroke="red" stroke-width="0.452613" points="1202.7,-50.5024 1192.18,-49.1753 1199.57,-56.7677 1202.7,-50.5024"/>
</g>
<!-- 34 -->
<g id="node26" class="node"><title>34</title>
<ellipse fill="white" stroke="black" cx="35.3868" cy="-122.267" rx="18.2703" ry="18.2703"/>
<text text-anchor="middle" x="35.3868" y="-120.067" font-family="Times New Roman,serif" font-size="9.00">34</text>
</g>
<!-- distancia projetil 10&#45;&gt;34 -->
<g id="edge94" class="edge"><title>distancia projetil 10&#45;&gt;34</title>
<path fill="none" stroke="green" stroke-width="0.286387" d="M822.27,-184.763C676.432,-184.734 210.982,-181.375 67.3868,-140.652 64.7409,-139.901 62.0702,-138.904 59.4596,-137.765"/>
<polygon fill="green" stroke="green" stroke-width="0.286387" points="60.9243,-134.584 50.4189,-133.211 57.7747,-140.836 60.9243,-134.584"/>
</g>
<!-- distancia projetil 11 -->
<g id="node11" class="node"><title>distancia projetil 11</title>
<polygon fill="lightgray" stroke="black" points="1109.39,-131.267 1021.39,-131.267 1021.39,-113.267 1109.39,-113.267 1109.39,-131.267"/>
<text text-anchor="middle" x="1065.39" y="-120.067" font-family="Times New Roman,serif" font-size="9.00">distancia projetil 11</text>
</g>
<!-- distancia projetil 11&#45;&gt;esquerda -->
<g id="edge79" class="edge"><title>distancia projetil 11&#45;&gt;esquerda</title>
<path fill="none" stroke="green" stroke-width="0.398136" d="M1040.96,-113.242C1012.17,-103.536 963.107,-86.2054 922.387,-67.8823 914.557,-64.3592 906.343,-60.281 898.548,-56.2199"/>
<polygon fill="green" stroke="green" stroke-width="0.398136" points="900.112,-53.0878 889.638,-51.4947 896.832,-59.272 900.112,-53.0878"/>
</g>
<!-- distancia projetil 11&#45;&gt;direita -->
<g id="edge51" class="edge"><title>distancia projetil 11&#45;&gt;direita</title>
<path fill="none" stroke="red" stroke-width="0.475153" d="M1055.22,-112.99C1039.99,-100.587 1010.67,-76.7049 988.45,-58.6098"/>
<polygon fill="red" stroke="red" stroke-width="0.475153" points="990.589,-55.8379 980.624,-52.237 986.168,-61.2657 990.589,-55.8379"/>
</g>
<!-- distancia projetil 11&#45;&gt;pular -->
<g id="edge20" class="edge"><title>distancia projetil 11&#45;&gt;pular</title>
<path fill="none" stroke="green" stroke-width="0.121782" stroke-dasharray="1,5" d="M1065.77,-112.99C1066.24,-102.881 1067.06,-85.1487 1067.8,-69.1379"/>
<polygon fill="green" stroke="green" stroke-width="0.121782" points="1071.31,-69.1139 1068.27,-58.9626 1064.31,-68.7899 1071.31,-69.1139"/>
</g>
<!-- distancia projetil 11&#45;&gt;atirar -->
<g id="edge91" class="edge"><title>distancia projetil 11&#45;&gt;atirar</title>
<path fill="none" stroke="red" stroke-width="0.17602" d="M1089.91,-113.165C1132.72,-98.9917 1217.19,-70.9072 1223.39,-67.8823 1230.74,-64.2907 1238.3,-59.7916 1245.25,-55.2832"/>
<polygon fill="red" stroke="red" stroke-width="0.17602" points="1247.31,-58.1178 1253.65,-49.6352 1243.4,-52.3078 1247.31,-58.1178"/>
</g>
<!-- distancia projetil 11&#45;&gt;release -->
<g id="edge61" class="edge"><title>distancia projetil 11&#45;&gt;release</title>
<path fill="none" stroke="green" stroke-width="0.433552" d="M1075.17,-112.99C1089.49,-100.866 1116.78,-77.7732 1137.97,-59.8392"/>
<polygon fill="green" stroke="green" stroke-width="0.433552" points="1140.38,-62.3838 1145.75,-53.2519 1135.86,-57.0406 1140.38,-62.3838"/>
</g>
<!-- distancia projetil 12 -->
<g id="node12" class="node"><title>distancia projetil 12</title>
<polygon fill="lightgray" stroke="black" points="1215.39,-131.267 1127.39,-131.267 1127.39,-113.267 1215.39,-113.267 1215.39,-131.267"/>
<text text-anchor="middle" x="1171.39" y="-120.067" font-family="Times New Roman,serif" font-size="9.00">distancia projetil 12</text>
</g>
<!-- distancia projetil 12&#45;&gt;esquerda -->
<g id="edge29" class="edge"><title>distancia projetil 12&#45;&gt;esquerda</title>
<path fill="none" stroke="red" stroke-width="0.310056" d="M1149.15,-113.23C1139.74,-110.025 1128.62,-106.487 1118.39,-103.882 1032.56,-82.03 1006.03,-97.002 922.387,-67.8823 914.196,-65.0307 905.768,-61.2193 897.869,-57.2021"/>
<polygon fill="red" stroke="red" stroke-width="0.310056" points="899.357,-54.03 888.883,-52.4367 896.078,-60.2141 899.357,-54.03"/>
</g>
<!-- distancia projetil 12&#45;&gt;direita -->
<g id="edge59" class="edge"><title>distancia projetil 12&#45;&gt;direita</title>
<path fill="none" stroke="green" stroke-width="0.147168" d="M1150.09,-113.173C1123.24,-102.906 1075.71,-84.5305 1035.39,-67.8823 1021.72,-62.2412 1006.78,-55.819 993.784,-50.1525"/>
<polygon fill="green" stroke="green" stroke-width="0.147168" points="994.846,-46.7966 984.281,-45.9921 992.038,-53.2089 994.846,-46.7966"/>
</g>
<!-- distancia projetil 12&#45;&gt;pular -->
<g id="edge89" class="edge"><title>distancia projetil 12&#45;&gt;pular</title>
<path fill="none" stroke="red" stroke-width="0.142308" d="M1161.61,-112.99C1146.57,-100.267 1117.27,-75.4657 1095.71,-57.2219"/>
<polygon fill="red" stroke="red" stroke-width="0.142308" points="1097.77,-54.3784 1087.88,-50.5897 1093.25,-59.7216 1097.77,-54.3784"/>
</g>
<!-- distancia projetil 12&#45;&gt;atirar -->
<g id="edge18" class="edge"><title>distancia projetil 12&#45;&gt;atirar</title>
<path fill="none" stroke="red" stroke-width="0.306542" d="M1181.17,-112.99C1196.2,-100.267 1225.5,-75.4657 1247.06,-57.2219"/>
<polygon fill="red" stroke="red" stroke-width="0.306542" points="1249.52,-59.7216 1254.9,-50.5897 1245,-54.3784 1249.52,-59.7216"/>
</g>
<!-- distancia projetil 12&#45;&gt;release -->
<g id="edge7" class="edge"><title>distancia projetil 12&#45;&gt;release</title>
<path fill="none" stroke="green" stroke-width="0.112168" d="M1171,-112.99C1170.57,-103.732 1169.85,-88.0791 1169.16,-73.2108"/>
<polygon fill="green" stroke="green" stroke-width="0.112168" points="1172.65,-72.9582 1168.69,-63.1309 1165.66,-73.2822 1172.65,-72.9582"/>
</g>
<!-- distancia projetil 13 -->
<g id="node13" class="node"><title>distancia projetil 13</title>
<polygon fill="lightgray" stroke="black" points="2069.39,-131.267 1981.39,-131.267 1981.39,-113.267 2069.39,-113.267 2069.39,-131.267"/>
<text text-anchor="middle" x="2025.39" y="-120.067" font-family="Times New Roman,serif" font-size="9.00">distancia projetil 13</text>
</g>
<!-- distancia projetil 13&#45;&gt;direita -->
<g id="edge47" class="edge"><title>distancia projetil 13&#45;&gt;direita</title>
<path fill="none" stroke="green" stroke-width="0.150387" d="M2005.34,-113.228C1995.57,-109.688 1983.54,-105.885 1972.39,-103.882 1562.2,-30.2233 1441.75,-160.333 1035.39,-67.8823 1020.72,-64.5451 1005.35,-58.4348 992.297,-52.3749"/>
<polygon fill="green" stroke="green" stroke-width="0.150387" points="993.776,-49.2024 983.249,-48.0118 990.736,-55.5077 993.776,-49.2024"/>
</g>
<!-- distancia projetil 13&#45;&gt;pular -->
<g id="edge35" class="edge"><title>distancia projetil 13&#45;&gt;pular</title>
<path fill="none" stroke="red" stroke-width="0.252669" d="M2005.34,-113.249C1995.56,-109.714 1983.53,-105.909 1972.39,-103.882 1787.91,-70.3472 1309.98,-118.326 1129.39,-67.8823 1118.55,-64.8539 1107.51,-59.5564 1097.91,-54.0837"/>
<polygon fill="red" stroke="red" stroke-width="0.252669" points="1099.58,-51.0005 1089.2,-48.8513 1095.97,-57.0011 1099.58,-51.0005"/>
</g>
<!-- distancia projetil 13&#45;&gt;atirar -->
<g id="edge5" class="edge"><title>distancia projetil 13&#45;&gt;atirar</title>
<path fill="none" stroke="red" stroke-width="0.147951" d="M2004.53,-113.255C1994.88,-109.854 1983.19,-106.158 1972.39,-103.882 1721.44,-51.0154 1411.06,-38.4829 1308.26,-35.6934"/>
<polygon fill="red" stroke="red" stroke-width="0.147951" points="1308.22,-32.1914 1298.14,-35.4325 1308.04,-39.1891 1308.22,-32.1914"/>
</g>
<!-- distancia projetil 13&#45;&gt;release -->
<g id="edge97" class="edge"><title>distancia projetil 13&#45;&gt;release</title>
<path fill="none" stroke="red" stroke-width="0.46244" stroke-dasharray="1,5" d="M2005.08,-113.19C1995.35,-109.688 1983.43,-105.927 1972.39,-103.882 1651.66,-44.5209 1556.28,-145.122 1239.39,-67.8823 1226.43,-64.7229 1212.94,-59.2244 1201.2,-53.6145"/>
<polygon fill="red" stroke="red" stroke-width="0.46244" points="1202.71,-50.4557 1192.19,-49.1342 1199.59,-56.7227 1202.71,-50.4557"/>
</g>
<!-- distancia projetil 14 -->
<g id="node14" class="node"><title>distancia projetil 14</title>
<polygon fill="lightgray" stroke="black" points="1321.39,-131.267 1233.39,-131.267 1233.39,-113.267 1321.39,-113.267 1321.39,-131.267"/>
<text text-anchor="middle" x="1277.39" y="-120.067" font-family="Times New Roman,serif" font-size="9.00">distancia projetil 14</text>
</g>
<!-- distancia projetil 14&#45;&gt;esquerda -->
<g id="edge17" class="edge"><title>distancia projetil 14&#45;&gt;esquerda</title>
<path fill="none" stroke="red" stroke-width="0.153799" stroke-dasharray="1,5" d="M1256,-113.178C1246.44,-109.846 1234.98,-106.226 1224.39,-103.882 1092.41,-74.6738 1051.38,-108.282 922.387,-67.8823 914.11,-65.2901 905.644,-61.5939 897.734,-57.6078"/>
<polygon fill="red" stroke="red" stroke-width="0.153799" points="899.223,-54.4356 888.748,-52.844 895.944,-60.6203 899.223,-54.4356"/>
</g>
<!-- distancia projetil 14&#45;&gt;direita -->
<g id="edge49" class="edge"><title>distancia projetil 14&#45;&gt;direita</title>
<path fill="none" stroke="red" stroke-width="0.734705" d="M1255.14,-113.263C1245.73,-110.063 1234.61,-106.52 1224.39,-103.882 1141.59,-82.5123 1117.11,-93.0385 1035.39,-67.8823 1021.26,-63.5333 1006.22,-57.3655 993.285,-51.5408"/>
<polygon fill="red" stroke="red" stroke-width="0.734705" points="994.398,-48.1996 983.851,-47.1893 991.466,-54.556 994.398,-48.1996"/>
</g>
<!-- distancia projetil 14&#45;&gt;pular -->
<g id="edge57" class="edge"><title>distancia projetil 14&#45;&gt;pular</title>
<path fill="none" stroke="red" stroke-width="0.400287" d="M1253.7,-113.229C1218.01,-101.028 1152.17,-78.1678 1129.39,-67.8823 1119.29,-63.3239 1108.59,-57.7179 1099.07,-52.4314"/>
<polygon fill="red" stroke="red" stroke-width="0.400287" points="1100.78,-49.3802 1090.36,-47.5056 1097.34,-55.4738 1100.78,-49.3802"/>
</g>
<!-- distancia projetil 14&#45;&gt;atirar -->
<g id="edge87" class="edge"><title>distancia projetil 14&#45;&gt;atirar</title>
<path fill="none" stroke="green" stroke-width="0.328004" d="M1277,-112.99C1276.53,-102.881 1275.71,-85.1487 1274.97,-69.1379"/>
<polygon fill="green" stroke="green" stroke-width="0.328004" points="1278.46,-68.7899 1274.5,-58.9626 1271.47,-69.1139 1278.46,-68.7899"/>
</g>
<!-- distancia projetil 14&#45;&gt;release -->
<g id="edge98" class="edge"><title>distancia projetil 14&#45;&gt;release</title>
<path fill="none" stroke="green" stroke-width="0.149639" d="M1266.84,-112.99C1251.13,-100.662 1220.97,-76.994 1197.97,-58.9394"/>
<polygon fill="green" stroke="green" stroke-width="0.149639" points="1199.88,-55.9935 1189.85,-52.5731 1195.56,-61.5002 1199.88,-55.9935"/>
</g>
<!-- distancia projetil 15 -->
<g id="node15" class="node"><title>distancia projetil 15</title>
<polygon fill="lightgray" stroke="black" points="1963.39,-131.267 1875.39,-131.267 1875.39,-113.267 1963.39,-113.267 1963.39,-131.267"/>
<text text-anchor="middle" x="1919.39" y="-120.067" font-family="Times New Roman,serif" font-size="9.00">distancia projetil 15</text>
</g>
<!-- distancia projetil 15&#45;&gt;direita -->
<g id="edge34" class="edge"><title>distancia projetil 15&#45;&gt;direita</title>
<path fill="none" stroke="red" stroke-width="0.18151" d="M1899.34,-113.252C1889.56,-109.718 1877.53,-105.912 1866.39,-103.882 1502.69,-37.6531 1395.65,-150.772 1035.39,-67.8823 1020.73,-64.5092 1005.36,-58.3923 992.306,-52.3373"/>
<polygon fill="red" stroke="red" stroke-width="0.18151" points="993.784,-49.1645 983.256,-47.9794 990.747,-55.4714 993.784,-49.1645"/>
</g>
<!-- distancia projetil 15&#45;&gt;pular -->
<g id="edge3" class="edge"><title>distancia projetil 15&#45;&gt;pular</title>
<path fill="none" stroke="red" stroke-width="0.286941" d="M1899.08,-113.189C1889.35,-109.686 1877.43,-105.925 1866.39,-103.882 1543.91,-44.2406 1444.97,-157.077 1129.39,-67.8823 1118.55,-64.8207 1107.52,-59.5146 1097.92,-54.0442"/>
<polygon fill="red" stroke="red" stroke-width="0.286941" points="1099.59,-50.9608 1089.21,-48.8169 1095.99,-56.9633 1099.59,-50.9608"/>
</g>
<!-- distancia projetil 15&#45;&gt;atirar -->
<g id="edge74" class="edge"><title>distancia projetil 15&#45;&gt;atirar</title>
<path fill="none" stroke="green" stroke-width="0.215199" d="M1898.25,-113.253C1888.65,-109.894 1877.07,-106.231 1866.39,-103.882 1657.76,-58.0298 1400.72,-41.3234 1308.43,-36.5521"/>
<polygon fill="green" stroke="green" stroke-width="0.215199" points="1308.42,-33.0472 1298.25,-36.0405 1308.06,-40.0384 1308.42,-33.0472"/>
</g>
<!-- distancia projetil 15&#45;&gt;release -->
<g id="edge84" class="edge"><title>distancia projetil 15&#45;&gt;release</title>
<path fill="none" stroke="green" stroke-width="0.33898" d="M1899.07,-113.231C1889.34,-109.738 1877.42,-105.972 1866.39,-103.882 1592.14,-51.947 1510.3,-135.104 1239.39,-67.8823 1226.44,-64.6693 1212.96,-59.1578 1201.21,-53.5525"/>
<polygon fill="green" stroke="green" stroke-width="0.33898" points="1202.72,-50.3933 1192.21,-49.0791 1199.61,-56.6625 1202.72,-50.3933"/>
</g>
<!-- distancia projetil 16 -->
<g id="node16" class="node"><title>distancia projetil 16</title>
<polygon fill="lightgray" stroke="black" points="1427.39,-131.267 1339.39,-131.267 1339.39,-113.267 1427.39,-113.267 1427.39,-131.267"/>
<text text-anchor="middle" x="1383.39" y="-120.067" font-family="Times New Roman,serif" font-size="9.00">distancia projetil 16</text>
</g>
<!-- distancia projetil 16&#45;&gt;esquerda -->
<g id="edge11" class="edge"><title>distancia projetil 16&#45;&gt;esquerda</title>
<path fill="none" stroke="red" stroke-width="0.149827" d="M1362.54,-113.203C1352.89,-109.793 1341.2,-106.102 1330.39,-103.882 1152.07,-67.2743 1096.92,-119.621 922.387,-67.8823 914.071,-65.4172 905.589,-61.7775 897.674,-57.8066"/>
<polygon fill="red" stroke="red" stroke-width="0.149827" points="899.162,-54.6343 888.688,-53.0435 895.884,-60.8192 899.162,-54.6343"/>
</g>
<!-- distancia projetil 16&#45;&gt;direita -->
<g id="edge43" class="edge"><title>distancia projetil 16&#45;&gt;direita</title>
<path fill="none" stroke="green" stroke-width="0.432632" d="M1361.99,-113.192C1352.44,-109.863 1340.97,-106.241 1330.39,-103.882 1201.46,-75.1615 1162.85,-102.503 1035.39,-67.8823 1021.12,-64.0075 1006.06,-57.933 993.137,-52.0502"/>
<polygon fill="green" stroke="green" stroke-width="0.432632" points="994.263,-48.7121 983.724,-47.6286 991.287,-55.048 994.263,-48.7121"/>
</g>
<!-- distancia projetil 16&#45;&gt;pular -->
<g id="edge73" class="edge"><title>distancia projetil 16&#45;&gt;pular</title>
<path fill="none" stroke="green" stroke-width="0.511405" d="M1361.15,-113.207C1351.75,-109.999 1340.62,-106.464 1330.39,-103.882 1242.39,-81.6851 1214.96,-98.1185 1129.39,-67.8823 1118.86,-64.1619 1107.97,-58.7344 1098.42,-53.3543"/>
<polygon fill="green" stroke="green" stroke-width="0.511405" points="1100.11,-50.2913 1089.71,-48.2678 1096.58,-56.335 1100.11,-50.2913"/>
</g>
<!-- distancia projetil 16&#45;&gt;atirar -->
<g id="edge2" class="edge"><title>distancia projetil 16&#45;&gt;atirar</title>
<path fill="none" stroke="green" stroke-width="0.110357" d="M1372.84,-112.99C1356.36,-100.061 1324,-74.6579 1300.65,-56.3393"/>
<polygon fill="green" stroke="green" stroke-width="0.110357" points="1302.54,-53.3675 1292.51,-49.9471 1298.21,-58.8742 1302.54,-53.3675"/>
</g>
<!-- distancia projetil 16&#45;&gt;release -->
<g id="edge33" class="edge"><title>distancia projetil 16&#45;&gt;release</title>
<path fill="none" stroke="red" stroke-width="0.418747" d="M1359.99,-113.193C1331.32,-103.165 1281.4,-85.2519 1239.39,-67.8823 1227.28,-62.8762 1214.21,-57.0316 1202.57,-51.6667"/>
<polygon fill="red" stroke="red" stroke-width="0.418747" points="1203.72,-48.344 1193.18,-47.302 1200.77,-54.6916 1203.72,-48.344"/>
</g>
<!-- distancia inimigo 1 -->
<g id="node17" class="node"><title>distancia inimigo 1</title>
<polygon fill="lightgray" stroke="black" points="1856.89,-131.267 1773.89,-131.267 1773.89,-113.267 1856.89,-113.267 1856.89,-131.267"/>
<text text-anchor="middle" x="1815.39" y="-120.067" font-family="Times New Roman,serif" font-size="9.00">distancia inimigo 1</text>
</g>
<!-- distancia inimigo 1&#45;&gt;esquerda -->
<g id="edge28" class="edge"><title>distancia inimigo 1&#45;&gt;esquerda</title>
<path fill="none" stroke="green" stroke-width="0.146787" stroke-dasharray="1,5" d="M1795.88,-113.153C1786.52,-109.642 1775.05,-105.885 1764.39,-103.882 1580.32,-69.3169 1103.1,-117.033 922.387,-67.8823 914.018,-65.606 905.511,-62.0502 897.59,-58.102"/>
<polygon fill="green" stroke="green" stroke-width="0.146787" points="899.078,-54.9297 888.603,-53.34 895.801,-61.1149 899.078,-54.9297"/>
</g>
<!-- distancia inimigo 1&#45;&gt;pular -->
<g id="edge88" class="edge"><title>distancia inimigo 1&#45;&gt;pular</title>
<path fill="none" stroke="red" stroke-width="0.280185" d="M1795.87,-113.219C1786.51,-109.723 1775.04,-105.959 1764.39,-103.882 1486.94,-49.7808 1401.1,-145.828 1129.39,-67.8823 1118.57,-64.7783 1107.54,-59.4612 1097.94,-53.9937"/>
<polygon fill="red" stroke="red" stroke-width="0.280185" points="1099.6,-50.9103 1089.22,-48.773 1096,-56.915 1099.6,-50.9103"/>
</g>
<!-- distancia inimigo 1&#45;&gt;atirar -->
<g id="edge58" class="edge"><title>distancia inimigo 1&#45;&gt;atirar</title>
<path fill="none" stroke="green" stroke-width="0.138833" d="M1794.8,-113.259C1785.61,-109.943 1774.58,-106.312 1764.39,-103.882 1596.1,-63.767 1389.43,-44.1476 1308.36,-37.5671"/>
<polygon fill="green" stroke="green" stroke-width="0.138833" points="1308.46,-34.0641 1298.22,-36.7589 1307.91,-41.042 1308.46,-34.0641"/>
</g>
<!-- distancia inimigo 1&#45;&gt;release -->
<g id="edge30" class="edge"><title>distancia inimigo 1&#45;&gt;release</title>
<path fill="none" stroke="red" stroke-width="0.912874" d="M1795.37,-113.095C1786.1,-109.663 1774.84,-105.985 1764.39,-103.882 1535.1,-57.7623 1466.07,-125.468 1239.39,-67.8823 1226.46,-64.5974 1212.98,-59.0686 1201.23,-53.4694"/>
<polygon fill="red" stroke="red" stroke-width="0.912874" points="1202.74,-50.3097 1192.23,-49.0053 1199.63,-56.5818 1202.74,-50.3097"/>
</g>
<!-- distancia inimigo 2 -->
<g id="node18" class="node"><title>distancia inimigo 2</title>
<polygon fill="lightgray" stroke="black" points="1528.89,-131.267 1445.89,-131.267 1445.89,-113.267 1528.89,-113.267 1528.89,-131.267"/>
<text text-anchor="middle" x="1487.39" y="-120.067" font-family="Times New Roman,serif" font-size="9.00">distancia inimigo 2</text>
</g>
<!-- distancia inimigo 2&#45;&gt;esquerda -->
<g id="edge75" class="edge"><title>distancia inimigo 2&#45;&gt;esquerda</title>
<path fill="none" stroke="green" stroke-width="0.464198" d="M1467.37,-113.102C1458.1,-109.671 1446.84,-105.993 1436.39,-103.882 1211.91,-58.5601 1142.53,-130.982 922.387,-67.8823 914.049,-65.4925 905.557,-61.8862 897.639,-57.9243"/>
<polygon fill="green" stroke="green" stroke-width="0.464198" points="899.128,-54.7521 888.653,-53.1617 895.85,-60.9371 899.128,-54.7521"/>
</g>
<!-- distancia inimigo 2&#45;&gt;direita -->
<g id="edge4" class="edge"><title>distancia inimigo 2&#45;&gt;direita</title>
<path fill="none" stroke="red" stroke-width="0.460358" stroke-dasharray="1,5" d="M1467.35,-113.197C1458.07,-109.785 1446.82,-106.095 1436.39,-103.882 1261.34,-66.7504 1208.8,-112.025 1035.39,-67.8823 1020.81,-64.1712 1005.45,-57.9925 992.392,-51.9827"/>
<polygon fill="red" stroke="red" stroke-width="0.460358" points="993.864,-48.8071 983.33,-47.6741 990.858,-55.129 993.864,-48.8071"/>
</g>
<!-- distancia inimigo 2&#45;&gt;pular -->
<g id="edge12" class="edge"><title>distancia inimigo 2&#45;&gt;pular</title>
<path fill="none" stroke="green" stroke-width="0.399749" d="M1466.83,-113.149C1457.64,-109.812 1446.61,-106.196 1436.39,-103.882 1302.4,-73.5498 1260.24,-109.714 1129.39,-67.8823 1118.75,-64.4821 1107.84,-59.1397 1098.29,-53.739"/>
<polygon fill="green" stroke="green" stroke-width="0.399749" points="1099.99,-50.6791 1089.6,-48.6047 1096.43,-56.7055 1099.99,-50.6791"/>
</g>
<!-- distancia inimigo 2&#45;&gt;atirar -->
<g id="edge46" class="edge"><title>distancia inimigo 2&#45;&gt;atirar</title>
<path fill="none" stroke="red" stroke-width="0.213767" d="M1467.25,-113.146C1430.11,-98.1617 1350.51,-66.0519 1305.72,-47.9837"/>
<polygon fill="red" stroke="red" stroke-width="0.213767" points="1306.77,-44.6338 1296.19,-44.1386 1304.15,-51.1255 1306.77,-44.6338"/>
</g>
<!-- distancia inimigo 2&#45;&gt;release -->
<g id="edge95" class="edge"><title>distancia inimigo 2&#45;&gt;release</title>
<path fill="none" stroke="red" stroke-width="0.659204" d="M1465.76,-113.106C1456.77,-109.919 1446.16,-106.427 1436.39,-103.882 1350.25,-81.4624 1324.29,-94.6029 1239.39,-67.8823 1226.89,-63.9489 1213.72,-58.3782 1202.11,-52.9346"/>
<polygon fill="red" stroke="red" stroke-width="0.659204" points="1203.3,-49.6226 1192.77,-48.4306 1200.25,-55.9275 1203.3,-49.6226"/>
</g>
<!-- direcao sprites 1 -->
<g id="node19" class="node"><title>direcao sprites 1</title>
<polygon fill="lightgray" stroke="black" points="1623.39,-131.267 1547.39,-131.267 1547.39,-113.267 1623.39,-113.267 1623.39,-131.267"/>
<text text-anchor="middle" x="1585.39" y="-120.067" font-family="Times New Roman,serif" font-size="9.00">direcao sprites 1</text>
</g>
<!-- direcao sprites 1&#45;&gt;esquerda -->
<g id="edge16" class="edge"><title>direcao sprites 1&#45;&gt;esquerda</title>
<path fill="none" stroke="green" stroke-width="0.181997" d="M1567.45,-113.211C1558.84,-109.713 1548.26,-105.95 1538.39,-103.882 1269.96,-47.6983 1186.45,-141.924 922.387,-67.8823 914.036,-65.5406 905.537,-61.9558 897.618,-57.9997"/>
<polygon fill="green" stroke="green" stroke-width="0.181997" points="899.107,-54.8274 888.632,-53.2373 895.829,-61.0125 899.107,-54.8274"/>
</g>
<!-- direcao sprites 1&#45;&gt;direita -->
<g id="edge85" class="edge"><title>direcao sprites 1&#45;&gt;direita</title>
<path fill="none" stroke="red" stroke-width="0.670391" d="M1566.99,-113.088C1558.46,-109.654 1548.08,-105.978 1538.39,-103.882 1319.32,-56.5328 1253.08,-121.206 1035.39,-67.8823 1020.78,-64.3032 1005.41,-58.1487 992.357,-52.1211"/>
<polygon fill="red" stroke="red" stroke-width="0.670391" points="993.832,-48.9468 983.3,-47.7933 990.814,-55.2627 993.832,-48.9468"/>
</g>
<!-- direcao sprites 1&#45;&gt;pular -->
<g id="edge56" class="edge"><title>direcao sprites 1&#45;&gt;pular</title>
<path fill="none" stroke="green" stroke-width="0.238981" d="M1566.98,-113.161C1558.44,-109.742 1548.06,-106.057 1538.39,-103.882 1360.35,-63.8748 1303.99,-120.926 1129.39,-67.8823 1118.7,-64.6363 1107.78,-59.3349 1098.23,-53.9244"/>
<polygon fill="green" stroke="green" stroke-width="0.238981" points="1099.93,-50.8656 1089.55,-48.7671 1096.36,-56.8837 1099.93,-50.8656"/>
</g>
<!-- direcao sprites 1&#45;&gt;atirar -->
<g id="edge27" class="edge"><title>direcao sprites 1&#45;&gt;atirar</title>
<path fill="none" stroke="green" stroke-width="0.373368" d="M1564.95,-113.203C1556.76,-110.102 1547.18,-106.646 1538.39,-103.882 1456.29,-78.0891 1357.79,-54.3008 1307.13,-42.5798"/>
<polygon fill="green" stroke="green" stroke-width="0.373368" points="1307.9,-39.1642 1297.37,-40.3324 1306.33,-45.9859 1307.9,-39.1642"/>
</g>
<!-- direcao sprites 1&#45;&gt;release -->
<g id="edge96" class="edge"><title>direcao sprites 1&#45;&gt;release</title>
<path fill="none" stroke="green" stroke-width="0.226674" d="M1566.49,-113.125C1558.04,-109.784 1547.86,-106.171 1538.39,-103.882 1408.28,-72.4493 1368.23,-104.158 1239.39,-67.8823 1226.78,-64.3314 1213.57,-58.8583 1201.97,-53.3867"/>
<polygon fill="green" stroke="green" stroke-width="0.226674" points="1203.17,-50.0769 1192.65,-48.833 1200.1,-56.3667 1203.17,-50.0769"/>
</g>
<!-- direcao sprites 2 -->
<g id="node20" class="node"><title>direcao sprites 2</title>
<polygon fill="lightgray" stroke="black" points="1755.39,-131.267 1679.39,-131.267 1679.39,-113.267 1755.39,-113.267 1755.39,-131.267"/>
<text text-anchor="middle" x="1717.39" y="-120.067" font-family="Times New Roman,serif" font-size="9.00">direcao sprites 2</text>
</g>
<!-- direcao sprites 2&#45;&gt;esquerda -->
<g id="edge65" class="edge"><title>direcao sprites 2&#45;&gt;esquerda</title>
<path fill="none" stroke="green" stroke-width="0.471064" d="M1684.07,-113.239C1668.47,-109.792 1649.57,-106.063 1632.39,-103.882 1475.66,-83.9976 1074.66,-109.948 922.387,-67.8823 914.027,-65.5729 905.524,-62.0023 897.604,-58.0501"/>
<polygon fill="green" stroke="green" stroke-width="0.471064" points="899.092,-54.8778 888.618,-53.2879 895.815,-61.063 899.092,-54.8778"/>
</g>
<!-- direcao sprites 2&#45;&gt;pular -->
<g id="edge26" class="edge"><title>direcao sprites 2&#45;&gt;pular</title>
<path fill="none" stroke="green" stroke-width="0.273162" d="M1696.97,-113.094C1687.51,-109.661 1676.03,-105.983 1665.39,-103.882 1431.15,-57.6534 1358.54,-134.914 1129.39,-67.8823 1118.67,-64.7472 1107.74,-59.4753 1098.19,-54.0577"/>
<polygon fill="green" stroke="green" stroke-width="0.273162" points="1099.89,-50.9995 1089.51,-48.8838 1096.31,-57.0117 1099.89,-50.9995"/>
</g>
<!-- direcao sprites 2&#45;&gt;atirar -->
<g id="edge55" class="edge"><title>direcao sprites 2&#45;&gt;atirar</title>
<path fill="none" stroke="green" stroke-width="1.33882" stroke-dasharray="1,5" d="M1695.84,-113.265C1686.56,-110.028 1675.54,-106.456 1665.39,-103.882 1535.37,-70.9095 1377.14,-48.3022 1308.24,-39.299"/>
<polygon fill="green" stroke="green" stroke-width="1.33882" points="1308.33,-35.782 1297.97,-37.9713 1307.44,-42.7242 1308.33,-35.782"/>
</g>
<!-- direcao sprites 2&#45;&gt;release -->
<g id="edge44" class="edge"><title>direcao sprites 2&#45;&gt;release</title>
<path fill="none" stroke="red" stroke-width="0.102888" d="M1696.95,-113.178C1687.49,-109.762 1676.01,-106.075 1665.39,-103.882 1479.3,-65.4868 1423.17,-116.123 1239.39,-67.8823 1226.48,-64.4951 1213.01,-58.9415 1201.26,-53.351"/>
<polygon fill="red" stroke="red" stroke-width="0.102888" points="1202.77,-50.1906 1192.25,-48.9003 1199.67,-56.4668 1202.77,-50.1906"/>
</g>
<!-- esquerda&#45;&gt;esquerda -->
<g id="edge86" class="edge"><title>esquerda&#45;&gt;esquerda</title>
<path fill="none" stroke="red" stroke-width="0.552295" d="M890.277,-50.3404C902.266,-51.2669 912.328,-45.8005 912.328,-33.9411 912.328,-25.7878 907.572,-20.6561 900.704,-18.5462"/>
<polygon fill="red" stroke="red" stroke-width="0.552295" points="900.567,-15.0169 890.277,-17.5418 899.896,-21.9846 900.567,-15.0169"/>
</g>
<!-- direita&#45;&gt;direita -->
<g id="edge13" class="edge"><title>direita&#45;&gt;direita</title>
<path fill="none" stroke="red" stroke-width="0.417489" d="M982.369,-49.861C994.252,-52.3103 1004.96,-47.0036 1004.96,-33.9411 1004.96,-24.7566 999.668,-19.4064 992.393,-17.8906"/>
<polygon fill="red" stroke="red" stroke-width="0.417489" points="992.322,-14.3911 982.369,-18.0212 992.414,-21.3905 992.322,-14.3911"/>
</g>
<!-- pular&#45;&gt;pular -->
<g id="edge37" class="edge"><title>pular&#45;&gt;pular</title>
<path fill="none" stroke="red" stroke-width="0.460102" d="M1089.17,-49.4099C1101,-52.8474 1112.14,-47.6911 1112.14,-33.9411 1112.14,-24.2732 1106.63,-18.8538 1099.25,-17.6831"/>
<polygon fill="red" stroke="red" stroke-width="0.460102" points="1098.87,-14.2021 1089.17,-18.4724 1099.42,-21.1808 1098.87,-14.2021"/>
</g>
<!-- atirar&#45;&gt;atirar -->
<g id="edge78" class="edge"><title>atirar&#45;&gt;atirar</title>
<path fill="none" stroke="red" stroke-width="0.228493" d="M1293.17,-49.4099C1305,-52.8474 1316.14,-47.6911 1316.14,-33.9411 1316.14,-24.2732 1310.63,-18.8538 1303.25,-17.6831"/>
<polygon fill="red" stroke="red" stroke-width="0.228493" points="1302.87,-14.2021 1293.17,-18.4724 1303.42,-21.1808 1302.87,-14.2021"/>
</g>
<!-- release&#45;&gt;release -->
<g id="edge81" class="edge"><title>release&#45;&gt;release</title>
<path fill="none" stroke="green" stroke-width="0.655716" d="M1191.56,-49.9537C1203.62,-52.1693 1214.38,-46.8318 1214.38,-33.9411 1214.38,-24.8774 1209.06,-19.5478 1201.71,-17.9524"/>
<polygon fill="green" stroke="green" stroke-width="0.655716" points="1201.57,-14.4521 1191.56,-17.9286 1201.56,-21.4521 1201.57,-14.4521"/>
</g>
<!-- 34&#45;&gt;esquerda -->
<g id="edge19" class="edge"><title>34&#45;&gt;esquerda</title>
<path fill="none" stroke="green" stroke-width="0.334239" d="M50.4505,-111.432C55.6214,-108.512 61.5745,-105.631 67.3868,-103.882 209.402,-61.1639 670.691,-41.6161 816.076,-36.4137"/>
<polygon fill="green" stroke="green" stroke-width="0.334239" points="816.517,-39.9004 826.388,-36.05 816.271,-32.9048 816.517,-39.9004"/>
</g>
</g>
</svg>
