<?xml version="1.0" encoding="UTF-8" standalone="no"?>
<!DOCTYPE svg PUBLIC "-//W3C//DTD SVG 1.1//EN"
 "http://www.w3.org/Graphics/SVG/1.1/DTD/svg11.dtd">
<!-- Generated by graphviz version 2.38.0 (20140413.2041)
 -->
<!-- Title: %3 Pages: 1 -->
<svg width="2036pt" height="130pt"
 viewBox="0.00 0.00 2036.00 129.88" xmlns="http://www.w3.org/2000/svg" xmlns:xlink="http://www.w3.org/1999/xlink">
<g id="graph0" class="graph" transform="scale(1 1) rotate(0) translate(4 125.882)">
<title>%3</title>
<polygon fill="white" stroke="none" points="-4,4 -4,-125.882 2032,-125.882 2032,4 -4,4"/>
<!-- dintancia projetil 1 -->
<g id="node1" class="node"><title>dintancia projetil 1</title>
<polygon fill="lightgray" stroke="black" points="393.5,-121.882 309.5,-121.882 309.5,-103.882 393.5,-103.882 393.5,-121.882"/>
<text text-anchor="middle" x="351.5" y="-110.682" font-family="Times New Roman,serif" font-size="9.00">dintancia projetil 1</text>
</g>
<!-- esquerda -->
<g id="node21" class="node"><title>esquerda</title>
<ellipse fill="lightblue" stroke="black" cx="967.5" cy="-33.9411" rx="33.8824" ry="33.8824"/>
<text text-anchor="middle" x="967.5" y="-31.7411" font-family="Times New Roman,serif" font-size="9.00">esquerda</text>
</g>
<!-- dintancia projetil 1&#45;&gt;esquerda -->
<g id="edge16" class="edge"><title>dintancia projetil 1&#45;&gt;esquerda</title>
<path fill="none" stroke="green" stroke-width="1.0443" d="M393.77,-105.027C396.721,-104.618 399.653,-104.231 402.5,-103.882 582.747,-81.799 629.86,-94.4597 809.5,-67.8823 848.894,-62.054 893.243,-52.5446 924.905,-45.2375"/>
<polygon fill="green" stroke="green" stroke-width="1.0443" points="925.772,-48.6292 934.717,-42.9499 924.183,-41.812 925.772,-48.6292"/>
</g>
<!-- direita -->
<g id="node22" class="node"><title>direita</title>
<ellipse fill="lightblue" stroke="black" cx="1163.5" cy="-33.9411" rx="27.6545" ry="27.6545"/>
<text text-anchor="middle" x="1163.5" y="-31.7411" font-family="Times New Roman,serif" font-size="9.00">direita</text>
</g>
<!-- dintancia projetil 1&#45;&gt;direita -->
<g id="edge18" class="edge"><title>dintancia projetil 1&#45;&gt;direita</title>
<path fill="none" stroke="red" stroke-width="0.235585" stroke-dasharray="1,5" d="M393.756,-104.902C396.711,-104.522 399.647,-104.176 402.5,-103.882 562.076,-87.4292 973.9,-125.804 1123.5,-67.8823 1128.08,-66.1079 1132.53,-63.591 1136.69,-60.7291"/>
<polygon fill="red" stroke="red" stroke-width="0.235585" points="1139,-63.3713 1144.79,-54.4978 1134.73,-57.8246 1139,-63.3713"/>
</g>
<!-- pular -->
<g id="node23" class="node"><title>pular</title>
<ellipse fill="lightblue" stroke="black" cx="1071.5" cy="-33.9411" rx="25" ry="25"/>
<text text-anchor="middle" x="1071.5" y="-31.7411" font-family="Times New Roman,serif" font-size="9.00">pular</text>
</g>
<!-- dintancia projetil 1&#45;&gt;pular -->
<g id="edge11" class="edge"><title>dintancia projetil 1&#45;&gt;pular</title>
<path fill="none" stroke="red" stroke-width="0.416189" d="M393.759,-104.926C396.713,-104.541 399.648,-104.187 402.5,-103.882 541.051,-89.0677 897.875,-116.391 1028.5,-67.8823 1034.63,-65.6049 1040.61,-62.1329 1046.06,-58.2837"/>
<polygon fill="red" stroke="red" stroke-width="0.416189" points="1048.36,-60.9253 1054.14,-52.0419 1044.08,-55.3859 1048.36,-60.9253"/>
</g>
<!-- atirar -->
<g id="node24" class="node"><title>atirar</title>
<ellipse fill="lightblue" stroke="black" cx="757.5" cy="-33.9411" rx="25" ry="25"/>
<text text-anchor="middle" x="757.5" y="-31.7411" font-family="Times New Roman,serif" font-size="9.00">atirar</text>
</g>
<!-- dintancia projetil 1&#45;&gt;atirar -->
<g id="edge66" class="edge"><title>dintancia projetil 1&#45;&gt;atirar</title>
<path fill="none" stroke="red" stroke-width="0.486956" d="M393.8,-103.866C474.522,-88.5682 649.086,-55.4866 723.154,-41.45"/>
<polygon fill="red" stroke="red" stroke-width="0.486956" points="724.156,-44.8224 733.33,-39.5216 722.853,-37.9449 724.156,-44.8224"/>
</g>
<!-- distancia projetil 2 -->
<g id="node2" class="node"><title>distancia projetil 2</title>
<polygon fill="lightgray" stroke="black" points="695,-121.882 612,-121.882 612,-103.882 695,-103.882 695,-121.882"/>
<text text-anchor="middle" x="653.5" y="-110.682" font-family="Times New Roman,serif" font-size="9.00">distancia projetil 2</text>
</g>
<!-- distancia projetil 2&#45;&gt;esquerda -->
<g id="edge3" class="edge"><title>distancia projetil 2&#45;&gt;esquerda</title>
<path fill="none" stroke="green" stroke-width="0.150437" stroke-dasharray="1,5" d="M686.215,-103.866C743.203,-89.9019 860.664,-61.1197 924.282,-45.5311"/>
<polygon fill="green" stroke="green" stroke-width="0.150437" points="925.507,-48.8345 934.387,-43.0551 923.841,-42.0357 925.507,-48.8345"/>
</g>
<!-- distancia projetil 2&#45;&gt;pular -->
<g id="edge47" class="edge"><title>distancia projetil 2&#45;&gt;pular</title>
<path fill="none" stroke="red" stroke-width="0.112372" d="M695.226,-105.181C698.362,-104.725 701.48,-104.287 704.5,-103.882 848.104,-84.6511 894.067,-121.917 1028.5,-67.8823 1034.57,-65.4425 1040.52,-61.8965 1045.96,-58.0254"/>
<polygon fill="red" stroke="red" stroke-width="0.112372" points="1048.26,-60.6685 1054.04,-51.7871 1043.98,-55.1275 1048.26,-60.6685"/>
</g>
<!-- distancia projetil 2&#45;&gt;atirar -->
<g id="edge73" class="edge"><title>distancia projetil 2&#45;&gt;atirar</title>
<path fill="none" stroke="green" stroke-width="0.157645" d="M664.63,-103.648C680.081,-92.2174 708.536,-71.1653 729.894,-55.3648"/>
<polygon fill="green" stroke="green" stroke-width="0.157645" points="732.019,-58.1462 737.977,-49.3849 727.856,-52.5188 732.019,-58.1462"/>
</g>
<!-- release -->
<g id="node25" class="node"><title>release</title>
<ellipse fill="lightblue" stroke="black" cx="1270.5" cy="-33.9411" rx="28.9828" ry="28.9828"/>
<text text-anchor="middle" x="1270.5" y="-31.7411" font-family="Times New Roman,serif" font-size="9.00">release</text>
</g>
<!-- distancia projetil 2&#45;&gt;release -->
<g id="edge80" class="edge"><title>distancia projetil 2&#45;&gt;release</title>
<path fill="none" stroke="red" stroke-width="0.152108" d="M695.21,-105.05C698.35,-104.625 701.473,-104.229 704.5,-103.882 924.089,-78.7347 986.687,-123.88 1200.5,-67.8823 1212.78,-64.6655 1225.54,-59.3327 1236.74,-53.8852"/>
<polygon fill="red" stroke="red" stroke-width="0.152108" points="1238.41,-56.9663 1245.75,-49.3263 1235.25,-50.7213 1238.41,-56.9663"/>
</g>
<!-- distancia projetil 3 -->
<g id="node3" class="node"><title>distancia projetil 3</title>
<polygon fill="lightgray" stroke="black" points="1110,-121.882 1027,-121.882 1027,-103.882 1110,-103.882 1110,-121.882"/>
<text text-anchor="middle" x="1068.5" y="-110.682" font-family="Times New Roman,serif" font-size="9.00">distancia projetil 3</text>
</g>
<!-- distancia projetil 3&#45;&gt;esquerda -->
<g id="edge71" class="edge"><title>distancia projetil 3&#45;&gt;esquerda</title>
<path fill="none" stroke="green" stroke-width="0.374834" d="M1057.69,-103.648C1044.51,-93.6075 1021.59,-76.1435 1002.15,-61.3358"/>
<polygon fill="green" stroke="green" stroke-width="0.374834" points="1004.15,-58.4574 994.07,-55.1816 999.903,-64.0257 1004.15,-58.4574"/>
</g>
<!-- distancia projetil 3&#45;&gt;direita -->
<g id="edge50" class="edge"><title>distancia projetil 3&#45;&gt;direita</title>
<path fill="none" stroke="red" stroke-width="0.193627" d="M1078.67,-103.816C1089.74,-95.0238 1107.93,-80.5208 1123.5,-67.8823 1127.05,-64.9979 1130.77,-61.9589 1134.46,-58.9408"/>
<polygon fill="red" stroke="red" stroke-width="0.193627" points="1136.87,-61.4884 1142.37,-52.4349 1132.42,-56.0805 1136.87,-61.4884"/>
</g>
<!-- distancia projetil 3&#45;&gt;pular -->
<g id="edge34" class="edge"><title>distancia projetil 3&#45;&gt;pular</title>
<path fill="none" stroke="red" stroke-width="0.532753" d="M1068.82,-103.648C1069.15,-95.2667 1069.68,-81.7123 1070.18,-68.8483"/>
<polygon fill="red" stroke="red" stroke-width="0.532753" points="1073.68,-68.9205 1070.57,-58.7917 1066.68,-68.6477 1073.68,-68.9205"/>
</g>
<!-- distancia projetil 3&#45;&gt;atirar -->
<g id="edge12" class="edge"><title>distancia projetil 3&#45;&gt;atirar</title>
<path fill="none" stroke="green" stroke-width="0.347879" d="M1036.1,-103.866C976.829,-89.203 851.519,-58.2014 791.259,-43.2931"/>
<polygon fill="green" stroke="green" stroke-width="0.347879" points="792.027,-39.8776 781.479,-40.8736 790.346,-46.6728 792.027,-39.8776"/>
</g>
<!-- distancia projetil 3&#45;&gt;release -->
<g id="edge81" class="edge"><title>distancia projetil 3&#45;&gt;release</title>
<path fill="none" stroke="red" stroke-width="0.134709" stroke-dasharray="1,5" d="M1095.63,-103.867C1122.56,-95.6733 1164.84,-82.1571 1200.5,-67.8823 1212.19,-63.2024 1224.71,-57.5324 1235.87,-52.2251"/>
<polygon fill="red" stroke="red" stroke-width="0.134709" points="1237.4,-55.3747 1244.89,-47.882 1234.36,-49.068 1237.4,-55.3747"/>
</g>
<!-- distancia projetil 4 -->
<g id="node4" class="node"><title>distancia projetil 4</title>
<polygon fill="lightgray" stroke="black" points="1211,-121.882 1128,-121.882 1128,-103.882 1211,-103.882 1211,-121.882"/>
<text text-anchor="middle" x="1169.5" y="-110.682" font-family="Times New Roman,serif" font-size="9.00">distancia projetil 4</text>
</g>
<!-- distancia projetil 4&#45;&gt;esquerda -->
<g id="edge54" class="edge"><title>distancia projetil 4&#45;&gt;esquerda</title>
<path fill="none" stroke="green" stroke-width="0.202317" stroke-dasharray="1,5" d="M1142.37,-103.867C1115.44,-95.6733 1073.16,-82.1571 1037.5,-67.8823 1027.39,-63.8346 1016.66,-59.0462 1006.72,-54.3924"/>
<polygon fill="green" stroke="green" stroke-width="0.202317" points="1008.01,-51.1309 997.477,-50.0004 1005.01,-57.4535 1008.01,-51.1309"/>
</g>
<!-- distancia projetil 4&#45;&gt;direita -->
<g id="edge75" class="edge"><title>distancia projetil 4&#45;&gt;direita</title>
<path fill="none" stroke="red" stroke-width="0.542369" d="M1168.86,-103.648C1168.25,-95.9124 1167.31,-83.77 1166.38,-71.8311"/>
<polygon fill="red" stroke="red" stroke-width="0.542369" points="1169.84,-71.205 1165.57,-61.5074 1162.86,-71.7493 1169.84,-71.205"/>
</g>
<!-- distancia projetil 4&#45;&gt;pular -->
<g id="edge65" class="edge"><title>distancia projetil 4&#45;&gt;pular</title>
<path fill="none" stroke="green" stroke-width="0.374156" d="M1159.01,-103.648C1144.69,-92.4043 1118.51,-71.851 1098.51,-56.1438"/>
<polygon fill="green" stroke="green" stroke-width="0.374156" points="1100.66,-53.3869 1090.64,-49.9645 1096.34,-58.8928 1100.66,-53.3869"/>
</g>
<!-- distancia projetil 4&#45;&gt;atirar -->
<g id="edge27" class="edge"><title>distancia projetil 4&#45;&gt;atirar</title>
<path fill="none" stroke="green" stroke-width="0.114901" d="M1127.84,-104.624C1079.06,-96.073 995.846,-81.3245 924.5,-67.8823 878.443,-59.2048 825.359,-48.6364 791.63,-41.8503"/>
<polygon fill="green" stroke="green" stroke-width="0.114901" points="792.307,-38.4165 781.813,-39.8719 790.925,-45.2785 792.307,-38.4165"/>
</g>
<!-- distancia projetil 4&#45;&gt;release -->
<g id="edge62" class="edge"><title>distancia projetil 4&#45;&gt;release</title>
<path fill="none" stroke="green" stroke-width="0.172201" d="M1180.31,-103.648C1194.35,-92.9494 1219.46,-73.8222 1239.63,-58.4611"/>
<polygon fill="green" stroke="green" stroke-width="0.172201" points="1241.8,-61.2023 1247.64,-52.3582 1237.56,-55.6339 1241.8,-61.2023"/>
</g>
<!-- distancia projetil 5 -->
<g id="node5" class="node"><title>distancia projetil 5</title>
<polygon fill="lightgray" stroke="black" points="291,-121.882 208,-121.882 208,-103.882 291,-103.882 291,-121.882"/>
<text text-anchor="middle" x="249.5" y="-110.682" font-family="Times New Roman,serif" font-size="9.00">distancia projetil 5</text>
</g>
<!-- distancia projetil 5&#45;&gt;esquerda -->
<g id="edge39" class="edge"><title>distancia projetil 5&#45;&gt;esquerda</title>
<path fill="none" stroke="green" stroke-width="1.24713" stroke-dasharray="1,5" d="M291.209,-105.044C294.349,-104.62 297.472,-104.226 300.5,-103.882 525.838,-78.2868 584.871,-99.0969 809.5,-67.8823 848.943,-62.4012 893.287,-52.8535 924.934,-45.4436"/>
<polygon fill="green" stroke="green" stroke-width="1.24713" points="925.817,-48.8315 934.741,-43.1208 924.204,-42.02 925.817,-48.8315"/>
</g>
<!-- distancia projetil 5&#45;&gt;atirar -->
<g id="edge57" class="edge"><title>distancia projetil 5&#45;&gt;atirar</title>
<path fill="none" stroke="red" stroke-width="0.155256" d="M291.245,-105.314C294.377,-104.827 297.488,-104.346 300.5,-103.882 458.044,-79.6429 646.275,-51.5083 722.697,-40.1202"/>
<polygon fill="red" stroke="red" stroke-width="0.155256" points="723.348,-43.5619 732.723,-38.6266 722.317,-36.6383 723.348,-43.5619"/>
</g>
<!-- distancia projetil 5&#45;&gt;release -->
<g id="edge31" class="edge"><title>distancia projetil 5&#45;&gt;release</title>
<path fill="none" stroke="red" stroke-width="0.143026" d="M291.198,-104.939C294.341,-104.539 297.467,-104.18 300.5,-103.882 499.704,-84.3404 1006.07,-115.443 1200.5,-67.8823 1212.83,-64.8653 1225.6,-59.5848 1236.8,-54.1238"/>
<polygon fill="red" stroke="red" stroke-width="0.143026" points="1238.48,-57.1981 1245.8,-49.5398 1235.3,-50.961 1238.48,-57.1981"/>
</g>
<!-- distancia projetil 6 -->
<g id="node6" class="node"><title>distancia projetil 6</title>
<polygon fill="lightgray" stroke="black" points="1312,-121.882 1229,-121.882 1229,-103.882 1312,-103.882 1312,-121.882"/>
<text text-anchor="middle" x="1270.5" y="-110.682" font-family="Times New Roman,serif" font-size="9.00">distancia projetil 6</text>
</g>
<!-- distancia projetil 6&#45;&gt;esquerda -->
<g id="edge23" class="edge"><title>distancia projetil 6&#45;&gt;esquerda</title>
<path fill="none" stroke="red" stroke-width="0.531541" d="M1228.84,-104.605C1166.78,-93.6761 1055.42,-73.6857 1037.5,-67.8823 1027.14,-64.5263 1016.32,-59.9915 1006.37,-55.3612"/>
<polygon fill="red" stroke="red" stroke-width="0.531541" points="1007.67,-52.1033 997.141,-50.9281 1004.64,-58.4131 1007.67,-52.1033"/>
</g>
<!-- distancia projetil 6&#45;&gt;direita -->
<g id="edge61" class="edge"><title>distancia projetil 6&#45;&gt;direita</title>
<path fill="none" stroke="red" stroke-width="0.227543" d="M1259.05,-103.648C1243.63,-92.5596 1215.62,-72.4173 1193.9,-56.7977"/>
<polygon fill="red" stroke="red" stroke-width="0.227543" points="1195.78,-53.8449 1185.62,-50.8484 1191.7,-59.5281 1195.78,-53.8449"/>
</g>
<!-- distancia projetil 6&#45;&gt;pular -->
<g id="edge72" class="edge"><title>distancia projetil 6&#45;&gt;pular</title>
<path fill="none" stroke="red" stroke-width="0.458715" stroke-dasharray="1,5" d="M1235.9,-103.836C1206.19,-96.3374 1162.57,-83.9088 1126.5,-67.8823 1117.61,-63.933 1108.38,-58.8414 1100.08,-53.8475"/>
<polygon fill="red" stroke="red" stroke-width="0.458715" points="1101.84,-50.8202 1091.5,-48.5256 1098.15,-56.7696 1101.84,-50.8202"/>
</g>
<!-- distancia projetil 6&#45;&gt;atirar -->
<g id="edge77" class="edge"><title>distancia projetil 6&#45;&gt;atirar</title>
<path fill="none" stroke="green" stroke-width="0.406729" d="M1228.78,-105.086C1225.98,-104.667 1223.2,-104.262 1220.5,-103.882 1089.27,-85.4101 1055.38,-88.7197 924.5,-67.8823 878.084,-60.4921 824.883,-49.5698 791.243,-42.3568"/>
<polygon fill="green" stroke="green" stroke-width="0.406729" points="791.974,-38.934 781.461,-40.2453 790.497,-45.7764 791.974,-38.934"/>
</g>
<!-- distancia projetil 6&#45;&gt;release -->
<g id="edge38" class="edge"><title>distancia projetil 6&#45;&gt;release</title>
<path fill="none" stroke="red" stroke-width="0.372014" d="M1270.5,-103.648C1270.5,-96.2873 1270.5,-84.9367 1270.5,-73.568"/>
<polygon fill="red" stroke="red" stroke-width="0.372014" points="1274,-73.2361 1270.5,-63.2361 1267,-73.2361 1274,-73.2361"/>
</g>
<!-- distancia projetil 7 -->
<g id="node7" class="node"><title>distancia projetil 7</title>
<polygon fill="lightgray" stroke="black" points="83,-121.882 0,-121.882 0,-103.882 83,-103.882 83,-121.882"/>
<text text-anchor="middle" x="41.5" y="-110.682" font-family="Times New Roman,serif" font-size="9.00">distancia projetil 7</text>
</g>
<!-- distancia projetil 7&#45;&gt;esquerda -->
<g id="edge70" class="edge"><title>distancia projetil 7&#45;&gt;esquerda</title>
<path fill="none" stroke="red" stroke-width="0.461943" d="M83.2018,-104.974C86.3433,-104.566 89.4689,-104.195 92.5,-103.882 409.881,-71.1141 493.036,-108.566 809.5,-67.8823 848.997,-62.8046 893.335,-53.2124 924.966,-45.6831"/>
<polygon fill="red" stroke="red" stroke-width="0.461943" points="925.867,-49.0664 934.768,-43.3194 924.226,-42.2615 925.867,-49.0664"/>
</g>
<!-- distancia projetil 7&#45;&gt;atirar -->
<g id="edge68" class="edge"><title>distancia projetil 7&#45;&gt;atirar</title>
<path fill="none" stroke="green" stroke-width="0.183654" d="M83.223,-105.156C86.3596,-104.706 89.4783,-104.276 92.5,-103.882 332.929,-72.5841 623.755,-46.4611 722.653,-37.9063"/>
<polygon fill="green" stroke="green" stroke-width="0.183654" points="723.025,-41.3873 732.687,-37.0417 722.424,-34.4132 723.025,-41.3873"/>
</g>
<!-- distancia projetil 8 -->
<g id="node8" class="node"><title>distancia projetil 8</title>
<polygon fill="lightgray" stroke="black" points="1413,-121.882 1330,-121.882 1330,-103.882 1413,-103.882 1413,-121.882"/>
<text text-anchor="middle" x="1371.5" y="-110.682" font-family="Times New Roman,serif" font-size="9.00">distancia projetil 8</text>
</g>
<!-- distancia projetil 8&#45;&gt;esquerda -->
<g id="edge82" class="edge"><title>distancia projetil 8&#45;&gt;esquerda</title>
<path fill="none" stroke="green" stroke-width="0.183469" d="M1329.77,-105.102C1326.98,-104.679 1324.2,-104.269 1321.5,-103.882 1195.56,-85.8291 1159.67,-103.406 1037.5,-67.8823 1027.04,-64.8415 1016.19,-60.4222 1006.23,-55.8027"/>
<polygon fill="green" stroke="green" stroke-width="0.183469" points="1007.54,-52.546 997.011,-51.3508 1004.5,-58.8499 1007.54,-52.546"/>
</g>
<!-- distancia projetil 8&#45;&gt;direita -->
<g id="edge8" class="edge"><title>distancia projetil 8&#45;&gt;direita</title>
<path fill="none" stroke="red" stroke-width="0.248204" d="M1342.07,-103.855C1313.65,-95.8018 1269.58,-82.521 1232.5,-67.8823 1220.64,-63.1984 1207.96,-57.3895 1196.74,-51.9601"/>
<polygon fill="red" stroke="red" stroke-width="0.248204" points="1198.24,-48.7956 1187.72,-47.5217 1195.15,-55.0767 1198.24,-48.7956"/>
</g>
<!-- distancia projetil 8&#45;&gt;pular -->
<g id="edge32" class="edge"><title>distancia projetil 8&#45;&gt;pular</title>
<path fill="none" stroke="green" stroke-width="0.274518" d="M1329.76,-104.789C1262.33,-93.2714 1135.96,-71.4281 1126.5,-67.8823 1117.39,-64.4679 1108.09,-59.5459 1099.8,-54.5435"/>
<polygon fill="green" stroke="green" stroke-width="0.274518" points="1101.57,-51.5225 1091.24,-49.1514 1097.83,-57.4444 1101.57,-51.5225"/>
</g>
<!-- distancia projetil 8&#45;&gt;atirar -->
<g id="edge51" class="edge"><title>distancia projetil 8&#45;&gt;atirar</title>
<path fill="none" stroke="red" stroke-width="0.135425" d="M1329.79,-104.99C1326.99,-104.595 1324.2,-104.221 1321.5,-103.882 1145.7,-81.874 1099.87,-93.0596 924.5,-67.8823 877.976,-61.2029 824.801,-50.1083 791.197,-42.6626"/>
<polygon fill="red" stroke="red" stroke-width="0.135425" points="791.948,-39.2443 781.425,-40.478 790.421,-46.0756 791.948,-39.2443"/>
</g>
<!-- distancia projetil 8&#45;&gt;release -->
<g id="edge14" class="edge"><title>distancia projetil 8&#45;&gt;release</title>
<path fill="none" stroke="red" stroke-width="0.471173" stroke-dasharray="1,5" d="M1360.69,-103.648C1346.65,-92.9494 1321.54,-73.8222 1301.37,-58.4611"/>
<polygon fill="red" stroke="red" stroke-width="0.471173" points="1303.44,-55.6339 1293.36,-52.3582 1299.2,-61.2023 1303.44,-55.6339"/>
</g>
<!-- distancia projetil 9 -->
<g id="node9" class="node"><title>distancia projetil 9</title>
<polygon fill="lightgray" stroke="black" points="1514,-121.882 1431,-121.882 1431,-103.882 1514,-103.882 1514,-121.882"/>
<text text-anchor="middle" x="1472.5" y="-110.682" font-family="Times New Roman,serif" font-size="9.00">distancia projetil 9</text>
</g>
<!-- distancia projetil 9&#45;&gt;esquerda -->
<g id="edge52" class="edge"><title>distancia projetil 9&#45;&gt;esquerda</title>
<path fill="none" stroke="red" stroke-width="0.218649" d="M1430.79,-104.999C1427.99,-104.601 1425.2,-104.225 1422.5,-103.882 1252,-82.2948 1203.29,-113.148 1037.5,-67.8823 1026.9,-64.9869 1015.92,-60.5759 1005.89,-55.9144"/>
<polygon fill="red" stroke="red" stroke-width="0.218649" points="1007.13,-52.6271 996.605,-51.4096 1004.07,-58.9246 1007.13,-52.6271"/>
</g>
<!-- distancia projetil 9&#45;&gt;pular -->
<g id="edge6" class="edge"><title>distancia projetil 9&#45;&gt;pular</title>
<path fill="none" stroke="red" stroke-width="0.22302" d="M1430.78,-105.086C1427.98,-104.667 1425.2,-104.262 1422.5,-103.882 1291.27,-85.4101 1251.86,-110.867 1126.5,-67.8823 1117.3,-64.7273 1107.97,-59.8876 1099.67,-54.8811"/>
<polygon fill="red" stroke="red" stroke-width="0.22302" points="1101.45,-51.8621 1091.13,-49.4549 1097.7,-57.7709 1101.45,-51.8621"/>
</g>
<!-- distancia projetil 9&#45;&gt;release -->
<g id="edge59" class="edge"><title>distancia projetil 9&#45;&gt;release</title>
<path fill="none" stroke="green" stroke-width="0.206559" d="M1451.26,-103.794C1417.04,-90.7561 1349.25,-64.9372 1307.11,-48.8867"/>
<polygon fill="green" stroke="green" stroke-width="0.206559" points="1308.09,-45.5152 1297.5,-45.2264 1305.6,-52.0567 1308.09,-45.5152"/>
</g>
<!-- distancia projetil 10 -->
<g id="node10" class="node"><title>distancia projetil 10</title>
<polygon fill="lightgray" stroke="black" points="801.5,-121.882 713.5,-121.882 713.5,-103.882 801.5,-103.882 801.5,-121.882"/>
<text text-anchor="middle" x="757.5" y="-110.682" font-family="Times New Roman,serif" font-size="9.00">distancia projetil 10</text>
</g>
<!-- distancia projetil 10&#45;&gt;esquerda -->
<g id="edge36" class="edge"><title>distancia projetil 10&#45;&gt;esquerda</title>
<path fill="none" stroke="red" stroke-width="0.429558" stroke-dasharray="1,5" d="M779.577,-103.794C814.332,-91.0598 882.366,-66.1331 926.334,-50.0239"/>
<polygon fill="red" stroke="red" stroke-width="0.429558" points="927.686,-53.2559 935.872,-46.5293 925.278,-46.6832 927.686,-53.2559"/>
</g>
<!-- distancia projetil 10&#45;&gt;direita -->
<g id="edge56" class="edge"><title>distancia projetil 10&#45;&gt;direita</title>
<path fill="none" stroke="green" stroke-width="0.210946" d="M801.73,-105.087C804.696,-104.668 807.64,-104.262 810.5,-103.882 949.307,-85.4296 994.619,-122.633 1123.5,-67.8823 1128.02,-65.9608 1132.44,-63.3595 1136.58,-60.456"/>
<polygon fill="green" stroke="green" stroke-width="0.210946" points="1138.9,-63.085 1144.66,-54.1927 1134.62,-57.5522 1138.9,-63.085"/>
</g>
<!-- distancia projetil 10&#45;&gt;pular -->
<g id="edge2" class="edge"><title>distancia projetil 10&#45;&gt;pular</title>
<path fill="none" stroke="red" stroke-width="0.314095" stroke-dasharray="1,5" d="M801.512,-105.017C876.928,-93.2146 1023.31,-70.1216 1028.5,-67.8823 1034.51,-65.2907 1040.42,-61.6753 1045.86,-57.7838"/>
<polygon fill="red" stroke="red" stroke-width="0.314095" points="1048.16,-60.4282 1053.94,-51.5488 1043.88,-54.8858 1048.16,-60.4282"/>
</g>
<!-- distancia projetil 10&#45;&gt;atirar -->
<g id="edge17" class="edge"><title>distancia projetil 10&#45;&gt;atirar</title>
<path fill="none" stroke="green" stroke-width="0.868217" d="M757.5,-103.648C757.5,-95.2667 757.5,-81.7123 757.5,-68.8483"/>
<polygon fill="green" stroke="green" stroke-width="0.868217" points="761,-68.7917 757.5,-58.7917 754,-68.7917 761,-68.7917"/>
</g>
<!-- distancia projetil 10&#45;&gt;release -->
<g id="edge28" class="edge"><title>distancia projetil 10&#45;&gt;release</title>
<path fill="none" stroke="red" stroke-width="0.266733" stroke-dasharray="1,5" d="M801.72,-105.012C804.689,-104.611 807.636,-104.23 810.5,-103.882 983.299,-82.8833 1032.55,-113.631 1200.5,-67.8823 1212.75,-64.5453 1225.5,-59.1811 1236.71,-53.7418"/>
<polygon fill="red" stroke="red" stroke-width="0.266733" points="1238.36,-56.8269 1245.71,-49.198 1235.21,-50.577 1238.36,-56.8269"/>
</g>
<!-- distancia projetil 11 -->
<g id="node11" class="node"><title>distancia projetil 11</title>
<polygon fill="lightgray" stroke="black" points="1620.5,-121.882 1532.5,-121.882 1532.5,-103.882 1620.5,-103.882 1620.5,-121.882"/>
<text text-anchor="middle" x="1576.5" y="-110.682" font-family="Times New Roman,serif" font-size="9.00">distancia projetil 11</text>
</g>
<!-- distancia projetil 11&#45;&gt;direita -->
<g id="edge4" class="edge"><title>distancia projetil 11&#45;&gt;direita</title>
<path fill="none" stroke="red" stroke-width="0.491236" d="M1532.27,-105.115C1529.3,-104.689 1526.36,-104.275 1523.5,-103.882 1394.39,-86.1554 1357.59,-104.428 1232.5,-67.8823 1220.16,-64.276 1207.27,-58.6819 1196.03,-53.1209"/>
<polygon fill="red" stroke="red" stroke-width="0.491236" points="1197.51,-49.9475 1187.01,-48.5017 1194.32,-56.1772 1197.51,-49.9475"/>
</g>
<!-- distancia projetil 11&#45;&gt;pular -->
<g id="edge69" class="edge"><title>distancia projetil 11&#45;&gt;pular</title>
<path fill="none" stroke="red" stroke-width="0.571164" stroke-dasharray="1,5" d="M1532.28,-105.007C1529.31,-104.607 1526.36,-104.228 1523.5,-103.882 1347.61,-82.6515 1294.95,-122.777 1126.5,-67.8823 1117.17,-64.8431 1107.75,-59.9928 1099.4,-54.9385"/>
<polygon fill="red" stroke="red" stroke-width="0.571164" points="1101.13,-51.8898 1090.82,-49.4499 1097.36,-57.7867 1101.13,-51.8898"/>
</g>
<!-- distancia projetil 11&#45;&gt;atirar -->
<g id="edge48" class="edge"><title>distancia projetil 11&#45;&gt;atirar</title>
<path fill="none" stroke="red" stroke-width="0.345599" d="M1532.29,-104.906C1529.32,-104.531 1526.37,-104.184 1523.5,-103.882 1258.26,-75.9511 1189.04,-101.766 924.5,-67.8823 877.88,-61.911 824.728,-50.6445 791.156,-42.9673"/>
<polygon fill="red" stroke="red" stroke-width="0.345599" points="791.925,-39.553 781.394,-40.7098 790.348,-46.373 791.925,-39.553"/>
</g>
<!-- distancia projetil 11&#45;&gt;release -->
<g id="edge29" class="edge"><title>distancia projetil 11&#45;&gt;release</title>
<path fill="none" stroke="red" stroke-width="0.327329" d="M1544.62,-103.866C1487.89,-89.6032 1369.69,-59.8817 1308.71,-44.5492"/>
<polygon fill="red" stroke="red" stroke-width="0.327329" points="1309.28,-41.0827 1298.73,-42.0384 1307.57,-47.8714 1309.28,-41.0827"/>
</g>
<!-- distancia projetil 12 -->
<g id="node12" class="node"><title>distancia projetil 12</title>
<polygon fill="lightgray" stroke="black" points="499.5,-121.882 411.5,-121.882 411.5,-103.882 499.5,-103.882 499.5,-121.882"/>
<text text-anchor="middle" x="455.5" y="-110.682" font-family="Times New Roman,serif" font-size="9.00">distancia projetil 12</text>
</g>
<!-- distancia projetil 12&#45;&gt;esquerda -->
<g id="edge7" class="edge"><title>distancia projetil 12&#45;&gt;esquerda</title>
<path fill="none" stroke="red" stroke-width="0.884114" d="M499.732,-105.102C502.698,-104.679 505.641,-104.269 508.5,-103.882 642.016,-85.8256 676.539,-89.6519 809.5,-67.8823 848.799,-61.4478 893.159,-52.0053 924.849,-44.8776"/>
<polygon fill="red" stroke="red" stroke-width="0.884114" points="925.691,-48.2756 934.67,-42.6516 924.144,-41.4487 925.691,-48.2756"/>
</g>
<!-- distancia projetil 12&#45;&gt;direita -->
<g id="edge25" class="edge"><title>distancia projetil 12&#45;&gt;direita</title>
<path fill="none" stroke="green" stroke-width="0.196515" d="M499.708,-104.901C502.679,-104.527 505.631,-104.182 508.5,-103.882 644.659,-89.651 996.048,-117.859 1123.5,-67.8823 1128.08,-66.0883 1132.52,-63.5601 1136.68,-60.6927"/>
<polygon fill="green" stroke="green" stroke-width="0.196515" points="1138.99,-63.3331 1144.77,-54.457 1134.71,-57.7882 1138.99,-63.3331"/>
</g>
<!-- distancia projetil 12&#45;&gt;pular -->
<g id="edge45" class="edge"><title>distancia projetil 12&#45;&gt;pular</title>
<path fill="none" stroke="green" stroke-width="0.804364" stroke-dasharray="1,5" d="M499.712,-104.936C502.682,-104.554 505.633,-104.197 508.5,-103.882 623.639,-91.2278 920.151,-108.84 1028.5,-67.8823 1034.62,-65.5691 1040.59,-62.0808 1046.04,-58.2268"/>
<polygon fill="green" stroke="green" stroke-width="0.804364" points="1048.34,-60.8688 1054.12,-51.9858 1044.06,-55.329 1048.34,-60.8688"/>
</g>
<!-- distancia projetil 12&#45;&gt;atirar -->
<g id="edge64" class="edge"><title>distancia projetil 12&#45;&gt;atirar</title>
<path fill="none" stroke="red" stroke-width="0.125938" d="M486.965,-103.866C544.114,-89.3059 664.496,-58.6358 723.476,-43.6094"/>
<polygon fill="red" stroke="red" stroke-width="0.125938" points="724.583,-46.9394 733.409,-41.0788 722.855,-40.1561 724.583,-46.9394"/>
</g>
<!-- distancia projetil 13 -->
<g id="node13" class="node"><title>distancia projetil 13</title>
<polygon fill="lightgray" stroke="black" points="189.5,-121.882 101.5,-121.882 101.5,-103.882 189.5,-103.882 189.5,-121.882"/>
<text text-anchor="middle" x="145.5" y="-110.682" font-family="Times New Roman,serif" font-size="9.00">distancia projetil 13</text>
</g>
<!-- distancia projetil 13&#45;&gt;esquerda -->
<g id="edge79" class="edge"><title>distancia projetil 13&#45;&gt;esquerda</title>
<path fill="none" stroke="green" stroke-width="0.1815" d="M189.708,-104.902C192.68,-104.528 195.631,-104.183 198.5,-103.882 469.047,-75.5526 539.847,-103.739 809.5,-67.8823 848.975,-62.6331 893.315,-53.0599 924.953,-45.5813"/>
<polygon fill="green" stroke="green" stroke-width="0.1815" points="925.846,-48.9666 934.757,-43.235 924.216,-42.1589 925.846,-48.9666"/>
</g>
<!-- distancia projetil 13&#45;&gt;pular -->
<g id="edge42" class="edge"><title>distancia projetil 13&#45;&gt;pular</title>
<path fill="none" stroke="green" stroke-width="0.853097" d="M189.703,-104.85C192.676,-104.489 195.629,-104.16 198.5,-103.882 382.258,-86.0797 854.982,-130.932 1028.5,-67.8823 1034.65,-65.6482 1040.63,-62.196 1046.08,-58.3526"/>
<polygon fill="green" stroke="green" stroke-width="0.853097" points="1048.39,-60.9938 1054.16,-52.1098 1044.11,-55.4548 1048.39,-60.9938"/>
</g>
<!-- distancia projetil 13&#45;&gt;atirar -->
<g id="edge10" class="edge"><title>distancia projetil 13&#45;&gt;atirar</title>
<path fill="none" stroke="green" stroke-width="0.172229" d="M189.733,-105.114C192.699,-104.688 195.642,-104.274 198.5,-103.882 396.587,-76.7224 634.857,-48.9677 722.75,-38.895"/>
<polygon fill="green" stroke="green" stroke-width="0.172229" points="723.412,-42.3422 732.95,-37.7282 722.617,-35.3875 723.412,-42.3422"/>
</g>
<!-- distancia projetil 14 -->
<g id="node14" class="node"><title>distancia projetil 14</title>
<polygon fill="lightgray" stroke="black" points="1926.5,-121.882 1838.5,-121.882 1838.5,-103.882 1926.5,-103.882 1926.5,-121.882"/>
<text text-anchor="middle" x="1882.5" y="-110.682" font-family="Times New Roman,serif" font-size="9.00">distancia projetil 14</text>
</g>
<!-- distancia projetil 14&#45;&gt;esquerda -->
<g id="edge60" class="edge"><title>distancia projetil 14&#45;&gt;esquerda</title>
<path fill="none" stroke="red" stroke-width="0.201174" d="M1838.3,-104.857C1835.32,-104.494 1832.37,-104.163 1829.5,-103.882 1654.16,-86.7111 1208.52,-110.211 1037.5,-67.8823 1026.83,-65.2412 1015.83,-60.9219 1005.8,-56.2675"/>
<polygon fill="red" stroke="red" stroke-width="0.201174" points="1007.04,-52.9807 996.518,-51.7461 1003.97,-59.2733 1007.04,-52.9807"/>
</g>
<!-- distancia projetil 14&#45;&gt;release -->
<g id="edge53" class="edge"><title>distancia projetil 14&#45;&gt;release</title>
<path fill="none" stroke="green" stroke-width="0.14525" d="M1838.27,-105.114C1835.3,-104.688 1832.36,-104.274 1829.5,-103.882 1634.5,-77.1463 1400.57,-49.8339 1309.47,-39.3794"/>
<polygon fill="green" stroke="green" stroke-width="0.14525" points="1309.67,-35.8791 1299.34,-38.218 1308.87,-42.8336 1309.67,-35.8791"/>
</g>
<!-- distancia projetil 15 -->
<g id="node15" class="node"><title>distancia projetil 15</title>
<polygon fill="lightgray" stroke="black" points="907.5,-121.882 819.5,-121.882 819.5,-103.882 907.5,-103.882 907.5,-121.882"/>
<text text-anchor="middle" x="863.5" y="-110.682" font-family="Times New Roman,serif" font-size="9.00">distancia projetil 15</text>
</g>
<!-- distancia projetil 15&#45;&gt;esquerda -->
<g id="edge46" class="edge"><title>distancia projetil 15&#45;&gt;esquerda</title>
<path fill="none" stroke="green" stroke-width="0.257617" stroke-dasharray="1,5" d="M874.63,-103.648C888.354,-93.4946 912.34,-75.7496 932.497,-60.837"/>
<polygon fill="green" stroke="green" stroke-width="0.257617" points="934.616,-63.6229 940.574,-54.8617 930.453,-57.9955 934.616,-63.6229"/>
</g>
<!-- distancia projetil 15&#45;&gt;direita -->
<g id="edge26" class="edge"><title>distancia projetil 15&#45;&gt;direita</title>
<path fill="none" stroke="green" stroke-width="0.112085" d="M907.574,-105.03C979.161,-93.8131 1113.75,-72.3325 1123.5,-67.8823 1127.87,-65.8857 1132.16,-63.2874 1136.22,-60.4254"/>
<polygon fill="green" stroke="green" stroke-width="0.112085" points="1138.38,-63.1767 1144.15,-54.2891 1134.1,-57.6403 1138.38,-63.1767"/>
</g>
<!-- distancia projetil 15&#45;&gt;atirar -->
<g id="edge74" class="edge"><title>distancia projetil 15&#45;&gt;atirar</title>
<path fill="none" stroke="red" stroke-width="0.222143" d="M852.156,-103.648C836.408,-92.2174 807.405,-71.1653 785.637,-55.3648"/>
<polygon fill="red" stroke="red" stroke-width="0.222143" points="787.548,-52.4267 777.399,-49.3849 783.436,-58.0917 787.548,-52.4267"/>
</g>
<!-- distancia projetil 15&#45;&gt;release -->
<g id="edge37" class="edge"><title>distancia projetil 15&#45;&gt;release</title>
<path fill="none" stroke="green" stroke-width="0.528549" d="M907.694,-105.26C911.011,-104.786 914.308,-104.322 917.5,-103.882 1043.11,-86.5908 1078.76,-103.31 1200.5,-67.8823 1212.69,-64.3346 1225.42,-58.9153 1236.64,-53.4903"/>
<polygon fill="green" stroke="green" stroke-width="0.528549" points="1238.28,-56.5822 1245.65,-48.973 1235.14,-50.3239 1238.28,-56.5822"/>
</g>
<!-- distancia projetil 16 -->
<g id="node16" class="node"><title>distancia projetil 16</title>
<polygon fill="lightgray" stroke="black" points="1820.5,-121.882 1732.5,-121.882 1732.5,-103.882 1820.5,-103.882 1820.5,-121.882"/>
<text text-anchor="middle" x="1776.5" y="-110.682" font-family="Times New Roman,serif" font-size="9.00">distancia projetil 16</text>
</g>
<!-- distancia projetil 16&#45;&gt;esquerda -->
<g id="edge30" class="edge"><title>distancia projetil 16&#45;&gt;esquerda</title>
<path fill="none" stroke="red" stroke-width="0.403362" d="M1732.29,-104.881C1729.32,-104.511 1726.37,-104.173 1723.5,-103.882 1419.75,-73.0617 1333.61,-142.273 1037.5,-67.8823 1026.84,-65.2038 1015.84,-60.8711 1005.81,-56.2156"/>
<polygon fill="red" stroke="red" stroke-width="0.403362" points="1007.05,-52.9288 996.53,-51.6966 1003.99,-59.222 1007.05,-52.9288"/>
</g>
<!-- distancia projetil 16&#45;&gt;direita -->
<g id="edge49" class="edge"><title>distancia projetil 16&#45;&gt;direita</title>
<path fill="none" stroke="red" stroke-width="0.321137" d="M1732.29,-104.95C1729.32,-104.564 1726.37,-104.203 1723.5,-103.882 1506.05,-79.5355 1443.99,-123.985 1232.5,-67.8823 1220.07,-64.585 1207.17,-59.0661 1195.93,-53.4791"/>
<polygon fill="red" stroke="red" stroke-width="0.321137" points="1197.42,-50.308 1186.93,-48.8172 1194.2,-56.5239 1197.42,-50.308"/>
</g>
<!-- distancia projetil 16&#45;&gt;pular -->
<g id="edge22" class="edge"><title>distancia projetil 16&#45;&gt;pular</title>
<path fill="none" stroke="red" stroke-width="0.614743" d="M1732.29,-104.907C1729.32,-104.531 1726.37,-104.185 1723.5,-103.882 1591.32,-89.9499 1253.47,-107.15 1126.5,-67.8823 1117.13,-64.9843 1107.69,-60.178 1099.35,-55.1206"/>
<polygon fill="red" stroke="red" stroke-width="0.614743" points="1101.08,-52.0724 1090.77,-49.6127 1097.29,-57.962 1101.08,-52.0724"/>
</g>
<!-- distancia projetil 16&#45;&gt;release -->
<g id="edge21" class="edge"><title>distancia projetil 16&#45;&gt;release</title>
<path fill="none" stroke="red" stroke-width="0.182581" d="M1732.48,-105.189C1634.9,-90.3502 1401.73,-54.8956 1309.25,-40.8333"/>
<polygon fill="red" stroke="red" stroke-width="0.182581" points="1309.61,-37.3483 1299.2,-39.3051 1308.56,-44.2687 1309.61,-37.3483"/>
</g>
<!-- distancia inimigo 1 -->
<g id="node17" class="node"><title>distancia inimigo 1</title>
<polygon fill="lightgray" stroke="black" points="2028,-121.882 1945,-121.882 1945,-103.882 2028,-103.882 2028,-121.882"/>
<text text-anchor="middle" x="1986.5" y="-110.682" font-family="Times New Roman,serif" font-size="9.00">distancia inimigo 1</text>
</g>
<!-- distancia inimigo 1&#45;&gt;esquerda -->
<g id="edge5" class="edge"><title>distancia inimigo 1&#45;&gt;esquerda</title>
<path fill="none" stroke="green" stroke-width="0.267847" d="M1944.8,-104.94C1941.66,-104.54 1938.53,-104.18 1935.5,-103.882 1736.74,-84.375 1231.49,-115.346 1037.5,-67.8823 1026.82,-65.2698 1015.82,-60.9608 1005.79,-56.3072"/>
<polygon fill="green" stroke="green" stroke-width="0.267847" points="1007.03,-53.0204 996.508,-51.7839 1003.96,-59.3124 1007.03,-53.0204"/>
</g>
<!-- distancia inimigo 1&#45;&gt;direita -->
<g id="edge78" class="edge"><title>distancia inimigo 1&#45;&gt;direita</title>
<path fill="none" stroke="red" stroke-width="0.209187" d="M1944.8,-104.978C1941.66,-104.569 1938.53,-104.197 1935.5,-103.882 1779.91,-87.7397 1384.13,-106.323 1232.5,-67.8823 1220.03,-64.7221 1207.12,-59.2365 1195.89,-53.638"/>
<polygon fill="red" stroke="red" stroke-width="0.209187" points="1197.38,-50.4677 1186.89,-48.9572 1194.15,-56.6775 1197.38,-50.4677"/>
</g>
<!-- distancia inimigo 1&#45;&gt;pular -->
<g id="edge43" class="edge"><title>distancia inimigo 1&#45;&gt;pular</title>
<path fill="none" stroke="red" stroke-width="0.32603" d="M1944.8,-104.955C1941.66,-104.551 1938.53,-104.187 1935.5,-103.882 1756.44,-85.9109 1298.84,-119.695 1126.5,-67.8823 1117.11,-65.0582 1107.66,-60.2749 1099.32,-55.216"/>
<polygon fill="red" stroke="red" stroke-width="0.32603" points="1101.05,-52.1679 1090.75,-49.6979 1097.26,-58.0538 1101.05,-52.1679"/>
</g>
<!-- distancia inimigo 1&#45;&gt;release -->
<g id="edge13" class="edge"><title>distancia inimigo 1&#45;&gt;release</title>
<path fill="none" stroke="green" stroke-width="0.367633" d="M1944.78,-105.156C1941.64,-104.706 1938.52,-104.276 1935.5,-103.882 1698.44,-73.0228 1412.39,-47.1943 1309.62,-38.2763"/>
<polygon fill="green" stroke="green" stroke-width="0.367633" points="1309.67,-34.7679 1299.41,-37.3935 1309.07,-41.7419 1309.67,-34.7679"/>
</g>
<!-- distancia inimigo 2 -->
<g id="node18" class="node"><title>distancia inimigo 2</title>
<polygon fill="lightgray" stroke="black" points="1009,-121.882 926,-121.882 926,-103.882 1009,-103.882 1009,-121.882"/>
<text text-anchor="middle" x="967.5" y="-110.682" font-family="Times New Roman,serif" font-size="9.00">distancia inimigo 2</text>
</g>
<!-- distancia inimigo 2&#45;&gt;esquerda -->
<g id="edge76" class="edge"><title>distancia inimigo 2&#45;&gt;esquerda</title>
<path fill="none" stroke="green" stroke-width="0.449962" d="M967.5,-103.648C967.5,-97.3183 967.5,-88.038 967.5,-78.3329"/>
<polygon fill="green" stroke="green" stroke-width="0.449962" points="971,-78.1712 967.5,-68.1713 964,-78.1713 971,-78.1712"/>
</g>
<!-- distancia inimigo 2&#45;&gt;direita -->
<g id="edge9" class="edge"><title>distancia inimigo 2&#45;&gt;direita</title>
<path fill="none" stroke="red" stroke-width="0.340051" d="M1009.32,-104.973C1041.79,-98.4778 1087.22,-86.8588 1123.5,-67.8823 1127.76,-65.6542 1131.98,-62.9209 1136,-59.9905"/>
<polygon fill="red" stroke="red" stroke-width="0.340051" points="1138.19,-62.7203 1143.91,-53.7972 1133.88,-57.2105 1138.19,-62.7203"/>
</g>
<!-- distancia inimigo 2&#45;&gt;pular -->
<g id="edge35" class="edge"><title>distancia inimigo 2&#45;&gt;pular</title>
<path fill="none" stroke="green" stroke-width="0.416078" d="M978.813,-103.869C991.113,-95.1232 1011.31,-80.659 1028.5,-67.8823 1033.65,-64.0529 1039.11,-59.924 1044.35,-55.9275"/>
<polygon fill="green" stroke="green" stroke-width="0.416078" points="1046.52,-58.6783 1052.33,-49.8183 1042.26,-53.1215 1046.52,-58.6783"/>
</g>
<!-- distancia inimigo 2&#45;&gt;atirar -->
<g id="edge55" class="edge"><title>distancia inimigo 2&#45;&gt;atirar</title>
<path fill="none" stroke="red" stroke-width="0.241684" stroke-dasharray="1,5" d="M945.423,-103.794C908.299,-90.1917 833.203,-62.6778 790.028,-46.8588"/>
<polygon fill="red" stroke="red" stroke-width="0.241684" points="791.146,-43.5411 780.552,-43.3872 788.738,-50.1139 791.146,-43.5411"/>
</g>
<!-- distancia inimigo 2&#45;&gt;release -->
<g id="edge67" class="edge"><title>distancia inimigo 2&#45;&gt;release</title>
<path fill="none" stroke="green" stroke-width="0.459585" d="M1009.02,-105.339C1066.06,-96.129 1165.55,-79.2038 1200.5,-67.8823 1212.48,-64.0022 1225.07,-58.5462 1236.22,-53.1889"/>
<polygon fill="green" stroke="green" stroke-width="0.459585" points="1237.79,-56.3178 1245.21,-48.7488 1234.69,-50.0426 1237.79,-56.3178"/>
</g>
<!-- direcao sprites 1 -->
<g id="node19" class="node"><title>direcao sprites 1</title>
<polygon fill="lightgray" stroke="black" points="1714.5,-121.882 1638.5,-121.882 1638.5,-103.882 1714.5,-103.882 1714.5,-121.882"/>
<text text-anchor="middle" x="1676.5" y="-110.682" font-family="Times New Roman,serif" font-size="9.00">direcao sprites 1</text>
</g>
<!-- direcao sprites 1&#45;&gt;esquerda -->
<g id="edge58" class="edge"><title>direcao sprites 1&#45;&gt;esquerda</title>
<path fill="none" stroke="green" stroke-width="0.533301" d="M1638.33,-105.031C1635.35,-104.604 1632.38,-104.214 1629.5,-103.882 1367.63,-73.7227 1292.88,-133.171 1037.5,-67.8823 1026.85,-65.1596 1015.85,-60.8109 1005.82,-56.1542"/>
<polygon fill="green" stroke="green" stroke-width="0.533301" points="1007.07,-52.8672 996.545,-51.6381 1004,-59.1614 1007.07,-52.8672"/>
</g>
<!-- direcao sprites 1&#45;&gt;direita -->
<g id="edge40" class="edge"><title>direcao sprites 1&#45;&gt;direita</title>
<path fill="none" stroke="red" stroke-width="0.323773" d="M1638.32,-105.126C1635.34,-104.678 1632.37,-104.256 1629.5,-103.882 1453.82,-81.0004 1403.35,-114.784 1232.5,-67.8823 1220.1,-64.478 1207.2,-58.933 1195.96,-53.355"/>
<polygon fill="red" stroke="red" stroke-width="0.323773" points="1197.45,-50.1832 1186.96,-48.708 1194.24,-56.4039 1197.45,-50.1832"/>
</g>
<!-- direcao sprites 1&#45;&gt;pular -->
<g id="edge19" class="edge"><title>direcao sprites 1&#45;&gt;pular</title>
<path fill="none" stroke="red" stroke-width="0.18631" d="M1638.33,-105.065C1635.34,-104.631 1632.38,-104.229 1629.5,-103.882 1406.99,-77.0464 1340.25,-135.302 1126.5,-67.8823 1117.15,-64.9318 1107.71,-60.1091 1099.37,-55.0528"/>
<polygon fill="red" stroke="red" stroke-width="0.18631" points="1101.1,-52.0045 1090.79,-49.5521 1097.32,-57.8968 1101.1,-52.0045"/>
</g>
<!-- direcao sprites 1&#45;&gt;release -->
<g id="edge83" class="edge"><title>direcao sprites 1&#45;&gt;release</title>
<path fill="none" stroke="green" stroke-width="0.381489" stroke-dasharray="1,5" d="M1638.3,-104.644C1561.01,-89.9951 1386.8,-56.982 1309.14,-42.2634"/>
<polygon fill="green" stroke="green" stroke-width="0.381489" points="1309.32,-38.7351 1298.84,-40.3118 1308.01,-45.6127 1309.32,-38.7351"/>
</g>
<!-- direcao sprites 2 -->
<g id="node20" class="node"><title>direcao sprites 2</title>
<polygon fill="lightgray" stroke="black" points="593.5,-121.882 517.5,-121.882 517.5,-103.882 593.5,-103.882 593.5,-121.882"/>
<text text-anchor="middle" x="555.5" y="-110.682" font-family="Times New Roman,serif" font-size="9.00">direcao sprites 2</text>
</g>
<!-- direcao sprites 2&#45;&gt;esquerda -->
<g id="edge44" class="edge"><title>direcao sprites 2&#45;&gt;esquerda</title>
<path fill="none" stroke="red" stroke-width="0.432164" stroke-dasharray="1,5" d="M593.538,-105.367C659.16,-94.115 788.646,-71.8612 809.5,-67.8823 848.492,-60.4424 892.715,-51.1489 924.438,-44.3318"/>
<polygon fill="red" stroke="red" stroke-width="0.432164" points="925.238,-47.7398 934.276,-42.2109 923.763,-40.897 925.238,-47.7398"/>
</g>
<!-- direcao sprites 2&#45;&gt;direita -->
<g id="edge63" class="edge"><title>direcao sprites 2&#45;&gt;direita</title>
<path fill="none" stroke="green" stroke-width="0.692135" d="M593.673,-105.058C596.655,-104.625 599.623,-104.226 602.5,-103.882 717.736,-90.1283 1015.68,-110.816 1123.5,-67.8823 1128.07,-66.0642 1132.5,-63.5223 1136.66,-60.648"/>
<polygon fill="green" stroke="green" stroke-width="0.692135" points="1138.97,-63.2863 1144.75,-54.4072 1134.7,-57.7437 1138.97,-63.2863"/>
</g>
<!-- direcao sprites 2&#45;&gt;pular -->
<g id="edge1" class="edge"><title>direcao sprites 2&#45;&gt;pular</title>
<path fill="none" stroke="red" stroke-width="0.216862" d="M593.679,-105.107C596.66,-104.663 599.626,-104.248 602.5,-103.882 790.991,-79.9193 851.282,-136.416 1028.5,-67.8823 1034.6,-65.5227 1040.56,-62.0132 1046.01,-58.153"/>
<polygon fill="red" stroke="red" stroke-width="0.216862" points="1048.31,-60.7954 1054.09,-51.913 1044.03,-55.2551 1048.31,-60.7954"/>
</g>
<!-- direcao sprites 2&#45;&gt;atirar -->
<g id="edge15" class="edge"><title>direcao sprites 2&#45;&gt;atirar</title>
<path fill="none" stroke="green" stroke-width="0.650082" d="M576.736,-103.794C612.183,-90.2918 683.62,-63.0819 725.29,-47.2099"/>
<polygon fill="green" stroke="green" stroke-width="0.650082" points="726.605,-50.4544 734.704,-43.6241 724.113,-43.9129 726.605,-50.4544"/>
</g>
<!-- esquerda&#45;&gt;esquerda -->
<g id="edge41" class="edge"><title>esquerda&#45;&gt;esquerda</title>
<path fill="none" stroke="green" stroke-width="0.427696" d="M998.17,-48.5224C1009.81,-49.0847 1019.44,-44.2243 1019.44,-33.9411 1019.44,-26.8714 1014.89,-22.3648 1008.26,-20.4214"/>
<polygon fill="green" stroke="green" stroke-width="0.427696" points="1008.48,-16.9252 998.17,-19.3599 1007.75,-23.8868 1008.48,-16.9252"/>
</g>
<!-- pular&#45;&gt;pular -->
<g id="edge33" class="edge"><title>pular&#45;&gt;pular</title>
<path fill="none" stroke="green" stroke-width="0.813837" stroke-dasharray="1,5" d="M1092.17,-47.8663C1103.67,-50.4657 1114.25,-45.8239 1114.25,-33.9411 1114.25,-25.7717 1109.25,-21.0248 1102.39,-19.7005"/>
<polygon fill="green" stroke="green" stroke-width="0.813837" points="1102.06,-16.2087 1092.17,-20.016 1102.28,-23.2054 1102.06,-16.2087"/>
</g>
<!-- atirar&#45;&gt;atirar -->
<g id="edge20" class="edge"><title>atirar&#45;&gt;atirar</title>
<path fill="none" stroke="red" stroke-width="0.344001" d="M778.174,-47.8663C789.666,-50.4657 800.249,-45.8239 800.249,-33.9411 800.249,-25.7717 795.247,-21.0248 788.386,-19.7005"/>
<polygon fill="red" stroke="red" stroke-width="0.344001" points="788.061,-16.2087 778.174,-20.016 788.277,-23.2054 788.061,-16.2087"/>
</g>
<!-- release&#45;&gt;release -->
<g id="edge24" class="edge"><title>release&#45;&gt;release</title>
<path fill="none" stroke="red" stroke-width="0.294172" d="M1296.12,-48.3376C1307.58,-49.7087 1317.49,-44.9099 1317.49,-33.9411 1317.49,-26.4001 1312.81,-21.7753 1306.15,-20.0668"/>
<polygon fill="red" stroke="red" stroke-width="0.294172" points="1306.29,-16.5691 1296.12,-19.5446 1305.92,-23.5596 1306.29,-16.5691"/>
</g>
</g>
</svg>
