<?xml version="1.0" encoding="UTF-8" standalone="no"?>
<!DOCTYPE svg PUBLIC "-//W3C//DTD SVG 1.1//EN"
 "http://www.w3.org/Graphics/SVG/1.1/DTD/svg11.dtd">
<!-- Generated by graphviz version 2.38.0 (20140413.2041)
 -->
<!-- Title: %3 Pages: 1 -->
<svg width="2038pt" height="130pt"
 viewBox="0.00 0.00 2037.50 129.88" xmlns="http://www.w3.org/2000/svg" xmlns:xlink="http://www.w3.org/1999/xlink">
<g id="graph0" class="graph" transform="scale(1 1) rotate(0) translate(4 125.882)">
<title>%3</title>
<polygon fill="white" stroke="none" points="-4,4 -4,-125.882 2033.5,-125.882 2033.5,4 -4,4"/>
<!-- dintancia projetil 1 -->
<g id="node1" class="node"><title>dintancia projetil 1</title>
<polygon fill="lightgray" stroke="black" points="784,-121.882 700,-121.882 700,-103.882 784,-103.882 784,-121.882"/>
<text text-anchor="middle" x="742" y="-110.682" font-family="Times New Roman,serif" font-size="9.00">dintancia projetil 1</text>
</g>
<!-- esquerda -->
<g id="node21" class="node"><title>esquerda</title>
<ellipse fill="lightblue" stroke="black" cx="742" cy="-33.9411" rx="33.8824" ry="33.8824"/>
<text text-anchor="middle" x="742" y="-31.7411" font-family="Times New Roman,serif" font-size="9.00">esquerda</text>
</g>
<!-- dintancia projetil 1&#45;&gt;esquerda -->
<g id="edge3" class="edge"><title>dintancia projetil 1&#45;&gt;esquerda</title>
<path fill="none" stroke="green" stroke-width="1.241" d="M742,-103.648C742,-97.3183 742,-88.038 742,-78.3329"/>
<polygon fill="green" stroke="green" stroke-width="1.241" points="745.5,-78.1712 742,-68.1713 738.5,-78.1713 745.5,-78.1712"/>
</g>
<!-- direita -->
<g id="node22" class="node"><title>direita</title>
<ellipse fill="lightblue" stroke="black" cx="1054" cy="-33.9411" rx="27.6545" ry="27.6545"/>
<text text-anchor="middle" x="1054" y="-31.7411" font-family="Times New Roman,serif" font-size="9.00">direita</text>
</g>
<!-- dintancia projetil 1&#45;&gt;direita -->
<g id="edge15" class="edge"><title>dintancia projetil 1&#45;&gt;direita</title>
<path fill="none" stroke="green" stroke-width="1.92973" stroke-dasharray="1,5" d="M784.03,-105.214C854.999,-93.8918 991.901,-71.7546 1002,-67.8823 1009.51,-65.0036 1017.09,-60.9719 1024.06,-56.7135"/>
<polygon fill="green" stroke="green" stroke-width="1.92973" points="1026,-59.6281 1032.51,-51.2679 1022.21,-53.7448 1026,-59.6281"/>
</g>
<!-- pular -->
<g id="node23" class="node"><title>pular</title>
<ellipse fill="lightblue" stroke="black" cx="950" cy="-33.9411" rx="25" ry="25"/>
<text text-anchor="middle" x="950" y="-31.7411" font-family="Times New Roman,serif" font-size="9.00">pular</text>
</g>
<!-- dintancia projetil 1&#45;&gt;pular -->
<g id="edge40" class="edge"><title>dintancia projetil 1&#45;&gt;pular</title>
<path fill="none" stroke="red" stroke-width="0.396168" d="M763.867,-103.794C800.541,-90.2275 874.627,-62.8225 917.444,-46.984"/>
<polygon fill="red" stroke="red" stroke-width="0.396168" points="918.683,-50.2573 926.848,-43.5053 916.255,-43.6921 918.683,-50.2573"/>
</g>
<!-- atirar -->
<g id="node24" class="node"><title>atirar</title>
<ellipse fill="lightblue" stroke="black" cx="1259" cy="-33.9411" rx="25" ry="25"/>
<text text-anchor="middle" x="1259" y="-31.7411" font-family="Times New Roman,serif" font-size="9.00">atirar</text>
</g>
<!-- dintancia projetil 1&#45;&gt;atirar -->
<g id="edge55" class="edge"><title>dintancia projetil 1&#45;&gt;atirar</title>
<path fill="none" stroke="red" stroke-width="0.714067" d="M784.004,-105.15C787.046,-104.706 790.069,-104.279 793,-103.882 933.076,-84.9255 969.562,-91.0727 1109,-67.8823 1149.23,-61.1912 1194.94,-50.7353 1225.21,-43.4026"/>
<polygon fill="red" stroke="red" stroke-width="0.714067" points="1226.36,-46.725 1235.25,-40.9504 1224.7,-39.9252 1226.36,-46.725"/>
</g>
<!-- release -->
<g id="node25" class="node"><title>release</title>
<ellipse fill="lightblue" stroke="black" cx="643" cy="-33.9411" rx="28.9828" ry="28.9828"/>
<text text-anchor="middle" x="643" y="-31.7411" font-family="Times New Roman,serif" font-size="9.00">release</text>
</g>
<!-- dintancia projetil 1&#45;&gt;release -->
<g id="edge6" class="edge"><title>dintancia projetil 1&#45;&gt;release</title>
<path fill="none" stroke="green" stroke-width="0.272616" d="M731.405,-103.648C717.7,-92.997 693.247,-73.992 673.527,-58.6661"/>
<polygon fill="green" stroke="green" stroke-width="0.272616" points="675.454,-55.7312 665.411,-52.3582 671.159,-61.2582 675.454,-55.7312"/>
</g>
<!-- distancia projetil 2 -->
<g id="node2" class="node"><title>distancia projetil 2</title>
<polygon fill="lightgray" stroke="black" points="486.5,-121.882 403.5,-121.882 403.5,-103.882 486.5,-103.882 486.5,-121.882"/>
<text text-anchor="middle" x="445" y="-110.682" font-family="Times New Roman,serif" font-size="9.00">distancia projetil 2</text>
</g>
<!-- distancia projetil 2&#45;&gt;esquerda -->
<g id="edge13" class="edge"><title>distancia projetil 2&#45;&gt;esquerda</title>
<path fill="none" stroke="red" stroke-width="0.200896" d="M486.649,-105.2C556.192,-93.9681 689.34,-72.1109 699,-67.8823 702.198,-66.4822 705.373,-64.7955 708.464,-62.9346"/>
<polygon fill="red" stroke="red" stroke-width="0.200896" points="710.515,-65.7745 716.904,-57.3228 706.639,-59.9455 710.515,-65.7745"/>
</g>
<!-- distancia projetil 2&#45;&gt;pular -->
<g id="edge33" class="edge"><title>distancia projetil 2&#45;&gt;pular</title>
<path fill="none" stroke="green" stroke-width="0.854521" stroke-dasharray="1,5" d="M486.725,-105.094C489.524,-104.673 492.302,-104.265 495,-103.882 623.588,-85.6197 656.786,-88.61 785,-67.8823 830.536,-60.5206 882.676,-49.7071 915.947,-42.5013"/>
<polygon fill="green" stroke="green" stroke-width="0.854521" points="917.029,-45.8476 926.054,-40.2974 915.538,-39.0083 917.029,-45.8476"/>
</g>
<!-- distancia projetil 2&#45;&gt;atirar -->
<g id="edge62" class="edge"><title>distancia projetil 2&#45;&gt;atirar</title>
<path fill="none" stroke="red" stroke-width="0.129497" d="M486.7,-104.89C489.505,-104.519 492.291,-104.178 495,-103.882 766.747,-74.2512 838.218,-105.315 1109,-67.8823 1149.4,-62.2974 1195.07,-51.6257 1225.3,-43.9401"/>
<polygon fill="red" stroke="red" stroke-width="0.129497" points="1226.5,-47.2448 1235.31,-41.3594 1224.75,-40.4664 1226.5,-47.2448"/>
</g>
<!-- distancia projetil 2&#45;&gt;release -->
<g id="edge68" class="edge"><title>distancia projetil 2&#45;&gt;release</title>
<path fill="none" stroke="red" stroke-width="1.92916" d="M465.815,-103.794C499.274,-90.7919 565.444,-65.0786 606.772,-49.0188"/>
<polygon fill="red" stroke="red" stroke-width="1.92916" points="608.15,-52.2385 616.204,-45.354 605.615,-45.7138 608.15,-52.2385"/>
</g>
<!-- distancia projetil 3 -->
<g id="node3" class="node"><title>distancia projetil 3</title>
<polygon fill="lightgray" stroke="black" points="587.5,-121.882 504.5,-121.882 504.5,-103.882 587.5,-103.882 587.5,-121.882"/>
<text text-anchor="middle" x="546" y="-110.682" font-family="Times New Roman,serif" font-size="9.00">distancia projetil 3</text>
</g>
<!-- distancia projetil 3&#45;&gt;esquerda -->
<g id="edge60" class="edge"><title>distancia projetil 3&#45;&gt;esquerda</title>
<path fill="none" stroke="red" stroke-width="0.547577" stroke-dasharray="1,5" d="M587.823,-104.272C619.491,-97.4786 663.459,-85.796 699,-67.8823 702.118,-66.3109 705.235,-64.5025 708.288,-62.5589"/>
<polygon fill="red" stroke="red" stroke-width="0.547577" points="710.4,-65.3542 716.661,-56.8078 706.437,-59.584 710.4,-65.3542"/>
</g>
<!-- distancia projetil 3&#45;&gt;pular -->
<g id="edge28" class="edge"><title>distancia projetil 3&#45;&gt;pular</title>
<path fill="none" stroke="red" stroke-width="0.106872" d="M587.914,-104.362C635.663,-95.7496 716.011,-81.1185 785,-67.8823 830.172,-59.2156 882.198,-48.748 915.557,-41.9737"/>
<polygon fill="red" stroke="red" stroke-width="0.106872" points="916.598,-45.3338 925.7,-39.911 915.203,-38.4742 916.598,-45.3338"/>
</g>
<!-- distancia projetil 4 -->
<g id="node4" class="node"><title>distancia projetil 4</title>
<polygon fill="lightgray" stroke="black" points="991.5,-121.882 908.5,-121.882 908.5,-103.882 991.5,-103.882 991.5,-121.882"/>
<text text-anchor="middle" x="950" y="-110.682" font-family="Times New Roman,serif" font-size="9.00">distancia projetil 4</text>
</g>
<!-- distancia projetil 4&#45;&gt;esquerda -->
<g id="edge46" class="edge"><title>distancia projetil 4&#45;&gt;esquerda</title>
<path fill="none" stroke="red" stroke-width="0.459684" stroke-dasharray="1,5" d="M928.133,-103.794C893.806,-91.0957 826.703,-66.2735 783.143,-50.1603"/>
<polygon fill="red" stroke="red" stroke-width="0.459684" points="784.281,-46.8496 773.688,-46.6628 781.853,-53.4148 784.281,-46.8496"/>
</g>
<!-- distancia projetil 4&#45;&gt;direita -->
<g id="edge64" class="edge"><title>distancia projetil 4&#45;&gt;direita</title>
<path fill="none" stroke="red" stroke-width="0.317525" d="M961.13,-103.648C975.96,-92.6768 1002.77,-72.8421 1023.79,-57.2945"/>
<polygon fill="red" stroke="red" stroke-width="0.317525" points="1026.14,-59.908 1032.1,-51.1467 1021.97,-54.2806 1026.14,-59.908"/>
</g>
<!-- distancia projetil 4&#45;&gt;pular -->
<g id="edge8" class="edge"><title>distancia projetil 4&#45;&gt;pular</title>
<path fill="none" stroke="green" stroke-width="0.786281" d="M950,-103.648C950,-95.2667 950,-81.7123 950,-68.8483"/>
<polygon fill="green" stroke="green" stroke-width="0.786281" points="953.5,-68.7917 950,-58.7917 946.5,-68.7917 953.5,-68.7917"/>
</g>
<!-- distancia projetil 4&#45;&gt;atirar -->
<g id="edge22" class="edge"><title>distancia projetil 4&#45;&gt;atirar</title>
<path fill="none" stroke="red" stroke-width="0.297337" stroke-dasharray="1,5" d="M982.194,-103.866C1041.08,-89.203 1165.59,-58.2014 1225.46,-43.2931"/>
<polygon fill="red" stroke="red" stroke-width="0.297337" points="1226.32,-46.6862 1235.18,-40.8736 1224.63,-39.8936 1226.32,-46.6862"/>
</g>
<!-- distancia projetil 4&#45;&gt;release -->
<g id="edge53" class="edge"><title>distancia projetil 4&#45;&gt;release</title>
<path fill="none" stroke="green" stroke-width="0.558134" stroke-dasharray="1,5" d="M908.344,-104.978C839.549,-93.5193 708.757,-71.4729 699,-67.8823 690.859,-64.8863 682.556,-60.7175 674.922,-56.3509"/>
<polygon fill="green" stroke="green" stroke-width="0.558134" points="676.694,-53.3328 666.318,-51.1925 673.095,-59.3365 676.694,-53.3328"/>
</g>
<!-- distancia projetil 5 -->
<g id="node5" class="node"><title>distancia projetil 5</title>
<polygon fill="lightgray" stroke="black" points="1401.5,-121.882 1318.5,-121.882 1318.5,-103.882 1401.5,-103.882 1401.5,-121.882"/>
<text text-anchor="middle" x="1360" y="-110.682" font-family="Times New Roman,serif" font-size="9.00">distancia projetil 5</text>
</g>
<!-- distancia projetil 5&#45;&gt;direita -->
<g id="edge16" class="edge"><title>distancia projetil 5&#45;&gt;direita</title>
<path fill="none" stroke="green" stroke-width="0.396122" d="M1328.12,-103.866C1270.82,-89.4577 1150.77,-59.2735 1090.36,-44.0844"/>
<polygon fill="green" stroke="green" stroke-width="0.396122" points="1091.05,-40.649 1080.5,-41.6047 1089.35,-47.4377 1091.05,-40.649"/>
</g>
<!-- distancia projetil 5&#45;&gt;atirar -->
<g id="edge49" class="edge"><title>distancia projetil 5&#45;&gt;atirar</title>
<path fill="none" stroke="red" stroke-width="0.197158" d="M1349.19,-103.648C1334.34,-92.3361 1307.12,-71.6016 1286.46,-55.8588"/>
<polygon fill="red" stroke="red" stroke-width="0.197158" points="1288.42,-52.9495 1278.34,-49.6737 1284.17,-58.5178 1288.42,-52.9495"/>
</g>
<!-- distancia projetil 5&#45;&gt;release -->
<g id="edge25" class="edge"><title>distancia projetil 5&#45;&gt;release</title>
<path fill="none" stroke="green" stroke-width="0.700589" stroke-dasharray="1,5" d="M1318.3,-104.891C1315.5,-104.52 1312.71,-104.178 1310,-103.882 1174.79,-89.1195 829.126,-107.464 699,-67.8823 690.701,-65.3578 682.334,-61.3772 674.689,-57.0432"/>
<polygon fill="green" stroke="green" stroke-width="0.700589" points="676.465,-54.0267 666.094,-51.8591 672.85,-60.0209 676.465,-54.0267"/>
</g>
<!-- distancia projetil 6 -->
<g id="node6" class="node"><title>distancia projetil 6</title>
<polygon fill="lightgray" stroke="black" points="1609.5,-121.882 1526.5,-121.882 1526.5,-103.882 1609.5,-103.882 1609.5,-121.882"/>
<text text-anchor="middle" x="1568" y="-110.682" font-family="Times New Roman,serif" font-size="9.00">distancia projetil 6</text>
</g>
<!-- distancia projetil 6&#45;&gt;esquerda -->
<g id="edge67" class="edge"><title>distancia projetil 6&#45;&gt;esquerda</title>
<path fill="none" stroke="green" stroke-width="0.129345" d="M1526.29,-105.007C1523.15,-104.592 1520.03,-104.21 1517,-103.882 1250.96,-75.1154 1181.55,-100.837 916,-67.8823 871.013,-62.2995 820.127,-52.2201 785.06,-44.6758"/>
<polygon fill="green" stroke="green" stroke-width="0.129345" points="785.674,-41.2276 775.159,-42.5225 784.186,-48.0678 785.674,-41.2276"/>
</g>
<!-- distancia projetil 6&#45;&gt;atirar -->
<g id="edge66" class="edge"><title>distancia projetil 6&#45;&gt;atirar</title>
<path fill="none" stroke="red" stroke-width="0.270203" stroke-dasharray="1,5" d="M1535.81,-103.866C1476.92,-89.203 1352.41,-58.2014 1292.54,-43.2931"/>
<polygon fill="red" stroke="red" stroke-width="0.270203" points="1293.37,-39.8936 1282.82,-40.8736 1291.68,-46.6862 1293.37,-39.8936"/>
</g>
<!-- distancia projetil 7 -->
<g id="node7" class="node"><title>distancia projetil 7</title>
<polygon fill="lightgray" stroke="black" points="2029.5,-121.882 1946.5,-121.882 1946.5,-103.882 2029.5,-103.882 2029.5,-121.882"/>
<text text-anchor="middle" x="1988" y="-110.682" font-family="Times New Roman,serif" font-size="9.00">distancia projetil 7</text>
</g>
<!-- distancia projetil 7&#45;&gt;atirar -->
<g id="edge57" class="edge"><title>distancia projetil 7&#45;&gt;atirar</title>
<path fill="none" stroke="red" stroke-width="0.146357" stroke-dasharray="1,5" d="M1946.28,-105.149C1943.14,-104.7 1940.02,-104.273 1937,-103.882 1691.32,-72.1467 1394,-46.2074 1293.83,-37.811"/>
<polygon fill="red" stroke="red" stroke-width="0.146357" points="1293.94,-34.3076 1283.68,-36.9636 1293.36,-41.2834 1293.94,-34.3076"/>
</g>
<!-- distancia projetil 8 -->
<g id="node8" class="node"><title>distancia projetil 8</title>
<polygon fill="lightgray" stroke="black" points="1300.5,-121.882 1217.5,-121.882 1217.5,-103.882 1300.5,-103.882 1300.5,-121.882"/>
<text text-anchor="middle" x="1259" y="-110.682" font-family="Times New Roman,serif" font-size="9.00">distancia projetil 8</text>
</g>
<!-- distancia projetil 8&#45;&gt;direita -->
<g id="edge11" class="edge"><title>distancia projetil 8&#45;&gt;direita</title>
<path fill="none" stroke="red" stroke-width="0.160708" stroke-dasharray="1,5" d="M1237.45,-103.794C1202.16,-90.5497 1131.73,-64.1162 1089.14,-48.1315"/>
<polygon fill="red" stroke="red" stroke-width="0.160708" points="1090.32,-44.8347 1079.73,-44.5975 1087.86,-51.3883 1090.32,-44.8347"/>
</g>
<!-- distancia projetil 8&#45;&gt;pular -->
<g id="edge26" class="edge"><title>distancia projetil 8&#45;&gt;pular</title>
<path fill="none" stroke="red" stroke-width="0.489717" stroke-dasharray="1,5" d="M1217.29,-104.946C1153.15,-94.1807 1035.71,-74.0483 1017,-67.8823 1004.5,-63.7612 991.37,-57.7253 980.081,-51.9425"/>
<polygon fill="red" stroke="red" stroke-width="0.489717" points="981.562,-48.7666 971.085,-47.1921 978.293,-54.9566 981.562,-48.7666"/>
</g>
<!-- distancia projetil 9 -->
<g id="node9" class="node"><title>distancia projetil 9</title>
<polygon fill="lightgray" stroke="black" points="177.5,-121.882 94.5,-121.882 94.5,-103.882 177.5,-103.882 177.5,-121.882"/>
<text text-anchor="middle" x="136" y="-110.682" font-family="Times New Roman,serif" font-size="9.00">distancia projetil 9</text>
</g>
<!-- distancia projetil 9&#45;&gt;esquerda -->
<g id="edge44" class="edge"><title>distancia projetil 9&#45;&gt;esquerda</title>
<path fill="none" stroke="red" stroke-width="0.273651" stroke-dasharray="1,5" d="M177.704,-104.926C180.508,-104.546 183.293,-104.193 186,-103.882 299.534,-90.8419 592.121,-108.342 699,-67.8823 702.265,-66.6462 705.488,-65.0759 708.611,-63.2943"/>
<polygon fill="red" stroke="red" stroke-width="0.273651" points="710.598,-66.1774 717.105,-57.8157 706.804,-60.2949 710.598,-66.1774"/>
</g>
<!-- distancia projetil 9&#45;&gt;direita -->
<g id="edge27" class="edge"><title>distancia projetil 9&#45;&gt;direita</title>
<path fill="none" stroke="red" stroke-width="0.45882" stroke-dasharray="1,5" d="M177.695,-104.845C180.501,-104.484 183.289,-104.158 186,-103.882 366.578,-85.5137 828.834,-122.281 1002,-67.8823 1009.67,-65.4726 1017.32,-61.6342 1024.31,-57.4149"/>
<polygon fill="red" stroke="red" stroke-width="0.45882" points="1026.26,-60.3217 1032.75,-51.9458 1022.45,-54.4475 1026.26,-60.3217"/>
</g>
<!-- distancia projetil 9&#45;&gt;release -->
<g id="edge51" class="edge"><title>distancia projetil 9&#45;&gt;release</title>
<path fill="none" stroke="red" stroke-width="0.267393" stroke-dasharray="1,5" d="M177.737,-105.176C180.533,-104.735 183.307,-104.301 186,-103.882 340.983,-79.794 525.734,-52.2966 604.432,-40.6406"/>
<polygon fill="red" stroke="red" stroke-width="0.267393" points="604.999,-44.0949 614.378,-39.1682 603.974,-37.1704 604.999,-44.0949"/>
</g>
<!-- distancia projetil 10 -->
<g id="node10" class="node"><title>distancia projetil 10</title>
<polygon fill="lightgray" stroke="black" points="1508,-121.882 1420,-121.882 1420,-103.882 1508,-103.882 1508,-121.882"/>
<text text-anchor="middle" x="1464" y="-110.682" font-family="Times New Roman,serif" font-size="9.00">distancia projetil 10</text>
</g>
<!-- distancia projetil 10&#45;&gt;esquerda -->
<g id="edge30" class="edge"><title>distancia projetil 10&#45;&gt;esquerda</title>
<path fill="none" stroke="green" stroke-width="0.191568" d="M1419.79,-104.948C1416.82,-104.562 1413.87,-104.202 1411,-103.882 1191.78,-79.4029 1134.72,-96.4445 916,-67.8823 871.05,-62.0124 820.158,-51.9766 785.08,-44.5209"/>
<polygon fill="green" stroke="green" stroke-width="0.191568" points="785.687,-41.0716 775.175,-42.3949 784.218,-47.9157 785.687,-41.0716"/>
</g>
<!-- distancia projetil 10&#45;&gt;direita -->
<g id="edge47" class="edge"><title>distancia projetil 10&#45;&gt;direita</title>
<path fill="none" stroke="red" stroke-width="0.27994" stroke-dasharray="1,5" d="M1419.93,-103.881C1371.96,-95.1458 1293,-80.6905 1225,-67.8823 1178.82,-59.1841 1125.69,-48.9057 1091.06,-42.172"/>
<polygon fill="red" stroke="red" stroke-width="0.27994" points="1091.42,-38.6767 1080.94,-40.2016 1090.09,-45.5477 1091.42,-38.6767"/>
</g>
<!-- distancia projetil 10&#45;&gt;pular -->
<g id="edge2" class="edge"><title>distancia projetil 10&#45;&gt;pular</title>
<path fill="none" stroke="red" stroke-width="0.43087" stroke-dasharray="1,5" d="M1419.78,-105.009C1416.81,-104.609 1413.86,-104.229 1411,-103.882 1236.43,-82.7508 1186.28,-115.468 1017,-67.8823 1004.33,-64.3197 991.164,-58.3992 979.895,-52.5524"/>
<polygon fill="red" stroke="red" stroke-width="0.43087" points="981.388,-49.3814 970.926,-47.7117 978.064,-55.5414 981.388,-49.3814"/>
</g>
<!-- distancia projetil 10&#45;&gt;atirar -->
<g id="edge14" class="edge"><title>distancia projetil 10&#45;&gt;atirar</title>
<path fill="none" stroke="green" stroke-width="0.250734" stroke-dasharray="1,5" d="M1442.45,-103.794C1406.47,-90.2918 1333.98,-63.0819 1291.69,-47.2099"/>
<polygon fill="green" stroke="green" stroke-width="0.250734" points="1292.73,-43.8612 1282.13,-43.6241 1290.27,-50.4148 1292.73,-43.8612"/>
</g>
<!-- distancia projetil 11 -->
<g id="node11" class="node"><title>distancia projetil 11</title>
<polygon fill="lightgray" stroke="black" points="385,-121.882 297,-121.882 297,-103.882 385,-103.882 385,-121.882"/>
<text text-anchor="middle" x="341" y="-110.682" font-family="Times New Roman,serif" font-size="9.00">distancia projetil 11</text>
</g>
<!-- distancia projetil 11&#45;&gt;esquerda -->
<g id="edge17" class="edge"><title>distancia projetil 11&#45;&gt;esquerda</title>
<path fill="none" stroke="red" stroke-width="0.176436" stroke-dasharray="1,5" d="M385.231,-105.097C388.197,-104.675 391.141,-104.267 394,-103.882 529.279,-85.6936 572.526,-119.221 699,-67.8823 702.235,-66.5691 705.436,-64.9441 708.545,-63.1252"/>
<polygon fill="red" stroke="red" stroke-width="0.176436" points="710.562,-65.9879 717.014,-57.5841 706.73,-60.1303 710.562,-65.9879"/>
</g>
<!-- distancia projetil 11&#45;&gt;pular -->
<g id="edge58" class="edge"><title>distancia projetil 11&#45;&gt;pular</title>
<path fill="none" stroke="red" stroke-width="0.111234" d="M385.22,-105.011C388.189,-104.611 391.136,-104.23 394,-103.882 567.241,-82.8502 612.304,-93 785,-67.8823 830.647,-61.2431 882.761,-50.2608 915.996,-42.8195"/>
<polygon fill="red" stroke="red" stroke-width="0.111234" points="917.108,-46.1564 926.091,-40.5379 915.565,-39.3286 917.108,-46.1564"/>
</g>
<!-- distancia projetil 11&#45;&gt;atirar -->
<g id="edge41" class="edge"><title>distancia projetil 11&#45;&gt;atirar</title>
<path fill="none" stroke="red" stroke-width="0.403149" stroke-dasharray="1,5" d="M385.205,-104.874C388.177,-104.506 391.13,-104.17 394,-103.882 710.589,-72.0983 793.64,-110.152 1109,-67.8823 1149.42,-62.4642 1195.09,-51.76 1225.31,-44.0212"/>
<polygon fill="red" stroke="red" stroke-width="0.403149" points="1226.52,-47.3231 1235.32,-41.4211 1224.76,-40.5479 1226.52,-47.3231"/>
</g>
<!-- distancia projetil 11&#45;&gt;release -->
<g id="edge69" class="edge"><title>distancia projetil 11&#45;&gt;release</title>
<path fill="none" stroke="green" stroke-width="0.303157" stroke-dasharray="1,5" d="M372.465,-103.866C428.447,-89.6032 545.106,-59.8817 605.288,-44.5492"/>
<polygon fill="green" stroke="green" stroke-width="0.303157" points="606.316,-47.899 615.143,-42.0384 604.588,-41.1157 606.316,-47.899"/>
</g>
<!-- distancia projetil 12 -->
<g id="node12" class="node"><title>distancia projetil 12</title>
<polygon fill="lightgray" stroke="black" points="1928,-121.882 1840,-121.882 1840,-103.882 1928,-103.882 1928,-121.882"/>
<text text-anchor="middle" x="1884" y="-110.682" font-family="Times New Roman,serif" font-size="9.00">distancia projetil 12</text>
</g>
<!-- distancia projetil 12&#45;&gt;pular -->
<g id="edge38" class="edge"><title>distancia projetil 12&#45;&gt;pular</title>
<path fill="none" stroke="green" stroke-width="0.234485" d="M1839.8,-104.853C1836.82,-104.491 1833.87,-104.162 1831,-103.882 1650.79,-86.3455 1192.41,-112.779 1017,-67.8823 1004.15,-64.5929 990.865,-58.6688 979.548,-52.7423"/>
<polygon fill="green" stroke="green" stroke-width="0.234485" points="981.009,-49.5524 970.557,-47.8213 977.648,-55.6928 981.009,-49.5524"/>
</g>
<!-- distancia projetil 12&#45;&gt;atirar -->
<g id="edge54" class="edge"><title>distancia projetil 12&#45;&gt;atirar</title>
<path fill="none" stroke="red" stroke-width="0.299764" d="M1839.77,-105.105C1836.8,-104.681 1833.86,-104.27 1831,-103.882 1627.65,-76.2874 1382.87,-48.6443 1293.66,-38.7532"/>
<polygon fill="red" stroke="red" stroke-width="0.299764" points="1293.89,-35.2573 1283.56,-37.6361 1293.12,-42.2149 1293.89,-35.2573"/>
</g>
<!-- distancia projetil 13 -->
<g id="node13" class="node"><title>distancia projetil 13</title>
<polygon fill="lightgray" stroke="black" points="1822,-121.882 1734,-121.882 1734,-103.882 1822,-103.882 1822,-121.882"/>
<text text-anchor="middle" x="1778" y="-110.682" font-family="Times New Roman,serif" font-size="9.00">distancia projetil 13</text>
</g>
<!-- distancia projetil 13&#45;&gt;direita -->
<g id="edge48" class="edge"><title>distancia projetil 13&#45;&gt;direita</title>
<path fill="none" stroke="green" stroke-width="0.512086" d="M1733.79,-104.945C1730.82,-104.56 1727.87,-104.201 1725,-103.882 1503.57,-79.237 1445.89,-97.0055 1225,-67.8823 1178.41,-61.74 1125.37,-50.9141 1090.87,-43.3555"/>
<polygon fill="green" stroke="green" stroke-width="0.512086" points="1091.31,-39.868 1080.79,-41.1235 1089.8,-46.7025 1091.31,-39.868"/>
</g>
<!-- distancia projetil 13&#45;&gt;pular -->
<g id="edge23" class="edge"><title>distancia projetil 13&#45;&gt;pular</title>
<path fill="none" stroke="red" stroke-width="0.348365" d="M1733.79,-104.875C1730.82,-104.507 1727.87,-104.171 1725,-103.882 1568.26,-88.1065 1169.49,-107.449 1017,-67.8823 1004.16,-64.5505 990.878,-58.6179 979.559,-52.6964"/>
<polygon fill="red" stroke="red" stroke-width="0.348365" points="981.02,-49.5063 970.567,-47.7824 977.664,-55.6491 981.02,-49.5063"/>
</g>
<!-- distancia projetil 13&#45;&gt;atirar -->
<g id="edge10" class="edge"><title>distancia projetil 13&#45;&gt;atirar</title>
<path fill="none" stroke="green" stroke-width="0.741785" d="M1733.76,-105.194C1730.79,-104.749 1727.85,-104.309 1725,-103.882 1563.93,-79.8116 1371.48,-51.4738 1293.92,-40.072"/>
<polygon fill="green" stroke="green" stroke-width="0.741785" points="1294.16,-36.5694 1283.76,-38.5778 1293.14,-43.4949 1294.16,-36.5694"/>
</g>
<!-- distancia projetil 14 -->
<g id="node14" class="node"><title>distancia projetil 14</title>
<polygon fill="lightgray" stroke="black" points="1716,-121.882 1628,-121.882 1628,-103.882 1716,-103.882 1716,-121.882"/>
<text text-anchor="middle" x="1672" y="-110.682" font-family="Times New Roman,serif" font-size="9.00">distancia projetil 14</text>
</g>
<!-- distancia projetil 14&#45;&gt;esquerda -->
<g id="edge52" class="edge"><title>distancia projetil 14&#45;&gt;esquerda</title>
<path fill="none" stroke="red" stroke-width="0.164652" d="M1627.79,-104.876C1624.82,-104.508 1621.87,-104.172 1619,-103.882 1307.72,-72.4969 1226.64,-105.066 916,-67.8823 870.989,-62.4945 820.107,-52.3855 785.047,-44.781"/>
<polygon fill="red" stroke="red" stroke-width="0.164652" points="785.666,-41.3336 775.148,-42.6092 784.166,-48.1709 785.666,-41.3336"/>
</g>
<!-- distancia projetil 14&#45;&gt;direita -->
<g id="edge71" class="edge"><title>distancia projetil 14&#45;&gt;direita</title>
<path fill="none" stroke="green" stroke-width="0.278999" d="M1627.78,-105.009C1624.81,-104.609 1621.86,-104.229 1619,-103.882 1444.43,-82.7508 1399.1,-92.5436 1225,-67.8823 1178.48,-61.2921 1125.41,-50.5621 1090.9,-43.1481"/>
<polygon fill="green" stroke="green" stroke-width="0.278999" points="1091.33,-39.6595 1080.81,-40.9619 1089.84,-46.5006 1091.33,-39.6595"/>
</g>
<!-- distancia projetil 14&#45;&gt;pular -->
<g id="edge18" class="edge"><title>distancia projetil 14&#45;&gt;pular</title>
<path fill="none" stroke="green" stroke-width="0.440483" d="M1627.79,-104.905C1624.82,-104.53 1621.87,-104.184 1619,-103.882 1352.44,-75.8515 1276.14,-136.359 1017,-67.8823 1004.17,-64.4932 990.896,-58.5491 979.576,-52.6345"/>
<polygon fill="green" stroke="green" stroke-width="0.440483" points="981.036,-49.4442 970.58,-47.73 977.685,-55.59 981.036,-49.4442"/>
</g>
<!-- distancia projetil 14&#45;&gt;atirar -->
<g id="edge34" class="edge"><title>distancia projetil 14&#45;&gt;atirar</title>
<path fill="none" stroke="red" stroke-width="0.264407" d="M1628.97,-103.866C1546.69,-88.5369 1368.55,-55.351 1293.48,-41.364"/>
<polygon fill="red" stroke="red" stroke-width="0.264407" points="1294.06,-37.9124 1283.59,-39.5216 1292.78,-44.794 1294.06,-37.9124"/>
</g>
<!-- distancia projetil 15 -->
<g id="node15" class="node"><title>distancia projetil 15</title>
<polygon fill="lightgray" stroke="black" points="1098,-121.882 1010,-121.882 1010,-103.882 1098,-103.882 1098,-121.882"/>
<text text-anchor="middle" x="1054" y="-110.682" font-family="Times New Roman,serif" font-size="9.00">distancia projetil 15</text>
</g>
<!-- distancia projetil 15&#45;&gt;esquerda -->
<g id="edge39" class="edge"><title>distancia projetil 15&#45;&gt;esquerda</title>
<path fill="none" stroke="green" stroke-width="0.706896" stroke-dasharray="1,5" d="M1021.49,-103.866C964.869,-89.9019 848.155,-61.1197 784.943,-45.5311"/>
<polygon fill="green" stroke="green" stroke-width="0.706896" points="785.45,-42.0513 774.903,-43.0551 783.774,-48.8477 785.45,-42.0513"/>
</g>
<!-- distancia projetil 15&#45;&gt;direita -->
<g id="edge21" class="edge"><title>distancia projetil 15&#45;&gt;direita</title>
<path fill="none" stroke="green" stroke-width="0.156288" stroke-dasharray="1,5" d="M1054,-103.648C1054,-95.9723 1054,-83.958 1054,-72.1087"/>
<polygon fill="green" stroke="green" stroke-width="0.156288" points="1057.5,-71.8514 1054,-61.8514 1050.5,-71.8514 1057.5,-71.8514"/>
</g>
<!-- distancia projetil 15&#45;&gt;pular -->
<g id="edge7" class="edge"><title>distancia projetil 15&#45;&gt;pular</title>
<path fill="none" stroke="green" stroke-width="0.238507" stroke-dasharray="1,5" d="M1042.87,-103.648C1027.42,-92.2174 998.964,-71.1653 977.606,-55.3648"/>
<polygon fill="green" stroke="green" stroke-width="0.238507" points="979.644,-52.5188 969.523,-49.3849 975.481,-58.1462 979.644,-52.5188"/>
</g>
<!-- distancia projetil 15&#45;&gt;atirar -->
<g id="edge63" class="edge"><title>distancia projetil 15&#45;&gt;atirar</title>
<path fill="none" stroke="red" stroke-width="0.604145" stroke-dasharray="1,5" d="M1075.55,-103.794C1111.53,-90.2918 1184.02,-63.0819 1226.31,-47.2099"/>
<polygon fill="red" stroke="red" stroke-width="0.604145" points="1227.73,-50.4148 1235.87,-43.6241 1225.27,-43.8612 1227.73,-50.4148"/>
</g>
<!-- distancia projetil 15&#45;&gt;release -->
<g id="edge31" class="edge"><title>distancia projetil 15&#45;&gt;release</title>
<path fill="none" stroke="red" stroke-width="0.141049" d="M1009.81,-105.233C1006.49,-104.765 1003.19,-104.31 1000,-103.882 866.46,-86.0082 826.662,-110.952 699,-67.8823 690.78,-65.1092 682.446,-61.0294 674.806,-56.6782"/>
<polygon fill="red" stroke="red" stroke-width="0.141049" points="676.58,-53.661 666.207,-51.5077 672.973,-59.6602 676.58,-53.661"/>
</g>
<!-- distancia projetil 16 -->
<g id="node16" class="node"><title>distancia projetil 16</title>
<polygon fill="lightgray" stroke="black" points="890,-121.882 802,-121.882 802,-103.882 890,-103.882 890,-121.882"/>
<text text-anchor="middle" x="846" y="-110.682" font-family="Times New Roman,serif" font-size="9.00">distancia projetil 16</text>
</g>
<!-- distancia projetil 16&#45;&gt;esquerda -->
<g id="edge24" class="edge"><title>distancia projetil 16&#45;&gt;esquerda</title>
<path fill="none" stroke="green" stroke-width="0.776255" d="M834.87,-103.648C821.146,-93.4946 797.16,-75.7496 777.003,-60.837"/>
<polygon fill="green" stroke="green" stroke-width="0.776255" points="779.047,-57.9955 768.926,-54.8617 774.884,-63.6229 779.047,-57.9955"/>
</g>
<!-- distancia projetil 16&#45;&gt;direita -->
<g id="edge42" class="edge"><title>distancia projetil 16&#45;&gt;direita</title>
<path fill="none" stroke="red" stroke-width="0.4315" d="M886.545,-103.841C918.707,-96.6655 964.354,-84.6844 1002,-67.8823 1009.11,-64.7081 1016.39,-60.6717 1023.16,-56.5212"/>
<polygon fill="red" stroke="red" stroke-width="0.4315" points="1025.48,-59.1949 1032.02,-50.8609 1021.71,-53.2965 1025.48,-59.1949"/>
</g>
<!-- distancia projetil 16&#45;&gt;pular -->
<g id="edge59" class="edge"><title>distancia projetil 16&#45;&gt;pular</title>
<path fill="none" stroke="red" stroke-width="1.30462" stroke-dasharray="1,5" d="M857.13,-103.648C872.581,-92.2174 901.036,-71.1653 922.394,-55.3648"/>
<polygon fill="red" stroke="red" stroke-width="1.30462" points="924.519,-58.1462 930.477,-49.3849 920.356,-52.5188 924.519,-58.1462"/>
</g>
<!-- distancia inimigo 1 -->
<g id="node17" class="node"><title>distancia inimigo 1</title>
<polygon fill="lightgray" stroke="black" points="1199.5,-121.882 1116.5,-121.882 1116.5,-103.882 1199.5,-103.882 1199.5,-121.882"/>
<text text-anchor="middle" x="1158" y="-110.682" font-family="Times New Roman,serif" font-size="9.00">distancia inimigo 1</text>
</g>
<!-- distancia inimigo 1&#45;&gt;esquerda -->
<g id="edge5" class="edge"><title>distancia inimigo 1&#45;&gt;esquerda</title>
<path fill="none" stroke="red" stroke-width="0.145739" stroke-dasharray="1,5" d="M1116.45,-104.421C1068.23,-95.7418 986.326,-80.9324 916,-67.8823 871.429,-59.6114 820.479,-49.9404 785.284,-43.2258"/>
<polygon fill="red" stroke="red" stroke-width="0.145739" points="785.822,-39.7654 775.344,-41.3279 784.51,-46.6412 785.822,-39.7654"/>
</g>
<!-- distancia inimigo 1&#45;&gt;direita -->
<g id="edge12" class="edge"><title>distancia inimigo 1&#45;&gt;direita</title>
<path fill="none" stroke="red" stroke-width="0.288216" d="M1146.87,-103.648C1132.04,-92.6768 1105.23,-72.8421 1084.21,-57.2945"/>
<polygon fill="red" stroke="red" stroke-width="0.288216" points="1086.03,-54.2806 1075.9,-51.1467 1081.86,-59.908 1086.03,-54.2806"/>
</g>
<!-- distancia inimigo 1&#45;&gt;pular -->
<g id="edge35" class="edge"><title>distancia inimigo 1&#45;&gt;pular</title>
<path fill="none" stroke="red" stroke-width="0.723679" d="M1127.55,-103.85C1098.67,-95.8891 1054.27,-82.7574 1017,-67.8823 1004.77,-63.0028 991.703,-56.8103 980.382,-51.1145"/>
<polygon fill="red" stroke="red" stroke-width="0.723679" points="981.838,-47.9277 971.341,-46.4867 978.648,-54.1588 981.838,-47.9277"/>
</g>
<!-- distancia inimigo 1&#45;&gt;atirar -->
<g id="edge19" class="edge"><title>distancia inimigo 1&#45;&gt;atirar</title>
<path fill="none" stroke="green" stroke-width="0.833142" d="M1168.81,-103.648C1183.66,-92.3361 1210.88,-71.6016 1231.54,-55.8588"/>
<polygon fill="green" stroke="green" stroke-width="0.833142" points="1233.83,-58.5178 1239.66,-49.6737 1229.58,-52.9495 1233.83,-58.5178"/>
</g>
<!-- distancia inimigo 1&#45;&gt;release -->
<g id="edge45" class="edge"><title>distancia inimigo 1&#45;&gt;release</title>
<path fill="none" stroke="red" stroke-width="0.227337" d="M1116.28,-105.103C1113.15,-104.665 1110.02,-104.252 1107,-103.882 926.311,-81.7646 872.368,-123.391 699,-67.8823 690.738,-65.2371 682.387,-61.2083 674.745,-56.8659"/>
<polygon fill="red" stroke="red" stroke-width="0.227337" points="676.52,-53.8492 666.147,-51.6885 672.908,-59.8457 676.52,-53.8492"/>
</g>
<!-- distancia inimigo 2 -->
<g id="node18" class="node"><title>distancia inimigo 2</title>
<polygon fill="lightgray" stroke="black" points="278.5,-121.882 195.5,-121.882 195.5,-103.882 278.5,-103.882 278.5,-121.882"/>
<text text-anchor="middle" x="237" y="-110.682" font-family="Times New Roman,serif" font-size="9.00">distancia inimigo 2</text>
</g>
<!-- distancia inimigo 2&#45;&gt;esquerda -->
<g id="edge65" class="edge"><title>distancia inimigo 2&#45;&gt;esquerda</title>
<path fill="none" stroke="green" stroke-width="0.28341" d="M278.716,-105.101C281.854,-104.664 284.975,-104.252 288,-103.882 470.015,-81.6614 528.079,-134.282 699,-67.8823 702.254,-66.618 705.469,-65.0277 708.587,-63.2324"/>
<polygon fill="green" stroke="green" stroke-width="0.28341" points="710.586,-66.108 717.072,-57.7309 706.777,-60.2346 710.586,-66.108"/>
</g>
<!-- distancia inimigo 2&#45;&gt;direita -->
<g id="edge9" class="edge"><title>distancia inimigo 2&#45;&gt;direita</title>
<path fill="none" stroke="red" stroke-width="0.221891" d="M278.702,-104.975C281.843,-104.567 284.969,-104.196 288,-103.882 446.026,-87.5499 850.585,-115.972 1002,-67.8823 1009.66,-65.4485 1017.31,-61.6002 1024.3,-57.3789"/>
<polygon fill="red" stroke="red" stroke-width="0.221891" points="1026.25,-60.286 1032.73,-51.9109 1022.44,-54.4114 1026.25,-60.286"/>
</g>
<!-- distancia inimigo 2&#45;&gt;pular -->
<g id="edge29" class="edge"><title>distancia inimigo 2&#45;&gt;pular</title>
<path fill="none" stroke="red" stroke-width="1.53162" stroke-dasharray="1,5" d="M278.71,-105.05C281.85,-104.624 284.973,-104.229 288,-103.882 508.031,-78.7002 565.538,-97.6195 785,-67.8823 830.71,-61.6886 882.809,-50.6022 916.023,-43.0157"/>
<polygon fill="red" stroke="red" stroke-width="1.53162" points="917.155,-46.3465 926.111,-40.6862 915.58,-39.5259 917.155,-46.3465"/>
</g>
<!-- distancia inimigo 2&#45;&gt;release -->
<g id="edge56" class="edge"><title>distancia inimigo 2&#45;&gt;release</title>
<path fill="none" stroke="green" stroke-width="0.10229" d="M278.541,-104.01C357.391,-89.067 527.699,-56.7919 604.296,-42.276"/>
<polygon fill="green" stroke="green" stroke-width="0.10229" points="605.289,-45.6501 614.463,-40.3493 603.986,-38.7725 605.289,-45.6501"/>
</g>
<!-- direcao sprites 1 -->
<g id="node19" class="node"><title>direcao sprites 1</title>
<polygon fill="lightgray" stroke="black" points="682,-121.882 606,-121.882 606,-103.882 682,-103.882 682,-121.882"/>
<text text-anchor="middle" x="644" y="-110.682" font-family="Times New Roman,serif" font-size="9.00">direcao sprites 1</text>
</g>
<!-- direcao sprites 1&#45;&gt;esquerda -->
<g id="edge50" class="edge"><title>direcao sprites 1&#45;&gt;esquerda</title>
<path fill="none" stroke="green" stroke-width="0.300836" d="M654.488,-103.648C667.047,-93.7874 688.726,-76.7669 707.364,-62.1342"/>
<polygon fill="green" stroke="green" stroke-width="0.300836" points="709.695,-64.7542 715.399,-55.8259 705.372,-59.2483 709.695,-64.7542"/>
</g>
<!-- direcao sprites 1&#45;&gt;direita -->
<g id="edge32" class="edge"><title>direcao sprites 1&#45;&gt;direita</title>
<path fill="none" stroke="green" stroke-width="0.393667" stroke-dasharray="1,5" d="M682.193,-105.206C685.17,-104.739 688.132,-104.292 691,-103.882 828.746,-84.201 870.818,-114.28 1002,-67.8823 1009.58,-65.2013 1017.2,-61.251 1024.17,-57.0091"/>
<polygon fill="green" stroke="green" stroke-width="0.393667" points="1026.12,-59.9205 1032.61,-51.5536 1022.32,-54.0411 1026.12,-59.9205"/>
</g>
<!-- direcao sprites 1&#45;&gt;atirar -->
<g id="edge4" class="edge"><title>direcao sprites 1&#45;&gt;atirar</title>
<path fill="none" stroke="red" stroke-width="0.110027" d="M682.18,-105.112C685.16,-104.667 688.126,-104.25 691,-103.882 875.958,-80.2176 924.658,-95.9398 1109,-67.8823 1149.32,-61.7455 1195.01,-51.1815 1225.26,-43.6719"/>
<polygon fill="red" stroke="red" stroke-width="0.110027" points="1226.43,-46.9857 1235.28,-41.1553 1224.73,-40.1965 1226.43,-46.9857"/>
</g>
<!-- direcao sprites 1&#45;&gt;release -->
<g id="edge70" class="edge"><title>direcao sprites 1&#45;&gt;release</title>
<path fill="none" stroke="green" stroke-width="0.478501" d="M643.893,-103.648C643.797,-96.2873 643.65,-84.9367 643.502,-73.568"/>
<polygon fill="green" stroke="green" stroke-width="0.478501" points="646.998,-73.1897 643.368,-63.2361 639.998,-73.2808 646.998,-73.1897"/>
</g>
<!-- direcao sprites 2 -->
<g id="node20" class="node"><title>direcao sprites 2</title>
<polygon fill="lightgray" stroke="black" points="76,-121.882 0,-121.882 0,-103.882 76,-103.882 76,-121.882"/>
<text text-anchor="middle" x="38" y="-110.682" font-family="Times New Roman,serif" font-size="9.00">direcao sprites 2</text>
</g>
<!-- direcao sprites 2&#45;&gt;esquerda -->
<g id="edge36" class="edge"><title>direcao sprites 2&#45;&gt;esquerda</title>
<path fill="none" stroke="green" stroke-width="0.147443" stroke-dasharray="1,5" d="M76.1694,-105.024C79.1519,-104.599 82.1217,-104.211 85,-103.882 220.798,-88.3915 570.898,-115.536 699,-67.8823 702.465,-66.5933 705.88,-64.9234 709.178,-63.0199"/>
<polygon fill="green" stroke="green" stroke-width="0.147443" points="711.124,-65.9292 717.592,-57.5371 707.303,-60.0646 711.124,-65.9292"/>
</g>
<!-- direcao sprites 2&#45;&gt;pular -->
<g id="edge1" class="edge"><title>direcao sprites 2&#45;&gt;pular</title>
<path fill="none" stroke="green" stroke-width="0.410244" d="M76.1668,-105.001C79.1499,-104.581 82.1205,-104.2 85,-103.882 394.64,-69.6869 475.878,-106.479 785,-67.8823 830.772,-62.1671 882.857,-50.9689 916.051,-43.2265"/>
<polygon fill="green" stroke="green" stroke-width="0.410244" points="917.204,-46.5504 926.132,-40.8455 915.595,-39.7378 917.204,-46.5504"/>
</g>
<!-- direcao sprites 2&#45;&gt;release -->
<g id="edge43" class="edge"><title>direcao sprites 2&#45;&gt;release</title>
<path fill="none" stroke="red" stroke-width="0.722093" stroke-dasharray="1,5" d="M76.1964,-105.231C79.1727,-104.758 82.1337,-104.303 85,-103.882 279.39,-75.3452 513.052,-49.0639 604.06,-39.1326"/>
<polygon fill="red" stroke="red" stroke-width="0.722093" points="604.626,-42.5918 614.188,-38.0307 603.868,-35.6329 604.626,-42.5918"/>
</g>
<!-- direita&#45;&gt;direita -->
<g id="edge61" class="edge"><title>direita&#45;&gt;direita</title>
<path fill="none" stroke="red" stroke-width="0.170641" d="M1077.92,-48.2091C1089.42,-49.9705 1099.58,-45.2146 1099.58,-33.9411 1099.58,-26.1906 1094.78,-21.5207 1088.04,-19.9312"/>
<polygon fill="red" stroke="red" stroke-width="0.170641" points="1088,-16.4293 1077.92,-19.6732 1087.82,-23.427 1088,-16.4293"/>
</g>
<!-- pular&#45;&gt;pular -->
<g id="edge37" class="edge"><title>pular&#45;&gt;pular</title>
<path fill="none" stroke="red" stroke-width="1.00135" d="M970.674,-47.8663C982.166,-50.4657 992.749,-45.8239 992.749,-33.9411 992.749,-25.7717 987.747,-21.0248 980.886,-19.7005"/>
<polygon fill="red" stroke="red" stroke-width="1.00135" points="980.561,-16.2087 970.674,-20.016 980.777,-23.2054 980.561,-16.2087"/>
</g>
<!-- release&#45;&gt;release -->
<g id="edge20" class="edge"><title>release&#45;&gt;release</title>
<path fill="none" stroke="red" stroke-width="0.557607" d="M668.618,-48.3376C680.079,-49.7087 689.991,-44.9099 689.991,-33.9411 689.991,-26.4001 685.306,-21.7753 678.654,-20.0668"/>
<polygon fill="red" stroke="red" stroke-width="0.557607" points="678.786,-16.5691 668.618,-19.5446 678.423,-23.5596 678.786,-16.5691"/>
</g>
</g>
</svg>
