<?xml version="1.0" encoding="UTF-8" standalone="no"?>
<!DOCTYPE svg PUBLIC "-//W3C//DTD SVG 1.1//EN"
 "http://www.w3.org/Graphics/SVG/1.1/DTD/svg11.dtd">
<!-- Generated by graphviz version 2.38.0 (20140413.2041)
 -->
<!-- Title: %3 Pages: 1 -->
<svg width="2037pt" height="130pt"
 viewBox="0.00 0.00 2036.50 129.88" xmlns="http://www.w3.org/2000/svg" xmlns:xlink="http://www.w3.org/1999/xlink">
<g id="graph0" class="graph" transform="scale(1 1) rotate(0) translate(4 125.882)">
<title>%3</title>
<polygon fill="white" stroke="none" points="-4,4 -4,-125.882 2032.5,-125.882 2032.5,4 -4,4"/>
<!-- dintancia projetil 1 -->
<g id="node1" class="node"><title>dintancia projetil 1</title>
<polygon fill="lightgray" stroke="black" points="813,-121.882 729,-121.882 729,-103.882 813,-103.882 813,-121.882"/>
<text text-anchor="middle" x="771" y="-110.682" font-family="Times New Roman,serif" font-size="9.00">dintancia projetil 1</text>
</g>
<!-- esquerda -->
<g id="node21" class="node"><title>esquerda</title>
<ellipse fill="lightblue" stroke="black" cx="874" cy="-33.9411" rx="33.8824" ry="33.8824"/>
<text text-anchor="middle" x="874" y="-31.7411" font-family="Times New Roman,serif" font-size="9.00">esquerda</text>
</g>
<!-- dintancia projetil 1&#45;&gt;esquerda -->
<g id="edge18" class="edge"><title>dintancia projetil 1&#45;&gt;esquerda</title>
<path fill="none" stroke="green" stroke-width="0.638729" d="M782.023,-103.648C795.464,-93.6075 818.843,-76.1435 838.666,-61.3358"/>
<polygon fill="green" stroke="green" stroke-width="0.638729" points="840.987,-63.9703 846.904,-55.1816 836.798,-58.3623 840.987,-63.9703"/>
</g>
<!-- direita -->
<g id="node22" class="node"><title>direita</title>
<ellipse fill="lightblue" stroke="black" cx="1128" cy="-33.9411" rx="27.6545" ry="27.6545"/>
<text text-anchor="middle" x="1128" y="-31.7411" font-family="Times New Roman,serif" font-size="9.00">direita</text>
</g>
<!-- dintancia projetil 1&#45;&gt;direita -->
<g id="edge20" class="edge"><title>dintancia projetil 1&#45;&gt;direita</title>
<path fill="none" stroke="green" stroke-width="0.148744" d="M813.07,-105.105C880.998,-94.1058 1009.35,-73.0735 1030,-67.8823 1051.25,-62.5409 1074.51,-54.8042 1093.04,-48.1706"/>
<polygon fill="green" stroke="green" stroke-width="0.148744" points="1094.33,-51.4264 1102.53,-44.7212 1091.94,-44.8474 1094.33,-51.4264"/>
</g>
<!-- pular -->
<g id="node23" class="node"><title>pular</title>
<ellipse fill="lightblue" stroke="black" cx="771" cy="-33.9411" rx="25" ry="25"/>
<text text-anchor="middle" x="771" y="-31.7411" font-family="Times New Roman,serif" font-size="9.00">pular</text>
</g>
<!-- dintancia projetil 1&#45;&gt;pular -->
<g id="edge13" class="edge"><title>dintancia projetil 1&#45;&gt;pular</title>
<path fill="none" stroke="red" stroke-width="0.622972" d="M771,-103.648C771,-95.2667 771,-81.7123 771,-68.8483"/>
<polygon fill="red" stroke="red" stroke-width="0.622972" points="774.5,-68.7917 771,-58.7917 767.5,-68.7917 774.5,-68.7917"/>
</g>
<!-- atirar -->
<g id="node24" class="node"><title>atirar</title>
<ellipse fill="lightblue" stroke="black" cx="1322" cy="-33.9411" rx="25" ry="25"/>
<text text-anchor="middle" x="1322" y="-31.7411" font-family="Times New Roman,serif" font-size="9.00">atirar</text>
</g>
<!-- dintancia projetil 1&#45;&gt;atirar -->
<g id="edge67" class="edge"><title>dintancia projetil 1&#45;&gt;atirar</title>
<path fill="none" stroke="red" stroke-width="0.600711" d="M813.259,-105.189C816.552,-104.726 819.829,-104.284 823,-103.882 982.52,-83.6499 1024.42,-94.481 1183,-67.8823 1219.38,-61.7806 1260.41,-51.6496 1288.4,-44.2309"/>
<polygon fill="red" stroke="red" stroke-width="0.600711" points="1289.34,-47.6029 1298.09,-41.6329 1287.53,-40.8417 1289.34,-47.6029"/>
</g>
<!-- release -->
<g id="node25" class="node"><title>release</title>
<ellipse fill="lightblue" stroke="black" cx="974" cy="-33.9411" rx="28.9828" ry="28.9828"/>
<text text-anchor="middle" x="974" y="-31.7411" font-family="Times New Roman,serif" font-size="9.00">release</text>
</g>
<!-- dintancia projetil 1&#45;&gt;release -->
<g id="edge8" class="edge"><title>dintancia projetil 1&#45;&gt;release</title>
<path fill="none" stroke="green" stroke-width="0.144912" stroke-dasharray="1,5" d="M808.404,-103.844C849.664,-94.6279 913.121,-79.3213 935,-67.8823 938.711,-65.942 942.381,-63.5957 945.898,-61.0595"/>
<polygon fill="green" stroke="green" stroke-width="0.144912" points="948.055,-63.816 953.776,-54.8985 943.743,-58.302 948.055,-63.816"/>
</g>
<!-- distancia projetil 2 -->
<g id="node2" class="node"><title>distancia projetil 2</title>
<polygon fill="lightgray" stroke="black" points="1517.5,-121.882 1434.5,-121.882 1434.5,-103.882 1517.5,-103.882 1517.5,-121.882"/>
<text text-anchor="middle" x="1476" y="-110.682" font-family="Times New Roman,serif" font-size="9.00">distancia projetil 2</text>
</g>
<!-- distancia projetil 2&#45;&gt;esquerda -->
<g id="edge3" class="edge"><title>distancia projetil 2&#45;&gt;esquerda</title>
<path fill="none" stroke="green" stroke-width="0.617312" d="M1434.29,-105.054C1431.15,-104.627 1428.03,-104.231 1425,-103.882 1208.51,-78.9759 1145.38,-128.302 936,-67.8823 927.667,-65.4776 919.176,-61.8647 911.259,-57.9011"/>
<polygon fill="green" stroke="green" stroke-width="0.617312" points="912.748,-54.7288 902.273,-53.1384 909.47,-60.9139 912.748,-54.7288"/>
</g>
<!-- distancia projetil 2&#45;&gt;direita -->
<g id="edge50" class="edge"><title>distancia projetil 2&#45;&gt;direita</title>
<path fill="none" stroke="green" stroke-width="0.942844" d="M1439.74,-103.866C1373.15,-89.1424 1232.04,-57.945 1164.94,-43.1091"/>
<polygon fill="green" stroke="green" stroke-width="0.942844" points="1165.35,-39.615 1154.83,-40.8736 1163.84,-46.4499 1165.35,-39.615"/>
</g>
<!-- distancia projetil 2&#45;&gt;atirar -->
<g id="edge75" class="edge"><title>distancia projetil 2&#45;&gt;atirar</title>
<path fill="none" stroke="red" stroke-width="0.130312" d="M1459.81,-103.794C1434.51,-91.1518 1385.15,-66.4924 1352.89,-50.3742"/>
<polygon fill="red" stroke="red" stroke-width="0.130312" points="1354.39,-47.2089 1343.88,-45.8705 1351.26,-53.4709 1354.39,-47.2089"/>
</g>
<!-- distancia projetil 2&#45;&gt;release -->
<g id="edge82" class="edge"><title>distancia projetil 2&#45;&gt;release</title>
<path fill="none" stroke="green" stroke-width="0.346315" stroke-dasharray="1,5" d="M1434.28,-105.169C1431.14,-104.716 1428.02,-104.282 1425,-103.882 1276.98,-84.3079 1237.59,-96.2126 1091,-67.8823 1063.93,-62.6503 1034.01,-54.1775 1011.21,-47.1352"/>
<polygon fill="green" stroke="green" stroke-width="0.346315" points="1012.17,-43.7697 1001.58,-44.1179 1010.08,-50.4491 1012.17,-43.7697"/>
</g>
<!-- distancia projetil 3 -->
<g id="node3" class="node"><title>distancia projetil 3</title>
<polygon fill="lightgray" stroke="black" points="914.5,-121.882 831.5,-121.882 831.5,-103.882 914.5,-103.882 914.5,-121.882"/>
<text text-anchor="middle" x="873" y="-110.682" font-family="Times New Roman,serif" font-size="9.00">distancia projetil 3</text>
</g>
<!-- distancia projetil 3&#45;&gt;esquerda -->
<g id="edge73" class="edge"><title>distancia projetil 3&#45;&gt;esquerda</title>
<path fill="none" stroke="red" stroke-width="0.407214" stroke-dasharray="1,5" d="M873.107,-103.648C873.189,-97.3183 873.31,-88.038 873.436,-78.3329"/>
<polygon fill="red" stroke="red" stroke-width="0.407214" points="876.938,-78.2159 873.568,-68.1713 869.938,-78.1249 876.938,-78.2159"/>
</g>
<!-- distancia projetil 3&#45;&gt;direita -->
<g id="edge52" class="edge"><title>distancia projetil 3&#45;&gt;direita</title>
<path fill="none" stroke="red" stroke-width="0.364215" d="M903.526,-103.822C935.26,-95.3276 986.309,-81.338 1030,-67.8823 1050.79,-61.4784 1073.87,-53.7536 1092.4,-47.3945"/>
<polygon fill="red" stroke="red" stroke-width="0.364215" points="1093.6,-50.683 1101.91,-44.1138 1091.32,-44.0654 1093.6,-50.683"/>
</g>
<!-- distancia projetil 3&#45;&gt;pular -->
<g id="edge32" class="edge"><title>distancia projetil 3&#45;&gt;pular</title>
<path fill="none" stroke="green" stroke-width="0.409741" d="M862.084,-103.648C847.088,-92.3361 819.6,-71.6016 798.73,-55.8588"/>
<polygon fill="green" stroke="green" stroke-width="0.409741" points="800.622,-52.9017 790.531,-49.6737 796.407,-58.4901 800.622,-52.9017"/>
</g>
<!-- distancia projetil 3&#45;&gt;atirar -->
<g id="edge14" class="edge"><title>distancia projetil 3&#45;&gt;atirar</title>
<path fill="none" stroke="green" stroke-width="0.604459" d="M914.739,-105.274C917.872,-104.797 920.986,-104.328 924,-103.882 1038.97,-86.8766 1068.77,-89.3061 1183,-67.8823 1219.25,-61.0825 1260.3,-51.0646 1288.33,-43.8632"/>
<polygon fill="green" stroke="green" stroke-width="0.604459" points="1289.24,-47.2448 1298.04,-41.3487 1287.48,-40.4685 1289.24,-47.2448"/>
</g>
<!-- distancia projetil 3&#45;&gt;release -->
<g id="edge54" class="edge"><title>distancia projetil 3&#45;&gt;release</title>
<path fill="none" stroke="red" stroke-width="0.571854" d="M885.103,-103.74C897.76,-95.1208 918.099,-80.9801 935,-67.8823 938.142,-65.4477 941.379,-62.8553 944.583,-60.235"/>
<polygon fill="red" stroke="red" stroke-width="0.571854" points="946.947,-62.821 952.402,-53.7383 942.474,-57.4368 946.947,-62.821"/>
</g>
<!-- distancia projetil 4 -->
<g id="node4" class="node"><title>distancia projetil 4</title>
<polygon fill="lightgray" stroke="black" points="290.5,-121.882 207.5,-121.882 207.5,-103.882 290.5,-103.882 290.5,-121.882"/>
<text text-anchor="middle" x="249" y="-110.682" font-family="Times New Roman,serif" font-size="9.00">distancia projetil 4</text>
</g>
<!-- distancia projetil 4&#45;&gt;esquerda -->
<g id="edge56" class="edge"><title>distancia projetil 4&#45;&gt;esquerda</title>
<path fill="none" stroke="red" stroke-width="0.192981" d="M290.709,-105.038C293.849,-104.615 296.972,-104.223 300,-103.882 415.765,-90.8433 712.457,-104.651 823,-67.8823 828.313,-66.1149 833.618,-63.6625 838.688,-60.8854"/>
<polygon fill="red" stroke="red" stroke-width="0.192981" points="840.723,-63.7468 847.513,-55.614 837.134,-57.7373 840.723,-63.7468"/>
</g>
<!-- distancia projetil 4&#45;&gt;direita -->
<g id="edge77" class="edge"><title>distancia projetil 4&#45;&gt;direita</title>
<path fill="none" stroke="green" stroke-width="0.103542" d="M290.702,-104.971C293.843,-104.564 296.969,-104.194 300,-103.882 623.136,-70.6656 710.811,-128.201 1030,-67.8823 1051.53,-63.8139 1074.81,-56.1362 1093.27,-49.216"/>
<polygon fill="green" stroke="green" stroke-width="0.103542" points="1094.64,-52.4381 1102.72,-45.5836 1092.13,-45.9041 1094.64,-52.4381"/>
</g>
<!-- distancia projetil 4&#45;&gt;pular -->
<g id="edge66" class="edge"><title>distancia projetil 4&#45;&gt;pular</title>
<path fill="none" stroke="green" stroke-width="0.308686" stroke-dasharray="1,5" d="M290.743,-105.299C293.875,-104.816 296.987,-104.339 300,-103.882 463.099,-79.1543 658.21,-51.0737 736.251,-39.903"/>
<polygon fill="green" stroke="green" stroke-width="0.308686" points="737.067,-43.322 746.47,-38.4411 736.075,-36.3926 737.067,-43.322"/>
</g>
<!-- distancia projetil 4&#45;&gt;release -->
<g id="edge63" class="edge"><title>distancia projetil 4&#45;&gt;release</title>
<path fill="none" stroke="red" stroke-width="0.215401" d="M290.704,-104.996C293.845,-104.583 296.97,-104.205 300,-103.882 440.543,-88.9125 803.693,-120.177 935,-67.8823 938.782,-66.3759 942.463,-64.3494 945.957,-62.038"/>
<polygon fill="red" stroke="red" stroke-width="0.215401" points="948.315,-64.6442 954.208,-55.8395 944.111,-59.0476 948.315,-64.6442"/>
</g>
<!-- distancia projetil 5 -->
<g id="node5" class="node"><title>distancia projetil 5</title>
<polygon fill="lightgray" stroke="black" points="1826.5,-121.882 1743.5,-121.882 1743.5,-103.882 1826.5,-103.882 1826.5,-121.882"/>
<text text-anchor="middle" x="1785" y="-110.682" font-family="Times New Roman,serif" font-size="9.00">distancia projetil 5</text>
</g>
<!-- distancia projetil 5&#45;&gt;direita -->
<g id="edge21" class="edge"><title>distancia projetil 5&#45;&gt;direita</title>
<path fill="none" stroke="green" stroke-width="0.187686" d="M1743.29,-104.959C1740.49,-104.571 1737.71,-104.207 1735,-103.882 1537.11,-80.1195 1485.31,-96.0309 1288,-67.8823 1245.31,-61.7923 1196.89,-51.3164 1164.61,-43.8126"/>
<polygon fill="green" stroke="green" stroke-width="0.187686" points="1165.25,-40.3696 1154.72,-41.4901 1163.65,-47.1841 1165.25,-40.3696"/>
</g>
<!-- distancia projetil 5&#45;&gt;pular -->
<g id="edge83" class="edge"><title>distancia projetil 5&#45;&gt;pular</title>
<path fill="none" stroke="red" stroke-width="0.448323" d="M1743.31,-104.831C1740.5,-104.474 1737.71,-104.152 1735,-103.882 1534.94,-83.9652 1024.71,-121.691 831,-67.8823 820.154,-64.8695 809.119,-59.5761 799.521,-54.1023"/>
<polygon fill="red" stroke="red" stroke-width="0.448323" points="801.185,-51.0191 790.811,-48.8675 797.579,-57.0189 801.185,-51.0191"/>
</g>
<!-- distancia projetil 5&#45;&gt;atirar -->
<g id="edge59" class="edge"><title>distancia projetil 5&#45;&gt;atirar</title>
<path fill="none" stroke="green" stroke-width="0.323761" stroke-dasharray="1,5" d="M1743.1,-104.919C1652.48,-89.8596 1439.75,-54.5092 1356.38,-40.6545"/>
<polygon fill="green" stroke="green" stroke-width="0.323761" points="1356.85,-37.1848 1346.41,-38.998 1355.7,-44.0901 1356.85,-37.1848"/>
</g>
<!-- distancia projetil 6 -->
<g id="node6" class="node"><title>distancia projetil 6</title>
<polygon fill="lightgray" stroke="black" points="1015.5,-121.882 932.5,-121.882 932.5,-103.882 1015.5,-103.882 1015.5,-121.882"/>
<text text-anchor="middle" x="974" y="-110.682" font-family="Times New Roman,serif" font-size="9.00">distancia projetil 6</text>
</g>
<!-- distancia projetil 6&#45;&gt;esquerda -->
<g id="edge12" class="edge"><title>distancia projetil 6&#45;&gt;esquerda</title>
<path fill="none" stroke="red" stroke-width="0.25472" stroke-dasharray="1,5" d="M963.298,-103.648C950.337,-93.6754 927.857,-76.3792 908.696,-61.6363"/>
<polygon fill="red" stroke="red" stroke-width="0.25472" points="910.784,-58.8272 900.724,-55.5031 906.516,-64.3751 910.784,-58.8272"/>
</g>
<!-- distancia projetil 6&#45;&gt;direita -->
<g id="edge44" class="edge"><title>distancia projetil 6&#45;&gt;direita</title>
<path fill="none" stroke="red" stroke-width="0.170407" stroke-dasharray="1,5" d="M990.19,-103.794C1014.86,-91.4678 1062.4,-67.7179 1094.66,-51.5988"/>
<polygon fill="red" stroke="red" stroke-width="0.170407" points="1096.35,-54.6671 1103.73,-47.0667 1093.22,-48.4052 1096.35,-54.6671"/>
</g>
<!-- distancia projetil 6&#45;&gt;pular -->
<g id="edge84" class="edge"><title>distancia projetil 6&#45;&gt;pular</title>
<path fill="none" stroke="red" stroke-width="0.60484" stroke-dasharray="1,5" d="M941.243,-103.842C911.817,-96.1438 867.72,-83.4198 831,-67.8823 820.799,-63.5658 810.072,-58.0256 800.555,-52.725"/>
<polygon fill="red" stroke="red" stroke-width="0.60484" points="802.278,-49.6783 791.857,-47.7641 798.809,-55.7588 802.278,-49.6783"/>
</g>
<!-- distancia projetil 6&#45;&gt;atirar -->
<g id="edge79" class="edge"><title>distancia projetil 6&#45;&gt;atirar</title>
<path fill="none" stroke="green" stroke-width="0.268281" d="M1013.74,-103.826C1055.84,-95.2204 1124.2,-81.0373 1183,-67.8823 1219,-59.8291 1260.09,-50.0142 1288.2,-43.2031"/>
<polygon fill="green" stroke="green" stroke-width="0.268281" points="1289.04,-46.5996 1297.94,-40.8384 1287.39,-39.7973 1289.04,-46.5996"/>
</g>
<!-- distancia projetil 6&#45;&gt;release -->
<g id="edge38" class="edge"><title>distancia projetil 6&#45;&gt;release</title>
<path fill="none" stroke="red" stroke-width="0.234682" d="M974,-103.648C974,-96.2873 974,-84.9367 974,-73.568"/>
<polygon fill="red" stroke="red" stroke-width="0.234682" points="977.5,-73.2361 974,-63.2361 970.5,-73.2361 977.5,-73.2361"/>
</g>
<!-- distancia projetil 7 -->
<g id="node7" class="node"><title>distancia projetil 7</title>
<polygon fill="lightgray" stroke="black" points="1927.5,-121.882 1844.5,-121.882 1844.5,-103.882 1927.5,-103.882 1927.5,-121.882"/>
<text text-anchor="middle" x="1886" y="-110.682" font-family="Times New Roman,serif" font-size="9.00">distancia projetil 7</text>
</g>
<!-- distancia projetil 7&#45;&gt;esquerda -->
<g id="edge46" class="edge"><title>distancia projetil 7&#45;&gt;esquerda</title>
<path fill="none" stroke="red" stroke-width="0.329445" stroke-dasharray="1,5" d="M1844.31,-104.832C1841.5,-104.475 1838.71,-104.152 1836,-103.882 1636.83,-84.0356 1129.22,-120.147 936,-67.8823 927.628,-65.6176 919.12,-62.0668 911.198,-58.12"/>
<polygon fill="red" stroke="red" stroke-width="0.329445" points="912.687,-54.9477 902.212,-53.3581 909.409,-61.133 912.687,-54.9477"/>
</g>
<!-- distancia projetil 7&#45;&gt;direita -->
<g id="edge78" class="edge"><title>distancia projetil 7&#45;&gt;direita</title>
<path fill="none" stroke="red" stroke-width="1.11217" stroke-dasharray="1,5" d="M1844.3,-104.912C1841.49,-104.536 1838.71,-104.187 1836,-103.882 1593.45,-76.5715 1529.88,-100.569 1288,-67.8823 1245.27,-62.1076 1196.86,-51.5725 1164.58,-43.9686"/>
<polygon fill="red" stroke="red" stroke-width="1.11217" points="1165.24,-40.527 1154.7,-41.6126 1163.62,-47.3362 1165.24,-40.527"/>
</g>
<!-- distancia projetil 7&#45;&gt;atirar -->
<g id="edge39" class="edge"><title>distancia projetil 7&#45;&gt;atirar</title>
<path fill="none" stroke="red" stroke-width="0.147338" d="M1844.27,-105.125C1841.47,-104.696 1838.7,-104.279 1836,-103.882 1655.94,-77.4062 1439.76,-49.7581 1356.77,-39.2962"/>
<polygon fill="red" stroke="red" stroke-width="0.147338" points="1357,-35.7972 1346.64,-38.021 1356.12,-42.7425 1357,-35.7972"/>
</g>
<!-- distancia projetil 8 -->
<g id="node8" class="node"><title>distancia projetil 8</title>
<polygon fill="lightgray" stroke="black" points="189.5,-121.882 106.5,-121.882 106.5,-103.882 189.5,-103.882 189.5,-121.882"/>
<text text-anchor="middle" x="148" y="-110.682" font-family="Times New Roman,serif" font-size="9.00">distancia projetil 8</text>
</g>
<!-- distancia projetil 8&#45;&gt;esquerda -->
<g id="edge65" class="edge"><title>distancia projetil 8&#45;&gt;esquerda</title>
<path fill="none" stroke="red" stroke-width="0.586942" stroke-dasharray="1,5" d="M189.699,-104.887C192.504,-104.516 195.291,-104.176 198,-103.882 336.307,-88.8733 690.748,-111.052 823,-67.8823 828.323,-66.1447 833.633,-63.7096 838.707,-60.9415"/>
<polygon fill="red" stroke="red" stroke-width="0.586942" points="840.738,-63.8053 847.534,-55.6777 837.153,-57.793 840.738,-63.8053"/>
</g>
<!-- distancia projetil 8&#45;&gt;direita -->
<g id="edge15" class="edge"><title>distancia projetil 8&#45;&gt;direita</title>
<path fill="none" stroke="red" stroke-width="0.229468" d="M189.695,-104.842C192.501,-104.482 195.289,-104.157 198,-103.882 566.239,-66.5821 666.107,-135.512 1030,-67.8823 1051.54,-63.8789 1074.82,-56.2042 1093.28,-49.2694"/>
<polygon fill="red" stroke="red" stroke-width="0.229468" points="1094.66,-52.4896 1102.73,-45.6276 1092.14,-45.9578 1094.66,-52.4896"/>
</g>
<!-- distancia projetil 8&#45;&gt;pular -->
<g id="edge33" class="edge"><title>distancia projetil 8&#45;&gt;pular</title>
<path fill="none" stroke="green" stroke-width="0.12533" d="M189.724,-105.082C192.523,-104.664 195.301,-104.26 198,-103.882 401.575,-75.3606 646.868,-48.2762 736.266,-38.6435"/>
<polygon fill="green" stroke="green" stroke-width="0.12533" points="736.814,-42.1049 746.383,-37.5564 736.066,-35.145 736.814,-42.1049"/>
</g>
<!-- distancia projetil 9 -->
<g id="node9" class="node"><title>distancia projetil 9</title>
<polygon fill="lightgray" stroke="black" points="2028.5,-121.882 1945.5,-121.882 1945.5,-103.882 2028.5,-103.882 2028.5,-121.882"/>
<text text-anchor="middle" x="1987" y="-110.682" font-family="Times New Roman,serif" font-size="9.00">distancia projetil 9</text>
</g>
<!-- distancia projetil 9&#45;&gt;direita -->
<g id="edge34" class="edge"><title>distancia projetil 9&#45;&gt;direita</title>
<path fill="none" stroke="red" stroke-width="1.33121" d="M1945.3,-104.88C1942.5,-104.511 1939.71,-104.173 1937,-103.882 1649.77,-73.0204 1574.48,-105.111 1288,-67.8823 1245.24,-62.3253 1196.83,-51.7493 1164.57,-44.0763"/>
<polygon fill="red" stroke="red" stroke-width="1.33121" points="1165.23,-40.6356 1154.69,-41.6971 1163.59,-47.4411 1165.23,-40.6356"/>
</g>
<!-- distancia projetil 9&#45;&gt;atirar -->
<g id="edge76" class="edge"><title>distancia projetil 9&#45;&gt;atirar</title>
<path fill="none" stroke="red" stroke-width="0.194914" d="M1945.28,-105.057C1942.48,-104.645 1939.7,-104.249 1937,-103.882 1716.61,-73.9145 1450.48,-47.3305 1356.72,-38.2553"/>
<polygon fill="red" stroke="red" stroke-width="0.194914" points="1356.95,-34.7613 1346.66,-37.2848 1356.28,-41.7289 1356.95,-34.7613"/>
</g>
<!-- distancia projetil 9&#45;&gt;release -->
<g id="edge61" class="edge"><title>distancia projetil 9&#45;&gt;release</title>
<path fill="none" stroke="red" stroke-width="0.527771" d="M1945.31,-104.84C1942.5,-104.481 1939.71,-104.156 1937,-103.882 1562.56,-66.0895 1462.62,-127.277 1091,-67.8823 1063.59,-63.5016 1033.46,-54.9261 1010.64,-47.623"/>
<polygon fill="red" stroke="red" stroke-width="0.527771" points="1011.61,-44.2594 1001.02,-44.4821 1009.44,-50.9136 1011.61,-44.2594"/>
</g>
<!-- distancia projetil 10 -->
<g id="node10" class="node"><title>distancia projetil 10</title>
<polygon fill="lightgray" stroke="black" points="1122,-121.882 1034,-121.882 1034,-103.882 1122,-103.882 1122,-121.882"/>
<text text-anchor="middle" x="1078" y="-110.682" font-family="Times New Roman,serif" font-size="9.00">distancia projetil 10</text>
</g>
<!-- distancia projetil 10&#45;&gt;esquerda -->
<g id="edge36" class="edge"><title>distancia projetil 10&#45;&gt;esquerda</title>
<path fill="none" stroke="red" stroke-width="1.20767" d="M1046.09,-103.843C1016.91,-96.0593 972.813,-83.2055 936,-67.8823 928.074,-64.583 919.815,-60.6055 912.008,-56.5727"/>
<polygon fill="red" stroke="red" stroke-width="1.20767" points="913.572,-53.4403 903.097,-51.8505 910.294,-59.6255 913.572,-53.4403"/>
</g>
<!-- distancia projetil 10&#45;&gt;direita -->
<g id="edge57" class="edge"><title>distancia projetil 10&#45;&gt;direita</title>
<path fill="none" stroke="red" stroke-width="0.22605" d="M1083.35,-103.648C1089.18,-94.6803 1098.85,-79.7905 1107.71,-66.1607"/>
<polygon fill="red" stroke="red" stroke-width="0.22605" points="1110.85,-67.753 1113.37,-57.4608 1104.98,-63.9387 1110.85,-67.753"/>
</g>
<!-- distancia projetil 10&#45;&gt;pular -->
<g id="edge2" class="edge"><title>distancia projetil 10&#45;&gt;pular</title>
<path fill="none" stroke="red" stroke-width="0.267559" stroke-dasharray="1,5" d="M1033.78,-104.807C967.935,-94.1476 849.792,-74.5125 831,-67.8823 820.47,-64.1669 809.586,-58.7407 800.027,-53.3602"/>
<polygon fill="red" stroke="red" stroke-width="0.267559" points="801.722,-50.2973 791.322,-48.273 798.19,-56.3408 801.722,-50.2973"/>
</g>
<!-- distancia projetil 10&#45;&gt;atirar -->
<g id="edge19" class="edge"><title>distancia projetil 10&#45;&gt;atirar</title>
<path fill="none" stroke="red" stroke-width="0.178085" d="M1103.65,-103.794C1148.18,-89.7523 1239.72,-60.8856 1288.95,-45.3632"/>
<polygon fill="red" stroke="red" stroke-width="0.178085" points="1290.01,-48.6997 1298.49,-42.3543 1287.9,-42.0237 1290.01,-48.6997"/>
</g>
<!-- distancia projetil 10&#45;&gt;release -->
<g id="edge29" class="edge"><title>distancia projetil 10&#45;&gt;release</title>
<path fill="none" stroke="red" stroke-width="0.554082" d="M1066.87,-103.648C1052.32,-92.8813 1026.23,-73.5782 1005.4,-58.168"/>
<polygon fill="red" stroke="red" stroke-width="0.554082" points="1007.25,-55.1865 997.129,-52.0527 1003.09,-60.8139 1007.25,-55.1865"/>
</g>
<!-- distancia projetil 11 -->
<g id="node11" class="node"><title>distancia projetil 11</title>
<polygon fill="lightgray" stroke="black" points="88,-121.882 0,-121.882 0,-103.882 88,-103.882 88,-121.882"/>
<text text-anchor="middle" x="44" y="-110.682" font-family="Times New Roman,serif" font-size="9.00">distancia projetil 11</text>
</g>
<!-- distancia projetil 11&#45;&gt;esquerda -->
<g id="edge23" class="edge"><title>distancia projetil 11&#45;&gt;esquerda</title>
<path fill="none" stroke="green" stroke-width="0.244724" stroke-dasharray="1,5" d="M88.2047,-104.871C91.1772,-104.504 94.1296,-104.169 97,-103.882 257.73,-87.8075 669.243,-117.392 823,-67.8823 828.393,-66.1457 833.769,-63.6863 838.899,-60.884"/>
<polygon fill="green" stroke="green" stroke-width="0.244724" points="841.029,-63.6882 847.815,-55.5517 837.436,-57.6806 841.029,-63.6882"/>
</g>
<!-- distancia projetil 11&#45;&gt;pular -->
<g id="edge5" class="edge"><title>distancia projetil 11&#45;&gt;pular</title>
<path fill="none" stroke="green" stroke-width="0.211974" d="M88.2244,-105.045C91.1921,-104.636 94.1381,-104.244 97,-103.882 341.042,-73.0009 636.154,-46.5666 736.035,-37.9223"/>
<polygon fill="green" stroke="green" stroke-width="0.211974" points="736.502,-41.3951 746.164,-37.0489 735.9,-34.421 736.502,-41.3951"/>
</g>
<!-- distancia projetil 11&#45;&gt;release -->
<g id="edge30" class="edge"><title>distancia projetil 11&#45;&gt;release</title>
<path fill="none" stroke="red" stroke-width="0.591776" stroke-dasharray="1,5" d="M88.2025,-104.849C91.1755,-104.487 94.1286,-104.16 97,-103.882 189.765,-94.9145 848.183,-101.771 935,-67.8823 938.994,-66.3232 942.871,-64.1772 946.533,-61.7216"/>
<polygon fill="red" stroke="red" stroke-width="0.591776" points="948.796,-64.3979 954.64,-55.5608 944.56,-58.8245 948.796,-64.3979"/>
</g>
<!-- distancia projetil 12 -->
<g id="node12" class="node"><title>distancia projetil 12</title>
<polygon fill="lightgray" stroke="black" points="397,-121.882 309,-121.882 309,-103.882 397,-103.882 397,-121.882"/>
<text text-anchor="middle" x="353" y="-110.682" font-family="Times New Roman,serif" font-size="9.00">distancia projetil 12</text>
</g>
<!-- distancia projetil 12&#45;&gt;esquerda -->
<g id="edge9" class="edge"><title>distancia projetil 12&#45;&gt;esquerda</title>
<path fill="none" stroke="green" stroke-width="0.287028" d="M397.218,-104.993C400.187,-104.596 403.135,-104.222 406,-103.882 590.73,-81.989 647.003,-128.127 823,-67.8823 828.298,-66.0688 833.593,-63.5894 838.659,-60.7985"/>
<polygon fill="green" stroke="green" stroke-width="0.287028" points="840.699,-63.6561 847.48,-55.5152 837.103,-57.6508 840.699,-63.6561"/>
</g>
<!-- distancia projetil 12&#45;&gt;direita -->
<g id="edge27" class="edge"><title>distancia projetil 12&#45;&gt;direita</title>
<path fill="none" stroke="red" stroke-width="0.310598" d="M397.207,-104.898C400.179,-104.525 403.131,-104.181 406,-103.882 682.302,-75.1209 757.255,-120.605 1030,-67.8823 1051.51,-63.7241 1074.79,-56.0422 1093.26,-49.1422"/>
<polygon fill="red" stroke="red" stroke-width="0.310598" points="1094.62,-52.3669 1102.71,-45.5227 1092.12,-45.8296 1094.62,-52.3669"/>
</g>
<!-- distancia projetil 12&#45;&gt;pular -->
<g id="edge47" class="edge"><title>distancia projetil 12&#45;&gt;pular</title>
<path fill="none" stroke="red" stroke-width="0.542925" stroke-dasharray="1,5" d="M396.55,-103.866C480.029,-88.5001 660.984,-55.1917 736.651,-41.2637"/>
<polygon fill="red" stroke="red" stroke-width="0.542925" points="737.407,-44.6834 746.608,-39.4309 736.14,-37.7991 737.407,-44.6834"/>
</g>
<!-- distancia projetil 12&#45;&gt;release -->
<g id="edge16" class="edge"><title>distancia projetil 12&#45;&gt;release</title>
<path fill="none" stroke="red" stroke-width="0.559113" d="M397.211,-104.932C400.182,-104.551 403.132,-104.196 406,-103.882 523.13,-91.0785 825.783,-112.097 935,-67.8823 938.774,-66.3545 942.449,-64.3143 945.94,-61.9948"/>
<polygon fill="red" stroke="red" stroke-width="0.559113" points="948.302,-64.5971 954.187,-55.7865 944.092,-59.0046 948.302,-64.5971"/>
</g>
<!-- distancia projetil 13 -->
<g id="node13" class="node"><title>distancia projetil 13</title>
<polygon fill="lightgray" stroke="black" points="503,-121.882 415,-121.882 415,-103.882 503,-103.882 503,-121.882"/>
<text text-anchor="middle" x="459" y="-110.682" font-family="Times New Roman,serif" font-size="9.00">distancia projetil 13</text>
</g>
<!-- distancia projetil 13&#45;&gt;esquerda -->
<g id="edge81" class="edge"><title>distancia projetil 13&#45;&gt;esquerda</title>
<path fill="none" stroke="red" stroke-width="1.05678" d="M503.23,-105.089C506.196,-104.67 509.141,-104.263 512,-103.882 649.925,-85.4956 692.024,-114.858 823,-67.8823 828.271,-65.9918 833.55,-63.4674 838.608,-60.6535"/>
<polygon fill="red" stroke="red" stroke-width="1.05678" points="840.658,-63.5048 847.422,-55.3504 837.049,-57.5068 840.658,-63.5048"/>
</g>
<!-- distancia projetil 13&#45;&gt;direita -->
<g id="edge58" class="edge"><title>distancia projetil 13&#45;&gt;direita</title>
<path fill="none" stroke="red" stroke-width="0.200403" d="M503.212,-104.937C506.182,-104.554 509.133,-104.198 512,-103.882 741.393,-78.6398 803.678,-113.013 1030,-67.8823 1051.49,-63.5977 1074.76,-55.9099 1093.24,-49.0384"/>
<polygon fill="red" stroke="red" stroke-width="0.200403" points="1094.6,-52.2667 1102.69,-45.4371 1092.1,-45.7249 1094.6,-52.2667"/>
</g>
<!-- distancia projetil 13&#45;&gt;pular -->
<g id="edge43" class="edge"><title>distancia projetil 13&#45;&gt;pular</title>
<path fill="none" stroke="green" stroke-width="0.265027" d="M491.507,-103.866C550.965,-89.203 676.678,-58.2014 737.132,-43.2931"/>
<polygon fill="green" stroke="green" stroke-width="0.265027" points="738.073,-46.6662 746.944,-40.8736 736.397,-39.8698 738.073,-46.6662"/>
</g>
<!-- distancia projetil 13&#45;&gt;release -->
<g id="edge71" class="edge"><title>distancia projetil 13&#45;&gt;release</title>
<path fill="none" stroke="green" stroke-width="0.465126" d="M503.217,-104.989C506.187,-104.593 509.135,-104.22 512,-103.882 605.691,-92.8362 847.857,-104.023 935,-67.8823 938.761,-66.3225 942.428,-64.2619 945.913,-61.9303"/>
<polygon fill="green" stroke="green" stroke-width="0.465126" points="948.283,-64.5267 954.154,-55.7075 944.065,-58.9404 948.283,-64.5267"/>
</g>
<!-- distancia projetil 14 -->
<g id="node14" class="node"><title>distancia projetil 14</title>
<polygon fill="lightgray" stroke="black" points="609,-121.882 521,-121.882 521,-103.882 609,-103.882 609,-121.882"/>
<text text-anchor="middle" x="565" y="-110.682" font-family="Times New Roman,serif" font-size="9.00">distancia projetil 14</text>
</g>
<!-- distancia projetil 14&#45;&gt;esquerda -->
<g id="edge62" class="edge"><title>distancia projetil 14&#45;&gt;esquerda</title>
<path fill="none" stroke="red" stroke-width="0.379686" d="M609.009,-105.365C677.401,-95.0889 803.416,-75.5053 823,-67.8823 828.218,-65.851 833.467,-63.2443 838.509,-60.3883"/>
<polygon fill="red" stroke="red" stroke-width="0.379686" points="840.576,-63.2283 847.31,-55.0489 836.945,-57.2436 840.576,-63.2283"/>
</g>
<!-- distancia projetil 14&#45;&gt;pular -->
<g id="edge70" class="edge"><title>distancia projetil 14&#45;&gt;pular</title>
<path fill="none" stroke="green" stroke-width="0.153016" d="M586.656,-103.794C622.901,-90.2561 696.042,-62.9378 738.489,-47.0842"/>
<polygon fill="green" stroke="green" stroke-width="0.153016" points="739.927,-50.2831 748.07,-43.5053 737.478,-43.7255 739.927,-50.2831"/>
</g>
<!-- distancia projetil 14&#45;&gt;atirar -->
<g id="edge42" class="edge"><title>distancia projetil 14&#45;&gt;atirar</title>
<path fill="none" stroke="red" stroke-width="0.19674" d="M609.166,-105.033C612.49,-104.611 615.796,-104.221 619,-103.882 868.783,-77.4545 934.577,-104.975 1183,-67.8823 1219.48,-62.435 1260.49,-52.198 1288.45,-44.5756"/>
<polygon fill="red" stroke="red" stroke-width="0.19674" points="1289.43,-47.9379 1298.13,-41.8993 1287.56,-41.191 1289.43,-47.9379"/>
</g>
<!-- distancia projetil 14&#45;&gt;release -->
<g id="edge55" class="edge"><title>distancia projetil 14&#45;&gt;release</title>
<path fill="none" stroke="green" stroke-width="0.491925" d="M609.187,-105.212C612.506,-104.749 615.805,-104.301 619,-103.882 759.155,-85.5221 805.217,-123.89 935,-67.8823 938.738,-66.2691 942.391,-64.1741 945.868,-61.8223"/>
<polygon fill="green" stroke="green" stroke-width="0.491925" points="948.249,-64.4088 954.098,-55.575 944.017,-58.833 948.249,-64.4088"/>
</g>
<!-- distancia projetil 15 -->
<g id="node15" class="node"><title>distancia projetil 15</title>
<polygon fill="lightgray" stroke="black" points="1624,-121.882 1536,-121.882 1536,-103.882 1624,-103.882 1624,-121.882"/>
<text text-anchor="middle" x="1580" y="-110.682" font-family="Times New Roman,serif" font-size="9.00">distancia projetil 15</text>
</g>
<!-- distancia projetil 15&#45;&gt;esquerda -->
<g id="edge48" class="edge"><title>distancia projetil 15&#45;&gt;esquerda</title>
<path fill="none" stroke="green" stroke-width="0.605332" d="M1535.79,-104.909C1532.82,-104.533 1529.87,-104.186 1527,-103.882 1265.3,-76.2167 1189.29,-139.242 936,-67.8823 927.652,-65.5304 919.154,-61.9409 911.236,-57.9836"/>
<polygon fill="green" stroke="green" stroke-width="0.605332" points="912.724,-54.8113 902.249,-53.2212 909.446,-60.9964 912.724,-54.8113"/>
</g>
<!-- distancia projetil 15&#45;&gt;direita -->
<g id="edge28" class="edge"><title>distancia projetil 15&#45;&gt;direita</title>
<path fill="none" stroke="green" stroke-width="0.178423" d="M1535.75,-105.203C1532.79,-104.756 1529.85,-104.312 1527,-103.882 1420.78,-87.8659 1393.76,-86.7198 1288,-67.8823 1245.55,-60.3205 1197.08,-50.1211 1164.72,-43.0846"/>
<polygon fill="green" stroke="green" stroke-width="0.178423" points="1165.33,-39.634 1154.81,-40.9184 1163.83,-46.4726 1165.33,-39.634"/>
</g>
<!-- distancia projetil 15&#45;&gt;atirar -->
<g id="edge31" class="edge"><title>distancia projetil 15&#45;&gt;atirar</title>
<path fill="none" stroke="green" stroke-width="0.347263" d="M1552.88,-103.794C1505.33,-89.6145 1407.09,-60.3174 1355.43,-44.91"/>
<polygon fill="green" stroke="green" stroke-width="0.347263" points="1356.33,-41.5262 1345.74,-42.0223 1354.33,-48.2343 1356.33,-41.5262"/>
</g>
<!-- distancia projetil 15&#45;&gt;release -->
<g id="edge37" class="edge"><title>distancia projetil 15&#45;&gt;release</title>
<path fill="none" stroke="green" stroke-width="0.12362" d="M1535.78,-104.98C1532.81,-104.587 1529.87,-104.216 1527,-103.882 1333.87,-81.3593 1282.35,-102.389 1091,-67.8823 1063.86,-62.9889 1033.95,-54.5091 1011.16,-47.3787"/>
<polygon fill="green" stroke="green" stroke-width="0.12362" points="1012.13,-44.0158 1001.54,-44.3179 1010.01,-50.6861 1012.13,-44.0158"/>
</g>
<!-- distancia projetil 16 -->
<g id="node16" class="node"><title>distancia projetil 16</title>
<polygon fill="lightgray" stroke="black" points="1416,-121.882 1328,-121.882 1328,-103.882 1416,-103.882 1416,-121.882"/>
<text text-anchor="middle" x="1372" y="-110.682" font-family="Times New Roman,serif" font-size="9.00">distancia projetil 16</text>
</g>
<!-- distancia projetil 16&#45;&gt;direita -->
<g id="edge51" class="edge"><title>distancia projetil 16&#45;&gt;direita</title>
<path fill="none" stroke="red" stroke-width="0.331878" d="M1346.35,-103.794C1302.62,-90.005 1213.56,-61.9197 1163.75,-46.214"/>
<polygon fill="red" stroke="red" stroke-width="0.331878" points="1164.63,-42.8224 1154.04,-43.153 1162.53,-49.4983 1164.63,-42.8224"/>
</g>
<!-- distancia projetil 16&#45;&gt;pular -->
<g id="edge72" class="edge"><title>distancia projetil 16&#45;&gt;pular</title>
<path fill="none" stroke="red" stroke-width="0.112202" stroke-dasharray="1,5" d="M1327.79,-104.951C1324.82,-104.565 1321.87,-104.204 1319,-103.882 1102.88,-79.6351 1039.53,-129.625 831,-67.8823 820.293,-64.712 809.362,-59.4307 799.814,-54.0154"/>
<polygon fill="red" stroke="red" stroke-width="0.112202" points="801.519,-50.957 791.136,-48.8468 797.937,-56.9711 801.519,-50.957"/>
</g>
<!-- distancia projetil 16&#45;&gt;atirar -->
<g id="edge6" class="edge"><title>distancia projetil 16&#45;&gt;atirar</title>
<path fill="none" stroke="red" stroke-width="0.307984" stroke-dasharray="1,5" d="M1366.65,-103.648C1360.47,-94.1454 1349.98,-77.9933 1340.71,-63.7369"/>
<polygon fill="red" stroke="red" stroke-width="0.307984" points="1343.54,-61.6595 1335.15,-55.1816 1337.67,-65.4738 1343.54,-61.6595"/>
</g>
<!-- distancia projetil 16&#45;&gt;release -->
<g id="edge24" class="edge"><title>distancia projetil 16&#45;&gt;release</title>
<path fill="none" stroke="red" stroke-width="0.459765" d="M1327.88,-105.115C1251.69,-93.4087 1102.46,-70.383 1091,-67.8823 1064.06,-62.0028 1034.14,-53.5435 1011.3,-46.6696"/>
<polygon fill="red" stroke="red" stroke-width="0.459765" points="1012.25,-43.2985 1001.66,-43.7356 1010.21,-49.9953 1012.25,-43.2985"/>
</g>
<!-- distancia inimigo 1 -->
<g id="node17" class="node"><title>distancia inimigo 1</title>
<polygon fill="lightgray" stroke="black" points="1725.5,-121.882 1642.5,-121.882 1642.5,-103.882 1725.5,-103.882 1725.5,-121.882"/>
<text text-anchor="middle" x="1684" y="-110.682" font-family="Times New Roman,serif" font-size="9.00">distancia inimigo 1</text>
</g>
<!-- distancia inimigo 1&#45;&gt;esquerda -->
<g id="edge7" class="edge"><title>distancia inimigo 1&#45;&gt;esquerda</title>
<path fill="none" stroke="red" stroke-width="0.145843" stroke-dasharray="1,5" d="M1642.3,-104.979C1639.16,-104.57 1636.03,-104.197 1633,-103.882 1478.74,-87.8432 1085.48,-109.25 936,-67.8823 927.641,-65.5689 919.139,-61.9966 911.219,-58.0439"/>
<polygon fill="red" stroke="red" stroke-width="0.145843" points="912.707,-54.8716 902.233,-53.2817 909.43,-61.0568 912.707,-54.8716"/>
</g>
<!-- distancia inimigo 1&#45;&gt;direita -->
<g id="edge80" class="edge"><title>distancia inimigo 1&#45;&gt;direita</title>
<path fill="none" stroke="green" stroke-width="0.131409" d="M1642.28,-105.158C1639.14,-104.707 1636.02,-104.277 1633,-103.882 1480.13,-83.9302 1440.35,-91.4551 1288,-67.8823 1245.39,-61.2889 1196.95,-50.9075 1164.64,-43.5636"/>
<polygon fill="green" stroke="green" stroke-width="0.131409" points="1165.28,-40.1181 1154.75,-41.2946 1163.71,-46.9411 1165.28,-40.1181"/>
</g>
<!-- distancia inimigo 1&#45;&gt;atirar -->
<g id="edge25" class="edge"><title>distancia inimigo 1&#45;&gt;atirar</title>
<path fill="none" stroke="green" stroke-width="0.730893" d="M1646.28,-103.866C1575.64,-88.8501 1424.37,-56.6999 1356.36,-42.2452"/>
<polygon fill="green" stroke="green" stroke-width="0.730893" points="1356.7,-38.7381 1346.19,-40.0826 1355.24,-45.5852 1356.7,-38.7381"/>
</g>
<!-- distancia inimigo 1&#45;&gt;release -->
<g id="edge10" class="edge"><title>distancia inimigo 1&#45;&gt;release</title>
<path fill="none" stroke="red" stroke-width="0.351272" d="M1642.29,-105.029C1639.15,-104.609 1636.03,-104.22 1633,-103.882 1393.06,-77.1495 1328.92,-108.817 1091,-67.8823 1063.83,-63.207 1033.91,-54.7226 1011.13,-47.5355"/>
<polygon fill="red" stroke="red" stroke-width="0.351272" points="1012.11,-44.1742 1001.52,-44.4466 1009.97,-50.8385 1012.11,-44.1742"/>
</g>
<!-- distancia inimigo 2 -->
<g id="node18" class="node"><title>distancia inimigo 2</title>
<polygon fill="lightgray" stroke="black" points="710.5,-121.882 627.5,-121.882 627.5,-103.882 710.5,-103.882 710.5,-121.882"/>
<text text-anchor="middle" x="669" y="-110.682" font-family="Times New Roman,serif" font-size="9.00">distancia inimigo 2</text>
</g>
<!-- distancia inimigo 2&#45;&gt;direita -->
<g id="edge11" class="edge"><title>distancia inimigo 2&#45;&gt;direita</title>
<path fill="none" stroke="red" stroke-width="0.403049" stroke-dasharray="1,5" d="M710.729,-105.197C713.864,-104.738 716.981,-104.294 720,-103.882 857.43,-85.1312 894.638,-98.1434 1030,-67.8823 1051.38,-63.1022 1074.65,-55.3915 1093.15,-48.6316"/>
<polygon fill="red" stroke="red" stroke-width="0.403049" points="1094.48,-51.8733 1102.62,-45.1015 1092.03,-45.314 1094.48,-51.8733"/>
</g>
<!-- distancia inimigo 2&#45;&gt;pular -->
<g id="edge35" class="edge"><title>distancia inimigo 2&#45;&gt;pular</title>
<path fill="none" stroke="green" stroke-width="0.278866" d="M679.916,-103.648C694.912,-92.3361 722.4,-71.6016 743.27,-55.8588"/>
<polygon fill="green" stroke="green" stroke-width="0.278866" points="745.593,-58.4901 751.469,-49.6737 741.378,-52.9017 745.593,-58.4901"/>
</g>
<!-- distancia inimigo 2&#45;&gt;release -->
<g id="edge68" class="edge"><title>distancia inimigo 2&#45;&gt;release</title>
<path fill="none" stroke="green" stroke-width="0.209696" d="M710.756,-105.266C784.353,-93.5648 929.927,-70.2251 935,-67.8823 938.696,-66.1752 942.322,-64.0201 945.783,-61.6327"/>
<polygon fill="green" stroke="green" stroke-width="0.209696" points="948.184,-64.2021 953.994,-55.3426 943.927,-58.6451 948.184,-64.2021"/>
</g>
<!-- direcao sprites 1 -->
<g id="node19" class="node"><title>direcao sprites 1</title>
<polygon fill="lightgray" stroke="black" points="1216,-121.882 1140,-121.882 1140,-103.882 1216,-103.882 1216,-121.882"/>
<text text-anchor="middle" x="1178" y="-110.682" font-family="Times New Roman,serif" font-size="9.00">direcao sprites 1</text>
</g>
<!-- direcao sprites 1&#45;&gt;esquerda -->
<g id="edge60" class="edge"><title>direcao sprites 1&#45;&gt;esquerda</title>
<path fill="none" stroke="red" stroke-width="0.489235" d="M1139.95,-105.28C1074.24,-93.8342 945.581,-71.2081 936,-67.8823 927.807,-65.038 919.378,-61.23 911.478,-57.2136"/>
<polygon fill="red" stroke="red" stroke-width="0.489235" points="912.967,-54.0415 902.492,-52.4483 909.687,-60.2257 912.967,-54.0415"/>
</g>
<!-- direcao sprites 1&#45;&gt;direita -->
<g id="edge40" class="edge"><title>direcao sprites 1&#45;&gt;direita</title>
<path fill="none" stroke="red" stroke-width="0.223355" d="M1172.65,-103.648C1166.82,-94.6803 1157.15,-79.7905 1148.29,-66.1607"/>
<polygon fill="red" stroke="red" stroke-width="0.223355" points="1151.02,-63.9387 1142.63,-57.4608 1145.15,-67.753 1151.02,-63.9387"/>
</g>
<!-- direcao sprites 1&#45;&gt;pular -->
<g id="edge22" class="edge"><title>direcao sprites 1&#45;&gt;pular</title>
<path fill="none" stroke="green" stroke-width="0.355521" d="M1139.81,-105.22C1136.83,-104.75 1133.87,-104.298 1131,-103.882 998.1,-84.6095 958.858,-108.946 831,-67.8823 820.368,-64.4677 809.457,-59.1215 799.905,-53.7218"/>
<polygon fill="green" stroke="green" stroke-width="0.355521" points="801.606,-50.6617 791.216,-48.5896 798.046,-56.6889 801.606,-50.6617"/>
</g>
<!-- direcao sprites 1&#45;&gt;atirar -->
<g id="edge4" class="edge"><title>direcao sprites 1&#45;&gt;atirar</title>
<path fill="none" stroke="red" stroke-width="0.280774" d="M1193.14,-103.794C1216.44,-91.3459 1261.54,-67.2469 1291.72,-51.1227"/>
<polygon fill="red" stroke="red" stroke-width="0.280774" points="1293.39,-54.196 1300.56,-46.3964 1290.09,-48.022 1293.39,-54.196"/>
</g>
<!-- direcao sprites 1&#45;&gt;release -->
<g id="edge69" class="edge"><title>direcao sprites 1&#45;&gt;release</title>
<path fill="none" stroke="green" stroke-width="0.567606" d="M1156.55,-103.794C1121.82,-90.6928 1052.87,-64.6862 1010.36,-48.6536"/>
<polygon fill="green" stroke="green" stroke-width="0.567606" points="1011.53,-45.3536 1000.93,-45.0994 1009.05,-51.9032 1011.53,-45.3536"/>
</g>
<!-- direcao sprites 2 -->
<g id="node20" class="node"><title>direcao sprites 2</title>
<polygon fill="lightgray" stroke="black" points="1310,-121.882 1234,-121.882 1234,-103.882 1310,-103.882 1310,-121.882"/>
<text text-anchor="middle" x="1272" y="-110.682" font-family="Times New Roman,serif" font-size="9.00">direcao sprites 2</text>
</g>
<!-- direcao sprites 2&#45;&gt;esquerda -->
<g id="edge45" class="edge"><title>direcao sprites 2&#45;&gt;esquerda</title>
<path fill="none" stroke="red" stroke-width="0.121324" d="M1233.8,-105.234C1230.83,-104.761 1227.87,-104.304 1225,-103.882 1096.94,-85.0178 1059.42,-106.894 936,-67.8823 927.73,-65.2682 919.268,-61.5624 911.358,-57.5736"/>
<polygon fill="red" stroke="red" stroke-width="0.121324" points="912.847,-54.4014 902.372,-52.8097 909.568,-60.586 912.847,-54.4014"/>
</g>
<!-- direcao sprites 2&#45;&gt;direita -->
<g id="edge64" class="edge"><title>direcao sprites 2&#45;&gt;direita</title>
<path fill="none" stroke="green" stroke-width="0.217443" d="M1256.86,-103.794C1234.22,-91.6955 1190.98,-68.5916 1160.86,-52.4999"/>
<polygon fill="green" stroke="green" stroke-width="0.217443" points="1162.44,-49.3767 1151.97,-47.751 1159.14,-55.5506 1162.44,-49.3767"/>
</g>
<!-- direcao sprites 2&#45;&gt;pular -->
<g id="edge1" class="edge"><title>direcao sprites 2&#45;&gt;pular</title>
<path fill="none" stroke="red" stroke-width="0.211329" d="M1233.82,-105.129C1230.84,-104.679 1227.87,-104.257 1225,-103.882 1050.64,-81.1122 999.162,-119.276 831,-67.8823 820.321,-64.6185 809.398,-59.3124 799.848,-53.9031"/>
<polygon fill="red" stroke="red" stroke-width="0.211329" points="801.552,-50.8441 791.166,-48.7484 797.978,-56.8632 801.552,-50.8441"/>
</g>
<!-- direcao sprites 2&#45;&gt;atirar -->
<g id="edge17" class="edge"><title>direcao sprites 2&#45;&gt;atirar</title>
<path fill="none" stroke="red" stroke-width="0.796118" d="M1277.35,-103.648C1283.53,-94.1454 1294.02,-77.9933 1303.29,-63.7369"/>
<polygon fill="red" stroke="red" stroke-width="0.796118" points="1306.33,-65.4738 1308.85,-55.1816 1300.46,-61.6595 1306.33,-65.4738"/>
</g>
<!-- direcao sprites 2&#45;&gt;release -->
<g id="edge53" class="edge"><title>direcao sprites 2&#45;&gt;release</title>
<path fill="none" stroke="green" stroke-width="0.451174" stroke-dasharray="1,5" d="M1237.21,-103.817C1200.7,-95.261 1141.68,-81.1709 1091,-67.8823 1064.33,-60.8882 1034.4,-52.4522 1011.49,-45.8681"/>
<polygon fill="green" stroke="green" stroke-width="0.451174" points="1012.4,-42.4857 1001.82,-43.0775 1010.46,-49.2116 1012.4,-42.4857"/>
</g>
<!-- esquerda&#45;&gt;esquerda -->
<g id="edge41" class="edge"><title>esquerda&#45;&gt;esquerda</title>
<path fill="none" stroke="red" stroke-width="0.149809" d="M904.67,-48.5224C916.312,-49.0847 925.941,-44.2243 925.941,-33.9411 925.941,-26.8714 921.39,-22.3648 914.762,-20.4214"/>
<polygon fill="red" stroke="red" stroke-width="0.149809" points="914.981,-16.9252 904.67,-19.3599 914.249,-23.8868 914.981,-16.9252"/>
</g>
<!-- direita&#45;&gt;direita -->
<g id="edge74" class="edge"><title>direita&#45;&gt;direita</title>
<path fill="none" stroke="green" stroke-width="0.409123" d="M1151.92,-48.2091C1163.42,-49.9705 1173.58,-45.2146 1173.58,-33.9411 1173.58,-26.1906 1168.78,-21.5207 1162.04,-19.9312"/>
<polygon fill="green" stroke="green" stroke-width="0.409123" points="1162,-16.4293 1151.92,-19.6732 1161.82,-23.427 1162,-16.4293"/>
</g>
<!-- pular&#45;&gt;pular -->
<g id="edge49" class="edge"><title>pular&#45;&gt;pular</title>
<path fill="none" stroke="green" stroke-width="0.346027" d="M791.674,-47.8663C803.166,-50.4657 813.749,-45.8239 813.749,-33.9411 813.749,-25.7717 808.747,-21.0248 801.886,-19.7005"/>
<polygon fill="green" stroke="green" stroke-width="0.346027" points="801.561,-16.2087 791.674,-20.016 801.777,-23.2054 801.561,-16.2087"/>
</g>
<!-- release&#45;&gt;release -->
<g id="edge26" class="edge"><title>release&#45;&gt;release</title>
<path fill="none" stroke="green" stroke-width="0.141794" d="M999.618,-48.3376C1011.08,-49.7087 1020.99,-44.9099 1020.99,-33.9411 1020.99,-26.4001 1016.31,-21.7753 1009.65,-20.0668"/>
<polygon fill="green" stroke="green" stroke-width="0.141794" points="1009.79,-16.5691 999.618,-19.5446 1009.42,-23.5596 1009.79,-16.5691"/>
</g>
</g>
</svg>
