<?xml version="1.0" encoding="UTF-8" standalone="no"?>
<!DOCTYPE svg PUBLIC "-//W3C//DTD SVG 1.1//EN"
 "http://www.w3.org/Graphics/SVG/1.1/DTD/svg11.dtd">
<!-- Generated by graphviz version 2.38.0 (20140413.2041)
 -->
<!-- Title: %3 Pages: 1 -->
<svg width="2005pt" height="301pt"
 viewBox="0.00 0.00 2004.50 300.88" xmlns="http://www.w3.org/2000/svg" xmlns:xlink="http://www.w3.org/1999/xlink">
<g id="graph0" class="graph" transform="scale(1 1) rotate(0) translate(4 296.877)">
<title>%3</title>
<polygon fill="white" stroke="none" points="-4,4 -4,-296.877 2000.5,-296.877 2000.5,4 -4,4"/>
<!-- dintancia projetil 1 -->
<g id="node1" class="node"><title>dintancia projetil 1</title>
<polygon fill="lightgray" stroke="black" points="1320.5,-223.128 1236.5,-223.128 1236.5,-205.128 1320.5,-205.128 1320.5,-223.128"/>
<text text-anchor="middle" x="1278.5" y="-211.928" font-family="Times New Roman,serif" font-size="9.00">dintancia projetil 1</text>
</g>
<!-- esquerda -->
<g id="node21" class="node"><title>esquerda</title>
<ellipse fill="lightblue" stroke="black" cx="1067.5" cy="-119.439" rx="33.8824" ry="33.8824"/>
<text text-anchor="middle" x="1067.5" y="-117.239" font-family="Times New Roman,serif" font-size="9.00">esquerda</text>
</g>
<!-- dintancia projetil 1&#45;&gt;esquerda -->
<g id="edge3" class="edge"><title>dintancia projetil 1&#45;&gt;esquerda</title>
<path fill="none" stroke="green" stroke-width="1.19369" d="M1261.56,-205.089C1251.66,-200.43 1238.91,-194.493 1227.5,-189.38 1187.1,-171.275 1140.6,-151.338 1108.18,-137.581"/>
<polygon fill="green" stroke="green" stroke-width="1.19369" points="1109.16,-134.197 1098.59,-133.519 1106.43,-140.643 1109.16,-134.197"/>
</g>
<!-- direita -->
<g id="node22" class="node"><title>direita</title>
<ellipse fill="lightblue" stroke="black" cx="1417.5" cy="-119.439" rx="27.6545" ry="27.6545"/>
<text text-anchor="middle" x="1417.5" y="-117.239" font-family="Times New Roman,serif" font-size="9.00">direita</text>
</g>
<!-- dintancia projetil 1&#45;&gt;direita -->
<g id="edge18" class="edge"><title>dintancia projetil 1&#45;&gt;direita</title>
<path fill="none" stroke="green" stroke-width="0.137409" stroke-dasharray="1,5" d="M1290.84,-204.903C1312.12,-190.708 1356.36,-161.207 1386.5,-141.112"/>
<polygon fill="green" stroke="green" stroke-width="0.137409" points="1388.6,-143.92 1394.97,-135.46 1384.71,-138.096 1388.6,-143.92"/>
</g>
<!-- pular -->
<g id="node23" class="node"><title>pular</title>
<ellipse fill="lightblue" stroke="black" cx="1278.5" cy="-119.439" rx="25" ry="25"/>
<text text-anchor="middle" x="1278.5" y="-117.239" font-family="Times New Roman,serif" font-size="9.00">pular</text>
</g>
<!-- dintancia projetil 1&#45;&gt;pular -->
<g id="edge35" class="edge"><title>dintancia projetil 1&#45;&gt;pular</title>
<path fill="none" stroke="red" stroke-width="0.493128" d="M1278.5,-204.903C1278.5,-193.591 1278.5,-172.558 1278.5,-154.311"/>
<polygon fill="red" stroke="red" stroke-width="0.493128" points="1282,-154.263 1278.5,-144.263 1275,-154.263 1282,-154.263"/>
</g>
<!-- atirar -->
<g id="node24" class="node"><title>atirar</title>
<ellipse fill="lightblue" stroke="black" cx="836.5" cy="-119.439" rx="25" ry="25"/>
<text text-anchor="middle" x="836.5" y="-117.239" font-family="Times New Roman,serif" font-size="9.00">atirar</text>
</g>
<!-- dintancia projetil 1&#45;&gt;atirar -->
<g id="edge43" class="edge"><title>dintancia projetil 1&#45;&gt;atirar</title>
<path fill="none" stroke="red" stroke-width="0.486357" d="M1263.74,-204.997C1253.77,-199.824 1240.17,-193.371 1227.5,-189.38 1225.35,-188.703 965.708,-143.111 870.764,-126.45"/>
<polygon fill="red" stroke="red" stroke-width="0.486357" points="871.258,-122.983 860.804,-124.702 870.048,-129.878 871.258,-122.983"/>
</g>
<!-- distancia projetil 2 -->
<g id="node2" class="node"><title>distancia projetil 2</title>
<polygon fill="lightgray" stroke="black" points="1789,-292.877 1706,-292.877 1706,-274.877 1789,-274.877 1789,-292.877"/>
<text text-anchor="middle" x="1747.5" y="-281.677" font-family="Times New Roman,serif" font-size="9.00">distancia projetil 2</text>
</g>
<!-- distancia projetil 3 -->
<g id="node3" class="node"><title>distancia projetil 3</title>
<polygon fill="lightgray" stroke="black" points="599,-223.128 516,-223.128 516,-205.128 599,-205.128 599,-223.128"/>
<text text-anchor="middle" x="557.5" y="-211.928" font-family="Times New Roman,serif" font-size="9.00">distancia projetil 3</text>
</g>
<!-- distancia projetil 3&#45;&gt;atirar -->
<g id="edge12" class="edge"><title>distancia projetil 3&#45;&gt;atirar</title>
<path fill="none" stroke="green" stroke-width="0.263101" d="M575.222,-205.069C586.147,-200.237 600.507,-194.129 613.5,-189.38 679.742,-165.165 758.988,-142.01 802.937,-129.666"/>
<polygon fill="green" stroke="green" stroke-width="0.263101" points="804.112,-132.972 812.802,-126.911 802.229,-126.23 804.112,-132.972"/>
</g>
<!-- distancia projetil 4 -->
<g id="node4" class="node"><title>distancia projetil 4</title>
<polygon fill="lightgray" stroke="black" points="1566,-223.128 1483,-223.128 1483,-205.128 1566,-205.128 1566,-223.128"/>
<text text-anchor="middle" x="1524.5" y="-211.928" font-family="Times New Roman,serif" font-size="9.00">distancia projetil 4</text>
</g>
<!-- distancia projetil 4&#45;&gt;direita -->
<g id="edge48" class="edge"><title>distancia projetil 4&#45;&gt;direita</title>
<path fill="none" stroke="green" stroke-width="0.412601" d="M1515,-204.903C1499.63,-191.586 1468.71,-164.797 1445.79,-144.942"/>
<polygon fill="green" stroke="green" stroke-width="0.412601" points="1447.9,-142.144 1438.05,-138.242 1443.32,-147.435 1447.9,-142.144"/>
</g>
<!-- distancia projetil 4&#45;&gt;pular -->
<g id="edge9" class="edge"><title>distancia projetil 4&#45;&gt;pular</title>
<path fill="none" stroke="green" stroke-width="0.116439" stroke-dasharray="1,5" d="M1506.19,-205.073C1495.3,-200.356 1481.18,-194.364 1468.5,-189.38 1413.79,-167.87 1349.32,-144.989 1311.29,-131.742"/>
<polygon fill="green" stroke="green" stroke-width="0.116439" points="1312.35,-128.405 1301.75,-128.43 1310.05,-135.018 1312.35,-128.405"/>
</g>
<!-- distancia projetil 5 -->
<g id="node5" class="node"><title>distancia projetil 5</title>
<polygon fill="lightgray" stroke="black" points="1074,-223.128 991,-223.128 991,-205.128 1074,-205.128 1074,-223.128"/>
<text text-anchor="middle" x="1032.5" y="-211.928" font-family="Times New Roman,serif" font-size="9.00">distancia projetil 5</text>
</g>
<!-- distancia projetil 5&#45;&gt;esquerda -->
<g id="edge31" class="edge"><title>distancia projetil 5&#45;&gt;esquerda</title>
<path fill="none" stroke="red" stroke-width="0.65663" stroke-dasharray="1,5" d="M1035.61,-204.903C1039.35,-194.977 1045.93,-177.566 1052.14,-161.121"/>
<polygon fill="red" stroke="red" stroke-width="0.65663" points="1055.47,-162.205 1055.73,-151.613 1048.92,-159.732 1055.47,-162.205"/>
</g>
<!-- distancia projetil 5&#45;&gt;direita -->
<g id="edge19" class="edge"><title>distancia projetil 5&#45;&gt;direita</title>
<path fill="none" stroke="red" stroke-width="0.580604" d="M1060.43,-205.104C1077.9,-200.227 1100.92,-194.059 1121.5,-189.38 1205.73,-170.231 1228.7,-174.345 1312.5,-153.38 1335.81,-147.549 1361.55,-139.498 1381.72,-132.815"/>
<polygon fill="red" stroke="red" stroke-width="0.580604" points="1383.05,-136.059 1391.42,-129.562 1380.83,-129.422 1383.05,-136.059"/>
</g>
<!-- distancia projetil 5&#45;&gt;atirar -->
<g id="edge41" class="edge"><title>distancia projetil 5&#45;&gt;atirar</title>
<path fill="none" stroke="red" stroke-width="0.593543" d="M1015.45,-205.065C982.529,-189.497 909.775,-155.091 867.876,-135.277"/>
<polygon fill="red" stroke="red" stroke-width="0.593543" points="869.217,-132.039 858.681,-130.928 866.224,-138.367 869.217,-132.039"/>
</g>
<!-- distancia projetil 6 -->
<g id="node6" class="node"><title>distancia projetil 6</title>
<polygon fill="lightgray" stroke="black" points="83,-223.128 0,-223.128 0,-205.128 83,-205.128 83,-223.128"/>
<text text-anchor="middle" x="41.5" y="-211.928" font-family="Times New Roman,serif" font-size="9.00">distancia projetil 6</text>
</g>
<!-- release -->
<g id="node25" class="node"><title>release</title>
<ellipse fill="lightblue" stroke="black" cx="248.5" cy="-119.439" rx="28.9828" ry="28.9828"/>
<text text-anchor="middle" x="248.5" y="-117.239" font-family="Times New Roman,serif" font-size="9.00">release</text>
</g>
<!-- distancia projetil 6&#45;&gt;release -->
<g id="edge27" class="edge"><title>distancia projetil 6&#45;&gt;release</title>
<path fill="none" stroke="red" stroke-width="0.113042" d="M58.1089,-205.088C67.8118,-200.429 80.3118,-194.492 91.5,-189.38 132.847,-170.488 180.729,-149.604 212.638,-135.826"/>
<polygon fill="red" stroke="red" stroke-width="0.113042" points="214.206,-138.962 222.004,-131.789 211.435,-132.534 214.206,-138.962"/>
</g>
<!-- distancia projetil 7 -->
<g id="node7" class="node"><title>distancia projetil 7</title>
<polygon fill="lightgray" stroke="black" points="391,-223.128 308,-223.128 308,-205.128 391,-205.128 391,-223.128"/>
<text text-anchor="middle" x="349.5" y="-211.928" font-family="Times New Roman,serif" font-size="9.00">distancia projetil 7</text>
</g>
<!-- distancia projetil 7&#45;&gt;pular -->
<g id="edge51" class="edge"><title>distancia projetil 7&#45;&gt;pular</title>
<path fill="none" stroke="red" stroke-width="0.169569" d="M363.25,-204.948C373.22,-199.467 387.229,-192.673 400.5,-189.38 707.161,-113.284 796.893,-191.876 1110.5,-153.38 1157.42,-147.62 1210.88,-136.302 1244.65,-128.556"/>
<polygon fill="red" stroke="red" stroke-width="0.169569" points="1245.52,-131.947 1254.47,-126.277 1243.94,-125.129 1245.52,-131.947"/>
</g>
<!-- distancia projetil 7&#45;&gt;release -->
<g id="edge4" class="edge"><title>distancia projetil 7&#45;&gt;release</title>
<path fill="none" stroke="green" stroke-width="0.894378" d="M340.537,-204.903C326.434,-191.96 298.463,-166.29 277.04,-146.63"/>
<polygon fill="green" stroke="green" stroke-width="0.894378" points="279.215,-143.876 269.481,-139.693 274.482,-149.033 279.215,-143.876"/>
</g>
<!-- distancia projetil 8 -->
<g id="node8" class="node"><title>distancia projetil 8</title>
<polygon fill="lightgray" stroke="black" points="1890,-292.877 1807,-292.877 1807,-274.877 1890,-274.877 1890,-292.877"/>
<text text-anchor="middle" x="1848.5" y="-281.677" font-family="Times New Roman,serif" font-size="9.00">distancia projetil 8</text>
</g>
<!-- distancia projetil 9 -->
<g id="node9" class="node"><title>distancia projetil 9</title>
<polygon fill="lightgray" stroke="black" points="878,-223.128 795,-223.128 795,-205.128 878,-205.128 878,-223.128"/>
<text text-anchor="middle" x="836.5" y="-211.928" font-family="Times New Roman,serif" font-size="9.00">distancia projetil 9</text>
</g>
<!-- distancia projetil 9&#45;&gt;esquerda -->
<g id="edge37" class="edge"><title>distancia projetil 9&#45;&gt;esquerda</title>
<path fill="none" stroke="green" stroke-width="0.479962" stroke-dasharray="1,5" d="M853.367,-204.912C863.239,-200.194 875.989,-194.257 887.5,-189.38 934.393,-169.51 989.147,-148.9 1025.84,-135.452"/>
<polygon fill="green" stroke="green" stroke-width="0.479962" points="1027.5,-138.573 1035.69,-131.855 1025.1,-131.998 1027.5,-138.573"/>
</g>
<!-- distancia projetil 9&#45;&gt;pular -->
<g id="edge8" class="edge"><title>distancia projetil 9&#45;&gt;pular</title>
<path fill="none" stroke="red" stroke-width="0.264918" d="M851.242,-204.936C861.202,-199.738 874.802,-193.279 887.5,-189.38 983.472,-159.91 1011.67,-171.041 1110.5,-153.38 1157.03,-145.064 1210.59,-134.366 1244.49,-127.456"/>
<polygon fill="red" stroke="red" stroke-width="0.264918" points="1245.25,-130.873 1254.34,-125.44 1243.85,-124.015 1245.25,-130.873"/>
</g>
<!-- distancia projetil 9&#45;&gt;atirar -->
<g id="edge46" class="edge"><title>distancia projetil 9&#45;&gt;atirar</title>
<path fill="none" stroke="green" stroke-width="0.152065" stroke-dasharray="1,5" d="M836.5,-204.903C836.5,-193.591 836.5,-172.558 836.5,-154.311"/>
<polygon fill="green" stroke="green" stroke-width="0.152065" points="840,-154.263 836.5,-144.263 833,-154.263 840,-154.263"/>
</g>
<!-- 4796 -->
<g id="node28" class="node"><title>4796</title>
<ellipse fill="white" stroke="black" cx="1236.5" cy="-24.7487" rx="25" ry="25"/>
<text text-anchor="middle" x="1236.5" y="-22.5487" font-family="Times New Roman,serif" font-size="9.00">4796</text>
</g>
<!-- distancia projetil 9&#45;&gt;4796 -->
<g id="edge22" class="edge"><title>distancia projetil 9&#45;&gt;4796</title>
<path fill="none" stroke="red" stroke-width="0.586988" d="M846.003,-205.001C872.493,-182.737 950.106,-120.118 1024.5,-85.4975 1084.07,-57.7742 1159.19,-40.3488 1202.14,-31.8873"/>
<polygon fill="red" stroke="red" stroke-width="0.586988" points="1202.92,-35.3011 1212.08,-29.9764 1201.6,-28.4269 1202.92,-35.3011"/>
</g>
<!-- distancia projetil 10 -->
<g id="node10" class="node"><title>distancia projetil 10</title>
<polygon fill="lightgray" stroke="black" points="1218.5,-223.128 1130.5,-223.128 1130.5,-205.128 1218.5,-205.128 1218.5,-223.128"/>
<text text-anchor="middle" x="1174.5" y="-211.928" font-family="Times New Roman,serif" font-size="9.00">distancia projetil 10</text>
</g>
<!-- distancia projetil 10&#45;&gt;esquerda -->
<g id="edge29" class="edge"><title>distancia projetil 10&#45;&gt;esquerda</title>
<path fill="none" stroke="green" stroke-width="0.203073" stroke-dasharray="1,5" d="M1165,-204.903C1150.64,-192.458 1122.69,-168.247 1100.38,-148.925"/>
<polygon fill="green" stroke="green" stroke-width="0.203073" points="1102.61,-146.224 1092.76,-142.322 1098.03,-151.515 1102.61,-146.224"/>
</g>
<!-- distancia projetil 10&#45;&gt;direita -->
<g id="edge39" class="edge"><title>distancia projetil 10&#45;&gt;direita</title>
<path fill="none" stroke="green" stroke-width="0.304728" stroke-dasharray="1,5" d="M1191.55,-205.107C1201.87,-200.346 1215.35,-194.298 1227.5,-189.38 1280.65,-167.864 1343.35,-145.728 1381.77,-132.529"/>
<polygon fill="green" stroke="green" stroke-width="0.304728" points="1383.13,-135.761 1391.46,-129.211 1380.86,-129.139 1383.13,-135.761"/>
</g>
<!-- distancia projetil 10&#45;&gt;pular -->
<g id="edge1" class="edge"><title>distancia projetil 10&#45;&gt;pular</title>
<path fill="none" stroke="red" stroke-width="0.220101" stroke-dasharray="1,5" d="M1183.73,-204.903C1199.12,-191.19 1230.53,-163.19 1252.97,-143.188"/>
<polygon fill="red" stroke="red" stroke-width="0.220101" points="1255.36,-145.749 1260.5,-136.483 1250.7,-140.524 1255.36,-145.749"/>
</g>
<!-- distancia projetil 10&#45;&gt;atirar -->
<g id="edge17" class="edge"><title>distancia projetil 10&#45;&gt;atirar</title>
<path fill="none" stroke="green" stroke-width="0.181621" stroke-dasharray="1,5" d="M1145.1,-205.065C1082.59,-187.924 936.808,-147.946 870.463,-129.752"/>
<polygon fill="green" stroke="green" stroke-width="0.181621" points="871.092,-126.296 860.522,-127.026 869.241,-133.046 871.092,-126.296"/>
</g>
<!-- distancia projetil 11 -->
<g id="node11" class="node"><title>distancia projetil 11</title>
<polygon fill="lightgray" stroke="black" points="1778.5,-223.128 1690.5,-223.128 1690.5,-205.128 1778.5,-205.128 1778.5,-223.128"/>
<text text-anchor="middle" x="1734.5" y="-211.928" font-family="Times New Roman,serif" font-size="9.00">distancia projetil 11</text>
</g>
<!-- distancia projetil 11&#45;&gt;direita -->
<g id="edge6" class="edge"><title>distancia projetil 11&#45;&gt;direita</title>
<path fill="none" stroke="red" stroke-width="0.113095" d="M1718.58,-205.044C1708.22,-200.022 1694.3,-193.718 1681.5,-189.38 1615.75,-167.086 1596.6,-171.181 1529.5,-153.38 1503.96,-146.605 1475.39,-138.189 1453.5,-131.559"/>
<polygon fill="red" stroke="red" stroke-width="0.113095" points="1454.23,-128.121 1443.64,-128.557 1452.19,-134.818 1454.23,-128.121"/>
</g>
<!-- distancia projetil 11&#45;&gt;pular -->
<g id="edge45" class="edge"><title>distancia projetil 11&#45;&gt;pular</title>
<path fill="none" stroke="red" stroke-width="0.383825" d="M1719.65,-205.01C1709.26,-199.704 1694.91,-193.093 1681.5,-189.38 1551.66,-153.423 1512.11,-182.217 1380.5,-153.38 1356.86,-148.201 1330.92,-139.784 1311.12,-132.755"/>
<polygon fill="red" stroke="red" stroke-width="0.383825" points="1312.24,-129.439 1301.64,-129.334 1309.86,-136.023 1312.24,-129.439"/>
</g>
<!-- distancia projetil 11&#45;&gt;atirar -->
<g id="edge36" class="edge"><title>distancia projetil 11&#45;&gt;atirar</title>
<path fill="none" stroke="red" stroke-width="0.260279" stroke-dasharray="1,5" d="M1720.17,-204.969C1709.78,-199.498 1695.22,-192.708 1681.5,-189.38 1397.31,-120.434 1315.04,-186.674 1024.5,-153.38 970.335,-147.173 908.138,-135.337 870.607,-127.672"/>
<polygon fill="red" stroke="red" stroke-width="0.260279" points="871.203,-124.222 860.702,-125.629 869.789,-131.077 871.203,-124.222"/>
</g>
<!-- 5071 -->
<g id="node26" class="node"><title>5071</title>
<ellipse fill="white" stroke="black" cx="1734.5" cy="-119.439" rx="25" ry="25"/>
<text text-anchor="middle" x="1734.5" y="-117.239" font-family="Times New Roman,serif" font-size="9.00">5071</text>
</g>
<!-- distancia projetil 11&#45;&gt;5071 -->
<g id="edge10" class="edge"><title>distancia projetil 11&#45;&gt;5071</title>
<path fill="none" stroke="red" stroke-width="0.157172" d="M1734.5,-204.903C1734.5,-193.591 1734.5,-172.558 1734.5,-154.311"/>
<polygon fill="red" stroke="red" stroke-width="0.157172" points="1738,-154.263 1734.5,-144.263 1731,-154.263 1738,-154.263"/>
</g>
<!-- distancia projetil 11&#45;&gt;4796 -->
<g id="edge34" class="edge"><title>distancia projetil 11&#45;&gt;4796</title>
<path fill="none" stroke="green" stroke-width="0.367122" d="M1719.08,-205.031C1677.37,-183.366 1558.47,-123.167 1454.5,-85.4975 1390.8,-62.417 1313.86,-43.2912 1270.52,-33.2845"/>
<polygon fill="green" stroke="green" stroke-width="0.367122" points="1271.29,-29.8717 1260.76,-31.0563 1269.73,-36.6958 1271.29,-29.8717"/>
</g>
<!-- distancia projetil 12 -->
<g id="node12" class="node"><title>distancia projetil 12</title>
<polygon fill="lightgray" stroke="black" points="1672.5,-223.128 1584.5,-223.128 1584.5,-205.128 1672.5,-205.128 1672.5,-223.128"/>
<text text-anchor="middle" x="1628.5" y="-211.928" font-family="Times New Roman,serif" font-size="9.00">distancia projetil 12</text>
</g>
<!-- distancia projetil 12&#45;&gt;direita -->
<g id="edge25" class="edge"><title>distancia projetil 12&#45;&gt;direita</title>
<path fill="none" stroke="red" stroke-width="0.139714" stroke-dasharray="1,5" d="M1610.01,-204.992C1599.58,-200.406 1586.31,-194.571 1574.5,-189.38 1532.27,-170.82 1483.63,-149.467 1451.82,-135.504"/>
<polygon fill="red" stroke="red" stroke-width="0.139714" points="1453.08,-132.234 1442.52,-131.419 1450.27,-138.643 1453.08,-132.234"/>
</g>
<!-- distancia projetil 13 -->
<g id="node13" class="node"><title>distancia projetil 13</title>
<polygon fill="lightgray" stroke="black" points="671.5,-292.877 583.5,-292.877 583.5,-274.877 671.5,-274.877 671.5,-292.877"/>
<text text-anchor="middle" x="627.5" y="-281.677" font-family="Times New Roman,serif" font-size="9.00">distancia projetil 13</text>
</g>
<!-- distancia projetil 13&#45;&gt;esquerda -->
<g id="edge50" class="edge"><title>distancia projetil 13&#45;&gt;esquerda</title>
<path fill="none" stroke="green" stroke-width="0.365869" stroke-dasharray="1,5" d="M671.622,-281.909C780.508,-279.065 1055.19,-268.953 1082.5,-238.877 1101.71,-217.719 1095.88,-184.993 1086.4,-159.299"/>
<polygon fill="green" stroke="green" stroke-width="0.365869" points="1089.59,-157.833 1082.64,-149.835 1083.08,-160.42 1089.59,-157.833"/>
</g>
<!-- distancia projetil 13&#45;&gt;atirar -->
<g id="edge11" class="edge"><title>distancia projetil 13&#45;&gt;atirar</title>
<path fill="none" stroke="red" stroke-width="0.115878" stroke-dasharray="1,5" d="M627.222,-274.723C627.065,-256.917 629.194,-214.171 651.5,-189.38 690.705,-145.807 760.083,-129.684 801.829,-123.781"/>
<polygon fill="red" stroke="red" stroke-width="0.115878" points="802.344,-127.244 811.812,-122.49 801.446,-120.302 802.344,-127.244"/>
</g>
<!-- distancia projetil 13&#45;&gt;release -->
<g id="edge49" class="edge"><title>distancia projetil 13&#45;&gt;release</title>
<path fill="none" stroke="green" stroke-width="0.957068" stroke-dasharray="1,5" d="M583.121,-281.635C478.452,-278.249 223.022,-267.144 197.5,-238.877 173.842,-212.675 198.679,-173.815 221.245,-147.832"/>
<polygon fill="green" stroke="green" stroke-width="0.957068" points="224.021,-149.98 228.119,-140.21 218.823,-145.292 224.021,-149.98"/>
</g>
<!-- 5508 -->
<g id="node27" class="node"><title>5508</title>
<ellipse fill="white" stroke="black" cx="125.5" cy="-214.128" rx="25" ry="25"/>
<text text-anchor="middle" x="125.5" y="-211.928" font-family="Times New Roman,serif" font-size="9.00">5508</text>
</g>
<!-- distancia projetil 13&#45;&gt;5508 -->
<g id="edge14" class="edge"><title>distancia projetil 13&#45;&gt;5508</title>
<path fill="none" stroke="green" stroke-width="0.312515" d="M583.233,-281.201C483.014,-276.999 241.506,-264.47 164.5,-238.877 160.983,-237.708 157.45,-236.174 154.024,-234.448"/>
<polygon fill="green" stroke="green" stroke-width="0.312515" points="155.723,-231.388 145.29,-229.545 152.297,-237.492 155.723,-231.388"/>
</g>
<!-- distancia projetil 13&#45;&gt;4796 -->
<g id="edge2" class="edge"><title>distancia projetil 13&#45;&gt;4796</title>
<path fill="none" stroke="green" stroke-width="0.270189" d="M671.64,-282.895C879.017,-282.765 1748.12,-279.778 1787.5,-238.877 1813.2,-212.181 1794.05,-109.338 1768.5,-85.4975 1732.09,-51.5189 1383.72,-32.5543 1271.29,-27.2814"/>
<polygon fill="green" stroke="green" stroke-width="0.270189" points="1271.32,-23.7789 1261.17,-26.8138 1271,-30.7715 1271.32,-23.7789"/>
</g>
<!-- distancia projetil 14 -->
<g id="node14" class="node"><title>distancia projetil 14</title>
<polygon fill="lightgray" stroke="black" points="1426.5,-223.128 1338.5,-223.128 1338.5,-205.128 1426.5,-205.128 1426.5,-223.128"/>
<text text-anchor="middle" x="1382.5" y="-211.928" font-family="Times New Roman,serif" font-size="9.00">distancia projetil 14</text>
</g>
<!-- distancia projetil 14&#45;&gt;pular -->
<g id="edge21" class="edge"><title>distancia projetil 14&#45;&gt;pular</title>
<path fill="none" stroke="red" stroke-width="0.359569" d="M1373.27,-204.903C1357.88,-191.19 1326.47,-163.19 1304.03,-143.188"/>
<polygon fill="red" stroke="red" stroke-width="0.359569" points="1306.3,-140.524 1296.5,-136.483 1301.64,-145.749 1306.3,-140.524"/>
</g>
<!-- distancia projetil 15 -->
<g id="node15" class="node"><title>distancia projetil 15</title>
<polygon fill="lightgray" stroke="black" points="497.5,-223.128 409.5,-223.128 409.5,-205.128 497.5,-205.128 497.5,-223.128"/>
<text text-anchor="middle" x="453.5" y="-211.928" font-family="Times New Roman,serif" font-size="9.00">distancia projetil 15</text>
</g>
<!-- distancia projetil 15&#45;&gt;direita -->
<g id="edge26" class="edge"><title>distancia projetil 15&#45;&gt;direita</title>
<path fill="none" stroke="red" stroke-width="0.124785" d="M467.824,-204.926C478.202,-199.435 492.765,-192.638 506.5,-189.38 855.394,-106.602 959.355,-215.57 1312.5,-153.38 1336.32,-149.184 1362.26,-141.082 1382.4,-133.962"/>
<polygon fill="red" stroke="red" stroke-width="0.124785" points="1383.86,-137.156 1392.07,-130.462 1381.48,-130.574 1383.86,-137.156"/>
</g>
<!-- distancia projetil 15&#45;&gt;atirar -->
<g id="edge47" class="edge"><title>distancia projetil 15&#45;&gt;atirar</title>
<path fill="none" stroke="red" stroke-width="0.204534" d="M469.381,-204.928C479.729,-199.859 493.648,-193.548 506.5,-189.38 611.541,-155.314 740.997,-134.014 801.826,-125.167"/>
<polygon fill="red" stroke="red" stroke-width="0.204534" points="802.617,-128.59 812.02,-123.708 801.625,-121.66 802.617,-128.59"/>
</g>
<!-- distancia projetil 15&#45;&gt;release -->
<g id="edge30" class="edge"><title>distancia projetil 15&#45;&gt;release</title>
<path fill="none" stroke="red" stroke-width="0.158937" stroke-dasharray="1,5" d="M435.666,-205.065C401.906,-189.8 328.093,-156.426 283.919,-136.453"/>
<polygon fill="red" stroke="red" stroke-width="0.158937" points="285.255,-133.216 274.701,-132.285 282.371,-139.594 285.255,-133.216"/>
</g>
<!-- distancia projetil 16 -->
<g id="node16" class="node"><title>distancia projetil 16</title>
<polygon fill="lightgray" stroke="black" points="1996.5,-292.877 1908.5,-292.877 1908.5,-274.877 1996.5,-274.877 1996.5,-292.877"/>
<text text-anchor="middle" x="1952.5" y="-281.677" font-family="Times New Roman,serif" font-size="9.00">distancia projetil 16</text>
</g>
<!-- distancia inimigo 1 -->
<g id="node17" class="node"><title>distancia inimigo 1</title>
<polygon fill="lightgray" stroke="black" points="777,-223.128 694,-223.128 694,-205.128 777,-205.128 777,-223.128"/>
<text text-anchor="middle" x="735.5" y="-211.928" font-family="Times New Roman,serif" font-size="9.00">distancia inimigo 1</text>
</g>
<!-- distancia inimigo 1&#45;&gt;esquerda -->
<g id="edge7" class="edge"><title>distancia inimigo 1&#45;&gt;esquerda</title>
<path fill="none" stroke="red" stroke-width="0.448311" stroke-dasharray="1,5" d="M750.477,-205.028C760.236,-199.998 773.367,-193.694 785.5,-189.38 867.758,-160.134 967.808,-138.902 1023.91,-128.229"/>
<polygon fill="red" stroke="red" stroke-width="0.448311" points="1024.68,-131.646 1033.86,-126.359 1023.39,-124.766 1024.68,-131.646"/>
</g>
<!-- distancia inimigo 1&#45;&gt;pular -->
<g id="edge33" class="edge"><title>distancia inimigo 1&#45;&gt;pular</title>
<path fill="none" stroke="red" stroke-width="0.185977" d="M749.445,-204.953C759.211,-199.623 772.743,-193.005 785.5,-189.38 925.293,-149.654 966.847,-175.38 1110.5,-153.38 1157.23,-146.223 1210.74,-135.244 1244.57,-127.955"/>
<polygon fill="red" stroke="red" stroke-width="0.185977" points="1245.38,-131.361 1254.41,-125.819 1243.89,-124.52 1245.38,-131.361"/>
</g>
<!-- distancia inimigo 1&#45;&gt;atirar -->
<g id="edge23" class="edge"><title>distancia inimigo 1&#45;&gt;atirar</title>
<path fill="none" stroke="red" stroke-width="0.62865" stroke-dasharray="1,5" d="M744.463,-204.903C759.254,-191.329 789.299,-163.756 811.046,-143.798"/>
<polygon fill="red" stroke="red" stroke-width="0.62865" points="813.638,-146.17 818.639,-136.83 808.905,-141.012 813.638,-146.17"/>
</g>
<!-- distancia inimigo 1&#45;&gt;release -->
<g id="edge13" class="edge"><title>distancia inimigo 1&#45;&gt;release</title>
<path fill="none" stroke="green" stroke-width="0.392368" d="M693.979,-205.226C600.939,-187.518 376.874,-144.872 286.873,-127.742"/>
<polygon fill="green" stroke="green" stroke-width="0.392368" points="287.308,-124.262 276.83,-125.831 285.999,-131.139 287.308,-124.262"/>
</g>
<!-- distancia inimigo 2 -->
<g id="node18" class="node"><title>distancia inimigo 2</title>
<polygon fill="lightgray" stroke="black" points="290,-223.128 207,-223.128 207,-205.128 290,-205.128 290,-223.128"/>
<text text-anchor="middle" x="248.5" y="-211.928" font-family="Times New Roman,serif" font-size="9.00">distancia inimigo 2</text>
</g>
<!-- distancia inimigo 2&#45;&gt;atirar -->
<g id="edge38" class="edge"><title>distancia inimigo 2&#45;&gt;atirar</title>
<path fill="none" stroke="green" stroke-width="0.269829" stroke-dasharray="1,5" d="M262.465,-205.023C272.24,-199.723 285.775,-193.114 298.5,-189.38 482.603,-135.355 714.453,-123.655 801.423,-121.13"/>
<polygon fill="green" stroke="green" stroke-width="0.269829" points="801.633,-124.626 811.535,-120.86 801.445,-117.629 801.633,-124.626"/>
</g>
<!-- distancia inimigo 2&#45;&gt;release -->
<g id="edge44" class="edge"><title>distancia inimigo 2&#45;&gt;release</title>
<path fill="none" stroke="green" stroke-width="0.402862" d="M248.5,-204.903C248.5,-194.556 248.5,-176.076 248.5,-159.034"/>
<polygon fill="green" stroke="green" stroke-width="0.402862" points="252,-158.695 248.5,-148.695 245,-158.695 252,-158.695"/>
</g>
<!-- direcao sprites 1 -->
<g id="node19" class="node"><title>direcao sprites 1</title>
<polygon fill="lightgray" stroke="black" points="1687.5,-292.877 1611.5,-292.877 1611.5,-274.877 1687.5,-274.877 1687.5,-292.877"/>
<text text-anchor="middle" x="1649.5" y="-281.677" font-family="Times New Roman,serif" font-size="9.00">direcao sprites 1</text>
</g>
<!-- direcao sprites 1&#45;&gt;direita -->
<g id="edge32" class="edge"><title>direcao sprites 1&#45;&gt;direita</title>
<path fill="none" stroke="green" stroke-width="0.290745" d="M1687.81,-275.878C1724.37,-268.329 1775.59,-255.171 1787.5,-238.877 1800.48,-221.115 1801.56,-206.3 1787.5,-189.38 1766.24,-163.788 1544.58,-135.277 1454.88,-124.693"/>
<polygon fill="green" stroke="green" stroke-width="0.290745" points="1455.2,-121.207 1444.86,-123.521 1454.39,-128.16 1455.2,-121.207"/>
</g>
<!-- direcao sprites 1&#45;&gt;pular -->
<g id="edge20" class="edge"><title>direcao sprites 1&#45;&gt;pular</title>
<path fill="none" stroke="red" stroke-width="0.699026" stroke-dasharray="1,5" d="M1611.24,-280.579C1573.49,-276.729 1515.51,-266.429 1473.5,-238.877 1450.31,-223.666 1457.33,-206.491 1435.5,-189.38 1397.92,-159.918 1345.8,-140.31 1312.11,-129.774"/>
<polygon fill="red" stroke="red" stroke-width="0.699026" points="1312.86,-126.347 1302.28,-126.795 1310.83,-133.046 1312.86,-126.347"/>
</g>
<!-- direcao sprites 1&#45;&gt;atirar -->
<g id="edge5" class="edge"><title>direcao sprites 1&#45;&gt;atirar</title>
<path fill="none" stroke="red" stroke-width="0.510511" d="M1611.33,-282.593C1436.23,-281.108 717.048,-272.943 684.5,-238.877 669.303,-222.971 672.583,-207.871 684.5,-189.38 710.288,-149.367 765.575,-132.318 801.879,-125.237"/>
<polygon fill="red" stroke="red" stroke-width="0.510511" points="802.803,-128.628 812.029,-123.419 801.569,-121.737 802.803,-128.628"/>
</g>
<!-- 5407 -->
<g id="node29" class="node"><title>5407</title>
<ellipse fill="white" stroke="black" cx="1897.5" cy="-214.128" rx="25" ry="25"/>
<text text-anchor="middle" x="1897.5" y="-211.928" font-family="Times New Roman,serif" font-size="9.00">5407</text>
</g>
<!-- direcao sprites 1&#45;&gt;5407 -->
<g id="edge40" class="edge"><title>direcao sprites 1&#45;&gt;5407</title>
<path fill="none" stroke="green" stroke-width="0.182011" d="M1687.77,-276.422C1739.26,-267.464 1827.91,-250.999 1858.5,-238.877 1861.95,-237.512 1865.43,-235.854 1868.83,-234.054"/>
<polygon fill="green" stroke="green" stroke-width="0.182011" points="1870.6,-237.076 1877.54,-229.068 1867.12,-231.002 1870.6,-237.076"/>
</g>
<!-- direcao sprites 2 -->
<g id="node20" class="node"><title>direcao sprites 2</title>
<polygon fill="lightgray" stroke="black" points="972.5,-223.128 896.5,-223.128 896.5,-205.128 972.5,-205.128 972.5,-223.128"/>
<text text-anchor="middle" x="934.5" y="-211.928" font-family="Times New Roman,serif" font-size="9.00">direcao sprites 2</text>
</g>
<!-- direcao sprites 2&#45;&gt;direita -->
<g id="edge42" class="edge"><title>direcao sprites 2&#45;&gt;direita</title>
<path fill="none" stroke="green" stroke-width="0.394512" d="M947.542,-204.928C956.691,-199.586 969.404,-192.964 981.5,-189.38 1123.38,-147.334 1167.66,-183.673 1312.5,-153.38 1336.18,-148.428 1362.12,-140.317 1382.29,-133.383"/>
<polygon fill="green" stroke="green" stroke-width="0.394512" points="1383.7,-136.597 1391.98,-129.99 1381.39,-129.99 1383.7,-136.597"/>
</g>
<!-- direcao sprites 2&#45;&gt;atirar -->
<g id="edge15" class="edge"><title>direcao sprites 2&#45;&gt;atirar</title>
<path fill="none" stroke="green" stroke-width="0.255409" stroke-dasharray="1,5" d="M925.803,-204.903C911.535,-191.408 882.637,-164.076 861.566,-144.147"/>
<polygon fill="green" stroke="green" stroke-width="0.255409" points="863.869,-141.507 854.199,-137.179 859.059,-146.593 863.869,-141.507"/>
</g>
<!-- atirar&#45;&gt;4796 -->
<g id="edge28" class="edge"><title>atirar&#45;&gt;4796</title>
<path fill="none" stroke="green" stroke-width="0.451813" d="M858.516,-107.781C874.115,-100.6 895.705,-91.3948 915.5,-85.4975 1017.49,-55.1143 1142.51,-37.1621 1201.95,-29.7478"/>
<polygon fill="green" stroke="green" stroke-width="0.451813" points="1202.42,-33.2157 1211.92,-28.5258 1201.57,-26.2676 1202.42,-33.2157"/>
</g>
<!-- 5508&#45;&gt;release -->
<g id="edge24" class="edge"><title>5508&#45;&gt;release</title>
<path fill="none" stroke="red" stroke-width="0.238508" d="M144.99,-198.441C164.537,-183.711 194.93,-160.808 217.734,-143.623"/>
<polygon fill="red" stroke="red" stroke-width="0.238508" points="219.879,-146.39 225.758,-137.576 215.666,-140.799 219.879,-146.39"/>
</g>
<!-- 5407&#45;&gt;direita -->
<g id="edge16" class="edge"><title>5407&#45;&gt;direita</title>
<path fill="none" stroke="green" stroke-width="0.398203" d="M1877.62,-198.968C1871.71,-195.334 1865.05,-191.779 1858.5,-189.38 1784.14,-162.151 1547.44,-134.459 1455,-124.397"/>
<polygon fill="green" stroke="green" stroke-width="0.398203" points="1455.29,-120.908 1444.97,-123.313 1454.54,-127.867 1455.29,-120.908"/>
</g>
</g>
</svg>
