<?xml version="1.0" encoding="UTF-8" standalone="no"?>
<!DOCTYPE svg PUBLIC "-//W3C//DTD SVG 1.1//EN"
 "http://www.w3.org/Graphics/SVG/1.1/DTD/svg11.dtd">
<!-- Generated by graphviz version 2.38.0 (20140413.2041)
 -->
<!-- Title: %3 Pages: 1 -->
<svg width="2323pt" height="203pt"
 viewBox="0.00 0.00 2322.58 202.65" xmlns="http://www.w3.org/2000/svg" xmlns:xlink="http://www.w3.org/1999/xlink">
<g id="graph0" class="graph" transform="scale(1 1) rotate(0) translate(4 198.652)">
<title>%3</title>
<polygon fill="white" stroke="none" points="-4,4 -4,-198.652 2318.58,-198.652 2318.58,4 -4,4"/>
<!-- dintancia projetil 1 -->
<g id="node1" class="node"><title>dintancia projetil 1</title>
<polygon fill="lightgray" stroke="black" points="1269.28,-131.267 1185.28,-131.267 1185.28,-113.267 1269.28,-113.267 1269.28,-131.267"/>
<text text-anchor="middle" x="1227.28" y="-120.067" font-family="Times New Roman,serif" font-size="9.00">dintancia projetil 1</text>
</g>
<!-- esquerda -->
<g id="node21" class="node"><title>esquerda</title>
<ellipse fill="lightblue" stroke="black" cx="1250.28" cy="-33.9411" rx="33.8824" ry="33.8824"/>
<text text-anchor="middle" x="1250.28" y="-31.7411" font-family="Times New Roman,serif" font-size="9.00">esquerda</text>
</g>
<!-- dintancia projetil 1&#45;&gt;esquerda -->
<g id="edge1" class="edge"><title>dintancia projetil 1&#45;&gt;esquerda</title>
<path fill="none" stroke="green" stroke-width="0.348508" d="M1229.48,-112.99C1231.75,-104.5 1235.44,-90.6327 1239.09,-76.9241"/>
<polygon fill="green" stroke="green" stroke-width="0.348508" points="1242.53,-77.6133 1241.72,-67.0493 1235.77,-75.8111 1242.53,-77.6133"/>
</g>
<!-- direita -->
<g id="node22" class="node"><title>direita</title>
<ellipse fill="lightblue" stroke="black" cx="1024.28" cy="-33.9411" rx="27.6545" ry="27.6545"/>
<text text-anchor="middle" x="1024.28" y="-31.7411" font-family="Times New Roman,serif" font-size="9.00">direita</text>
</g>
<!-- dintancia projetil 1&#45;&gt;direita -->
<g id="edge32" class="edge"><title>dintancia projetil 1&#45;&gt;direita</title>
<path fill="none" stroke="green" stroke-width="0.923387" d="M1208.18,-113.146C1173.96,-98.5909 1101.73,-67.8775 1058.68,-49.5703"/>
<polygon fill="green" stroke="green" stroke-width="0.923387" points="1060.01,-46.3343 1049.44,-45.6418 1057.28,-52.7761 1060.01,-46.3343"/>
</g>
<!-- pular -->
<g id="node23" class="node"><title>pular</title>
<ellipse fill="lightblue" stroke="black" cx="1463.28" cy="-33.9411" rx="25" ry="25"/>
<text text-anchor="middle" x="1463.28" y="-31.7411" font-family="Times New Roman,serif" font-size="9.00">pular</text>
</g>
<!-- dintancia projetil 1&#45;&gt;pular -->
<g id="edge43" class="edge"><title>dintancia projetil 1&#45;&gt;pular</title>
<path fill="none" stroke="green" stroke-width="0.133587" d="M1263.01,-113.222C1311.04,-102.104 1393.59,-81.8349 1421.28,-67.8823 1426.79,-65.1036 1432.28,-61.5402 1437.38,-57.7885"/>
<polygon fill="green" stroke="green" stroke-width="0.133587" points="1439.83,-60.3217 1445.54,-51.4025 1435.51,-54.8091 1439.83,-60.3217"/>
</g>
<!-- atirar -->
<g id="node24" class="node"><title>atirar</title>
<ellipse fill="lightblue" stroke="black" cx="1369.28" cy="-33.9411" rx="25" ry="25"/>
<text text-anchor="middle" x="1369.28" y="-31.7411" font-family="Times New Roman,serif" font-size="9.00">atirar</text>
</g>
<!-- dintancia projetil 1&#45;&gt;atirar -->
<g id="edge75" class="edge"><title>dintancia projetil 1&#45;&gt;atirar</title>
<path fill="none" stroke="green" stroke-width="0.252793" d="M1240.64,-113.146C1263.16,-99.4523 1309.21,-71.4564 1339.66,-52.9452"/>
<polygon fill="green" stroke="green" stroke-width="0.252793" points="1341.84,-55.7166 1348.57,-47.5312 1338.21,-49.7352 1341.84,-55.7166"/>
</g>
<!-- release -->
<g id="node25" class="node"><title>release</title>
<ellipse fill="lightblue" stroke="black" cx="879.279" cy="-33.9411" rx="28.9828" ry="28.9828"/>
<text text-anchor="middle" x="879.279" y="-31.7411" font-family="Times New Roman,serif" font-size="9.00">release</text>
</g>
<!-- dintancia projetil 1&#45;&gt;release -->
<g id="edge25" class="edge"><title>dintancia projetil 1&#45;&gt;release</title>
<path fill="none" stroke="green" stroke-width="0.459093" d="M1205.46,-113.251C1196.23,-110.05 1185.32,-106.509 1175.28,-103.882 1092.98,-82.3471 1069.86,-88.3212 987.279,-67.8823 963.404,-61.9732 936.989,-53.9436 916.259,-47.2914"/>
<polygon fill="green" stroke="green" stroke-width="0.459093" points="917.167,-43.9065 906.575,-44.1518 915.009,-50.5653 917.167,-43.9065"/>
</g>
<!-- distancia projetil 2 -->
<g id="node2" class="node"><title>distancia projetil 2</title>
<polygon fill="lightgray" stroke="black" points="1065.78,-131.267 982.779,-131.267 982.779,-113.267 1065.78,-113.267 1065.78,-131.267"/>
<text text-anchor="middle" x="1024.28" y="-120.067" font-family="Times New Roman,serif" font-size="9.00">distancia projetil 2</text>
</g>
<!-- distancia projetil 2&#45;&gt;esquerda -->
<g id="edge8" class="edge"><title>distancia projetil 2&#45;&gt;esquerda</title>
<path fill="none" stroke="red" stroke-width="0.102768" d="M1045.54,-113.146C1082.96,-98.8526 1161.17,-68.9766 1209.36,-50.5695"/>
<polygon fill="red" stroke="red" stroke-width="0.102768" points="1210.78,-53.7752 1218.87,-46.9373 1208.28,-47.236 1210.78,-53.7752"/>
</g>
<!-- distancia projetil 2&#45;&gt;direita -->
<g id="edge95" class="edge"><title>distancia projetil 2&#45;&gt;direita</title>
<path fill="none" stroke="red" stroke-width="0.207093" d="M1024.28,-112.99C1024.28,-103.458 1024.28,-87.1459 1024.28,-71.8914"/>
<polygon fill="red" stroke="red" stroke-width="0.207093" points="1027.78,-71.5958 1024.28,-61.5958 1020.78,-71.5959 1027.78,-71.5958"/>
</g>
<!-- distancia projetil 2&#45;&gt;pular -->
<g id="edge42" class="edge"><title>distancia projetil 2&#45;&gt;pular</title>
<path fill="none" stroke="green" stroke-width="0.427308" stroke-dasharray="1,5" d="M1043.92,-113.255C1053.02,-109.855 1064.05,-106.158 1074.28,-103.882 1225.63,-70.1973 1277.53,-126.003 1421.28,-67.8823 1427,-65.5679 1432.59,-62.227 1437.73,-58.5506"/>
<polygon fill="green" stroke="green" stroke-width="0.427308" points="1440.17,-61.0856 1445.89,-52.1689 1435.86,-55.5711 1440.17,-61.0856"/>
</g>
<!-- distancia projetil 2&#45;&gt;atirar -->
<g id="edge22" class="edge"><title>distancia projetil 2&#45;&gt;atirar</title>
<path fill="none" stroke="green" stroke-width="0.742423" d="M1044.94,-113.124C1053.85,-109.863 1064.47,-106.312 1074.28,-103.882 1177.7,-78.2794 1210.61,-102.772 1311.28,-67.8823 1321.29,-64.4123 1331.56,-59.2146 1340.61,-53.9675"/>
<polygon fill="green" stroke="green" stroke-width="0.742423" points="1342.47,-56.9358 1349.21,-48.7661 1338.85,-50.9459 1342.47,-56.9358"/>
</g>
<!-- distancia projetil 2&#45;&gt;release -->
<g id="edge46" class="edge"><title>distancia projetil 2&#45;&gt;release</title>
<path fill="none" stroke="green" stroke-width="0.624008" stroke-dasharray="1,5" d="M1010.64,-113.146C988.372,-99.8899 943.594,-73.2311 912.549,-54.7481"/>
<polygon fill="green" stroke="green" stroke-width="0.624008" points="914.174,-51.6426 903.791,-49.5344 910.593,-57.6574 914.174,-51.6426"/>
</g>
<!-- distancia projetil 3 -->
<g id="node3" class="node"><title>distancia projetil 3</title>
<polygon fill="lightgray" stroke="black" points="1166.78,-131.267 1083.78,-131.267 1083.78,-113.267 1166.78,-113.267 1166.78,-131.267"/>
<text text-anchor="middle" x="1125.28" y="-120.067" font-family="Times New Roman,serif" font-size="9.00">distancia projetil 3</text>
</g>
<!-- distancia projetil 3&#45;&gt;esquerda -->
<g id="edge48" class="edge"><title>distancia projetil 3&#45;&gt;esquerda</title>
<path fill="none" stroke="green" stroke-width="0.312551" d="M1137.26,-112.99C1154.83,-100.857 1188.31,-77.7406 1214.28,-59.8011"/>
<polygon fill="green" stroke="green" stroke-width="0.312551" points="1216.53,-62.5018 1222.77,-53.9391 1212.55,-56.7418 1216.53,-62.5018"/>
</g>
<!-- distancia projetil 3&#45;&gt;direita -->
<g id="edge16" class="edge"><title>distancia projetil 3&#45;&gt;direita</title>
<path fill="none" stroke="red" stroke-width="0.431661" d="M1115.59,-112.99C1101.23,-100.716 1073.72,-77.2014 1052.64,-59.1773"/>
<polygon fill="red" stroke="red" stroke-width="0.431661" points="1054.78,-56.4098 1044.91,-52.5731 1050.24,-61.731 1054.78,-56.4098"/>
</g>
<!-- distancia projetil 3&#45;&gt;pular -->
<g id="edge88" class="edge"><title>distancia projetil 3&#45;&gt;pular</title>
<path fill="none" stroke="green" stroke-width="0.163142" d="M1146.36,-113.113C1155.45,-109.85 1166.28,-106.3 1176.28,-103.882 1283.26,-78.0195 1320.15,-111.298 1421.28,-67.8823 1426.95,-65.4467 1432.52,-62.0477 1437.65,-58.3518"/>
<polygon fill="green" stroke="green" stroke-width="0.163142" points="1440.09,-60.8863 1445.81,-51.9689 1435.78,-55.3722 1440.09,-60.8863"/>
</g>
<!-- distancia projetil 3&#45;&gt;atirar -->
<g id="edge56" class="edge"><title>distancia projetil 3&#45;&gt;atirar</title>
<path fill="none" stroke="green" stroke-width="0.791029" d="M1147.77,-113.233C1156.61,-110.171 1166.88,-106.734 1176.28,-103.882 1235.7,-85.8542 1253.81,-91.408 1311.28,-67.8823 1321.09,-63.8679 1331.29,-58.515 1340.36,-53.2932"/>
<polygon fill="green" stroke="green" stroke-width="0.791029" points="1342.18,-56.284 1348.99,-48.1695 1338.6,-50.2648 1342.18,-56.284"/>
</g>
<!-- distancia projetil 3&#45;&gt;release -->
<g id="edge26" class="edge"><title>distancia projetil 3&#45;&gt;release</title>
<path fill="none" stroke="red" stroke-width="0.150908" d="M1102.14,-113.146C1059.41,-98.1538 967.838,-66.0182 916.365,-47.9552"/>
<polygon fill="red" stroke="red" stroke-width="0.150908" points="917.226,-44.5483 906.631,-44.5395 914.908,-51.1534 917.226,-44.5483"/>
</g>
<!-- distancia projetil 4 -->
<g id="node4" class="node"><title>distancia projetil 4</title>
<polygon fill="lightgray" stroke="black" points="924.779,-194.652 841.779,-194.652 841.779,-176.652 924.779,-176.652 924.779,-194.652"/>
<text text-anchor="middle" x="883.279" y="-183.452" font-family="Times New Roman,serif" font-size="9.00">distancia projetil 4</text>
</g>
<!-- distancia projetil 4&#45;&gt;esquerda -->
<g id="edge98" class="edge"><title>distancia projetil 4&#45;&gt;esquerda</title>
<path fill="none" stroke="green" stroke-width="0.622016" d="M925.135,-185.005C1061.02,-185.718 1483.46,-184.373 1524.28,-140.652 1627.01,-30.6261 1604.78,-145.077 1335.28,-67.8823 1320.45,-63.6331 1304.58,-57.8424 1290.62,-52.3007"/>
<polygon fill="green" stroke="green" stroke-width="0.622016" points="1291.88,-49.0349 1281.3,-48.5259 1289.26,-55.5232 1291.88,-49.0349"/>
</g>
<!-- distancia projetil 4&#45;&gt;direita -->
<g id="edge24" class="edge"><title>distancia projetil 4&#45;&gt;direita</title>
<path fill="none" stroke="green" stroke-width="0.458873" d="M841.575,-183.214C706.387,-178.353 287.836,-161.658 268.279,-140.652 257.144,-128.691 257.039,-115.745 268.279,-103.882 319.326,-50.0059 862.602,-82.933 935.279,-67.8823 953.85,-64.0363 973.715,-56.9889 989.955,-50.3967"/>
<polygon fill="green" stroke="green" stroke-width="0.458873" points="991.678,-53.4699 999.554,-46.3836 988.978,-47.0116 991.678,-53.4699"/>
</g>
<!-- distancia projetil 4&#45;&gt;pular -->
<g id="edge55" class="edge"><title>distancia projetil 4&#45;&gt;pular</title>
<path fill="none" stroke="red" stroke-width="0.106974" stroke-dasharray="1,5" d="M925.074,-184.117C1153.78,-181.094 2244.31,-165.396 2268.28,-140.652 2279.65,-128.914 2279.33,-115.921 2268.28,-103.882 2215.53,-46.4222 1646.71,-36.7666 1498.45,-35.2225"/>
<polygon fill="red" stroke="red" stroke-width="0.106974" points="1498.16,-31.7195 1488.12,-35.1211 1498.09,-38.7192 1498.16,-31.7195"/>
</g>
<!-- distancia projetil 4&#45;&gt;atirar -->
<g id="edge87" class="edge"><title>distancia projetil 4&#45;&gt;atirar</title>
<path fill="none" stroke="green" stroke-width="0.186153" d="M924.783,-184C1141.32,-180.503 2132.42,-163.281 2154.28,-140.652 2266.78,-24.1928 1585.08,-111.984 1429.28,-67.8823 1418.45,-64.8163 1407.42,-59.5091 1397.82,-54.039"/>
<polygon fill="green" stroke="green" stroke-width="0.186153" points="1399.48,-50.9556 1389.11,-48.8124 1395.88,-56.9583 1399.48,-50.9556"/>
</g>
<!-- distancia projetil 4&#45;&gt;release -->
<g id="edge74" class="edge"><title>distancia projetil 4&#45;&gt;release</title>
<path fill="none" stroke="red" stroke-width="0.275454" d="M841.567,-183.754C688.115,-180.249 162.553,-166.402 138.279,-140.652 39.0637,-35.4037 672.72,-33.2637 839.692,-34.4957"/>
<polygon fill="red" stroke="red" stroke-width="0.275454" points="839.974,-37.9981 850.002,-34.5807 840.031,-30.9983 839.974,-37.9981"/>
</g>
<!-- 60 -->
<g id="node27" class="node"><title>60</title>
<ellipse fill="white" stroke="black" cx="165.279" cy="-122.267" rx="18.2703" ry="18.2703"/>
<text text-anchor="middle" x="165.279" y="-120.067" font-family="Times New Roman,serif" font-size="9.00">60</text>
</g>
<!-- distancia projetil 4&#45;&gt;60 -->
<g id="edge102" class="edge"><title>distancia projetil 4&#45;&gt;60</title>
<path fill="none" stroke="green" stroke-width="0.296285" d="M841.599,-184.322C712.281,-182.93 319.255,-175.84 197.279,-140.652 194.637,-139.889 191.968,-138.884 189.359,-137.741"/>
<polygon fill="green" stroke="green" stroke-width="0.296285" points="190.825,-134.56 180.32,-133.18 187.671,-140.809 190.825,-134.56"/>
</g>
<!-- distancia projetil 5 -->
<g id="node5" class="node"><title>distancia projetil 5</title>
<polygon fill="lightgray" stroke="black" points="466.779,-131.267 383.779,-131.267 383.779,-113.267 466.779,-113.267 466.779,-131.267"/>
<text text-anchor="middle" x="425.279" y="-120.067" font-family="Times New Roman,serif" font-size="9.00">distancia projetil 5</text>
</g>
<!-- distancia projetil 5&#45;&gt;esquerda -->
<g id="edge41" class="edge"><title>distancia projetil 5&#45;&gt;esquerda</title>
<path fill="none" stroke="green" stroke-width="0.527249" d="M444.405,-113.229C453.579,-109.735 464.825,-105.97 475.279,-103.882 738.995,-51.2267 812.454,-101.388 1079.28,-67.8823 1123.18,-62.369 1172.78,-52.3927 1207.21,-44.8585"/>
<polygon fill="green" stroke="green" stroke-width="0.527249" points="1208.38,-48.1849 1217.38,-42.6064 1206.86,-41.3503 1208.38,-48.1849"/>
</g>
<!-- distancia projetil 5&#45;&gt;direita -->
<g id="edge10" class="edge"><title>distancia projetil 5&#45;&gt;direita</title>
<path fill="none" stroke="green" stroke-width="0.569452" d="M444.899,-113.136C453.988,-109.711 465.025,-106.029 475.279,-103.882 675.998,-61.8636 734.988,-111.893 935.279,-67.8823 953.802,-63.8121 973.662,-56.7421 989.911,-50.1929"/>
<polygon fill="green" stroke="green" stroke-width="0.569452" points="991.618,-53.2743 999.518,-46.2139 988.94,-46.8071 991.618,-53.2743"/>
</g>
<!-- distancia projetil 5&#45;&gt;atirar -->
<g id="edge72" class="edge"><title>distancia projetil 5&#45;&gt;atirar</title>
<path fill="none" stroke="red" stroke-width="0.324764" d="M444.39,-113.151C453.56,-109.64 464.808,-105.883 475.279,-103.882 657.924,-68.978 1132.56,-119.231 1311.28,-67.8823 1321.55,-64.9323 1331.95,-59.8309 1341.05,-54.5116"/>
<polygon fill="red" stroke="red" stroke-width="0.324764" points="1343,-57.4228 1349.67,-49.1914 1339.32,-51.4665 1343,-57.4228"/>
</g>
<!-- distancia projetil 5&#45;&gt;release -->
<g id="edge64" class="edge"><title>distancia projetil 5&#45;&gt;release</title>
<path fill="none" stroke="green" stroke-width="0.105792" d="M445.965,-113.211C454.88,-109.965 465.489,-106.401 475.279,-103.882 607.293,-69.9176 767.974,-48.1788 840.484,-39.3887"/>
<polygon fill="green" stroke="green" stroke-width="0.105792" points="841.015,-42.8501 850.528,-38.1858 840.183,-35.8998 841.015,-42.8501"/>
</g>
<!-- distancia projetil 6 -->
<g id="node6" class="node"><title>distancia projetil 6</title>
<polygon fill="lightgray" stroke="black" points="1514.78,-131.267 1431.78,-131.267 1431.78,-113.267 1514.78,-113.267 1514.78,-131.267"/>
<text text-anchor="middle" x="1473.28" y="-120.067" font-family="Times New Roman,serif" font-size="9.00">distancia projetil 6</text>
</g>
<!-- distancia projetil 6&#45;&gt;esquerda -->
<g id="edge85" class="edge"><title>distancia projetil 6&#45;&gt;esquerda</title>
<path fill="none" stroke="green" stroke-width="0.115318" d="M1452.24,-113.131C1425.17,-102.667 1376.72,-83.9288 1335.28,-67.8823 1320.89,-62.3106 1305.13,-56.2048 1291.13,-50.7798"/>
<polygon fill="green" stroke="green" stroke-width="0.115318" points="1292.35,-47.4984 1281.76,-47.1478 1289.82,-54.0253 1292.35,-47.4984"/>
</g>
<!-- distancia projetil 6&#45;&gt;direita -->
<g id="edge14" class="edge"><title>distancia projetil 6&#45;&gt;direita</title>
<path fill="none" stroke="green" stroke-width="0.205582" d="M1452.17,-113.21C1443.08,-109.964 1432.26,-106.4 1422.28,-103.882 1328.34,-80.1739 1302.74,-84.4647 1207.28,-67.8823 1156.77,-59.1072 1098.49,-48.5413 1061.53,-41.7842"/>
<polygon fill="green" stroke="green" stroke-width="0.205582" points="1061.7,-38.2576 1051.24,-39.8998 1060.44,-45.1432 1061.7,-38.2576"/>
</g>
<!-- distancia projetil 6&#45;&gt;pular -->
<g id="edge21" class="edge"><title>distancia projetil 6&#45;&gt;pular</title>
<path fill="none" stroke="red" stroke-width="0.13099" d="M1472.32,-112.99C1471.14,-102.812 1469.07,-84.9054 1467.2,-68.8091"/>
<polygon fill="red" stroke="red" stroke-width="0.13099" points="1470.65,-68.1233 1466.02,-58.5925 1463.69,-68.9288 1470.65,-68.1233"/>
</g>
<!-- distancia projetil 6&#45;&gt;atirar -->
<g id="edge53" class="edge"><title>distancia projetil 6&#45;&gt;atirar</title>
<path fill="none" stroke="red" stroke-width="0.662395" d="M1463.31,-112.99C1447.91,-100.211 1417.84,-75.247 1395.83,-56.9812"/>
<polygon fill="red" stroke="red" stroke-width="0.662395" points="1398.06,-54.2836 1388.13,-50.5897 1393.59,-59.6698 1398.06,-54.2836"/>
</g>
<!-- distancia projetil 6&#45;&gt;release -->
<g id="edge65" class="edge"><title>distancia projetil 6&#45;&gt;release</title>
<path fill="none" stroke="green" stroke-width="0.32444" d="M1453.25,-113.163C1443.97,-109.744 1432.72,-106.059 1422.28,-103.882 1232.37,-64.2873 1177.81,-104.388 987.279,-67.8823 963.123,-63.2539 936.703,-55.2496 916.04,-48.2903"/>
<polygon fill="green" stroke="green" stroke-width="0.32444" points="916.989,-44.9155 906.394,-44.9772 914.715,-51.5359 916.989,-44.9155"/>
</g>
<!-- distancia projetil 7 -->
<g id="node7" class="node"><title>distancia projetil 7</title>
<polygon fill="lightgray" stroke="black" points="1654.78,-131.267 1571.78,-131.267 1571.78,-113.267 1654.78,-113.267 1654.78,-131.267"/>
<text text-anchor="middle" x="1613.28" y="-120.067" font-family="Times New Roman,serif" font-size="9.00">distancia projetil 7</text>
</g>
<!-- distancia projetil 7&#45;&gt;esquerda -->
<g id="edge31" class="edge"><title>distancia projetil 7&#45;&gt;esquerda</title>
<path fill="none" stroke="red" stroke-width="0.670451" d="M1590.05,-113.254C1580.05,-110.015 1568.18,-106.445 1557.28,-103.882 1459.98,-81.0084 1431.74,-94.0849 1335.28,-67.8823 1320.39,-63.8372 1304.51,-58.0951 1290.56,-52.5354"/>
<polygon fill="red" stroke="red" stroke-width="0.670451" points="1291.82,-49.2715 1281.24,-48.7386 1289.18,-55.7538 1291.82,-49.2715"/>
</g>
<!-- distancia projetil 7&#45;&gt;direita -->
<g id="edge106" class="edge"><title>distancia projetil 7&#45;&gt;direita</title>
<path fill="none" stroke="green" stroke-width="0.448467" d="M1575.72,-113.24C1559.89,-110.037 1541.24,-106.497 1524.28,-103.882 1384.14,-82.2732 1347.57,-88.4532 1207.28,-67.8823 1156.55,-60.4442 1098.33,-49.5564 1061.44,-42.3621"/>
<polygon fill="green" stroke="green" stroke-width="0.448467" points="1061.65,-38.8373 1051.17,-40.3465 1060.3,-45.7063 1061.65,-38.8373"/>
</g>
<!-- distancia projetil 7&#45;&gt;pular -->
<g id="edge70" class="edge"><title>distancia projetil 7&#45;&gt;pular</title>
<path fill="none" stroke="green" stroke-width="0.260944" d="M1599.17,-113.146C1575.07,-99.2787 1525.49,-70.7441 1493.35,-52.2457"/>
<polygon fill="green" stroke="green" stroke-width="0.260944" points="1494.79,-49.0393 1484.38,-47.0847 1491.3,-55.1063 1494.79,-49.0393"/>
</g>
<!-- distancia projetil 7&#45;&gt;atirar -->
<g id="edge39" class="edge"><title>distancia projetil 7&#45;&gt;atirar</title>
<path fill="none" stroke="green" stroke-width="0.324412" d="M1587.95,-113.247C1578.36,-110.251 1567.33,-106.856 1557.28,-103.882 1500.61,-87.1202 1483.98,-90.2476 1429.28,-67.8823 1419.03,-63.6903 1408.29,-58.1838 1398.77,-52.8759"/>
<polygon fill="green" stroke="green" stroke-width="0.324412" points="1400.5,-49.8313 1390.08,-47.897 1397.02,-55.9051 1400.5,-49.8313"/>
</g>
<!-- distancia projetil 7&#45;&gt;release -->
<g id="edge51" class="edge"><title>distancia projetil 7&#45;&gt;release</title>
<path fill="none" stroke="red" stroke-width="0.367937" stroke-dasharray="1,5" d="M1577.51,-113.211C1561.33,-109.844 1541.92,-106.187 1524.28,-103.882 1287.09,-72.8919 1222.55,-111.058 987.279,-67.8823 963.088,-63.4428 936.667,-55.4422 916.013,-48.4376"/>
<polygon fill="red" stroke="red" stroke-width="0.367937" points="916.966,-45.0641 906.372,-45.099 914.676,-51.6787 916.966,-45.0641"/>
</g>
<!-- distancia projetil 8 -->
<g id="node8" class="node"><title>distancia projetil 8</title>
<polygon fill="lightgray" stroke="black" points="1825.78,-194.652 1742.78,-194.652 1742.78,-176.652 1825.78,-176.652 1825.78,-194.652"/>
<text text-anchor="middle" x="1784.28" y="-183.452" font-family="Times New Roman,serif" font-size="9.00">distancia projetil 8</text>
</g>
<!-- distancia projetil 8&#45;&gt;esquerda -->
<g id="edge80" class="edge"><title>distancia projetil 8&#45;&gt;esquerda</title>
<path fill="none" stroke="red" stroke-width="0.212116" d="M1785.16,-176.46C1786.44,-159.871 1786.66,-122.321 1765.28,-103.882 1692.66,-41.2586 1428.72,-89.4276 1335.28,-67.8823 1320.12,-64.3863 1304.07,-58.7172 1290.04,-53.0598"/>
<polygon fill="red" stroke="red" stroke-width="0.212116" points="1291.27,-49.7804 1280.69,-49.1718 1288.58,-56.2437 1291.27,-49.7804"/>
</g>
<!-- distancia projetil 8&#45;&gt;pular -->
<g id="edge37" class="edge"><title>distancia projetil 8&#45;&gt;pular</title>
<path fill="none" stroke="red" stroke-width="0.343886" d="M1826.08,-184.3C1944.19,-182.876 2274,-175.761 2306.28,-140.652 2317.34,-128.621 2317.35,-115.9 2306.28,-103.882 2250.77,-43.6431 1651.53,-36.0392 1498.63,-35.0796"/>
<polygon fill="red" stroke="red" stroke-width="0.343886" points="1498.42,-31.5785 1488.4,-35.0214 1498.38,-38.5784 1498.42,-31.5785"/>
</g>
<!-- distancia projetil 8&#45;&gt;atirar -->
<g id="edge69" class="edge"><title>distancia projetil 8&#45;&gt;atirar</title>
<path fill="none" stroke="green" stroke-width="0.199097" d="M1826.03,-183.248C1925.13,-179.487 2168.09,-167.587 2192.28,-140.652 2203.2,-128.493 2203.56,-115.707 2192.28,-103.882 2133.7,-42.4707 1510.97,-90.8978 1429.28,-67.8823 1418.44,-64.8297 1407.41,-59.5259 1397.81,-54.0549"/>
<polygon fill="green" stroke="green" stroke-width="0.199097" points="1399.48,-50.9716 1389.1,-48.8262 1395.87,-56.9735 1399.48,-50.9716"/>
</g>
<!-- distancia projetil 8&#45;&gt;release -->
<g id="edge105" class="edge"><title>distancia projetil 8&#45;&gt;release</title>
<path fill="none" stroke="red" stroke-width="0.141128" d="M1742.55,-184.235C1501.26,-181.728 294.695,-167.846 268.279,-140.652 256.892,-128.93 257.391,-116.068 268.279,-103.882 306.502,-61.1044 711.324,-41.5583 840.147,-36.3904"/>
<polygon fill="red" stroke="red" stroke-width="0.141128" points="840.489,-39.8798 850.343,-35.9885 840.213,-32.8852 840.489,-39.8798"/>
</g>
<!-- distancia projetil 8&#45;&gt;60 -->
<g id="edge15" class="edge"><title>distancia projetil 8&#45;&gt;60</title>
<path fill="none" stroke="green" stroke-width="0.37886" d="M1742.59,-184.679C1527.18,-184.635 538.648,-182.139 235.279,-140.652 220.889,-138.684 205.168,-134.93 192.277,-131.413"/>
<polygon fill="green" stroke="green" stroke-width="0.37886" points="193.2,-128.037 182.625,-128.682 191.294,-134.772 193.2,-128.037"/>
</g>
<!-- distancia projetil 9 -->
<g id="node9" class="node"><title>distancia projetil 9</title>
<polygon fill="lightgray" stroke="black" points="1755.78,-131.267 1672.78,-131.267 1672.78,-113.267 1755.78,-113.267 1755.78,-131.267"/>
<text text-anchor="middle" x="1714.28" y="-120.067" font-family="Times New Roman,serif" font-size="9.00">distancia projetil 9</text>
</g>
<!-- distancia projetil 9&#45;&gt;esquerda -->
<g id="edge97" class="edge"><title>distancia projetil 9&#45;&gt;esquerda</title>
<path fill="none" stroke="red" stroke-width="0.282062" d="M1694.15,-113.103C1685.15,-109.757 1674.32,-106.147 1664.28,-103.882 1520.79,-71.5228 1478.18,-102.755 1335.28,-67.8823 1320.16,-64.1935 1304.12,-58.4798 1290.09,-52.8404"/>
<polygon fill="red" stroke="red" stroke-width="0.282062" points="1291.32,-49.5597 1280.74,-48.9738 1288.65,-56.0288 1291.32,-49.5597"/>
</g>
<!-- distancia projetil 9&#45;&gt;direita -->
<g id="edge66" class="edge"><title>distancia projetil 9&#45;&gt;direita</title>
<path fill="none" stroke="green" stroke-width="0.330599" d="M1694.66,-113.138C1685.57,-109.714 1674.53,-106.032 1664.28,-103.882 1464.87,-62.0851 1409.34,-93.9617 1207.28,-67.8823 1156.43,-61.3195 1098.24,-50.2209 1061.39,-42.7405"/>
<polygon fill="green" stroke="green" stroke-width="0.330599" points="1061.62,-39.2165 1051.13,-40.6389 1060.22,-46.0742 1061.62,-39.2165"/>
</g>
<!-- distancia projetil 9&#45;&gt;pular -->
<g id="edge54" class="edge"><title>distancia projetil 9&#45;&gt;pular</title>
<path fill="none" stroke="green" stroke-width="0.356264" d="M1691.14,-113.197C1682.69,-110.257 1673.05,-106.912 1664.28,-103.882 1605.09,-83.4435 1536.04,-59.8026 1496.21,-46.1896"/>
<polygon fill="green" stroke="green" stroke-width="0.356264" points="1497.1,-42.7933 1486.5,-42.8712 1494.83,-49.4171 1497.1,-42.7933"/>
</g>
<!-- distancia projetil 9&#45;&gt;atirar -->
<g id="edge23" class="edge"><title>distancia projetil 9&#45;&gt;atirar</title>
<path fill="none" stroke="red" stroke-width="0.227449" d="M1693.61,-113.13C1684.7,-109.87 1674.09,-106.318 1664.28,-103.882 1561.73,-78.4258 1529.34,-101.826 1429.28,-67.8823 1418.7,-64.295 1407.81,-58.9028 1398.25,-53.5142"/>
<polygon fill="red" stroke="red" stroke-width="0.227449" points="1399.95,-50.4526 1389.55,-48.4078 1396.41,-56.4891 1399.95,-50.4526"/>
</g>
<!-- distancia projetil 9&#45;&gt;release -->
<g id="edge73" class="edge"><title>distancia projetil 9&#45;&gt;release</title>
<path fill="none" stroke="red" stroke-width="0.51022" d="M1695.16,-113.199C1685.99,-109.698 1674.74,-105.936 1664.28,-103.882 1368.61,-45.8308 1284.01,-120.221 987.279,-67.8823 963.058,-63.61 936.636,-55.6127 915.989,-48.568"/>
<polygon fill="red" stroke="red" stroke-width="0.51022" points="916.947,-45.1954 906.352,-45.2067 914.642,-51.8049 916.947,-45.1954"/>
</g>
<!-- distancia projetil 10 -->
<g id="node10" class="node"><title>distancia projetil 10</title>
<polygon fill="lightgray" stroke="black" points="365.279,-131.267 277.279,-131.267 277.279,-113.267 365.279,-113.267 365.279,-131.267"/>
<text text-anchor="middle" x="321.279" y="-120.067" font-family="Times New Roman,serif" font-size="9.00">distancia projetil 10</text>
</g>
<!-- distancia projetil 10&#45;&gt;esquerda -->
<g id="edge40" class="edge"><title>distancia projetil 10&#45;&gt;esquerda</title>
<path fill="none" stroke="green" stroke-width="0.17302" d="M341.586,-113.2C351.318,-109.7 363.236,-105.937 374.279,-103.882 682.725,-46.4827 767.819,-105.648 1079.28,-67.8823 1123.21,-62.5559 1172.8,-52.5528 1207.22,-44.9614"/>
<polygon fill="green" stroke="green" stroke-width="0.17302" points="1208.4,-48.2853 1217.39,-42.6907 1206.87,-41.4534 1208.4,-48.2853"/>
</g>
<!-- distancia projetil 10&#45;&gt;direita -->
<g id="edge71" class="edge"><title>distancia projetil 10&#45;&gt;direita</title>
<path fill="none" stroke="green" stroke-width="0.273303" d="M341.599,-113.264C351.333,-109.778 363.249,-106.009 374.279,-103.882 619.605,-56.5691 690.885,-119.791 935.279,-67.8823 953.831,-63.942 973.693,-56.8851 989.937,-50.311"/>
<polygon fill="green" stroke="green" stroke-width="0.273303" points="991.653,-53.3877 999.539,-46.3122 988.962,-46.9256 991.653,-53.3877"/>
</g>
<!-- distancia projetil 10&#45;&gt;atirar -->
<g id="edge9" class="edge"><title>distancia projetil 10&#45;&gt;atirar</title>
<path fill="none" stroke="green" stroke-width="0.28113" d="M341.324,-113.228C351.099,-109.688 363.128,-105.885 374.279,-103.882 579.374,-67.0528 1110.87,-124.959 1311.28,-67.8823 1321.55,-64.9561 1331.95,-59.8613 1341.06,-54.5408"/>
<polygon fill="green" stroke="green" stroke-width="0.28113" points="1343.01,-57.4508 1349.67,-49.2171 1339.33,-51.4957 1343.01,-57.4508"/>
</g>
<!-- distancia projetil 10&#45;&gt;release -->
<g id="edge62" class="edge"><title>distancia projetil 10&#45;&gt;release</title>
<path fill="none" stroke="red" stroke-width="0.691498" d="M342.69,-113.263C352.244,-109.948 363.71,-106.316 374.279,-103.882 545.422,-64.4745 754.733,-44.7331 840.163,-37.8506"/>
<polygon fill="red" stroke="red" stroke-width="0.691498" points="840.502,-41.3348 850.194,-37.0561 839.949,-34.3567 840.502,-41.3348"/>
</g>
<!-- distancia projetil 11 -->
<g id="node11" class="node"><title>distancia projetil 11</title>
<polygon fill="lightgray" stroke="black" points="1413.28,-131.267 1325.28,-131.267 1325.28,-113.267 1413.28,-113.267 1413.28,-131.267"/>
<text text-anchor="middle" x="1369.28" y="-120.067" font-family="Times New Roman,serif" font-size="9.00">distancia projetil 11</text>
</g>
<!-- distancia projetil 11&#45;&gt;esquerda -->
<g id="edge84" class="edge"><title>distancia projetil 11&#45;&gt;esquerda</title>
<path fill="none" stroke="green" stroke-width="0.12823" d="M1357.87,-112.99C1341.42,-101.061 1310.34,-78.5139 1285.8,-60.7092"/>
<polygon fill="green" stroke="green" stroke-width="0.12823" points="1287.58,-57.6734 1277.43,-54.6344 1283.47,-63.3395 1287.58,-57.6734"/>
</g>
<!-- distancia projetil 11&#45;&gt;direita -->
<g id="edge52" class="edge"><title>distancia projetil 11&#45;&gt;direita</title>
<path fill="none" stroke="green" stroke-width="0.110147" stroke-dasharray="1,5" d="M1337.13,-113.223C1272.85,-97.139 1128.83,-61.1019 1060.97,-44.1228"/>
<polygon fill="green" stroke="green" stroke-width="0.110147" points="1061.7,-40.696 1051.15,-41.6639 1060,-47.4866 1061.7,-40.696"/>
</g>
<!-- distancia projetil 11&#45;&gt;pular -->
<g id="edge20" class="edge"><title>distancia projetil 11&#45;&gt;pular</title>
<path fill="none" stroke="green" stroke-width="0.348503" stroke-dasharray="1,5" d="M1378.29,-112.99C1391.92,-100.472 1418.28,-76.2621 1438.05,-58.1091"/>
<polygon fill="green" stroke="green" stroke-width="0.348503" points="1440.53,-60.5837 1445.53,-51.2418 1435.8,-55.428 1440.53,-60.5837"/>
</g>
<!-- distancia projetil 11&#45;&gt;atirar -->
<g id="edge96" class="edge"><title>distancia projetil 11&#45;&gt;atirar</title>
<path fill="none" stroke="green" stroke-width="0.258832" d="M1369.28,-112.99C1369.28,-102.881 1369.28,-85.1487 1369.28,-69.1379"/>
<polygon fill="green" stroke="green" stroke-width="0.258832" points="1372.78,-68.9626 1369.28,-58.9626 1365.78,-68.9626 1372.78,-68.9626"/>
</g>
<!-- distancia projetil 11&#45;&gt;release -->
<g id="edge63" class="edge"><title>distancia projetil 11&#45;&gt;release</title>
<path fill="none" stroke="green" stroke-width="0.262359" d="M1330.41,-113.259C1314.32,-110.096 1295.44,-106.58 1278.28,-103.882 1149.54,-83.6443 1114.75,-94.9933 987.279,-67.8823 963.222,-62.7655 936.804,-54.7516 916.117,-47.9094"/>
<polygon fill="green" stroke="green" stroke-width="0.262359" points="917.052,-44.5312 906.458,-44.6624 914.822,-51.1664 917.052,-44.5312"/>
</g>
<!-- distancia projetil 12 -->
<g id="node12" class="node"><title>distancia projetil 12</title>
<polygon fill="lightgray" stroke="black" points="1900.28,-131.267 1812.28,-131.267 1812.28,-113.267 1900.28,-113.267 1900.28,-131.267"/>
<text text-anchor="middle" x="1856.28" y="-120.067" font-family="Times New Roman,serif" font-size="9.00">distancia projetil 12</text>
</g>
<!-- distancia projetil 12&#45;&gt;esquerda -->
<g id="edge30" class="edge"><title>distancia projetil 12&#45;&gt;esquerda</title>
<path fill="none" stroke="red" stroke-width="0.233299" d="M1833.41,-113.182C1822.85,-109.767 1810.06,-106.08 1798.28,-103.882 1595.38,-66.0362 1536.54,-113.661 1335.28,-67.8823 1320.11,-64.4312 1304.05,-58.7726 1290.03,-53.1109"/>
<polygon fill="red" stroke="red" stroke-width="0.233299" points="1291.26,-49.8319 1280.68,-49.2179 1288.57,-56.2938 1291.26,-49.8319"/>
</g>
<!-- distancia projetil 12&#45;&gt;direita -->
<g id="edge61" class="edge"><title>distancia projetil 12&#45;&gt;direita</title>
<path fill="none" stroke="green" stroke-width="0.1014" d="M1819.7,-113.202C1803.15,-109.833 1783.31,-106.177 1765.28,-103.882 1518.75,-72.5049 1453.97,-97.9442 1207.28,-67.8823 1156.39,-61.6803 1098.2,-50.4948 1061.37,-42.8965"/>
<polygon fill="green" stroke="green" stroke-width="0.1014" points="1061.61,-39.3727 1051.11,-40.7594 1060.19,-46.2256 1061.61,-39.3727"/>
</g>
<!-- distancia projetil 12&#45;&gt;pular -->
<g id="edge94" class="edge"><title>distancia projetil 12&#45;&gt;pular</title>
<path fill="none" stroke="green" stroke-width="0.658713" d="M1831.29,-113.251C1821.11,-110.122 1809.19,-106.633 1798.28,-103.882 1689.43,-76.4249 1558.64,-51.9216 1497.69,-40.9848"/>
<polygon fill="green" stroke="green" stroke-width="0.658713" points="1498.29,-37.5367 1487.83,-39.225 1497.06,-44.4277 1498.29,-37.5367"/>
</g>
<!-- distancia projetil 12&#45;&gt;atirar -->
<g id="edge19" class="edge"><title>distancia projetil 12&#45;&gt;atirar</title>
<path fill="none" stroke="red" stroke-width="0.616572" d="M1833.12,-113.2C1822.6,-109.831 1809.93,-106.175 1798.28,-103.882 1636.6,-72.0774 1586.71,-116.526 1429.28,-67.8823 1418.61,-64.5858 1407.69,-59.271 1398.14,-53.8637"/>
<polygon fill="red" stroke="red" stroke-width="0.616572" points="1399.84,-50.8045 1389.46,-48.7139 1396.27,-56.8254 1399.84,-50.8045"/>
</g>
<!-- distancia projetil 12&#45;&gt;release -->
<g id="edge7" class="edge"><title>distancia projetil 12&#45;&gt;release</title>
<path fill="none" stroke="green" stroke-width="0.516079" d="M1820.59,-113.228C1803.88,-109.779 1783.65,-106.051 1765.28,-103.882 1421.52,-63.3023 1328.37,-126.834 987.279,-67.8823 963.043,-63.6934 936.621,-55.6978 915.978,-48.6331"/>
<polygon fill="green" stroke="green" stroke-width="0.516079" points="916.938,-45.2609 906.343,-45.2605 914.625,-51.8679 916.938,-45.2609"/>
</g>
<!-- distancia projetil 13 -->
<g id="node13" class="node"><title>distancia projetil 13</title>
<polygon fill="lightgray" stroke="black" points="2006.28,-131.267 1918.28,-131.267 1918.28,-113.267 2006.28,-113.267 2006.28,-131.267"/>
<text text-anchor="middle" x="1962.28" y="-120.067" font-family="Times New Roman,serif" font-size="9.00">distancia projetil 13</text>
</g>
<!-- distancia projetil 13&#45;&gt;esquerda -->
<g id="edge79" class="edge"><title>distancia projetil 13&#45;&gt;esquerda</title>
<path fill="none" stroke="green" stroke-width="0.192095" d="M1941.96,-113.257C1932.23,-109.77 1920.31,-106.001 1909.28,-103.882 1658.26,-55.6588 1584.94,-122.711 1335.28,-67.8823 1320.08,-64.5448 1304.02,-58.9125 1290,-53.2402"/>
<polygon fill="green" stroke="green" stroke-width="0.192095" points="1291.23,-49.9618 1280.66,-49.3346 1288.53,-56.4204 1291.23,-49.9618"/>
</g>
<!-- distancia projetil 13&#45;&gt;direita -->
<g id="edge47" class="edge"><title>distancia projetil 13&#45;&gt;direita</title>
<path fill="none" stroke="green" stroke-width="0.41007" stroke-dasharray="1,5" d="M1941.97,-113.201C1932.24,-109.701 1920.32,-105.939 1909.28,-103.882 1602.15,-46.6929 1517.64,-103.627 1207.28,-67.8823 1156.35,-62.0161 1098.17,-50.7498 1061.35,-43.0416"/>
<polygon fill="green" stroke="green" stroke-width="0.41007" points="1061.6,-39.518 1051.1,-40.8716 1060.16,-46.3664 1061.6,-39.518"/>
</g>
<!-- distancia projetil 13&#45;&gt;pular -->
<g id="edge36" class="edge"><title>distancia projetil 13&#45;&gt;pular</title>
<path fill="none" stroke="red" stroke-width="0.241653" d="M1940.59,-113.264C1931.08,-109.988 1919.73,-106.387 1909.28,-103.882 1758.59,-67.7779 1574.54,-46.3119 1498.61,-38.4149"/>
<polygon fill="red" stroke="red" stroke-width="0.241653" points="1498.52,-34.8868 1488.21,-37.3481 1497.8,-41.8503 1498.52,-34.8868"/>
</g>
<!-- distancia projetil 13&#45;&gt;atirar -->
<g id="edge5" class="edge"><title>distancia projetil 13&#45;&gt;atirar</title>
<path fill="none" stroke="green" stroke-width="0.104423" d="M1941.7,-113.228C1932.01,-109.778 1920.2,-106.05 1909.28,-103.882 1699.44,-62.2387 1634.37,-128.744 1429.28,-67.8823 1418.57,-64.7055 1407.64,-59.4225 1398.1,-54.0075"/>
<polygon fill="green" stroke="green" stroke-width="0.104423" points="1399.8,-50.9491 1389.42,-48.8399 1396.22,-56.9635 1399.8,-50.9491"/>
</g>
<!-- distancia projetil 13&#45;&gt;release -->
<g id="edge103" class="edge"><title>distancia projetil 13&#45;&gt;release</title>
<path fill="none" stroke="red" stroke-width="0.251386" d="M1942.23,-113.231C1932.46,-109.692 1920.43,-105.888 1909.28,-103.882 1505.67,-31.2747 1391.63,-136.266 987.279,-67.8823 963.028,-63.7809 936.606,-55.787 915.966,-48.7013"/>
<polygon fill="red" stroke="red" stroke-width="0.251386" points="916.928,-45.3296 906.333,-45.3169 914.608,-51.9338 916.928,-45.3296"/>
</g>
<!-- distancia projetil 14 -->
<g id="node14" class="node"><title>distancia projetil 14</title>
<polygon fill="lightgray" stroke="black" points="493.279,-194.652 405.279,-194.652 405.279,-176.652 493.279,-176.652 493.279,-194.652"/>
<text text-anchor="middle" x="449.279" y="-183.452" font-family="Times New Roman,serif" font-size="9.00">distancia projetil 14</text>
</g>
<!-- distancia projetil 14&#45;&gt;esquerda -->
<g id="edge18" class="edge"><title>distancia projetil 14&#45;&gt;esquerda</title>
<path fill="none" stroke="red" stroke-width="0.575793" d="M493.371,-183.973C661.062,-181.182 1251.07,-169.346 1278.28,-140.652 1296.04,-121.923 1287.04,-93.2729 1274.69,-70.5214"/>
<polygon fill="red" stroke="red" stroke-width="0.575793" points="1277.69,-68.7136 1269.65,-61.8098 1271.63,-72.2185 1277.69,-68.7136"/>
</g>
<!-- distancia projetil 14&#45;&gt;direita -->
<g id="edge49" class="edge"><title>distancia projetil 14&#45;&gt;direita</title>
<path fill="none" stroke="green" stroke-width="0.571938" d="M405.003,-185.186C327.514,-185.07 172.293,-179.816 138.279,-140.652 127.564,-128.313 126.987,-115.696 138.279,-103.882 199.531,-39.8016 848.397,-85.4773 935.279,-67.8823 953.867,-64.1179 973.733,-57.0787 989.97,-50.4708"/>
<polygon fill="green" stroke="green" stroke-width="0.571938" points="991.699,-53.5411 999.567,-46.4453 988.991,-47.0859 991.699,-53.5411"/>
</g>
<!-- distancia projetil 14&#45;&gt;pular -->
<g id="edge59" class="edge"><title>distancia projetil 14&#45;&gt;pular</title>
<path fill="none" stroke="red" stroke-width="0.372054" d="M493.432,-183.711C759.012,-178.025 2132.87,-148.252 2140.28,-140.652 2232.9,-45.5882 1649.68,-35.9328 1498.45,-35.0203"/>
<polygon fill="red" stroke="red" stroke-width="0.372054" points="1498.34,-31.5198 1488.32,-34.9687 1498.3,-38.5197 1498.34,-31.5198"/>
</g>
<!-- distancia projetil 14&#45;&gt;atirar -->
<g id="edge92" class="edge"><title>distancia projetil 14&#45;&gt;atirar</title>
<path fill="none" stroke="green" stroke-width="0.257473" d="M493.363,-183.699C757.001,-177.976 2113.96,-148.164 2121.28,-140.652 2229.17,-29.8861 1578.01,-110.173 1429.28,-67.8823 1418.45,-64.8035 1407.42,-59.4929 1397.82,-54.0237"/>
<polygon fill="green" stroke="green" stroke-width="0.257473" points="1399.49,-50.9404 1389.11,-48.7991 1395.89,-56.9437 1399.49,-50.9404"/>
</g>
<!-- distancia projetil 14&#45;&gt;release -->
<g id="edge104" class="edge"><title>distancia projetil 14&#45;&gt;release</title>
<path fill="none" stroke="green" stroke-width="0.230688" stroke-dasharray="1,5" d="M404.952,-183.532C298.369,-180.385 34.5809,-169.708 8.27917,-140.652 -2.68777,-128.536 -2.81112,-115.885 8.27917,-103.882 65.3802,-42.083 677.788,-35.6202 840.026,-34.9953"/>
<polygon fill="green" stroke="green" stroke-width="0.230688" points="840.062,-38.4953 850.051,-34.962 840.039,-31.4953 840.062,-38.4953"/>
</g>
<!-- 74 -->
<g id="node26" class="node"><title>74</title>
<ellipse fill="white" stroke="black" cx="35.2792" cy="-122.267" rx="18.2703" ry="18.2703"/>
<text text-anchor="middle" x="35.2792" y="-120.067" font-family="Times New Roman,serif" font-size="9.00">74</text>
</g>
<!-- distancia projetil 14&#45;&gt;74 -->
<g id="edge81" class="edge"><title>distancia projetil 14&#45;&gt;74</title>
<path fill="none" stroke="green" stroke-width="0.454821" d="M405.188,-184.971C332.886,-184.313 185.356,-177.977 67.2792,-140.652 64.6568,-139.823 62.0017,-138.774 59.4006,-137.603"/>
<polygon fill="green" stroke="green" stroke-width="0.454821" points="60.8718,-134.425 50.3722,-133.007 57.6963,-140.663 60.8718,-134.425"/>
</g>
<!-- distancia projetil 15 -->
<g id="node15" class="node"><title>distancia projetil 15</title>
<polygon fill="lightgray" stroke="black" points="2112.28,-131.267 2024.28,-131.267 2024.28,-113.267 2112.28,-113.267 2112.28,-131.267"/>
<text text-anchor="middle" x="2068.28" y="-120.067" font-family="Times New Roman,serif" font-size="9.00">distancia projetil 15</text>
</g>
<!-- distancia projetil 15&#45;&gt;esquerda -->
<g id="edge68" class="edge"><title>distancia projetil 15&#45;&gt;esquerda</title>
<path fill="none" stroke="green" stroke-width="0.143416" d="M2047.97,-113.209C2038.24,-109.711 2026.32,-105.948 2015.28,-103.882 1717.79,-48.2343 1631.19,-131.358 1335.28,-67.8823 1320.07,-64.6189 1304,-59.0038 1289.98,-53.3245"/>
<polygon fill="green" stroke="green" stroke-width="0.143416" points="1291.22,-50.0466 1280.64,-49.4106 1288.51,-56.5029 1291.22,-50.0466"/>
</g>
<!-- distancia projetil 15&#45;&gt;direita -->
<g id="edge35" class="edge"><title>distancia projetil 15&#45;&gt;direita</title>
<path fill="none" stroke="red" stroke-width="0.379635" d="M2048.23,-113.258C2038.45,-109.725 2026.42,-105.919 2015.28,-103.882 1661.67,-39.2651 1564.52,-107.813 1207.28,-67.8823 1156.33,-62.1871 1098.16,-50.8796 1061.34,-43.1156"/>
<polygon fill="red" stroke="red" stroke-width="0.379635" points="1061.6,-39.592 1051.09,-40.9287 1060.14,-46.438 1061.6,-39.592"/>
</g>
<!-- distancia projetil 15&#45;&gt;pular -->
<g id="edge3" class="edge"><title>distancia projetil 15&#45;&gt;pular</title>
<path fill="none" stroke="green" stroke-width="0.137371" d="M2046.88,-113.206C2037.33,-109.88 2025.86,-106.256 2015.28,-103.882 1822.82,-60.722 1586.12,-42.5487 1498.26,-36.9637"/>
<polygon fill="green" stroke="green" stroke-width="0.137371" points="1498.25,-33.4567 1488.05,-36.3296 1497.82,-40.4432 1498.25,-33.4567"/>
</g>
<!-- distancia projetil 15&#45;&gt;atirar -->
<g id="edge77" class="edge"><title>distancia projetil 15&#45;&gt;atirar</title>
<path fill="none" stroke="green" stroke-width="0.238619" d="M2047.96,-113.251C2038.23,-109.762 2026.31,-105.994 2015.28,-103.882 1759,-54.8185 1679.93,-140.425 1429.28,-67.8823 1418.47,-64.7528 1407.44,-59.429 1397.84,-53.9633"/>
<polygon fill="green" stroke="green" stroke-width="0.238619" points="1399.5,-50.8797 1389.12,-48.7465 1395.91,-56.8859 1399.5,-50.8797"/>
</g>
<!-- distancia projetil 15&#45;&gt;release -->
<g id="edge89" class="edge"><title>distancia projetil 15&#45;&gt;release</title>
<path fill="none" stroke="green" stroke-width="0.731871" d="M2048.24,-113.211C2038.46,-109.668 2026.43,-105.866 2015.28,-103.882 1565.17,-23.844 1438.2,-143.211 987.279,-67.8823 963.02,-63.8296 936.598,-55.8367 915.96,-48.7393"/>
<polygon fill="green" stroke="green" stroke-width="0.731871" points="916.923,-45.3678 906.328,-45.3483 914.598,-51.9706 916.923,-45.3678"/>
</g>
<!-- distancia projetil 16 -->
<g id="node16" class="node"><title>distancia projetil 16</title>
<polygon fill="lightgray" stroke="black" points="674.279,-131.267 586.279,-131.267 586.279,-113.267 674.279,-113.267 674.279,-131.267"/>
<text text-anchor="middle" x="630.279" y="-120.067" font-family="Times New Roman,serif" font-size="9.00">distancia projetil 16</text>
</g>
<!-- distancia projetil 16&#45;&gt;esquerda -->
<g id="edge11" class="edge"><title>distancia projetil 16&#45;&gt;esquerda</title>
<path fill="none" stroke="red" stroke-width="0.211608" d="M651.131,-113.217C660.776,-109.808 672.468,-106.117 683.279,-103.882 856.347,-68.113 904.294,-92.6277 1079.28,-67.8823 1123.09,-61.6864 1172.7,-51.808 1207.16,-44.4829"/>
<polygon fill="red" stroke="red" stroke-width="0.211608" points="1208.3,-47.818 1217.34,-42.2985 1206.83,-40.9737 1208.3,-47.818"/>
</g>
<!-- distancia projetil 16&#45;&gt;direita -->
<g id="edge44" class="edge"><title>distancia projetil 16&#45;&gt;direita</title>
<path fill="none" stroke="green" stroke-width="0.310314" stroke-dasharray="1,5" d="M651.953,-113.206C661.457,-109.92 672.812,-106.327 683.279,-103.882 793.452,-78.1527 825.609,-95.6747 935.279,-67.8823 953.531,-63.2569 973.223,-56.1966 989.433,-49.797"/>
<polygon fill="green" stroke="green" stroke-width="0.310314" points="991.067,-52.9121 999.031,-45.9254 988.448,-46.4202 991.067,-52.9121"/>
</g>
<!-- distancia projetil 16&#45;&gt;pular -->
<g id="edge76" class="edge"><title>distancia projetil 16&#45;&gt;pular</title>
<path fill="none" stroke="green" stroke-width="0.357859" d="M650.584,-113.188C660.316,-109.686 672.233,-105.925 683.279,-103.882 844.737,-74.0264 1267.43,-125.251 1421.28,-67.8823 1427.32,-65.63 1433.18,-62.1695 1438.51,-58.3236"/>
<polygon fill="green" stroke="green" stroke-width="0.357859" points="1440.73,-61.0307 1446.4,-52.0813 1436.38,-55.5409 1440.73,-61.0307"/>
</g>
<!-- distancia projetil 16&#45;&gt;atirar -->
<g id="edge2" class="edge"><title>distancia projetil 16&#45;&gt;atirar</title>
<path fill="none" stroke="red" stroke-width="0.350502" d="M650.592,-113.231C660.325,-109.737 672.242,-105.972 683.279,-103.882 957.969,-51.877 1043.14,-146.993 1311.28,-67.8823 1321.53,-64.8593 1331.92,-59.7375 1341.02,-54.4221"/>
<polygon fill="red" stroke="red" stroke-width="0.350502" points="1342.96,-57.3369 1349.64,-49.1126 1339.29,-51.3766 1342.96,-57.3369"/>
</g>
<!-- distancia projetil 16&#45;&gt;release -->
<g id="edge34" class="edge"><title>distancia projetil 16&#45;&gt;release</title>
<path fill="none" stroke="green" stroke-width="0.171444" d="M653.704,-113.146C697.151,-98.0832 790.515,-65.7149 842.475,-47.7008"/>
<polygon fill="green" stroke="green" stroke-width="0.171444" points="843.679,-50.9877 851.981,-44.4051 841.386,-44.3739 843.679,-50.9877"/>
</g>
<!-- distancia inimigo 1 -->
<g id="node17" class="node"><title>distancia inimigo 1</title>
<polygon fill="lightgray" stroke="black" points="775.779,-131.267 692.779,-131.267 692.779,-113.267 775.779,-113.267 775.779,-131.267"/>
<text text-anchor="middle" x="734.279" y="-120.067" font-family="Times New Roman,serif" font-size="9.00">distancia inimigo 1</text>
</g>
<!-- distancia inimigo 1&#45;&gt;esquerda -->
<g id="edge29" class="edge"><title>distancia inimigo 1&#45;&gt;esquerda</title>
<path fill="none" stroke="red" stroke-width="0.107042" d="M754.842,-113.174C764.028,-109.842 775.067,-106.222 785.279,-103.882 913.598,-74.4884 949.237,-88.345 1079.28,-67.8823 1122.99,-61.0041 1172.61,-51.2235 1207.1,-44.1074"/>
<polygon fill="red" stroke="red" stroke-width="0.107042" points="1208.22,-47.4508 1217.3,-41.9907 1206.79,-40.597 1208.22,-47.4508"/>
</g>
<!-- distancia inimigo 1&#45;&gt;direita -->
<g id="edge82" class="edge"><title>distancia inimigo 1&#45;&gt;direita</title>
<path fill="none" stroke="green" stroke-width="0.144667" d="M756.479,-113.198C765.374,-110.097 775.755,-106.642 785.279,-103.882 851.13,-84.8013 869.681,-87.8165 935.279,-67.8823 953.294,-62.4077 972.961,-55.2563 989.215,-49.0162"/>
<polygon fill="green" stroke="green" stroke-width="0.144667" points="990.797,-52.1568 998.849,-45.2718 988.261,-45.6323 990.797,-52.1568"/>
</g>
<!-- distancia inimigo 1&#45;&gt;pular -->
<g id="edge93" class="edge"><title>distancia inimigo 1&#45;&gt;pular</title>
<path fill="none" stroke="red" stroke-width="0.148405" d="M753.799,-113.219C763.159,-109.723 774.629,-105.959 785.279,-103.882 924.223,-76.7952 1288.84,-117.859 1421.28,-67.8823 1427.31,-65.6064 1433.16,-62.1352 1438.49,-58.2862"/>
<polygon fill="red" stroke="red" stroke-width="0.148405" points="1440.71,-60.9934 1446.38,-52.0444 1436.37,-55.5035 1440.71,-60.9934"/>
</g>
<!-- distancia inimigo 1&#45;&gt;atirar -->
<g id="edge60" class="edge"><title>distancia inimigo 1&#45;&gt;atirar</title>
<path fill="none" stroke="red" stroke-width="0.207" d="M754.296,-113.095C763.567,-109.662 774.824,-105.984 785.279,-103.882 1015.01,-57.6898 1086.9,-135.433 1311.28,-67.8823 1321.51,-64.8027 1331.9,-59.665 1341,-54.3525"/>
<polygon fill="red" stroke="red" stroke-width="0.207" points="1342.94,-57.2701 1349.62,-49.0514 1339.27,-51.3068 1342.94,-57.2701"/>
</g>
<!-- distancia inimigo 1&#45;&gt;release -->
<g id="edge6" class="edge"><title>distancia inimigo 1&#45;&gt;release</title>
<path fill="none" stroke="green" stroke-width="0.296478" d="M747.92,-113.146C770.186,-99.8899 814.964,-73.2311 846.01,-54.7481"/>
<polygon fill="green" stroke="green" stroke-width="0.296478" points="847.965,-57.6574 854.767,-49.5344 844.384,-51.6426 847.965,-57.6574"/>
</g>
<!-- distancia inimigo 2 -->
<g id="node18" class="node"><title>distancia inimigo 2</title>
<polygon fill="lightgray" stroke="black" points="567.779,-131.267 484.779,-131.267 484.779,-113.267 567.779,-113.267 567.779,-131.267"/>
<text text-anchor="middle" x="526.279" y="-120.067" font-family="Times New Roman,serif" font-size="9.00">distancia inimigo 2</text>
</g>
<!-- distancia inimigo 2&#45;&gt;esquerda -->
<g id="edge78" class="edge"><title>distancia inimigo 2&#45;&gt;esquerda</title>
<path fill="none" stroke="green" stroke-width="0.232114" d="M546.299,-113.11C555.571,-109.681 566.828,-106.001 577.279,-103.882 796.502,-59.4304 857.51,-97.0898 1079.28,-67.8823 1123.15,-62.1044 1172.75,-52.166 1207.19,-44.7129"/>
<polygon fill="green" stroke="green" stroke-width="0.232114" points="1208.35,-48.0427 1217.37,-42.487 1206.85,-41.2044 1208.35,-48.0427"/>
</g>
<!-- distancia inimigo 2&#45;&gt;direita -->
<g id="edge4" class="edge"><title>distancia inimigo 2&#45;&gt;direita</title>
<path fill="none" stroke="red" stroke-width="0.104686" d="M546.328,-113.248C555.606,-109.846 566.859,-106.151 577.279,-103.882 733.532,-69.863 779.481,-103.927 935.279,-67.8823 953.756,-63.6075 973.611,-56.5169 989.869,-50.007"/>
<polygon fill="red" stroke="red" stroke-width="0.104686" points="991.562,-53.0955 999.483,-46.0591 988.903,-46.6203 991.562,-53.0955"/>
</g>
<!-- distancia inimigo 2&#45;&gt;pular -->
<g id="edge12" class="edge"><title>distancia inimigo 2&#45;&gt;pular</title>
<path fill="none" stroke="red" stroke-width="0.315319" d="M545.786,-113.152C555.143,-109.642 566.614,-105.884 577.279,-103.882 761.782,-69.2443 1245.18,-132.934 1421.28,-67.8823 1427.33,-65.6485 1433.19,-62.1964 1438.52,-58.353"/>
<polygon fill="red" stroke="red" stroke-width="0.315319" points="1440.74,-61.0599 1446.41,-52.1103 1436.39,-55.5703 1440.74,-61.0599"/>
</g>
<!-- distancia inimigo 2&#45;&gt;release -->
<g id="edge100" class="edge"><title>distancia inimigo 2&#45;&gt;release</title>
<path fill="none" stroke="green" stroke-width="0.104056" d="M548.212,-113.231C557.161,-110.1 567.65,-106.614 577.279,-103.882 670.794,-77.3477 782.806,-53.9148 840.578,-42.4315"/>
<polygon fill="green" stroke="green" stroke-width="0.104056" points="841.585,-45.8002 850.717,-40.4283 840.228,-38.9329 841.585,-45.8002"/>
</g>
<!-- direcao sprites 1 -->
<g id="node19" class="node"><title>direcao sprites 1</title>
<polygon fill="lightgray" stroke="black" points="870.279,-131.267 794.279,-131.267 794.279,-113.267 870.279,-113.267 870.279,-131.267"/>
<text text-anchor="middle" x="832.279" y="-120.067" font-family="Times New Roman,serif" font-size="9.00">direcao sprites 1</text>
</g>
<!-- direcao sprites 1&#45;&gt;esquerda -->
<g id="edge17" class="edge"><title>direcao sprites 1&#45;&gt;esquerda</title>
<path fill="none" stroke="green" stroke-width="0.313283" d="M851.694,-113.21C860.07,-109.963 870.046,-106.4 879.279,-103.882 966.416,-80.1238 990.49,-84.4248 1079.28,-67.8823 1122.65,-59.8026 1172.13,-50.2324 1206.66,-43.4952"/>
<polygon fill="green" stroke="green" stroke-width="0.313283" points="1207.74,-46.852 1216.88,-41.5001 1206.39,-39.9818 1207.74,-46.852"/>
</g>
<!-- direcao sprites 1&#45;&gt;direita -->
<g id="edge90" class="edge"><title>direcao sprites 1&#45;&gt;direita</title>
<path fill="none" stroke="red" stroke-width="0.172425" d="M850.342,-113.146C882.232,-98.8075 948.999,-68.788 989.906,-50.3957"/>
<polygon fill="red" stroke="red" stroke-width="0.172425" points="991.529,-53.5034 999.215,-46.2105 988.659,-47.119 991.529,-53.5034"/>
</g>
<!-- direcao sprites 1&#45;&gt;pular -->
<g id="edge58" class="edge"><title>direcao sprites 1&#45;&gt;pular</title>
<path fill="none" stroke="red" stroke-width="0.34573" d="M850.219,-113.246C858.834,-109.756 869.409,-105.989 879.279,-103.882 997.33,-78.6834 1308.55,-111.05 1421.28,-67.8823 1427.04,-65.6743 1432.65,-62.3845 1437.8,-58.7254"/>
<polygon fill="red" stroke="red" stroke-width="0.34573" points="1440.24,-61.2608 1445.96,-52.3446 1435.93,-55.7458 1440.24,-61.2608"/>
</g>
<!-- direcao sprites 1&#45;&gt;atirar -->
<g id="edge28" class="edge"><title>direcao sprites 1&#45;&gt;atirar</title>
<path fill="none" stroke="green" stroke-width="0.290129" d="M850.683,-113.141C859.218,-109.717 869.597,-106.034 879.279,-103.882 1067.35,-62.0792 1127.21,-124.788 1311.28,-67.8823 1321.49,-64.727 1331.87,-59.5683 1340.97,-54.2596"/>
<polygon fill="green" stroke="green" stroke-width="0.290129" points="1342.9,-57.181 1349.6,-48.9697 1339.25,-51.2135 1342.9,-57.181"/>
</g>
<!-- direcao sprites 1&#45;&gt;release -->
<g id="edge101" class="edge"><title>direcao sprites 1&#45;&gt;release</title>
<path fill="none" stroke="green" stroke-width="0.33468" d="M836.786,-112.99C842.317,-102.83 852.042,-84.968 860.794,-68.8936"/>
<polygon fill="green" stroke="green" stroke-width="0.33468" points="864.087,-70.1639 865.795,-59.7076 857.939,-66.8166 864.087,-70.1639"/>
</g>
<!-- direcao sprites 2 -->
<g id="node20" class="node"><title>direcao sprites 2</title>
<polygon fill="lightgray" stroke="black" points="964.279,-131.267 888.279,-131.267 888.279,-113.267 964.279,-113.267 964.279,-131.267"/>
<text text-anchor="middle" x="926.279" y="-120.067" font-family="Times New Roman,serif" font-size="9.00">direcao sprites 2</text>
</g>
<!-- direcao sprites 2&#45;&gt;esquerda -->
<g id="edge67" class="edge"><title>direcao sprites 2&#45;&gt;esquerda</title>
<path fill="none" stroke="green" stroke-width="0.750951" d="M946.701,-113.155C954.894,-110.047 964.467,-106.6 973.279,-103.882 1054.92,-78.7085 1152.22,-56.1763 1207.06,-44.1434"/>
<polygon fill="green" stroke="green" stroke-width="0.750951" points="1208.1,-47.5 1217.12,-41.9498 1206.61,-40.6607 1208.1,-47.5"/>
</g>
<!-- direcao sprites 2&#45;&gt;direita -->
<g id="edge99" class="edge"><title>direcao sprites 2&#45;&gt;direita</title>
<path fill="none" stroke="green" stroke-width="0.116953" stroke-dasharray="1,5" d="M935.676,-112.99C949.463,-100.845 975.746,-77.6928 996.12,-59.7456"/>
<polygon fill="green" stroke="green" stroke-width="0.116953" points="998.688,-62.1478 1003.88,-52.9115 994.061,-56.8951 998.688,-62.1478"/>
</g>
<!-- direcao sprites 2&#45;&gt;pular -->
<g id="edge27" class="edge"><title>direcao sprites 2&#45;&gt;pular</title>
<path fill="none" stroke="red" stroke-width="0.327618" d="M944.68,-113.127C953.215,-109.701 963.594,-106.02 973.279,-103.882 1168.34,-60.8297 1235.24,-140.608 1421.28,-67.8823 1427.03,-65.6344 1432.63,-62.3254 1437.77,-58.6599"/>
<polygon fill="red" stroke="red" stroke-width="0.327618" points="1440.21,-61.1951 1445.94,-52.2788 1435.9,-55.6803 1440.21,-61.1951"/>
</g>
<!-- direcao sprites 2&#45;&gt;atirar -->
<g id="edge57" class="edge"><title>direcao sprites 2&#45;&gt;atirar</title>
<path fill="none" stroke="red" stroke-width="0.636819" d="M944.706,-113.243C953.246,-109.84 963.623,-106.145 973.279,-103.882 1120.37,-69.4125 1167.47,-114.157 1311.28,-67.8823 1321.37,-64.6366 1331.65,-59.5029 1340.71,-54.2454"/>
<polygon fill="red" stroke="red" stroke-width="0.636819" points="1342.58,-57.2037 1349.3,-49.0119 1338.93,-51.2257 1342.58,-57.2037"/>
</g>
<!-- direcao sprites 2&#45;&gt;release -->
<g id="edge45" class="edge"><title>direcao sprites 2&#45;&gt;release</title>
<path fill="none" stroke="green" stroke-width="0.401193" d="M921.773,-112.99C916.241,-102.83 906.516,-84.968 897.765,-68.8936"/>
<polygon fill="green" stroke="green" stroke-width="0.401193" points="900.619,-66.8166 892.763,-59.7076 894.471,-70.1639 900.619,-66.8166"/>
</g>
<!-- esquerda&#45;&gt;esquerda -->
<g id="edge91" class="edge"><title>esquerda&#45;&gt;esquerda</title>
<path fill="none" stroke="red" stroke-width="0.160241" d="M1280.17,-50.3404C1292.16,-51.2669 1302.22,-45.8005 1302.22,-33.9411 1302.22,-25.7878 1297.46,-20.6561 1290.6,-18.5462"/>
<polygon fill="red" stroke="red" stroke-width="0.160241" points="1290.46,-15.0169 1280.17,-17.5418 1289.79,-21.9846 1290.46,-15.0169"/>
</g>
<!-- direita&#45;&gt;direita -->
<g id="edge13" class="edge"><title>direita&#45;&gt;direita</title>
<path fill="none" stroke="red" stroke-width="0.926834" d="M1047.26,-49.861C1059.14,-52.3103 1069.86,-47.0036 1069.86,-33.9411 1069.86,-24.7566 1064.56,-19.4064 1057.29,-17.8906"/>
<polygon fill="red" stroke="red" stroke-width="0.926834" points="1057.21,-14.3911 1047.26,-18.0212 1057.31,-21.3905 1057.21,-14.3911"/>
</g>
<!-- pular&#45;&gt;pular -->
<g id="edge38" class="edge"><title>pular&#45;&gt;pular</title>
<path fill="none" stroke="green" stroke-width="0.140948" d="M1483.07,-49.4099C1494.9,-52.8474 1506.03,-47.6911 1506.03,-33.9411 1506.03,-24.2732 1500.52,-18.8538 1493.14,-17.6831"/>
<polygon fill="green" stroke="green" stroke-width="0.140948" points="1492.76,-14.2021 1483.07,-18.4724 1493.31,-21.1808 1492.76,-14.2021"/>
</g>
<!-- atirar&#45;&gt;atirar -->
<g id="edge83" class="edge"><title>atirar&#45;&gt;atirar</title>
<path fill="none" stroke="red" stroke-width="0.657613" d="M1389.07,-49.4099C1400.9,-52.8474 1412.03,-47.6911 1412.03,-33.9411 1412.03,-24.2732 1406.52,-18.8538 1399.14,-17.6831"/>
<polygon fill="red" stroke="red" stroke-width="0.657613" points="1398.76,-14.2021 1389.07,-18.4724 1399.31,-21.1808 1398.76,-14.2021"/>
</g>
<!-- release&#45;&gt;release -->
<g id="edge86" class="edge"><title>release&#45;&gt;release</title>
<path fill="none" stroke="red" stroke-width="0.611503" d="M903.457,-49.9537C915.515,-52.1693 926.271,-46.8318 926.271,-33.9411 926.271,-24.8774 920.953,-19.5478 913.605,-17.9524"/>
<polygon fill="red" stroke="red" stroke-width="0.611503" points="913.465,-14.4521 903.457,-17.9286 913.449,-21.4521 913.465,-14.4521"/>
</g>
<!-- 74&#45;&gt;release -->
<g id="edge50" class="edge"><title>74&#45;&gt;release</title>
<path fill="none" stroke="red" stroke-width="0.297732" d="M50.3408,-111.425C55.5116,-108.505 61.4651,-105.625 67.2792,-103.882 214.717,-59.6951 698.102,-40.8182 839.867,-36.1476"/>
<polygon fill="red" stroke="red" stroke-width="0.297732" points="840.358,-39.6336 850.239,-35.8113 840.131,-32.6373 840.358,-39.6336"/>
</g>
<!-- 60&#45;&gt;release -->
<g id="edge33" class="edge"><title>60&#45;&gt;release</title>
<path fill="none" stroke="green" stroke-width="0.247981" d="M180.357,-111.479C185.529,-108.563 191.479,-105.671 197.279,-103.882 318.95,-66.3512 713.723,-43.3944 840.029,-36.8698"/>
<polygon fill="green" stroke="green" stroke-width="0.247981" points="840.225,-40.3645 850.033,-36.3585 839.867,-33.3736 840.225,-40.3645"/>
</g>
</g>
</svg>
