<?xml version="1.0" encoding="UTF-8" standalone="no"?>
<!DOCTYPE svg PUBLIC "-//W3C//DTD SVG 1.1//EN"
 "http://www.w3.org/Graphics/SVG/1.1/DTD/svg11.dtd">
<!-- Generated by graphviz version 2.38.0 (20140413.2041)
 -->
<!-- Title: %3 Pages: 1 -->
<svg width="2037pt" height="130pt"
 viewBox="0.00 0.00 2037.00 129.88" xmlns="http://www.w3.org/2000/svg" xmlns:xlink="http://www.w3.org/1999/xlink">
<g id="graph0" class="graph" transform="scale(1 1) rotate(0) translate(4 125.882)">
<title>%3</title>
<polygon fill="white" stroke="none" points="-4,4 -4,-125.882 2033,-125.882 2033,4 -4,4"/>
<!-- dintancia projetil 1 -->
<g id="node1" class="node"><title>dintancia projetil 1</title>
<polygon fill="lightgray" stroke="black" points="588.5,-121.882 504.5,-121.882 504.5,-103.882 588.5,-103.882 588.5,-121.882"/>
<text text-anchor="middle" x="546.5" y="-110.682" font-family="Times New Roman,serif" font-size="9.00">dintancia projetil 1</text>
</g>
<!-- esquerda -->
<g id="node21" class="node"><title>esquerda</title>
<ellipse fill="lightblue" stroke="black" cx="855.5" cy="-33.9411" rx="33.8824" ry="33.8824"/>
<text text-anchor="middle" x="855.5" y="-31.7411" font-family="Times New Roman,serif" font-size="9.00">esquerda</text>
</g>
<!-- dintancia projetil 1&#45;&gt;esquerda -->
<g id="edge1" class="edge"><title>dintancia projetil 1&#45;&gt;esquerda</title>
<path fill="none" stroke="green" stroke-width="1.27169" d="M588.535,-105.196C662.207,-93.4419 807.379,-70.1006 812.5,-67.8823 815.704,-66.4944 818.882,-64.8163 821.976,-62.9613"/>
<polygon fill="green" stroke="green" stroke-width="1.27169" points="824.022,-65.8043 830.42,-57.3594 820.152,-59.9713 824.022,-65.8043"/>
</g>
<!-- direita -->
<g id="node22" class="node"><title>direita</title>
<ellipse fill="lightblue" stroke="black" cx="757.5" cy="-33.9411" rx="27.6545" ry="27.6545"/>
<text text-anchor="middle" x="757.5" y="-31.7411" font-family="Times New Roman,serif" font-size="9.00">direita</text>
</g>
<!-- dintancia projetil 1&#45;&gt;direita -->
<g id="edge27" class="edge"><title>dintancia projetil 1&#45;&gt;direita</title>
<path fill="none" stroke="green" stroke-width="0.331166" d="M568.682,-103.794C605.198,-90.4781 678.276,-63.8301 722.036,-47.8732"/>
<polygon fill="green" stroke="green" stroke-width="0.331166" points="723.501,-51.0645 731.697,-44.3504 721.103,-44.488 723.501,-51.0645"/>
</g>
<!-- pular -->
<g id="node23" class="node"><title>pular</title>
<ellipse fill="lightblue" stroke="black" cx="1171.5" cy="-33.9411" rx="25" ry="25"/>
<text text-anchor="middle" x="1171.5" y="-31.7411" font-family="Times New Roman,serif" font-size="9.00">pular</text>
</g>
<!-- dintancia projetil 1&#45;&gt;pular -->
<g id="edge33" class="edge"><title>dintancia projetil 1&#45;&gt;pular</title>
<path fill="none" stroke="red" stroke-width="0.196576" d="M588.769,-105.021C591.721,-104.613 594.653,-104.228 597.5,-103.882 781.724,-81.4894 829.893,-94.8686 1013.5,-67.8823 1056.59,-61.5491 1105.6,-50.7632 1137.46,-43.2662"/>
<polygon fill="red" stroke="red" stroke-width="0.196576" points="1138.65,-46.5799 1147.57,-40.8609 1137.03,-39.7698 1138.65,-46.5799"/>
</g>
<!-- atirar -->
<g id="node24" class="node"><title>atirar</title>
<ellipse fill="lightblue" stroke="black" cx="1256.5" cy="-33.9411" rx="25" ry="25"/>
<text text-anchor="middle" x="1256.5" y="-31.7411" font-family="Times New Roman,serif" font-size="9.00">atirar</text>
</g>
<!-- dintancia projetil 1&#45;&gt;atirar -->
<g id="edge60" class="edge"><title>dintancia projetil 1&#45;&gt;atirar</title>
<path fill="none" stroke="red" stroke-width="0.892817" d="M588.759,-104.932C591.713,-104.545 594.649,-104.19 597.5,-103.882 732.068,-89.3781 1076.87,-109.985 1205.5,-67.8823 1213.67,-65.208 1221.81,-60.894 1229.11,-56.2565"/>
<polygon fill="red" stroke="red" stroke-width="0.892817" points="1231.55,-58.8291 1237.85,-50.3086 1227.61,-53.0425 1231.55,-58.8291"/>
</g>
<!-- release -->
<g id="node25" class="node"><title>release</title>
<ellipse fill="lightblue" stroke="black" cx="957.5" cy="-33.9411" rx="28.9828" ry="28.9828"/>
<text text-anchor="middle" x="957.5" y="-31.7411" font-family="Times New Roman,serif" font-size="9.00">release</text>
</g>
<!-- dintancia projetil 1&#45;&gt;release -->
<g id="edge35" class="edge"><title>dintancia projetil 1&#45;&gt;release</title>
<path fill="none" stroke="red" stroke-width="0.249462" d="M588.504,-105.146C591.546,-104.704 594.569,-104.277 597.5,-103.882 738.899,-84.8226 784.787,-122.734 916.5,-67.8823 920.788,-66.0964 924.991,-63.7193 928.974,-61.0566"/>
<polygon fill="red" stroke="red" stroke-width="0.249462" points="931.341,-63.6588 937.287,-54.8899 927.17,-58.0367 931.341,-63.6588"/>
</g>
<!-- distancia projetil 2 -->
<g id="node2" class="node"><title>distancia projetil 2</title>
<polygon fill="lightgray" stroke="black" points="83,-121.882 0,-121.882 0,-103.882 83,-103.882 83,-121.882"/>
<text text-anchor="middle" x="41.5" y="-110.682" font-family="Times New Roman,serif" font-size="9.00">distancia projetil 2</text>
</g>
<!-- distancia projetil 2&#45;&gt;esquerda -->
<g id="edge8" class="edge"><title>distancia projetil 2&#45;&gt;esquerda</title>
<path fill="none" stroke="green" stroke-width="0.358869" d="M83.1969,-104.863C86.0024,-104.498 88.7896,-104.166 91.5,-103.882 251.051,-87.185 661.903,-123.162 812.5,-67.8823 815.971,-66.6083 819.389,-64.9488 822.69,-63.0522"/>
<polygon fill="green" stroke="green" stroke-width="0.358869" points="824.631,-65.9651 831.107,-57.5801 820.816,-60.0963 824.631,-65.9651"/>
</g>
<!-- distancia projetil 2&#45;&gt;direita -->
<g id="edge79" class="edge"><title>distancia projetil 2&#45;&gt;direita</title>
<path fill="none" stroke="red" stroke-width="0.260425" d="M83.2166,-105.03C86.0174,-104.625 88.7981,-104.238 91.5,-103.882 329.98,-72.4853 618.069,-46.8016 719.754,-38.1087"/>
<polygon fill="red" stroke="red" stroke-width="0.260425" points="720.172,-41.5858 729.839,-37.2501 719.578,-34.6111 720.172,-41.5858"/>
</g>
<!-- distancia projetil 2&#45;&gt;release -->
<g id="edge21" class="edge"><title>distancia projetil 2&#45;&gt;release</title>
<path fill="none" stroke="red" stroke-width="0.144099" d="M83.1948,-104.843C86.0009,-104.483 88.7887,-104.157 91.5,-103.882 274.07,-85.3554 744.77,-132.566 916.5,-67.8823 920.847,-66.2449 925.086,-63.9573 929.087,-61.3426"/>
<polygon fill="red" stroke="red" stroke-width="0.144099" points="931.432,-63.9631 937.419,-55.2217 927.287,-58.3219 931.432,-63.9631"/>
</g>
<!-- distancia projetil 3 -->
<g id="node3" class="node"><title>distancia projetil 3</title>
<polygon fill="lightgray" stroke="black" points="690,-121.882 607,-121.882 607,-103.882 690,-103.882 690,-121.882"/>
<text text-anchor="middle" x="648.5" y="-110.682" font-family="Times New Roman,serif" font-size="9.00">distancia projetil 3</text>
</g>
<!-- distancia projetil 3&#45;&gt;esquerda -->
<g id="edge37" class="edge"><title>distancia projetil 3&#45;&gt;esquerda</title>
<path fill="none" stroke="green" stroke-width="0.230998" stroke-dasharray="1,5" d="M690.197,-105.36C724.338,-98.941 773.233,-87.2349 812.5,-67.8823 815.632,-66.3388 818.759,-64.5503 821.818,-62.6202"/>
<polygon fill="green" stroke="green" stroke-width="0.230998" points="823.921,-65.4228 830.203,-56.8919 819.972,-59.6427 823.921,-65.4228"/>
</g>
<!-- distancia projetil 3&#45;&gt;direita -->
<g id="edge14" class="edge"><title>distancia projetil 3&#45;&gt;direita</title>
<path fill="none" stroke="green" stroke-width="0.10296" d="M660.165,-103.648C675.971,-92.4912 704.762,-72.1683 726.946,-56.509"/>
<polygon fill="green" stroke="green" stroke-width="0.10296" points="729.233,-59.1781 735.385,-50.5519 725.197,-53.4593 729.233,-59.1781"/>
</g>
<!-- distancia projetil 3&#45;&gt;pular -->
<g id="edge73" class="edge"><title>distancia projetil 3&#45;&gt;pular</title>
<path fill="none" stroke="green" stroke-width="0.249293" d="M690.221,-105.063C693.021,-104.65 695.8,-104.252 698.5,-103.882 838.106,-84.7461 874.381,-90.2858 1013.5,-67.8823 1056.5,-60.9579 1105.53,-50.2987 1137.41,-42.9924"/>
<polygon fill="green" stroke="green" stroke-width="0.249293" points="1138.58,-46.3149 1147.54,-40.6534 1137,-39.4946 1138.58,-46.3149"/>
</g>
<!-- distancia projetil 3&#45;&gt;atirar -->
<g id="edge44" class="edge"><title>distancia projetil 3&#45;&gt;atirar</title>
<path fill="none" stroke="green" stroke-width="0.19933" d="M690.204,-104.929C693.008,-104.548 695.793,-104.194 698.5,-103.882 810.707,-90.9473 1098.36,-103.647 1205.5,-67.8823 1213.65,-65.16 1221.79,-60.8286 1229.09,-56.1898"/>
<polygon fill="green" stroke="green" stroke-width="0.19933" points="1231.53,-58.7645 1237.83,-50.2474 1227.59,-52.9758 1231.53,-58.7645"/>
</g>
<!-- distancia projetil 3&#45;&gt;release -->
<g id="edge22" class="edge"><title>distancia projetil 3&#45;&gt;release</title>
<path fill="none" stroke="red" stroke-width="0.319172" stroke-dasharray="1,5" d="M690.182,-105.176C764.847,-93.1458 913.92,-69.0338 916.5,-67.8823 920.742,-65.989 924.917,-63.5473 928.885,-60.8498"/>
<polygon fill="red" stroke="red" stroke-width="0.319172" points="931.267,-63.4389 937.183,-54.6499 927.077,-57.8311 931.267,-63.4389"/>
</g>
<!-- distancia projetil 4 -->
<g id="node4" class="node"><title>distancia projetil 4</title>
<polygon fill="lightgray" stroke="black" points="1715,-121.882 1632,-121.882 1632,-103.882 1715,-103.882 1715,-121.882"/>
<text text-anchor="middle" x="1673.5" y="-110.682" font-family="Times New Roman,serif" font-size="9.00">distancia projetil 4</text>
</g>
<!-- distancia projetil 4&#45;&gt;direita -->
<g id="edge20" class="edge"><title>distancia projetil 4&#45;&gt;direita</title>
<path fill="none" stroke="red" stroke-width="0.312347" d="M1631.8,-104.954C1628.66,-104.551 1625.53,-104.186 1622.5,-103.882 1443.22,-85.8936 985.05,-119.754 812.5,-67.8823 803.996,-65.3258 795.451,-61.1635 787.716,-56.6444"/>
<polygon fill="red" stroke="red" stroke-width="0.312347" points="789.397,-53.5682 779.059,-51.2504 785.695,-59.5093 789.397,-53.5682"/>
</g>
<!-- distancia projetil 4&#45;&gt;pular -->
<g id="edge43" class="edge"><title>distancia projetil 4&#45;&gt;pular</title>
<path fill="none" stroke="red" stroke-width="0.310473" d="M1631.78,-105.109C1628.64,-104.67 1625.52,-104.255 1622.5,-103.882 1445.35,-82.0398 1391.27,-125.997 1222.5,-67.8823 1214.37,-65.0832 1206.25,-60.7239 1198.95,-56.0828"/>
<polygon fill="red" stroke="red" stroke-width="0.310473" points="1200.44,-52.869 1190.2,-50.1494 1196.51,-58.661 1200.44,-52.869"/>
</g>
<!-- distancia projetil 4&#45;&gt;atirar -->
<g id="edge72" class="edge"><title>distancia projetil 4&#45;&gt;atirar</title>
<path fill="none" stroke="green" stroke-width="0.53264" d="M1631.99,-104.224C1549.75,-89.0489 1367.47,-55.4161 1291.16,-41.3359"/>
<polygon fill="green" stroke="green" stroke-width="0.53264" points="1291.58,-37.8555 1281.11,-39.4828 1290.31,-44.7393 1291.58,-37.8555"/>
</g>
<!-- distancia projetil 4&#45;&gt;release -->
<g id="edge59" class="edge"><title>distancia projetil 4&#45;&gt;release</title>
<path fill="none" stroke="red" stroke-width="0.844588" d="M1631.79,-105.056C1628.65,-104.629 1625.53,-104.231 1622.5,-103.882 1407.78,-79.1137 1351.89,-95.3767 1137.5,-67.8823 1088.31,-61.5745 1032.19,-50.7121 995.873,-43.1945"/>
<polygon fill="red" stroke="red" stroke-width="0.844588" points="996.228,-39.6931 985.724,-41.0736 994.796,-46.5451 996.228,-39.6931"/>
</g>
<!-- distancia projetil 5 -->
<g id="node5" class="node"><title>distancia projetil 5</title>
<polygon fill="lightgray" stroke="black" points="1519,-121.882 1436,-121.882 1436,-103.882 1519,-103.882 1519,-121.882"/>
<text text-anchor="middle" x="1477.5" y="-110.682" font-family="Times New Roman,serif" font-size="9.00">distancia projetil 5</text>
</g>
<!-- distancia projetil 5&#45;&gt;direita -->
<g id="edge10" class="edge"><title>distancia projetil 5&#45;&gt;direita</title>
<path fill="none" stroke="green" stroke-width="0.179157" d="M1435.8,-104.89C1433,-104.519 1430.21,-104.178 1427.5,-103.882 1291.41,-89.0491 943.324,-108.215 812.5,-67.8823 804.014,-65.2661 795.476,-61.0813 787.742,-56.5595"/>
<polygon fill="green" stroke="green" stroke-width="0.179157" points="789.423,-53.4833 779.083,-51.1705 785.724,-59.4262 789.423,-53.4833"/>
</g>
<!-- distancia projetil 5&#45;&gt;pular -->
<g id="edge89" class="edge"><title>distancia projetil 5&#45;&gt;pular</title>
<path fill="none" stroke="red" stroke-width="0.172656" d="M1436,-105.166C1366.31,-93.8266 1232.37,-71.7367 1222.5,-67.8823 1214.63,-64.8098 1206.69,-60.432 1199.49,-55.8673"/>
<polygon fill="red" stroke="red" stroke-width="0.172656" points="1201.09,-52.7266 1190.83,-50.0698 1197.2,-58.5427 1201.09,-52.7266"/>
</g>
<!-- distancia projetil 5&#45;&gt;atirar -->
<g id="edge57" class="edge"><title>distancia projetil 5&#45;&gt;atirar</title>
<path fill="none" stroke="red" stroke-width="0.311963" d="M1454.27,-103.794C1414.81,-90.0555 1334.58,-62.1252 1289.38,-46.387"/>
<polygon fill="red" stroke="red" stroke-width="0.311963" points="1290.35,-43.0194 1279.75,-43.0368 1288.05,-49.6302 1290.35,-43.0194"/>
</g>
<!-- distancia projetil 5&#45;&gt;release -->
<g id="edge52" class="edge"><title>distancia projetil 5&#45;&gt;release</title>
<path fill="none" stroke="green" stroke-width="0.745465" d="M1435.77,-105.094C1432.98,-104.673 1430.2,-104.265 1427.5,-103.882 1298.91,-85.6197 1265.88,-87.5805 1137.5,-67.8823 1088.48,-60.3613 1032.32,-49.7652 995.951,-42.6401"/>
<polygon fill="green" stroke="green" stroke-width="0.745465" points="996.273,-39.1363 985.785,-40.6379 994.92,-46.0043 996.273,-39.1363"/>
</g>
<!-- distancia projetil 6 -->
<g id="node6" class="node"><title>distancia projetil 6</title>
<polygon fill="lightgray" stroke="black" points="2029,-121.882 1946,-121.882 1946,-103.882 2029,-103.882 2029,-121.882"/>
<text text-anchor="middle" x="1987.5" y="-110.682" font-family="Times New Roman,serif" font-size="9.00">distancia projetil 6</text>
</g>
<!-- distancia projetil 6&#45;&gt;esquerda -->
<g id="edge70" class="edge"><title>distancia projetil 6&#45;&gt;esquerda</title>
<path fill="none" stroke="green" stroke-width="0.855836" d="M1945.8,-104.924C1942.66,-104.527 1939.53,-104.173 1936.5,-103.882 1711.39,-82.321 1138.31,-125.005 919.5,-67.8823 910.443,-65.5178 901.207,-61.7167 892.671,-57.5222"/>
<polygon fill="green" stroke="green" stroke-width="0.855836" points="894.213,-54.3788 883.727,-52.8656 890.981,-60.5879 894.213,-54.3788"/>
</g>
<!-- distancia projetil 6&#45;&gt;pular -->
<g id="edge19" class="edge"><title>distancia projetil 6&#45;&gt;pular</title>
<path fill="none" stroke="green" stroke-width="0.307211" d="M1945.8,-104.975C1942.66,-104.567 1939.53,-104.196 1936.5,-103.882 1778.47,-87.5499 1373.7,-116.639 1222.5,-67.8823 1214.32,-65.2438 1206.17,-60.9428 1198.87,-56.3064"/>
<polygon fill="green" stroke="green" stroke-width="0.307211" points="1200.37,-53.0923 1190.13,-50.3543 1196.43,-58.8773 1200.37,-53.0923"/>
</g>
<!-- distancia projetil 6&#45;&gt;atirar -->
<g id="edge41" class="edge"><title>distancia projetil 6&#45;&gt;atirar</title>
<path fill="none" stroke="red" stroke-width="0.999943" d="M1945.78,-105.148C1942.64,-104.7 1939.52,-104.272 1936.5,-103.882 1690.1,-72.0905 1391.9,-46.187 1291.44,-37.8054"/>
<polygon fill="red" stroke="red" stroke-width="0.999943" points="1291.51,-34.2995 1281.26,-36.9595 1290.93,-41.2755 1291.51,-34.2995"/>
</g>
<!-- distancia projetil 7 -->
<g id="node7" class="node"><title>distancia projetil 7</title>
<polygon fill="lightgray" stroke="black" points="184,-121.882 101,-121.882 101,-103.882 184,-103.882 184,-121.882"/>
<text text-anchor="middle" x="142.5" y="-110.682" font-family="Times New Roman,serif" font-size="9.00">distancia projetil 7</text>
</g>
<!-- distancia projetil 7&#45;&gt;esquerda -->
<g id="edge26" class="edge"><title>distancia projetil 7&#45;&gt;esquerda</title>
<path fill="none" stroke="red" stroke-width="0.311082" d="M184.205,-105.001C187.346,-104.587 190.47,-104.207 193.5,-103.882 330.502,-89.1884 683.347,-115.892 812.5,-67.8823 815.965,-66.5941 819.38,-64.9248 822.679,-63.0217"/>
<polygon fill="red" stroke="red" stroke-width="0.311082" points="824.625,-65.9312 831.092,-57.5395 820.803,-60.0663 824.625,-65.9312"/>
</g>
<!-- distancia projetil 7&#45;&gt;direita -->
<g id="edge88" class="edge"><title>distancia projetil 7&#45;&gt;direita</title>
<path fill="none" stroke="green" stroke-width="0.381504" d="M184.231,-105.218C187.366,-104.754 190.482,-104.303 193.5,-103.882 391.559,-76.2513 629.614,-49.1495 720.12,-39.0658"/>
<polygon fill="green" stroke="green" stroke-width="0.381504" points="720.613,-42.5327 730.165,-37.9491 719.839,-35.5756 720.613,-42.5327"/>
</g>
<!-- distancia projetil 7&#45;&gt;release -->
<g id="edge39" class="edge"><title>distancia projetil 7&#45;&gt;release</title>
<path fill="none" stroke="green" stroke-width="0.713936" d="M184.202,-104.973C187.343,-104.565 190.469,-104.195 193.5,-103.882 353.519,-87.3947 766.134,-125.047 916.5,-67.8823 920.842,-66.2315 925.078,-63.9359 929.078,-61.3169"/>
<polygon fill="green" stroke="green" stroke-width="0.713936" points="931.424,-63.9357 937.407,-55.1919 927.277,-58.2963 931.424,-63.9357"/>
</g>
<!-- distancia projetil 8 -->
<g id="node8" class="node"><title>distancia projetil 8</title>
<polygon fill="lightgray" stroke="black" points="791,-121.882 708,-121.882 708,-103.882 791,-103.882 791,-121.882"/>
<text text-anchor="middle" x="749.5" y="-110.682" font-family="Times New Roman,serif" font-size="9.00">distancia projetil 8</text>
</g>
<!-- distancia projetil 8&#45;&gt;esquerda -->
<g id="edge65" class="edge"><title>distancia projetil 8&#45;&gt;esquerda</title>
<path fill="none" stroke="green" stroke-width="0.14582" d="M761.689,-103.604C774.463,-94.8744 795.058,-80.6445 812.5,-67.8823 815.156,-65.9386 817.89,-63.9108 820.63,-61.858"/>
<polygon fill="green" stroke="green" stroke-width="0.14582" points="822.932,-64.5056 828.8,-55.6843 818.712,-58.9208 822.932,-64.5056"/>
</g>
<!-- distancia projetil 8&#45;&gt;direita -->
<g id="edge6" class="edge"><title>distancia projetil 8&#45;&gt;direita</title>
<path fill="none" stroke="red" stroke-width="0.136458" d="M750.356,-103.648C751.169,-95.8342 752.449,-83.5243 753.702,-71.4693"/>
<polygon fill="red" stroke="red" stroke-width="0.136458" points="757.185,-71.8158 754.738,-61.5074 750.222,-71.0918 757.185,-71.8158"/>
</g>
<!-- distancia projetil 8&#45;&gt;pular -->
<g id="edge31" class="edge"><title>distancia projetil 8&#45;&gt;pular</title>
<path fill="none" stroke="red" stroke-width="0.370422" d="M791.205,-105.143C854.444,-94.8871 971.655,-75.7281 1013.5,-67.8823 1056.31,-59.8562 1105.38,-49.4331 1137.32,-42.4823"/>
<polygon fill="red" stroke="red" stroke-width="0.370422" points="1138.45,-45.82 1147.47,-40.2667 1136.95,-38.9812 1138.45,-45.82"/>
</g>
<!-- distancia projetil 8&#45;&gt;atirar -->
<g id="edge55" class="edge"><title>distancia projetil 8&#45;&gt;atirar</title>
<path fill="none" stroke="green" stroke-width="0.257512" d="M791.217,-105.106C794.355,-104.667 797.475,-104.253 800.5,-103.882 979.864,-81.8678 1034.6,-126.623 1205.5,-67.8823 1213.63,-65.0877 1221.76,-60.73 1229.06,-56.089"/>
<polygon fill="green" stroke="green" stroke-width="0.257512" points="1231.49,-58.6671 1237.8,-50.1551 1227.56,-52.8752 1231.49,-58.6671"/>
</g>
<!-- distancia projetil 8&#45;&gt;release -->
<g id="edge67" class="edge"><title>distancia projetil 8&#45;&gt;release</title>
<path fill="none" stroke="red" stroke-width="0.239026" d="M787.162,-103.88C829.12,-94.6303 894.014,-79.226 916.5,-67.8823 920.553,-65.8375 924.578,-63.3445 928.434,-60.6544"/>
<polygon fill="red" stroke="red" stroke-width="0.239026" points="930.662,-63.3581 936.547,-54.5483 926.453,-57.7651 930.662,-63.3581"/>
</g>
<!-- distancia projetil 9 -->
<g id="node9" class="node"><title>distancia projetil 9</title>
<polygon fill="lightgray" stroke="black" points="380,-121.882 297,-121.882 297,-103.882 380,-103.882 380,-121.882"/>
<text text-anchor="middle" x="338.5" y="-110.682" font-family="Times New Roman,serif" font-size="9.00">distancia projetil 9</text>
</g>
<!-- distancia projetil 9&#45;&gt;esquerda -->
<g id="edge81" class="edge"><title>distancia projetil 9&#45;&gt;esquerda</title>
<path fill="none" stroke="red" stroke-width="0.244789" d="M380.215,-105.093C383.354,-104.657 386.475,-104.248 389.5,-103.882 576.817,-81.2485 636.541,-135.989 812.5,-67.8823 815.756,-66.622 818.972,-65.0345 822.091,-63.2412"/>
<polygon fill="red" stroke="red" stroke-width="0.244789" points="824.088,-66.1179 830.577,-57.743 820.281,-60.2431 824.088,-66.1179"/>
</g>
<!-- distancia projetil 9&#45;&gt;direita -->
<g id="edge53" class="edge"><title>distancia projetil 9&#45;&gt;direita</title>
<path fill="none" stroke="red" stroke-width="0.350243" d="M380.207,-104.224C462.122,-89.1816 642.804,-56.0028 720.64,-41.7097"/>
<polygon fill="red" stroke="red" stroke-width="0.350243" points="721.281,-45.1506 730.484,-39.902 720.017,-38.2658 721.281,-45.1506"/>
</g>
<!-- distancia projetil 9&#45;&gt;pular -->
<g id="edge42" class="edge"><title>distancia projetil 9&#45;&gt;pular</title>
<path fill="none" stroke="green" stroke-width="0.684102" d="M380.205,-105C383.345,-104.586 386.47,-104.207 389.5,-103.882 665.717,-74.3222 738.107,-104.331 1013.5,-67.8823 1056.68,-62.1679 1105.67,-51.2495 1137.5,-43.5527"/>
<polygon fill="green" stroke="green" stroke-width="0.684102" points="1138.72,-46.8567 1147.6,-41.0781 1137.05,-40.0577 1138.72,-46.8567"/>
</g>
<!-- distancia projetil 9&#45;&gt;release -->
<g id="edge58" class="edge"><title>distancia projetil 9&#45;&gt;release</title>
<path fill="none" stroke="green" stroke-width="0.485504" d="M380.208,-105.036C383.348,-104.614 386.472,-104.223 389.5,-103.882 506.15,-90.7744 807.167,-110.606 916.5,-67.8823 920.827,-66.1915 925.053,-63.8718 929.048,-61.2399"/>
<polygon fill="green" stroke="green" stroke-width="0.485504" points="931.401,-63.8537 937.373,-55.1025 927.247,-58.2194 931.401,-63.8537"/>
</g>
<!-- distancia projetil 10 -->
<g id="node10" class="node"><title>distancia projetil 10</title>
<polygon fill="lightgray" stroke="black" points="897.5,-121.882 809.5,-121.882 809.5,-103.882 897.5,-103.882 897.5,-121.882"/>
<text text-anchor="middle" x="853.5" y="-110.682" font-family="Times New Roman,serif" font-size="9.00">distancia projetil 10</text>
</g>
<!-- distancia projetil 10&#45;&gt;esquerda -->
<g id="edge32" class="edge"><title>distancia projetil 10&#45;&gt;esquerda</title>
<path fill="none" stroke="red" stroke-width="0.204251" d="M853.714,-103.648C853.879,-97.3183 854.12,-88.038 854.372,-78.3329"/>
<polygon fill="red" stroke="red" stroke-width="0.204251" points="857.875,-78.2589 854.636,-68.1713 850.877,-78.0769 857.875,-78.2589"/>
</g>
<!-- distancia projetil 10&#45;&gt;direita -->
<g id="edge56" class="edge"><title>distancia projetil 10&#45;&gt;direita</title>
<path fill="none" stroke="red" stroke-width="0.190435" stroke-dasharray="1,5" d="M843.226,-103.648C829.852,-92.9291 805.922,-73.7496 786.737,-58.3737"/>
<polygon fill="red" stroke="red" stroke-width="0.190435" points="788.842,-55.5756 778.85,-52.0527 784.464,-61.0378 788.842,-55.5756"/>
</g>
<!-- distancia projetil 10&#45;&gt;pular -->
<g id="edge66" class="edge"><title>distancia projetil 10&#45;&gt;pular</title>
<path fill="none" stroke="red" stroke-width="0.330136" d="M886.632,-103.866C947.384,-89.1666 1076,-58.0475 1137.44,-43.1824"/>
<polygon fill="red" stroke="red" stroke-width="0.330136" points="1138.5,-46.5256 1147.4,-40.772 1136.86,-39.722 1138.5,-46.5256"/>
</g>
<!-- distancia projetil 10&#45;&gt;atirar -->
<g id="edge9" class="edge"><title>distancia projetil 10&#45;&gt;atirar</title>
<path fill="none" stroke="green" stroke-width="0.332038" d="M897.732,-105.104C900.698,-104.681 903.641,-104.27 906.5,-103.882 1039.13,-85.8916 1079.61,-113.358 1205.5,-67.8823 1213.45,-65.0117 1221.42,-60.7092 1228.62,-56.153"/>
<polygon fill="green" stroke="green" stroke-width="0.332038" points="1230.92,-58.8208 1237.26,-50.3348 1227.01,-53.0128 1230.92,-58.8208"/>
</g>
<!-- distancia projetil 10&#45;&gt;release -->
<g id="edge50" class="edge"><title>distancia projetil 10&#45;&gt;release</title>
<path fill="none" stroke="red" stroke-width="0.203452" d="M865.75,-103.685C878.572,-95.0219 899.207,-80.8453 916.5,-67.8823 920.132,-65.1593 923.901,-62.2515 927.614,-59.3334"/>
<polygon fill="red" stroke="red" stroke-width="0.203452" points="929.935,-61.9595 935.585,-52.9964 925.579,-56.4803 929.935,-61.9595"/>
</g>
<!-- distancia projetil 11 -->
<g id="node11" class="node"><title>distancia projetil 11</title>
<polygon fill="lightgray" stroke="black" points="1003.5,-121.882 915.5,-121.882 915.5,-103.882 1003.5,-103.882 1003.5,-121.882"/>
<text text-anchor="middle" x="959.5" y="-110.682" font-family="Times New Roman,serif" font-size="9.00">distancia projetil 11</text>
</g>
<!-- distancia projetil 11&#45;&gt;esquerda -->
<g id="edge69" class="edge"><title>distancia projetil 11&#45;&gt;esquerda</title>
<path fill="none" stroke="red" stroke-width="0.346895" stroke-dasharray="1,5" d="M948.37,-103.648C934.646,-93.4946 910.66,-75.7496 890.503,-60.837"/>
<polygon fill="red" stroke="red" stroke-width="0.346895" points="892.547,-57.9955 882.426,-54.8617 888.384,-63.6229 892.547,-57.9955"/>
</g>
<!-- distancia projetil 11&#45;&gt;direita -->
<g id="edge40" class="edge"><title>distancia projetil 11&#45;&gt;direita</title>
<path fill="none" stroke="green" stroke-width="0.541726" d="M923.872,-103.864C893.542,-96.4198 849.186,-84.0557 812.5,-67.8823 804.521,-64.3646 796.275,-59.9149 788.672,-55.4331"/>
<polygon fill="green" stroke="green" stroke-width="0.541726" points="790.458,-52.4231 780.097,-50.2109 786.817,-58.4017 790.458,-52.4231"/>
</g>
<!-- distancia projetil 11&#45;&gt;pular -->
<g id="edge18" class="edge"><title>distancia projetil 11&#45;&gt;pular</title>
<path fill="none" stroke="green" stroke-width="0.107443" d="M981.787,-103.794C1019.36,-90.1559 1095.48,-62.5329 1139.01,-46.7342"/>
<polygon fill="green" stroke="green" stroke-width="0.107443" points="1140.35,-49.9714 1148.55,-43.2697 1137.96,-43.3913 1140.35,-49.9714"/>
</g>
<!-- distancia projetil 11&#45;&gt;atirar -->
<g id="edge80" class="edge"><title>distancia projetil 11&#45;&gt;atirar</title>
<path fill="none" stroke="green" stroke-width="0.552786" d="M1003.6,-104.964C1069.26,-94.5151 1187.03,-75.1569 1205.5,-67.8823 1213.36,-64.7858 1221.3,-60.3989 1228.5,-55.8332"/>
<polygon fill="green" stroke="green" stroke-width="0.552786" points="1230.79,-58.5095 1237.15,-50.0382 1226.9,-52.6924 1230.79,-58.5095"/>
</g>
<!-- distancia projetil 11&#45;&gt;release -->
<g id="edge51" class="edge"><title>distancia projetil 11&#45;&gt;release</title>
<path fill="none" stroke="green" stroke-width="0.221041" d="M959.286,-103.648C959.095,-96.2873 958.8,-84.9367 958.504,-73.568"/>
<polygon fill="green" stroke="green" stroke-width="0.221041" points="961.994,-73.1417 958.235,-63.2361 954.997,-73.3237 961.994,-73.1417"/>
</g>
<!-- distancia projetil 12 -->
<g id="node12" class="node"><title>distancia projetil 12</title>
<polygon fill="lightgray" stroke="black" points="486.5,-121.882 398.5,-121.882 398.5,-103.882 486.5,-103.882 486.5,-121.882"/>
<text text-anchor="middle" x="442.5" y="-110.682" font-family="Times New Roman,serif" font-size="9.00">distancia projetil 12</text>
</g>
<!-- distancia projetil 12&#45;&gt;esquerda -->
<g id="edge25" class="edge"><title>distancia projetil 12&#45;&gt;esquerda</title>
<path fill="none" stroke="green" stroke-width="0.173867" stroke-dasharray="1,5" d="M486.729,-105.082C489.696,-104.664 492.64,-104.26 495.5,-103.882 636.071,-85.2975 681,-120.923 812.5,-67.8823 815.738,-66.5763 818.941,-64.9563 822.051,-63.1409"/>
<polygon fill="green" stroke="green" stroke-width="0.173867" points="824.066,-66.0055 830.523,-57.6055 820.237,-60.1455 824.066,-66.0055"/>
</g>
<!-- distancia projetil 12&#45;&gt;direita -->
<g id="edge49" class="edge"><title>distancia projetil 12&#45;&gt;direita</title>
<path fill="none" stroke="red" stroke-width="0.386228" d="M475.319,-103.866C534.578,-89.3915 659.02,-58.9957 720.921,-43.8759"/>
<polygon fill="red" stroke="red" stroke-width="0.386228" points="721.772,-47.271 730.655,-41.4981 720.111,-40.4709 721.772,-47.271"/>
</g>
<!-- distancia projetil 12&#45;&gt;atirar -->
<g id="edge17" class="edge"><title>distancia projetil 12&#45;&gt;atirar</title>
<path fill="none" stroke="green" stroke-width="0.20725" stroke-dasharray="1,5" d="M486.705,-104.875C489.677,-104.507 492.63,-104.171 495.5,-103.882 652.687,-88.0733 1055.15,-116.388 1205.5,-67.8823 1213.68,-65.2426 1221.83,-60.9412 1229.13,-56.3048"/>
<polygon fill="green" stroke="green" stroke-width="0.20725" points="1231.57,-58.8757 1237.86,-50.3528 1227.63,-53.0907 1231.57,-58.8757"/>
</g>
<!-- distancia projetil 12&#45;&gt;release -->
<g id="edge7" class="edge"><title>distancia projetil 12&#45;&gt;release</title>
<path fill="none" stroke="red" stroke-width="0.170218" stroke-dasharray="1,5" d="M486.718,-104.99C489.687,-104.594 492.635,-104.221 495.5,-103.882 588.749,-92.8693 829.339,-102.804 916.5,-67.8823 920.812,-66.1546 925.03,-63.8126 929.02,-61.1688"/>
<polygon fill="red" stroke="red" stroke-width="0.170218" points="931.378,-63.778 937.34,-55.02 927.218,-58.1484 931.378,-63.778"/>
</g>
<!-- distancia projetil 13 -->
<g id="node13" class="node"><title>distancia projetil 13</title>
<polygon fill="lightgray" stroke="black" points="1821.5,-121.882 1733.5,-121.882 1733.5,-103.882 1821.5,-103.882 1821.5,-121.882"/>
<text text-anchor="middle" x="1777.5" y="-110.682" font-family="Times New Roman,serif" font-size="9.00">distancia projetil 13</text>
</g>
<!-- distancia projetil 13&#45;&gt;esquerda -->
<g id="edge64" class="edge"><title>distancia projetil 13&#45;&gt;esquerda</title>
<path fill="none" stroke="green" stroke-width="0.284013" d="M1733.3,-104.855C1730.32,-104.492 1727.37,-104.162 1724.5,-103.882 1546.28,-86.4951 1092.55,-113.92 919.5,-67.8823 910.454,-65.4757 901.222,-61.6571 892.688,-57.459"/>
<polygon fill="green" stroke="green" stroke-width="0.284013" points="894.229,-54.3156 883.743,-52.8034 890.998,-60.5249 894.229,-54.3156"/>
</g>
<!-- distancia projetil 13&#45;&gt;pular -->
<g id="edge30" class="edge"><title>distancia projetil 13&#45;&gt;pular</title>
<path fill="none" stroke="green" stroke-width="0.292999" d="M1733.29,-104.944C1730.32,-104.56 1727.37,-104.201 1724.5,-103.882 1613.34,-91.5264 1328.57,-103.334 1222.5,-67.8823 1214.35,-65.1572 1206.21,-60.8247 1198.91,-56.1858"/>
<polygon fill="green" stroke="green" stroke-width="0.292999" points="1200.41,-52.9719 1190.17,-50.2437 1196.47,-58.7607 1200.41,-52.9719"/>
</g>
<!-- distancia projetil 13&#45;&gt;atirar -->
<g id="edge5" class="edge"><title>distancia projetil 13&#45;&gt;atirar</title>
<path fill="none" stroke="red" stroke-width="0.280375" d="M1733.26,-105.192C1730.29,-104.747 1727.35,-104.308 1724.5,-103.882 1562.36,-79.7027 1368.54,-51.3153 1291.02,-39.9828"/>
<polygon fill="red" stroke="red" stroke-width="0.280375" points="1291.27,-36.4823 1280.86,-38.4992 1290.25,-43.4087 1291.27,-36.4823"/>
</g>
<!-- distancia projetil 13&#45;&gt;release -->
<g id="edge85" class="edge"><title>distancia projetil 13&#45;&gt;release</title>
<path fill="none" stroke="red" stroke-width="0.367263" stroke-dasharray="1,5" d="M1733.29,-104.91C1730.32,-104.534 1727.37,-104.186 1724.5,-103.882 1464.58,-76.3495 1396.96,-99.4651 1137.5,-67.8823 1088.27,-61.8904 1032.16,-50.9587 995.855,-43.3388"/>
<polygon fill="red" stroke="red" stroke-width="0.367263" points="996.218,-39.8379 985.71,-41.187 994.766,-46.6856 996.218,-39.8379"/>
</g>
<!-- distancia projetil 14 -->
<g id="node14" class="node"><title>distancia projetil 14</title>
<polygon fill="lightgray" stroke="black" points="1109.5,-121.882 1021.5,-121.882 1021.5,-103.882 1109.5,-103.882 1109.5,-121.882"/>
<text text-anchor="middle" x="1065.5" y="-110.682" font-family="Times New Roman,serif" font-size="9.00">distancia projetil 14</text>
</g>
<!-- distancia projetil 14&#45;&gt;esquerda -->
<g id="edge16" class="edge"><title>distancia projetil 14&#45;&gt;esquerda</title>
<path fill="none" stroke="red" stroke-width="0.732849" d="M1032.73,-103.843C1002.75,-96.0598 957.422,-83.2062 919.5,-67.8823 911.082,-64.4805 902.287,-60.3563 894.007,-56.1937"/>
<polygon fill="red" stroke="red" stroke-width="0.732849" points="895.418,-52.9833 884.925,-51.5142 892.211,-59.2059 895.418,-52.9833"/>
</g>
<!-- distancia projetil 14&#45;&gt;direita -->
<g id="edge38" class="edge"><title>distancia projetil 14&#45;&gt;direita</title>
<path fill="none" stroke="green" stroke-width="0.263941" stroke-dasharray="1,5" d="M1021.28,-105.094C954.013,-94.6323 831.723,-75.0282 812.5,-67.8823 804.252,-64.816 795.852,-60.5017 788.182,-56.0028"/>
<polygon fill="green" stroke="green" stroke-width="0.263941" points="789.916,-52.9603 779.565,-50.7003 786.247,-58.922 789.916,-52.9603"/>
</g>
<!-- distancia projetil 14&#45;&gt;pular -->
<g id="edge47" class="edge"><title>distancia projetil 14&#45;&gt;pular</title>
<path fill="none" stroke="red" stroke-width="0.31086" d="M1076.84,-103.648C1092.59,-92.2174 1121.59,-71.1653 1143.36,-55.3648"/>
<polygon fill="red" stroke="red" stroke-width="0.31086" points="1145.56,-58.0917 1151.6,-49.3849 1141.45,-52.4267 1145.56,-58.0917"/>
</g>
<!-- distancia projetil 14&#45;&gt;atirar -->
<g id="edge77" class="edge"><title>distancia projetil 14&#45;&gt;atirar</title>
<path fill="none" stroke="red" stroke-width="0.109746" stroke-dasharray="1,5" d="M1099.84,-103.853C1128.79,-96.44 1170.91,-84.1256 1205.5,-67.8823 1213.15,-64.2912 1221.01,-59.7194 1228.19,-55.1332"/>
<polygon fill="red" stroke="red" stroke-width="0.109746" points="1230.47,-57.8268 1236.87,-49.3889 1226.6,-51.9895 1230.47,-57.8268"/>
</g>
<!-- distancia projetil 14&#45;&gt;release -->
<g id="edge86" class="edge"><title>distancia projetil 14&#45;&gt;release</title>
<path fill="none" stroke="green" stroke-width="0.399361" d="M1053.94,-103.648C1038.57,-92.6965 1010.8,-72.9132 988.994,-57.3783"/>
<polygon fill="green" stroke="green" stroke-width="0.399361" points="990.844,-54.3987 980.669,-51.4469 986.782,-60.0999 990.844,-54.3987"/>
</g>
<!-- distancia projetil 15 -->
<g id="node15" class="node"><title>distancia projetil 15</title>
<polygon fill="lightgray" stroke="black" points="1215.5,-121.882 1127.5,-121.882 1127.5,-103.882 1215.5,-103.882 1215.5,-121.882"/>
<text text-anchor="middle" x="1171.5" y="-110.682" font-family="Times New Roman,serif" font-size="9.00">distancia projetil 15</text>
</g>
<!-- distancia projetil 15&#45;&gt;esquerda -->
<g id="edge54" class="edge"><title>distancia projetil 15&#45;&gt;esquerda</title>
<path fill="none" stroke="green" stroke-width="0.254861" stroke-dasharray="1,5" d="M1127.23,-104.899C1060.25,-94.2183 938.84,-74.3793 919.5,-67.8823 910.714,-64.9305 901.646,-60.9239 893.198,-56.7216"/>
<polygon fill="green" stroke="green" stroke-width="0.254861" points="894.807,-53.6131 884.317,-52.1253 891.589,-59.8299 894.807,-53.6131"/>
</g>
<!-- distancia projetil 15&#45;&gt;direita -->
<g id="edge29" class="edge"><title>distancia projetil 15&#45;&gt;direita</title>
<path fill="none" stroke="red" stroke-width="0.195209" d="M1127.27,-105.095C1124.3,-104.674 1121.36,-104.266 1118.5,-103.882 982.78,-85.6606 942.121,-112.045 812.5,-67.8823 804.17,-65.0443 795.74,-60.8173 788.065,-56.33"/>
<polygon fill="red" stroke="red" stroke-width="0.195209" points="789.801,-53.2885 779.454,-51.0103 786.122,-59.2437 789.801,-53.2885"/>
</g>
<!-- distancia projetil 15&#45;&gt;pular -->
<g id="edge3" class="edge"><title>distancia projetil 15&#45;&gt;pular</title>
<path fill="none" stroke="red" stroke-width="0.234889" stroke-dasharray="1,5" d="M1171.5,-103.648C1171.5,-95.2667 1171.5,-81.7123 1171.5,-68.8483"/>
<polygon fill="red" stroke="red" stroke-width="0.234889" points="1175,-68.7917 1171.5,-58.7917 1168,-68.7917 1175,-68.7917"/>
</g>
<!-- distancia projetil 15&#45;&gt;atirar -->
<g id="edge62" class="edge"><title>distancia projetil 15&#45;&gt;atirar</title>
<path fill="none" stroke="red" stroke-width="0.168433" stroke-dasharray="1,5" d="M1180.6,-103.648C1192.56,-92.8231 1214.05,-73.3694 1231.12,-57.9187"/>
<polygon fill="red" stroke="red" stroke-width="0.168433" points="1233.53,-60.4525 1238.6,-51.1467 1228.83,-55.2628 1233.53,-60.4525"/>
</g>
<!-- distancia projetil 15&#45;&gt;release -->
<g id="edge74" class="edge"><title>distancia projetil 15&#45;&gt;release</title>
<path fill="none" stroke="green" stroke-width="0.293924" d="M1149,-103.794C1112.19,-90.5577 1038.73,-64.1481 994.268,-48.1605"/>
<polygon fill="green" stroke="green" stroke-width="0.293924" points="995.299,-44.8119 984.704,-44.7221 992.93,-51.3991 995.299,-44.8119"/>
</g>
<!-- distancia projetil 16 -->
<g id="node16" class="node"><title>distancia projetil 16</title>
<polygon fill="lightgray" stroke="black" points="1927.5,-121.882 1839.5,-121.882 1839.5,-103.882 1927.5,-103.882 1927.5,-121.882"/>
<text text-anchor="middle" x="1883.5" y="-110.682" font-family="Times New Roman,serif" font-size="9.00">distancia projetil 16</text>
</g>
<!-- distancia projetil 16&#45;&gt;esquerda -->
<g id="edge11" class="edge"><title>distancia projetil 16&#45;&gt;esquerda</title>
<path fill="none" stroke="green" stroke-width="0.220362" d="M1839.3,-104.838C1836.33,-104.479 1833.37,-104.155 1830.5,-103.882 1628.8,-84.7336 1115.43,-119.462 919.5,-67.8823 910.448,-65.4992 901.213,-61.6904 892.679,-57.4942"/>
<polygon fill="green" stroke="green" stroke-width="0.220362" points="894.22,-54.3509 883.734,-52.8381 890.988,-60.56 894.22,-54.3509"/>
</g>
<!-- distancia projetil 16&#45;&gt;pular -->
<g id="edge61" class="edge"><title>distancia projetil 16&#45;&gt;pular</title>
<path fill="none" stroke="red" stroke-width="0.164129" d="M1839.29,-104.903C1836.32,-104.528 1833.37,-104.183 1830.5,-103.882 1695.89,-89.7672 1351.13,-109.985 1222.5,-67.8823 1214.33,-65.208 1206.19,-60.894 1198.89,-56.2565"/>
<polygon fill="red" stroke="red" stroke-width="0.164129" points="1200.39,-53.0425 1190.15,-50.3086 1196.45,-58.8291 1200.39,-53.0425"/>
</g>
<!-- distancia projetil 16&#45;&gt;atirar -->
<g id="edge2" class="edge"><title>distancia projetil 16&#45;&gt;atirar</title>
<path fill="none" stroke="red" stroke-width="0.379511" d="M1839.27,-105.103C1836.3,-104.68 1833.36,-104.27 1830.5,-103.882 1626.45,-76.2345 1380.8,-48.6233 1291.28,-38.7469"/>
<polygon fill="red" stroke="red" stroke-width="0.379511" points="1291.47,-35.2471 1281.15,-37.6316 1290.71,-42.2051 1291.47,-35.2471"/>
</g>
<!-- distancia projetil 16&#45;&gt;release -->
<g id="edge28" class="edge"><title>distancia projetil 16&#45;&gt;release</title>
<path fill="none" stroke="red" stroke-width="0.348173" d="M1839.29,-104.879C1836.32,-104.51 1833.37,-104.173 1830.5,-103.882 1523.65,-72.8291 1443.83,-103.717 1137.5,-67.8823 1088.25,-62.1206 1032.14,-51.1384 995.843,-43.444"/>
<polygon fill="red" stroke="red" stroke-width="0.348173" points="996.211,-39.9435 985.7,-41.2697 994.744,-46.788 996.211,-39.9435"/>
</g>
<!-- distancia inimigo 1 -->
<g id="node17" class="node"><title>distancia inimigo 1</title>
<polygon fill="lightgray" stroke="black" points="1317,-121.882 1234,-121.882 1234,-103.882 1317,-103.882 1317,-121.882"/>
<text text-anchor="middle" x="1275.5" y="-110.682" font-family="Times New Roman,serif" font-size="9.00">distancia inimigo 1</text>
</g>
<!-- distancia inimigo 1&#45;&gt;esquerda -->
<g id="edge24" class="edge"><title>distancia inimigo 1&#45;&gt;esquerda</title>
<path fill="none" stroke="red" stroke-width="0.182342" d="M1233.77,-105.204C1230.64,-104.743 1227.52,-104.297 1224.5,-103.882 1089.27,-85.3026 1050.04,-107.752 919.5,-67.8823 910.635,-65.1749 901.535,-61.271 893.08,-57.0914"/>
<polygon fill="red" stroke="red" stroke-width="0.182342" points="894.689,-53.9832 884.199,-52.4913 891.469,-60.1988 894.689,-53.9832"/>
</g>
<!-- distancia inimigo 1&#45;&gt;direita -->
<g id="edge87" class="edge"><title>distancia inimigo 1&#45;&gt;direita</title>
<path fill="none" stroke="red" stroke-width="0.390582" stroke-dasharray="1,5" d="M1233.78,-105.1C1230.65,-104.663 1227.52,-104.251 1224.5,-103.882 1042.04,-81.627 987.356,-124.549 812.5,-67.8823 804.129,-65.1693 795.682,-60.9902 788.006,-56.5092"/>
<polygon fill="red" stroke="red" stroke-width="0.390582" points="789.743,-53.4682 779.398,-51.18 786.058,-59.4199 789.743,-53.4682"/>
</g>
<!-- distancia inimigo 1&#45;&gt;pular -->
<g id="edge78" class="edge"><title>distancia inimigo 1&#45;&gt;pular</title>
<path fill="none" stroke="red" stroke-width="0.235928" d="M1264.37,-103.648C1248.92,-92.2174 1220.46,-71.1653 1199.11,-55.3648"/>
<polygon fill="red" stroke="red" stroke-width="0.235928" points="1201.14,-52.5188 1191.02,-49.3849 1196.98,-58.1462 1201.14,-52.5188"/>
</g>
<!-- distancia inimigo 1&#45;&gt;atirar -->
<g id="edge48" class="edge"><title>distancia inimigo 1&#45;&gt;atirar</title>
<path fill="none" stroke="red" stroke-width="0.764558" d="M1273.47,-103.648C1271.35,-95.0601 1267.88,-81.0411 1264.64,-67.8986"/>
<polygon fill="red" stroke="red" stroke-width="0.764558" points="1268.02,-66.9931 1262.22,-58.1238 1261.22,-68.6713 1268.02,-66.9931"/>
</g>
<!-- distancia inimigo 2 -->
<g id="node18" class="node"><title>distancia inimigo 2</title>
<polygon fill="lightgray" stroke="black" points="1418,-121.882 1335,-121.882 1335,-103.882 1418,-103.882 1418,-121.882"/>
<text text-anchor="middle" x="1376.5" y="-110.682" font-family="Times New Roman,serif" font-size="9.00">distancia inimigo 2</text>
</g>
<!-- distancia inimigo 2&#45;&gt;esquerda -->
<g id="edge63" class="edge"><title>distancia inimigo 2&#45;&gt;esquerda</title>
<path fill="none" stroke="green" stroke-width="0.361966" d="M1334.79,-104.983C1331.99,-104.589 1329.2,-104.218 1326.5,-103.882 1146.29,-81.5232 1093.93,-118.378 919.5,-67.8823 910.597,-65.3049 901.48,-61.4557 893.021,-57.2881"/>
<polygon fill="green" stroke="green" stroke-width="0.361966" points="894.63,-54.1801 884.141,-52.686 891.409,-60.395 894.63,-54.1801"/>
</g>
<!-- distancia inimigo 2&#45;&gt;direita -->
<g id="edge4" class="edge"><title>distancia inimigo 2&#45;&gt;direita</title>
<path fill="none" stroke="red" stroke-width="0.424779" d="M1334.8,-104.926C1331.99,-104.546 1329.21,-104.193 1326.5,-103.882 1098.99,-77.7663 1030.95,-136.602 812.5,-67.8823 804.029,-65.2176 795.497,-61.0144 787.763,-56.4905"/>
<polygon fill="red" stroke="red" stroke-width="0.424779" points="789.444,-53.4141 779.104,-51.1055 785.747,-59.3585 789.444,-53.4141"/>
</g>
<!-- distancia inimigo 2&#45;&gt;pular -->
<g id="edge12" class="edge"><title>distancia inimigo 2&#45;&gt;pular</title>
<path fill="none" stroke="red" stroke-width="0.404992" d="M1336.44,-103.856C1304.67,-96.6888 1259.6,-84.7117 1222.5,-67.8823 1214.81,-64.3917 1206.93,-59.8575 1199.74,-55.2755"/>
<polygon fill="red" stroke="red" stroke-width="0.404992" points="1201.33,-52.1326 1191.07,-49.5209 1197.46,-57.9657 1201.33,-52.1326"/>
</g>
<!-- distancia inimigo 2&#45;&gt;atirar -->
<g id="edge36" class="edge"><title>distancia inimigo 2&#45;&gt;atirar</title>
<path fill="none" stroke="red" stroke-width="0.66015" d="M1363.66,-103.648C1345.24,-91.84 1310.81,-69.7648 1285.94,-53.8176"/>
<polygon fill="red" stroke="red" stroke-width="0.66015" points="1287.56,-50.7011 1277.26,-48.2499 1283.79,-56.5939 1287.56,-50.7011"/>
</g>
<!-- distancia inimigo 2&#45;&gt;release -->
<g id="edge83" class="edge"><title>distancia inimigo 2&#45;&gt;release</title>
<path fill="none" stroke="green" stroke-width="0.296175" d="M1334.79,-104.224C1253.37,-89.2725 1074.38,-56.4033 995.783,-41.971"/>
<polygon fill="green" stroke="green" stroke-width="0.296175" points="996.289,-38.5055 985.821,-40.1418 995.025,-45.3904 996.289,-38.5055"/>
</g>
<!-- direcao sprites 1 -->
<g id="node19" class="node"><title>direcao sprites 1</title>
<polygon fill="lightgray" stroke="black" points="278.5,-121.882 202.5,-121.882 202.5,-103.882 278.5,-103.882 278.5,-121.882"/>
<text text-anchor="middle" x="240.5" y="-110.682" font-family="Times New Roman,serif" font-size="9.00">direcao sprites 1</text>
</g>
<!-- direcao sprites 1&#45;&gt;esquerda -->
<g id="edge15" class="edge"><title>direcao sprites 1&#45;&gt;esquerda</title>
<path fill="none" stroke="green" stroke-width="0.312024" stroke-dasharray="1,5" d="M278.673,-105.056C281.655,-104.623 284.623,-104.225 287.5,-103.882 403.62,-90.0536 703.1,-109.196 812.5,-67.8823 815.766,-66.6488 818.989,-65.0804 822.113,-63.3"/>
<polygon fill="green" stroke="green" stroke-width="0.312024" points="824.099,-66.1838 830.608,-57.8236 820.307,-60.3004 824.099,-66.1838"/>
</g>
<!-- direcao sprites 1&#45;&gt;direita -->
<g id="edge75" class="edge"><title>direcao sprites 1&#45;&gt;direita</title>
<path fill="none" stroke="green" stroke-width="0.311455" d="M278.707,-105.303C281.681,-104.814 284.639,-104.336 287.5,-103.882 448.281,-78.4102 640.543,-51.2321 720.154,-40.1223"/>
<polygon fill="green" stroke="green" stroke-width="0.311455" points="720.761,-43.5715 730.183,-38.7246 719.795,-36.6385 720.761,-43.5715"/>
</g>
<!-- direcao sprites 1&#45;&gt;pular -->
<g id="edge46" class="edge"><title>direcao sprites 1&#45;&gt;pular</title>
<path fill="none" stroke="red" stroke-width="0.629416" d="M278.666,-104.995C281.649,-104.576 284.62,-104.198 287.5,-103.882 608.643,-68.7151 693.061,-108.976 1013.5,-67.8823 1056.7,-62.3425 1105.68,-51.3866 1137.51,-43.6335"/>
<polygon fill="red" stroke="red" stroke-width="0.629416" points="1138.74,-46.9347 1147.61,-41.1394 1137.06,-40.1388 1138.74,-46.9347"/>
</g>
<!-- direcao sprites 1&#45;&gt;release -->
<g id="edge84" class="edge"><title>direcao sprites 1&#45;&gt;release</title>
<path fill="none" stroke="green" stroke-width="0.326463" stroke-dasharray="1,5" d="M278.669,-105.02C281.651,-104.595 284.621,-104.209 287.5,-103.882 426.615,-88.1113 785.817,-118.119 916.5,-67.8823 920.836,-66.2154 925.068,-63.9101 929.066,-61.2859"/>
<polygon fill="green" stroke="green" stroke-width="0.326463" points="931.415,-63.9027 937.393,-55.1559 927.265,-58.2653 931.415,-63.9027"/>
</g>
<!-- direcao sprites 2 -->
<g id="node20" class="node"><title>direcao sprites 2</title>
<polygon fill="lightgray" stroke="black" points="1613.5,-121.882 1537.5,-121.882 1537.5,-103.882 1613.5,-103.882 1613.5,-121.882"/>
<text text-anchor="middle" x="1575.5" y="-110.682" font-family="Times New Roman,serif" font-size="9.00">direcao sprites 2</text>
</g>
<!-- direcao sprites 2&#45;&gt;direita -->
<g id="edge82" class="edge"><title>direcao sprites 2&#45;&gt;direita</title>
<path fill="none" stroke="green" stroke-width="0.330214" stroke-dasharray="1,5" d="M1537.33,-104.997C1534.35,-104.578 1531.38,-104.199 1528.5,-103.882 1370.14,-86.4856 964.933,-114.191 812.5,-67.8823 804.004,-65.3011 795.461,-61.1294 787.727,-56.6092"/>
<polygon fill="green" stroke="green" stroke-width="0.330214" points="789.408,-53.533 779.069,-51.2173 785.707,-59.4749 789.408,-53.533"/>
</g>
<!-- direcao sprites 2&#45;&gt;pular -->
<g id="edge23" class="edge"><title>direcao sprites 2&#45;&gt;pular</title>
<path fill="none" stroke="green" stroke-width="0.473935" d="M1537.31,-105.212C1534.33,-104.744 1531.37,-104.295 1528.5,-103.882 1392.96,-84.3867 1351.36,-114.233 1222.5,-67.8823 1214.55,-65.0225 1206.58,-60.7241 1199.38,-56.1683"/>
<polygon fill="green" stroke="green" stroke-width="0.473935" points="1200.98,-53.0281 1190.73,-50.3489 1197.07,-58.8356 1200.98,-53.0281"/>
</g>
<!-- direcao sprites 2&#45;&gt;atirar -->
<g id="edge45" class="edge"><title>direcao sprites 2&#45;&gt;atirar</title>
<path fill="none" stroke="green" stroke-width="0.111015" d="M1542.26,-103.866C1481.32,-89.1666 1352.3,-58.0475 1290.67,-43.1824"/>
<polygon fill="green" stroke="green" stroke-width="0.111015" points="1291.22,-39.7144 1280.68,-40.772 1289.58,-46.5193 1291.22,-39.7144"/>
</g>
<!-- direcao sprites 2&#45;&gt;release -->
<g id="edge34" class="edge"><title>direcao sprites 2&#45;&gt;release</title>
<path fill="none" stroke="red" stroke-width="0.49632" d="M1537.32,-105.131C1534.34,-104.681 1531.37,-104.258 1528.5,-103.882 1355.46,-81.224 1310.39,-91.6134 1137.5,-67.8823 1088.37,-61.1389 1032.23,-50.3722 995.9,-42.9954"/>
<polygon fill="red" stroke="red" stroke-width="0.49632" points="996.243,-39.4932 985.744,-40.9171 994.84,-46.3511 996.243,-39.4932"/>
</g>
<!-- esquerda&#45;&gt;esquerda -->
<g id="edge76" class="edge"><title>esquerda&#45;&gt;esquerda</title>
<path fill="none" stroke="red" stroke-width="0.664888" d="M886.17,-48.5224C897.812,-49.0847 907.441,-44.2243 907.441,-33.9411 907.441,-26.8714 902.89,-22.3648 896.262,-20.4214"/>
<polygon fill="red" stroke="red" stroke-width="0.664888" points="896.481,-16.9252 886.17,-19.3599 895.749,-23.8868 896.481,-16.9252"/>
</g>
<!-- direita&#45;&gt;direita -->
<g id="edge13" class="edge"><title>direita&#45;&gt;direita</title>
<path fill="none" stroke="red" stroke-width="0.191482" d="M781.417,-48.2091C792.922,-49.9705 803.077,-45.2146 803.077,-33.9411 803.077,-26.1906 798.277,-21.5207 791.539,-19.9312"/>
<polygon fill="red" stroke="red" stroke-width="0.191482" points="791.503,-16.4293 781.417,-19.6732 791.325,-23.427 791.503,-16.4293"/>
</g>
<!-- atirar&#45;&gt;atirar -->
<g id="edge68" class="edge"><title>atirar&#45;&gt;atirar</title>
<path fill="none" stroke="red" stroke-width="0.368482" d="M1277.17,-47.8663C1288.67,-50.4657 1299.25,-45.8239 1299.25,-33.9411 1299.25,-25.7717 1294.25,-21.0248 1287.39,-19.7005"/>
<polygon fill="red" stroke="red" stroke-width="0.368482" points="1287.06,-16.2087 1277.17,-20.016 1287.28,-23.2054 1287.06,-16.2087"/>
</g>
<!-- release&#45;&gt;release -->
<g id="edge71" class="edge"><title>release&#45;&gt;release</title>
<path fill="none" stroke="green" stroke-width="0.193149" stroke-dasharray="1,5" d="M983.118,-48.3376C994.579,-49.7087 1004.49,-44.9099 1004.49,-33.9411 1004.49,-26.4001 999.806,-21.7753 993.154,-20.0668"/>
<polygon fill="green" stroke="green" stroke-width="0.193149" points="993.286,-16.5691 983.118,-19.5446 992.923,-23.5596 993.286,-16.5691"/>
</g>
</g>
</svg>
