<?xml version="1.0" encoding="UTF-8" standalone="no"?>
<!DOCTYPE svg PUBLIC "-//W3C//DTD SVG 1.1//EN"
 "http://www.w3.org/Graphics/SVG/1.1/DTD/svg11.dtd">
<!-- Generated by graphviz version 2.38.0 (20140413.2041)
 -->
<!-- Title: %3 Pages: 1 -->
<svg width="2281pt" height="203pt"
 viewBox="0.00 0.00 2280.67 202.65" xmlns="http://www.w3.org/2000/svg" xmlns:xlink="http://www.w3.org/1999/xlink">
<g id="graph0" class="graph" transform="scale(1 1) rotate(0) translate(4 198.652)">
<title>%3</title>
<polygon fill="white" stroke="none" points="-4,4 -4,-198.652 2276.67,-198.652 2276.67,4 -4,4"/>
<!-- dintancia projetil 1 -->
<g id="node1" class="node"><title>dintancia projetil 1</title>
<polygon fill="lightgray" stroke="black" points="1372.39,-131.267 1288.39,-131.267 1288.39,-113.267 1372.39,-113.267 1372.39,-131.267"/>
<text text-anchor="middle" x="1330.39" y="-120.067" font-family="Times New Roman,serif" font-size="9.00">dintancia projetil 1</text>
</g>
<!-- esquerda -->
<g id="node21" class="node"><title>esquerda</title>
<ellipse fill="lightblue" stroke="black" cx="1212.39" cy="-33.9411" rx="33.8824" ry="33.8824"/>
<text text-anchor="middle" x="1212.39" y="-31.7411" font-family="Times New Roman,serif" font-size="9.00">esquerda</text>
</g>
<!-- dintancia projetil 1&#45;&gt;esquerda -->
<g id="edge1" class="edge"><title>dintancia projetil 1&#45;&gt;esquerda</title>
<path fill="none" stroke="green" stroke-width="0.424261" d="M1319.08,-112.99C1302.77,-101.061 1271.95,-78.5139 1247.61,-60.7092"/>
<polygon fill="green" stroke="green" stroke-width="0.424261" points="1249.45,-57.7141 1239.31,-54.6344 1245.32,-63.3637 1249.45,-57.7141"/>
</g>
<!-- direita -->
<g id="node22" class="node"><title>direita</title>
<ellipse fill="lightblue" stroke="black" cx="1104.39" cy="-33.9411" rx="27.6545" ry="27.6545"/>
<text text-anchor="middle" x="1104.39" y="-31.7411" font-family="Times New Roman,serif" font-size="9.00">direita</text>
</g>
<!-- dintancia projetil 1&#45;&gt;direita -->
<g id="edge31" class="edge"><title>dintancia projetil 1&#45;&gt;direita</title>
<path fill="none" stroke="green" stroke-width="0.134792" d="M1304.65,-113.247C1265.85,-101.07 1194.27,-78.2413 1169.39,-67.8823 1158.75,-63.4509 1147.45,-58.0013 1137.31,-52.8196"/>
<polygon fill="green" stroke="green" stroke-width="0.134792" points="1138.86,-49.681 1128.37,-48.1731 1135.63,-55.8917 1138.86,-49.681"/>
</g>
<!-- pular -->
<g id="node23" class="node"><title>pular</title>
<ellipse fill="lightblue" stroke="black" cx="780.392" cy="-33.9411" rx="25" ry="25"/>
<text text-anchor="middle" x="780.392" y="-31.7411" font-family="Times New Roman,serif" font-size="9.00">pular</text>
</g>
<!-- dintancia projetil 1&#45;&gt;pular -->
<g id="edge41" class="edge"><title>dintancia projetil 1&#45;&gt;pular</title>
<path fill="none" stroke="green" stroke-width="0.123652" d="M1293.73,-113.239C1277.72,-109.959 1258.69,-106.362 1241.39,-103.882 1068.64,-79.1226 1018.78,-113.728 850.392,-67.8823 836.792,-64.1793 822.578,-57.9765 810.54,-51.9457"/>
<polygon fill="green" stroke="green" stroke-width="0.123652" points="811.893,-48.7041 801.405,-47.1971 808.664,-54.915 811.893,-48.7041"/>
</g>
<!-- atirar -->
<g id="node24" class="node"><title>atirar</title>
<ellipse fill="lightblue" stroke="black" cx="884.392" cy="-33.9411" rx="25" ry="25"/>
<text text-anchor="middle" x="884.392" y="-31.7411" font-family="Times New Roman,serif" font-size="9.00">atirar</text>
</g>
<!-- dintancia projetil 1&#45;&gt;atirar -->
<g id="edge70" class="edge"><title>dintancia projetil 1&#45;&gt;atirar</title>
<path fill="none" stroke="red" stroke-width="0.791851" d="M1289.19,-113.199C1274.15,-110.259 1257,-106.914 1241.39,-103.882 1122.82,-80.853 982.052,-53.7339 918.512,-41.505"/>
<polygon fill="red" stroke="red" stroke-width="0.791851" points="919.117,-38.0572 908.636,-39.6044 917.794,-44.9311 919.117,-38.0572"/>
</g>
<!-- release -->
<g id="node25" class="node"><title>release</title>
<ellipse fill="lightblue" stroke="black" cx="1330.39" cy="-33.9411" rx="28.9828" ry="28.9828"/>
<text text-anchor="middle" x="1330.39" y="-31.7411" font-family="Times New Roman,serif" font-size="9.00">release</text>
</g>
<!-- dintancia projetil 1&#45;&gt;release -->
<g id="edge44" class="edge"><title>dintancia projetil 1&#45;&gt;release</title>
<path fill="none" stroke="green" stroke-width="0.558912" d="M1330.39,-112.99C1330.39,-103.732 1330.39,-88.0791 1330.39,-73.2108"/>
<polygon fill="green" stroke="green" stroke-width="0.558912" points="1333.89,-73.1309 1330.39,-63.1309 1326.89,-73.131 1333.89,-73.1309"/>
</g>
<!-- distancia projetil 2 -->
<g id="node2" class="node"><title>distancia projetil 2</title>
<polygon fill="lightgray" stroke="black" points="420.892,-131.267 337.892,-131.267 337.892,-113.267 420.892,-113.267 420.892,-131.267"/>
<text text-anchor="middle" x="379.392" y="-120.067" font-family="Times New Roman,serif" font-size="9.00">distancia projetil 2</text>
</g>
<!-- distancia projetil 2&#45;&gt;direita -->
<g id="edge89" class="edge"><title>distancia projetil 2&#45;&gt;direita</title>
<path fill="none" stroke="green" stroke-width="0.111169" d="M399.005,-113.102C408.092,-109.67 419.13,-105.992 429.392,-103.882 650.665,-58.3932 712.464,-97.6716 936.392,-67.8823 981.916,-61.8261 1033.69,-51.0801 1067.58,-43.5118"/>
<polygon fill="green" stroke="green" stroke-width="0.111169" points="1068.52,-46.8892 1077.5,-41.2738 1066.98,-40.0609 1068.52,-46.8892"/>
</g>
<!-- distancia projetil 2&#45;&gt;pular -->
<g id="edge40" class="edge"><title>distancia projetil 2&#45;&gt;pular</title>
<path fill="none" stroke="green" stroke-width="0.115929" stroke-dasharray="1,5" d="M400.597,-113.154C409.415,-109.974 419.811,-106.475 429.392,-103.882 543.577,-72.9825 682.165,-49.8975 745.624,-40.1051"/>
<polygon fill="green" stroke="green" stroke-width="0.115929" points="746.508,-43.5107 755.864,-38.5401 745.45,-36.5911 746.508,-43.5107"/>
</g>
<!-- distancia projetil 2&#45;&gt;atirar -->
<g id="edge19" class="edge"><title>distancia projetil 2&#45;&gt;atirar</title>
<path fill="none" stroke="red" stroke-width="0.362319" d="M399.023,-113.188C408.114,-109.774 419.149,-106.085 429.392,-103.882 605.196,-66.0696 662.09,-125.623 832.392,-67.8823 840.83,-65.0213 849.288,-60.5298 856.857,-55.7733"/>
<polygon fill="red" stroke="red" stroke-width="0.362319" points="858.907,-58.6132 865.28,-50.1497 855.02,-52.7915 858.907,-58.6132"/>
</g>
<!-- distancia projetil 2&#45;&gt;release -->
<g id="edge23" class="edge"><title>distancia projetil 2&#45;&gt;release</title>
<path fill="none" stroke="red" stroke-width="0.389566" d="M398.502,-113.149C407.672,-109.638 418.92,-105.881 429.392,-103.882 613.788,-68.6822 1093.15,-120.361 1273.39,-67.8823 1281.91,-65.402 1290.5,-61.3972 1298.34,-57.0204"/>
<polygon fill="red" stroke="red" stroke-width="0.389566" points="1300.35,-59.9016 1307.15,-51.7806 1296.77,-53.8858 1300.35,-59.9016"/>
</g>
<!-- distancia projetil 3 -->
<g id="node3" class="node"><title>distancia projetil 3</title>
<polygon fill="lightgray" stroke="black" points="1887.89,-194.652 1804.89,-194.652 1804.89,-176.652 1887.89,-176.652 1887.89,-194.652"/>
<text text-anchor="middle" x="1846.39" y="-183.452" font-family="Times New Roman,serif" font-size="9.00">distancia projetil 3</text>
</g>
<!-- distancia projetil 3&#45;&gt;esquerda -->
<g id="edge46" class="edge"><title>distancia projetil 3&#45;&gt;esquerda</title>
<path fill="none" stroke="green" stroke-width="0.159869" d="M1888.05,-185.489C1984.05,-186.171 2207.23,-179.904 2134.39,-103.882 2102,-70.0754 1338.12,-77.9476 1292.39,-67.8823 1278.72,-64.8717 1264.39,-59.6847 1251.7,-54.306"/>
<polygon fill="green" stroke="green" stroke-width="0.159869" points="1252.92,-51.0175 1242.36,-50.1882 1250.1,-57.4232 1252.92,-51.0175"/>
</g>
<!-- distancia projetil 3&#45;&gt;direita -->
<g id="edge13" class="edge"><title>distancia projetil 3&#45;&gt;direita</title>
<path fill="none" stroke="red" stroke-width="0.234002" d="M1804.69,-182.16C1728.82,-177.109 1571.51,-164.103 1522.39,-140.652 1500.89,-130.387 1505,-113.923 1483.39,-103.882 1356.01,-44.6791 1303.93,-108.266 1169.39,-67.8823 1158.26,-64.5407 1146.75,-59.3548 1136.56,-54.0788"/>
<polygon fill="red" stroke="red" stroke-width="0.234002" points="1138.09,-50.9266 1127.62,-49.2584 1134.76,-57.0871 1138.09,-50.9266"/>
</g>
<!-- distancia projetil 3&#45;&gt;pular -->
<g id="edge80" class="edge"><title>distancia projetil 3&#45;&gt;pular</title>
<path fill="none" stroke="red" stroke-width="0.109639" d="M1804.67,-183.48C1747.84,-181.892 1642.92,-178.986 1553.39,-176.652 1513.14,-175.602 132.506,-169.473 104.392,-140.652 11.8475,-45.7796 594.254,-35.982 745.273,-35.0298"/>
<polygon fill="red" stroke="red" stroke-width="0.109639" points="745.404,-38.5292 755.385,-34.9754 745.367,-31.5293 745.404,-38.5292"/>
</g>
<!-- distancia projetil 3&#45;&gt;atirar -->
<g id="edge53" class="edge"><title>distancia projetil 3&#45;&gt;atirar</title>
<path fill="none" stroke="red" stroke-width="0.386436" d="M1804.67,-183.484C1747.84,-181.9 1642.92,-178.999 1553.39,-176.652 1513.59,-175.608 148.192,-169.159 120.392,-140.652 9.3503,-26.7855 680.811,-116.037 832.392,-67.8823 840.884,-65.1845 849.36,-60.75 856.93,-55.996"/>
<polygon fill="red" stroke="red" stroke-width="0.386436" points="858.99,-58.8291 865.347,-50.3535 855.092,-53.0147 858.99,-58.8291"/>
</g>
<!-- distancia projetil 3&#45;&gt;release -->
<g id="edge24" class="edge"><title>distancia projetil 3&#45;&gt;release</title>
<path fill="none" stroke="red" stroke-width="0.184366" stroke-dasharray="1,5" d="M1888.04,-183.367C1988.84,-179.828 2239.49,-168.31 2264.39,-140.652 2275.33,-128.506 2275.51,-115.856 2264.39,-103.882 2202.67,-37.4416 1539.23,-34.4447 1369.67,-34.7722"/>
<polygon fill="red" stroke="red" stroke-width="0.184366" points="1369.44,-31.2726 1359.45,-34.7972 1369.46,-38.2726 1369.44,-31.2726"/>
</g>
<!-- 62 -->
<g id="node27" class="node"><title>62</title>
<ellipse fill="white" stroke="black" cx="2237.39" cy="-122.267" rx="18.2703" ry="18.2703"/>
<text text-anchor="middle" x="2237.39" y="-120.067" font-family="Times New Roman,serif" font-size="9.00">62</text>
</g>
<!-- distancia projetil 3&#45;&gt;62 -->
<g id="edge87" class="edge"><title>distancia projetil 3&#45;&gt;62</title>
<path fill="none" stroke="green" stroke-width="0.3" d="M1888.11,-184.554C1956.17,-183.295 2094.61,-176.116 2205.39,-140.652 2208.01,-139.813 2210.66,-138.758 2213.26,-137.583"/>
<polygon fill="green" stroke="green" stroke-width="0.3" points="2214.97,-140.642 2222.29,-132.983 2211.79,-134.405 2214.97,-140.642"/>
</g>
<!-- distancia projetil 4 -->
<g id="node4" class="node"><title>distancia projetil 4</title>
<polygon fill="lightgray" stroke="black" points="1473.89,-131.267 1390.89,-131.267 1390.89,-113.267 1473.89,-113.267 1473.89,-131.267"/>
<text text-anchor="middle" x="1432.39" y="-120.067" font-family="Times New Roman,serif" font-size="9.00">distancia projetil 4</text>
</g>
<!-- distancia projetil 4&#45;&gt;esquerda -->
<g id="edge92" class="edge"><title>distancia projetil 4&#45;&gt;esquerda</title>
<path fill="none" stroke="green" stroke-width="0.199232" d="M1410.5,-113.122C1382.89,-102.802 1333.98,-84.372 1292.39,-67.8823 1279.48,-62.7651 1265.47,-57.0485 1252.83,-51.8325"/>
<polygon fill="green" stroke="green" stroke-width="0.199232" points="1254.05,-48.5496 1243.47,-47.9596 1251.37,-55.0176 1254.05,-48.5496"/>
</g>
<!-- distancia projetil 4&#45;&gt;direita -->
<g id="edge22" class="edge"><title>distancia projetil 4&#45;&gt;direita</title>
<path fill="none" stroke="green" stroke-width="0.211248" d="M1411.28,-113.221C1402.18,-109.977 1391.37,-106.412 1381.39,-103.882 1288.75,-80.3889 1260.15,-97.8218 1169.39,-67.8823 1158.35,-64.241 1146.87,-58.9706 1136.67,-53.7093"/>
<polygon fill="green" stroke="green" stroke-width="0.211248" points="1138.2,-50.5547 1127.73,-48.9271 1134.9,-56.7281 1138.2,-50.5547"/>
</g>
<!-- distancia projetil 4&#45;&gt;pular -->
<g id="edge52" class="edge"><title>distancia projetil 4&#45;&gt;pular</title>
<path fill="none" stroke="green" stroke-width="0.858591" d="M1412.38,-113.092C1403.1,-109.658 1391.85,-105.981 1381.39,-103.882 1149.48,-57.3271 1079.36,-127.267 850.392,-67.8823 836.748,-64.3436 822.527,-58.1703 810.495,-52.1173"/>
<polygon fill="green" stroke="green" stroke-width="0.858591" points="811.85,-48.8764 801.367,-47.3412 808.605,-55.0787 811.85,-48.8764"/>
</g>
<!-- distancia projetil 4&#45;&gt;atirar -->
<g id="edge79" class="edge"><title>distancia projetil 4&#45;&gt;atirar</title>
<path fill="none" stroke="red" stroke-width="0.439919" d="M1411.84,-113.137C1402.65,-109.797 1391.61,-106.182 1381.39,-103.882 1244.35,-73.0442 1206.36,-88.3354 1067.39,-67.8823 1015.36,-60.2245 955.439,-48.9723 918.743,-41.802"/>
<polygon fill="red" stroke="red" stroke-width="0.439919" points="919.072,-38.2998 908.584,-39.8053 917.722,-45.1684 919.072,-38.2998"/>
</g>
<!-- distancia projetil 4&#45;&gt;release -->
<g id="edge69" class="edge"><title>distancia projetil 4&#45;&gt;release</title>
<path fill="none" stroke="red" stroke-width="0.563101" d="M1422.61,-112.99C1408.29,-100.866 1381,-77.7732 1359.81,-59.8392"/>
<polygon fill="red" stroke="red" stroke-width="0.563101" points="1361.92,-57.0406 1352.03,-53.2519 1357.4,-62.3838 1361.92,-57.0406"/>
</g>
<!-- distancia projetil 5 -->
<g id="node5" class="node"><title>distancia projetil 5</title>
<polygon fill="lightgray" stroke="black" points="521.892,-131.267 438.892,-131.267 438.892,-113.267 521.892,-113.267 521.892,-131.267"/>
<text text-anchor="middle" x="480.392" y="-120.067" font-family="Times New Roman,serif" font-size="9.00">distancia projetil 5</text>
</g>
<!-- distancia projetil 5&#45;&gt;esquerda -->
<g id="edge39" class="edge"><title>distancia projetil 5&#45;&gt;esquerda</title>
<path fill="none" stroke="red" stroke-width="0.640385" d="M499.912,-113.222C509.272,-109.727 520.742,-105.962 531.392,-103.882 805.776,-50.2889 892.867,-152.283 1159.39,-67.8823 1165.21,-66.0384 1171.04,-63.4092 1176.59,-60.4299"/>
<polygon fill="red" stroke="red" stroke-width="0.640385" points="1178.74,-63.226 1185.62,-55.1623 1175.22,-57.1803 1178.74,-63.226"/>
</g>
<!-- distancia projetil 5&#45;&gt;direita -->
<g id="edge8" class="edge"><title>distancia projetil 5&#45;&gt;direita</title>
<path fill="none" stroke="green" stroke-width="0.104509" d="M500.429,-113.193C509.704,-109.78 520.959,-106.091 531.392,-103.882 708.185,-66.4607 757.479,-93.3028 936.392,-67.8823 981.861,-61.4219 1033.64,-50.7596 1067.56,-43.3212"/>
<polygon fill="green" stroke="green" stroke-width="0.104509" points="1068.47,-46.7032 1077.48,-41.1245 1066.96,-39.8686 1068.47,-46.7032"/>
</g>
<!-- distancia projetil 5&#45;&gt;pular -->
<g id="edge101" class="edge"><title>distancia projetil 5&#45;&gt;pular</title>
<path fill="none" stroke="green" stroke-width="0.363012" d="M503.148,-113.192C511.936,-110.158 522.096,-106.751 531.392,-103.882 607.86,-80.2852 698.681,-56.0946 746.71,-43.5984"/>
<polygon fill="green" stroke="green" stroke-width="0.363012" points="747.767,-46.94 756.568,-41.0415 746.01,-40.1642 747.767,-46.94"/>
</g>
<!-- distancia projetil 5&#45;&gt;atirar -->
<g id="edge68" class="edge"><title>distancia projetil 5&#45;&gt;atirar</title>
<path fill="none" stroke="green" stroke-width="0.433613" d="M500.951,-113.16C510.138,-109.825 521.176,-106.207 531.392,-103.882 662.764,-73.983 705.457,-113.049 832.392,-67.8823 840.786,-64.8953 849.229,-60.3598 856.797,-55.6014"/>
<polygon fill="green" stroke="green" stroke-width="0.433613" points="858.839,-58.4465 865.225,-49.9924 854.961,-52.619 858.839,-58.4465"/>
</g>
<!-- distancia projetil 5&#45;&gt;release -->
<g id="edge60" class="edge"><title>distancia projetil 5&#45;&gt;release</title>
<path fill="none" stroke="green" stroke-width="0.299746" d="M499.904,-113.18C509.262,-109.676 520.733,-105.916 531.392,-103.882 693.551,-72.9477 1115.03,-114.495 1273.39,-67.8823 1281.9,-65.3771 1290.49,-61.3625 1298.33,-56.9841"/>
<polygon fill="green" stroke="green" stroke-width="0.299746" points="1300.33,-59.8658 1307.14,-51.7458 1296.76,-53.8495 1300.33,-59.8658"/>
</g>
<!-- distancia projetil 6 -->
<g id="node6" class="node"><title>distancia projetil 6</title>
<polygon fill="lightgray" stroke="black" points="717.892,-131.267 634.892,-131.267 634.892,-113.267 717.892,-113.267 717.892,-131.267"/>
<text text-anchor="middle" x="676.392" y="-120.067" font-family="Times New Roman,serif" font-size="9.00">distancia projetil 6</text>
</g>
<!-- distancia projetil 6&#45;&gt;esquerda -->
<g id="edge78" class="edge"><title>distancia projetil 6&#45;&gt;esquerda</title>
<path fill="none" stroke="green" stroke-width="0.275919" stroke-dasharray="1,5" d="M696.423,-113.166C705.698,-109.748 716.953,-106.062 727.392,-103.882 915.99,-64.5047 976.484,-128.419 1159.39,-67.8823 1165.19,-65.9632 1171,-63.2919 1176.55,-60.2927"/>
<polygon fill="green" stroke="green" stroke-width="0.275919" points="1178.71,-63.0841 1185.57,-55.0107 1175.17,-57.0435 1178.71,-63.0841"/>
</g>
<!-- distancia projetil 6&#45;&gt;direita -->
<g id="edge12" class="edge"><title>distancia projetil 6&#45;&gt;direita</title>
<path fill="none" stroke="red" stroke-width="0.371891" d="M697.506,-113.233C706.602,-109.991 717.421,-106.424 727.392,-103.882 818.729,-80.6038 843.694,-84.9516 936.392,-67.8823 981.558,-59.5655 1033.4,-49.2877 1067.41,-42.446"/>
<polygon fill="red" stroke="red" stroke-width="0.371891" points="1068.26,-45.8464 1077.37,-40.439 1066.87,-38.9845 1068.26,-45.8464"/>
</g>
<!-- distancia projetil 6&#45;&gt;pular -->
<g id="edge18" class="edge"><title>distancia projetil 6&#45;&gt;pular</title>
<path fill="none" stroke="green" stroke-width="0.410221" d="M686.364,-112.99C701.759,-100.211 731.834,-75.247 753.839,-56.9812"/>
<polygon fill="green" stroke="green" stroke-width="0.410221" points="756.08,-59.6698 761.539,-50.5897 751.609,-54.2836 756.08,-59.6698"/>
</g>
<!-- distancia projetil 6&#45;&gt;atirar -->
<g id="edge50" class="edge"><title>distancia projetil 6&#45;&gt;atirar</title>
<path fill="none" stroke="green" stroke-width="0.271019" d="M700.138,-113.18C743.414,-98.4372 830.839,-68.6269 832.392,-67.8823 840.116,-64.1779 848.101,-59.5638 855.426,-54.9729"/>
<polygon fill="green" stroke="green" stroke-width="0.271019" points="857.79,-57.6122 864.283,-49.2402 853.986,-51.7358 857.79,-57.6122"/>
</g>
<!-- distancia projetil 6&#45;&gt;release -->
<g id="edge61" class="edge"><title>distancia projetil 6&#45;&gt;release</title>
<path fill="none" stroke="red" stroke-width="0.488137" stroke-dasharray="1,5" d="M695.92,-113.263C705.282,-109.777 716.751,-106.008 727.392,-103.882 965.873,-56.239 1040.7,-138.572 1273.39,-67.8823 1281.88,-65.3034 1290.46,-61.2597 1298.3,-56.8766"/>
<polygon fill="red" stroke="red" stroke-width="0.488137" points="1300.3,-59.7598 1307.11,-51.6429 1296.72,-53.7419 1300.3,-59.7598"/>
</g>
<!-- distancia projetil 7 -->
<g id="node7" class="node"><title>distancia projetil 7</title>
<polygon fill="lightgray" stroke="black" points="1543.89,-194.652 1460.89,-194.652 1460.89,-176.652 1543.89,-176.652 1543.89,-194.652"/>
<text text-anchor="middle" x="1502.39" y="-183.452" font-family="Times New Roman,serif" font-size="9.00">distancia projetil 7</text>
</g>
<!-- distancia projetil 7&#45;&gt;esquerda -->
<g id="edge30" class="edge"><title>distancia projetil 7&#45;&gt;esquerda</title>
<path fill="none" stroke="green" stroke-width="0.271193" stroke-dasharray="1,5" d="M1544.14,-182.783C1667.95,-177.041 2025.54,-158.936 2042.39,-140.652 2053.47,-128.636 2053.67,-115.712 2042.39,-103.882 1984.83,-43.4912 1373.82,-86.0308 1292.39,-67.8823 1278.72,-64.8359 1264.4,-59.6392 1251.71,-54.2626"/>
<polygon fill="green" stroke="green" stroke-width="0.271193" points="1252.93,-50.9739 1242.36,-50.1485 1250.11,-57.3807 1252.93,-50.9739"/>
</g>
<!-- distancia projetil 7&#45;&gt;direita -->
<g id="edge100" class="edge"><title>distancia projetil 7&#45;&gt;direita</title>
<path fill="none" stroke="red" stroke-width="0.957816" d="M1460.61,-183.417C1413.97,-180.498 1337.44,-171.01 1279.39,-140.652 1258.57,-129.76 1260.57,-117.466 1241.39,-103.882 1212.2,-83.2025 1201.35,-83.9688 1169.39,-67.8823 1159.1,-62.6996 1147.9,-57.0335 1137.74,-51.8846"/>
<polygon fill="red" stroke="red" stroke-width="0.957816" points="1139.26,-48.7326 1128.76,-47.33 1136.1,-54.9754 1139.26,-48.7326"/>
</g>
<!-- distancia projetil 7&#45;&gt;pular -->
<g id="edge66" class="edge"><title>distancia projetil 7&#45;&gt;pular</title>
<path fill="none" stroke="red" stroke-width="0.318077" d="M1460.57,-184.213C1221.47,-181.609 37.338,-167.375 11.3919,-140.652 -94.3603,-31.7327 581.667,-32.6518 745.311,-34.4382"/>
<polygon fill="red" stroke="red" stroke-width="0.318077" points="745.295,-37.9382 755.336,-34.556 745.377,-30.9387 745.295,-37.9382"/>
</g>
<!-- distancia projetil 7&#45;&gt;atirar -->
<g id="edge37" class="edge"><title>distancia projetil 7&#45;&gt;atirar</title>
<path fill="none" stroke="red" stroke-width="0.53345" d="M1460.83,-184.149C1229.69,-181.254 111.93,-165.964 87.3919,-140.652 -28.3883,-21.2153 673.8,-118.069 832.392,-67.8823 840.887,-65.194 849.364,-60.7628 856.934,-56.009"/>
<polygon fill="red" stroke="red" stroke-width="0.53345" points="858.994,-58.8416 865.351,-50.3654 855.096,-53.0277 858.994,-58.8416"/>
</g>
<!-- distancia projetil 7&#45;&gt;release -->
<g id="edge48" class="edge"><title>distancia projetil 7&#45;&gt;release</title>
<path fill="none" stroke="red" stroke-width="0.335602" d="M1544.28,-183.291C1682.16,-178.61 2114.23,-162.267 2134.39,-140.652 2145.54,-128.702 2145.44,-115.921 2134.39,-103.882 2082.24,-47.0627 1524.88,-36.9829 1370.07,-35.2751"/>
<polygon fill="red" stroke="red" stroke-width="0.335602" points="1369.67,-31.7708 1359.64,-35.1661 1369.6,-38.7704 1369.67,-31.7708"/>
</g>
<!-- 53 -->
<g id="node26" class="node"><title>53</title>
<ellipse fill="white" stroke="black" cx="2107.39" cy="-122.267" rx="18.2703" ry="18.2703"/>
<text text-anchor="middle" x="2107.39" y="-120.067" font-family="Times New Roman,serif" font-size="9.00">53</text>
</g>
<!-- distancia projetil 7&#45;&gt;53 -->
<g id="edge93" class="edge"><title>distancia projetil 7&#45;&gt;53</title>
<path fill="none" stroke="green" stroke-width="0.21772" d="M1543.95,-183.712C1658.28,-180.77 1975.64,-170.11 2075.39,-140.652 2078.03,-139.873 2080.69,-138.857 2083.3,-137.706"/>
<polygon fill="green" stroke="green" stroke-width="0.21772" points="2084.99,-140.773 2092.34,-133.137 2081.84,-134.526 2084.99,-140.773"/>
</g>
<!-- distancia projetil 8 -->
<g id="node8" class="node"><title>distancia projetil 8</title>
<polygon fill="lightgray" stroke="black" points="1613.89,-131.267 1530.89,-131.267 1530.89,-113.267 1613.89,-113.267 1613.89,-131.267"/>
<text text-anchor="middle" x="1572.39" y="-120.067" font-family="Times New Roman,serif" font-size="9.00">distancia projetil 8</text>
</g>
<!-- distancia projetil 8&#45;&gt;esquerda -->
<g id="edge75" class="edge"><title>distancia projetil 8&#45;&gt;esquerda</title>
<path fill="none" stroke="red" stroke-width="0.110444" d="M1549.16,-113.246C1539.17,-110.006 1527.29,-106.437 1516.39,-103.882 1418.22,-80.8769 1389.44,-95.2611 1292.39,-67.8823 1279.03,-64.1123 1264.89,-58.7699 1252.27,-53.4823"/>
<polygon fill="red" stroke="red" stroke-width="0.110444" points="1253.52,-50.2125 1242.96,-49.4764 1250.76,-56.6429 1253.52,-50.2125"/>
</g>
<!-- distancia projetil 8&#45;&gt;direita -->
<g id="edge29" class="edge"><title>distancia projetil 8&#45;&gt;direita</title>
<path fill="none" stroke="red" stroke-width="0.602357" d="M1550.04,-113.216C1539.89,-109.85 1527.66,-106.192 1516.39,-103.882 1364.5,-72.7454 1318.13,-111.657 1169.39,-67.8823 1158.24,-64.6007 1146.72,-59.4317 1136.54,-54.1528"/>
<polygon fill="red" stroke="red" stroke-width="0.602357" points="1138.07,-51.001 1127.6,-49.3248 1134.74,-57.159 1138.07,-51.001"/>
</g>
<!-- distancia projetil 8&#45;&gt;pular -->
<g id="edge35" class="edge"><title>distancia projetil 8&#45;&gt;pular</title>
<path fill="none" stroke="red" stroke-width="0.4648" stroke-dasharray="1,5" d="M1537.06,-113.217C1520.8,-109.809 1501.2,-106.117 1483.39,-103.882 1203.8,-68.7901 1123.54,-137.141 850.392,-67.8823 836.729,-64.4179 822.504,-58.258 810.475,-52.1949"/>
<polygon fill="red" stroke="red" stroke-width="0.4648" points="811.832,-48.9543 801.35,-47.4065 808.579,-55.1526 811.832,-48.9543"/>
</g>
<!-- distancia projetil 8&#45;&gt;atirar -->
<g id="edge65" class="edge"><title>distancia projetil 8&#45;&gt;atirar</title>
<path fill="none" stroke="green" stroke-width="0.10105" d="M1535.73,-113.194C1519.73,-109.906 1500.7,-106.314 1483.39,-103.882 1299.62,-78.0567 1251.35,-92.3466 1067.39,-67.8823 1015.26,-60.9492 955.365,-49.4993 918.702,-42.0894"/>
<polygon fill="green" stroke="green" stroke-width="0.10105" points="919.052,-38.5887 908.554,-40.0214 917.654,-45.4478 919.052,-38.5887"/>
</g>
<!-- distancia projetil 8&#45;&gt;release -->
<g id="edge76" class="edge"><title>distancia projetil 8&#45;&gt;release</title>
<path fill="none" stroke="red" stroke-width="0.195431" d="M1549.63,-113.146C1507.71,-98.1932 1417.98,-66.1868 1367.27,-48.0977"/>
<polygon fill="red" stroke="red" stroke-width="0.195431" points="1368.27,-44.738 1357.68,-44.6747 1365.92,-51.3311 1368.27,-44.738"/>
</g>
<!-- distancia projetil 9 -->
<g id="node9" class="node"><title>distancia projetil 9</title>
<polygon fill="lightgray" stroke="black" points="212.892,-131.267 129.892,-131.267 129.892,-113.267 212.892,-113.267 212.892,-131.267"/>
<text text-anchor="middle" x="171.392" y="-120.067" font-family="Times New Roman,serif" font-size="9.00">distancia projetil 9</text>
</g>
<!-- distancia projetil 9&#45;&gt;esquerda -->
<g id="edge91" class="edge"><title>distancia projetil 9&#45;&gt;esquerda</title>
<path fill="none" stroke="green" stroke-width="0.487394" d="M190.895,-113.132C200.251,-109.617 211.723,-105.862 222.392,-103.882 427.271,-65.867 960.154,-128.914 1159.39,-67.8823 1165.23,-66.0934 1171.07,-63.4949 1176.62,-60.5302"/>
<polygon fill="green" stroke="green" stroke-width="0.487394" points="1178.77,-63.3297 1185.65,-55.2732 1175.25,-57.2805 1178.77,-63.3297"/>
</g>
<!-- distancia projetil 9&#45;&gt;direita -->
<g id="edge62" class="edge"><title>distancia projetil 9&#45;&gt;direita</title>
<path fill="none" stroke="green" stroke-width="0.236116" d="M190.906,-113.189C200.264,-109.687 211.735,-105.926 222.392,-103.882 534.443,-44.0461 621.017,-106.55 936.392,-67.8823 982.109,-62.2769 1034.04,-51.3868 1067.91,-43.6642"/>
<polygon fill="green" stroke="green" stroke-width="0.236116" points="1068.86,-47.0377 1077.81,-41.3786 1067.28,-40.217 1068.86,-47.0377"/>
</g>
<!-- distancia projetil 9&#45;&gt;pular -->
<g id="edge51" class="edge"><title>distancia projetil 9&#45;&gt;pular</title>
<path fill="none" stroke="green" stroke-width="0.332504" d="M191.956,-113.179C201.143,-109.848 212.181,-106.227 222.392,-103.882 417.115,-59.1661 657.165,-41.8833 745.585,-36.751"/>
<polygon fill="green" stroke="green" stroke-width="0.332504" points="745.816,-40.2435 755.603,-36.1843 745.421,-33.2547 745.816,-40.2435"/>
</g>
<!-- distancia projetil 9&#45;&gt;atirar -->
<g id="edge21" class="edge"><title>distancia projetil 9&#45;&gt;atirar</title>
<path fill="none" stroke="green" stroke-width="0.239004" d="M190.914,-113.23C200.274,-109.737 211.744,-105.971 222.392,-103.882 488.894,-51.5952 573.905,-151.2 832.392,-67.8823 840.872,-65.1488 849.345,-60.7017 856.914,-55.9472"/>
<polygon fill="green" stroke="green" stroke-width="0.239004" points="858.972,-58.7818 865.333,-50.3089 855.076,-52.9658 858.972,-58.7818"/>
</g>
<!-- distancia projetil 10 -->
<g id="node10" class="node"><title>distancia projetil 10</title>
<polygon fill="lightgray" stroke="black" points="1821.39,-131.267 1733.39,-131.267 1733.39,-113.267 1821.39,-113.267 1821.39,-131.267"/>
<text text-anchor="middle" x="1777.39" y="-120.067" font-family="Times New Roman,serif" font-size="9.00">distancia projetil 10</text>
</g>
<!-- distancia projetil 10&#45;&gt;esquerda -->
<g id="edge38" class="edge"><title>distancia projetil 10&#45;&gt;esquerda</title>
<path fill="none" stroke="red" stroke-width="0.92232" d="M1756.55,-113.179C1746.9,-109.763 1735.21,-106.076 1724.39,-103.882 1535.57,-65.5963 1479.68,-113.094 1292.39,-67.8823 1278.78,-64.596 1264.47,-59.3341 1251.78,-53.9716"/>
<polygon fill="red" stroke="red" stroke-width="0.92232" points="1252.99,-50.6819 1242.43,-49.8822 1250.19,-57.0955 1252.99,-50.6819"/>
</g>
<!-- distancia projetil 10&#45;&gt;direita -->
<g id="edge67" class="edge"><title>distancia projetil 10&#45;&gt;direita</title>
<path fill="none" stroke="green" stroke-width="0.705632" d="M1756.82,-113.178C1747.13,-109.718 1735.33,-105.995 1724.39,-103.882 1481.7,-56.9892 1407.82,-133.08 1169.39,-67.8823 1158.09,-64.791 1146.45,-59.6232 1136.21,-54.2866"/>
<polygon fill="green" stroke="green" stroke-width="0.705632" points="1137.69,-51.11 1127.24,-49.393 1134.34,-57.2549 1137.69,-51.11"/>
</g>
<!-- distancia projetil 10&#45;&gt;atirar -->
<g id="edge7" class="edge"><title>distancia projetil 10&#45;&gt;atirar</title>
<path fill="none" stroke="red" stroke-width="0.114314" d="M1757.08,-113.218C1747.35,-109.722 1735.43,-105.958 1724.39,-103.882 1436.99,-49.8456 1357.85,-101.851 1067.39,-67.8823 1015.16,-61.7733 955.29,-50.0986 918.661,-42.4163"/>
<polygon fill="red" stroke="red" stroke-width="0.114314" points="919.032,-38.9171 908.523,-40.2672 917.58,-45.7649 919.032,-38.9171"/>
</g>
<!-- distancia projetil 10&#45;&gt;release -->
<g id="edge58" class="edge"><title>distancia projetil 10&#45;&gt;release</title>
<path fill="none" stroke="green" stroke-width="0.111625" d="M1755.16,-113.187C1745.76,-109.975 1734.63,-106.443 1724.39,-103.882 1596.24,-71.8284 1440.98,-49.3437 1369.67,-39.9067"/>
<polygon fill="green" stroke="green" stroke-width="0.111625" points="1369.73,-36.3855 1359.36,-38.557 1368.82,-43.3262 1369.73,-36.3855"/>
</g>
<!-- distancia projetil 11 -->
<g id="node11" class="node"><title>distancia projetil 11</title>
<polygon fill="lightgray" stroke="black" points="319.392,-131.267 231.392,-131.267 231.392,-113.267 319.392,-113.267 319.392,-131.267"/>
<text text-anchor="middle" x="275.392" y="-120.067" font-family="Times New Roman,serif" font-size="9.00">distancia projetil 11</text>
</g>
<!-- distancia projetil 11&#45;&gt;direita -->
<g id="edge49" class="edge"><title>distancia projetil 11&#45;&gt;direita</title>
<path fill="none" stroke="red" stroke-width="0.277119" d="M295.707,-113.24C305.44,-109.749 317.357,-105.982 328.392,-103.882 594.315,-53.2778 667.855,-102.002 936.392,-67.8823 982.084,-62.0766 1034.02,-51.2287 1067.9,-43.5706"/>
<polygon fill="red" stroke="red" stroke-width="0.277119" points="1068.83,-46.9465 1077.8,-41.3055 1067.27,-40.1226 1068.83,-46.9465"/>
</g>
<!-- distancia projetil 11&#45;&gt;pular -->
<g id="edge17" class="edge"><title>distancia projetil 11&#45;&gt;pular</title>
<path fill="none" stroke="green" stroke-width="0.316289" d="M297.077,-113.253C306.583,-109.976 317.936,-106.376 328.392,-103.882 481.781,-67.2939 669.294,-45.9759 745.603,-38.2614"/>
<polygon fill="green" stroke="green" stroke-width="0.316289" points="746.014,-41.7378 755.618,-37.2629 745.32,-34.7724 746.014,-41.7378"/>
</g>
<!-- distancia projetil 11&#45;&gt;atirar -->
<g id="edge90" class="edge"><title>distancia projetil 11&#45;&gt;atirar</title>
<path fill="none" stroke="red" stroke-width="0.569229" d="M295.971,-113.21C305.66,-109.757 317.465,-106.031 328.392,-103.882 548.744,-60.5593 619.08,-138.096 832.392,-67.8823 840.855,-65.0964 849.322,-60.6311 856.891,-55.8758"/>
<polygon fill="red" stroke="red" stroke-width="0.569229" points="858.945,-58.7126 865.311,-50.2435 855.053,-52.8943 858.945,-58.7126"/>
</g>
<!-- distancia projetil 11&#45;&gt;release -->
<g id="edge59" class="edge"><title>distancia projetil 11&#45;&gt;release</title>
<path fill="none" stroke="green" stroke-width="0.179739" d="M295.436,-113.226C305.211,-109.686 317.24,-105.883 328.392,-103.882 535.242,-66.7724 1071.48,-126.171 1273.39,-67.8823 1281.92,-65.4214 1290.51,-61.4242 1298.35,-57.0486"/>
<polygon fill="green" stroke="green" stroke-width="0.179739" points="1300.35,-59.9294 1307.16,-51.8076 1296.77,-53.9141 1300.35,-59.9294"/>
</g>
<!-- distancia projetil 12 -->
<g id="node12" class="node"><title>distancia projetil 12</title>
<polygon fill="lightgray" stroke="black" points="824.392,-131.267 736.392,-131.267 736.392,-113.267 824.392,-113.267 824.392,-131.267"/>
<text text-anchor="middle" x="780.392" y="-120.067" font-family="Times New Roman,serif" font-size="9.00">distancia projetil 12</text>
</g>
<!-- distancia projetil 12&#45;&gt;esquerda -->
<g id="edge28" class="edge"><title>distancia projetil 12&#45;&gt;esquerda</title>
<path fill="none" stroke="red" stroke-width="0.318757" d="M801.929,-113.234C811.713,-109.872 823.509,-106.212 834.392,-103.882 976.5,-73.4606 1022.06,-115.416 1159.39,-67.8823 1165.16,-65.8846 1170.96,-63.1693 1176.5,-60.1493"/>
<polygon fill="red" stroke="red" stroke-width="0.318757" points="1178.67,-62.9358 1185.51,-54.8521 1175.12,-56.9005 1178.67,-62.9358"/>
</g>
<!-- distancia projetil 12&#45;&gt;direita -->
<g id="edge57" class="edge"><title>distancia projetil 12&#45;&gt;direita</title>
<path fill="none" stroke="green" stroke-width="0.105067" d="M804.22,-113.247C813.586,-110.187 824.455,-106.747 834.392,-103.882 917.193,-80.0069 1015.49,-55.9795 1067.62,-43.5706"/>
<polygon fill="green" stroke="green" stroke-width="0.105067" points="1068.5,-46.9609 1077.42,-41.2472 1066.88,-40.1499 1068.5,-46.9609"/>
</g>
<!-- distancia projetil 12&#45;&gt;pular -->
<g id="edge88" class="edge"><title>distancia projetil 12&#45;&gt;pular</title>
<path fill="none" stroke="red" stroke-width="0.392366" d="M780.392,-112.99C780.392,-102.881 780.392,-85.1487 780.392,-69.1379"/>
<polygon fill="red" stroke="red" stroke-width="0.392366" points="783.892,-68.9626 780.392,-58.9626 776.892,-68.9626 783.892,-68.9626"/>
</g>
<!-- distancia projetil 12&#45;&gt;atirar -->
<g id="edge16" class="edge"><title>distancia projetil 12&#45;&gt;atirar</title>
<path fill="none" stroke="red" stroke-width="0.480404" d="M790.364,-112.99C805.759,-100.211 835.834,-75.247 857.839,-56.9812"/>
<polygon fill="red" stroke="red" stroke-width="0.480404" points="860.08,-59.6698 865.539,-50.5897 855.609,-54.2836 860.08,-59.6698"/>
</g>
<!-- distancia projetil 12&#45;&gt;release -->
<g id="edge6" class="edge"><title>distancia projetil 12&#45;&gt;release</title>
<path fill="none" stroke="green" stroke-width="0.106457" d="M801.64,-113.179C811.468,-109.763 823.381,-106.076 834.392,-103.882 1026.39,-65.6341 1086.54,-126.281 1273.39,-67.8823 1281.86,-65.2356 1290.43,-61.1653 1298.27,-56.778"/>
<polygon fill="green" stroke="green" stroke-width="0.106457" points="1300.27,-59.6625 1307.08,-51.5484 1296.69,-53.6431 1300.27,-59.6625"/>
</g>
<!-- distancia projetil 13 -->
<g id="node13" class="node"><title>distancia projetil 13</title>
<polygon fill="lightgray" stroke="black" points="1032.39,-131.267 944.392,-131.267 944.392,-113.267 1032.39,-113.267 1032.39,-131.267"/>
<text text-anchor="middle" x="988.392" y="-120.067" font-family="Times New Roman,serif" font-size="9.00">distancia projetil 13</text>
</g>
<!-- distancia projetil 13&#45;&gt;esquerda -->
<g id="edge74" class="edge"><title>distancia projetil 13&#45;&gt;esquerda</title>
<path fill="none" stroke="green" stroke-width="0.156618" stroke-dasharray="1,5" d="M1012.63,-113.198C1021.65,-110.228 1031.97,-106.863 1041.39,-103.882 1093.67,-87.3366 1109.46,-90.5455 1159.39,-67.8823 1164.89,-65.3865 1170.51,-62.4161 1175.93,-59.296"/>
<polygon fill="green" stroke="green" stroke-width="0.156618" points="1178.04,-62.1088 1184.82,-53.9612 1174.44,-56.1071 1178.04,-62.1088"/>
</g>
<!-- distancia projetil 13&#45;&gt;direita -->
<g id="edge45" class="edge"><title>distancia projetil 13&#45;&gt;direita</title>
<path fill="none" stroke="red" stroke-width="0.120237" d="M999.515,-112.99C1016.56,-100.306 1049.73,-75.6173 1074.23,-57.3895"/>
<polygon fill="red" stroke="red" stroke-width="0.120237" points="1076.56,-60.0198 1082.49,-51.2418 1072.38,-54.4041 1076.56,-60.0198"/>
</g>
<!-- distancia projetil 13&#45;&gt;pular -->
<g id="edge34" class="edge"><title>distancia projetil 13&#45;&gt;pular</title>
<path fill="none" stroke="red" stroke-width="0.180869" d="M966.209,-113.237C938.782,-103.181 890.775,-85.1694 850.392,-67.8823 837.531,-62.3769 823.548,-55.8984 811.485,-50.15"/>
<polygon fill="red" stroke="red" stroke-width="0.180869" points="812.81,-46.9035 802.28,-45.729 809.779,-53.2135 812.81,-46.9035"/>
</g>
<!-- distancia projetil 13&#45;&gt;atirar -->
<g id="edge4" class="edge"><title>distancia projetil 13&#45;&gt;atirar</title>
<path fill="none" stroke="red" stroke-width="0.508057" d="M978.42,-112.99C963.025,-100.211 932.95,-75.247 910.944,-56.9812"/>
<polygon fill="red" stroke="red" stroke-width="0.508057" points="913.174,-54.2836 903.244,-50.5897 908.704,-59.6698 913.174,-54.2836"/>
</g>
<!-- distancia projetil 13&#45;&gt;release -->
<g id="edge97" class="edge"><title>distancia projetil 13&#45;&gt;release</title>
<path fill="none" stroke="red" stroke-width="0.359641" d="M1010.08,-113.267C1019.59,-109.991 1030.94,-106.39 1041.39,-103.882 1142.86,-79.5405 1174.98,-102.58 1273.39,-67.8823 1281.76,-64.932 1290.29,-60.7422 1298.12,-56.3358"/>
<polygon fill="red" stroke="red" stroke-width="0.359641" points="1300.11,-59.2262 1306.94,-51.1248 1296.55,-53.2001 1300.11,-59.2262"/>
</g>
<!-- distancia projetil 14 -->
<g id="node14" class="node"><title>distancia projetil 14</title>
<polygon fill="lightgray" stroke="black" points="1927.39,-131.267 1839.39,-131.267 1839.39,-113.267 1927.39,-113.267 1927.39,-131.267"/>
<text text-anchor="middle" x="1883.39" y="-120.067" font-family="Times New Roman,serif" font-size="9.00">distancia projetil 14</text>
</g>
<!-- distancia projetil 14&#45;&gt;esquerda -->
<g id="edge15" class="edge"><title>distancia projetil 14&#45;&gt;esquerda</title>
<path fill="none" stroke="green" stroke-width="0.748054" d="M1862.82,-113.188C1853.13,-109.73 1841.32,-106.006 1830.39,-103.882 1595.14,-58.1794 1525.8,-122.215 1292.39,-67.8823 1278.75,-64.7072 1264.44,-59.4756 1251.75,-54.1065"/>
<polygon fill="green" stroke="green" stroke-width="0.748054" points="1252.96,-50.8173 1242.4,-50.0057 1250.15,-57.2278 1252.96,-50.8173"/>
</g>
<!-- distancia projetil 14&#45;&gt;direita -->
<g id="edge47" class="edge"><title>distancia projetil 14&#45;&gt;direita</title>
<path fill="none" stroke="red" stroke-width="0.264046" d="M1863.08,-113.217C1853.35,-109.72 1841.43,-105.956 1830.39,-103.882 1541.24,-49.5654 1453.58,-144.012 1169.39,-67.8823 1158.07,-64.8496 1146.43,-59.698 1136.19,-54.3582"/>
<polygon fill="red" stroke="red" stroke-width="0.264046" points="1137.67,-51.1819 1127.22,-49.4569 1134.32,-57.3242 1137.67,-51.1819"/>
</g>
<!-- distancia projetil 14&#45;&gt;atirar -->
<g id="edge85" class="edge"><title>distancia projetil 14&#45;&gt;atirar</title>
<path fill="none" stroke="red" stroke-width="0.718416" d="M1863.09,-113.181C1853.36,-109.676 1841.44,-105.916 1830.39,-103.882 1496.51,-42.4187 1404.73,-106.036 1067.39,-67.8823 1015.13,-61.9717 955.273,-50.2428 918.652,-42.495"/>
<polygon fill="red" stroke="red" stroke-width="0.718416" points="919.028,-38.9961 908.517,-40.3263 917.563,-45.8411 919.028,-38.9961"/>
</g>
<!-- distancia projetil 14&#45;&gt;release -->
<g id="edge98" class="edge"><title>distancia projetil 14&#45;&gt;release</title>
<path fill="none" stroke="red" stroke-width="0.425861" d="M1861.72,-113.181C1852.22,-109.891 1840.87,-106.301 1830.39,-103.882 1661.32,-64.8311 1454.62,-44.9428 1369.69,-37.9381"/>
<polygon fill="red" stroke="red" stroke-width="0.425861" points="1369.72,-34.4294 1359.47,-37.1096 1369.15,-41.4064 1369.72,-34.4294"/>
</g>
<!-- distancia projetil 15 -->
<g id="node15" class="node"><title>distancia projetil 15</title>
<polygon fill="lightgray" stroke="black" points="2033.39,-131.267 1945.39,-131.267 1945.39,-113.267 2033.39,-113.267 2033.39,-131.267"/>
<text text-anchor="middle" x="1989.39" y="-120.067" font-family="Times New Roman,serif" font-size="9.00">distancia projetil 15</text>
</g>
<!-- distancia projetil 15&#45;&gt;esquerda -->
<g id="edge64" class="edge"><title>distancia projetil 15&#45;&gt;esquerda</title>
<path fill="none" stroke="green" stroke-width="0.44102" d="M1969.08,-113.224C1959.35,-109.729 1947.43,-105.964 1936.39,-103.882 1654.69,-50.7562 1571.95,-131.344 1292.39,-67.8823 1278.74,-64.7821 1264.42,-59.5708 1251.73,-54.1973"/>
<polygon fill="green" stroke="green" stroke-width="0.44102" points="1252.94,-50.9084 1242.38,-50.0888 1250.12,-57.3168 1252.94,-50.9084"/>
</g>
<!-- distancia projetil 15&#45;&gt;direita -->
<g id="edge33" class="edge"><title>distancia projetil 15&#45;&gt;direita</title>
<path fill="none" stroke="green" stroke-width="0.233518" d="M1969.09,-113.179C1959.36,-109.675 1947.44,-105.915 1936.39,-103.882 1600.76,-42.1384 1499.36,-154.949 1169.39,-67.8823 1158.06,-64.8921 1146.42,-59.7523 1136.17,-54.4102"/>
<polygon fill="green" stroke="green" stroke-width="0.233518" points="1137.66,-51.2339 1127.21,-49.5032 1134.3,-57.3745 1137.66,-51.2339"/>
</g>
<!-- distancia projetil 15&#45;&gt;atirar -->
<g id="edge72" class="edge"><title>distancia projetil 15&#45;&gt;atirar</title>
<path fill="none" stroke="green" stroke-width="0.262835" stroke-dasharray="1,5" d="M1969.34,-113.243C1959.57,-109.706 1947.54,-105.902 1936.39,-103.882 1556.03,-34.9897 1451.62,-110.222 1067.39,-67.8823 1015.12,-62.1218 955.261,-50.352 918.646,-42.5545"/>
<polygon fill="green" stroke="green" stroke-width="0.262835" points="919.024,-39.0558 908.512,-40.3711 917.55,-45.8988 919.024,-39.0558"/>
</g>
<!-- distancia projetil 15&#45;&gt;release -->
<g id="edge82" class="edge"><title>distancia projetil 15&#45;&gt;release</title>
<path fill="none" stroke="red" stroke-width="0.923796" d="M1968.26,-113.24C1958.66,-109.879 1947.08,-106.218 1936.39,-103.882 1725.76,-57.8592 1466.82,-41.4336 1369.67,-36.6385"/>
<polygon fill="red" stroke="red" stroke-width="0.923796" points="1369.59,-33.131 1359.44,-36.1474 1369.26,-40.1229 1369.59,-33.131"/>
</g>
<!-- distancia projetil 16 -->
<g id="node16" class="node"><title>distancia projetil 16</title>
<polygon fill="lightgray" stroke="black" points="1138.39,-131.267 1050.39,-131.267 1050.39,-113.267 1138.39,-113.267 1138.39,-131.267"/>
<text text-anchor="middle" x="1094.39" y="-120.067" font-family="Times New Roman,serif" font-size="9.00">distancia projetil 16</text>
</g>
<!-- distancia projetil 16&#45;&gt;esquerda -->
<g id="edge9" class="edge"><title>distancia projetil 16&#45;&gt;esquerda</title>
<path fill="none" stroke="green" stroke-width="0.662209" d="M1105.71,-112.99C1122.01,-101.061 1152.83,-78.5139 1177.17,-60.7092"/>
<polygon fill="green" stroke="green" stroke-width="0.662209" points="1179.47,-63.3637 1185.47,-54.6344 1175.34,-57.7141 1179.47,-63.3637"/>
</g>
<!-- distancia projetil 16&#45;&gt;direita -->
<g id="edge42" class="edge"><title>distancia projetil 16&#45;&gt;direita</title>
<path fill="none" stroke="red" stroke-width="0.238666" d="M1095.35,-112.99C1096.45,-103.458 1098.34,-87.1459 1100.11,-71.8914"/>
<polygon fill="red" stroke="red" stroke-width="0.238666" points="1103.63,-71.9322 1101.3,-61.5958 1096.68,-71.1266 1103.63,-71.9322"/>
</g>
<!-- distancia projetil 16&#45;&gt;pular -->
<g id="edge71" class="edge"><title>distancia projetil 16&#45;&gt;pular</title>
<path fill="none" stroke="red" stroke-width="0.34084" d="M1072.15,-113.253C1062.74,-110.052 1051.61,-106.51 1041.39,-103.882 957.729,-82.3745 932.577,-94.4867 850.392,-67.8823 837.083,-63.5738 823.016,-57.3183 811.011,-51.4133"/>
<polygon fill="red" stroke="red" stroke-width="0.34084" points="812.383,-48.1851 801.88,-46.7967 809.225,-54.4321 812.383,-48.1851"/>
</g>
<!-- distancia projetil 16&#45;&gt;atirar -->
<g id="edge2" class="edge"><title>distancia projetil 16&#45;&gt;atirar</title>
<path fill="none" stroke="red" stroke-width="0.431609" d="M1074.64,-113.146C1038.28,-98.2007 960.48,-66.219 916.464,-48.1251"/>
<polygon fill="red" stroke="red" stroke-width="0.431609" points="917.669,-44.8364 907.089,-44.2715 915.008,-51.3108 917.669,-44.8364"/>
</g>
<!-- distancia projetil 16&#45;&gt;release -->
<g id="edge32" class="edge"><title>distancia projetil 16&#45;&gt;release</title>
<path fill="none" stroke="red" stroke-width="0.407737" stroke-dasharray="1,5" d="M1118.34,-113.195C1127.41,-110.193 1137.86,-106.807 1147.39,-103.882 1203.07,-86.8029 1219.77,-90.6246 1273.39,-67.8823 1281.48,-64.4499 1289.86,-60.1068 1297.62,-55.7101"/>
<polygon fill="red" stroke="red" stroke-width="0.407737" points="1299.52,-58.6491 1306.38,-50.5754 1295.99,-52.6086 1299.52,-58.6491"/>
</g>
<!-- distancia inimigo 1 -->
<g id="node17" class="node"><title>distancia inimigo 1</title>
<polygon fill="lightgray" stroke="black" points="925.892,-131.267 842.892,-131.267 842.892,-113.267 925.892,-113.267 925.892,-131.267"/>
<text text-anchor="middle" x="884.392" y="-120.067" font-family="Times New Roman,serif" font-size="9.00">distancia inimigo 1</text>
</g>
<!-- distancia inimigo 1&#45;&gt;esquerda -->
<g id="edge27" class="edge"><title>distancia inimigo 1&#45;&gt;esquerda</title>
<path fill="none" stroke="green" stroke-width="0.201034" d="M905.492,-113.178C914.586,-109.927 925.407,-106.368 935.392,-103.882 1033.24,-79.5284 1064.94,-103.188 1159.39,-67.8823 1165.25,-65.6916 1171.17,-62.8129 1176.81,-59.6681"/>
<polygon fill="green" stroke="green" stroke-width="0.201034" points="1178.6,-62.6787 1185.41,-54.568 1175.03,-56.6575 1178.6,-62.6787"/>
</g>
<!-- distancia inimigo 1&#45;&gt;direita -->
<g id="edge99" class="edge"><title>distancia inimigo 1&#45;&gt;direita</title>
<path fill="none" stroke="red" stroke-width="0.192457" d="M905.089,-113.146C942.837,-98.3339 1023.23,-66.7875 1069.55,-48.612"/>
<polygon fill="red" stroke="red" stroke-width="0.192457" points="1070.86,-51.8583 1078.89,-44.9473 1068.3,-45.342 1070.86,-51.8583"/>
</g>
<!-- distancia inimigo 1&#45;&gt;pular -->
<g id="edge86" class="edge"><title>distancia inimigo 1&#45;&gt;pular</title>
<path fill="none" stroke="green" stroke-width="0.23334" d="M874.42,-112.99C859.025,-100.211 828.95,-75.247 806.944,-56.9812"/>
<polygon fill="green" stroke="green" stroke-width="0.23334" points="809.174,-54.2836 799.244,-50.5897 804.704,-59.6698 809.174,-54.2836"/>
</g>
<!-- distancia inimigo 1&#45;&gt;atirar -->
<g id="edge56" class="edge"><title>distancia inimigo 1&#45;&gt;atirar</title>
<path fill="none" stroke="red" stroke-width="0.732714" d="M884.392,-112.99C884.392,-102.881 884.392,-85.1487 884.392,-69.1379"/>
<polygon fill="red" stroke="red" stroke-width="0.732714" points="887.892,-68.9626 884.392,-58.9626 880.892,-68.9626 887.892,-68.9626"/>
</g>
<!-- distancia inimigo 1&#45;&gt;release -->
<g id="edge5" class="edge"><title>distancia inimigo 1&#45;&gt;release</title>
<path fill="none" stroke="red" stroke-width="0.44179" d="M904.937,-113.098C914.121,-109.751 925.161,-106.141 935.392,-103.882 1082.91,-71.3096 1129.76,-114.696 1273.39,-67.8823 1281.83,-65.133 1290.39,-61.0222 1298.22,-56.6285"/>
<polygon fill="red" stroke="red" stroke-width="0.44179" points="1300.22,-59.515 1307.03,-51.4052 1296.65,-53.4934 1300.22,-59.515"/>
</g>
<!-- distancia inimigo 2 -->
<g id="node18" class="node"><title>distancia inimigo 2</title>
<polygon fill="lightgray" stroke="black" points="1714.89,-131.267 1631.89,-131.267 1631.89,-113.267 1714.89,-113.267 1714.89,-131.267"/>
<text text-anchor="middle" x="1673.39" y="-120.067" font-family="Times New Roman,serif" font-size="9.00">distancia inimigo 2</text>
</g>
<!-- distancia inimigo 2&#45;&gt;esquerda -->
<g id="edge73" class="edge"><title>distancia inimigo 2&#45;&gt;esquerda</title>
<path fill="none" stroke="green" stroke-width="0.731614" d="M1653.26,-113.1C1644.26,-109.754 1633.43,-106.143 1623.39,-103.882 1479.03,-71.3755 1435.79,-104.417 1292.39,-67.8823 1278.82,-64.4248 1264.52,-59.1164 1251.83,-53.7639"/>
<polygon fill="green" stroke="green" stroke-width="0.731614" points="1253.04,-50.4733 1242.47,-49.6922 1250.25,-56.8919 1253.04,-50.4733"/>
</g>
<!-- distancia inimigo 2&#45;&gt;direita -->
<g id="edge3" class="edge"><title>distancia inimigo 2&#45;&gt;direita</title>
<path fill="none" stroke="green" stroke-width="0.424514" d="M1653.77,-113.141C1644.68,-109.717 1633.65,-106.034 1623.39,-103.882 1425.3,-62.3065 1364.25,-122.67 1169.39,-67.8823 1158.2,-64.7361 1146.67,-59.6054 1136.49,-54.3198"/>
<polygon fill="green" stroke="green" stroke-width="0.424514" points="1138.02,-51.1688 1127.56,-49.4746 1134.68,-57.321 1138.02,-51.1688"/>
</g>
<!-- distancia inimigo 2&#45;&gt;pular -->
<g id="edge10" class="edge"><title>distancia inimigo 2&#45;&gt;pular</title>
<path fill="none" stroke="red" stroke-width="0.463722" d="M1654.28,-113.168C1645.11,-109.66 1633.86,-105.902 1623.39,-103.882 1285.69,-38.7328 1184.2,-150.7 850.392,-67.8823 836.711,-64.4881 822.484,-58.3409 810.456,-52.2682"/>
<polygon fill="red" stroke="red" stroke-width="0.463722" points="811.814,-49.0279 801.335,-47.4681 808.554,-55.2225 811.814,-49.0279"/>
</g>
<!-- distancia inimigo 2&#45;&gt;release -->
<g id="edge95" class="edge"><title>distancia inimigo 2&#45;&gt;release</title>
<path fill="none" stroke="red" stroke-width="0.616266" d="M1651.65,-113.156C1642.93,-110.049 1632.75,-106.601 1623.39,-103.882 1533.16,-77.6573 1425.14,-54.261 1368.83,-42.6574"/>
<polygon fill="red" stroke="red" stroke-width="0.616266" points="1369.43,-39.2082 1358.93,-40.63 1368.02,-46.0658 1369.43,-39.2082"/>
</g>
<!-- direcao sprites 1 -->
<g id="node19" class="node"><title>direcao sprites 1</title>
<polygon fill="lightgray" stroke="black" points="616.392,-131.267 540.392,-131.267 540.392,-113.267 616.392,-113.267 616.392,-131.267"/>
<text text-anchor="middle" x="578.392" y="-120.067" font-family="Times New Roman,serif" font-size="9.00">direcao sprites 1</text>
</g>
<!-- direcao sprites 1&#45;&gt;esquerda -->
<g id="edge14" class="edge"><title>direcao sprites 1&#45;&gt;esquerda</title>
<path fill="none" stroke="green" stroke-width="0.165452" d="M596.73,-113.256C605.533,-109.768 616.331,-106 626.392,-103.882 858.729,-54.9771 933.409,-140.712 1159.39,-67.8823 1165.21,-66.0088 1171.03,-63.363 1176.57,-60.3759"/>
<polygon fill="green" stroke="green" stroke-width="0.165452" points="1178.73,-63.1701 1185.6,-55.1026 1175.2,-57.1264 1178.73,-63.1701"/>
</g>
<!-- direcao sprites 1&#45;&gt;direita -->
<g id="edge83" class="edge"><title>direcao sprites 1&#45;&gt;direita</title>
<path fill="none" stroke="red" stroke-width="0.323568" d="M597.697,-113.116C606.335,-109.773 616.73,-106.16 626.392,-103.882 761.394,-72.0518 799.343,-89.2428 936.392,-67.8823 981.769,-60.8097 1033.57,-50.2742 1067.51,-43.0326"/>
<polygon fill="red" stroke="red" stroke-width="0.323568" points="1068.4,-46.4211 1077.45,-40.8985 1066.93,-39.5772 1068.4,-46.4211"/>
</g>
<!-- direcao sprites 1&#45;&gt;pular -->
<g id="edge55" class="edge"><title>direcao sprites 1&#45;&gt;pular</title>
<path fill="none" stroke="green" stroke-width="0.232441" stroke-dasharray="1,5" d="M597.396,-113.146C632.111,-98.31 706.11,-66.6858 748.608,-48.5242"/>
<polygon fill="green" stroke="green" stroke-width="0.232441" points="750.112,-51.6878 757.932,-44.5395 747.361,-45.2509 750.112,-51.6878"/>
</g>
<!-- direcao sprites 1&#45;&gt;atirar -->
<g id="edge26" class="edge"><title>direcao sprites 1&#45;&gt;atirar</title>
<path fill="none" stroke="green" stroke-width="0.461046" d="M598.228,-113.201C606.784,-109.954 616.971,-106.391 626.392,-103.882 716.205,-79.9661 745.7,-101.392 832.392,-67.8823 840.703,-64.6698 849.116,-60.0558 856.683,-55.2939"/>
<polygon fill="green" stroke="green" stroke-width="0.461046" points="858.712,-58.148 865.121,-49.711 854.85,-52.3101 858.712,-58.148"/>
</g>
<!-- direcao sprites 1&#45;&gt;release -->
<g id="edge96" class="edge"><title>direcao sprites 1&#45;&gt;release</title>
<path fill="none" stroke="red" stroke-width="0.357134" d="M596.719,-113.202C605.519,-109.703 616.319,-105.94 626.392,-103.882 908.563,-46.2321 997.401,-150.182 1273.39,-67.8823 1281.89,-65.3469 1290.48,-61.3204 1298.32,-56.9401"/>
<polygon fill="red" stroke="red" stroke-width="0.357134" points="1300.32,-59.8224 1307.13,-51.7037 1296.74,-53.8054 1300.32,-59.8224"/>
</g>
<!-- direcao sprites 2 -->
<g id="node20" class="node"><title>direcao sprites 2</title>
<polygon fill="lightgray" stroke="black" points="1232.39,-131.267 1156.39,-131.267 1156.39,-113.267 1232.39,-113.267 1232.39,-131.267"/>
<text text-anchor="middle" x="1194.39" y="-120.067" font-family="Times New Roman,serif" font-size="9.00">direcao sprites 2</text>
</g>
<!-- direcao sprites 2&#45;&gt;esquerda -->
<g id="edge63" class="edge"><title>direcao sprites 2&#45;&gt;esquerda</title>
<path fill="none" stroke="green" stroke-width="0.161127" d="M1196.12,-112.99C1197.87,-104.568 1200.73,-90.8542 1203.57,-77.2531"/>
<polygon fill="green" stroke="green" stroke-width="0.161127" points="1207,-77.9505 1205.61,-67.4466 1200.15,-76.5216 1207,-77.9505"/>
</g>
<!-- direcao sprites 2&#45;&gt;direita -->
<g id="edge94" class="edge"><title>direcao sprites 2&#45;&gt;direita</title>
<path fill="none" stroke="red" stroke-width="0.469" d="M1185.76,-112.99C1173.37,-101.1 1149.97,-78.6608 1131.44,-60.8836"/>
<polygon fill="red" stroke="red" stroke-width="0.469" points="1133.48,-57.9908 1123.84,-53.5945 1128.63,-63.0426 1133.48,-57.9908"/>
</g>
<!-- direcao sprites 2&#45;&gt;pular -->
<g id="edge25" class="edge"><title>direcao sprites 2&#45;&gt;pular</title>
<path fill="none" stroke="green" stroke-width="0.254778" d="M1175.5,-113.129C1167.04,-109.788 1156.86,-106.174 1147.39,-103.882 1018.16,-72.6049 978.171,-104.658 850.392,-67.8823 836.846,-63.9838 822.643,-57.7457 810.597,-51.7415"/>
<polygon fill="green" stroke="green" stroke-width="0.254778" points="811.945,-48.4987 801.453,-47.0254 808.737,-54.72 811.945,-48.4987"/>
</g>
<!-- direcao sprites 2&#45;&gt;atirar -->
<g id="edge54" class="edge"><title>direcao sprites 2&#45;&gt;atirar</title>
<path fill="none" stroke="red" stroke-width="0.172194" d="M1173.95,-113.211C1165.76,-110.111 1156.19,-106.654 1147.39,-103.882 1066.27,-78.3158 969.056,-54.5858 918.587,-42.7726"/>
<polygon fill="red" stroke="red" stroke-width="0.172194" points="919.083,-39.2945 908.55,-40.4363 917.496,-46.1123 919.083,-39.2945"/>
</g>
<!-- direcao sprites 2&#45;&gt;release -->
<g id="edge43" class="edge"><title>direcao sprites 2&#45;&gt;release</title>
<path fill="none" stroke="red" stroke-width="0.394343" d="M1207.43,-112.99C1228.04,-99.9102 1268.75,-74.0655 1297.68,-55.7032"/>
<polygon fill="red" stroke="red" stroke-width="0.394343" points="1299.68,-58.5813 1306.25,-50.2672 1295.93,-52.6713 1299.68,-58.5813"/>
</g>
<!-- esquerda&#45;&gt;esquerda -->
<g id="edge84" class="edge"><title>esquerda&#45;&gt;esquerda</title>
<path fill="none" stroke="red" stroke-width="0.183858" d="M1242.28,-50.3404C1254.27,-51.2669 1264.33,-45.8005 1264.33,-33.9411 1264.33,-25.7878 1259.58,-20.6561 1252.71,-18.5462"/>
<polygon fill="red" stroke="red" stroke-width="0.183858" points="1252.57,-15.0169 1242.28,-17.5418 1251.9,-21.9846 1252.57,-15.0169"/>
</g>
<!-- direita&#45;&gt;direita -->
<g id="edge11" class="edge"><title>direita&#45;&gt;direita</title>
<path fill="none" stroke="green" stroke-width="0.36653" d="M1127.37,-49.861C1139.26,-52.3103 1149.97,-47.0036 1149.97,-33.9411 1149.97,-24.7566 1144.67,-19.4064 1137.4,-17.8906"/>
<polygon fill="green" stroke="green" stroke-width="0.36653" points="1137.33,-14.3911 1127.37,-18.0212 1137.42,-21.3905 1137.33,-14.3911"/>
</g>
<!-- pular&#45;&gt;pular -->
<g id="edge36" class="edge"><title>pular&#45;&gt;pular</title>
<path fill="none" stroke="red" stroke-width="0.698046" d="M800.18,-49.4099C812.008,-52.8474 823.141,-47.6911 823.141,-33.9411 823.141,-24.2732 817.637,-18.8538 810.257,-17.6831"/>
<polygon fill="red" stroke="red" stroke-width="0.698046" points="809.876,-14.2021 800.18,-18.4724 810.423,-21.1808 809.876,-14.2021"/>
</g>
<!-- atirar&#45;&gt;atirar -->
<g id="edge77" class="edge"><title>atirar&#45;&gt;atirar</title>
<path fill="none" stroke="green" stroke-width="0.319165" d="M904.18,-49.4099C916.008,-52.8474 927.141,-47.6911 927.141,-33.9411 927.141,-24.2732 921.637,-18.8538 914.257,-17.6831"/>
<polygon fill="green" stroke="green" stroke-width="0.319165" points="913.876,-14.2021 904.18,-18.4724 914.423,-21.1808 913.876,-14.2021"/>
</g>
<!-- 53&#45;&gt;release -->
<g id="edge20" class="edge"><title>53&#45;&gt;release</title>
<path fill="none" stroke="red" stroke-width="0.446659" d="M2092.32,-111.451C2087.15,-108.533 2081.2,-105.647 2075.39,-103.882 1941.23,-63.1183 1503.46,-42.0765 1369.62,-36.4851"/>
<polygon fill="red" stroke="red" stroke-width="0.446659" points="1369.57,-32.9798 1359.43,-36.0647 1369.28,-39.9739 1369.57,-32.9798"/>
</g>
<!-- 62&#45;&gt;release -->
<g id="edge81" class="edge"><title>62&#45;&gt;release</title>
<path fill="none" stroke="red" stroke-width="0.172557" d="M2222.34,-111.404C2217.17,-108.483 2211.21,-105.607 2205.39,-103.882 2045.24,-56.4141 1517.65,-39.6865 1369.43,-35.8612"/>
<polygon fill="red" stroke="red" stroke-width="0.172557" points="1369.51,-32.3622 1359.43,-35.6078 1369.33,-39.36 1369.51,-32.3622"/>
</g>
</g>
</svg>
