<?xml version="1.0" encoding="UTF-8" standalone="no"?>
<!DOCTYPE svg PUBLIC "-//W3C//DTD SVG 1.1//EN"
 "http://www.w3.org/Graphics/SVG/1.1/DTD/svg11.dtd">
<!-- Generated by graphviz version 2.38.0 (20140413.2041)
 -->
<!-- Title: %3 Pages: 1 -->
<svg width="2068pt" height="208pt"
 viewBox="0.00 0.00 2067.71 208.31" xmlns="http://www.w3.org/2000/svg" xmlns:xlink="http://www.w3.org/1999/xlink">
<g id="graph0" class="graph" transform="scale(1 1) rotate(0) translate(4 204.309)">
<title>%3</title>
<polygon fill="white" stroke="none" points="-4,4 -4,-204.309 2063.71,-204.309 2063.71,4 -4,4"/>
<!-- dintancia projetil 1 -->
<g id="node1" class="node"><title>dintancia projetil 1</title>
<polygon fill="lightgray" stroke="black" points="347.213,-134.095 263.213,-134.095 263.213,-116.095 347.213,-116.095 347.213,-134.095"/>
<text text-anchor="middle" x="305.213" y="-122.895" font-family="Times New Roman,serif" font-size="9.00">dintancia projetil 1</text>
</g>
<!-- esquerda -->
<g id="node21" class="node"><title>esquerda</title>
<ellipse fill="lightblue" stroke="black" cx="1215.21" cy="-33.9411" rx="33.8824" ry="33.8824"/>
<text text-anchor="middle" x="1215.21" y="-31.7411" font-family="Times New Roman,serif" font-size="9.00">esquerda</text>
</g>
<!-- dintancia projetil 1&#45;&gt;esquerda -->
<g id="edge2" class="edge"><title>dintancia projetil 1&#45;&gt;esquerda</title>
<path fill="none" stroke="green" stroke-width="0.974956" d="M321.781,-115.941C331.553,-111.539 344.303,-106.486 356.213,-103.882 651.011,-39.4452 734.502,-102.968 1034.21,-67.8823 1081.77,-62.3152 1135.69,-51.9726 1172.22,-44.3563"/>
<polygon fill="green" stroke="green" stroke-width="0.974956" points="1172.98,-47.7734 1182.04,-42.2866 1171.54,-40.9238 1172.98,-47.7734"/>
</g>
<!-- direita -->
<g id="node22" class="node"><title>direita</title>
<ellipse fill="lightblue" stroke="black" cx="668.213" cy="-33.9411" rx="27.6545" ry="27.6545"/>
<text text-anchor="middle" x="668.213" y="-31.7411" font-family="Times New Roman,serif" font-size="9.00">direita</text>
</g>
<!-- dintancia projetil 1&#45;&gt;direita -->
<g id="edge20" class="edge"><title>dintancia projetil 1&#45;&gt;direita</title>
<path fill="none" stroke="red" stroke-width="0.193094" stroke-dasharray="1,5" d="M323.373,-116.078C333,-112.038 345.104,-107.287 356.213,-103.882 453.779,-73.9784 572.229,-51.4532 631.172,-41.1432"/>
<polygon fill="red" stroke="red" stroke-width="0.193094" points="631.872,-44.5742 641.128,-39.4192 630.677,-37.6768 631.872,-44.5742"/>
</g>
<!-- pular -->
<g id="node23" class="node"><title>pular</title>
<ellipse fill="lightblue" stroke="black" cx="916.213" cy="-33.9411" rx="25" ry="25"/>
<text text-anchor="middle" x="916.213" y="-31.7411" font-family="Times New Roman,serif" font-size="9.00">pular</text>
</g>
<!-- dintancia projetil 1&#45;&gt;pular -->
<g id="edge40" class="edge"><title>dintancia projetil 1&#45;&gt;pular</title>
<path fill="none" stroke="red" stroke-width="0.645404" d="M322.288,-115.937C332.013,-111.647 344.55,-106.706 356.213,-103.882 515.504,-65.3124 560.776,-89.6834 723.213,-67.8823 778.951,-60.4016 843.255,-48.8316 881.773,-41.5823"/>
<polygon fill="red" stroke="red" stroke-width="0.645404" points="882.751,-44.9594 891.925,-39.6592 881.448,-38.0817 882.751,-44.9594"/>
</g>
<!-- atirar -->
<g id="node24" class="node"><title>atirar</title>
<ellipse fill="lightblue" stroke="black" cx="1000.21" cy="-33.9411" rx="25" ry="25"/>
<text text-anchor="middle" x="1000.21" y="-31.7411" font-family="Times New Roman,serif" font-size="9.00">atirar</text>
</g>
<!-- dintancia projetil 1&#45;&gt;atirar -->
<g id="edge19" class="edge"><title>dintancia projetil 1&#45;&gt;atirar</title>
<path fill="none" stroke="red" stroke-width="1.21526" d="M321.788,-115.975C331.563,-111.583 344.313,-106.53 356.213,-103.882 614.384,-46.4379 699.284,-151.467 950.213,-67.8823 958.118,-65.249 965.975,-61.0352 973.039,-56.4889"/>
<polygon fill="red" stroke="red" stroke-width="1.21526" points="975.263,-59.2066 981.506,-50.6463 971.287,-53.4451 975.263,-59.2066"/>
</g>
<!-- distancia projetil 2 -->
<g id="node2" class="node"><title>distancia projetil 2</title>
<polygon fill="lightgray" stroke="black" points="660.713,-134.095 577.713,-134.095 577.713,-116.095 660.713,-116.095 660.713,-134.095"/>
<text text-anchor="middle" x="619.213" y="-122.895" font-family="Times New Roman,serif" font-size="9.00">distancia projetil 2</text>
</g>
<!-- distancia projetil 2&#45;&gt;esquerda -->
<g id="edge17" class="edge"><title>distancia projetil 2&#45;&gt;esquerda</title>
<path fill="none" stroke="green" stroke-width="0.246154" stroke-dasharray="1,5" d="M636.289,-115.94C646.014,-111.652 658.551,-106.711 670.213,-103.882 828.199,-65.5614 873.221,-90.4551 1034.21,-67.8823 1081.63,-61.234 1135.58,-51.0765 1172.15,-43.7992"/>
<polygon fill="green" stroke="green" stroke-width="0.246154" points="1172.87,-47.2252 1181.98,-41.8283 1171.49,-40.3616 1172.87,-47.2252"/>
</g>
<!-- distancia projetil 2&#45;&gt;direita -->
<g id="edge42" class="edge"><title>distancia projetil 2&#45;&gt;direita</title>
<path fill="none" stroke="green" stroke-width="0.182239" d="M623.735,-115.868C629.788,-104.855 640.874,-84.6846 650.463,-67.2367"/>
<polygon fill="green" stroke="green" stroke-width="0.182239" points="653.558,-68.8731 655.307,-58.4237 647.423,-65.5015 653.558,-68.8731"/>
</g>
<!-- distancia projetil 2&#45;&gt;atirar -->
<g id="edge59" class="edge"><title>distancia projetil 2&#45;&gt;atirar</title>
<path fill="none" stroke="red" stroke-width="0.19689" d="M636.322,-116.072C646.057,-111.825 658.594,-106.882 670.213,-103.882 791.7,-72.5239 832.577,-111.519 950.213,-67.8823 958.025,-64.9844 965.847,-60.6717 972.907,-56.1143"/>
<polygon fill="red" stroke="red" stroke-width="0.19689" points="975.118,-58.8423 981.384,-50.2989 971.158,-53.0701 975.118,-58.8423"/>
</g>
<!-- distancia projetil 3 -->
<g id="node3" class="node"><title>distancia projetil 3</title>
<polygon fill="lightgray" stroke="black" points="143.713,-134.095 60.7132,-134.095 60.7132,-116.095 143.713,-116.095 143.713,-134.095"/>
<text text-anchor="middle" x="102.213" y="-122.895" font-family="Times New Roman,serif" font-size="9.00">distancia projetil 3</text>
</g>
<!-- distancia projetil 3&#45;&gt;direita -->
<g id="edge45" class="edge"><title>distancia projetil 3&#45;&gt;direita</title>
<path fill="none" stroke="green" stroke-width="0.222994" d="M118.976,-116.085C128.517,-111.842 140.808,-106.898 152.213,-103.882 327.309,-57.5845 544.458,-41.5253 630.535,-36.7332"/>
<polygon fill="green" stroke="green" stroke-width="0.222994" points="630.811,-40.2234 640.608,-36.1909 630.435,-33.2336 630.811,-40.2234"/>
</g>
<!-- distancia projetil 3&#45;&gt;pular -->
<g id="edge30" class="edge"><title>distancia projetil 3&#45;&gt;pular</title>
<path fill="none" stroke="red" stroke-width="0.472362" d="M118.448,-115.982C128.027,-111.593 140.527,-106.539 152.213,-103.882 400.166,-47.5048 470.641,-97.3146 723.213,-67.8823 779.073,-61.3729 843.341,-49.5188 881.819,-41.947"/>
<polygon fill="red" stroke="red" stroke-width="0.472362" points="882.833,-45.314 891.959,-39.9329 881.469,-38.4482 882.833,-45.314"/>
</g>
<!-- distancia projetil 3&#45;&gt;atirar -->
<g id="edge13" class="edge"><title>distancia projetil 3&#45;&gt;atirar</title>
<path fill="none" stroke="green" stroke-width="0.250546" d="M118.431,-115.903C128.003,-111.488 140.503,-106.435 152.213,-103.882 325.654,-66.0744 781.369,-122.679 950.213,-67.8823 958.139,-65.3101 966.003,-61.1192 973.067,-56.5754"/>
<polygon fill="green" stroke="green" stroke-width="0.250546" points="975.295,-59.2907 981.532,-50.7265 971.315,-53.5317 975.295,-59.2907"/>
</g>
<!-- distancia projetil 4 -->
<g id="node4" class="node"><title>distancia projetil 4</title>
<polygon fill="lightgray" stroke="black" points="244.713,-134.095 161.713,-134.095 161.713,-116.095 244.713,-116.095 244.713,-134.095"/>
<text text-anchor="middle" x="203.213" y="-122.895" font-family="Times New Roman,serif" font-size="9.00">distancia projetil 4</text>
</g>
<!-- distancia projetil 4&#45;&gt;esquerda -->
<g id="edge51" class="edge"><title>distancia projetil 4&#45;&gt;esquerda</title>
<path fill="none" stroke="red" stroke-width="0.272283" d="M219.774,-115.91C229.544,-111.498 242.294,-106.444 254.213,-103.882 593.499,-30.9511 689.394,-107.039 1034.21,-67.8823 1081.79,-62.4799 1135.71,-52.1091 1172.23,-44.4412"/>
<polygon fill="red" stroke="red" stroke-width="0.272283" points="1173,-47.8568 1182.05,-42.3564 1171.54,-41.0094 1173,-47.8568"/>
</g>
<!-- distancia projetil 4&#45;&gt;direita -->
<g id="edge68" class="edge"><title>distancia projetil 4&#45;&gt;direita</title>
<path fill="none" stroke="green" stroke-width="0.427516" stroke-dasharray="1,5" d="M220.833,-116.039C230.514,-111.887 242.835,-107.046 254.213,-103.882 390.043,-66.118 557.043,-46.0567 630.506,-38.5108"/>
<polygon fill="green" stroke="green" stroke-width="0.427516" points="631.053,-41.9735 640.651,-37.4877 630.35,-35.0088 631.053,-41.9735"/>
</g>
<!-- distancia projetil 4&#45;&gt;pular -->
<g id="edge58" class="edge"><title>distancia projetil 4&#45;&gt;pular</title>
<path fill="none" stroke="green" stroke-width="0.349247" d="M219.804,-116.046C229.585,-111.679 242.335,-106.626 254.213,-103.882 457.909,-56.8374 515.731,-93.4962 723.213,-67.8823 779.027,-60.992 843.309,-49.2493 881.802,-41.804"/>
<polygon fill="green" stroke="green" stroke-width="0.349247" points="882.801,-45.1751 891.946,-39.8256 881.461,-38.3045 882.801,-45.1751"/>
</g>
<!-- distancia projetil 5 -->
<g id="node5" class="node"><title>distancia projetil 5</title>
<polygon fill="lightgray" stroke="black" points="2059.71,-134.095 1976.71,-134.095 1976.71,-116.095 2059.71,-116.095 2059.71,-134.095"/>
<text text-anchor="middle" x="2018.21" y="-122.895" font-family="Times New Roman,serif" font-size="9.00">distancia projetil 5</text>
</g>
<!-- release -->
<g id="node25" class="node"><title>release</title>
<ellipse fill="lightblue" stroke="black" cx="1423.21" cy="-33.9411" rx="28.9828" ry="28.9828"/>
<text text-anchor="middle" x="1423.21" y="-31.7411" font-family="Times New Roman,serif" font-size="9.00">release</text>
</g>
<!-- distancia projetil 5&#45;&gt;release -->
<g id="edge28" class="edge"><title>distancia projetil 5&#45;&gt;release</title>
<path fill="none" stroke="green" stroke-width="0.810021" d="M1999.1,-116.015C1988.42,-111.804 1974.77,-106.913 1962.21,-103.882 1778.48,-59.5401 1552.19,-42.3777 1462.5,-37.0118"/>
<polygon fill="green" stroke="green" stroke-width="0.810021" points="1462.43,-33.5023 1452.25,-36.4148 1462.03,-40.4905 1462.43,-33.5023"/>
</g>
<!-- distancia projetil 6 -->
<g id="node6" class="node"><title>distancia projetil 6</title>
<polygon fill="lightgray" stroke="black" points="1881.71,-134.095 1798.71,-134.095 1798.71,-116.095 1881.71,-116.095 1881.71,-134.095"/>
<text text-anchor="middle" x="1840.21" y="-122.895" font-family="Times New Roman,serif" font-size="9.00">distancia projetil 6</text>
</g>
<!-- distancia projetil 6&#45;&gt;esquerda -->
<g id="edge71" class="edge"><title>distancia projetil 6&#45;&gt;esquerda</title>
<path fill="none" stroke="red" stroke-width="0.28581" stroke-dasharray="1,5" d="M1823.95,-116.094C1814.36,-111.743 1801.86,-106.689 1790.21,-103.882 1614.53,-61.5564 1564.15,-93.104 1385.21,-67.8823 1341.78,-61.7602 1292.63,-51.9161 1258.39,-44.5813"/>
<polygon fill="red" stroke="red" stroke-width="0.28581" points="1258.78,-41.0848 1248.27,-42.3925 1257.3,-47.9267 1258.78,-41.0848"/>
</g>
<!-- distancia projetil 6&#45;&gt;atirar -->
<g id="edge70" class="edge"><title>distancia projetil 6&#45;&gt;atirar</title>
<path fill="none" stroke="green" stroke-width="0.493333" stroke-dasharray="1,5" d="M1823.98,-115.961C1814.41,-111.565 1801.91,-106.511 1790.21,-103.882 1521.78,-43.523 1445.24,-101.831 1172.21,-67.8823 1123.95,-61.8815 1068.85,-50.5194 1034.3,-42.8383"/>
<polygon fill="green" stroke="green" stroke-width="0.493333" points="1034.79,-39.3614 1024.27,-40.5828 1033.26,-46.191 1034.79,-39.3614"/>
</g>
<!-- distancia projetil 6&#45;&gt;release -->
<g id="edge29" class="edge"><title>distancia projetil 6&#45;&gt;release</title>
<path fill="none" stroke="green" stroke-width="0.341935" stroke-dasharray="1,5" d="M1822.47,-115.918C1813.05,-111.834 1801.18,-107.093 1790.21,-103.882 1673.28,-69.6328 1530.23,-48.5138 1462.44,-39.7057"/>
<polygon fill="green" stroke="green" stroke-width="0.341935" points="1462.59,-36.1958 1452.22,-38.3977 1461.7,-43.1392 1462.59,-36.1958"/>
</g>
<!-- distancia projetil 7 -->
<g id="node7" class="node"><title>distancia projetil 7</title>
<polygon fill="lightgray" stroke="black" points="1058.71,-134.095 975.713,-134.095 975.713,-116.095 1058.71,-116.095 1058.71,-134.095"/>
<text text-anchor="middle" x="1017.21" y="-122.895" font-family="Times New Roman,serif" font-size="9.00">distancia projetil 7</text>
</g>
<!-- distancia projetil 7&#45;&gt;esquerda -->
<g id="edge37" class="edge"><title>distancia projetil 7&#45;&gt;esquerda</title>
<path fill="none" stroke="green" stroke-width="0.158666" d="M1035.13,-116.026C1066.55,-101.88 1132.29,-72.2787 1175.05,-53.0255"/>
<polygon fill="green" stroke="green" stroke-width="0.158666" points="1176.65,-56.143 1184.33,-48.8459 1173.78,-49.7602 1176.65,-56.143"/>
</g>
<!-- distancia projetil 7&#45;&gt;direita -->
<g id="edge69" class="edge"><title>distancia projetil 7&#45;&gt;direita</title>
<path fill="none" stroke="green" stroke-width="0.101944" stroke-dasharray="1,5" d="M998.945,-115.903C989.585,-111.913 977.929,-107.26 967.213,-103.882 874.663,-74.705 762.431,-52.144 705.389,-41.5567"/>
<polygon fill="green" stroke="green" stroke-width="0.101944" points="705.865,-38.0857 695.397,-39.7203 704.6,-44.9704 705.865,-38.0857"/>
</g>
<!-- distancia projetil 7&#45;&gt;pular -->
<g id="edge52" class="edge"><title>distancia projetil 7&#45;&gt;pular</title>
<path fill="none" stroke="red" stroke-width="0.299996" d="M1007.89,-115.868C993.018,-102.738 963.394,-76.5886 941.835,-57.5578"/>
<polygon fill="red" stroke="red" stroke-width="0.299996" points="944.112,-54.8997 934.299,-50.9059 939.48,-60.1476 944.112,-54.8997"/>
</g>
<!-- distancia projetil 7&#45;&gt;atirar -->
<g id="edge55" class="edge"><title>distancia projetil 7&#45;&gt;atirar</title>
<path fill="none" stroke="green" stroke-width="0.574061" d="M1015.64,-115.868C1013.6,-105.158 1009.91,-85.788 1006.65,-68.6833"/>
<polygon fill="green" stroke="green" stroke-width="0.574061" points="1010,-67.5911 1004.69,-58.4237 1003.13,-68.9023 1010,-67.5911"/>
</g>
<!-- distancia projetil 7&#45;&gt;release -->
<g id="edge3" class="edge"><title>distancia projetil 7&#45;&gt;release</title>
<path fill="none" stroke="red" stroke-width="0.261343" stroke-dasharray="1,5" d="M1034.84,-116.067C1044.52,-111.924 1056.84,-107.082 1068.21,-103.882 1158.52,-78.4636 1184.19,-86.1453 1276.21,-67.8823 1313.39,-60.5045 1355.58,-50.9238 1385.2,-43.9984"/>
<polygon fill="red" stroke="red" stroke-width="0.261343" points="1386.18,-47.3617 1395.12,-41.6675 1384.58,-40.5472 1386.18,-47.3617"/>
</g>
<!-- distancia projetil 8 -->
<g id="node8" class="node"><title>distancia projetil 8</title>
<polygon fill="lightgray" stroke="black" points="856.713,-134.095 773.713,-134.095 773.713,-116.095 856.713,-116.095 856.713,-134.095"/>
<text text-anchor="middle" x="815.213" y="-122.895" font-family="Times New Roman,serif" font-size="9.00">distancia projetil 8</text>
</g>
<!-- distancia projetil 8&#45;&gt;esquerda -->
<g id="edge73" class="edge"><title>distancia projetil 8&#45;&gt;esquerda</title>
<path fill="none" stroke="red" stroke-width="0.425955" stroke-dasharray="1,5" d="M833.342,-115.975C842.961,-111.907 855.066,-107.162 866.213,-103.882 895.285,-95.3273 1084.92,-59.3662 1171.83,-43.0514"/>
<polygon fill="red" stroke="red" stroke-width="0.425955" points="1172.72,-46.4459 1181.9,-41.1624 1171.43,-39.5659 1172.72,-46.4459"/>
</g>
<!-- distancia projetil 8&#45;&gt;direita -->
<g id="edge14" class="edge"><title>distancia projetil 8&#45;&gt;direita</title>
<path fill="none" stroke="green" stroke-width="0.192073" stroke-dasharray="1,5" d="M801.909,-116.026C779.138,-102.216 732.082,-73.677 700.323,-54.4154"/>
<polygon fill="green" stroke="green" stroke-width="0.192073" points="701.769,-51.1988 691.403,-49.0056 698.138,-57.184 701.769,-51.1988"/>
</g>
<!-- distancia projetil 8&#45;&gt;atirar -->
<g id="edge46" class="edge"><title>distancia projetil 8&#45;&gt;atirar</title>
<path fill="none" stroke="red" stroke-width="0.389918" d="M835.107,-116.053C869.994,-101.914 939.537,-73.5572 950.213,-67.8823 957.442,-64.0401 964.954,-59.4446 971.892,-54.9228"/>
<polygon fill="red" stroke="red" stroke-width="0.389918" points="973.94,-57.764 980.309,-49.2969 970.05,-51.9445 973.94,-57.764"/>
</g>
<!-- distancia projetil 9 -->
<g id="node9" class="node"><title>distancia projetil 9</title>
<polygon fill="lightgray" stroke="black" points="1780.71,-134.095 1697.71,-134.095 1697.71,-116.095 1780.71,-116.095 1780.71,-134.095"/>
<text text-anchor="middle" x="1739.21" y="-122.895" font-family="Times New Roman,serif" font-size="9.00">distancia projetil 9</text>
</g>
<!-- distancia projetil 9&#45;&gt;esquerda -->
<g id="edge48" class="edge"><title>distancia projetil 9&#45;&gt;esquerda</title>
<path fill="none" stroke="red" stroke-width="0.155079" d="M1722.12,-116.029C1712.38,-111.768 1699.85,-106.826 1688.21,-103.882 1556.74,-70.6198 1519.2,-88.7953 1385.21,-67.8823 1341.87,-61.118 1292.71,-51.3637 1258.45,-44.225"/>
<polygon fill="red" stroke="red" stroke-width="0.155079" points="1258.82,-40.7269 1248.31,-42.0997 1257.38,-47.5779 1258.82,-40.7269"/>
</g>
<!-- distancia projetil 9&#45;&gt;atirar -->
<g id="edge66" class="edge"><title>distancia projetil 9&#45;&gt;atirar</title>
<path fill="none" stroke="red" stroke-width="0.143754" stroke-dasharray="1,5" d="M1722.63,-116.015C1712.85,-111.638 1700.1,-106.584 1688.21,-103.882 1464.04,-52.9284 1400.18,-97.5564 1172.21,-67.8823 1123.99,-61.6049 1068.88,-50.3118 1034.31,-42.7215"/>
<polygon fill="red" stroke="red" stroke-width="0.143754" points="1034.8,-39.2439 1024.28,-40.4944 1033.28,-46.0776 1034.8,-39.2439"/>
</g>
<!-- distancia projetil 9&#45;&gt;release -->
<g id="edge53" class="edge"><title>distancia projetil 9&#45;&gt;release</title>
<path fill="none" stroke="red" stroke-width="0.430389" d="M1720.52,-116.049C1710.96,-112.097 1699.08,-107.433 1688.21,-103.882 1608.57,-77.8499 1512.98,-54.9848 1461.16,-43.2651"/>
<polygon fill="red" stroke="red" stroke-width="0.430389" points="1461.92,-39.8486 1451.39,-41.0721 1460.38,-46.6784 1461.92,-39.8486"/>
</g>
<!-- distancia projetil 10 -->
<g id="node10" class="node"><title>distancia projetil 10</title>
<polygon fill="lightgray" stroke="black" points="1467.21,-134.095 1379.21,-134.095 1379.21,-116.095 1467.21,-116.095 1467.21,-134.095"/>
<text text-anchor="middle" x="1423.21" y="-122.895" font-family="Times New Roman,serif" font-size="9.00">distancia projetil 10</text>
</g>
<!-- distancia projetil 10&#45;&gt;esquerda -->
<g id="edge65" class="edge"><title>distancia projetil 10&#45;&gt;esquerda</title>
<path fill="none" stroke="red" stroke-width="0.376014" d="M1404.39,-116.026C1370.94,-101.69 1300.47,-71.4831 1255.61,-52.2576"/>
<polygon fill="red" stroke="red" stroke-width="0.376014" points="1256.75,-48.9363 1246.18,-48.2136 1253.99,-55.3702 1256.75,-48.9363"/>
</g>
<!-- distancia projetil 10&#45;&gt;pular -->
<g id="edge1" class="edge"><title>distancia projetil 10&#45;&gt;pular</title>
<path fill="none" stroke="red" stroke-width="0.164402" d="M1405.45,-115.909C1395.33,-111.61 1382.3,-106.67 1370.21,-103.882 1194.56,-63.38 1136.42,-127.27 966.213,-67.8823 958.346,-65.1372 950.504,-60.8817 943.442,-56.3307"/>
<polygon fill="red" stroke="red" stroke-width="0.164402" points="945.192,-53.2868 934.971,-50.4996 941.223,-59.0528 945.192,-53.2868"/>
</g>
<!-- distancia projetil 10&#45;&gt;atirar -->
<g id="edge18" class="edge"><title>distancia projetil 10&#45;&gt;atirar</title>
<path fill="none" stroke="green" stroke-width="0.362046" d="M1404.36,-115.933C1394.36,-111.853 1381.79,-107.111 1370.21,-103.882 1284.06,-79.8438 1260.14,-84.2945 1172.21,-67.8823 1124.41,-58.9586 1069.19,-48.3261 1034.49,-41.604"/>
<polygon fill="green" stroke="green" stroke-width="0.362046" points="1034.89,-38.1171 1024.41,-39.6496 1033.56,-44.9892 1034.89,-38.1171"/>
</g>
<!-- distancia projetil 10&#45;&gt;release -->
<g id="edge26" class="edge"><title>distancia projetil 10&#45;&gt;release</title>
<path fill="none" stroke="green" stroke-width="0.34361" d="M1423.21,-115.868C1423.21,-106.108 1423.21,-89.1554 1423.21,-73.2796"/>
<polygon fill="green" stroke="green" stroke-width="0.34361" points="1426.71,-73.0889 1423.21,-63.0889 1419.71,-73.0889 1426.71,-73.0889"/>
</g>
<!-- distancia projetil 11 -->
<g id="node11" class="node"><title>distancia projetil 11</title>
<polygon fill="lightgray" stroke="black" points="453.213,-134.095 365.213,-134.095 365.213,-116.095 453.213,-116.095 453.213,-134.095"/>
<text text-anchor="middle" x="409.213" y="-122.895" font-family="Times New Roman,serif" font-size="9.00">distancia projetil 11</text>
</g>
<!-- distancia projetil 11&#45;&gt;pular -->
<g id="edge5" class="edge"><title>distancia projetil 11&#45;&gt;pular</title>
<path fill="none" stroke="red" stroke-width="0.233081" d="M427.52,-115.932C437.579,-111.749 450.384,-106.912 462.213,-103.882 575.651,-74.8312 607.484,-85.7352 723.213,-67.8823 778.793,-59.3082 843.143,-48.0581 881.714,-41.1719"/>
<polygon fill="red" stroke="red" stroke-width="0.233081" points="882.654,-44.5593 891.88,-39.3512 881.42,-37.6689 882.654,-44.5593"/>
</g>
<!-- distancia projetil 11&#45;&gt;atirar -->
<g id="edge43" class="edge"><title>distancia projetil 11&#45;&gt;atirar</title>
<path fill="none" stroke="green" stroke-width="0.126229" stroke-dasharray="1,5" d="M426.485,-116.043C436.659,-111.674 449.909,-106.621 462.213,-103.882 674.497,-56.6353 744.336,-137.962 950.213,-67.8823 958.101,-65.1972 965.951,-60.9642 973.014,-56.4157"/>
<polygon fill="green" stroke="green" stroke-width="0.126229" points="975.236,-59.1354 981.483,-50.5783 971.263,-53.3719 975.236,-59.1354"/>
</g>
<!-- distancia projetil 12 -->
<g id="node12" class="node"><title>distancia projetil 12</title>
<polygon fill="lightgray" stroke="black" points="1573.21,-134.095 1485.21,-134.095 1485.21,-116.095 1573.21,-116.095 1573.21,-134.095"/>
<text text-anchor="middle" x="1529.21" y="-122.895" font-family="Times New Roman,serif" font-size="9.00">distancia projetil 12</text>
</g>
<!-- distancia projetil 12&#45;&gt;esquerda -->
<g id="edge8" class="edge"><title>distancia projetil 12&#45;&gt;esquerda</title>
<path fill="none" stroke="red" stroke-width="0.111435" d="M1509.51,-116.009C1499.61,-112.092 1487.37,-107.472 1476.21,-103.882 1400.3,-79.4563 1309.99,-57.0434 1257.97,-44.7586"/>
<polygon fill="red" stroke="red" stroke-width="0.111435" points="1258.62,-41.3175 1248.09,-42.4391 1257.02,-48.1322 1258.62,-41.3175"/>
</g>
<!-- distancia projetil 12&#45;&gt;pular -->
<g id="edge38" class="edge"><title>distancia projetil 12&#45;&gt;pular</title>
<path fill="none" stroke="green" stroke-width="0.28588" stroke-dasharray="1,5" d="M1511.94,-116.028C1501.77,-111.655 1488.52,-106.601 1476.21,-103.882 1254.33,-54.8678 1181.44,-140.764 966.213,-67.8823 958.321,-65.2097 950.469,-60.9813 943.406,-56.4333"/>
<polygon fill="green" stroke="green" stroke-width="0.28588" points="945.158,-53.3895 934.938,-50.5947 941.184,-59.1526 945.158,-53.3895"/>
</g>
<!-- distancia projetil 12&#45;&gt;atirar -->
<g id="edge57" class="edge"><title>distancia projetil 12&#45;&gt;atirar</title>
<path fill="none" stroke="green" stroke-width="0.398462" stroke-dasharray="1,5" d="M1511.41,-116.044C1501.29,-111.788 1488.26,-106.845 1476.21,-103.882 1344.09,-71.3945 1306.67,-88.6915 1172.21,-67.8823 1124.15,-60.4442 1069,-49.4409 1034.38,-42.2314"/>
<polygon fill="green" stroke="green" stroke-width="0.398462" points="1034.84,-38.75 1024.33,-40.1239 1033.4,-45.6011 1034.84,-38.75"/>
</g>
<!-- distancia projetil 12&#45;&gt;release -->
<g id="edge15" class="edge"><title>distancia projetil 12&#45;&gt;release</title>
<path fill="none" stroke="green" stroke-width="0.636249" d="M1519.43,-115.868C1504.46,-103.275 1475.25,-78.7077 1452.92,-59.9294"/>
<polygon fill="green" stroke="green" stroke-width="0.636249" points="1454.95,-57.0641 1445.05,-53.3059 1450.45,-62.4212 1454.95,-57.0641"/>
</g>
<!-- distancia projetil 13 -->
<g id="node13" class="node"><title>distancia projetil 13</title>
<polygon fill="lightgray" stroke="black" points="1954.21,-200.309 1866.21,-200.309 1866.21,-182.309 1954.21,-182.309 1954.21,-200.309"/>
<text text-anchor="middle" x="1910.21" y="-189.109" font-family="Times New Roman,serif" font-size="9.00">distancia projetil 13</text>
</g>
<!-- distancia projetil 13&#45;&gt;esquerda -->
<g id="edge72" class="edge"><title>distancia projetil 13&#45;&gt;esquerda</title>
<path fill="none" stroke="green" stroke-width="0.243377" d="M1911.27,-182.073C1913.01,-164.596 1914.23,-123.773 1891.21,-103.882 1848.57,-67.0263 1441.09,-75.2568 1385.21,-67.8823 1341.73,-62.1433 1292.59,-52.2456 1258.37,-44.7939"/>
<polygon fill="green" stroke="green" stroke-width="0.243377" points="1258.76,-41.2981 1248.25,-42.5671 1257.26,-48.1345 1258.76,-41.2981"/>
</g>
<!-- distancia projetil 13&#45;&gt;release -->
<g id="edge63" class="edge"><title>distancia projetil 13&#45;&gt;release</title>
<path fill="none" stroke="red" stroke-width="0.293963" d="M1915.24,-182.249C1924.99,-165.466 1943.89,-126.453 1924.21,-103.882 1893.89,-69.1017 1575.54,-44.9544 1462.64,-37.43"/>
<polygon fill="red" stroke="red" stroke-width="0.293963" points="1462.58,-33.9187 1452.37,-36.754 1462.12,-40.9035 1462.58,-33.9187"/>
</g>
<!-- 729 -->
<g id="node26" class="node"><title>729</title>
<ellipse fill="white" stroke="black" cx="21.2132" cy="-125.095" rx="21.4286" ry="21.4286"/>
<text text-anchor="middle" x="21.2132" y="-122.895" font-family="Times New Roman,serif" font-size="9.00">729</text>
</g>
<!-- distancia projetil 13&#45;&gt;729 -->
<g id="edge12" class="edge"><title>distancia projetil 13&#45;&gt;729</title>
<path fill="none" stroke="red" stroke-width="0.31064" stroke-dasharray="1,5" d="M1866.17,-189.966C1593.15,-187.758 140.373,-174.701 51.2132,-146.309 49.5264,-145.772 47.8474,-145.108 46.1948,-144.351"/>
<polygon fill="red" stroke="red" stroke-width="0.31064" points="47.5798,-141.114 37.1503,-139.25 44.1409,-147.211 47.5798,-141.114"/>
</g>
<!-- distancia projetil 14 -->
<g id="node14" class="node"><title>distancia projetil 14</title>
<polygon fill="lightgray" stroke="black" points="1679.21,-134.095 1591.21,-134.095 1591.21,-116.095 1679.21,-116.095 1679.21,-134.095"/>
<text text-anchor="middle" x="1635.21" y="-122.895" font-family="Times New Roman,serif" font-size="9.00">distancia projetil 14</text>
</g>
<!-- distancia projetil 14&#45;&gt;esquerda -->
<g id="edge54" class="edge"><title>distancia projetil 14&#45;&gt;esquerda</title>
<path fill="none" stroke="green" stroke-width="0.106112" stroke-dasharray="1,5" d="M1616.36,-115.937C1606.36,-111.859 1593.78,-107.116 1582.21,-103.882 1496.49,-79.923 1472.68,-84.3484 1385.21,-67.8823 1342.11,-59.7674 1292.91,-50.2021 1258.58,-43.4757"/>
<polygon fill="green" stroke="green" stroke-width="0.106112" points="1258.91,-39.9738 1248.42,-41.484 1257.56,-46.843 1258.91,-39.9738"/>
</g>
<!-- distancia projetil 14&#45;&gt;pular -->
<g id="edge62" class="edge"><title>distancia projetil 14&#45;&gt;pular</title>
<path fill="none" stroke="green" stroke-width="0.356584" stroke-dasharray="1,5" d="M1617.96,-115.972C1607.79,-111.58 1594.54,-106.527 1582.21,-103.882 1314.07,-46.3473 1226.5,-154.271 966.213,-67.8823 958.305,-65.2575 950.447,-61.047 943.384,-56.501"/>
<polygon fill="green" stroke="green" stroke-width="0.356584" points="945.135,-53.4572 934.917,-50.6575 941.159,-59.2183 945.135,-53.4572"/>
</g>
<!-- distancia projetil 14&#45;&gt;release -->
<g id="edge50" class="edge"><title>distancia projetil 14&#45;&gt;release</title>
<path fill="none" stroke="red" stroke-width="0.265439" d="M1616.03,-116.026C1580.61,-101.131 1504.45,-69.1029 1459.16,-50.0601"/>
<polygon fill="red" stroke="red" stroke-width="0.265439" points="1460.3,-46.7402 1449.72,-46.0899 1457.59,-53.1928 1460.3,-46.7402"/>
</g>
<!-- distancia projetil 15 -->
<g id="node15" class="node"><title>distancia projetil 15</title>
<polygon fill="lightgray" stroke="black" points="559.213,-134.095 471.213,-134.095 471.213,-116.095 559.213,-116.095 559.213,-134.095"/>
<text text-anchor="middle" x="515.213" y="-122.895" font-family="Times New Roman,serif" font-size="9.00">distancia projetil 15</text>
</g>
<!-- distancia projetil 15&#45;&gt;esquerda -->
<g id="edge39" class="edge"><title>distancia projetil 15&#45;&gt;esquerda</title>
<path fill="none" stroke="red" stroke-width="0.544407" d="M532.489,-116.059C542.664,-111.695 555.914,-106.642 568.213,-103.882 770.902,-58.4025 828.199,-94.5148 1034.21,-67.8823 1081.7,-61.7437 1135.63,-51.4989 1172.19,-44.0618"/>
<polygon fill="red" stroke="red" stroke-width="0.544407" points="1172.92,-47.4837 1182.01,-42.0444 1171.51,-40.6267 1172.92,-47.4837"/>
</g>
<!-- distancia projetil 15&#45;&gt;direita -->
<g id="edge25" class="edge"><title>distancia projetil 15&#45;&gt;direita</title>
<path fill="none" stroke="red" stroke-width="0.490746" d="M529.061,-116.026C552.997,-102.078 602.716,-73.1067 635.776,-53.8423"/>
<polygon fill="red" stroke="red" stroke-width="0.490746" points="637.746,-56.7455 644.624,-48.6868 634.222,-50.6974 637.746,-56.7455"/>
</g>
<!-- distancia projetil 15&#45;&gt;pular -->
<g id="edge9" class="edge"><title>distancia projetil 15&#45;&gt;pular</title>
<path fill="none" stroke="red" stroke-width="0.418786" d="M534.084,-116.008C544.088,-111.948 556.667,-107.202 568.213,-103.882 627.291,-86.8965 805.817,-54.4845 881.597,-41.0299"/>
<polygon fill="red" stroke="red" stroke-width="0.418786" points="882.349,-44.4513 891.585,-39.2608 881.128,-37.5586 882.349,-44.4513"/>
</g>
<!-- distancia projetil 15&#45;&gt;atirar -->
<g id="edge67" class="edge"><title>distancia projetil 15&#45;&gt;atirar</title>
<path fill="none" stroke="red" stroke-width="0.111244" stroke-dasharray="1,5" d="M532.986,-115.933C543.101,-111.642 556.129,-106.701 568.213,-103.882 734.285,-65.145 789.346,-124.472 950.213,-67.8823 958.073,-65.1172 965.913,-60.8542 972.975,-56.3024"/>
<polygon fill="red" stroke="red" stroke-width="0.111244" points="975.192,-59.0252 981.447,-50.4733 971.224,-53.2585 975.192,-59.0252"/>
</g>
<!-- distancia projetil 16 -->
<g id="node16" class="node"><title>distancia projetil 16</title>
<polygon fill="lightgray" stroke="black" points="1259.21,-134.095 1171.21,-134.095 1171.21,-116.095 1259.21,-116.095 1259.21,-134.095"/>
<text text-anchor="middle" x="1215.21" y="-122.895" font-family="Times New Roman,serif" font-size="9.00">distancia projetil 16</text>
</g>
<!-- distancia projetil 16&#45;&gt;esquerda -->
<g id="edge27" class="edge"><title>distancia projetil 16&#45;&gt;esquerda</title>
<path fill="none" stroke="green" stroke-width="0.414502" d="M1215.21,-115.868C1215.21,-107.126 1215.21,-92.615 1215.21,-78.2752"/>
<polygon fill="green" stroke="green" stroke-width="0.414502" points="1218.71,-77.9489 1215.21,-67.9489 1211.71,-77.9489 1218.71,-77.9489"/>
</g>
<!-- distancia projetil 16&#45;&gt;direita -->
<g id="edge44" class="edge"><title>distancia projetil 16&#45;&gt;direita</title>
<path fill="none" stroke="green" stroke-width="0.224323" d="M1197.4,-116.091C1187.27,-111.849 1174.25,-106.905 1162.21,-103.882 1040.53,-73.3137 1006.45,-85.4279 882.213,-67.8823 820.147,-59.1167 748.14,-47.794 705.477,-40.9645"/>
<polygon fill="green" stroke="green" stroke-width="0.224323" points="705.972,-37.4994 695.544,-39.3708 704.863,-44.411 705.972,-37.4994"/>
</g>
<!-- distancia projetil 16&#45;&gt;pular -->
<g id="edge64" class="edge"><title>distancia projetil 16&#45;&gt;pular</title>
<path fill="none" stroke="red" stroke-width="0.109608" d="M1196.36,-115.941C1186.36,-111.864 1173.78,-107.122 1162.21,-103.882 1076.92,-80.0022 1048.39,-100.907 966.213,-67.8823 958.482,-64.7754 950.69,-60.3846 943.634,-55.8185"/>
<polygon fill="red" stroke="red" stroke-width="0.109608" points="945.381,-52.7735 935.149,-50.0245 941.433,-58.5542 945.381,-52.7735"/>
</g>
<!-- distancia projetil 16&#45;&gt;atirar -->
<g id="edge6" class="edge"><title>distancia projetil 16&#45;&gt;atirar</title>
<path fill="none" stroke="green" stroke-width="0.122704" d="M1195.75,-116.026C1158.68,-100.652 1077.58,-67.0244 1032.34,-48.2635"/>
<polygon fill="green" stroke="green" stroke-width="0.122704" points="1033.57,-44.9844 1022.99,-44.3869 1030.89,-51.4505 1033.57,-44.9844"/>
</g>
<!-- distancia projetil 16&#45;&gt;release -->
<g id="edge22" class="edge"><title>distancia projetil 16&#45;&gt;release</title>
<path fill="none" stroke="red" stroke-width="0.513693" stroke-dasharray="1,5" d="M1234.04,-116.026C1268.7,-101.171 1343.11,-69.2746 1387.58,-50.2135"/>
<polygon fill="red" stroke="red" stroke-width="0.513693" points="1389.05,-53.3934 1396.86,-46.2368 1386.29,-46.9596 1389.05,-53.3934"/>
</g>
<!-- distancia inimigo 1 -->
<g id="node17" class="node"><title>distancia inimigo 1</title>
<polygon fill="lightgray" stroke="black" points="1360.71,-134.095 1277.71,-134.095 1277.71,-116.095 1360.71,-116.095 1360.71,-134.095"/>
<text text-anchor="middle" x="1319.21" y="-122.895" font-family="Times New Roman,serif" font-size="9.00">distancia inimigo 1</text>
</g>
<!-- distancia inimigo 1&#45;&gt;esquerda -->
<g id="edge7" class="edge"><title>distancia inimigo 1&#45;&gt;esquerda</title>
<path fill="none" stroke="green" stroke-width="0.347876" d="M1309.62,-115.868C1295.88,-104.095 1269.94,-81.8553 1248.72,-63.6651"/>
<polygon fill="green" stroke="green" stroke-width="0.347876" points="1250.72,-60.7732 1240.85,-56.9221 1246.17,-66.0878 1250.72,-60.7732"/>
</g>
<!-- distancia inimigo 1&#45;&gt;pular -->
<g id="edge36" class="edge"><title>distancia inimigo 1&#45;&gt;pular</title>
<path fill="none" stroke="green" stroke-width="0.664884" d="M1302.12,-116.031C1292.38,-111.771 1279.85,-106.828 1268.21,-103.882 1137.18,-70.7027 1093.16,-114.309 966.213,-67.8823 958.388,-65.0204 950.561,-60.7212 943.501,-56.1654"/>
<polygon fill="green" stroke="green" stroke-width="0.664884" points="945.25,-53.1213 935.025,-50.3462 941.288,-58.8919 945.25,-53.1213"/>
</g>
<!-- distancia inimigo 1&#45;&gt;atirar -->
<g id="edge23" class="edge"><title>distancia inimigo 1&#45;&gt;atirar</title>
<path fill="none" stroke="red" stroke-width="0.303037" d="M1300.53,-116.037C1290.97,-112.081 1279.08,-107.418 1268.21,-103.882 1185.51,-76.9733 1085.76,-53.6473 1034.43,-42.2927"/>
<polygon fill="red" stroke="red" stroke-width="0.303037" points="1035.05,-38.8454 1024.53,-40.1191 1033.54,-45.6825 1035.05,-38.8454"/>
</g>
<!-- distancia inimigo 1&#45;&gt;release -->
<g id="edge10" class="edge"><title>distancia inimigo 1&#45;&gt;release</title>
<path fill="none" stroke="green" stroke-width="0.430693" stroke-dasharray="1,5" d="M1328.81,-115.868C1343.41,-103.352 1371.81,-79.0068 1393.66,-60.2735"/>
<polygon fill="green" stroke="green" stroke-width="0.430693" points="1396.07,-62.8237 1401.38,-53.658 1391.51,-57.5091 1396.07,-62.8237"/>
</g>
<!-- distancia inimigo 2 -->
<g id="node18" class="node"><title>distancia inimigo 2</title>
<polygon fill="lightgray" stroke="black" points="957.713,-134.095 874.713,-134.095 874.713,-116.095 957.713,-116.095 957.713,-134.095"/>
<text text-anchor="middle" x="916.213" y="-122.895" font-family="Times New Roman,serif" font-size="9.00">distancia inimigo 2</text>
</g>
<!-- distancia inimigo 2&#45;&gt;esquerda -->
<g id="edge33" class="edge"><title>distancia inimigo 2&#45;&gt;esquerda</title>
<path fill="none" stroke="green" stroke-width="0.130365" d="M935.409,-115.928C944.892,-112.037 956.56,-107.463 967.213,-103.882 1038.35,-79.9735 1122.87,-57.766 1172.61,-45.316"/>
<polygon fill="green" stroke="green" stroke-width="0.130365" points="1173.52,-48.6963 1182.38,-42.8844 1171.83,-41.9036 1173.52,-48.6963"/>
</g>
<!-- distancia inimigo 2&#45;&gt;direita -->
<g id="edge11" class="edge"><title>distancia inimigo 2&#45;&gt;direita</title>
<path fill="none" stroke="red" stroke-width="0.285694" stroke-dasharray="1,5" d="M896.829,-116.001C887.599,-112.213 876.38,-107.704 866.213,-103.882 809.834,-82.6856 743.612,-60.0864 703.828,-46.7544"/>
<polygon fill="red" stroke="red" stroke-width="0.285694" points="704.899,-43.4221 694.306,-43.571 702.68,-50.061 704.899,-43.4221"/>
</g>
<!-- distancia inimigo 2&#45;&gt;pular -->
<g id="edge31" class="edge"><title>distancia inimigo 2&#45;&gt;pular</title>
<path fill="none" stroke="green" stroke-width="0.650473" d="M916.213,-115.868C916.213,-105.23 916.213,-86.0459 916.213,-69.0257"/>
<polygon fill="green" stroke="green" stroke-width="0.650473" points="919.713,-68.8035 916.213,-58.8036 912.713,-68.8036 919.713,-68.8035"/>
</g>
<!-- distancia inimigo 2&#45;&gt;atirar -->
<g id="edge41" class="edge"><title>distancia inimigo 2&#45;&gt;atirar</title>
<path fill="none" stroke="green" stroke-width="0.784174" stroke-dasharray="1,5" d="M923.965,-115.868C935.764,-103.345 958.72,-78.9806 976.374,-60.2433"/>
<polygon fill="green" stroke="green" stroke-width="0.784174" points="979.257,-62.2869 983.567,-52.6084 974.162,-57.4866 979.257,-62.2869"/>
</g>
<!-- distancia inimigo 2&#45;&gt;release -->
<g id="edge60" class="edge"><title>distancia inimigo 2&#45;&gt;release</title>
<path fill="none" stroke="red" stroke-width="0.192246" d="M933.308,-116.019C943.039,-111.755 955.576,-106.812 967.213,-103.882 1101.29,-70.1228 1139.9,-91.0305 1276.21,-67.8823 1313.58,-61.5369 1355.75,-51.8198 1385.3,-44.5816"/>
<polygon fill="red" stroke="red" stroke-width="0.192246" points="1386.34,-47.9317 1395.21,-42.1343 1384.66,-41.1362 1386.34,-47.9317"/>
</g>
<!-- direcao sprites 1 -->
<g id="node19" class="node"><title>direcao sprites 1</title>
<polygon fill="lightgray" stroke="black" points="755.213,-134.095 679.213,-134.095 679.213,-116.095 755.213,-116.095 755.213,-134.095"/>
<text text-anchor="middle" x="717.213" y="-122.895" font-family="Times New Roman,serif" font-size="9.00">direcao sprites 1</text>
</g>
<!-- direcao sprites 1&#45;&gt;direita -->
<g id="edge34" class="edge"><title>direcao sprites 1&#45;&gt;direita</title>
<path fill="none" stroke="red" stroke-width="0.304949" d="M712.691,-115.868C706.639,-104.855 695.553,-84.6846 685.963,-67.2367"/>
<polygon fill="red" stroke="red" stroke-width="0.304949" points="689.003,-65.5015 681.119,-58.4237 682.869,-68.8731 689.003,-65.5015"/>
</g>
<!-- direcao sprites 1&#45;&gt;pular -->
<g id="edge21" class="edge"><title>direcao sprites 1&#45;&gt;pular</title>
<path fill="none" stroke="green" stroke-width="0.180988" d="M735.224,-116.026C769.042,-100.876 842.427,-67.9984 884.629,-49.0911"/>
<polygon fill="green" stroke="green" stroke-width="0.180988" points="886.195,-52.2248 893.89,-44.9421 883.333,-45.8366 886.195,-52.2248"/>
</g>
<!-- direcao sprites 1&#45;&gt;atirar -->
<g id="edge4" class="edge"><title>direcao sprites 1&#45;&gt;atirar</title>
<path fill="none" stroke="red" stroke-width="0.13932" d="M734.225,-115.918C743.264,-111.835 754.66,-107.094 765.213,-103.882 845.35,-79.498 872.655,-99.5249 950.213,-67.8823 957.928,-64.7347 965.714,-60.3287 972.769,-55.7609"/>
<polygon fill="red" stroke="red" stroke-width="0.13932" points="974.968,-58.4981 981.256,-49.9711 971.023,-52.7156 974.968,-58.4981"/>
</g>
<!-- direcao sprites 1&#45;&gt;release -->
<g id="edge61" class="edge"><title>direcao sprites 1&#45;&gt;release</title>
<path fill="none" stroke="red" stroke-width="0.383827" d="M732.77,-116.005C741.956,-111.624 753.956,-106.571 765.213,-103.882 986.658,-50.9913 1050.94,-100.867 1276.21,-67.8823 1313.71,-62.3913 1355.86,-52.5613 1385.38,-45.0643"/>
<polygon fill="red" stroke="red" stroke-width="0.383827" points="1386.45,-48.4022 1395.27,-42.5207 1384.71,-41.623 1386.45,-48.4022"/>
</g>
<!-- direcao sprites 2 -->
<g id="node20" class="node"><title>direcao sprites 2</title>
<polygon fill="lightgray" stroke="black" points="1153.21,-134.095 1077.21,-134.095 1077.21,-116.095 1153.21,-116.095 1153.21,-134.095"/>
<text text-anchor="middle" x="1115.21" y="-122.895" font-family="Times New Roman,serif" font-size="9.00">direcao sprites 2</text>
</g>
<!-- direcao sprites 2&#45;&gt;direita -->
<g id="edge56" class="edge"><title>direcao sprites 2&#45;&gt;direita</title>
<path fill="none" stroke="red" stroke-width="0.202246" d="M1099.03,-116.014C1090.13,-111.855 1078.77,-107.015 1068.21,-103.882 1033.61,-93.6172 798.251,-55.6346 705.588,-40.8676"/>
<polygon fill="red" stroke="red" stroke-width="0.202246" points="705.956,-37.3822 695.53,-39.2667 704.855,-44.2952 705.956,-37.3822"/>
</g>
<!-- direcao sprites 2&#45;&gt;atirar -->
<g id="edge16" class="edge"><title>direcao sprites 2&#45;&gt;atirar</title>
<path fill="none" stroke="red" stroke-width="0.480423" stroke-dasharray="1,5" d="M1104.6,-115.868C1087.22,-102.39 1052.14,-75.1952 1027.46,-56.062"/>
<polygon fill="red" stroke="red" stroke-width="0.480423" points="1029.57,-53.2747 1019.53,-49.9138 1025.29,-58.8069 1029.57,-53.2747"/>
</g>
<!-- direcao sprites 2&#45;&gt;release -->
<g id="edge47" class="edge"><title>direcao sprites 2&#45;&gt;release</title>
<path fill="none" stroke="green" stroke-width="0.291512" stroke-dasharray="1,5" d="M1132.38,-115.986C1141.18,-112.017 1152.14,-107.358 1162.21,-103.882 1239.93,-77.0713 1333.69,-54.6337 1385.01,-43.1643"/>
<polygon fill="green" stroke="green" stroke-width="0.291512" points="1385.99,-46.5325 1395,-40.9521 1384.48,-39.6982 1385.99,-46.5325"/>
</g>
<!-- esquerda&#45;&gt;esquerda -->
<g id="edge35" class="edge"><title>esquerda&#45;&gt;esquerda</title>
<path fill="none" stroke="red" stroke-width="0.329681" d="M1244.84,-50.6915C1256.95,-51.7414 1267.15,-46.1579 1267.15,-33.9411 1267.15,-25.3512 1262.11,-20.0407 1254.9,-18.0096"/>
<polygon fill="red" stroke="red" stroke-width="0.329681" points="1255.09,-14.5136 1244.84,-17.1908 1254.53,-21.4905 1255.09,-14.5136"/>
</g>
<!-- direita&#45;&gt;direita -->
<g id="edge32" class="edge"><title>direita&#45;&gt;direita</title>
<path fill="none" stroke="green" stroke-width="0.305209" d="M690.725,-50.1199C702.795,-52.8692 713.79,-47.4763 713.79,-33.9411 713.79,-24.4242 708.354,-18.9327 700.931,-17.4666"/>
<polygon fill="green" stroke="green" stroke-width="0.305209" points="700.62,-13.9741 690.725,-17.7624 700.823,-20.9711 700.62,-13.9741"/>
</g>
<!-- release&#45;&gt;release -->
<g id="edge24" class="edge"><title>release&#45;&gt;release</title>
<path fill="none" stroke="red" stroke-width="0.323055" d="M1447.39,-50.3176C1459.45,-52.5836 1470.2,-47.1247 1470.2,-33.9411 1470.2,-24.6714 1464.89,-19.2207 1457.54,-17.589"/>
<polygon fill="red" stroke="red" stroke-width="0.323055" points="1457.4,-14.0888 1447.39,-17.5646 1457.38,-21.0887 1457.4,-14.0888"/>
</g>
<!-- 729&#45;&gt;direita -->
<g id="edge49" class="edge"><title>729&#45;&gt;direita</title>
<path fill="none" stroke="red" stroke-width="0.306616" d="M37.5681,-111.027C41.799,-108.239 46.4972,-105.615 51.2132,-103.882 158.766,-64.3675 513.252,-42.9353 630.32,-36.8056"/>
<polygon fill="red" stroke="red" stroke-width="0.306616" points="630.769,-40.2872 640.575,-36.2762 630.408,-33.2965 630.769,-40.2872"/>
</g>
</g>
</svg>
