<?xml version="1.0" encoding="UTF-8" standalone="no"?>
<!DOCTYPE svg PUBLIC "-//W3C//DTD SVG 1.1//EN"
 "http://www.w3.org/Graphics/SVG/1.1/DTD/svg11.dtd">
<!-- Generated by graphviz version 2.38.0 (20140413.2041)
 -->
<!-- Title: %3 Pages: 1 -->
<svg width="2203pt" height="386pt"
 viewBox="0.00 0.00 2202.84 386.37" xmlns="http://www.w3.org/2000/svg" xmlns:xlink="http://www.w3.org/1999/xlink">
<g id="graph0" class="graph" transform="scale(1 1) rotate(0) translate(4 382.375)">
<title>%3</title>
<polygon fill="white" stroke="none" points="-4,4 -4,-382.375 2198.84,-382.375 2198.84,4 -4,4"/>
<!-- dintancia projetil 1 -->
<g id="node1" class="node"><title>dintancia projetil 1</title>
<polygon fill="lightgray" stroke="black" points="322.543,-223.128 238.543,-223.128 238.543,-205.128 322.543,-205.128 322.543,-223.128"/>
<text text-anchor="middle" x="280.543" y="-211.928" font-family="Times New Roman,serif" font-size="9.00">dintancia projetil 1</text>
</g>
<!-- esquerda -->
<g id="node21" class="node"><title>esquerda</title>
<ellipse fill="lightblue" stroke="black" cx="591.543" cy="-119.439" rx="33.8824" ry="33.8824"/>
<text text-anchor="middle" x="591.543" y="-117.239" font-family="Times New Roman,serif" font-size="9.00">esquerda</text>
</g>
<!-- dintancia projetil 1&#45;&gt;esquerda -->
<g id="edge4" class="edge"><title>dintancia projetil 1&#45;&gt;esquerda</title>
<path fill="none" stroke="green" stroke-width="0.214671" d="M295.867,-205.125C305.841,-200.135 319.238,-193.837 331.543,-189.38 406.049,-162.394 496.017,-140.893 548.215,-129.462"/>
<polygon fill="green" stroke="green" stroke-width="0.214671" points="549.103,-132.851 558.135,-127.311 547.62,-126.01 549.103,-132.851"/>
</g>
<!-- pular -->
<g id="node23" class="node"><title>pular</title>
<ellipse fill="lightblue" stroke="black" cx="796.543" cy="-119.439" rx="25" ry="25"/>
<text text-anchor="middle" x="796.543" y="-117.239" font-family="Times New Roman,serif" font-size="9.00">pular</text>
</g>
<!-- dintancia projetil 1&#45;&gt;pular -->
<g id="edge44" class="edge"><title>dintancia projetil 1&#45;&gt;pular</title>
<path fill="none" stroke="red" stroke-width="0.531602" stroke-dasharray="1,5" d="M294.798,-204.992C304.771,-199.679 318.579,-193.066 331.543,-189.38 461.986,-152.289 500.649,-174.909 634.543,-153.38 679.034,-146.226 729.888,-135.456 762.564,-128.197"/>
<polygon fill="red" stroke="red" stroke-width="0.531602" points="763.51,-131.572 772.504,-125.972 761.981,-124.741 763.51,-131.572"/>
</g>
<!-- distancia projetil 2 -->
<g id="node2" class="node"><title>distancia projetil 2</title>
<polygon fill="lightgray" stroke="black" points="530.043,-223.128 447.043,-223.128 447.043,-205.128 530.043,-205.128 530.043,-223.128"/>
<text text-anchor="middle" x="488.543" y="-211.928" font-family="Times New Roman,serif" font-size="9.00">distancia projetil 2</text>
</g>
<!-- distancia projetil 2&#45;&gt;esquerda -->
<g id="edge17" class="edge"><title>distancia projetil 2&#45;&gt;esquerda</title>
<path fill="none" stroke="green" stroke-width="1.19101" d="M497.684,-204.903C511.365,-192.591 537.842,-168.764 559.196,-149.548"/>
<polygon fill="green" stroke="green" stroke-width="1.19101" points="561.706,-151.997 566.798,-142.706 557.024,-146.794 561.706,-151.997"/>
</g>
<!-- distancia projetil 2&#45;&gt;pular -->
<g id="edge40" class="edge"><title>distancia projetil 2&#45;&gt;pular</title>
<path fill="none" stroke="green" stroke-width="0.240036" d="M503.552,-205.116C513.324,-200.121 526.457,-193.823 538.543,-189.38 616.749,-160.631 712.301,-138.27 762.303,-127.497"/>
<polygon fill="green" stroke="green" stroke-width="0.240036" points="763.207,-130.883 772.258,-125.376 761.748,-124.036 763.207,-130.883"/>
</g>
<!-- atirar -->
<g id="node24" class="node"><title>atirar</title>
<ellipse fill="lightblue" stroke="black" cx="1295.54" cy="-119.439" rx="25" ry="25"/>
<text text-anchor="middle" x="1295.54" y="-117.239" font-family="Times New Roman,serif" font-size="9.00">atirar</text>
</g>
<!-- distancia projetil 2&#45;&gt;atirar -->
<g id="edge58" class="edge"><title>distancia projetil 2&#45;&gt;atirar</title>
<path fill="none" stroke="green" stroke-width="0.345545" stroke-dasharray="1,5" d="M502.045,-205.107C511.829,-199.701 525.566,-192.931 538.543,-189.38 608.79,-170.156 1120.77,-132.823 1260.43,-122.907"/>
<polygon fill="green" stroke="green" stroke-width="0.345545" points="1260.85,-126.386 1270.57,-122.188 1260.35,-119.404 1260.85,-126.386"/>
</g>
<!-- distancia projetil 3 -->
<g id="node3" class="node"><title>distancia projetil 3</title>
<polygon fill="lightgray" stroke="black" points="407.043,-308.626 324.043,-308.626 324.043,-290.626 407.043,-290.626 407.043,-308.626"/>
<text text-anchor="middle" x="365.543" y="-297.426" font-family="Times New Roman,serif" font-size="9.00">distancia projetil 3</text>
</g>
<!-- distancia projetil 3&#45;&gt;esquerda -->
<g id="edge62" class="edge"><title>distancia projetil 3&#45;&gt;esquerda</title>
<path fill="none" stroke="red" stroke-width="0.347203" d="M323.69,-298.597C216.363,-297.179 -54.4948,-284.357 29.5433,-189.38 63.7967,-150.668 421.154,-129.029 547.549,-122.541"/>
<polygon fill="red" stroke="red" stroke-width="0.347203" points="547.839,-126.031 557.649,-122.03 547.485,-119.04 547.839,-126.031"/>
</g>
<!-- direita -->
<g id="node22" class="node"><title>direita</title>
<ellipse fill="lightblue" stroke="black" cx="1543.54" cy="-119.439" rx="27.6545" ry="27.6545"/>
<text text-anchor="middle" x="1543.54" y="-117.239" font-family="Times New Roman,serif" font-size="9.00">direita</text>
</g>
<!-- distancia projetil 3&#45;&gt;direita -->
<g id="edge47" class="edge"><title>distancia projetil 3&#45;&gt;direita</title>
<path fill="none" stroke="green" stroke-width="0.352896" d="M378.841,-290.566C388.822,-284.99 403.037,-278.028 416.543,-274.877 503.131,-254.681 1954.38,-302.45 2016.54,-238.877 2031.92,-223.148 2030.93,-206.019 2016.54,-189.38 2002.24,-172.845 1690.97,-136.817 1581.34,-124.592"/>
<polygon fill="green" stroke="green" stroke-width="0.352896" points="1581.4,-121.078 1571.08,-123.452 1580.63,-128.035 1581.4,-121.078"/>
</g>
<!-- release -->
<g id="node25" class="node"><title>release</title>
<ellipse fill="lightblue" stroke="black" cx="1910.54" cy="-119.439" rx="28.9828" ry="28.9828"/>
<text text-anchor="middle" x="1910.54" y="-117.239" font-family="Times New Roman,serif" font-size="9.00">release</text>
</g>
<!-- distancia projetil 3&#45;&gt;release -->
<g id="edge13" class="edge"><title>distancia projetil 3&#45;&gt;release</title>
<path fill="none" stroke="red" stroke-width="0.726117" d="M378.841,-290.565C388.822,-284.988 403.036,-278.026 416.543,-274.877 504.161,-254.453 1972.64,-303.196 2035.54,-238.877 2050.92,-223.15 2046.73,-208.323 2035.54,-189.38 2016.81,-157.648 1977.67,-139.52 1948.14,-129.897"/>
<polygon fill="red" stroke="red" stroke-width="0.726117" points="1949.13,-126.539 1938.54,-126.953 1947.08,-133.231 1949.13,-126.539"/>
</g>
<!-- 2032 -->
<g id="node28" class="node"><title>2032</title>
<ellipse fill="white" stroke="black" cx="365.543" cy="-214.128" rx="25" ry="25"/>
<text text-anchor="middle" x="365.543" y="-211.928" font-family="Times New Roman,serif" font-size="9.00">2032</text>
</g>
<!-- distancia projetil 3&#45;&gt;2032 -->
<g id="edge33" class="edge"><title>distancia projetil 3&#45;&gt;2032</title>
<path fill="none" stroke="green" stroke-width="0.235896" d="M365.543,-290.62C365.543,-281.068 365.543,-264.479 365.543,-249.28"/>
<polygon fill="green" stroke="green" stroke-width="0.235896" points="369.043,-249.083 365.543,-239.083 362.043,-249.083 369.043,-249.083"/>
</g>
<!-- distancia projetil 4 -->
<g id="node4" class="node"><title>distancia projetil 4</title>
<polygon fill="lightgray" stroke="black" points="1040.04,-223.128 957.043,-223.128 957.043,-205.128 1040.04,-205.128 1040.04,-223.128"/>
<text text-anchor="middle" x="998.543" y="-211.928" font-family="Times New Roman,serif" font-size="9.00">distancia projetil 4</text>
</g>
<!-- distancia projetil 4&#45;&gt;esquerda -->
<g id="edge50" class="edge"><title>distancia projetil 4&#45;&gt;esquerda</title>
<path fill="none" stroke="green" stroke-width="0.238496" d="M984.07,-205.052C974.296,-199.903 960.961,-193.455 948.543,-189.38 947.604,-189.071 729.267,-146.98 634.549,-128.726"/>
<polygon fill="green" stroke="green" stroke-width="0.238496" points="635.186,-125.284 624.705,-126.828 633.862,-132.158 635.186,-125.284"/>
</g>
<!-- distancia projetil 4&#45;&gt;pular -->
<g id="edge10" class="edge"><title>distancia projetil 4&#45;&gt;pular</title>
<path fill="none" stroke="red" stroke-width="0.441868" d="M981.454,-204.92C971.81,-200.311 959.526,-194.478 948.543,-189.38 907.041,-170.113 858.905,-148.384 828.11,-134.561"/>
<polygon fill="red" stroke="red" stroke-width="0.441868" points="829.308,-131.263 818.751,-130.364 826.443,-137.65 829.308,-131.263"/>
</g>
<!-- distancia projetil 4&#45;&gt;atirar -->
<g id="edge28" class="edge"><title>distancia projetil 4&#45;&gt;atirar</title>
<path fill="none" stroke="red" stroke-width="1.06625" stroke-dasharray="1,5" d="M1014.34,-204.961C1024.27,-200.029 1037.45,-193.855 1049.54,-189.38 1123.56,-161.982 1213.54,-139.363 1261.52,-128.117"/>
<polygon fill="red" stroke="red" stroke-width="1.06625" points="1262.44,-131.498 1271.38,-125.827 1260.85,-124.679 1262.44,-131.498"/>
</g>
<!-- distancia projetil 4&#45;&gt;release -->
<g id="edge55" class="edge"><title>distancia projetil 4&#45;&gt;release</title>
<path fill="none" stroke="green" stroke-width="0.116425" stroke-dasharray="1,5" d="M1012.31,-205.017C1022.29,-199.569 1036.3,-192.786 1049.54,-189.38 1278.63,-130.458 1344.83,-173.13 1580.54,-153.38 1685.76,-144.563 1809.58,-131.474 1871.35,-124.758"/>
<polygon fill="green" stroke="green" stroke-width="0.116425" points="1871.88,-128.222 1881.44,-123.658 1871.12,-121.263 1871.88,-128.222"/>
</g>
<!-- distancia projetil 5 -->
<g id="node5" class="node"><title>distancia projetil 5</title>
<polygon fill="lightgray" stroke="black" points="1513.04,-378.375 1430.04,-378.375 1430.04,-360.375 1513.04,-360.375 1513.04,-378.375"/>
<text text-anchor="middle" x="1471.54" y="-367.175" font-family="Times New Roman,serif" font-size="9.00">distancia projetil 5</text>
</g>
<!-- distancia projetil 5&#45;&gt;esquerda -->
<g id="edge38" class="edge"><title>distancia projetil 5&#45;&gt;esquerda</title>
<path fill="none" stroke="green" stroke-width="0.3351" d="M1429.86,-368.107C1249.56,-366.745 535.948,-359.216 314.543,-324.375 175.897,-302.556 95.2949,-350.753 10.5433,-238.877 -2.74068,-221.342 -4.06709,-205.826 10.5433,-189.38 46.0989,-149.356 417.126,-128.498 546.97,-122.382"/>
<polygon fill="green" stroke="green" stroke-width="0.3351" points="547.509,-125.861 557.336,-121.902 547.185,-118.869 547.509,-125.861"/>
</g>
<!-- distancia projetil 5&#45;&gt;direita -->
<g id="edge19" class="edge"><title>distancia projetil 5&#45;&gt;direita</title>
<path fill="none" stroke="red" stroke-width="0.212267" d="M1513.26,-365.327C1632.4,-355.672 1969.83,-321.393 2035.54,-238.877 2049.25,-221.669 2049.98,-205.98 2035.54,-189.38 2020.57,-172.159 1693.99,-136.283 1581.34,-124.375"/>
<polygon fill="red" stroke="red" stroke-width="0.212267" points="1581.44,-120.866 1571.13,-123.299 1580.71,-127.827 1581.44,-120.866"/>
</g>
<!-- distancia projetil 5&#45;&gt;atirar -->
<g id="edge53" class="edge"><title>distancia projetil 5&#45;&gt;atirar</title>
<path fill="none" stroke="green" stroke-width="0.227059" stroke-dasharray="1,5" d="M1473.29,-360.245C1478.65,-333.004 1492.2,-243.614 1452.54,-189.38 1423.68,-149.903 1367.2,-132.702 1330.44,-125.444"/>
<polygon fill="green" stroke="green" stroke-width="0.227059" points="1330.64,-121.923 1320.18,-123.573 1329.39,-128.809 1330.64,-121.923"/>
</g>
<!-- distancia projetil 5&#45;&gt;release -->
<g id="edge32" class="edge"><title>distancia projetil 5&#45;&gt;release</title>
<path fill="none" stroke="red" stroke-width="0.543021" d="M1513.39,-367.897C1653.81,-365.283 2103.92,-348.36 2183.54,-238.877 2245,-154.375 2038.97,-129.469 1949.73,-122.735"/>
<polygon fill="red" stroke="red" stroke-width="0.543021" points="1949.93,-119.24 1939.71,-122.018 1949.43,-126.222 1949.93,-119.24"/>
</g>
<!-- 2196 -->
<g id="node29" class="node"><title>2196</title>
<ellipse fill="white" stroke="black" cx="1022.54" cy="-299.626" rx="25" ry="25"/>
<text text-anchor="middle" x="1022.54" y="-297.426" font-family="Times New Roman,serif" font-size="9.00">2196</text>
</g>
<!-- distancia projetil 5&#45;&gt;2196 -->
<g id="edge3" class="edge"><title>distancia projetil 5&#45;&gt;2196</title>
<path fill="none" stroke="green" stroke-width="0.107331" d="M1429.71,-362.062C1341.68,-348.78 1138.75,-318.16 1057.3,-305.87"/>
<polygon fill="green" stroke="green" stroke-width="0.107331" points="1057.5,-302.36 1047.09,-304.329 1056.45,-309.282 1057.5,-302.36"/>
</g>
<!-- distancia projetil 6 -->
<g id="node6" class="node"><title>distancia projetil 6</title>
<polygon fill="lightgray" stroke="black" points="1141.04,-223.128 1058.04,-223.128 1058.04,-205.128 1141.04,-205.128 1141.04,-223.128"/>
<text text-anchor="middle" x="1099.54" y="-211.928" font-family="Times New Roman,serif" font-size="9.00">distancia projetil 6</text>
</g>
<!-- distancia projetil 6&#45;&gt;esquerda -->
<g id="edge67" class="edge"><title>distancia projetil 6&#45;&gt;esquerda</title>
<path fill="none" stroke="green" stroke-width="0.287056" stroke-dasharray="1,5" d="M1085.58,-205.012C1075.81,-199.708 1062.27,-193.097 1049.54,-189.38 926.142,-153.346 889.506,-173.549 762.543,-153.38 718.842,-146.437 669.217,-136.666 634.726,-129.57"/>
<polygon fill="green" stroke="green" stroke-width="0.287056" points="635.033,-126.059 624.531,-127.459 633.614,-132.914 635.033,-126.059"/>
</g>
<!-- distancia projetil 6&#45;&gt;pular -->
<g id="edge63" class="edge"><title>distancia projetil 6&#45;&gt;pular</title>
<path fill="none" stroke="green" stroke-width="0.619189" d="M1084.09,-204.912C1074.36,-199.962 1061.44,-193.786 1049.54,-189.38 973.02,-161.036 879.62,-138.584 830.495,-127.67"/>
<polygon fill="green" stroke="green" stroke-width="0.619189" points="831.224,-124.247 820.706,-125.518 829.721,-131.084 831.224,-124.247"/>
</g>
<!-- distancia projetil 6&#45;&gt;atirar -->
<g id="edge66" class="edge"><title>distancia projetil 6&#45;&gt;atirar</title>
<path fill="none" stroke="green" stroke-width="0.202091" stroke-dasharray="1,5" d="M1116.59,-205.065C1149.51,-189.497 1222.27,-155.091 1264.17,-135.277"/>
<polygon fill="green" stroke="green" stroke-width="0.202091" points="1265.82,-138.367 1273.36,-130.928 1262.83,-132.039 1265.82,-138.367"/>
</g>
<!-- distancia projetil 6&#45;&gt;release -->
<g id="edge48" class="edge"><title>distancia projetil 6&#45;&gt;release</title>
<path fill="none" stroke="green" stroke-width="0.197351" d="M1113.33,-205.082C1123.31,-199.664 1137.33,-192.891 1150.54,-189.38 1335.89,-140.139 1389.57,-170.905 1580.54,-153.38 1685.69,-143.731 1809.54,-131.001 1871.34,-124.557"/>
<polygon fill="green" stroke="green" stroke-width="0.197351" points="1871.84,-128.023 1881.42,-123.503 1871.11,-121.061 1871.84,-128.023"/>
</g>
<!-- distancia projetil 7 -->
<g id="node7" class="node"><title>distancia projetil 7</title>
<polygon fill="lightgray" stroke="black" points="737.043,-223.128 654.043,-223.128 654.043,-205.128 737.043,-205.128 737.043,-223.128"/>
<text text-anchor="middle" x="695.543" y="-211.928" font-family="Times New Roman,serif" font-size="9.00">distancia projetil 7</text>
</g>
<!-- distancia projetil 7&#45;&gt;esquerda -->
<g id="edge49" class="edge"><title>distancia projetil 7&#45;&gt;esquerda</title>
<path fill="none" stroke="green" stroke-width="0.104675" d="M686.314,-204.903C672.5,-192.591 645.766,-168.764 624.204,-149.548"/>
<polygon fill="green" stroke="green" stroke-width="0.104675" points="626.322,-146.747 616.528,-142.706 621.665,-151.973 626.322,-146.747"/>
</g>
<!-- distancia projetil 7&#45;&gt;direita -->
<g id="edge65" class="edge"><title>distancia projetil 7&#45;&gt;direita</title>
<path fill="none" stroke="green" stroke-width="0.117504" stroke-dasharray="1,5" d="M709.302,-204.985C719.277,-199.522 733.287,-192.734 746.543,-189.38 1005.96,-123.744 1081.67,-183.598 1347.54,-153.38 1403.41,-147.031 1467.56,-135.419 1506.82,-127.816"/>
<polygon fill="green" stroke="green" stroke-width="0.117504" points="1507.58,-131.233 1516.72,-125.88 1506.24,-124.363 1507.58,-131.233"/>
</g>
<!-- distancia projetil 8 -->
<g id="node8" class="node"><title>distancia projetil 8</title>
<polygon fill="lightgray" stroke="black" points="838.043,-223.128 755.043,-223.128 755.043,-205.128 838.043,-205.128 838.043,-223.128"/>
<text text-anchor="middle" x="796.543" y="-211.928" font-family="Times New Roman,serif" font-size="9.00">distancia projetil 8</text>
</g>
<!-- distancia projetil 8&#45;&gt;esquerda -->
<g id="edge69" class="edge"><title>distancia projetil 8&#45;&gt;esquerda</title>
<path fill="none" stroke="red" stroke-width="0.352196" d="M779.925,-205.108C770.219,-200.456 757.719,-194.518 746.543,-189.38 707.743,-171.54 663.17,-151.792 631.811,-138.021"/>
<polygon fill="red" stroke="red" stroke-width="0.352196" points="633.088,-134.759 622.524,-133.947 630.276,-141.169 633.088,-134.759"/>
</g>
<!-- distancia projetil 8&#45;&gt;direita -->
<g id="edge12" class="edge"><title>distancia projetil 8&#45;&gt;direita</title>
<path fill="none" stroke="red" stroke-width="0.287127" d="M810.315,-205.034C820.296,-199.594 834.308,-192.814 847.543,-189.38 1063.2,-133.43 1126.33,-179.873 1347.54,-153.38 1403.21,-146.713 1467.17,-135.239 1506.47,-127.746"/>
<polygon fill="red" stroke="red" stroke-width="0.287127" points="1507.23,-131.164 1516.39,-125.839 1505.91,-124.289 1507.23,-131.164"/>
</g>
<!-- distancia projetil 8&#45;&gt;pular -->
<g id="edge37" class="edge"><title>distancia projetil 8&#45;&gt;pular</title>
<path fill="none" stroke="green" stroke-width="0.250521" stroke-dasharray="1,5" d="M796.543,-204.903C796.543,-193.591 796.543,-172.558 796.543,-154.311"/>
<polygon fill="green" stroke="green" stroke-width="0.250521" points="800.043,-154.263 796.543,-144.263 793.043,-154.263 800.043,-154.263"/>
</g>
<!-- distancia projetil 9 -->
<g id="node9" class="node"><title>distancia projetil 9</title>
<polygon fill="lightgray" stroke="black" points="1337.04,-223.128 1254.04,-223.128 1254.04,-205.128 1337.04,-205.128 1337.04,-223.128"/>
<text text-anchor="middle" x="1295.54" y="-211.928" font-family="Times New Roman,serif" font-size="9.00">distancia projetil 9</text>
</g>
<!-- distancia projetil 9&#45;&gt;direita -->
<g id="edge34" class="edge"><title>distancia projetil 9&#45;&gt;direita</title>
<path fill="none" stroke="red" stroke-width="0.251775" stroke-dasharray="1,5" d="M1311.9,-205.008C1321.81,-200.212 1334.78,-194.163 1346.54,-189.38 1402.09,-166.793 1468.14,-144.601 1507.9,-131.731"/>
<polygon fill="red" stroke="red" stroke-width="0.251775" points="1508.98,-135.061 1517.42,-128.665 1506.83,-128.398 1508.98,-135.061"/>
</g>
<!-- distancia projetil 9&#45;&gt;pular -->
<g id="edge8" class="edge"><title>distancia projetil 9&#45;&gt;pular</title>
<path fill="none" stroke="red" stroke-width="0.426711" d="M1280.81,-204.905C1270.85,-199.694 1257.26,-193.232 1244.54,-189.38 1094.93,-144.042 907.743,-127.554 831.388,-122.442"/>
<polygon fill="red" stroke="red" stroke-width="0.426711" points="831.571,-118.946 821.366,-121.794 831.119,-125.932 831.571,-118.946"/>
</g>
<!-- distancia projetil 9&#45;&gt;atirar -->
<g id="edge64" class="edge"><title>distancia projetil 9&#45;&gt;atirar</title>
<path fill="none" stroke="red" stroke-width="0.432623" d="M1295.54,-204.903C1295.54,-193.591 1295.54,-172.558 1295.54,-154.311"/>
<polygon fill="red" stroke="red" stroke-width="0.432623" points="1299.04,-154.263 1295.54,-144.263 1292.04,-154.263 1299.04,-154.263"/>
</g>
<!-- distancia projetil 10 -->
<g id="node10" class="node"><title>distancia projetil 10</title>
<polygon fill="lightgray" stroke="black" points="2007.54,-223.128 1919.54,-223.128 1919.54,-205.128 2007.54,-205.128 2007.54,-223.128"/>
<text text-anchor="middle" x="1963.54" y="-211.928" font-family="Times New Roman,serif" font-size="9.00">distancia projetil 10</text>
</g>
<!-- distancia projetil 10&#45;&gt;direita -->
<g id="edge52" class="edge"><title>distancia projetil 10&#45;&gt;direita</title>
<path fill="none" stroke="red" stroke-width="0.141125" stroke-dasharray="1,5" d="M1948.15,-205.067C1937.77,-199.924 1923.63,-193.478 1910.54,-189.38 1793.39,-152.692 1648.74,-132.558 1581.38,-124.562"/>
<polygon fill="red" stroke="red" stroke-width="0.141125" points="1581.58,-121.063 1571.25,-123.383 1580.77,-128.016 1581.58,-121.063"/>
</g>
<!-- distancia projetil 10&#45;&gt;atirar -->
<g id="edge18" class="edge"><title>distancia projetil 10&#45;&gt;atirar</title>
<path fill="none" stroke="green" stroke-width="0.238677" d="M1949.17,-205.113C1938.77,-199.71 1924.2,-192.941 1910.54,-189.38 1736.11,-143.896 1685.47,-175.295 1506.54,-153.38 1443.95,-145.713 1371.39,-133.693 1329.74,-126.488"/>
<polygon fill="green" stroke="green" stroke-width="0.238677" points="1330.29,-123.032 1319.84,-124.766 1329.09,-129.928 1330.29,-123.032"/>
</g>
<!-- distancia projetil 10&#45;&gt;release -->
<g id="edge30" class="edge"><title>distancia projetil 10&#45;&gt;release</title>
<path fill="none" stroke="red" stroke-width="0.301663" d="M1958.84,-204.903C1952.31,-193.48 1940.11,-172.145 1929.61,-153.776"/>
<polygon fill="red" stroke="red" stroke-width="0.301663" points="1932.62,-151.997 1924.62,-145.053 1926.54,-155.472 1932.62,-151.997"/>
</g>
<!-- distancia projetil 11 -->
<g id="node11" class="node"><title>distancia projetil 11</title>
<polygon fill="lightgray" stroke="black" points="1795.54,-223.128 1707.54,-223.128 1707.54,-205.128 1795.54,-205.128 1795.54,-223.128"/>
<text text-anchor="middle" x="1751.54" y="-211.928" font-family="Times New Roman,serif" font-size="9.00">distancia projetil 11</text>
</g>
<!-- distancia projetil 11&#45;&gt;esquerda -->
<g id="edge22" class="edge"><title>distancia projetil 11&#45;&gt;esquerda</title>
<path fill="none" stroke="green" stroke-width="0.452603" d="M1737.23,-204.9C1726.85,-199.397 1712.29,-192.596 1698.54,-189.38 1495.86,-141.955 969.337,-177.135 762.543,-153.38 718.583,-148.33 668.995,-138.287 634.584,-130.611"/>
<polygon fill="green" stroke="green" stroke-width="0.452603" points="634.94,-127.103 624.414,-128.313 633.397,-133.931 634.94,-127.103"/>
</g>
<!-- distancia projetil 11&#45;&gt;direita -->
<g id="edge5" class="edge"><title>distancia projetil 11&#45;&gt;direita</title>
<path fill="none" stroke="red" stroke-width="0.268992" d="M1733.4,-204.982C1723.16,-200.393 1710.14,-194.559 1698.54,-189.38 1656.99,-170.829 1609.13,-149.556 1577.72,-135.605"/>
<polygon fill="red" stroke="red" stroke-width="0.268992" points="1579.08,-132.381 1568.52,-131.522 1576.24,-138.779 1579.08,-132.381"/>
</g>
<!-- distancia projetil 11&#45;&gt;release -->
<g id="edge27" class="edge"><title>distancia projetil 11&#45;&gt;release</title>
<path fill="none" stroke="green" stroke-width="0.15506" d="M1765.38,-205.065C1790.07,-190.671 1842.38,-160.176 1876.99,-139.997"/>
<polygon fill="green" stroke="green" stroke-width="0.15506" points="1878.94,-142.913 1885.82,-134.853 1875.41,-136.866 1878.94,-142.913"/>
</g>
<!-- distancia projetil 12 -->
<g id="node12" class="node"><title>distancia projetil 12</title>
<polygon fill="lightgray" stroke="black" points="1901.54,-223.128 1813.54,-223.128 1813.54,-205.128 1901.54,-205.128 1901.54,-223.128"/>
<text text-anchor="middle" x="1857.54" y="-211.928" font-family="Times New Roman,serif" font-size="9.00">distancia projetil 12</text>
</g>
<!-- distancia projetil 12&#45;&gt;direita -->
<g id="edge26" class="edge"><title>distancia projetil 12&#45;&gt;direita</title>
<path fill="none" stroke="green" stroke-width="0.301097" stroke-dasharray="1,5" d="M1841.12,-204.932C1830.79,-199.991 1817.09,-193.815 1804.54,-189.38 1726.41,-161.763 1631.7,-139.407 1580.58,-128.219"/>
<polygon fill="green" stroke="green" stroke-width="0.301097" points="1581.17,-124.766 1570.66,-126.068 1579.69,-131.607 1581.17,-124.766"/>
</g>
<!-- distancia projetil 12&#45;&gt;pular -->
<g id="edge42" class="edge"><title>distancia projetil 12&#45;&gt;pular</title>
<path fill="none" stroke="green" stroke-width="0.70319" stroke-dasharray="1,5" d="M1843.2,-205.017C1832.81,-199.57 1818.24,-192.786 1804.54,-189.38 1569.83,-131.012 1502.84,-169.925 1261.54,-153.38 1100.76,-142.355 908.752,-128.55 831.383,-122.961"/>
<polygon fill="green" stroke="green" stroke-width="0.70319" points="831.468,-119.458 821.242,-122.228 830.963,-126.44 831.468,-119.458"/>
</g>
<!-- distancia projetil 12&#45;&gt;atirar -->
<g id="edge57" class="edge"><title>distancia projetil 12&#45;&gt;atirar</title>
<path fill="none" stroke="green" stroke-width="0.402745" stroke-dasharray="1,5" d="M1842.69,-205.015C1832.3,-199.711 1817.95,-193.101 1804.54,-189.38 1676,-153.7 1638.69,-171.672 1506.54,-153.38 1444.08,-144.733 1371.48,-133.035 1329.78,-126.157"/>
<polygon fill="green" stroke="green" stroke-width="0.402745" points="1330.31,-122.697 1319.87,-124.517 1329.16,-129.603 1330.31,-122.697"/>
</g>
<!-- distancia projetil 12&#45;&gt;release -->
<g id="edge14" class="edge"><title>distancia projetil 12&#45;&gt;release</title>
<path fill="none" stroke="red" stroke-width="0.178148" d="M1862.25,-204.903C1868.78,-193.48 1880.98,-172.145 1891.48,-153.776"/>
<polygon fill="red" stroke="red" stroke-width="0.178148" points="1894.54,-155.472 1896.47,-145.053 1888.47,-151.997 1894.54,-155.472"/>
</g>
<!-- distancia projetil 13 -->
<g id="node13" class="node"><title>distancia projetil 13</title>
<polygon fill="lightgray" stroke="black" points="513.543,-308.626 425.543,-308.626 425.543,-290.626 513.543,-290.626 513.543,-308.626"/>
<text text-anchor="middle" x="469.543" y="-297.426" font-family="Times New Roman,serif" font-size="9.00">distancia projetil 13</text>
</g>
<!-- distancia projetil 13&#45;&gt;pular -->
<g id="edge31" class="edge"><title>distancia projetil 13&#45;&gt;pular</title>
<path fill="none" stroke="green" stroke-width="0.141493" d="M462.693,-290.479C447.026,-270.832 411.851,-220.193 437.543,-189.38 466.043,-155.2 590.847,-161.814 634.543,-153.38 678.789,-144.839 729.698,-134.384 762.454,-127.575"/>
<polygon fill="green" stroke="green" stroke-width="0.141493" points="763.344,-130.965 772.42,-125.5 761.917,-124.112 763.344,-130.965"/>
</g>
<!-- distancia projetil 13&#45;&gt;release -->
<g id="edge60" class="edge"><title>distancia projetil 13&#45;&gt;release</title>
<path fill="none" stroke="green" stroke-width="0.138348" d="M513.622,-296.416C603.119,-291.971 812.566,-281.785 988.543,-274.877 1049.58,-272.481 2045.06,-282.775 2087.54,-238.877 2102.84,-223.069 2099.96,-207.54 2087.54,-189.38 2056.74,-144.331 1991.81,-128.715 1949.73,-123.305"/>
<polygon fill="green" stroke="green" stroke-width="0.138348" points="1949.9,-119.801 1939.56,-122.137 1949.1,-126.755 1949.9,-119.801"/>
</g>
<!-- distancia projetil 13&#45;&gt;2032 -->
<g id="edge68" class="edge"><title>distancia projetil 13&#45;&gt;2032</title>
<path fill="none" stroke="green" stroke-width="0.152732" stroke-dasharray="1,5" d="M459.571,-290.62C444.244,-278.314 414.365,-254.325 392.386,-236.679"/>
<polygon fill="green" stroke="green" stroke-width="0.152732" points="394.385,-233.796 384.396,-230.264 390.002,-239.254 394.385,-233.796"/>
</g>
<!-- distancia projetil 14 -->
<g id="node14" class="node"><title>distancia projetil 14</title>
<polygon fill="lightgray" stroke="black" points="1443.54,-223.128 1355.54,-223.128 1355.54,-205.128 1443.54,-205.128 1443.54,-223.128"/>
<text text-anchor="middle" x="1399.54" y="-211.928" font-family="Times New Roman,serif" font-size="9.00">distancia projetil 14</text>
</g>
<!-- distancia projetil 14&#45;&gt;direita -->
<g id="edge70" class="edge"><title>distancia projetil 14&#45;&gt;direita</title>
<path fill="none" stroke="green" stroke-width="0.347898" stroke-dasharray="1,5" d="M1412.07,-205.065C1434.12,-190.874 1480.48,-161.031 1511.82,-140.855"/>
<polygon fill="green" stroke="green" stroke-width="0.347898" points="1514.12,-143.543 1520.63,-135.187 1510.33,-137.657 1514.12,-143.543"/>
</g>
<!-- distancia projetil 14&#45;&gt;pular -->
<g id="edge23" class="edge"><title>distancia projetil 14&#45;&gt;pular</title>
<path fill="none" stroke="green" stroke-width="0.880349" stroke-dasharray="1,5" d="M1384.68,-205.034C1374.3,-199.739 1359.94,-193.131 1346.54,-189.38 1157.28,-136.392 919.949,-124.072 831.702,-121.256"/>
<polygon fill="green" stroke="green" stroke-width="0.880349" points="831.552,-117.75 821.452,-120.951 831.344,-124.747 831.552,-117.75"/>
</g>
<!-- distancia projetil 15 -->
<g id="node15" class="node"><title>distancia projetil 15</title>
<polygon fill="lightgray" stroke="black" points="126.543,-223.128 38.5433,-223.128 38.5433,-205.128 126.543,-205.128 126.543,-223.128"/>
<text text-anchor="middle" x="82.5433" y="-211.928" font-family="Times New Roman,serif" font-size="9.00">distancia projetil 15</text>
</g>
<!-- distancia projetil 15&#45;&gt;esquerda -->
<g id="edge43" class="edge"><title>distancia projetil 15&#45;&gt;esquerda</title>
<path fill="none" stroke="green" stroke-width="0.420791" d="M97.8893,-204.913C108.251,-199.705 122.386,-193.244 135.543,-189.38 282.885,-146.107 465.406,-128.977 547.688,-123.107"/>
<polygon fill="green" stroke="green" stroke-width="0.420791" points="547.951,-126.597 557.685,-122.414 547.467,-119.614 547.951,-126.597"/>
</g>
<!-- distancia projetil 15&#45;&gt;pular -->
<g id="edge9" class="edge"><title>distancia projetil 15&#45;&gt;pular</title>
<path fill="none" stroke="red" stroke-width="0.106284" d="M96.8957,-205.042C107.287,-199.606 121.854,-192.826 135.543,-189.38 351.169,-135.092 414.252,-183.596 634.543,-153.38 679.187,-147.256 730.006,-136.253 762.633,-128.659"/>
<polygon fill="red" stroke="red" stroke-width="0.106284" points="763.624,-132.022 772.556,-126.324 762.02,-125.208 763.624,-132.022"/>
</g>
<!-- distancia projetil 16 -->
<g id="node16" class="node"><title>distancia projetil 16</title>
<polygon fill="lightgray" stroke="black" points="1587.54,-223.128 1499.54,-223.128 1499.54,-205.128 1587.54,-205.128 1587.54,-223.128"/>
<text text-anchor="middle" x="1543.54" y="-211.928" font-family="Times New Roman,serif" font-size="9.00">distancia projetil 16</text>
</g>
<!-- distancia projetil 16&#45;&gt;direita -->
<g id="edge46" class="edge"><title>distancia projetil 16&#45;&gt;direita</title>
<path fill="none" stroke="green" stroke-width="0.196467" stroke-dasharray="1,5" d="M1543.54,-204.903C1543.54,-194.162 1543.54,-174.657 1543.54,-157.095"/>
<polygon fill="green" stroke="green" stroke-width="0.196467" points="1547.04,-157.06 1543.54,-147.06 1540.04,-157.06 1547.04,-157.06"/>
</g>
<!-- distancia projetil 16&#45;&gt;atirar -->
<g id="edge6" class="edge"><title>distancia projetil 16&#45;&gt;atirar</title>
<path fill="none" stroke="green" stroke-width="0.58801" d="M1524.55,-205.125C1513.26,-200.425 1498.64,-194.434 1485.54,-189.38 1430.7,-168.212 1366.27,-145.225 1328.28,-131.864"/>
<polygon fill="green" stroke="green" stroke-width="0.58801" points="1329.36,-128.531 1318.76,-128.522 1327.04,-135.136 1329.36,-128.531"/>
</g>
<!-- distancia inimigo 1 -->
<g id="node17" class="node"><title>distancia inimigo 1</title>
<polygon fill="lightgray" stroke="black" points="939.043,-223.128 856.043,-223.128 856.043,-205.128 939.043,-205.128 939.043,-223.128"/>
<text text-anchor="middle" x="897.543" y="-211.928" font-family="Times New Roman,serif" font-size="9.00">distancia inimigo 1</text>
</g>
<!-- distancia inimigo 1&#45;&gt;esquerda -->
<g id="edge7" class="edge"><title>distancia inimigo 1&#45;&gt;esquerda</title>
<path fill="none" stroke="green" stroke-width="0.179622" d="M882.532,-205.124C872.759,-200.133 859.626,-193.835 847.543,-189.38 774.465,-162.435 686.142,-140.989 634.659,-129.545"/>
<polygon fill="green" stroke="green" stroke-width="0.179622" points="635.388,-126.122 624.869,-127.391 633.883,-132.958 635.388,-126.122"/>
</g>
<!-- distancia inimigo 1&#45;&gt;direita -->
<g id="edge45" class="edge"><title>distancia inimigo 1&#45;&gt;direita</title>
<path fill="none" stroke="red" stroke-width="0.398884" stroke-dasharray="1,5" d="M911.335,-205.108C921.324,-199.703 935.339,-192.933 948.543,-189.38 1120.48,-143.108 1170.95,-176.152 1347.54,-153.38 1403.15,-146.209 1467.12,-134.871 1506.45,-127.544"/>
<polygon fill="red" stroke="red" stroke-width="0.398884" points="1507.19,-130.966 1516.37,-125.682 1505.9,-124.086 1507.19,-130.966"/>
</g>
<!-- distancia inimigo 1&#45;&gt;pular -->
<g id="edge41" class="edge"><title>distancia inimigo 1&#45;&gt;pular</title>
<path fill="none" stroke="red" stroke-width="0.213841" stroke-dasharray="1,5" d="M888.58,-204.903C873.789,-191.329 843.744,-163.756 821.997,-143.798"/>
<polygon fill="red" stroke="red" stroke-width="0.213841" points="824.138,-141.012 814.404,-136.83 819.405,-146.17 824.138,-141.012"/>
</g>
<!-- distancia inimigo 1&#45;&gt;atirar -->
<g id="edge24" class="edge"><title>distancia inimigo 1&#45;&gt;atirar</title>
<path fill="none" stroke="green" stroke-width="0.132041" stroke-dasharray="1,5" d="M912.333,-205.087C922.313,-199.952 935.918,-193.507 948.543,-189.38 1059.75,-153.026 1197.57,-132.603 1260.84,-124.531"/>
<polygon fill="green" stroke="green" stroke-width="0.132041" points="1261.57,-127.968 1271.05,-123.253 1260.7,-121.022 1261.57,-127.968"/>
</g>
<!-- distancia inimigo 2 -->
<g id="node18" class="node"><title>distancia inimigo 2</title>
<polygon fill="lightgray" stroke="black" points="1689.04,-223.128 1606.04,-223.128 1606.04,-205.128 1689.04,-205.128 1689.04,-223.128"/>
<text text-anchor="middle" x="1647.54" y="-211.928" font-family="Times New Roman,serif" font-size="9.00">distancia inimigo 2</text>
</g>
<!-- distancia inimigo 2&#45;&gt;direita -->
<g id="edge11" class="edge"><title>distancia inimigo 2&#45;&gt;direita</title>
<path fill="none" stroke="red" stroke-width="0.24555" d="M1638.31,-204.903C1623.46,-191.665 1593.67,-165.115 1571.44,-145.297"/>
<polygon fill="red" stroke="red" stroke-width="0.24555" points="1573.72,-142.641 1563.92,-138.601 1569.06,-147.867 1573.72,-142.641"/>
</g>
<!-- distancia inimigo 2&#45;&gt;pular -->
<g id="edge36" class="edge"><title>distancia inimigo 2&#45;&gt;pular</title>
<path fill="none" stroke="green" stroke-width="0.121133" d="M1633.76,-205.092C1623.77,-199.679 1609.75,-192.907 1596.54,-189.38 1521.81,-169.429 975.343,-132.252 831.279,-122.715"/>
<polygon fill="green" stroke="green" stroke-width="0.121133" points="831.442,-119.218 821.233,-122.051 830.98,-126.203 831.442,-119.218"/>
</g>
<!-- distancia inimigo 2&#45;&gt;atirar -->
<g id="edge51" class="edge"><title>distancia inimigo 2&#45;&gt;atirar</title>
<path fill="none" stroke="green" stroke-width="0.281682" d="M1632.27,-204.982C1622.32,-199.934 1608.92,-193.627 1596.54,-189.38 1502.5,-157.117 1386.74,-135.418 1330.09,-125.909"/>
<polygon fill="green" stroke="green" stroke-width="0.281682" points="1330.66,-122.455 1320.22,-124.275 1329.51,-129.361 1330.66,-122.455"/>
</g>
<!-- distancia inimigo 2&#45;&gt;release -->
<g id="edge2" class="edge"><title>distancia inimigo 2&#45;&gt;release</title>
<path fill="none" stroke="red" stroke-width="0.137221" d="M1663.86,-204.913C1673.76,-200.083 1686.73,-194.032 1698.54,-189.38 1758.55,-165.751 1830.27,-143.672 1873.02,-131.137"/>
<polygon fill="red" stroke="red" stroke-width="0.137221" points="1874.1,-134.468 1882.72,-128.311 1872.14,-127.747 1874.1,-134.468"/>
</g>
<!-- direcao sprites 1 -->
<g id="node19" class="node"><title>direcao sprites 1</title>
<polygon fill="lightgray" stroke="black" points="220.543,-223.128 144.543,-223.128 144.543,-205.128 220.543,-205.128 220.543,-223.128"/>
<text text-anchor="middle" x="182.543" y="-211.928" font-family="Times New Roman,serif" font-size="9.00">direcao sprites 1</text>
</g>
<!-- direcao sprites 1&#45;&gt;esquerda -->
<g id="edge54" class="edge"><title>direcao sprites 1&#45;&gt;esquerda</title>
<path fill="none" stroke="green" stroke-width="0.132776" stroke-dasharray="1,5" d="M196.084,-205.006C205.244,-199.838 217.773,-193.386 229.543,-189.38 340.727,-151.541 478.601,-132.519 547.714,-124.784"/>
<polygon fill="green" stroke="green" stroke-width="0.132776" points="548.241,-128.248 557.801,-123.682 547.48,-121.289 548.241,-128.248"/>
</g>
<!-- direcao sprites 1&#45;&gt;pular -->
<g id="edge20" class="edge"><title>direcao sprites 1&#45;&gt;pular</title>
<path fill="none" stroke="red" stroke-width="0.504395" stroke-dasharray="1,5" d="M195.168,-205.085C204.334,-199.668 217.236,-192.895 229.543,-189.38 403.302,-139.741 455.72,-179.425 634.543,-153.38 679.135,-146.885 729.966,-135.966 762.61,-128.493"/>
<polygon fill="red" stroke="red" stroke-width="0.504395" points="763.584,-131.86 772.538,-126.197 762.007,-125.04 763.584,-131.86"/>
</g>
<!-- direcao sprites 2 -->
<g id="node20" class="node"><title>direcao sprites 2</title>
<polygon fill="lightgray" stroke="black" points="1235.54,-223.128 1159.54,-223.128 1159.54,-205.128 1235.54,-205.128 1235.54,-223.128"/>
<text text-anchor="middle" x="1197.54" y="-211.928" font-family="Times New Roman,serif" font-size="9.00">direcao sprites 2</text>
</g>
<!-- direcao sprites 2&#45;&gt;direita -->
<g id="edge56" class="edge"><title>direcao sprites 2&#45;&gt;direita</title>
<path fill="none" stroke="red" stroke-width="1.17514" stroke-dasharray="1,5" d="M1211.86,-204.946C1221.21,-199.885 1233.81,-193.574 1245.54,-189.38 1336.63,-156.811 1448.97,-135.685 1506.2,-126.208"/>
<polygon fill="red" stroke="red" stroke-width="1.17514" points="1506.92,-129.637 1516.23,-124.574 1505.8,-122.728 1506.92,-129.637"/>
</g>
<!-- direcao sprites 2&#45;&gt;pular -->
<g id="edge1" class="edge"><title>direcao sprites 2&#45;&gt;pular</title>
<path fill="none" stroke="green" stroke-width="0.240724" stroke-dasharray="1,5" d="M1184,-205.023C1174.83,-199.861 1162.31,-193.41 1150.54,-189.38 1037.2,-150.545 895.522,-131.248 831.187,-123.978"/>
<polygon fill="green" stroke="green" stroke-width="0.240724" points="831.504,-120.492 821.18,-122.875 830.736,-127.45 831.504,-120.492"/>
</g>
<!-- direcao sprites 2&#45;&gt;atirar -->
<g id="edge16" class="edge"><title>direcao sprites 2&#45;&gt;atirar</title>
<path fill="none" stroke="green" stroke-width="0.174165" stroke-dasharray="1,5" d="M1206.24,-204.903C1220.51,-191.408 1249.41,-164.076 1270.48,-144.147"/>
<polygon fill="green" stroke="green" stroke-width="0.174165" points="1272.98,-146.593 1277.84,-137.179 1268.17,-141.507 1272.98,-146.593"/>
</g>
<!-- atirar&#45;&gt;atirar -->
<g id="edge21" class="edge"><title>atirar&#45;&gt;atirar</title>
<path fill="none" stroke="green" stroke-width="0.894796" stroke-dasharray="1,5" d="M1314.44,-135.669C1326.6,-139.904 1338.29,-134.493 1338.29,-119.439 1338.29,-108.736 1332.38,-102.907 1324.6,-101.954"/>
<polygon fill="green" stroke="green" stroke-width="0.894796" points="1323.94,-98.5081 1314.44,-103.208 1324.8,-105.455 1323.94,-98.5081"/>
</g>
<!-- 1735 -->
<g id="node26" class="node"><title>1735</title>
<ellipse fill="white" stroke="black" cx="1910.54" cy="-24.7487" rx="25" ry="25"/>
<text text-anchor="middle" x="1910.54" y="-22.5487" font-family="Times New Roman,serif" font-size="9.00">1735</text>
</g>
<!-- release&#45;&gt;1735 -->
<g id="edge39" class="edge"><title>release&#45;&gt;1735</title>
<path fill="none" stroke="green" stroke-width="0.201597" d="M1904.31,-90.8795C1903.73,-80.8738 1903.64,-69.4617 1904.04,-59.0153"/>
<polygon fill="green" stroke="green" stroke-width="0.201597" points="1907.54,-59.1594 1904.6,-48.9785 1900.55,-58.766 1907.54,-59.1594"/>
</g>
<!-- 1735&#45;&gt;release -->
<g id="edge29" class="edge"><title>1735&#45;&gt;release</title>
<path fill="none" stroke="green" stroke-width="0.241673" stroke-dasharray="1,5" d="M1916.48,-48.9785C1917.22,-58.6171 1917.45,-70.0486 1917.19,-80.8264"/>
<polygon fill="green" stroke="green" stroke-width="0.241673" points="1913.69,-80.7447 1916.77,-90.8795 1920.68,-81.0311 1913.69,-80.7447"/>
</g>
<!-- 2347 -->
<g id="node27" class="node"><title>2347</title>
<ellipse fill="white" stroke="black" cx="572.543" cy="-214.128" rx="25" ry="25"/>
<text text-anchor="middle" x="572.543" y="-211.928" font-family="Times New Roman,serif" font-size="9.00">2347</text>
</g>
<!-- 2347&#45;&gt;pular -->
<g id="edge25" class="edge"><title>2347&#45;&gt;pular</title>
<path fill="none" stroke="red" stroke-width="0.164464" d="M592.778,-199.804C598.698,-196.184 605.267,-192.426 611.543,-189.38 662.701,-164.552 725.248,-142.95 762.938,-130.82"/>
<polygon fill="red" stroke="red" stroke-width="0.164464" points="764.412,-134.024 772.879,-127.655 762.288,-127.354 764.412,-134.024"/>
</g>
<!-- 2032&#45;&gt;pular -->
<g id="edge61" class="edge"><title>2032&#45;&gt;pular</title>
<path fill="none" stroke="green" stroke-width="0.211353" stroke-dasharray="1,5" d="M385.423,-198.969C391.337,-195.335 397.993,-191.779 404.543,-189.38 501.698,-153.793 532.71,-171.693 634.543,-153.38 678.894,-145.404 729.78,-134.821 762.502,-127.828"/>
<polygon fill="green" stroke="green" stroke-width="0.211353" points="763.413,-131.212 772.456,-125.692 761.944,-124.368 763.413,-131.212"/>
</g>
<!-- 2196&#45;&gt;pular -->
<g id="edge59" class="edge"><title>2196&#45;&gt;pular</title>
<path fill="none" stroke="red" stroke-width="0.164464" stroke-dasharray="1,5" d="M997.547,-298.675C920.847,-298.242 691.268,-292.42 645.543,-238.877 631.257,-222.148 633.649,-207.886 645.543,-189.38 671.07,-149.663 725.766,-132.546 761.842,-125.369"/>
<polygon fill="red" stroke="red" stroke-width="0.164464" points="762.729,-128.764 771.936,-123.521 761.469,-121.879 762.729,-128.764"/>
</g>
<!-- 2196&#45;&gt;release -->
<g id="edge15" class="edge"><title>2196&#45;&gt;release</title>
<path fill="none" stroke="green" stroke-width="0.307966" d="M1047.29,-298.284C1210.23,-295.918 2123.75,-280.806 2163.54,-238.877 2230.75,-168.057 2035.8,-135.378 1949.44,-124.648"/>
<polygon fill="green" stroke="green" stroke-width="0.307966" points="1949.82,-121.168 1939.48,-123.447 1948.99,-128.118 1949.82,-121.168"/>
</g>
<!-- 2196&#45;&gt;2347 -->
<g id="edge35" class="edge"><title>2196&#45;&gt;2347</title>
<path fill="none" stroke="green" stroke-width="0.374462" d="M997.625,-298.438C932.264,-297.225 751.292,-289.204 611.543,-238.877 608.056,-237.622 604.542,-236.032 601.128,-234.274"/>
<polygon fill="green" stroke="green" stroke-width="0.374462" points="602.833,-231.217 592.406,-229.334 599.383,-237.308 602.833,-231.217"/>
</g>
</g>
</svg>
