<?xml version="1.0" encoding="UTF-8" standalone="no"?>
<!DOCTYPE svg PUBLIC "-//W3C//DTD SVG 1.1//EN"
 "http://www.w3.org/Graphics/SVG/1.1/DTD/svg11.dtd">
<!-- Generated by graphviz version 2.38.0 (20140413.2041)
 -->
<!-- Title: %3 Pages: 1 -->
<svg width="2042pt" height="208pt"
 viewBox="0.00 0.00 2042.04 208.31" xmlns="http://www.w3.org/2000/svg" xmlns:xlink="http://www.w3.org/1999/xlink">
<g id="graph0" class="graph" transform="scale(1 1) rotate(0) translate(4 204.309)">
<title>%3</title>
<polygon fill="white" stroke="none" points="-4,4 -4,-204.309 2038.04,-204.309 2038.04,4 -4,4"/>
<!-- dintancia projetil 1 -->
<g id="node1" class="node"><title>dintancia projetil 1</title>
<polygon fill="lightgray" stroke="black" points="376.539,-134.095 292.539,-134.095 292.539,-116.095 376.539,-116.095 376.539,-134.095"/>
<text text-anchor="middle" x="334.539" y="-122.895" font-family="Times New Roman,serif" font-size="9.00">dintancia projetil 1</text>
</g>
<!-- esquerda -->
<g id="node21" class="node"><title>esquerda</title>
<ellipse fill="lightblue" stroke="black" cx="452.539" cy="-33.9411" rx="33.8824" ry="33.8824"/>
<text text-anchor="middle" x="452.539" y="-31.7411" font-family="Times New Roman,serif" font-size="9.00">esquerda</text>
</g>
<!-- dintancia projetil 1&#45;&gt;esquerda -->
<g id="edge2" class="edge"><title>dintancia projetil 1&#45;&gt;esquerda</title>
<path fill="none" stroke="green" stroke-width="0.596605" d="M345.429,-115.868C361.729,-103.552 393.19,-79.782 417.816,-61.176"/>
<polygon fill="green" stroke="green" stroke-width="0.596605" points="420.005,-63.909 425.873,-55.0881 415.785,-58.3238 420.005,-63.909"/>
</g>
<!-- pular -->
<g id="node23" class="node"><title>pular</title>
<ellipse fill="lightblue" stroke="black" cx="1362.54" cy="-33.9411" rx="25" ry="25"/>
<text text-anchor="middle" x="1362.54" y="-31.7411" font-family="Times New Roman,serif" font-size="9.00">pular</text>
</g>
<!-- dintancia projetil 1&#45;&gt;pular -->
<g id="edge38" class="edge"><title>dintancia projetil 1&#45;&gt;pular</title>
<path fill="none" stroke="red" stroke-width="0.50898" stroke-dasharray="1,5" d="M351.098,-115.9C360.867,-111.484 373.617,-106.43 385.539,-103.882 743.146,-27.453 844.781,-114.05 1207.54,-67.8823 1249.83,-62.4994 1297.73,-51.5611 1328.94,-43.7666"/>
<polygon fill="red" stroke="red" stroke-width="0.50898" points="1330.02,-47.1042 1338.85,-41.2564 1328.3,-40.3183 1330.02,-47.1042"/>
</g>
<!-- atirar -->
<g id="node24" class="node"><title>atirar</title>
<ellipse fill="lightblue" stroke="black" cx="596.539" cy="-33.9411" rx="25" ry="25"/>
<text text-anchor="middle" x="596.539" y="-31.7411" font-family="Times New Roman,serif" font-size="9.00">atirar</text>
</g>
<!-- dintancia projetil 1&#45;&gt;atirar -->
<g id="edge53" class="edge"><title>dintancia projetil 1&#45;&gt;atirar</title>
<path fill="none" stroke="red" stroke-width="0.118753" stroke-dasharray="1,5" d="M354.291,-115.939C363.702,-112.137 375.148,-107.635 385.539,-103.882 387.707,-103.099 504.611,-64.9394 563.45,-45.7382"/>
<polygon fill="red" stroke="red" stroke-width="0.118753" points="564.624,-49.0367 573.045,-42.607 562.453,-42.382 564.624,-49.0367"/>
</g>
<!-- distancia projetil 2 -->
<g id="node2" class="node"><title>distancia projetil 2</title>
<polygon fill="lightgray" stroke="black" points="791.039,-134.095 708.039,-134.095 708.039,-116.095 791.039,-116.095 791.039,-134.095"/>
<text text-anchor="middle" x="749.539" y="-122.895" font-family="Times New Roman,serif" font-size="9.00">distancia projetil 2</text>
</g>
<!-- distancia projetil 2&#45;&gt;esquerda -->
<g id="edge15" class="edge"><title>distancia projetil 2&#45;&gt;esquerda</title>
<path fill="none" stroke="red" stroke-width="0.631694" stroke-dasharray="1,5" d="M730.843,-116.069C721.279,-112.121 709.395,-107.456 698.539,-103.882 639.149,-84.3289 622.718,-84.8531 562.539,-67.8823 539.949,-61.5119 514.872,-54.0337 494.373,-47.814"/>
<polygon fill="red" stroke="red" stroke-width="0.631694" points="495.294,-44.4359 484.708,-44.8722 493.256,-51.1326 495.294,-44.4359"/>
</g>
<!-- direita -->
<g id="node22" class="node"><title>direita</title>
<ellipse fill="lightblue" stroke="black" cx="1152.54" cy="-33.9411" rx="27.6545" ry="27.6545"/>
<text text-anchor="middle" x="1152.54" y="-31.7411" font-family="Times New Roman,serif" font-size="9.00">direita</text>
</g>
<!-- distancia projetil 2&#45;&gt;direita -->
<g id="edge17" class="edge"><title>distancia projetil 2&#45;&gt;direita</title>
<path fill="none" stroke="green" stroke-width="0.439411" d="M767.165,-116.064C776.848,-111.92 789.169,-107.077 800.539,-103.882 891.281,-78.3815 917.133,-86.4688 1009.54,-67.8823 1045.91,-60.5668 1087.17,-50.9155 1115.99,-43.9526"/>
<polygon fill="green" stroke="green" stroke-width="0.439411" points="1117.12,-47.2795 1126.02,-41.5182 1115.47,-40.4772 1117.12,-47.2795"/>
</g>
<!-- distancia projetil 2&#45;&gt;pular -->
<g id="edge42" class="edge"><title>distancia projetil 2&#45;&gt;pular</title>
<path fill="none" stroke="green" stroke-width="0.5519" stroke-dasharray="1,5" d="M766.603,-115.894C776.325,-111.59 788.862,-106.651 800.539,-103.882 977.236,-61.9906 1027.95,-94.8067 1207.54,-67.8823 1249.58,-61.5791 1297.35,-50.8825 1328.6,-43.3934"/>
<polygon fill="green" stroke="green" stroke-width="0.5519" points="1329.65,-46.7426 1338.54,-40.9875 1328,-39.9392 1329.65,-46.7426"/>
</g>
<!-- distancia projetil 2&#45;&gt;atirar -->
<g id="edge59" class="edge"><title>distancia projetil 2&#45;&gt;atirar</title>
<path fill="none" stroke="red" stroke-width="0.737751" d="M735.691,-116.026C711.15,-101.726 659.505,-71.6322 626.501,-52.4003"/>
<polygon fill="red" stroke="red" stroke-width="0.737751" points="628.127,-49.2967 617.724,-47.2861 624.602,-55.3448 628.127,-49.2967"/>
</g>
<!-- release -->
<g id="node25" class="node"><title>release</title>
<ellipse fill="lightblue" stroke="black" cx="953.539" cy="-33.9411" rx="28.9828" ry="28.9828"/>
<text text-anchor="middle" x="953.539" y="-31.7411" font-family="Times New Roman,serif" font-size="9.00">release</text>
</g>
<!-- distancia projetil 2&#45;&gt;release -->
<g id="edge66" class="edge"><title>distancia projetil 2&#45;&gt;release</title>
<path fill="none" stroke="red" stroke-width="0.556307" d="M768.002,-116.026C801.74,-101.282 873.891,-69.7496 917.612,-50.6423"/>
<polygon fill="red" stroke="red" stroke-width="0.556307" points="919.253,-53.7447 927.015,-46.5329 916.45,-47.3305 919.253,-53.7447"/>
</g>
<!-- distancia projetil 3 -->
<g id="node3" class="node"><title>distancia projetil 3</title>
<polygon fill="lightgray" stroke="black" points="690.039,-134.095 607.039,-134.095 607.039,-116.095 690.039,-116.095 690.039,-134.095"/>
<text text-anchor="middle" x="648.539" y="-122.895" font-family="Times New Roman,serif" font-size="9.00">distancia projetil 3</text>
</g>
<!-- distancia projetil 3&#45;&gt;esquerda -->
<g id="edge57" class="edge"><title>distancia projetil 3&#45;&gt;esquerda</title>
<path fill="none" stroke="red" stroke-width="0.310473" d="M630.8,-116.026C599.699,-101.88 534.623,-72.2787 492.296,-53.0255"/>
<polygon fill="red" stroke="red" stroke-width="0.310473" points="493.659,-49.8005 483.108,-48.8459 490.761,-56.1723 493.659,-49.8005"/>
</g>
<!-- distancia projetil 3&#45;&gt;pular -->
<g id="edge32" class="edge"><title>distancia projetil 3&#45;&gt;pular</title>
<path fill="none" stroke="green" stroke-width="0.435226" stroke-dasharray="1,5" d="M664.782,-116.015C674.363,-111.637 686.863,-106.584 698.539,-103.882 919.488,-52.7557 982.971,-99.5308 1207.54,-67.8823 1249.76,-61.9323 1297.67,-51.1135 1328.9,-43.5017"/>
<polygon fill="green" stroke="green" stroke-width="0.435226" points="1329.95,-46.8476 1338.82,-41.0549 1328.28,-40.0512 1329.95,-46.8476"/>
</g>
<!-- distancia projetil 3&#45;&gt;atirar -->
<g id="edge11" class="edge"><title>distancia projetil 3&#45;&gt;atirar</title>
<path fill="none" stroke="green" stroke-width="0.144447" stroke-dasharray="1,5" d="M643.74,-115.868C637.017,-104.341 624.443,-82.7821 613.962,-64.813"/>
<polygon fill="green" stroke="green" stroke-width="0.144447" points="616.776,-62.6904 608.714,-55.8157 610.729,-66.2172 616.776,-62.6904"/>
</g>
<!-- distancia projetil 3&#45;&gt;release -->
<g id="edge67" class="edge"><title>distancia projetil 3&#45;&gt;release</title>
<path fill="none" stroke="red" stroke-width="0.560354" d="M666.862,-116.072C676.236,-112.125 687.888,-107.46 698.539,-103.882 774.39,-78.3996 865.3,-55.6281 915.508,-43.7093"/>
<polygon fill="red" stroke="red" stroke-width="0.560354" points="916.358,-47.1051 925.287,-41.4032 914.751,-40.292 916.358,-47.1051"/>
</g>
<!-- distancia projetil 4 -->
<g id="node4" class="node"><title>distancia projetil 4</title>
<polygon fill="lightgray" stroke="black" points="1933.04,-200.309 1850.04,-200.309 1850.04,-182.309 1933.04,-182.309 1933.04,-200.309"/>
<text text-anchor="middle" x="1891.54" y="-189.109" font-family="Times New Roman,serif" font-size="9.00">distancia projetil 4</text>
</g>
<!-- distancia projetil 4&#45;&gt;esquerda -->
<g id="edge45" class="edge"><title>distancia projetil 4&#45;&gt;esquerda</title>
<path fill="none" stroke="red" stroke-width="0.123163" stroke-dasharray="1,5" d="M1849.84,-189.712C1577.16,-185.763 58.8732,-163.036 42.5389,-146.309 29.3652,-132.818 30.3612,-118.279 42.5389,-103.882 89.0427,-48.9061 312.104,-37.7474 408.266,-35.4997"/>
<polygon fill="red" stroke="red" stroke-width="0.123163" points="408.605,-38.9934 418.529,-35.2826 408.457,-31.9949 408.605,-38.9934"/>
</g>
<!-- distancia projetil 4&#45;&gt;pular -->
<g id="edge8" class="edge"><title>distancia projetil 4&#45;&gt;pular</title>
<path fill="none" stroke="red" stroke-width="0.493621" stroke-dasharray="1,5" d="M1899.11,-182.135C1913.62,-165.475 1942.16,-127.203 1921.54,-103.882 1912.77,-93.9606 1518.27,-51.4336 1397.38,-38.6134"/>
<polygon fill="red" stroke="red" stroke-width="0.493621" points="1397.51,-35.108 1387.2,-37.5355 1396.78,-42.0691 1397.51,-35.108"/>
</g>
<!-- 431 -->
<g id="node26" class="node"><title>431</title>
<ellipse fill="white" stroke="black" cx="1891.54" cy="-125.095" rx="21.4286" ry="21.4286"/>
<text text-anchor="middle" x="1891.54" y="-122.895" font-family="Times New Roman,serif" font-size="9.00">431</text>
</g>
<!-- distancia projetil 4&#45;&gt;431 -->
<g id="edge60" class="edge"><title>distancia projetil 4&#45;&gt;431</title>
<path fill="none" stroke="green" stroke-width="0.287072" d="M1891.54,-182.176C1891.54,-175.633 1891.54,-166.004 1891.54,-156.565"/>
<polygon fill="green" stroke="green" stroke-width="0.287072" points="1895.04,-156.551 1891.54,-146.551 1888.04,-156.551 1895.04,-156.551"/>
</g>
<!-- distancia projetil 5 -->
<g id="node5" class="node"><title>distancia projetil 5</title>
<polygon fill="lightgray" stroke="black" points="1194.04,-134.095 1111.04,-134.095 1111.04,-116.095 1194.04,-116.095 1194.04,-134.095"/>
<text text-anchor="middle" x="1152.54" y="-122.895" font-family="Times New Roman,serif" font-size="9.00">distancia projetil 5</text>
</g>
<!-- distancia projetil 5&#45;&gt;direita -->
<g id="edge18" class="edge"><title>distancia projetil 5&#45;&gt;direita</title>
<path fill="none" stroke="green" stroke-width="0.203631" stroke-dasharray="1,5" d="M1152.54,-115.868C1152.54,-105.896 1152.54,-88.4149 1152.54,-72.2459"/>
<polygon fill="green" stroke="green" stroke-width="0.203631" points="1156.04,-71.902 1152.54,-61.902 1149.04,-71.9021 1156.04,-71.902"/>
</g>
<!-- distancia projetil 5&#45;&gt;pular -->
<g id="edge69" class="edge"><title>distancia projetil 5&#45;&gt;pular</title>
<path fill="none" stroke="green" stroke-width="0.268556" stroke-dasharray="1,5" d="M1171.55,-116.026C1207.59,-100.724 1286.23,-67.3393 1330.53,-48.5283"/>
<polygon fill="green" stroke="green" stroke-width="0.268556" points="1332.13,-51.6541 1339.97,-44.5245 1329.39,-45.2107 1332.13,-51.6541"/>
</g>
<!-- distancia projetil 5&#45;&gt;atirar -->
<g id="edge50" class="edge"><title>distancia projetil 5&#45;&gt;atirar</title>
<path fill="none" stroke="green" stroke-width="0.194654" d="M1134.96,-115.905C1125.29,-111.715 1112.96,-106.879 1101.54,-103.882 1011.73,-80.3264 729.814,-49.0633 631.096,-38.5577"/>
<polygon fill="green" stroke="green" stroke-width="0.194654" points="631.366,-35.0668 621.053,-37.4934 630.628,-42.0278 631.366,-35.0668"/>
</g>
<!-- distancia projetil 5&#45;&gt;release -->
<g id="edge29" class="edge"><title>distancia projetil 5&#45;&gt;release</title>
<path fill="none" stroke="red" stroke-width="0.102664" d="M1134.53,-116.026C1101.71,-101.322 1031.61,-69.9199 988.932,-50.7975"/>
<polygon fill="red" stroke="red" stroke-width="0.102664" points="990.303,-47.5766 979.746,-46.6821 987.441,-53.9648 990.303,-47.5766"/>
</g>
<!-- distancia projetil 6 -->
<g id="node6" class="node"><title>distancia projetil 6</title>
<polygon fill="lightgray" stroke="black" points="236.039,-134.095 153.039,-134.095 153.039,-116.095 236.039,-116.095 236.039,-134.095"/>
<text text-anchor="middle" x="194.539" y="-122.895" font-family="Times New Roman,serif" font-size="9.00">distancia projetil 6</text>
</g>
<!-- distancia projetil 6&#45;&gt;esquerda -->
<g id="edge64" class="edge"><title>distancia projetil 6&#45;&gt;esquerda</title>
<path fill="none" stroke="green" stroke-width="0.352059" d="M216.583,-116.038C226.884,-112.299 239.324,-107.82 250.539,-103.882 305.934,-84.4336 370.133,-62.6518 411.022,-48.8742"/>
<polygon fill="green" stroke="green" stroke-width="0.352059" points="412.282,-52.1431 420.642,-45.6353 410.048,-45.509 412.282,-52.1431"/>
</g>
<!-- distancia projetil 6&#45;&gt;atirar -->
<g id="edge63" class="edge"><title>distancia projetil 6&#45;&gt;atirar</title>
<path fill="none" stroke="red" stroke-width="0.884469" d="M213.936,-116.006C224.581,-111.845 238.108,-107.005 250.539,-103.882 357.28,-77.0647 388.394,-93.0355 495.539,-67.8823 518.78,-62.4262 544.34,-54.0661 563.931,-47.1336"/>
<polygon fill="red" stroke="red" stroke-width="0.884469" points="565.363,-50.3384 573.589,-43.6613 562.994,-43.7512 565.363,-50.3384"/>
</g>
<!-- distancia projetil 6&#45;&gt;release -->
<g id="edge36" class="edge"><title>distancia projetil 6&#45;&gt;release</title>
<path fill="none" stroke="green" stroke-width="0.144724" d="M225.661,-116.057C242.665,-111.911 264.152,-107.069 283.539,-103.882 291.41,-102.588 772.996,-53.3759 914.715,-38.9045"/>
<polygon fill="green" stroke="green" stroke-width="0.144724" points="915.11,-42.3824 924.703,-37.8846 914.399,-35.4186 915.11,-42.3824"/>
</g>
<!-- distancia projetil 7 -->
<g id="node7" class="node"><title>distancia projetil 7</title>
<polygon fill="lightgray" stroke="black" points="1069.04,-200.309 986.039,-200.309 986.039,-182.309 1069.04,-182.309 1069.04,-200.309"/>
<text text-anchor="middle" x="1027.54" y="-189.109" font-family="Times New Roman,serif" font-size="9.00">distancia projetil 7</text>
</g>
<!-- distancia projetil 7&#45;&gt;esquerda -->
<g id="edge9" class="edge"><title>distancia projetil 7&#45;&gt;esquerda</title>
<path fill="none" stroke="green" stroke-width="0.215616" d="M986.03,-190.099C799.193,-188.955 43.8373,-182.121 9.53894,-146.309 -3.50334,-132.69 -2.72648,-118.204 9.53894,-103.882 60.6387,-44.2151 306.583,-35.7801 408.33,-34.8812"/>
<polygon fill="green" stroke="green" stroke-width="0.215616" points="408.6,-38.3795 418.576,-34.8121 408.552,-31.3797 408.6,-38.3795"/>
</g>
<!-- distancia projetil 7&#45;&gt;pular -->
<g id="edge46" class="edge"><title>distancia projetil 7&#45;&gt;pular</title>
<path fill="none" stroke="red" stroke-width="0.374363" stroke-dasharray="1,5" d="M1069.06,-189.578C1228.96,-186.565 1797.39,-173.939 1823.54,-146.309 1836.5,-132.612 1835.85,-118.168 1823.54,-103.882 1795.64,-71.5003 1499.8,-45.6115 1397.28,-37.5537"/>
<polygon fill="red" stroke="red" stroke-width="0.374363" points="1397.39,-34.0513 1387.15,-36.7657 1396.84,-41.0302 1397.39,-34.0513"/>
</g>
<!-- distancia projetil 7&#45;&gt;atirar -->
<g id="edge33" class="edge"><title>distancia projetil 7&#45;&gt;atirar</title>
<path fill="none" stroke="red" stroke-width="0.209128" stroke-dasharray="1,5" d="M985.883,-189.408C832.636,-185.896 307.779,-172.025 283.539,-146.309 223.612,-82.7335 342.435,-105.632 495.539,-67.8823 518.718,-62.1672 544.278,-53.8101 563.886,-46.9437"/>
<polygon fill="red" stroke="red" stroke-width="0.209128" points="565.3,-50.1555 573.552,-43.5108 562.958,-43.5591 565.3,-50.1555"/>
</g>
<!-- distancia projetil 7&#45;&gt;431 -->
<g id="edge23" class="edge"><title>distancia projetil 7&#45;&gt;431</title>
<path fill="none" stroke="green" stroke-width="0.135746" d="M1069.21,-190.654C1215.77,-191.473 1706.71,-190.756 1856.54,-146.309 1859.54,-145.419 1862.55,-144.227 1865.49,-142.865"/>
<polygon fill="green" stroke="green" stroke-width="0.135746" points="1867.28,-145.875 1874.47,-138.093 1864,-139.692 1867.28,-145.875"/>
</g>
<!-- distancia projetil 8 -->
<g id="node8" class="node"><title>distancia projetil 8</title>
<polygon fill="lightgray" stroke="black" points="1093.04,-134.095 1010.04,-134.095 1010.04,-116.095 1093.04,-116.095 1093.04,-134.095"/>
<text text-anchor="middle" x="1051.54" y="-122.895" font-family="Times New Roman,serif" font-size="9.00">distancia projetil 8</text>
</g>
<!-- distancia projetil 8&#45;&gt;esquerda -->
<g id="edge68" class="edge"><title>distancia projetil 8&#45;&gt;esquerda</title>
<path fill="none" stroke="red" stroke-width="0.737761" d="M1034.94,-116.07C1025.16,-111.711 1012.41,-106.658 1000.54,-103.882 810.345,-59.4146 754.475,-104.097 562.539,-67.8823 539.475,-63.5306 514.36,-56.2143 493.958,-49.5807"/>
<polygon fill="red" stroke="red" stroke-width="0.737761" points="494.944,-46.2203 484.351,-46.3949 492.741,-52.8646 494.944,-46.2203"/>
</g>
<!-- distancia projetil 8&#45;&gt;direita -->
<g id="edge12" class="edge"><title>distancia projetil 8&#45;&gt;direita</title>
<path fill="none" stroke="green" stroke-width="0.127008" d="M1060.86,-115.868C1075.21,-103.198 1103.3,-78.4076 1124.62,-59.5865"/>
<polygon fill="green" stroke="green" stroke-width="0.127008" points="1126.95,-62.1978 1132.13,-52.956 1122.32,-56.9498 1126.95,-62.1978"/>
</g>
<!-- distancia projetil 8&#45;&gt;pular -->
<g id="edge30" class="edge"><title>distancia projetil 8&#45;&gt;pular</title>
<path fill="none" stroke="red" stroke-width="0.121562" d="M1069.85,-116.046C1079.23,-112.093 1090.88,-107.43 1101.54,-103.882 1181.67,-77.2214 1278.3,-53.9376 1328.51,-42.4847"/>
<polygon fill="red" stroke="red" stroke-width="0.121562" points="1329.51,-45.8454 1338.49,-40.2233 1327.97,-39.0183 1329.51,-45.8454"/>
</g>
<!-- distancia projetil 9 -->
<g id="node9" class="node"><title>distancia projetil 9</title>
<polygon fill="lightgray" stroke="black" points="1708.04,-134.095 1625.04,-134.095 1625.04,-116.095 1708.04,-116.095 1708.04,-134.095"/>
<text text-anchor="middle" x="1666.54" y="-122.895" font-family="Times New Roman,serif" font-size="9.00">distancia projetil 9</text>
</g>
<!-- distancia projetil 9&#45;&gt;direita -->
<g id="edge31" class="edge"><title>distancia projetil 9&#45;&gt;direita</title>
<path fill="none" stroke="green" stroke-width="0.254222" d="M1649.43,-116.058C1639.7,-111.807 1627.16,-106.864 1615.54,-103.882 1491.01,-71.9446 1455.55,-87.7164 1328.54,-67.8823 1280.32,-60.3522 1225.05,-49.6684 1189.51,-42.5314"/>
<polygon fill="green" stroke="green" stroke-width="0.254222" points="1190.08,-39.0767 1179.59,-40.528 1188.7,-45.9382 1190.08,-39.0767"/>
</g>
<!-- distancia projetil 9&#45;&gt;pular -->
<g id="edge6" class="edge"><title>distancia projetil 9&#45;&gt;pular</title>
<path fill="none" stroke="green" stroke-width="1.12307" d="M1647.35,-115.905C1637.87,-112.008 1626.2,-107.436 1615.54,-103.882 1538.12,-78.0815 1445.08,-54.6119 1396.25,-42.8583"/>
<polygon fill="green" stroke="green" stroke-width="1.12307" points="1397.06,-39.454 1386.52,-40.5314 1395.43,-46.262 1397.06,-39.454"/>
</g>
<!-- distancia projetil 9&#45;&gt;atirar -->
<g id="edge61" class="edge"><title>distancia projetil 9&#45;&gt;atirar</title>
<path fill="none" stroke="green" stroke-width="0.525328" stroke-dasharray="1,5" d="M1649.97,-115.934C1640.2,-111.529 1627.45,-106.476 1615.54,-103.882 1311.15,-37.6133 1226.13,-91.8896 915.539,-67.8823 812.068,-59.8845 690.155,-46.0694 631.512,-39.1485"/>
<polygon fill="green" stroke="green" stroke-width="0.525328" points="631.66,-35.6415 621.317,-37.9394 630.835,-42.5928 631.66,-35.6415"/>
</g>
<!-- 376 -->
<g id="node27" class="node"><title>376</title>
<ellipse fill="white" stroke="black" cx="1718.54" cy="-33.9411" rx="21.4286" ry="21.4286"/>
<text text-anchor="middle" x="1718.54" y="-31.7411" font-family="Times New Roman,serif" font-size="9.00">376</text>
</g>
<!-- distancia projetil 9&#45;&gt;376 -->
<g id="edge49" class="edge"><title>distancia projetil 9&#45;&gt;376</title>
<path fill="none" stroke="green" stroke-width="0.106783" d="M1671.34,-115.868C1678.51,-103.569 1692.35,-79.847 1703.19,-61.2523"/>
<polygon fill="green" stroke="green" stroke-width="0.106783" points="1706.22,-63.0099 1708.23,-52.6084 1700.17,-59.4831 1706.22,-63.0099"/>
</g>
<!-- distancia projetil 10 -->
<g id="node10" class="node"><title>distancia projetil 10</title>
<polygon fill="lightgray" stroke="black" points="482.539,-134.095 394.539,-134.095 394.539,-116.095 482.539,-116.095 482.539,-134.095"/>
<text text-anchor="middle" x="438.539" y="-122.895" font-family="Times New Roman,serif" font-size="9.00">distancia projetil 10</text>
</g>
<!-- distancia projetil 10&#45;&gt;esquerda -->
<g id="edge34" class="edge"><title>distancia projetil 10&#45;&gt;esquerda</title>
<path fill="none" stroke="red" stroke-width="0.107741" stroke-dasharray="1,5" d="M439.831,-115.868C441.228,-106.972 443.563,-92.0989 445.854,-77.513"/>
<polygon fill="red" stroke="red" stroke-width="0.107741" points="449.326,-77.9598 447.42,-67.5379 442.411,-76.8739 449.326,-77.9598"/>
</g>
<!-- distancia projetil 10&#45;&gt;direita -->
<g id="edge47" class="edge"><title>distancia projetil 10&#45;&gt;direita</title>
<path fill="none" stroke="green" stroke-width="0.293213" d="M455.806,-116.023C465.979,-111.648 479.229,-106.595 491.539,-103.882 716.911,-54.2249 781.281,-101.889 1009.54,-67.8823 1046.23,-62.4155 1087.45,-52.5097 1116.17,-44.9837"/>
<polygon fill="green" stroke="green" stroke-width="0.293213" points="1117.39,-48.2813 1126.16,-42.3312 1115.59,-41.5159 1117.39,-48.2813"/>
</g>
<!-- distancia projetil 10&#45;&gt;atirar -->
<g id="edge16" class="edge"><title>distancia projetil 10&#45;&gt;atirar</title>
<path fill="none" stroke="red" stroke-width="0.588512" d="M452.839,-116.026C478.322,-101.647 532.1,-71.3019 566.156,-52.0851"/>
<polygon fill="red" stroke="red" stroke-width="0.588512" points="568.21,-54.9452 575.199,-46.9826 564.77,-48.8488 568.21,-54.9452"/>
</g>
<!-- distancia projetil 10&#45;&gt;release -->
<g id="edge27" class="edge"><title>distancia projetil 10&#45;&gt;release</title>
<path fill="none" stroke="green" stroke-width="0.560891" d="M456.859,-115.984C466.922,-111.816 479.726,-106.977 491.539,-103.882 645.073,-63.6561 833.875,-44.6423 914.285,-37.9178"/>
<polygon fill="green" stroke="green" stroke-width="0.560891" points="914.767,-41.3902 924.448,-37.0856 914.195,-34.4136 914.767,-41.3902"/>
</g>
<!-- distancia projetil 11 -->
<g id="node11" class="node"><title>distancia projetil 11</title>
<polygon fill="lightgray" stroke="black" points="1406.54,-134.095 1318.54,-134.095 1318.54,-116.095 1406.54,-116.095 1406.54,-134.095"/>
<text text-anchor="middle" x="1362.54" y="-122.895" font-family="Times New Roman,serif" font-size="9.00">distancia projetil 11</text>
</g>
<!-- distancia projetil 11&#45;&gt;esquerda -->
<g id="edge20" class="edge"><title>distancia projetil 11&#45;&gt;esquerda</title>
<path fill="none" stroke="green" stroke-width="0.124491" d="M1345.29,-115.925C1335.13,-111.517 1321.88,-106.464 1309.54,-103.882 984.199,-35.8113 890.158,-123.972 562.539,-67.8823 539.405,-63.9216 514.284,-56.6367 493.896,-49.9228"/>
<polygon fill="green" stroke="green" stroke-width="0.124491" points="494.892,-46.5649 484.297,-46.6899 492.657,-53.1988 494.892,-46.5649"/>
</g>
<!-- distancia projetil 11&#45;&gt;direita -->
<g id="edge4" class="edge"><title>distancia projetil 11&#45;&gt;direita</title>
<path fill="none" stroke="green" stroke-width="0.15682" d="M1343.53,-116.026C1308.17,-101.011 1231.79,-68.5866 1187.07,-49.6031"/>
<polygon fill="green" stroke="green" stroke-width="0.15682" points="1188.34,-46.3399 1177.77,-45.6537 1185.61,-52.7833 1188.34,-46.3399"/>
</g>
<!-- distancia projetil 11&#45;&gt;pular -->
<g id="edge55" class="edge"><title>distancia projetil 11&#45;&gt;pular</title>
<path fill="none" stroke="red" stroke-width="0.339864" d="M1362.54,-115.868C1362.54,-105.23 1362.54,-86.0459 1362.54,-69.0257"/>
<polygon fill="red" stroke="red" stroke-width="0.339864" points="1366.04,-68.8035 1362.54,-58.8036 1359.04,-68.8036 1366.04,-68.8035"/>
</g>
<!-- distancia projetil 11&#45;&gt;release -->
<g id="edge26" class="edge"><title>distancia projetil 11&#45;&gt;release</title>
<path fill="none" stroke="green" stroke-width="1.21001" stroke-dasharray="1,5" d="M1343.68,-115.95C1333.68,-111.875 1321.11,-107.132 1309.54,-103.882 1225.11,-80.1606 1201.62,-84.6199 1115.54,-67.8823 1073.21,-59.6522 1024.77,-49.7365 991.968,-42.9483"/>
<polygon fill="green" stroke="green" stroke-width="1.21001" points="992.398,-39.463 981.896,-40.8603 990.977,-46.3173 992.398,-39.463"/>
</g>
<!-- distancia projetil 12 -->
<g id="node12" class="node"><title>distancia projetil 12</title>
<polygon fill="lightgray" stroke="black" points="1814.54,-134.095 1726.54,-134.095 1726.54,-116.095 1814.54,-116.095 1814.54,-134.095"/>
<text text-anchor="middle" x="1770.54" y="-122.895" font-family="Times New Roman,serif" font-size="9.00">distancia projetil 12</text>
</g>
<!-- distancia projetil 12&#45;&gt;direita -->
<g id="edge25" class="edge"><title>distancia projetil 12&#45;&gt;direita</title>
<path fill="none" stroke="green" stroke-width="0.314086" d="M1752.77,-115.925C1742.65,-111.631 1729.63,-106.691 1717.54,-103.882 1548.42,-64.5835 1500.5,-91.8793 1328.54,-67.8823 1280.2,-61.1368 1224.96,-50.2753 1189.46,-42.8834"/>
<polygon fill="green" stroke="green" stroke-width="0.314086" points="1190.05,-39.4323 1179.55,-40.8032 1188.61,-46.283 1190.05,-39.4323"/>
</g>
<!-- distancia projetil 12&#45;&gt;pular -->
<g id="edge41" class="edge"><title>distancia projetil 12&#45;&gt;pular</title>
<path fill="none" stroke="red" stroke-width="0.209297" d="M1751.67,-115.99C1741.67,-111.926 1729.09,-107.18 1717.54,-103.882 1602.02,-70.9038 1460.86,-48.7086 1396.93,-39.6013"/>
<polygon fill="red" stroke="red" stroke-width="0.209297" points="1397.37,-36.13 1386.98,-38.2024 1396.4,-43.0618 1397.37,-36.13"/>
</g>
<!-- distancia projetil 12&#45;&gt;release -->
<g id="edge13" class="edge"><title>distancia projetil 12&#45;&gt;release</title>
<path fill="none" stroke="red" stroke-width="0.686485" d="M1753.28,-115.978C1743.11,-111.588 1729.86,-106.535 1717.54,-103.882 1455.51,-47.473 1381.3,-102.673 1115.54,-67.8823 1072.66,-62.2685 1024.13,-51.8497 991.455,-44.2279"/>
<polygon fill="red" stroke="red" stroke-width="0.686485" points="991.97,-40.7532 981.433,-41.8613 990.361,-47.5658 991.97,-40.7532"/>
</g>
<!-- distancia projetil 12&#45;&gt;376 -->
<g id="edge52" class="edge"><title>distancia projetil 12&#45;&gt;376</title>
<path fill="none" stroke="green" stroke-width="0.14543" d="M1765.74,-115.868C1758.57,-103.569 1744.73,-79.847 1733.89,-61.2523"/>
<polygon fill="green" stroke="green" stroke-width="0.14543" points="1736.91,-59.4831 1728.84,-52.6084 1730.86,-63.0099 1736.91,-59.4831"/>
</g>
<!-- distancia projetil 13 -->
<g id="node13" class="node"><title>distancia projetil 13</title>
<polygon fill="lightgray" stroke="black" points="897.539,-134.095 809.539,-134.095 809.539,-116.095 897.539,-116.095 897.539,-134.095"/>
<text text-anchor="middle" x="853.539" y="-122.895" font-family="Times New Roman,serif" font-size="9.00">distancia projetil 13</text>
</g>
<!-- distancia projetil 13&#45;&gt;esquerda -->
<g id="edge65" class="edge"><title>distancia projetil 13&#45;&gt;esquerda</title>
<path fill="none" stroke="green" stroke-width="0.246892" d="M834.855,-116.007C824.597,-111.847 811.552,-107.007 799.539,-103.882 696.428,-77.0633 666.493,-91.2218 562.539,-67.8823 539.639,-62.7407 514.536,-55.361 494.101,-48.8893"/>
<polygon fill="green" stroke="green" stroke-width="0.246892" points="495.065,-45.523 484.474,-45.7991 492.925,-52.1881 495.065,-45.523"/>
</g>
<!-- distancia projetil 13&#45;&gt;direita -->
<g id="edge48" class="edge"><title>distancia projetil 13&#45;&gt;direita</title>
<path fill="none" stroke="red" stroke-width="0.606201" d="M873.268,-116.08C883.176,-112.181 895.41,-107.555 906.539,-103.882 980.071,-79.6127 1067.72,-56.3824 1116.03,-44.061"/>
<polygon fill="red" stroke="red" stroke-width="0.606201" points="1116.89,-47.4534 1125.72,-41.6008 1115.17,-40.6685 1116.89,-47.4534"/>
</g>
<!-- distancia projetil 13&#45;&gt;pular -->
<g id="edge28" class="edge"><title>distancia projetil 13&#45;&gt;pular</title>
<path fill="none" stroke="red" stroke-width="0.339994" stroke-dasharray="1,5" d="M871.34,-116.05C881.464,-111.795 894.491,-106.852 906.539,-103.882 1037.35,-71.6346 1074.62,-89.9087 1207.54,-67.8823 1249.48,-60.9321 1297.27,-50.3696 1328.56,-43.0884"/>
<polygon fill="red" stroke="red" stroke-width="0.339994" points="1329.57,-46.4464 1338.5,-40.7549 1327.97,-39.6314 1329.57,-46.4464"/>
</g>
<!-- distancia projetil 13&#45;&gt;atirar -->
<g id="edge10" class="edge"><title>distancia projetil 13&#45;&gt;atirar</title>
<path fill="none" stroke="red" stroke-width="0.134573" stroke-dasharray="1,5" d="M832.565,-116.073C822.588,-112.301 810.475,-107.785 799.539,-103.882 739.754,-82.5469 669.531,-59.0412 629.311,-45.726"/>
<polygon fill="red" stroke="red" stroke-width="0.134573" points="630.35,-42.3832 619.757,-42.5679 628.153,-49.0296 630.35,-42.3832"/>
</g>
<!-- distancia projetil 13&#45;&gt;release -->
<g id="edge62" class="edge"><title>distancia projetil 13&#45;&gt;release</title>
<path fill="none" stroke="green" stroke-width="0.137105" d="M862.767,-115.868C876.659,-103.483 903.541,-79.5165 924.461,-60.8651"/>
<polygon fill="green" stroke="green" stroke-width="0.137105" points="927.013,-63.2795 932.148,-54.0123 922.354,-58.0545 927.013,-63.2795"/>
</g>
<!-- distancia projetil 14 -->
<g id="node14" class="node"><title>distancia projetil 14</title>
<polygon fill="lightgray" stroke="black" points="588.539,-134.095 500.539,-134.095 500.539,-116.095 588.539,-116.095 588.539,-134.095"/>
<text text-anchor="middle" x="544.539" y="-122.895" font-family="Times New Roman,serif" font-size="9.00">distancia projetil 14</text>
</g>
<!-- distancia projetil 14&#45;&gt;atirar -->
<g id="edge39" class="edge"><title>distancia projetil 14&#45;&gt;atirar</title>
<path fill="none" stroke="green" stroke-width="0.23796" d="M549.338,-115.868C556.061,-104.341 568.635,-82.7821 579.116,-64.813"/>
<polygon fill="green" stroke="green" stroke-width="0.23796" points="582.349,-66.2172 584.364,-55.8157 576.302,-62.6904 582.349,-66.2172"/>
</g>
<!-- distancia projetil 14&#45;&gt;release -->
<g id="edge56" class="edge"><title>distancia projetil 14&#45;&gt;release</title>
<path fill="none" stroke="green" stroke-width="0.306928" d="M563.404,-115.987C573.407,-111.922 585.985,-107.177 597.539,-103.882 710.746,-71.596 848.516,-49.6926 914.562,-40.2304"/>
<polygon fill="green" stroke="green" stroke-width="0.306928" points="915.121,-43.6862 924.532,-38.8189 914.14,-36.7554 915.121,-43.6862"/>
</g>
<!-- distancia projetil 15 -->
<g id="node15" class="node"><title>distancia projetil 15</title>
<polygon fill="lightgray" stroke="black" points="1606.54,-134.095 1518.54,-134.095 1518.54,-116.095 1606.54,-116.095 1606.54,-134.095"/>
<text text-anchor="middle" x="1562.54" y="-122.895" font-family="Times New Roman,serif" font-size="9.00">distancia projetil 15</text>
</g>
<!-- distancia projetil 15&#45;&gt;pular -->
<g id="edge7" class="edge"><title>distancia projetil 15&#45;&gt;pular</title>
<path fill="none" stroke="green" stroke-width="0.253496" stroke-dasharray="1,5" d="M1544.44,-116.026C1510.45,-100.876 1436.7,-67.9984 1394.28,-49.0911"/>
<polygon fill="green" stroke="green" stroke-width="0.253496" points="1395.53,-45.8168 1384.97,-44.9421 1392.68,-52.2104 1395.53,-45.8168"/>
</g>
<!-- distancia projetil 15&#45;&gt;release -->
<g id="edge35" class="edge"><title>distancia projetil 15&#45;&gt;release</title>
<path fill="none" stroke="red" stroke-width="0.16015" d="M1544.77,-115.919C1534.65,-111.624 1521.63,-106.684 1509.54,-103.882 1338.24,-64.1824 1289.51,-93.4398 1115.54,-67.8823 1072.88,-61.615 1024.49,-51.3583 991.797,-43.9533"/>
<polygon fill="red" stroke="red" stroke-width="0.16015" points="992.288,-40.4754 981.76,-41.6579 990.728,-47.2992 992.288,-40.4754"/>
</g>
<!-- distancia projetil 16 -->
<g id="node16" class="node"><title>distancia projetil 16</title>
<polygon fill="lightgray" stroke="black" points="1300.54,-134.095 1212.54,-134.095 1212.54,-116.095 1300.54,-116.095 1300.54,-134.095"/>
<text text-anchor="middle" x="1256.54" y="-122.895" font-family="Times New Roman,serif" font-size="9.00">distancia projetil 16</text>
</g>
<!-- distancia projetil 16&#45;&gt;direita -->
<g id="edge43" class="edge"><title>distancia projetil 16&#45;&gt;direita</title>
<path fill="none" stroke="green" stroke-width="0.429959" stroke-dasharray="1,5" d="M1246.94,-115.868C1232.07,-103.122 1202.89,-78.1067 1180.89,-59.245"/>
<polygon fill="green" stroke="green" stroke-width="0.429959" points="1183.02,-56.4596 1173.15,-52.6084 1178.46,-61.7741 1183.02,-56.4596"/>
</g>
<!-- distancia projetil 16&#45;&gt;release -->
<g id="edge21" class="edge"><title>distancia projetil 16&#45;&gt;release</title>
<path fill="none" stroke="red" stroke-width="0.662409" d="M1236.82,-116.061C1226.91,-112.156 1214.68,-107.532 1203.54,-103.882 1129.25,-79.5329 1040.71,-56.4961 991.442,-44.1945"/>
<polygon fill="red" stroke="red" stroke-width="0.662409" points="992.092,-40.7497 981.543,-41.7358 990.405,-47.5433 992.092,-40.7497"/>
</g>
<!-- distancia inimigo 1 -->
<g id="node17" class="node"><title>distancia inimigo 1</title>
<polygon fill="lightgray" stroke="black" points="135.039,-134.095 52.0389,-134.095 52.0389,-116.095 135.039,-116.095 135.039,-134.095"/>
<text text-anchor="middle" x="93.5389" y="-122.895" font-family="Times New Roman,serif" font-size="9.00">distancia inimigo 1</text>
</g>
<!-- distancia inimigo 1&#45;&gt;esquerda -->
<g id="edge5" class="edge"><title>distancia inimigo 1&#45;&gt;esquerda</title>
<path fill="none" stroke="green" stroke-width="0.101633" d="M111.331,-116.07C120.766,-112.028 132.632,-107.278 143.539,-103.882 236.557,-74.92 348.896,-53.0143 409.211,-42.2774"/>
<polygon fill="green" stroke="green" stroke-width="0.101633" points="409.902,-45.7096 419.143,-40.5269 408.687,-38.8159 409.902,-45.7096"/>
</g>
<!-- distancia inimigo 1&#45;&gt;atirar -->
<g id="edge22" class="edge"><title>distancia inimigo 1&#45;&gt;atirar</title>
<path fill="none" stroke="red" stroke-width="0.201545" stroke-dasharray="1,5" d="M110.266,-115.948C119.797,-111.662 132.088,-106.721 143.539,-103.882 296.177,-66.0357 341.687,-100.449 495.539,-67.8823 518.895,-62.9385 544.453,-54.5727 564.015,-47.5092"/>
<polygon fill="red" stroke="red" stroke-width="0.201545" points="565.481,-50.6994 573.655,-43.9592 563.062,-44.1306 565.481,-50.6994"/>
</g>
<!-- distancia inimigo 2 -->
<g id="node18" class="node"><title>distancia inimigo 2</title>
<polygon fill="lightgray" stroke="black" points="2034.04,-200.309 1951.04,-200.309 1951.04,-182.309 2034.04,-182.309 2034.04,-200.309"/>
<text text-anchor="middle" x="1992.54" y="-189.109" font-family="Times New Roman,serif" font-size="9.00">distancia inimigo 2</text>
</g>
<!-- direcao sprites 1 -->
<g id="node19" class="node"><title>direcao sprites 1</title>
<polygon fill="lightgray" stroke="black" points="1500.54,-134.095 1424.54,-134.095 1424.54,-116.095 1500.54,-116.095 1500.54,-134.095"/>
<text text-anchor="middle" x="1462.54" y="-122.895" font-family="Times New Roman,serif" font-size="9.00">direcao sprites 1</text>
</g>
<!-- direcao sprites 1&#45;&gt;direita -->
<g id="edge37" class="edge"><title>direcao sprites 1&#45;&gt;direita</title>
<path fill="none" stroke="red" stroke-width="0.719963" stroke-dasharray="1,5" d="M1445.37,-115.978C1436.58,-112.007 1425.62,-107.349 1415.54,-103.882 1336.41,-76.6655 1240.74,-54.0818 1189.4,-42.767"/>
<polygon fill="red" stroke="red" stroke-width="0.719963" points="1189.95,-39.3059 1179.44,-40.5911 1188.46,-46.1446 1189.95,-39.3059"/>
</g>
<!-- direcao sprites 1&#45;&gt;pular -->
<g id="edge19" class="edge"><title>direcao sprites 1&#45;&gt;pular</title>
<path fill="none" stroke="red" stroke-width="0.540876" d="M1453.31,-115.868C1438.73,-102.872 1409.85,-77.1211 1388.56,-58.1429"/>
<polygon fill="red" stroke="red" stroke-width="0.540876" points="1390.62,-55.2838 1380.82,-51.2415 1385.96,-60.5088 1390.62,-55.2838"/>
</g>
<!-- direcao sprites 1&#45;&gt;release -->
<g id="edge54" class="edge"><title>direcao sprites 1&#45;&gt;release</title>
<path fill="none" stroke="red" stroke-width="0.311022" d="M1446.85,-116.001C1437.9,-111.732 1426.35,-106.79 1415.54,-103.882 1285.86,-68.9967 1248.11,-89.2793 1115.54,-67.8823 1072.97,-61.0118 1024.57,-50.8598 991.845,-43.6444"/>
<polygon fill="red" stroke="red" stroke-width="0.311022" points="992.319,-40.1645 981.798,-41.4128 990.801,-46.9979 992.319,-40.1645"/>
</g>
<!-- direcao sprites 2 -->
<g id="node20" class="node"><title>direcao sprites 2</title>
<polygon fill="lightgray" stroke="black" points="991.539,-134.095 915.539,-134.095 915.539,-116.095 991.539,-116.095 991.539,-134.095"/>
<text text-anchor="middle" x="953.539" y="-122.895" font-family="Times New Roman,serif" font-size="9.00">direcao sprites 2</text>
</g>
<!-- direcao sprites 2&#45;&gt;esquerda -->
<g id="edge40" class="edge"><title>direcao sprites 2&#45;&gt;esquerda</title>
<path fill="none" stroke="red" stroke-width="0.137865" d="M937.866,-115.938C928.923,-111.648 917.368,-106.708 906.539,-103.882 757.794,-65.0744 713.271,-98.0636 562.539,-67.8823 539.525,-63.2742 514.414,-55.9373 494.001,-49.3562"/>
<polygon fill="red" stroke="red" stroke-width="0.137865" points="494.981,-45.9941 484.388,-46.2015 492.798,-52.6451 494.981,-45.9941"/>
</g>
<!-- direcao sprites 2&#45;&gt;direita -->
<g id="edge51" class="edge"><title>direcao sprites 2&#45;&gt;direita</title>
<path fill="none" stroke="red" stroke-width="0.223373" d="M971.55,-116.026C1004.73,-101.162 1075.99,-69.2372 1118.52,-50.18"/>
<polygon fill="red" stroke="red" stroke-width="0.223373" points="1119.96,-53.3726 1127.65,-46.0899 1117.1,-46.9844 1119.96,-53.3726"/>
</g>
<!-- direcao sprites 2&#45;&gt;pular -->
<g id="edge1" class="edge"><title>direcao sprites 2&#45;&gt;pular</title>
<path fill="none" stroke="green" stroke-width="0.254126" d="M969.72,-116.02C978.625,-111.864 989.982,-107.023 1000.54,-103.882 1090.04,-77.2538 1115.85,-85.5914 1207.54,-67.8823 1249.28,-59.82 1297.11,-49.4881 1328.46,-42.5643"/>
<polygon fill="green" stroke="green" stroke-width="0.254126" points="1329.43,-45.9357 1338.43,-40.3551 1327.91,-39.1015 1329.43,-45.9357"/>
</g>
<!-- direcao sprites 2&#45;&gt;atirar -->
<g id="edge14" class="edge"><title>direcao sprites 2&#45;&gt;atirar</title>
<path fill="none" stroke="red" stroke-width="0.49827" d="M936.864,-116.017C928.008,-111.961 916.851,-107.214 906.539,-103.882 808.747,-72.2877 689.014,-50.1527 631.137,-40.452"/>
<polygon fill="red" stroke="red" stroke-width="0.49827" points="631.507,-36.9656 621.07,-38.7859 630.364,-43.8717 631.507,-36.9656"/>
</g>
<!-- direcao sprites 2&#45;&gt;release -->
<g id="edge44" class="edge"><title>direcao sprites 2&#45;&gt;release</title>
<path fill="none" stroke="red" stroke-width="0.66097" d="M953.539,-115.868C953.539,-106.108 953.539,-89.1554 953.539,-73.2796"/>
<polygon fill="red" stroke="red" stroke-width="0.66097" points="957.039,-73.0889 953.539,-63.0889 950.039,-73.0889 957.039,-73.0889"/>
</g>
<!-- direita&#45;&gt;direita -->
<g id="edge58" class="edge"><title>direita&#45;&gt;direita</title>
<path fill="none" stroke="green" stroke-width="0.153747" d="M1175.05,-50.1199C1187.12,-52.8692 1198.12,-47.4763 1198.12,-33.9411 1198.12,-24.4242 1192.68,-18.9327 1185.26,-17.4666"/>
<polygon fill="green" stroke="green" stroke-width="0.153747" points="1184.95,-13.9741 1175.05,-17.7624 1185.15,-20.9711 1184.95,-13.9741"/>
</g>
<!-- release&#45;&gt;release -->
<g id="edge24" class="edge"><title>release&#45;&gt;release</title>
<path fill="none" stroke="red" stroke-width="0.348031" stroke-dasharray="1,5" d="M977.717,-50.3176C989.775,-52.5836 1000.53,-47.1247 1000.53,-33.9411 1000.53,-24.6714 995.213,-19.2207 987.864,-17.589"/>
<polygon fill="red" stroke="red" stroke-width="0.348031" points="987.725,-14.0888 977.717,-17.5646 987.708,-21.0887 987.725,-14.0888"/>
</g>
<!-- 431&#45;&gt;pular -->
<g id="edge3" class="edge"><title>431&#45;&gt;pular</title>
<path fill="none" stroke="red" stroke-width="0.374254" d="M1874.37,-112.422C1868.88,-109.182 1862.64,-105.981 1856.54,-103.882 1770.9,-74.4344 1495.44,-47.0854 1397.5,-38.0631"/>
<polygon fill="red" stroke="red" stroke-width="0.374254" points="1397.53,-34.5514 1387.25,-37.1265 1396.89,-41.5223 1397.53,-34.5514"/>
</g>
</g>
</svg>
