<?xml version="1.0" encoding="UTF-8" standalone="no"?>
<!DOCTYPE svg PUBLIC "-//W3C//DTD SVG 1.1//EN"
 "http://www.w3.org/Graphics/SVG/1.1/DTD/svg11.dtd">
<!-- Generated by graphviz version 2.38.0 (20140413.2041)
 -->
<!-- Title: %3 Pages: 1 -->
<svg width="2039pt" height="130pt"
 viewBox="0.00 0.00 2039.00 129.88" xmlns="http://www.w3.org/2000/svg" xmlns:xlink="http://www.w3.org/1999/xlink">
<g id="graph0" class="graph" transform="scale(1 1) rotate(0) translate(4 125.882)">
<title>%3</title>
<polygon fill="white" stroke="none" points="-4,4 -4,-125.882 2035,-125.882 2035,4 -4,4"/>
<!-- dintancia projetil 1 -->
<g id="node1" class="node"><title>dintancia projetil 1</title>
<polygon fill="lightgray" stroke="black" points="1521,-121.882 1437,-121.882 1437,-103.882 1521,-103.882 1521,-121.882"/>
<text text-anchor="middle" x="1479" y="-110.682" font-family="Times New Roman,serif" font-size="9.00">dintancia projetil 1</text>
</g>
<!-- esquerda -->
<g id="node21" class="node"><title>esquerda</title>
<ellipse fill="lightblue" stroke="black" cx="862" cy="-33.9411" rx="33.8824" ry="33.8824"/>
<text text-anchor="middle" x="862" y="-31.7411" font-family="Times New Roman,serif" font-size="9.00">esquerda</text>
</g>
<!-- dintancia projetil 1&#45;&gt;esquerda -->
<g id="edge2" class="edge"><title>dintancia projetil 1&#45;&gt;esquerda</title>
<path fill="none" stroke="green" stroke-width="0.315105" d="M1436.73,-105.001C1433.78,-104.598 1430.85,-104.22 1428,-103.882 1229.63,-80.3879 1176.66,-102.898 980,-67.8823 954.396,-63.3233 926.331,-55.6045 903.997,-48.7843"/>
<polygon fill="green" stroke="green" stroke-width="0.315105" points="904.756,-45.3552 894.168,-45.7285 902.678,-52.0396 904.756,-45.3552"/>
</g>
<!-- direita -->
<g id="node22" class="node"><title>direita</title>
<ellipse fill="lightblue" stroke="black" cx="1530" cy="-33.9411" rx="27.6545" ry="27.6545"/>
<text text-anchor="middle" x="1530" y="-31.7411" font-family="Times New Roman,serif" font-size="9.00">direita</text>
</g>
<!-- dintancia projetil 1&#45;&gt;direita -->
<g id="edge15" class="edge"><title>dintancia projetil 1&#45;&gt;direita</title>
<path fill="none" stroke="green" stroke-width="0.818428" d="M1484.46,-103.648C1490.4,-94.6803 1500.27,-79.7905 1509.31,-66.1607"/>
<polygon fill="green" stroke="green" stroke-width="0.818428" points="1512.47,-67.7297 1515.07,-57.4608 1506.63,-63.8622 1512.47,-67.7297"/>
</g>
<!-- atirar -->
<g id="node24" class="node"><title>atirar</title>
<ellipse fill="lightblue" stroke="black" cx="1014" cy="-33.9411" rx="25" ry="25"/>
<text text-anchor="middle" x="1014" y="-31.7411" font-family="Times New Roman,serif" font-size="9.00">atirar</text>
</g>
<!-- dintancia projetil 1&#45;&gt;atirar -->
<g id="edge59" class="edge"><title>dintancia projetil 1&#45;&gt;atirar</title>
<path fill="none" stroke="red" stroke-width="0.69749" d="M1436.99,-105.18C1433.95,-104.73 1430.93,-104.292 1428,-103.882 1298.5,-85.748 1264.33,-92.9876 1136,-67.8823 1105.67,-61.9483 1071.77,-52.5699 1047.42,-45.3348"/>
<polygon fill="red" stroke="red" stroke-width="0.69749" points="1048.2,-41.9119 1037.61,-42.3816 1046.18,-48.615 1048.2,-41.9119"/>
</g>
<!-- distancia projetil 2 -->
<g id="node2" class="node"><title>distancia projetil 2</title>
<polygon fill="lightgray" stroke="black" points="290.5,-121.882 207.5,-121.882 207.5,-103.882 290.5,-103.882 290.5,-121.882"/>
<text text-anchor="middle" x="249" y="-110.682" font-family="Times New Roman,serif" font-size="9.00">distancia projetil 2</text>
</g>
<!-- distancia projetil 2&#45;&gt;esquerda -->
<g id="edge13" class="edge"><title>distancia projetil 2&#45;&gt;esquerda</title>
<path fill="none" stroke="red" stroke-width="0.152892" d="M290.721,-105.063C293.521,-104.65 296.3,-104.252 299,-103.882 438.606,-84.7461 474.152,-85.1599 614,-67.8823 685.633,-59.0322 768.769,-47.7912 818.289,-40.9926"/>
<polygon fill="red" stroke="red" stroke-width="0.152892" points="818.9,-44.4417 828.33,-39.6118 817.946,-37.5069 818.9,-44.4417"/>
</g>
<!-- distancia projetil 2&#45;&gt;atirar -->
<g id="edge52" class="edge"><title>distancia projetil 2&#45;&gt;atirar</title>
<path fill="none" stroke="red" stroke-width="0.232795" stroke-dasharray="1,5" d="M290.699,-104.887C293.504,-104.517 296.291,-104.176 299,-103.882 575.172,-73.8996 650.88,-123.744 923,-67.8823 943.225,-63.7304 965.001,-55.9744 982.179,-49.031"/>
<polygon fill="red" stroke="red" stroke-width="0.232795" points="983.822,-52.1382 991.715,-45.0701 981.137,-45.6737 983.822,-52.1382"/>
</g>
<!-- release -->
<g id="node25" class="node"><title>release</title>
<ellipse fill="lightblue" stroke="black" cx="558" cy="-33.9411" rx="28.9828" ry="28.9828"/>
<text text-anchor="middle" x="558" y="-31.7411" font-family="Times New Roman,serif" font-size="9.00">release</text>
</g>
<!-- distancia projetil 2&#45;&gt;release -->
<g id="edge63" class="edge"><title>distancia projetil 2&#45;&gt;release</title>
<path fill="none" stroke="green" stroke-width="1.21278" d="M281.194,-103.866C338.62,-89.5669 458.447,-59.7299 519.884,-44.4321"/>
<polygon fill="green" stroke="green" stroke-width="1.21278" points="521.079,-47.7415 529.937,-41.9289 519.387,-40.9489 521.079,-47.7415"/>
</g>
<!-- distancia projetil 3 -->
<g id="node3" class="node"><title>distancia projetil 3</title>
<polygon fill="lightgray" stroke="black" points="1003.5,-121.882 920.5,-121.882 920.5,-103.882 1003.5,-103.882 1003.5,-121.882"/>
<text text-anchor="middle" x="962" y="-110.682" font-family="Times New Roman,serif" font-size="9.00">distancia projetil 3</text>
</g>
<!-- distancia projetil 3&#45;&gt;esquerda -->
<g id="edge57" class="edge"><title>distancia projetil 3&#45;&gt;esquerda</title>
<path fill="none" stroke="green" stroke-width="0.363614" d="M951.298,-103.648C938.337,-93.6754 915.857,-76.3792 896.696,-61.6363"/>
<polygon fill="green" stroke="green" stroke-width="0.363614" points="898.784,-58.8272 888.724,-55.5031 894.516,-64.3751 898.784,-58.8272"/>
</g>
<!-- distancia projetil 3&#45;&gt;atirar -->
<g id="edge12" class="edge"><title>distancia projetil 3&#45;&gt;atirar</title>
<path fill="none" stroke="green" stroke-width="0.148733" stroke-dasharray="1,5" d="M967.565,-103.648C974.031,-94.0812 985.051,-77.7748 994.734,-63.4482"/>
<polygon fill="green" stroke="green" stroke-width="0.148733" points="997.837,-65.1068 1000.54,-54.8617 992.037,-61.1871 997.837,-65.1068"/>
</g>
<!-- distancia projetil 4 -->
<g id="node4" class="node"><title>distancia projetil 4</title>
<polygon fill="lightgray" stroke="black" points="1211.5,-121.882 1128.5,-121.882 1128.5,-103.882 1211.5,-103.882 1211.5,-121.882"/>
<text text-anchor="middle" x="1170" y="-110.682" font-family="Times New Roman,serif" font-size="9.00">distancia projetil 4</text>
</g>
<!-- distancia projetil 4&#45;&gt;esquerda -->
<g id="edge44" class="edge"><title>distancia projetil 4&#45;&gt;esquerda</title>
<path fill="none" stroke="green" stroke-width="0.579724" stroke-dasharray="1,5" d="M1133.1,-103.85C1094.73,-95.3775 1032.98,-81.4056 980,-67.8823 954.801,-61.4506 926.754,-53.648 904.329,-47.2512"/>
<polygon fill="green" stroke="green" stroke-width="0.579724" points="905.028,-43.8109 894.451,-44.4211 903.1,-50.5402 905.028,-43.8109"/>
</g>
<!-- pular -->
<g id="node23" class="node"><title>pular</title>
<ellipse fill="lightblue" stroke="black" cx="1170" cy="-33.9411" rx="25" ry="25"/>
<text text-anchor="middle" x="1170" y="-31.7411" font-family="Times New Roman,serif" font-size="9.00">pular</text>
</g>
<!-- distancia projetil 4&#45;&gt;pular -->
<g id="edge10" class="edge"><title>distancia projetil 4&#45;&gt;pular</title>
<path fill="none" stroke="red" stroke-width="1.29501" stroke-dasharray="1,5" d="M1170,-103.648C1170,-95.2667 1170,-81.7123 1170,-68.8483"/>
<polygon fill="red" stroke="red" stroke-width="1.29501" points="1173.5,-68.7917 1170,-58.7917 1166.5,-68.7917 1173.5,-68.7917"/>
</g>
<!-- distancia projetil 5 -->
<g id="node5" class="node"><title>distancia projetil 5</title>
<polygon fill="lightgray" stroke="black" points="391.5,-121.882 308.5,-121.882 308.5,-103.882 391.5,-103.882 391.5,-121.882"/>
<text text-anchor="middle" x="350" y="-110.682" font-family="Times New Roman,serif" font-size="9.00">distancia projetil 5</text>
</g>
<!-- distancia projetil 5&#45;&gt;esquerda -->
<g id="edge34" class="edge"><title>distancia projetil 5&#45;&gt;esquerda</title>
<path fill="none" stroke="green" stroke-width="0.482469" d="M391.745,-105.309C394.876,-104.824 397.988,-104.344 401,-103.882 554.421,-80.3777 736.718,-53.3953 818.506,-41.3397"/>
<polygon fill="green" stroke="green" stroke-width="0.482469" points="819.056,-44.7966 828.439,-39.8762 818.035,-37.8713 819.056,-44.7966"/>
</g>
<!-- distancia projetil 5&#45;&gt;pular -->
<g id="edge64" class="edge"><title>distancia projetil 5&#45;&gt;pular</title>
<path fill="none" stroke="red" stroke-width="0.202408" stroke-dasharray="1,5" d="M391.704,-104.993C394.845,-104.58 397.97,-104.203 401,-103.882 687.396,-73.5289 763.662,-113.667 1048,-67.8823 1078.51,-62.9689 1112.39,-53.4878 1136.69,-45.954"/>
<polygon fill="red" stroke="red" stroke-width="0.202408" points="1137.99,-49.2119 1146.47,-42.8635 1135.88,-42.5367 1137.99,-49.2119"/>
</g>
<!-- distancia projetil 5&#45;&gt;atirar -->
<g id="edge48" class="edge"><title>distancia projetil 5&#45;&gt;atirar</title>
<path fill="none" stroke="green" stroke-width="0.206465" d="M391.709,-105.038C394.849,-104.615 397.972,-104.224 401,-103.882 632.088,-77.8388 695.466,-115.925 923,-67.8823 943.201,-63.6169 964.976,-55.8564 982.159,-48.939"/>
<polygon fill="green" stroke="green" stroke-width="0.206465" points="983.795,-52.0504 991.7,-44.9963 981.121,-45.5811 983.795,-52.0504"/>
</g>
<!-- distancia projetil 5&#45;&gt;release -->
<g id="edge27" class="edge"><title>distancia projetil 5&#45;&gt;release</title>
<path fill="none" stroke="green" stroke-width="0.278669" stroke-dasharray="1,5" d="M371.867,-103.794C407.379,-90.657 477.973,-64.544 521.285,-48.5224"/>
<polygon fill="green" stroke="green" stroke-width="0.278669" points="522.716,-51.725 530.88,-44.973 520.287,-45.1598 522.716,-51.725"/>
</g>
<!-- distancia projetil 6 -->
<g id="node6" class="node"><title>distancia projetil 6</title>
<polygon fill="lightgray" stroke="black" points="189.5,-121.882 106.5,-121.882 106.5,-103.882 189.5,-103.882 189.5,-121.882"/>
<text text-anchor="middle" x="148" y="-110.682" font-family="Times New Roman,serif" font-size="9.00">distancia projetil 6</text>
</g>
<!-- distancia projetil 6&#45;&gt;esquerda -->
<g id="edge20" class="edge"><title>distancia projetil 6&#45;&gt;esquerda</title>
<path fill="none" stroke="green" stroke-width="0.175845" stroke-dasharray="1,5" d="M189.71,-104.977C192.512,-104.585 195.295,-104.215 198,-103.882 382.189,-81.2075 429.525,-88.1053 614,-67.8823 685.748,-60.0169 768.85,-48.4822 818.332,-41.3562"/>
<polygon fill="green" stroke="green" stroke-width="0.175845" points="818.968,-44.8007 828.364,-39.9055 817.966,-37.8728 818.968,-44.8007"/>
</g>
<!-- distancia projetil 6&#45;&gt;release -->
<g id="edge33" class="edge"><title>distancia projetil 6&#45;&gt;release</title>
<path fill="none" stroke="green" stroke-width="0.185981" stroke-dasharray="1,5" d="M189.569,-104.081C269.191,-89.1394 442.152,-56.6813 519.394,-42.1861"/>
<polygon fill="green" stroke="green" stroke-width="0.185981" points="520.455,-45.5481 529.638,-40.2636 519.164,-38.6682 520.455,-45.5481"/>
</g>
<!-- distancia projetil 7 -->
<g id="node7" class="node"><title>distancia projetil 7</title>
<polygon fill="lightgray" stroke="black" points="795.5,-121.882 712.5,-121.882 712.5,-103.882 795.5,-103.882 795.5,-121.882"/>
<text text-anchor="middle" x="754" y="-110.682" font-family="Times New Roman,serif" font-size="9.00">distancia projetil 7</text>
</g>
<!-- distancia projetil 7&#45;&gt;esquerda -->
<g id="edge11" class="edge"><title>distancia projetil 7&#45;&gt;esquerda</title>
<path fill="none" stroke="green" stroke-width="0.140994" d="M765.558,-103.648C779.906,-93.4264 805.053,-75.511 826.072,-60.5371"/>
<polygon fill="green" stroke="green" stroke-width="0.140994" points="828.371,-63.1962 834.485,-54.5432 824.31,-57.495 828.371,-63.1962"/>
</g>
<!-- distancia projetil 7&#45;&gt;direita -->
<g id="edge61" class="edge"><title>distancia projetil 7&#45;&gt;direita</title>
<path fill="none" stroke="red" stroke-width="0.146618" d="M795.716,-105.097C798.854,-104.661 801.975,-104.25 805,-103.882 989.666,-81.455 1036.84,-85.7745 1222,-67.8823 1319.51,-58.46 1434.2,-45.7678 1492.25,-39.23"/>
<polygon fill="red" stroke="red" stroke-width="0.146618" points="1492.87,-42.6825 1502.41,-38.083 1492.08,-35.7267 1492.87,-42.6825"/>
</g>
<!-- distancia projetil 7&#45;&gt;release -->
<g id="edge3" class="edge"><title>distancia projetil 7&#45;&gt;release</title>
<path fill="none" stroke="red" stroke-width="0.184451" d="M733.395,-103.794C700.365,-90.8276 635.132,-65.2198 594.199,-49.1514"/>
<polygon fill="red" stroke="red" stroke-width="0.184451" points="595.44,-45.8784 584.852,-45.4822 592.882,-52.3943 595.44,-45.8784"/>
</g>
<!-- distancia projetil 8 -->
<g id="node8" class="node"><title>distancia projetil 8</title>
<polygon fill="lightgray" stroke="black" points="1312.5,-121.882 1229.5,-121.882 1229.5,-103.882 1312.5,-103.882 1312.5,-121.882"/>
<text text-anchor="middle" x="1271" y="-110.682" font-family="Times New Roman,serif" font-size="9.00">distancia projetil 8</text>
</g>
<!-- distancia projetil 8&#45;&gt;esquerda -->
<g id="edge65" class="edge"><title>distancia projetil 8&#45;&gt;esquerda</title>
<path fill="none" stroke="green" stroke-width="0.48034" stroke-dasharray="1,5" d="M1229.26,-105.171C1226.47,-104.732 1223.69,-104.299 1221,-103.882 1113.97,-87.3269 1085.91,-90.4855 980,-67.8823 954.566,-62.4544 926.509,-54.6966 904.136,-48.0729"/>
<polygon fill="green" stroke="green" stroke-width="0.48034" points="904.871,-44.6393 894.287,-45.1219 902.862,-51.3448 904.871,-44.6393"/>
</g>
<!-- distancia projetil 8&#45;&gt;pular -->
<g id="edge28" class="edge"><title>distancia projetil 8&#45;&gt;pular</title>
<path fill="none" stroke="green" stroke-width="0.163395" stroke-dasharray="1,5" d="M1260.19,-103.648C1245.34,-92.3361 1218.12,-71.6016 1197.46,-55.8588"/>
<polygon fill="green" stroke="green" stroke-width="0.163395" points="1199.42,-52.9495 1189.34,-49.6737 1195.17,-58.5178 1199.42,-52.9495"/>
</g>
<!-- distancia projetil 8&#45;&gt;atirar -->
<g id="edge42" class="edge"><title>distancia projetil 8&#45;&gt;atirar</title>
<path fill="none" stroke="red" stroke-width="0.344369" stroke-dasharray="1,5" d="M1243.98,-103.794C1196.62,-89.6145 1098.76,-60.3174 1047.3,-44.91"/>
<polygon fill="red" stroke="red" stroke-width="0.344369" points="1048.24,-41.5375 1037.65,-42.0223 1046.23,-48.2434 1048.24,-41.5375"/>
</g>
<!-- distancia projetil 9 -->
<g id="node9" class="node"><title>distancia projetil 9</title>
<polygon fill="lightgray" stroke="black" points="1936.5,-121.882 1853.5,-121.882 1853.5,-103.882 1936.5,-103.882 1936.5,-121.882"/>
<text text-anchor="middle" x="1895" y="-110.682" font-family="Times New Roman,serif" font-size="9.00">distancia projetil 9</text>
</g>
<!-- distancia projetil 9&#45;&gt;esquerda -->
<g id="edge43" class="edge"><title>distancia projetil 9&#45;&gt;esquerda</title>
<path fill="none" stroke="red" stroke-width="0.208918" d="M1853.3,-104.945C1850.16,-104.544 1847.03,-104.182 1844,-103.882 1461.53,-66.0412 1359.61,-127.951 980,-67.8823 954.313,-63.8176 926.244,-56.1208 903.929,-49.1889"/>
<polygon fill="red" stroke="red" stroke-width="0.208918" points="904.7,-45.7617 894.11,-46.0735 902.583,-52.4339 904.7,-45.7617"/>
</g>
<!-- distancia projetil 9&#45;&gt;direita -->
<g id="edge29" class="edge"><title>distancia projetil 9&#45;&gt;direita</title>
<path fill="none" stroke="green" stroke-width="0.597798" stroke-dasharray="1,5" d="M1856.97,-103.866C1786.63,-89.0389 1637.04,-57.5055 1567.28,-42.7986"/>
<polygon fill="green" stroke="green" stroke-width="0.597798" points="1567.69,-39.3093 1557.18,-40.6713 1566.25,-46.1587 1567.69,-39.3093"/>
</g>
<!-- distancia projetil 9&#45;&gt;pular -->
<g id="edge8" class="edge"><title>distancia projetil 9&#45;&gt;pular</title>
<path fill="none" stroke="green" stroke-width="0.448278" d="M1853.28,-105.151C1850.14,-104.702 1847.02,-104.274 1844,-103.882 1835.96,-102.841 1341.72,-52.4447 1204.81,-38.4896"/>
<polygon fill="green" stroke="green" stroke-width="0.448278" points="1205.16,-35.0068 1194.86,-37.4746 1204.45,-41.9707 1205.16,-35.0068"/>
</g>
<!-- distancia projetil 9&#45;&gt;atirar -->
<g id="edge46" class="edge"><title>distancia projetil 9&#45;&gt;atirar</title>
<path fill="none" stroke="red" stroke-width="0.632772" d="M1853.3,-104.976C1850.16,-104.568 1847.03,-104.196 1844,-103.882 1530.6,-71.4246 1447.19,-117.227 1136,-67.8823 1105.47,-63.0418 1071.6,-53.5534 1047.31,-45.9983"/>
<polygon fill="red" stroke="red" stroke-width="0.632772" points="1048.11,-42.5813 1037.52,-42.8979 1046,-49.2545 1048.11,-42.5813"/>
</g>
<!-- distancia projetil 10 -->
<g id="node10" class="node"><title>distancia projetil 10</title>
<polygon fill="lightgray" stroke="black" points="498,-121.882 410,-121.882 410,-103.882 498,-103.882 498,-121.882"/>
<text text-anchor="middle" x="454" y="-110.682" font-family="Times New Roman,serif" font-size="9.00">distancia projetil 10</text>
</g>
<!-- distancia projetil 10&#45;&gt;esquerda -->
<g id="edge31" class="edge"><title>distancia projetil 10&#45;&gt;esquerda</title>
<path fill="none" stroke="red" stroke-width="0.147119" d="M496.509,-103.866C574.543,-89.1502 739.842,-57.9778 818.563,-43.1325"/>
<polygon fill="red" stroke="red" stroke-width="0.147119" points="819.449,-46.5273 828.627,-41.2347 818.151,-39.6485 819.449,-46.5273"/>
</g>
<!-- distancia projetil 10&#45;&gt;pular -->
<g id="edge1" class="edge"><title>distancia projetil 10&#45;&gt;pular</title>
<path fill="none" stroke="red" stroke-width="1.14075" d="M498.211,-104.927C501.182,-104.547 504.132,-104.194 507,-103.882 746.569,-77.8765 810.3,-107.483 1048,-67.8823 1078.49,-62.8032 1112.36,-53.3388 1136.67,-45.8535"/>
<polygon fill="red" stroke="red" stroke-width="1.14075" points="1137.97,-49.1152 1146.46,-42.7853 1135.87,-42.4354 1137.97,-49.1152"/>
</g>
<!-- distancia projetil 10&#45;&gt;atirar -->
<g id="edge14" class="edge"><title>distancia projetil 10&#45;&gt;atirar</title>
<path fill="none" stroke="red" stroke-width="0.248221" stroke-dasharray="1,5" d="M498.218,-104.993C501.187,-104.597 504.135,-104.222 507,-103.882 691.288,-82.0221 741.765,-107.805 923,-67.8823 943.163,-63.4406 964.937,-55.6731 982.129,-48.796"/>
<polygon fill="red" stroke="red" stroke-width="0.248221" points="983.75,-51.9139 991.675,-44.8816 981.095,-45.4372 983.75,-51.9139"/>
</g>
<!-- distancia projetil 10&#45;&gt;release -->
<g id="edge24" class="edge"><title>distancia projetil 10&#45;&gt;release</title>
<path fill="none" stroke="red" stroke-width="0.392917" d="M465.13,-103.648C479.683,-92.8813 505.775,-73.5782 526.605,-58.168"/>
<polygon fill="red" stroke="red" stroke-width="0.392917" points="528.913,-60.8139 534.871,-52.0527 524.75,-55.1865 528.913,-60.8139"/>
</g>
<!-- distancia projetil 11 -->
<g id="node11" class="node"><title>distancia projetil 11</title>
<polygon fill="lightgray" stroke="black" points="1110,-121.882 1022,-121.882 1022,-103.882 1110,-103.882 1110,-121.882"/>
<text text-anchor="middle" x="1066" y="-110.682" font-family="Times New Roman,serif" font-size="9.00">distancia projetil 11</text>
</g>
<!-- distancia projetil 11&#45;&gt;esquerda -->
<g id="edge17" class="edge"><title>distancia projetil 11&#45;&gt;esquerda</title>
<path fill="none" stroke="green" stroke-width="0.178621" d="M1044.55,-103.794C1011.05,-91.1582 945.721,-66.5174 902.984,-50.3987"/>
<polygon fill="green" stroke="green" stroke-width="0.178621" points="904.026,-47.0511 893.434,-46.7969 901.555,-53.6007 904.026,-47.0511"/>
</g>
<!-- distancia projetil 11&#45;&gt;pular -->
<g id="edge5" class="edge"><title>distancia projetil 11&#45;&gt;pular</title>
<path fill="none" stroke="green" stroke-width="0.211277" stroke-dasharray="1,5" d="M1077.13,-103.648C1092.58,-92.2174 1121.04,-71.1653 1142.39,-55.3648"/>
<polygon fill="green" stroke="green" stroke-width="0.211277" points="1144.52,-58.1462 1150.48,-49.3849 1140.36,-52.5188 1144.52,-58.1462"/>
</g>
<!-- distancia projetil 11&#45;&gt;atirar -->
<g id="edge40" class="edge"><title>distancia projetil 11&#45;&gt;atirar</title>
<path fill="none" stroke="green" stroke-width="0.350652" d="M1060.44,-103.648C1053.97,-94.0812 1042.95,-77.7748 1033.27,-63.4482"/>
<polygon fill="green" stroke="green" stroke-width="0.350652" points="1035.96,-61.1871 1027.46,-54.8617 1030.16,-65.1068 1035.96,-61.1871"/>
</g>
<!-- distancia projetil 12 -->
<g id="node12" class="node"><title>distancia projetil 12</title>
<polygon fill="lightgray" stroke="black" points="1835,-121.882 1747,-121.882 1747,-103.882 1835,-103.882 1835,-121.882"/>
<text text-anchor="middle" x="1791" y="-110.682" font-family="Times New Roman,serif" font-size="9.00">distancia projetil 12</text>
</g>
<!-- distancia projetil 12&#45;&gt;esquerda -->
<g id="edge9" class="edge"><title>distancia projetil 12&#45;&gt;esquerda</title>
<path fill="none" stroke="green" stroke-width="0.233308" d="M1746.8,-104.864C1743.82,-104.499 1740.87,-104.166 1738,-103.882 1402.37,-70.6696 1312.97,-121.564 980,-67.8823 954.325,-63.7429 926.257,-56.0428 903.939,-49.1277"/>
<polygon fill="green" stroke="green" stroke-width="0.233308" points="904.708,-45.7003 894.118,-46.0214 902.597,-52.3744 904.708,-45.7003"/>
</g>
<!-- distancia projetil 12&#45;&gt;direita -->
<g id="edge22" class="edge"><title>distancia projetil 12&#45;&gt;direita</title>
<path fill="none" stroke="red" stroke-width="0.387505" d="M1763.56,-103.794C1716.1,-89.8024 1618.71,-61.0914 1565.92,-45.5299"/>
<polygon fill="red" stroke="red" stroke-width="0.387505" points="1566.88,-42.163 1556.29,-42.6925 1564.9,-48.8774 1566.88,-42.163"/>
</g>
<!-- distancia projetil 12&#45;&gt;pular -->
<g id="edge37" class="edge"><title>distancia projetil 12&#45;&gt;pular</title>
<path fill="none" stroke="green" stroke-width="0.182435" stroke-dasharray="1,5" d="M1746.77,-105.108C1743.8,-104.684 1740.86,-104.271 1738,-103.882 1536.3,-76.4253 1293.56,-48.7512 1204.73,-38.8006"/>
<polygon fill="green" stroke="green" stroke-width="0.182435" points="1205,-35.309 1194.67,-37.6762 1204.22,-42.2656 1205,-35.309"/>
</g>
<!-- distancia projetil 12&#45;&gt;atirar -->
<g id="edge51" class="edge"><title>distancia projetil 12&#45;&gt;atirar</title>
<path fill="none" stroke="red" stroke-width="0.242262" stroke-dasharray="1,5" d="M1746.79,-104.905C1743.82,-104.53 1740.87,-104.184 1738,-103.882 1471.44,-75.8515 1400.54,-111.041 1136,-67.8823 1105.5,-62.9056 1071.62,-53.4309 1047.32,-45.9156"/>
<polygon fill="red" stroke="red" stroke-width="0.242262" points="1048.12,-42.498 1037.53,-42.8336 1046.02,-49.175 1048.12,-42.498"/>
</g>
<!-- distancia projetil 13 -->
<g id="node13" class="node"><title>distancia projetil 13</title>
<polygon fill="lightgray" stroke="black" points="1729,-121.882 1641,-121.882 1641,-103.882 1729,-103.882 1729,-121.882"/>
<text text-anchor="middle" x="1685" y="-110.682" font-family="Times New Roman,serif" font-size="9.00">distancia projetil 13</text>
</g>
<!-- distancia projetil 13&#45;&gt;direita -->
<g id="edge47" class="edge"><title>distancia projetil 13&#45;&gt;direita</title>
<path fill="none" stroke="red" stroke-width="0.12942" d="M1668.71,-103.794C1643.87,-91.4678 1596.03,-67.7179 1563.56,-51.5988"/>
<polygon fill="red" stroke="red" stroke-width="0.12942" points="1564.94,-48.378 1554.43,-47.0667 1561.83,-54.648 1564.94,-48.378"/>
</g>
<!-- distancia projetil 13&#45;&gt;pular -->
<g id="edge25" class="edge"><title>distancia projetil 13&#45;&gt;pular</title>
<path fill="none" stroke="red" stroke-width="0.47819" d="M1640.75,-105.198C1637.79,-104.752 1634.85,-104.31 1632,-103.882 1472.3,-79.9137 1281.5,-51.5192 1204.62,-40.0871"/>
<polygon fill="red" stroke="red" stroke-width="0.47819" points="1204.95,-36.5976 1194.54,-38.5888 1203.92,-43.5215 1204.95,-36.5976"/>
</g>
<!-- distancia projetil 13&#45;&gt;release -->
<g id="edge55" class="edge"><title>distancia projetil 13&#45;&gt;release</title>
<path fill="none" stroke="green" stroke-width="0.122135" stroke-dasharray="1,5" d="M1640.8,-104.853C1637.82,-104.491 1634.87,-104.162 1632,-103.882 1272.01,-68.842 1179.38,-98.5524 819,-67.8823 739.765,-61.139 647.576,-48.3303 596.707,-40.8261"/>
<polygon fill="green" stroke="green" stroke-width="0.122135" points="596.905,-37.3172 586.499,-39.3094 595.876,-44.2412 596.905,-37.3172"/>
</g>
<!-- distancia projetil 14 -->
<g id="node14" class="node"><title>distancia projetil 14</title>
<polygon fill="lightgray" stroke="black" points="88,-121.882 0,-121.882 0,-103.882 88,-103.882 88,-121.882"/>
<text text-anchor="middle" x="44" y="-110.682" font-family="Times New Roman,serif" font-size="9.00">distancia projetil 14</text>
</g>
<!-- distancia projetil 14&#45;&gt;esquerda -->
<g id="edge50" class="edge"><title>distancia projetil 14&#45;&gt;esquerda</title>
<path fill="none" stroke="red" stroke-width="0.105367" stroke-dasharray="1,5" d="M88.2117,-104.937C91.1825,-104.555 94.1326,-104.198 97,-103.882 325.95,-78.6729 384.835,-91.0577 614,-67.8823 685.812,-60.6199 768.895,-48.9053 818.355,-41.579"/>
<polygon fill="red" stroke="red" stroke-width="0.105367" points="819.008,-45.0205 828.383,-40.0854 817.977,-38.0968 819.008,-45.0205"/>
</g>
<!-- distancia projetil 14&#45;&gt;release -->
<g id="edge56" class="edge"><title>distancia projetil 14&#45;&gt;release</title>
<path fill="none" stroke="red" stroke-width="0.533555" d="M88.2457,-105.199C91.2083,-104.753 94.1473,-104.311 97,-103.882 253.622,-80.3505 440.207,-52.5053 519.401,-40.6954"/>
<polygon fill="red" stroke="red" stroke-width="0.533555" points="520.031,-44.1401 529.406,-39.2035 518.999,-37.2167 520.031,-44.1401"/>
</g>
<!-- distancia projetil 15 -->
<g id="node15" class="node"><title>distancia projetil 15</title>
<polygon fill="lightgray" stroke="black" points="902,-121.882 814,-121.882 814,-103.882 902,-103.882 902,-121.882"/>
<text text-anchor="middle" x="858" y="-110.682" font-family="Times New Roman,serif" font-size="9.00">distancia projetil 15</text>
</g>
<!-- distancia projetil 15&#45;&gt;esquerda -->
<g id="edge38" class="edge"><title>distancia projetil 15&#45;&gt;esquerda</title>
<path fill="none" stroke="green" stroke-width="0.13085" d="M858.428,-103.648C858.757,-97.3183 859.24,-88.038 859.744,-78.3329"/>
<polygon fill="green" stroke="green" stroke-width="0.13085" points="863.248,-78.3395 860.272,-68.1713 856.258,-77.976 863.248,-78.3395"/>
</g>
<!-- distancia projetil 15&#45;&gt;direita -->
<g id="edge23" class="edge"><title>distancia projetil 15&#45;&gt;direita</title>
<path fill="none" stroke="green" stroke-width="0.287423" stroke-dasharray="1,5" d="M902.228,-105.075C905.195,-104.659 908.14,-104.257 911,-103.882 1024.97,-88.9394 1376.59,-51.2643 1492.51,-38.9231"/>
<polygon fill="green" stroke="green" stroke-width="0.287423" points="1493.09,-42.3813 1502.66,-37.8428 1492.35,-35.4206 1493.09,-42.3813"/>
</g>
<!-- distancia projetil 15&#45;&gt;atirar -->
<g id="edge60" class="edge"><title>distancia projetil 15&#45;&gt;atirar</title>
<path fill="none" stroke="green" stroke-width="0.284844" stroke-dasharray="1,5" d="M874.4,-103.794C900.103,-91.1166 950.307,-66.3553 982.981,-50.2401"/>
<polygon fill="green" stroke="green" stroke-width="0.284844" points="984.684,-53.3028 992.104,-45.7404 981.587,-47.0249 984.684,-53.3028"/>
</g>
<!-- distancia projetil 15&#45;&gt;release -->
<g id="edge32" class="edge"><title>distancia projetil 15&#45;&gt;release</title>
<path fill="none" stroke="red" stroke-width="0.156769" d="M826.744,-103.866C771.274,-89.6396 655.836,-60.0332 595.921,-44.6668"/>
<polygon fill="red" stroke="red" stroke-width="0.156769" points="596.659,-41.2427 586.103,-42.1486 594.92,-48.0233 596.659,-41.2427"/>
</g>
<!-- distancia projetil 16 -->
<g id="node16" class="node"><title>distancia projetil 16</title>
<polygon fill="lightgray" stroke="black" points="1419,-121.882 1331,-121.882 1331,-103.882 1419,-103.882 1419,-121.882"/>
<text text-anchor="middle" x="1375" y="-110.682" font-family="Times New Roman,serif" font-size="9.00">distancia projetil 16</text>
</g>
<!-- distancia projetil 16&#45;&gt;esquerda -->
<g id="edge26" class="edge"><title>distancia projetil 16&#45;&gt;esquerda</title>
<path fill="none" stroke="red" stroke-width="0.526012" d="M1330.77,-105.055C1327.81,-104.644 1324.86,-104.249 1322,-103.882 1170.4,-84.4715 1130.13,-96.5304 980,-67.8823 954.454,-63.0076 926.392,-55.2746 904.045,-48.5258"/>
<polygon fill="red" stroke="red" stroke-width="0.526012" points="904.796,-45.0952 894.209,-45.5081 902.742,-51.7873 904.796,-45.0952"/>
</g>
<!-- distancia projetil 16&#45;&gt;direita -->
<g id="edge41" class="edge"><title>distancia projetil 16&#45;&gt;direita</title>
<path fill="none" stroke="red" stroke-width="0.614299" d="M1391.29,-103.794C1416.13,-91.4678 1463.97,-67.7179 1496.44,-51.5988"/>
<polygon fill="red" stroke="red" stroke-width="0.614299" points="1498.17,-54.648 1505.57,-47.0667 1495.06,-48.378 1498.17,-54.648"/>
</g>
<!-- distancia projetil 16&#45;&gt;pular -->
<g id="edge19" class="edge"><title>distancia projetil 16&#45;&gt;pular</title>
<path fill="none" stroke="red" stroke-width="0.269561" d="M1353.45,-103.794C1317.47,-90.2918 1244.98,-63.0819 1202.69,-47.2099"/>
<polygon fill="red" stroke="red" stroke-width="0.269561" points="1203.73,-43.8612 1193.13,-43.6241 1201.27,-50.4148 1203.73,-43.8612"/>
</g>
<!-- distancia projetil 16&#45;&gt;atirar -->
<g id="edge6" class="edge"><title>distancia projetil 16&#45;&gt;atirar</title>
<path fill="none" stroke="red" stroke-width="0.508135" d="M1330.73,-104.845C1282.59,-96.9331 1203.48,-83.1772 1136,-67.8823 1105.86,-61.0503 1071.95,-51.7622 1047.54,-44.79"/>
<polygon fill="red" stroke="red" stroke-width="0.508135" points="1048.28,-41.3608 1037.7,-41.9576 1046.34,-48.0876 1048.28,-41.3608"/>
</g>
<!-- distancia projetil 16&#45;&gt;release -->
<g id="edge18" class="edge"><title>distancia projetil 16&#45;&gt;release</title>
<path fill="none" stroke="green" stroke-width="0.844898" d="M1330.79,-104.944C1327.82,-104.559 1324.87,-104.201 1322,-103.882 1099.24,-79.1375 1042.04,-89.9227 819,-67.8823 739.911,-60.0668 647.749,-47.6562 596.828,-40.5084"/>
<polygon fill="green" stroke="green" stroke-width="0.844898" points="597.3,-37.0403 586.909,-39.1092 596.322,-43.9717 597.3,-37.0403"/>
</g>
<!-- distancia inimigo 1 -->
<g id="node17" class="node"><title>distancia inimigo 1</title>
<polygon fill="lightgray" stroke="black" points="1622.5,-121.882 1539.5,-121.882 1539.5,-103.882 1622.5,-103.882 1622.5,-121.882"/>
<text text-anchor="middle" x="1581" y="-110.682" font-family="Times New Roman,serif" font-size="9.00">distancia inimigo 1</text>
</g>
<!-- distancia inimigo 1&#45;&gt;esquerda -->
<g id="edge7" class="edge"><title>distancia inimigo 1&#45;&gt;esquerda</title>
<path fill="none" stroke="green" stroke-width="0.258943" stroke-dasharray="1,5" d="M1539.29,-105.026C1536.15,-104.606 1533.03,-104.218 1530,-103.882 1286.53,-76.8737 1221.49,-109.036 980,-67.8823 954.363,-63.5132 926.296,-55.8029 903.97,-48.9397"/>
<polygon fill="green" stroke="green" stroke-width="0.258943" points="904.734,-45.5114 894.145,-45.8611 902.641,-52.1912 904.734,-45.5114"/>
</g>
<!-- distancia inimigo 1&#45;&gt;direita -->
<g id="edge58" class="edge"><title>distancia inimigo 1&#45;&gt;direita</title>
<path fill="none" stroke="red" stroke-width="0.14334" stroke-dasharray="1,5" d="M1575.54,-103.648C1569.6,-94.6803 1559.73,-79.7905 1550.69,-66.1607"/>
<polygon fill="red" stroke="red" stroke-width="0.14334" points="1553.37,-63.8622 1544.93,-57.4608 1547.53,-67.7297 1553.37,-63.8622"/>
</g>
<!-- distancia inimigo 1&#45;&gt;atirar -->
<g id="edge62" class="edge"><title>distancia inimigo 1&#45;&gt;atirar</title>
<path fill="none" stroke="red" stroke-width="0.18605" stroke-dasharray="1,5" d="M1539.28,-105.114C1536.14,-104.674 1533.02,-104.257 1530,-103.882 1355.5,-82.2462 1309.08,-98.9163 1136,-67.8823 1105.58,-62.4275 1071.69,-53.0009 1047.37,-45.6256"/>
<polygon fill="red" stroke="red" stroke-width="0.18605" points="1048.16,-42.2055 1037.57,-42.6079 1046.1,-48.8956 1048.16,-42.2055"/>
</g>
<!-- distancia inimigo 2 -->
<g id="node18" class="node"><title>distancia inimigo 2</title>
<polygon fill="lightgray" stroke="black" points="599.5,-121.882 516.5,-121.882 516.5,-103.882 599.5,-103.882 599.5,-121.882"/>
<text text-anchor="middle" x="558" y="-110.682" font-family="Times New Roman,serif" font-size="9.00">distancia inimigo 2</text>
</g>
<!-- distancia inimigo 2&#45;&gt;esquerda -->
<g id="edge36" class="edge"><title>distancia inimigo 2&#45;&gt;esquerda</title>
<path fill="none" stroke="red" stroke-width="0.186115" d="M589.673,-103.866C644.558,-89.9748 757.381,-61.4198 819.189,-45.7763"/>
<polygon fill="red" stroke="red" stroke-width="0.186115" points="820.183,-49.1352 829.019,-43.2885 818.466,-42.3492 820.183,-49.1352"/>
</g>
<!-- distancia inimigo 2&#45;&gt;pular -->
<g id="edge30" class="edge"><title>distancia inimigo 2&#45;&gt;pular</title>
<path fill="none" stroke="red" stroke-width="0.146439" d="M599.714,-105.082C602.853,-104.649 605.974,-104.243 609,-103.882 803.388,-80.6978 855.148,-101.537 1048,-67.8823 1078.45,-62.569 1112.33,-53.1281 1136.64,-45.7114"/>
<polygon fill="red" stroke="red" stroke-width="0.146439" points="1137.93,-48.9783 1146.44,-42.6747 1135.85,-42.2921 1137.93,-48.9783"/>
</g>
<!-- distancia inimigo 2&#45;&gt;atirar -->
<g id="edge45" class="edge"><title>distancia inimigo 2&#45;&gt;atirar</title>
<path fill="none" stroke="green" stroke-width="0.136869" d="M599.728,-105.193C602.863,-104.734 605.98,-104.292 609,-103.882 748.194,-84.9941 786.253,-100.007 923,-67.8823 943.099,-63.1605 964.87,-55.3818 982.077,-48.5688"/>
<polygon fill="green" stroke="green" stroke-width="0.136869" points="983.678,-51.6966 991.633,-44.6994 981.051,-45.2083 983.678,-51.6966"/>
</g>
<!-- distancia inimigo 2&#45;&gt;release -->
<g id="edge53" class="edge"><title>distancia inimigo 2&#45;&gt;release</title>
<path fill="none" stroke="green" stroke-width="0.578309" stroke-dasharray="1,5" d="M558,-103.648C558,-96.2873 558,-84.9367 558,-73.568"/>
<polygon fill="green" stroke="green" stroke-width="0.578309" points="561.5,-73.2361 558,-63.2361 554.5,-73.2361 561.5,-73.2361"/>
</g>
<!-- direcao sprites 1 -->
<g id="node19" class="node"><title>direcao sprites 1</title>
<polygon fill="lightgray" stroke="black" points="694,-121.882 618,-121.882 618,-103.882 694,-103.882 694,-121.882"/>
<text text-anchor="middle" x="656" y="-110.682" font-family="Times New Roman,serif" font-size="9.00">direcao sprites 1</text>
</g>
<!-- direcao sprites 1&#45;&gt;esquerda -->
<g id="edge49" class="edge"><title>direcao sprites 1&#45;&gt;esquerda</title>
<path fill="none" stroke="green" stroke-width="0.152653" d="M677.656,-103.794C711.557,-91.1316 777.736,-66.4136 820.887,-50.297"/>
<polygon fill="green" stroke="green" stroke-width="0.152653" points="822.115,-53.5746 830.258,-46.7969 819.665,-47.0171 822.115,-53.5746"/>
</g>
<!-- direcao sprites 1&#45;&gt;pular -->
<g id="edge16" class="edge"><title>direcao sprites 1&#45;&gt;pular</title>
<path fill="none" stroke="red" stroke-width="0.231136" stroke-dasharray="1,5" d="M694.188,-105.17C697.166,-104.711 700.13,-104.276 703,-103.882 855.736,-82.9369 896.432,-96.0656 1048,-67.8823 1078.39,-62.2321 1112.27,-52.8252 1136.61,-45.507"/>
<polygon fill="red" stroke="red" stroke-width="0.231136" points="1137.87,-48.7812 1146.41,-42.5156 1135.83,-42.0859 1137.87,-48.7812"/>
</g>
<!-- direcao sprites 1&#45;&gt;atirar -->
<g id="edge4" class="edge"><title>direcao sprites 1&#45;&gt;atirar</title>
<path fill="none" stroke="red" stroke-width="0.401636" stroke-dasharray="1,5" d="M694.216,-105.356C697.188,-104.855 700.143,-104.359 703,-103.882 800.726,-87.5695 827.12,-92.851 923,-67.8823 942.98,-62.6791 964.746,-54.8811 981.98,-48.1782"/>
<polygon fill="red" stroke="red" stroke-width="0.401636" points="983.547,-51.3223 991.556,-44.3861 980.97,-44.814 983.547,-51.3223"/>
</g>
<!-- direcao sprites 1&#45;&gt;release -->
<g id="edge54" class="edge"><title>direcao sprites 1&#45;&gt;release</title>
<path fill="none" stroke="red" stroke-width="0.345815" d="M645.512,-103.648C632.032,-93.0648 608.047,-74.2338 588.592,-58.9594"/>
<polygon fill="red" stroke="red" stroke-width="0.345815" points="590.602,-56.0878 580.575,-52.6654 586.28,-61.5937 590.602,-56.0878"/>
</g>
<!-- direcao sprites 2 -->
<g id="node20" class="node"><title>direcao sprites 2</title>
<polygon fill="lightgray" stroke="black" points="2031,-121.882 1955,-121.882 1955,-103.882 2031,-103.882 2031,-121.882"/>
<text text-anchor="middle" x="1993" y="-110.682" font-family="Times New Roman,serif" font-size="9.00">direcao sprites 2</text>
</g>
<!-- esquerda&#45;&gt;esquerda -->
<g id="edge35" class="edge"><title>esquerda&#45;&gt;esquerda</title>
<path fill="none" stroke="green" stroke-width="0.725051" stroke-dasharray="1,5" d="M892.67,-48.5224C904.312,-49.0847 913.941,-44.2243 913.941,-33.9411 913.941,-26.8714 909.39,-22.3648 902.762,-20.4214"/>
<polygon fill="green" stroke="green" stroke-width="0.725051" points="902.981,-16.9252 892.67,-19.3599 902.249,-23.8868 902.981,-16.9252"/>
</g>
<!-- pular&#45;&gt;pular -->
<g id="edge39" class="edge"><title>pular&#45;&gt;pular</title>
<path fill="none" stroke="red" stroke-width="0.243396" stroke-dasharray="1,5" d="M1190.67,-47.8663C1202.17,-50.4657 1212.75,-45.8239 1212.75,-33.9411 1212.75,-25.7717 1207.75,-21.0248 1200.89,-19.7005"/>
<polygon fill="red" stroke="red" stroke-width="0.243396" points="1200.56,-16.2087 1190.67,-20.016 1200.78,-23.2054 1200.56,-16.2087"/>
</g>
<!-- release&#45;&gt;release -->
<g id="edge21" class="edge"><title>release&#45;&gt;release</title>
<path fill="none" stroke="red" stroke-width="0.80614" stroke-dasharray="1,5" d="M583.618,-48.3376C595.079,-49.7087 604.991,-44.9099 604.991,-33.9411 604.991,-26.4001 600.306,-21.7753 593.654,-20.0668"/>
<polygon fill="red" stroke="red" stroke-width="0.80614" points="593.786,-16.5691 583.618,-19.5446 593.423,-23.5596 593.786,-16.5691"/>
</g>
</g>
</svg>
