<?xml version="1.0" encoding="UTF-8" standalone="no"?>
<!DOCTYPE svg PUBLIC "-//W3C//DTD SVG 1.1//EN"
 "http://www.w3.org/Graphics/SVG/1.1/DTD/svg11.dtd">
<!-- Generated by graphviz version 2.38.0 (20140413.2041)
 -->
<!-- Title: %3 Pages: 1 -->
<svg width="2113pt" height="203pt"
 viewBox="0.00 0.00 2112.78 202.65" xmlns="http://www.w3.org/2000/svg" xmlns:xlink="http://www.w3.org/1999/xlink">
<g id="graph0" class="graph" transform="scale(1 1) rotate(0) translate(4 198.652)">
<title>%3</title>
<polygon fill="white" stroke="none" points="-4,4 -4,-198.652 2108.78,-198.652 2108.78,4 -4,4"/>
<!-- dintancia projetil 1 -->
<g id="node1" class="node"><title>dintancia projetil 1</title>
<polygon fill="lightgray" stroke="black" points="1677.44,-131.267 1593.44,-131.267 1593.44,-113.267 1677.44,-113.267 1677.44,-131.267"/>
<text text-anchor="middle" x="1635.44" y="-120.067" font-family="Times New Roman,serif" font-size="9.00">dintancia projetil 1</text>
</g>
<!-- esquerda -->
<g id="node21" class="node"><title>esquerda</title>
<ellipse fill="lightblue" stroke="black" cx="844.439" cy="-33.9411" rx="33.8824" ry="33.8824"/>
<text text-anchor="middle" x="844.439" y="-31.7411" font-family="Times New Roman,serif" font-size="9.00">esquerda</text>
</g>
<!-- dintancia projetil 1&#45;&gt;esquerda -->
<g id="edge1" class="edge"><title>dintancia projetil 1&#45;&gt;esquerda</title>
<path fill="none" stroke="green" stroke-width="0.263552" d="M1615.92,-113.202C1606.56,-109.702 1595.09,-105.94 1584.44,-103.882 1287.72,-46.587 1196.36,-149.67 905.439,-67.8823 897.367,-65.6128 889.17,-62.1387 881.514,-58.2838"/>
<polygon fill="green" stroke="green" stroke-width="0.263552" points="882.957,-55.0861 872.49,-53.4481 879.651,-61.2562 882.957,-55.0861"/>
</g>
<!-- direita -->
<g id="node22" class="node"><title>direita</title>
<ellipse fill="lightblue" stroke="black" cx="1119.44" cy="-33.9411" rx="27.6545" ry="27.6545"/>
<text text-anchor="middle" x="1119.44" y="-31.7411" font-family="Times New Roman,serif" font-size="9.00">direita</text>
</g>
<!-- dintancia projetil 1&#45;&gt;direita -->
<g id="edge31" class="edge"><title>dintancia projetil 1&#45;&gt;direita</title>
<path fill="none" stroke="red" stroke-width="0.484772" d="M1615.4,-113.192C1606.13,-109.778 1594.87,-106.089 1584.44,-103.882 1407.21,-66.3882 1351.56,-121.213 1178.44,-67.8823 1168.87,-64.9345 1159.12,-60.2906 1150.38,-55.4093"/>
<polygon fill="red" stroke="red" stroke-width="0.484772" points="1152.08,-52.3473 1141.68,-50.2976 1148.53,-58.3822 1152.08,-52.3473"/>
</g>
<!-- pular -->
<g id="node23" class="node"><title>pular</title>
<ellipse fill="lightblue" stroke="black" cx="939.439" cy="-33.9411" rx="25" ry="25"/>
<text text-anchor="middle" x="939.439" y="-31.7411" font-family="Times New Roman,serif" font-size="9.00">pular</text>
</g>
<!-- dintancia projetil 1&#45;&gt;pular -->
<g id="edge41" class="edge"><title>dintancia projetil 1&#45;&gt;pular</title>
<path fill="none" stroke="green" stroke-width="0.369555" d="M1615.92,-113.238C1606.56,-109.746 1595.09,-105.98 1584.44,-103.882 1324.94,-52.7563 1241.74,-150.33 990.439,-67.8823 982.271,-65.2023 974.13,-60.8862 966.829,-56.2486"/>
<polygon fill="green" stroke="green" stroke-width="0.369555" points="968.327,-53.0346 958.091,-50.3013 964.389,-58.8214 968.327,-53.0346"/>
</g>
<!-- atirar -->
<g id="node24" class="node"><title>atirar</title>
<ellipse fill="lightblue" stroke="black" cx="1024.44" cy="-33.9411" rx="25" ry="25"/>
<text text-anchor="middle" x="1024.44" y="-31.7411" font-family="Times New Roman,serif" font-size="9.00">atirar</text>
</g>
<!-- dintancia projetil 1&#45;&gt;atirar -->
<g id="edge74" class="edge"><title>dintancia projetil 1&#45;&gt;atirar</title>
<path fill="none" stroke="green" stroke-width="0.166616" d="M1615.42,-113.11C1606.15,-109.681 1594.89,-106.001 1584.44,-103.882 1365.22,-59.4304 1296.52,-132.714 1082.44,-67.8823 1072.22,-64.786 1061.83,-59.6437 1052.72,-54.3321"/>
<polygon fill="green" stroke="green" stroke-width="0.166616" points="1054.45,-51.2863 1044.1,-49.0334 1050.79,-57.2505 1054.45,-51.2863"/>
</g>
<!-- release -->
<g id="node25" class="node"><title>release</title>
<ellipse fill="lightblue" stroke="black" cx="1216.44" cy="-33.9411" rx="28.9828" ry="28.9828"/>
<text text-anchor="middle" x="1216.44" y="-31.7411" font-family="Times New Roman,serif" font-size="9.00">release</text>
</g>
<!-- dintancia projetil 1&#45;&gt;release -->
<g id="edge24" class="edge"><title>dintancia projetil 1&#45;&gt;release</title>
<path fill="none" stroke="green" stroke-width="0.742661" d="M1613.81,-113.127C1604.81,-109.944 1594.21,-106.449 1584.44,-103.882 1466.28,-72.8469 1323.27,-50.2227 1255.58,-40.3872"/>
<polygon fill="green" stroke="green" stroke-width="0.742661" points="1255.78,-36.8793 1245.38,-38.9191 1254.78,-43.8079 1255.78,-36.8793"/>
</g>
<!-- distancia projetil 2 -->
<g id="node2" class="node"><title>distancia projetil 2</title>
<polygon fill="lightgray" stroke="black" points="717.939,-131.267 634.939,-131.267 634.939,-113.267 717.939,-113.267 717.939,-131.267"/>
<text text-anchor="middle" x="676.439" y="-120.067" font-family="Times New Roman,serif" font-size="9.00">distancia projetil 2</text>
</g>
<!-- distancia projetil 2&#45;&gt;esquerda -->
<g id="edge8" class="edge"><title>distancia projetil 2&#45;&gt;esquerda</title>
<path fill="none" stroke="red" stroke-width="0.351212" d="M692.244,-113.146C717.888,-99.9688 769.306,-73.5478 805.249,-55.0789"/>
<polygon fill="red" stroke="red" stroke-width="0.351212" points="807.19,-58.0167 814.484,-50.3333 803.99,-51.7906 807.19,-58.0167"/>
</g>
<!-- distancia projetil 2&#45;&gt;direita -->
<g id="edge94" class="edge"><title>distancia projetil 2&#45;&gt;direita</title>
<path fill="none" stroke="green" stroke-width="0.234898" d="M696.491,-113.261C705.769,-109.861 717.022,-106.164 727.439,-103.882 879.761,-70.514 931.528,-125.468 1076.44,-67.8823 1081.68,-65.7985 1086.83,-62.882 1091.64,-59.6376"/>
<polygon fill="green" stroke="green" stroke-width="0.234898" points="1093.91,-62.3096 1099.88,-53.5525 1089.75,-56.6793 1093.91,-62.3096"/>
</g>
<!-- distancia projetil 2&#45;&gt;pular -->
<g id="edge40" class="edge"><title>distancia projetil 2&#45;&gt;pular</title>
<path fill="none" stroke="red" stroke-width="0.324178" d="M698.088,-113.198C707.086,-110.025 717.687,-106.519 727.439,-103.882 805.355,-82.8176 834.018,-105.48 905.439,-67.8823 909.285,-65.8579 912.992,-63.2645 916.454,-60.4235"/>
<polygon fill="red" stroke="red" stroke-width="0.324178" points="919.015,-62.8249 924.038,-53.4964 914.294,-57.6565 919.015,-62.8249"/>
</g>
<!-- distancia projetil 2&#45;&gt;atirar -->
<g id="edge21" class="edge"><title>distancia projetil 2&#45;&gt;atirar</title>
<path fill="none" stroke="green" stroke-width="0.383824" d="M697.017,-113.24C706.207,-109.92 717.243,-106.291 727.439,-103.882 842.685,-76.6517 885.33,-120.456 991.439,-67.8823 995.089,-66.0741 998.578,-63.7043 1001.83,-61.0634"/>
<polygon fill="green" stroke="green" stroke-width="0.383824" points="1004.4,-63.4572 1009.38,-54.1062 999.653,-58.3101 1004.4,-63.4572"/>
</g>
<!-- distancia projetil 2&#45;&gt;release -->
<g id="edge45" class="edge"><title>distancia projetil 2&#45;&gt;release</title>
<path fill="none" stroke="red" stroke-width="0.266071" d="M696.468,-113.153C705.742,-109.732 716.997,-106.047 727.439,-103.882 922.598,-63.4177 988.815,-140.463 1174.44,-67.8823 1179.05,-66.0789 1183.57,-63.5931 1187.83,-60.7884"/>
<polygon fill="red" stroke="red" stroke-width="0.266071" points="1190.15,-63.4255 1196.16,-54.6996 1186.02,-57.7736 1190.15,-63.4255"/>
</g>
<!-- distancia projetil 3 -->
<g id="node3" class="node"><title>distancia projetil 3</title>
<polygon fill="lightgray" stroke="black" points="818.939,-131.267 735.939,-131.267 735.939,-113.267 818.939,-113.267 818.939,-131.267"/>
<text text-anchor="middle" x="777.439" y="-120.067" font-family="Times New Roman,serif" font-size="9.00">distancia projetil 3</text>
</g>
<!-- distancia projetil 3&#45;&gt;esquerda -->
<g id="edge48" class="edge"><title>distancia projetil 3&#45;&gt;esquerda</title>
<path fill="none" stroke="red" stroke-width="0.50771" stroke-dasharray="1,5" d="M783.863,-112.99C791.673,-102.928 805.346,-85.3105 817.728,-69.3573"/>
<polygon fill="red" stroke="red" stroke-width="0.50771" points="820.681,-71.2612 824.047,-61.2154 815.151,-66.9692 820.681,-71.2612"/>
</g>
<!-- distancia projetil 3&#45;&gt;direita -->
<g id="edge15" class="edge"><title>distancia projetil 3&#45;&gt;direita</title>
<path fill="none" stroke="red" stroke-width="0.191557" d="M798.521,-113.104C807.612,-109.84 818.435,-106.292 828.439,-103.882 936.721,-77.8037 973.808,-111.145 1076.44,-67.8823 1081.64,-65.6905 1086.76,-62.7167 1091.56,-59.4477"/>
<polygon fill="red" stroke="red" stroke-width="0.191557" points="1093.84,-62.1147 1099.79,-53.35 1089.67,-56.4898 1093.84,-62.1147"/>
</g>
<!-- distancia projetil 3&#45;&gt;pular -->
<g id="edge87" class="edge"><title>distancia projetil 3&#45;&gt;pular</title>
<path fill="none" stroke="green" stroke-width="0.195236" d="M799.537,-113.194C831.101,-101.471 887.291,-79.8336 905.439,-67.8823 908.991,-65.543 912.497,-62.8034 915.829,-59.9209"/>
<polygon fill="green" stroke="green" stroke-width="0.195236" points="918.279,-62.4228 923.231,-53.0568 913.519,-57.2899 918.279,-62.4228"/>
</g>
<!-- distancia projetil 3&#45;&gt;atirar -->
<g id="edge56" class="edge"><title>distancia projetil 3&#45;&gt;atirar</title>
<path fill="none" stroke="green" stroke-width="0.710091" d="M799.363,-113.197C808.31,-110.06 818.801,-106.58 828.439,-103.882 899.883,-83.8827 926.365,-103.512 991.439,-67.8823 995.012,-65.9263 998.455,-63.4668 1001.68,-60.7772"/>
<polygon fill="green" stroke="green" stroke-width="0.710091" points="1004.27,-63.1489 1009.2,-53.7735 999.5,-58.0252 1004.27,-63.1489"/>
</g>
<!-- distancia projetil 3&#45;&gt;release -->
<g id="edge25" class="edge"><title>distancia projetil 3&#45;&gt;release</title>
<path fill="none" stroke="red" stroke-width="0.192497" d="M797.492,-113.265C806.77,-109.866 818.023,-106.169 828.439,-103.882 979.451,-70.731 1031.11,-125.859 1174.44,-67.8823 1178.93,-66.0666 1183.33,-63.6198 1187.5,-60.8752"/>
<polygon fill="red" stroke="red" stroke-width="0.192497" points="1189.65,-63.6408 1195.68,-54.93 1185.54,-57.9785 1189.65,-63.6408"/>
</g>
<!-- distancia projetil 4 -->
<g id="node4" class="node"><title>distancia projetil 4</title>
<polygon fill="lightgray" stroke="black" points="219.939,-131.267 136.939,-131.267 136.939,-113.267 219.939,-113.267 219.939,-131.267"/>
<text text-anchor="middle" x="178.439" y="-120.067" font-family="Times New Roman,serif" font-size="9.00">distancia projetil 4</text>
</g>
<!-- distancia projetil 4&#45;&gt;esquerda -->
<g id="edge97" class="edge"><title>distancia projetil 4&#45;&gt;esquerda</title>
<path fill="none" stroke="green" stroke-width="0.360337" d="M198.991,-113.124C208.175,-109.783 219.215,-106.169 229.439,-103.882 439.816,-56.8204 698.219,-41.1794 800.125,-36.6159"/>
<polygon fill="green" stroke="green" stroke-width="0.360337" points="800.508,-40.1027 810.347,-36.1721 800.205,-33.1093 800.508,-40.1027"/>
</g>
<!-- distancia projetil 4&#45;&gt;direita -->
<g id="edge23" class="edge"><title>distancia projetil 4&#45;&gt;direita</title>
<path fill="none" stroke="red" stroke-width="0.193054" d="M197.946,-113.152C207.303,-109.641 218.774,-105.884 229.439,-103.882 414.599,-69.1353 899.346,-132.144 1076.44,-67.8823 1081.74,-65.9576 1086.92,-63.1256 1091.75,-59.9173"/>
<polygon fill="red" stroke="red" stroke-width="0.193054" points="1094.01,-62.5967 1099.99,-53.8507 1089.86,-56.9586 1094.01,-62.5967"/>
</g>
<!-- distancia projetil 4&#45;&gt;pular -->
<g id="edge55" class="edge"><title>distancia projetil 4&#45;&gt;pular</title>
<path fill="none" stroke="red" stroke-width="0.218805" d="M197.956,-113.203C207.315,-109.703 218.785,-105.941 229.439,-103.882 377.143,-75.3435 767.556,-128.039 905.439,-67.8823 909.422,-66.1445 913.211,-63.7193 916.714,-60.9647"/>
<polygon fill="red" stroke="red" stroke-width="0.218805" points="919.241,-63.3998 924.332,-54.1084 914.558,-58.1969 919.241,-63.3998"/>
</g>
<!-- distancia projetil 4&#45;&gt;atirar -->
<g id="edge86" class="edge"><title>distancia projetil 4&#45;&gt;atirar</title>
<path fill="none" stroke="red" stroke-width="0.100839" d="M197.95,-113.174C207.308,-109.668 218.779,-105.909 229.439,-103.882 395.979,-72.2216 836.365,-136.365 991.439,-67.8823 995.355,-66.1531 999.061,-63.733 1002.48,-60.9811"/>
<polygon fill="red" stroke="red" stroke-width="0.100839" points="1004.92,-63.4881 1009.88,-54.1269 1000.17,-58.3507 1004.92,-63.4881"/>
</g>
<!-- distancia projetil 5 -->
<g id="node5" class="node"><title>distancia projetil 5</title>
<polygon fill="lightgray" stroke="black" points="919.939,-131.267 836.939,-131.267 836.939,-113.267 919.939,-113.267 919.939,-131.267"/>
<text text-anchor="middle" x="878.439" y="-120.067" font-family="Times New Roman,serif" font-size="9.00">distancia projetil 5</text>
</g>
<!-- distancia projetil 5&#45;&gt;esquerda -->
<g id="edge39" class="edge"><title>distancia projetil 5&#45;&gt;esquerda</title>
<path fill="none" stroke="red" stroke-width="0.12646" d="M875.179,-112.99C871.722,-104.212 866.001,-89.6851 860.425,-75.5289"/>
<polygon fill="red" stroke="red" stroke-width="0.12646" points="863.539,-73.8847 856.618,-65.8629 857.026,-76.4499 863.539,-73.8847"/>
</g>
<!-- distancia projetil 5&#45;&gt;direita -->
<g id="edge10" class="edge"><title>distancia projetil 5&#45;&gt;direita</title>
<path fill="none" stroke="green" stroke-width="0.62815" d="M914.882,-113.232C963.875,-102.124 1048.11,-81.8682 1076.44,-67.8823 1081.39,-65.4367 1086.34,-62.3788 1091.02,-59.1183"/>
<polygon fill="green" stroke="green" stroke-width="0.62815" points="1093.15,-61.8907 1099.1,-53.1192 1088.98,-56.2705 1093.15,-61.8907"/>
</g>
<!-- distancia projetil 5&#45;&gt;pular -->
<g id="edge105" class="edge"><title>distancia projetil 5&#45;&gt;pular</title>
<path fill="none" stroke="green" stroke-width="0.243214" d="M884.288,-112.99C892.386,-101.53 907.409,-80.2697 919.733,-62.8295"/>
<polygon fill="green" stroke="green" stroke-width="0.243214" points="922.611,-64.8211 925.523,-54.6344 916.894,-60.7815 922.611,-64.8211"/>
</g>
<!-- distancia projetil 5&#45;&gt;atirar -->
<g id="edge72" class="edge"><title>distancia projetil 5&#45;&gt;atirar</title>
<path fill="none" stroke="red" stroke-width="0.378064" d="M901.328,-113.138C925.074,-104.11 962.688,-88.1025 991.439,-67.8823 994.698,-65.5902 997.924,-62.9619 1001.01,-60.2113"/>
<polygon fill="red" stroke="red" stroke-width="0.378064" points="1003.5,-62.675 1008.32,-53.244 998.669,-57.6059 1003.5,-62.675"/>
</g>
<!-- distancia projetil 5&#45;&gt;release -->
<g id="edge64" class="edge"><title>distancia projetil 5&#45;&gt;release</title>
<path fill="none" stroke="green" stroke-width="0.490279" d="M919.181,-113.238C934.601,-110.241 952.318,-106.848 968.439,-103.882 1059.85,-87.0679 1089.54,-105.701 1174.44,-67.8823 1178.86,-65.9121 1183.23,-63.3739 1187.38,-60.5816"/>
<polygon fill="green" stroke="green" stroke-width="0.490279" points="1189.55,-63.3314 1195.54,-54.5939 1185.41,-57.6875 1189.55,-63.3314"/>
</g>
<!-- distancia projetil 6 -->
<g id="node6" class="node"><title>distancia projetil 6</title>
<polygon fill="lightgray" stroke="black" points="1059.94,-131.267 976.939,-131.267 976.939,-113.267 1059.94,-113.267 1059.94,-131.267"/>
<text text-anchor="middle" x="1018.44" y="-120.067" font-family="Times New Roman,serif" font-size="9.00">distancia projetil 6</text>
</g>
<!-- distancia projetil 6&#45;&gt;esquerda -->
<g id="edge84" class="edge"><title>distancia projetil 6&#45;&gt;esquerda</title>
<path fill="none" stroke="red" stroke-width="0.260133" d="M1000.68,-113.236C978.304,-103.034 938.741,-84.7253 905.439,-67.8823 898.114,-64.1774 890.362,-60.1085 882.931,-56.1326"/>
<polygon fill="red" stroke="red" stroke-width="0.260133" points="884.209,-52.8454 873.746,-51.1804 880.887,-59.0069 884.209,-52.8454"/>
</g>
<!-- distancia projetil 6&#45;&gt;direita -->
<g id="edge14" class="edge"><title>distancia projetil 6&#45;&gt;direita</title>
<path fill="none" stroke="green" stroke-width="0.119329" d="M1028.12,-112.99C1042.48,-100.716 1070,-77.2014 1091.08,-59.1773"/>
<polygon fill="green" stroke="green" stroke-width="0.119329" points="1093.48,-61.731 1098.81,-52.5731 1088.93,-56.4098 1093.48,-61.731"/>
</g>
<!-- distancia projetil 6&#45;&gt;pular -->
<g id="edge20" class="edge"><title>distancia projetil 6&#45;&gt;pular</title>
<path fill="none" stroke="red" stroke-width="0.396055" d="M1010.86,-112.99C999.947,-101.06 979.31,-78.5089 963.015,-60.7033"/>
<polygon fill="red" stroke="red" stroke-width="0.396055" points="965.218,-57.9258 955.885,-52.9115 960.054,-62.6515 965.218,-57.9258"/>
</g>
<!-- distancia projetil 6&#45;&gt;atirar -->
<g id="edge53" class="edge"><title>distancia projetil 6&#45;&gt;atirar</title>
<path fill="none" stroke="red" stroke-width="0.206252" d="M1019.01,-112.99C1019.72,-102.881 1020.95,-85.1487 1022.06,-69.1379"/>
<polygon fill="red" stroke="red" stroke-width="0.206252" points="1025.57,-69.1813 1022.77,-58.9626 1018.58,-68.6958 1025.57,-69.1813"/>
</g>
<!-- distancia projetil 6&#45;&gt;release -->
<g id="edge65" class="edge"><title>distancia projetil 6&#45;&gt;release</title>
<path fill="none" stroke="red" stroke-width="0.250394" d="M1041.99,-113.234C1085.4,-98.4275 1173.68,-68.2941 1174.44,-67.8823 1178.69,-65.5719 1182.96,-62.8324 1187.06,-59.9352"/>
<polygon fill="red" stroke="red" stroke-width="0.250394" points="1189.27,-62.6516 1195.18,-53.8537 1185.07,-57.05 1189.27,-62.6516"/>
</g>
<!-- distancia projetil 7 -->
<g id="node7" class="node"><title>distancia projetil 7</title>
<polygon fill="lightgray" stroke="black" points="1160.94,-131.267 1077.94,-131.267 1077.94,-113.267 1160.94,-113.267 1160.94,-131.267"/>
<text text-anchor="middle" x="1119.44" y="-120.067" font-family="Times New Roman,serif" font-size="9.00">distancia projetil 7</text>
</g>
<!-- distancia projetil 7&#45;&gt;esquerda -->
<g id="edge30" class="edge"><title>distancia projetil 7&#45;&gt;esquerda</title>
<path fill="none" stroke="green" stroke-width="0.150843" d="M1098.2,-113.26C1089.38,-110.097 1078.99,-106.581 1069.44,-103.882 997.626,-83.5929 975.394,-93.8641 905.439,-67.8823 897.744,-65.0242 889.819,-61.3509 882.334,-57.4996"/>
<polygon fill="green" stroke="green" stroke-width="0.150843" points="883.605,-54.2101 873.137,-52.5741 880.3,-60.3808 883.605,-54.2101"/>
</g>
<!-- distancia projetil 7&#45;&gt;direita -->
<g id="edge104" class="edge"><title>distancia projetil 7&#45;&gt;direita</title>
<path fill="none" stroke="green" stroke-width="0.532937" d="M1119.44,-112.99C1119.44,-103.458 1119.44,-87.1459 1119.44,-71.8914"/>
<polygon fill="green" stroke="green" stroke-width="0.532937" points="1122.94,-71.5958 1119.44,-61.5958 1115.94,-71.5959 1122.94,-71.5958"/>
</g>
<!-- distancia projetil 7&#45;&gt;pular -->
<g id="edge70" class="edge"><title>distancia projetil 7&#45;&gt;pular</title>
<path fill="none" stroke="red" stroke-width="0.353797" d="M1096.5,-113.212C1070.26,-103.67 1026.29,-86.679 990.439,-67.8823 982.957,-63.9588 975.16,-59.2628 967.979,-54.6627"/>
<polygon fill="red" stroke="red" stroke-width="0.353797" points="969.563,-51.5158 959.283,-48.9525 965.721,-57.3671 969.563,-51.5158"/>
</g>
<!-- distancia projetil 7&#45;&gt;atirar -->
<g id="edge37" class="edge"><title>distancia projetil 7&#45;&gt;atirar</title>
<path fill="none" stroke="green" stroke-width="0.244706" d="M1110.33,-112.99C1096.55,-100.472 1069.91,-76.2621 1049.94,-58.1091"/>
<polygon fill="green" stroke="green" stroke-width="0.244706" points="1052.13,-55.3766 1042.38,-51.2418 1047.42,-60.5572 1052.13,-55.3766"/>
</g>
<!-- distancia projetil 7&#45;&gt;release -->
<g id="edge51" class="edge"><title>distancia projetil 7&#45;&gt;release</title>
<path fill="none" stroke="red" stroke-width="0.200454" d="M1128.74,-112.99C1142.14,-101.068 1167.45,-78.5413 1187.45,-60.7417"/>
<polygon fill="red" stroke="red" stroke-width="0.200454" points="1189.95,-63.2018 1195.09,-53.9391 1185.3,-57.9727 1189.95,-63.2018"/>
</g>
<!-- distancia projetil 8 -->
<g id="node8" class="node"><title>distancia projetil 8</title>
<polygon fill="lightgray" stroke="black" points="1261.94,-131.267 1178.94,-131.267 1178.94,-113.267 1261.94,-113.267 1261.94,-131.267"/>
<text text-anchor="middle" x="1220.44" y="-120.067" font-family="Times New Roman,serif" font-size="9.00">distancia projetil 8</text>
</g>
<!-- distancia projetil 8&#45;&gt;esquerda -->
<g id="edge79" class="edge"><title>distancia projetil 8&#45;&gt;esquerda</title>
<path fill="none" stroke="red" stroke-width="0.389149" d="M1200.28,-113.227C1191.27,-109.904 1180.45,-106.277 1170.44,-103.882 1054.84,-76.2273 1018.45,-104.717 905.439,-67.8823 897.467,-65.2836 889.315,-61.6595 881.673,-57.7606"/>
<polygon fill="red" stroke="red" stroke-width="0.389149" points="883.117,-54.5632 872.65,-52.919 879.807,-60.7313 883.117,-54.5632"/>
</g>
<!-- distancia projetil 8&#45;&gt;direita -->
<g id="edge6" class="edge"><title>distancia projetil 8&#45;&gt;direita</title>
<path fill="none" stroke="green" stroke-width="0.162685" d="M1210.75,-112.99C1196.39,-100.716 1168.88,-77.2014 1147.8,-59.1773"/>
<polygon fill="green" stroke="green" stroke-width="0.162685" points="1149.94,-56.4098 1140.07,-52.5731 1145.4,-61.731 1149.94,-56.4098"/>
</g>
<!-- distancia projetil 8&#45;&gt;pular -->
<g id="edge35" class="edge"><title>distancia projetil 8&#45;&gt;pular</title>
<path fill="none" stroke="green" stroke-width="0.29271" d="M1199.23,-113.17C1190.41,-109.993 1180.02,-106.491 1170.44,-103.882 1091.72,-82.4352 1066.04,-98.5555 990.439,-67.8823 982.61,-64.7057 974.684,-60.2889 967.489,-55.7199"/>
<polygon fill="green" stroke="green" stroke-width="0.29271" points="969.088,-52.5788 958.829,-49.9331 965.199,-58.3991 969.088,-52.5788"/>
</g>
<!-- distancia projetil 8&#45;&gt;atirar -->
<g id="edge69" class="edge"><title>distancia projetil 8&#45;&gt;atirar</title>
<path fill="none" stroke="red" stroke-width="0.448226" d="M1198.36,-113.177C1165.07,-100.906 1103.68,-77.9539 1082.44,-67.8823 1073.04,-63.4262 1063.1,-58.0427 1054.15,-52.9309"/>
<polygon fill="red" stroke="red" stroke-width="0.448226" points="1055.66,-49.7564 1045.25,-47.7525 1052.14,-55.8068 1055.66,-49.7564"/>
</g>
<!-- distancia projetil 8&#45;&gt;release -->
<g id="edge103" class="edge"><title>distancia projetil 8&#45;&gt;release</title>
<path fill="none" stroke="green" stroke-width="0.205381" d="M1220.06,-112.99C1219.63,-103.732 1218.9,-88.0791 1218.21,-73.2108"/>
<polygon fill="green" stroke="green" stroke-width="0.205381" points="1221.7,-72.9582 1217.75,-63.1309 1214.71,-73.2822 1221.7,-72.9582"/>
</g>
<!-- distancia projetil 9 -->
<g id="node9" class="node"><title>distancia projetil 9</title>
<polygon fill="lightgray" stroke="black" points="1362.94,-131.267 1279.94,-131.267 1279.94,-113.267 1362.94,-113.267 1362.94,-131.267"/>
<text text-anchor="middle" x="1321.44" y="-120.067" font-family="Times New Roman,serif" font-size="9.00">distancia projetil 9</text>
</g>
<!-- distancia projetil 9&#45;&gt;esquerda -->
<g id="edge96" class="edge"><title>distancia projetil 9&#45;&gt;esquerda</title>
<path fill="none" stroke="red" stroke-width="0.162918" d="M1301.8,-113.23C1292.71,-109.825 1281.67,-106.131 1271.44,-103.882 1111.8,-68.7975 1061.75,-115.654 905.439,-67.8823 897.42,-65.4314 889.247,-61.8747 881.599,-57.9956"/>
<polygon fill="red" stroke="red" stroke-width="0.162918" points="883.042,-54.798 872.575,-53.1566 879.734,-60.967 883.042,-54.798"/>
</g>
<!-- distancia projetil 9&#45;&gt;direita -->
<g id="edge66" class="edge"><title>distancia projetil 9&#45;&gt;direita</title>
<path fill="none" stroke="green" stroke-width="0.187374" stroke-dasharray="1,5" d="M1298.56,-113.203C1264.06,-100.968 1200.45,-78.062 1178.44,-67.8823 1169.6,-63.7951 1160.3,-58.8964 1151.75,-54.1416"/>
<polygon fill="green" stroke="green" stroke-width="0.187374" points="1153.26,-50.9748 1142.84,-49.0839 1149.81,-57.0631 1153.26,-50.9748"/>
</g>
<!-- distancia projetil 9&#45;&gt;pular -->
<g id="edge54" class="edge"><title>distancia projetil 9&#45;&gt;pular</title>
<path fill="none" stroke="red" stroke-width="0.176484" d="M1301.29,-113.19C1292.28,-109.861 1281.46,-106.239 1271.44,-103.882 1148.87,-75.0526 1108.7,-111.11 990.439,-67.8823 982.504,-64.9815 974.538,-60.6678 967.338,-56.1103"/>
<polygon fill="red" stroke="red" stroke-width="0.176484" points="968.941,-52.9701 958.689,-50.2952 965.035,-58.7792 968.941,-52.9701"/>
</g>
<!-- distancia projetil 9&#45;&gt;atirar -->
<g id="edge22" class="edge"><title>distancia projetil 9&#45;&gt;atirar</title>
<path fill="none" stroke="red" stroke-width="0.419327" d="M1300.24,-113.126C1291.42,-109.942 1281.03,-106.448 1271.44,-103.882 1188.83,-81.7818 1162.7,-97.3939 1082.44,-67.8823 1072.49,-64.2254 1062.25,-58.9743 1053.19,-53.7359"/>
<polygon fill="red" stroke="red" stroke-width="0.419327" points="1054.95,-50.7123 1044.58,-48.5612 1051.35,-56.7122 1054.95,-50.7123"/>
</g>
<!-- distancia projetil 9&#45;&gt;release -->
<g id="edge73" class="edge"><title>distancia projetil 9&#45;&gt;release</title>
<path fill="none" stroke="green" stroke-width="0.19749" d="M1311.37,-112.99C1296.62,-100.866 1268.54,-77.7732 1246.72,-59.8392"/>
<polygon fill="green" stroke="green" stroke-width="0.19749" points="1248.66,-56.8991 1238.71,-53.2519 1244.21,-62.3063 1248.66,-56.8991"/>
</g>
<!-- distancia projetil 10 -->
<g id="node10" class="node"><title>distancia projetil 10</title>
<polygon fill="lightgray" stroke="black" points="1469.44,-131.267 1381.44,-131.267 1381.44,-113.267 1469.44,-113.267 1469.44,-131.267"/>
<text text-anchor="middle" x="1425.44" y="-120.067" font-family="Times New Roman,serif" font-size="9.00">distancia projetil 10</text>
</g>
<!-- distancia projetil 10&#45;&gt;esquerda -->
<g id="edge38" class="edge"><title>distancia projetil 10&#45;&gt;esquerda</title>
<path fill="none" stroke="red" stroke-width="0.120972" d="M1404.86,-113.238C1395.16,-109.791 1383.36,-106.061 1372.44,-103.882 1168.29,-63.1483 1105.15,-126.619 905.439,-67.8823 897.394,-65.5162 889.21,-61.9981 881.559,-58.1303"/>
<polygon fill="red" stroke="red" stroke-width="0.120972" points="883.001,-54.9327 872.534,-53.2929 879.694,-61.1022 883.001,-54.9327"/>
</g>
<!-- distancia projetil 10&#45;&gt;direita -->
<g id="edge71" class="edge"><title>distancia projetil 10&#45;&gt;direita</title>
<path fill="none" stroke="red" stroke-width="0.269051" d="M1403.2,-113.239C1393.79,-110.036 1382.67,-106.496 1372.44,-103.882 1287.48,-82.1678 1260.93,-97.6512 1178.44,-67.8823 1169.1,-64.5128 1159.49,-59.7723 1150.81,-54.9351"/>
<polygon fill="red" stroke="red" stroke-width="0.269051" points="1152.55,-51.9008 1142.15,-49.9126 1149.04,-57.9565 1152.55,-51.9008"/>
</g>
<!-- distancia projetil 10&#45;&gt;pular -->
<g id="edge80" class="edge"><title>distancia projetil 10&#45;&gt;pular</title>
<path fill="none" stroke="red" stroke-width="0.303461" d="M1404.58,-113.233C1394.94,-109.828 1383.25,-106.134 1372.44,-103.882 1205.5,-69.0912 1151.56,-123.742 990.439,-67.8823 982.457,-65.1147 974.473,-60.8507 967.271,-56.2988"/>
<polygon fill="red" stroke="red" stroke-width="0.303461" points="968.875,-53.1587 958.627,-50.47 964.961,-58.9626 968.875,-53.1587"/>
</g>
<!-- distancia projetil 10&#45;&gt;atirar -->
<g id="edge9" class="edge"><title>distancia projetil 10&#45;&gt;atirar</title>
<path fill="none" stroke="red" stroke-width="0.103393" d="M1404.04,-113.202C1394.49,-109.875 1383.02,-106.252 1372.44,-103.882 1245.7,-75.5097 1205.72,-108.739 1082.44,-67.8823 1072.38,-64.549 1062.1,-59.3903 1053.05,-54.1368"/>
<polygon fill="red" stroke="red" stroke-width="0.103393" points="1054.82,-51.1165 1044.45,-48.9159 1051.18,-57.0991 1054.82,-51.1165"/>
</g>
<!-- distancia projetil 10&#45;&gt;release -->
<g id="edge62" class="edge"><title>distancia projetil 10&#45;&gt;release</title>
<path fill="none" stroke="green" stroke-width="0.346344" d="M1405.78,-113.146C1370.65,-98.6386 1296.67,-68.0783 1252.29,-49.7504"/>
<polygon fill="green" stroke="green" stroke-width="0.346344" points="1253.61,-46.5074 1243.03,-45.9247 1250.94,-52.9773 1253.61,-46.5074"/>
</g>
<!-- distancia projetil 11 -->
<g id="node11" class="node"><title>distancia projetil 11</title>
<polygon fill="lightgray" stroke="black" points="1575.44,-131.267 1487.44,-131.267 1487.44,-113.267 1575.44,-113.267 1575.44,-131.267"/>
<text text-anchor="middle" x="1531.44" y="-120.067" font-family="Times New Roman,serif" font-size="9.00">distancia projetil 11</text>
</g>
<!-- distancia projetil 11&#45;&gt;esquerda -->
<g id="edge83" class="edge"><title>distancia projetil 11&#45;&gt;esquerda</title>
<path fill="none" stroke="green" stroke-width="0.208614" d="M1511.12,-113.258C1501.39,-109.77 1489.47,-106.002 1478.44,-103.882 1227.86,-55.7288 1150.74,-138.141 905.439,-67.8823 897.378,-65.5733 889.186,-62.0813 881.532,-58.2211"/>
<polygon fill="green" stroke="green" stroke-width="0.208614" points="882.975,-55.0234 872.508,-53.3848 879.668,-61.1933 882.975,-55.0234"/>
</g>
<!-- distancia projetil 11&#45;&gt;direita -->
<g id="edge52" class="edge"><title>distancia projetil 11&#45;&gt;direita</title>
<path fill="none" stroke="red" stroke-width="0.612062" d="M1510.05,-113.182C1500.5,-109.851 1489.03,-106.23 1478.44,-103.882 1347.33,-74.8131 1306.15,-109.401 1178.44,-67.8823 1169,-64.8135 1159.35,-60.1749 1150.67,-55.3394"/>
<polygon fill="red" stroke="red" stroke-width="0.612062" points="1152.42,-52.3075 1142.02,-50.2866 1148.89,-58.3521 1152.42,-52.3075"/>
</g>
<!-- distancia projetil 11&#45;&gt;pular -->
<g id="edge19" class="edge"><title>distancia projetil 11&#45;&gt;pular</title>
<path fill="none" stroke="green" stroke-width="0.198326" stroke-dasharray="1,5" d="M1510.86,-113.222C1501.17,-109.771 1489.36,-106.043 1478.44,-103.882 1265.1,-61.679 1196.63,-137.029 990.439,-67.8823 982.288,-65.1488 974.154,-60.8134 966.854,-56.1742"/>
<polygon fill="green" stroke="green" stroke-width="0.198326" points="968.352,-52.9603 958.114,-50.2331 964.416,-58.7494 968.352,-52.9603"/>
</g>
<!-- distancia projetil 11&#45;&gt;atirar -->
<g id="edge95" class="edge"><title>distancia projetil 11&#45;&gt;atirar</title>
<path fill="none" stroke="red" stroke-width="0.268322" d="M1510.59,-113.217C1500.94,-109.808 1489.25,-106.117 1478.44,-103.882 1305.37,-68.113 1251.08,-120.714 1082.44,-67.8823 1072.33,-64.7146 1062.04,-59.6031 1052.98,-54.342"/>
<polygon fill="red" stroke="red" stroke-width="0.268322" points="1054.75,-51.3229 1044.4,-49.0974 1051.11,-57.2968 1054.75,-51.3229"/>
</g>
<!-- distancia projetil 11&#45;&gt;release -->
<g id="edge63" class="edge"><title>distancia projetil 11&#45;&gt;release</title>
<path fill="none" stroke="green" stroke-width="0.318928" d="M1508.05,-113.263C1498.86,-110.204 1488.19,-106.762 1478.44,-103.882 1399.31,-80.5167 1305.61,-56.8028 1254.46,-44.1885"/>
<polygon fill="green" stroke="green" stroke-width="0.318928" points="1255.06,-40.7316 1244.51,-41.7432 1253.38,-47.5292 1255.06,-40.7316"/>
</g>
<!-- distancia projetil 12 -->
<g id="node12" class="node"><title>distancia projetil 12</title>
<polygon fill="lightgray" stroke="black" points="1529.44,-194.652 1441.44,-194.652 1441.44,-176.652 1529.44,-176.652 1529.44,-194.652"/>
<text text-anchor="middle" x="1485.44" y="-183.452" font-family="Times New Roman,serif" font-size="9.00">distancia projetil 12</text>
</g>
<!-- distancia projetil 12&#45;&gt;esquerda -->
<g id="edge29" class="edge"><title>distancia projetil 12&#45;&gt;esquerda</title>
<path fill="none" stroke="green" stroke-width="0.240816" d="M1441.27,-184.175C1198.25,-181.449 34.0405,-167.027 8.43926,-140.652 -2.94296,-128.925 -2.63127,-115.903 8.43926,-103.882 62.4084,-45.2793 634.92,-36.4899 800.076,-35.1729"/>
<polygon fill="green" stroke="green" stroke-width="0.240816" points="800.382,-38.6708 810.356,-35.0965 800.33,-31.671 800.382,-38.6708"/>
</g>
<!-- distancia projetil 12&#45;&gt;direita -->
<g id="edge61" class="edge"><title>distancia projetil 12&#45;&gt;direita</title>
<path fill="none" stroke="green" stroke-width="0.298485" stroke-dasharray="1,5" d="M1529.55,-184.249C1649.11,-182.701 1972.59,-175.319 2004.44,-140.652 2015.5,-128.618 2015.74,-115.687 2004.44,-103.882 1940.91,-37.5248 1266.82,-92.9502 1178.44,-67.8823 1168.81,-65.1499 1159.04,-60.5779 1150.3,-55.6965"/>
<polygon fill="green" stroke="green" stroke-width="0.298485" points="1152,-52.6355 1141.61,-50.5618 1148.43,-58.6621 1152,-52.6355"/>
</g>
<!-- distancia projetil 12&#45;&gt;pular -->
<g id="edge93" class="edge"><title>distancia projetil 12&#45;&gt;pular</title>
<path fill="none" stroke="green" stroke-width="0.306169" d="M1441.41,-184.16C1200.49,-181.367 51.7102,-166.696 26.4393,-140.652 -110.05,0.0156068 725.314,-145.157 905.439,-67.8823 909.433,-66.1689 913.227,-63.7581 916.734,-61.011"/>
<polygon fill="green" stroke="green" stroke-width="0.306169" points="919.258,-63.4489 924.355,-54.1606 914.578,-58.2432 919.258,-63.4489"/>
</g>
<!-- distancia projetil 12&#45;&gt;atirar -->
<g id="edge18" class="edge"><title>distancia projetil 12&#45;&gt;atirar</title>
<path fill="none" stroke="green" stroke-width="0.277663" d="M1441.07,-184.23C1321.62,-182.636 1000.13,-175.15 968.439,-140.652 957.385,-128.616 962.973,-119.283 968.439,-103.882 971.909,-94.1063 987.201,-75.5629 1000.93,-60.1682"/>
<polygon fill="green" stroke="green" stroke-width="0.277663" points="1003.78,-62.232 1007.89,-52.468 998.59,-57.5361 1003.78,-62.232"/>
</g>
<!-- distancia projetil 12&#45;&gt;release -->
<g id="edge7" class="edge"><title>distancia projetil 12&#45;&gt;release</title>
<path fill="none" stroke="red" stroke-width="0.375511" d="M1529.51,-184.856C1663.29,-185.018 2058,-181.964 2096.44,-140.652 2107.57,-128.688 2107.53,-115.881 2096.44,-103.882 2038.66,-41.4027 1418.64,-35.444 1255.56,-34.9611"/>
<polygon fill="red" stroke="red" stroke-width="0.375511" points="1255.49,-31.461 1245.49,-34.9366 1255.48,-38.461 1255.49,-31.461"/>
</g>
<!-- 17 -->
<g id="node26" class="node"><title>17</title>
<ellipse fill="white" stroke="black" cx="2069.44" cy="-122.267" rx="18.2703" ry="18.2703"/>
<text text-anchor="middle" x="2069.44" y="-120.067" font-family="Times New Roman,serif" font-size="9.00">17</text>
</g>
<!-- distancia projetil 12&#45;&gt;17 -->
<g id="edge49" class="edge"><title>distancia projetil 12&#45;&gt;17</title>
<path fill="none" stroke="green" stroke-width="0.30919" d="M1529.52,-183.497C1642.93,-180.152 1942.51,-168.835 2037.44,-140.652 2040.08,-139.869 2042.74,-138.85 2045.35,-137.698"/>
<polygon fill="green" stroke="green" stroke-width="0.30919" points="2047.04,-140.764 2054.38,-133.127 2043.88,-134.518 2047.04,-140.764"/>
</g>
<!-- distancia projetil 13 -->
<g id="node13" class="node"><title>distancia projetil 13</title>
<polygon fill="lightgray" stroke="black" points="1783.44,-131.267 1695.44,-131.267 1695.44,-113.267 1783.44,-113.267 1783.44,-131.267"/>
<text text-anchor="middle" x="1739.44" y="-120.067" font-family="Times New Roman,serif" font-size="9.00">distancia projetil 13</text>
</g>
<!-- distancia projetil 13&#45;&gt;esquerda -->
<g id="edge78" class="edge"><title>distancia projetil 13&#45;&gt;esquerda</title>
<path fill="none" stroke="red" stroke-width="0.116916" d="M1719.39,-113.266C1709.61,-109.735 1697.58,-105.927 1686.44,-103.882 1515.55,-72.5198 1072.86,-114.325 905.439,-67.8823 897.359,-65.6407 889.159,-62.1793 881.502,-58.3281"/>
<polygon fill="red" stroke="red" stroke-width="0.116916" points="882.945,-55.1304 872.477,-53.493 879.639,-61.3007 882.945,-55.1304"/>
</g>
<!-- distancia projetil 13&#45;&gt;direita -->
<g id="edge47" class="edge"><title>distancia projetil 13&#45;&gt;direita</title>
<path fill="none" stroke="green" stroke-width="0.472977" d="M1718.86,-113.207C1709.17,-109.754 1697.37,-106.028 1686.44,-103.882 1464.33,-60.2793 1395.33,-132.601 1178.44,-67.8823 1168.84,-65.0192 1159.09,-60.4036 1150.35,-55.5223"/>
<polygon fill="green" stroke="green" stroke-width="0.472977" points="1152.05,-52.4607 1141.65,-50.4016 1148.49,-58.4923 1152.05,-52.4607"/>
</g>
<!-- distancia projetil 13&#45;&gt;pular -->
<g id="edge34" class="edge"><title>distancia projetil 13&#45;&gt;pular</title>
<path fill="none" stroke="green" stroke-width="0.298448" d="M1719.13,-113.203C1709.4,-109.703 1697.48,-105.941 1686.44,-103.882 1534.19,-75.4978 1137.81,-115.509 990.439,-67.8823 982.259,-65.2385 974.114,-60.9355 966.813,-56.299"/>
<polygon fill="green" stroke="green" stroke-width="0.298448" points="968.311,-53.0849 958.076,-50.3475 964.37,-58.8701 968.311,-53.0849"/>
</g>
<!-- distancia projetil 13&#45;&gt;atirar -->
<g id="edge5" class="edge"><title>distancia projetil 13&#45;&gt;atirar</title>
<path fill="none" stroke="red" stroke-width="0.555994" d="M1719.12,-113.242C1709.39,-109.751 1697.47,-105.984 1686.44,-103.882 1422.27,-53.5579 1340.28,-144.272 1082.44,-67.8823 1072.2,-64.8477 1061.8,-59.7227 1052.7,-54.4078"/>
<polygon fill="red" stroke="red" stroke-width="0.555994" points="1054.43,-51.3623 1044.08,-49.1 1050.76,-57.3232 1054.43,-51.3623"/>
</g>
<!-- distancia projetil 13&#45;&gt;release -->
<g id="edge101" class="edge"><title>distancia projetil 13&#45;&gt;release</title>
<path fill="none" stroke="green" stroke-width="0.12628" d="M1717.76,-113.225C1708.26,-109.942 1696.9,-106.346 1686.44,-103.882 1528.95,-66.7907 1336.81,-46.0601 1255.62,-38.3981"/>
<polygon fill="green" stroke="green" stroke-width="0.12628" points="1255.65,-34.8859 1245.37,-37.4448 1255.01,-41.8558 1255.65,-34.8859"/>
</g>
<!-- distancia projetil 14 -->
<g id="node14" class="node"><title>distancia projetil 14</title>
<polygon fill="lightgray" stroke="black" points="1889.44,-131.267 1801.44,-131.267 1801.44,-113.267 1889.44,-113.267 1889.44,-131.267"/>
<text text-anchor="middle" x="1845.44" y="-120.067" font-family="Times New Roman,serif" font-size="9.00">distancia projetil 14</text>
</g>
<!-- distancia projetil 14&#45;&gt;esquerda -->
<g id="edge17" class="edge"><title>distancia projetil 14&#45;&gt;esquerda</title>
<path fill="none" stroke="red" stroke-width="0.180743" d="M1825.39,-113.239C1815.62,-109.701 1803.59,-105.897 1792.44,-103.882 1598.31,-68.8052 1095.68,-120.093 905.439,-67.8823 897.353,-65.6629 889.15,-62.2116 881.492,-58.3634"/>
<polygon fill="red" stroke="red" stroke-width="0.180743" points="882.935,-55.1657 872.467,-53.5287 879.629,-61.3361 882.935,-55.1657"/>
</g>
<!-- distancia projetil 14&#45;&gt;direita -->
<g id="edge50" class="edge"><title>distancia projetil 14&#45;&gt;direita</title>
<path fill="none" stroke="red" stroke-width="0.486202" d="M1825.13,-113.237C1815.39,-109.745 1803.47,-105.979 1792.44,-103.882 1523.89,-52.8575 1440.86,-144.447 1178.44,-67.8823 1168.83,-65.0777 1159.07,-60.4816 1150.32,-55.6003"/>
<polygon fill="red" stroke="red" stroke-width="0.486202" points="1152.02,-52.539 1141.63,-50.4733 1148.47,-58.5683 1152.02,-52.539"/>
</g>
<!-- distancia projetil 14&#45;&gt;pular -->
<g id="edge59" class="edge"><title>distancia projetil 14&#45;&gt;pular</title>
<path fill="none" stroke="red" stroke-width="0.10228" d="M1825.39,-113.26C1815.61,-109.727 1803.58,-105.921 1792.44,-103.882 1616.95,-71.7839 1160.38,-122.165 990.439,-67.8823 982.25,-65.2664 974.102,-60.9736 966.8,-56.3379"/>
<polygon fill="red" stroke="red" stroke-width="0.10228" points="968.299,-53.1237 958.065,-50.3831 964.356,-58.9077 968.299,-53.1237"/>
</g>
<!-- distancia projetil 14&#45;&gt;atirar -->
<g id="edge91" class="edge"><title>distancia projetil 14&#45;&gt;atirar</title>
<path fill="none" stroke="red" stroke-width="0.478876" d="M1825.13,-113.198C1815.4,-109.697 1803.48,-105.935 1792.44,-103.882 1481.8,-46.1324 1385.78,-156.29 1082.44,-67.8823 1072.18,-64.8932 1061.79,-59.7808 1052.68,-54.4636"/>
<polygon fill="red" stroke="red" stroke-width="0.478876" points="1054.41,-51.4183 1044.06,-49.1491 1050.74,-57.3767 1054.41,-51.4183"/>
</g>
<!-- distancia projetil 14&#45;&gt;release -->
<g id="edge102" class="edge"><title>distancia projetil 14&#45;&gt;release</title>
<path fill="none" stroke="green" stroke-width="0.280312" d="M1824.05,-113.18C1814.5,-109.849 1803.03,-106.228 1792.44,-103.882 1593.61,-59.8295 1349.52,-42.3566 1255.71,-36.9586"/>
<polygon fill="green" stroke="green" stroke-width="0.280312" points="1255.73,-33.4541 1245.55,-36.3875 1255.34,-40.4431 1255.73,-33.4541"/>
</g>
<!-- distancia projetil 15 -->
<g id="node15" class="node"><title>distancia projetil 15</title>
<polygon fill="lightgray" stroke="black" points="1995.44,-131.267 1907.44,-131.267 1907.44,-113.267 1995.44,-113.267 1995.44,-131.267"/>
<text text-anchor="middle" x="1951.44" y="-120.067" font-family="Times New Roman,serif" font-size="9.00">distancia projetil 15</text>
</g>
<!-- distancia projetil 15&#45;&gt;esquerda -->
<g id="edge68" class="edge"><title>distancia projetil 15&#45;&gt;esquerda</title>
<path fill="none" stroke="red" stroke-width="0.140366" d="M1931.4,-113.217C1921.62,-109.675 1909.59,-105.873 1898.44,-103.882 1681.06,-65.0899 1118.5,-125.862 905.439,-67.8823 897.348,-65.6804 889.143,-62.2371 881.485,-58.3912"/>
<polygon fill="red" stroke="red" stroke-width="0.140366" points="882.927,-55.1935 872.46,-53.5568 879.622,-61.364 882.927,-55.1935"/>
</g>
<!-- distancia projetil 15&#45;&gt;direita -->
<g id="edge33" class="edge"><title>distancia projetil 15&#45;&gt;direita</title>
<path fill="none" stroke="red" stroke-width="0.749591" d="M1931.13,-113.194C1921.4,-109.693 1909.48,-105.932 1898.44,-103.882 1583.42,-45.4318 1486.4,-156.299 1178.44,-67.8823 1168.82,-65.1191 1159.05,-60.5368 1150.31,-55.6554"/>
<polygon fill="red" stroke="red" stroke-width="0.749591" points="1152.01,-52.5943 1141.62,-50.524 1148.45,-58.6221 1152.01,-52.5943"/>
</g>
<!-- distancia projetil 15&#45;&gt;pular -->
<g id="edge3" class="edge"><title>distancia projetil 15&#45;&gt;pular</title>
<path fill="none" stroke="red" stroke-width="0.201181" d="M1931.39,-113.234C1921.62,-109.696 1909.59,-105.892 1898.44,-103.882 1699.7,-68.0692 1182.96,-128.823 990.439,-67.8823 982.243,-65.2878 974.092,-61.0028 966.791,-56.3678"/>
<polygon fill="red" stroke="red" stroke-width="0.201181" points="968.289,-53.1535 958.056,-50.4105 964.345,-58.9366 968.289,-53.1535"/>
</g>
<!-- distancia projetil 15&#45;&gt;atirar -->
<g id="edge76" class="edge"><title>distancia projetil 15&#45;&gt;atirar</title>
<path fill="none" stroke="red" stroke-width="0.432076" d="M1931.39,-113.256C1921.61,-109.723 1909.59,-105.916 1898.44,-103.882 1719.88,-71.2933 1256.86,-118.097 1082.44,-67.8823 1072.17,-64.9269 1061.77,-59.824 1052.67,-54.505"/>
<polygon fill="red" stroke="red" stroke-width="0.432076" points="1054.4,-51.4598 1044.05,-49.1855 1050.73,-57.4164 1054.4,-51.4598"/>
</g>
<!-- distancia projetil 15&#45;&gt;release -->
<g id="edge88" class="edge"><title>distancia projetil 15&#45;&gt;release</title>
<path fill="none" stroke="green" stroke-width="0.282374" d="M1930.58,-113.267C1920.93,-109.869 1909.24,-106.171 1898.44,-103.882 1657.85,-52.8923 1361.27,-39.3001 1255.87,-35.9546"/>
<polygon fill="green" stroke="green" stroke-width="0.282374" points="1255.8,-32.4509 1245.7,-35.6451 1255.59,-39.4477 1255.8,-32.4509"/>
</g>
<!-- distancia projetil 16 -->
<g id="node16" class="node"><title>distancia projetil 16</title>
<polygon fill="lightgray" stroke="black" points="326.439,-131.267 238.439,-131.267 238.439,-113.267 326.439,-113.267 326.439,-131.267"/>
<text text-anchor="middle" x="282.439" y="-120.067" font-family="Times New Roman,serif" font-size="9.00">distancia projetil 16</text>
</g>
<!-- distancia projetil 16&#45;&gt;esquerda -->
<g id="edge11" class="edge"><title>distancia projetil 16&#45;&gt;esquerda</title>
<path fill="none" stroke="red" stroke-width="0.228378" d="M304.526,-113.182C314.21,-109.892 325.778,-106.302 336.439,-103.882 505.543,-65.5033 711.488,-45.6103 800.253,-38.2949"/>
<polygon fill="red" stroke="red" stroke-width="0.228378" points="800.802,-41.7619 810.486,-37.4647 800.236,-34.7848 800.802,-41.7619"/>
</g>
<!-- distancia projetil 16&#45;&gt;direita -->
<g id="edge43" class="edge"><title>distancia projetil 16&#45;&gt;direita</title>
<path fill="none" stroke="green" stroke-width="0.149029" d="M303.14,-113.191C313.058,-109.689 325.199,-105.928 336.439,-103.882 498.417,-74.4012 921.848,-124.516 1076.44,-67.8823 1081.74,-65.9413 1086.91,-63.1007 1091.74,-59.8887"/>
<polygon fill="green" stroke="green" stroke-width="0.149029" points="1094,-62.5673 1099.98,-53.8202 1089.85,-56.93 1094,-62.5673"/>
</g>
<!-- distancia projetil 16&#45;&gt;pular -->
<g id="edge75" class="edge"><title>distancia projetil 16&#45;&gt;pular</title>
<path fill="none" stroke="red" stroke-width="0.251948" d="M303.154,-113.265C313.075,-109.779 325.214,-106.01 336.439,-103.882 460.92,-80.2875 789.567,-119.126 905.439,-67.8823 909.414,-66.1246 913.197,-63.6878 916.698,-60.9272"/>
<polygon fill="red" stroke="red" stroke-width="0.251948" points="919.227,-63.3599 924.313,-54.066 914.541,-58.1593 919.227,-63.3599"/>
</g>
<!-- distancia projetil 16&#45;&gt;atirar -->
<g id="edge2" class="edge"><title>distancia projetil 16&#45;&gt;atirar</title>
<path fill="none" stroke="green" stroke-width="0.289099" d="M303.146,-113.223C313.065,-109.728 325.206,-105.963 336.439,-103.882 479.775,-77.3276 858.316,-127.284 991.439,-67.8823 995.348,-66.1381 999.05,-63.7091 1002.46,-60.9527"/>
<polygon fill="green" stroke="green" stroke-width="0.289099" points="1004.91,-63.4578 1009.87,-54.0947 1000.15,-58.3223 1004.91,-63.4578"/>
</g>
<!-- distancia projetil 16&#45;&gt;release -->
<g id="edge32" class="edge"><title>distancia projetil 16&#45;&gt;release</title>
<path fill="none" stroke="red" stroke-width="0.390091" d="M302.879,-113.253C312.842,-109.719 325.097,-105.913 336.439,-103.882 519.915,-71.0263 999.604,-132.499 1174.44,-67.8823 1179.08,-66.1656 1183.62,-63.7302 1187.89,-60.9511"/>
<polygon fill="red" stroke="red" stroke-width="0.390091" points="1190.2,-63.5967 1196.23,-54.8837 1186.08,-57.936 1190.2,-63.5967"/>
</g>
<!-- distancia inimigo 1 -->
<g id="node17" class="node"><title>distancia inimigo 1</title>
<polygon fill="lightgray" stroke="black" points="118.939,-131.267 35.9393,-131.267 35.9393,-113.267 118.939,-113.267 118.939,-131.267"/>
<text text-anchor="middle" x="77.4393" y="-120.067" font-family="Times New Roman,serif" font-size="9.00">distancia inimigo 1</text>
</g>
<!-- distancia inimigo 1&#45;&gt;esquerda -->
<g id="edge28" class="edge"><title>distancia inimigo 1&#45;&gt;esquerda</title>
<path fill="none" stroke="green" stroke-width="0.325647" d="M97.077,-113.22C106.169,-109.812 117.204,-106.12 127.439,-103.882 378.002,-49.1029 687.295,-37.8472 800.388,-35.5369"/>
<polygon fill="green" stroke="green" stroke-width="0.325647" points="800.467,-39.0361 810.398,-35.3456 800.333,-32.0374 800.467,-39.0361"/>
</g>
<!-- distancia inimigo 1&#45;&gt;direita -->
<g id="edge81" class="edge"><title>distancia inimigo 1&#45;&gt;direita</title>
<path fill="none" stroke="green" stroke-width="0.103644" d="M96.545,-113.127C105.715,-109.611 116.963,-105.857 127.439,-103.882 334.829,-64.799 877.892,-139.417 1076.44,-67.8823 1081.75,-65.9697 1086.93,-63.1441 1091.75,-59.9386"/>
<polygon fill="green" stroke="green" stroke-width="0.103644" points="1094.02,-62.6185 1100,-53.8734 1089.87,-56.9799 1094.02,-62.6185"/>
</g>
<!-- distancia inimigo 1&#45;&gt;pular -->
<g id="edge92" class="edge"><title>distancia inimigo 1&#45;&gt;pular</title>
<path fill="none" stroke="green" stroke-width="0.818728" d="M96.5525,-113.166C105.724,-109.659 116.971,-105.9 127.439,-103.882 297.384,-71.1226 746.566,-136.539 905.439,-67.8823 909.428,-66.1583 913.22,-63.7413 916.726,-60.991"/>
<polygon fill="green" stroke="green" stroke-width="0.818728" points="919.25,-63.4277 924.345,-54.138 914.569,-58.2231 919.25,-63.4277"/>
</g>
<!-- distancia inimigo 1&#45;&gt;atirar -->
<g id="edge60" class="edge"><title>distancia inimigo 1&#45;&gt;atirar</title>
<path fill="none" stroke="green" stroke-width="0.342315" d="M96.5484,-113.145C105.719,-109.632 116.967,-105.876 127.439,-103.882 316.215,-67.9426 815.436,-145.023 991.439,-67.8823 995.36,-66.164 999.068,-63.7503 1002.49,-61.0017"/>
<polygon fill="green" stroke="green" stroke-width="0.342315" points="1004.93,-63.51 1009.89,-54.1502 1000.17,-58.3713 1004.93,-63.51"/>
</g>
<!-- distancia inimigo 2 -->
<g id="node18" class="node"><title>distancia inimigo 2</title>
<polygon fill="lightgray" stroke="black" points="427.939,-131.267 344.939,-131.267 344.939,-113.267 427.939,-113.267 427.939,-131.267"/>
<text text-anchor="middle" x="386.439" y="-120.067" font-family="Times New Roman,serif" font-size="9.00">distancia inimigo 2</text>
</g>
<!-- distancia inimigo 2&#45;&gt;esquerda -->
<g id="edge77" class="edge"><title>distancia inimigo 2&#45;&gt;esquerda</title>
<path fill="none" stroke="red" stroke-width="0.297688" d="M407.55,-113.219C416.646,-109.975 427.465,-106.41 437.439,-103.882 567.817,-70.8467 725.77,-49.1965 800.799,-39.9929"/>
<polygon fill="red" stroke="red" stroke-width="0.297688" points="801.318,-43.4557 810.824,-38.777 800.475,-36.5066 801.318,-43.4557"/>
</g>
<!-- distancia inimigo 2&#45;&gt;direita -->
<g id="edge4" class="edge"><title>distancia inimigo 2&#45;&gt;direita</title>
<path fill="none" stroke="green" stroke-width="0.34063" d="M405.958,-113.218C415.318,-109.721 426.788,-105.957 437.439,-103.882 577.04,-76.6864 943.082,-117.317 1076.44,-67.8823 1081.73,-65.921 1086.9,-63.0696 1091.72,-59.853"/>
<polygon fill="green" stroke="green" stroke-width="0.34063" points="1093.99,-62.5307 1099.96,-53.7822 1089.84,-56.8944 1093.99,-62.5307"/>
</g>
<!-- distancia inimigo 2&#45;&gt;pular -->
<g id="edge12" class="edge"><title>distancia inimigo 2&#45;&gt;pular</title>
<path fill="none" stroke="red" stroke-width="0.126913" d="M406.464,-113.135C415.737,-109.711 426.993,-106.029 437.439,-103.882 539.612,-82.8889 810.333,-110.717 905.439,-67.8823 909.402,-66.0976 913.178,-63.645 916.675,-60.8763"/>
<polygon fill="red" stroke="red" stroke-width="0.126913" points="919.207,-63.3058 924.288,-54.0084 914.518,-58.1084 919.207,-63.3058"/>
</g>
<!-- distancia inimigo 2&#45;&gt;atirar -->
<g id="edge46" class="edge"><title>distancia inimigo 2&#45;&gt;atirar</title>
<path fill="none" stroke="green" stroke-width="0.446543" d="M405.967,-113.259C415.328,-109.771 426.797,-106.003 437.439,-103.882 558.431,-79.7704 879.028,-118.717 991.439,-67.8823 995.339,-66.1186 999.036,-63.6782 1002.45,-60.9159"/>
<polygon fill="green" stroke="green" stroke-width="0.446543" points="1004.9,-63.4187 1009.85,-54.0531 1000.14,-58.2855 1004.9,-63.4187"/>
</g>
<!-- distancia inimigo 2&#45;&gt;release -->
<g id="edge99" class="edge"><title>distancia inimigo 2&#45;&gt;release</title>
<path fill="none" stroke="red" stroke-width="0.238367" d="M405.952,-113.182C415.31,-109.678 426.781,-105.917 437.439,-103.882 598.503,-73.1292 1020.8,-125.178 1174.44,-67.8823 1179.08,-66.1519 1183.61,-63.7086 1187.88,-60.9254"/>
<polygon fill="red" stroke="red" stroke-width="0.238367" points="1190.19,-63.5697 1196.22,-54.8547 1186.08,-57.9104 1190.19,-63.5697"/>
</g>
<!-- direcao sprites 1 -->
<g id="node19" class="node"><title>direcao sprites 1</title>
<polygon fill="lightgray" stroke="black" points="522.439,-131.267 446.439,-131.267 446.439,-113.267 522.439,-113.267 522.439,-131.267"/>
<text text-anchor="middle" x="484.439" y="-120.067" font-family="Times New Roman,serif" font-size="9.00">direcao sprites 1</text>
</g>
<!-- direcao sprites 1&#45;&gt;esquerda -->
<g id="edge16" class="edge"><title>direcao sprites 1&#45;&gt;esquerda</title>
<path fill="none" stroke="green" stroke-width="0.393901" d="M504.362,-113.208C512.65,-110.037 522.424,-106.529 531.439,-103.882 626.323,-76.028 740.312,-53.6224 801.153,-42.5242"/>
<polygon fill="green" stroke="green" stroke-width="0.393901" points="801.948,-45.9374 811.165,-40.7128 800.701,-39.0492 801.948,-45.9374"/>
</g>
<!-- direcao sprites 1&#45;&gt;direita -->
<g id="edge89" class="edge"><title>direcao sprites 1&#45;&gt;direita</title>
<path fill="none" stroke="green" stroke-width="0.860846" d="M502.379,-113.244C510.994,-109.754 521.569,-105.987 531.439,-103.882 650.145,-78.5661 962.838,-110.621 1076.44,-67.8823 1081.72,-65.8954 1086.89,-63.0304 1091.71,-59.808"/>
<polygon fill="green" stroke="green" stroke-width="0.860846" points="1093.97,-62.4845 1099.95,-53.7342 1089.82,-56.8494 1093.97,-62.4845"/>
</g>
<!-- direcao sprites 1&#45;&gt;pular -->
<g id="edge58" class="edge"><title>direcao sprites 1&#45;&gt;pular</title>
<path fill="none" stroke="red" stroke-width="0.263849" d="M502.856,-113.198C511.394,-109.786 521.771,-106.096 531.439,-103.882 694.216,-66.6058 753.844,-137.916 905.439,-67.8823 909.384,-66.0597 913.15,-63.5848 916.643,-60.8047"/>
<polygon fill="red" stroke="red" stroke-width="0.263849" points="919.179,-63.2296 924.251,-53.9274 914.485,-58.0367 919.179,-63.2296"/>
</g>
<!-- direcao sprites 1&#45;&gt;atirar -->
<g id="edge27" class="edge"><title>direcao sprites 1&#45;&gt;atirar</title>
<path fill="none" stroke="green" stroke-width="0.102202" d="M502.838,-113.118C511.372,-109.69 521.752,-106.01 531.439,-103.882 631.587,-81.8873 898.294,-110.747 991.439,-67.8823 995.328,-66.0929 999.017,-63.6374 1002.42,-60.8673"/>
<polygon fill="green" stroke="green" stroke-width="0.102202" points="1004.88,-63.367 1009.82,-53.9982 1000.11,-58.2369 1004.88,-63.367"/>
</g>
<!-- direcao sprites 1&#45;&gt;release -->
<g id="edge100" class="edge"><title>direcao sprites 1&#45;&gt;release</title>
<path fill="none" stroke="red" stroke-width="0.345563" d="M502.369,-113.2C510.982,-109.7 521.559,-105.938 531.439,-103.882 671.552,-74.7344 1040.53,-118.366 1174.44,-67.8823 1179.07,-66.1354 1183.6,-63.6825 1187.87,-60.8944"/>
<polygon fill="red" stroke="red" stroke-width="0.345563" points="1190.19,-63.5371 1196.21,-54.8196 1186.06,-57.8795 1190.19,-63.5371"/>
</g>
<!-- direcao sprites 2 -->
<g id="node20" class="node"><title>direcao sprites 2</title>
<polygon fill="lightgray" stroke="black" points="616.439,-131.267 540.439,-131.267 540.439,-113.267 616.439,-113.267 616.439,-131.267"/>
<text text-anchor="middle" x="578.439" y="-120.067" font-family="Times New Roman,serif" font-size="9.00">direcao sprites 2</text>
</g>
<!-- direcao sprites 2&#45;&gt;esquerda -->
<g id="edge67" class="edge"><title>direcao sprites 2&#45;&gt;esquerda</title>
<path fill="none" stroke="green" stroke-width="0.890881" d="M600.356,-113.114C608.518,-110.135 617.878,-106.785 626.439,-103.882 687.298,-83.2479 758.364,-61.1412 802.39,-47.676"/>
<polygon fill="green" stroke="green" stroke-width="0.890881" points="803.626,-50.9583 812.169,-44.6915 801.583,-44.2632 803.626,-50.9583"/>
</g>
<!-- direcao sprites 2&#45;&gt;direita -->
<g id="edge98" class="edge"><title>direcao sprites 2&#45;&gt;direita</title>
<path fill="none" stroke="green" stroke-width="0.220478" d="M597.247,-113.132C605.967,-109.706 616.565,-106.025 626.439,-103.882 822.516,-61.3395 889.145,-139.832 1076.44,-67.8823 1081.71,-65.8589 1086.87,-62.9744 1091.68,-59.7437"/>
<polygon fill="green" stroke="green" stroke-width="0.220478" points="1093.95,-62.4184 1099.92,-53.6656 1089.8,-56.7852 1093.95,-62.4184"/>
</g>
<!-- direcao sprites 2&#45;&gt;pular -->
<g id="edge26" class="edge"><title>direcao sprites 2&#45;&gt;pular</title>
<path fill="none" stroke="red" stroke-width="0.11315" d="M597.759,-113.174C606.399,-109.842 616.792,-106.222 626.439,-103.882 747.946,-74.4173 792.801,-122.147 905.439,-67.8823 909.354,-65.9961 913.103,-63.4839 916.586,-60.6846"/>
<polygon fill="red" stroke="red" stroke-width="0.11315" points="919.13,-63.102 924.187,-53.7915 914.428,-57.9167 919.13,-63.102"/>
</g>
<!-- direcao sprites 2&#45;&gt;atirar -->
<g id="edge57" class="edge"><title>direcao sprites 2&#45;&gt;atirar</title>
<path fill="none" stroke="green" stroke-width="0.166663" d="M597.266,-113.216C605.989,-109.808 616.585,-106.116 626.439,-103.882 785.416,-67.8477 844.054,-137.522 991.439,-67.8823 995.309,-66.0537 998.988,-63.5752 1002.39,-60.7933"/>
<polygon fill="green" stroke="green" stroke-width="0.166663" points="1004.85,-63.2882 1009.78,-53.9145 1000.08,-58.163 1004.85,-63.2882"/>
</g>
<!-- direcao sprites 2&#45;&gt;release -->
<g id="edge44" class="edge"><title>direcao sprites 2&#45;&gt;release</title>
<path fill="none" stroke="red" stroke-width="0.182055" d="M596.776,-113.248C605.578,-109.758 616.377,-105.991 626.439,-103.882 745.886,-78.8545 1060.45,-111.484 1174.44,-67.8823 1179.06,-66.113 1183.59,-63.6471 1187.85,-60.8524"/>
<polygon fill="red" stroke="red" stroke-width="0.182055" points="1190.17,-63.4929 1196.19,-54.7721 1186.05,-57.8375 1190.17,-63.4929"/>
</g>
<!-- esquerda&#45;&gt;esquerda -->
<g id="edge90" class="edge"><title>esquerda&#45;&gt;esquerda</title>
<path fill="none" stroke="red" stroke-width="0.205892" d="M874.33,-50.3404C886.318,-51.2669 896.38,-45.8005 896.38,-33.9411 896.38,-25.7878 891.624,-20.6561 884.756,-18.5462"/>
<polygon fill="red" stroke="red" stroke-width="0.205892" points="884.619,-15.0169 874.33,-17.5418 883.948,-21.9846 884.619,-15.0169"/>
</g>
<!-- direita&#45;&gt;direita -->
<g id="edge13" class="edge"><title>direita&#45;&gt;direita</title>
<path fill="none" stroke="red" stroke-width="0.150123" d="M1142.42,-49.861C1154.3,-52.3103 1165.02,-47.0036 1165.02,-33.9411 1165.02,-24.7566 1159.72,-19.4064 1152.45,-17.8906"/>
<polygon fill="red" stroke="red" stroke-width="0.150123" points="1152.37,-14.3911 1142.42,-18.0212 1152.47,-21.3905 1152.37,-14.3911"/>
</g>
<!-- pular&#45;&gt;pular -->
<g id="edge36" class="edge"><title>pular&#45;&gt;pular</title>
<path fill="none" stroke="red" stroke-width="0.573373" d="M959.227,-49.4099C971.056,-52.8474 982.188,-47.6911 982.188,-33.9411 982.188,-24.2732 976.684,-18.8538 969.305,-17.6831"/>
<polygon fill="red" stroke="red" stroke-width="0.573373" points="968.923,-14.2021 959.227,-18.4724 969.47,-21.1808 968.923,-14.2021"/>
</g>
<!-- atirar&#45;&gt;atirar -->
<g id="edge82" class="edge"><title>atirar&#45;&gt;atirar</title>
<path fill="none" stroke="red" stroke-width="0.457757" d="M1044.23,-49.4099C1056.06,-52.8474 1067.19,-47.6911 1067.19,-33.9411 1067.19,-24.2732 1061.68,-18.8538 1054.3,-17.6831"/>
<polygon fill="red" stroke="red" stroke-width="0.457757" points="1053.92,-14.2021 1044.23,-18.4724 1054.47,-21.1808 1053.92,-14.2021"/>
</g>
<!-- release&#45;&gt;release -->
<g id="edge85" class="edge"><title>release&#45;&gt;release</title>
<path fill="none" stroke="red" stroke-width="0.500971" d="M1240.62,-49.9537C1252.68,-52.1693 1263.43,-46.8318 1263.43,-33.9411 1263.43,-24.8774 1258.11,-19.5478 1250.76,-17.9524"/>
<polygon fill="red" stroke="red" stroke-width="0.500971" points="1250.63,-14.4521 1240.62,-17.9286 1250.61,-21.4521 1250.63,-14.4521"/>
</g>
<!-- 17&#45;&gt;direita -->
<g id="edge42" class="edge"><title>17&#45;&gt;direita</title>
<path fill="none" stroke="red" stroke-width="0.142654" d="M2054.42,-111.279C2049.25,-108.349 2043.29,-105.5 2037.44,-103.882 1669.15,-2.04368 1546.14,-171.845 1178.44,-67.8823 1168.8,-65.158 1159.04,-60.5886 1150.29,-55.7072"/>
<polygon fill="red" stroke="red" stroke-width="0.142654" points="1151.99,-52.6463 1141.6,-50.5717 1148.43,-58.6726 1151.99,-52.6463"/>
</g>
</g>
</svg>
