<?xml version="1.0" encoding="utf-8" standalone="no"?>
<!DOCTYPE svg PUBLIC "-//W3C//DTD SVG 1.1//EN"
  "http://www.w3.org/Graphics/SVG/1.1/DTD/svg11.dtd">
<!-- Created with matplotlib (http://matplotlib.org/) -->
<svg height="345pt" version="1.1" viewBox="0 0 460 345" width="460pt" xmlns="http://www.w3.org/2000/svg" xmlns:xlink="http://www.w3.org/1999/xlink">
 <defs>
  <style type="text/css">
*{stroke-linecap:butt;stroke-linejoin:round;}
  </style>
 </defs>
 <g id="figure_1">
  <g id="patch_1">
   <path d="M 0 345.6 
L 460.8 345.6 
L 460.8 0 
L 0 0 
z
" style="fill:#ffffff;"/>
  </g>
  <g id="axes_1">
   <g id="patch_2">
    <path d="M 57.6 307.584 
L 414.72 307.584 
L 414.72 41.472 
L 57.6 41.472 
z
" style="fill:#ffffff;"/>
   </g>
   <g id="matplotlib.axis_1">
    <g id="xtick_1">
     <g id="line2d_1">
      <path clip-path="url(#pa0ffaa005b)" d="M 73.832727 307.584 
L 73.832727 41.472 
" style="fill:none;stroke:#b0b0b0;stroke-linecap:square;stroke-width:0.8;"/>
     </g>
     <g id="line2d_2">
      <defs>
       <path d="M 0 0 
L 0 3.5 
" id="m361be2f680" style="stroke:#000000;stroke-width:0.8;"/>
      </defs>
      <g>
       <use style="stroke:#000000;stroke-width:0.8;" x="73.832727" xlink:href="#m361be2f680" y="307.584"/>
      </g>
     </g>
     <g id="text_1">
      <!-- 0 -->
      <defs>
       <path d="M 31.78125 66.40625 
Q 24.171875 66.40625 20.328125 58.90625 
Q 16.5 51.421875 16.5 36.375 
Q 16.5 21.390625 20.328125 13.890625 
Q 24.171875 6.390625 31.78125 6.390625 
Q 39.453125 6.390625 43.28125 13.890625 
Q 47.125 21.390625 47.125 36.375 
Q 47.125 51.421875 43.28125 58.90625 
Q 39.453125 66.40625 31.78125 66.40625 
z
M 31.78125 74.21875 
Q 44.046875 74.21875 50.515625 64.515625 
Q 56.984375 54.828125 56.984375 36.375 
Q 56.984375 17.96875 50.515625 8.265625 
Q 44.046875 -1.421875 31.78125 -1.421875 
Q 19.53125 -1.421875 13.0625 8.265625 
Q 6.59375 17.96875 6.59375 36.375 
Q 6.59375 54.828125 13.0625 64.515625 
Q 19.53125 74.21875 31.78125 74.21875 
z
" id="DejaVuSans-30"/>
      </defs>
      <g transform="translate(70.651477 322.182437)scale(0.1 -0.1)">
       <use xlink:href="#DejaVuSans-30"/>
      </g>
     </g>
    </g>
    <g id="xtick_2">
     <g id="line2d_3">
      <path clip-path="url(#pa0ffaa005b)" d="M 139.419504 307.584 
L 139.419504 41.472 
" style="fill:none;stroke:#b0b0b0;stroke-linecap:square;stroke-width:0.8;"/>
     </g>
     <g id="line2d_4">
      <g>
       <use style="stroke:#000000;stroke-width:0.8;" x="139.419504" xlink:href="#m361be2f680" y="307.584"/>
      </g>
     </g>
     <g id="text_2">
      <!-- 20 -->
      <defs>
       <path d="M 19.1875 8.296875 
L 53.609375 8.296875 
L 53.609375 0 
L 7.328125 0 
L 7.328125 8.296875 
Q 12.9375 14.109375 22.625 23.890625 
Q 32.328125 33.6875 34.8125 36.53125 
Q 39.546875 41.84375 41.421875 45.53125 
Q 43.3125 49.21875 43.3125 52.78125 
Q 43.3125 58.59375 39.234375 62.25 
Q 35.15625 65.921875 28.609375 65.921875 
Q 23.96875 65.921875 18.8125 64.3125 
Q 13.671875 62.703125 7.8125 59.421875 
L 7.8125 69.390625 
Q 13.765625 71.78125 18.9375 73 
Q 24.125 74.21875 28.421875 74.21875 
Q 39.75 74.21875 46.484375 68.546875 
Q 53.21875 62.890625 53.21875 53.421875 
Q 53.21875 48.921875 51.53125 44.890625 
Q 49.859375 40.875 45.40625 35.40625 
Q 44.1875 33.984375 37.640625 27.21875 
Q 31.109375 20.453125 19.1875 8.296875 
z
" id="DejaVuSans-32"/>
      </defs>
      <g transform="translate(133.057004 322.182437)scale(0.1 -0.1)">
       <use xlink:href="#DejaVuSans-32"/>
       <use x="63.623047" xlink:href="#DejaVuSans-30"/>
      </g>
     </g>
    </g>
    <g id="xtick_3">
     <g id="line2d_5">
      <path clip-path="url(#pa0ffaa005b)" d="M 205.006281 307.584 
L 205.006281 41.472 
" style="fill:none;stroke:#b0b0b0;stroke-linecap:square;stroke-width:0.8;"/>
     </g>
     <g id="line2d_6">
      <g>
       <use style="stroke:#000000;stroke-width:0.8;" x="205.006281" xlink:href="#m361be2f680" y="307.584"/>
      </g>
     </g>
     <g id="text_3">
      <!-- 40 -->
      <defs>
       <path d="M 37.796875 64.3125 
L 12.890625 25.390625 
L 37.796875 25.390625 
z
M 35.203125 72.90625 
L 47.609375 72.90625 
L 47.609375 25.390625 
L 58.015625 25.390625 
L 58.015625 17.1875 
L 47.609375 17.1875 
L 47.609375 0 
L 37.796875 0 
L 37.796875 17.1875 
L 4.890625 17.1875 
L 4.890625 26.703125 
z
" id="DejaVuSans-34"/>
      </defs>
      <g transform="translate(198.643781 322.182437)scale(0.1 -0.1)">
       <use xlink:href="#DejaVuSans-34"/>
       <use x="63.623047" xlink:href="#DejaVuSans-30"/>
      </g>
     </g>
    </g>
    <g id="xtick_4">
     <g id="line2d_7">
      <path clip-path="url(#pa0ffaa005b)" d="M 270.593058 307.584 
L 270.593058 41.472 
" style="fill:none;stroke:#b0b0b0;stroke-linecap:square;stroke-width:0.8;"/>
     </g>
     <g id="line2d_8">
      <g>
       <use style="stroke:#000000;stroke-width:0.8;" x="270.593058" xlink:href="#m361be2f680" y="307.584"/>
      </g>
     </g>
     <g id="text_4">
      <!-- 60 -->
      <defs>
       <path d="M 33.015625 40.375 
Q 26.375 40.375 22.484375 35.828125 
Q 18.609375 31.296875 18.609375 23.390625 
Q 18.609375 15.53125 22.484375 10.953125 
Q 26.375 6.390625 33.015625 6.390625 
Q 39.65625 6.390625 43.53125 10.953125 
Q 47.40625 15.53125 47.40625 23.390625 
Q 47.40625 31.296875 43.53125 35.828125 
Q 39.65625 40.375 33.015625 40.375 
z
M 52.59375 71.296875 
L 52.59375 62.3125 
Q 48.875 64.0625 45.09375 64.984375 
Q 41.3125 65.921875 37.59375 65.921875 
Q 27.828125 65.921875 22.671875 59.328125 
Q 17.53125 52.734375 16.796875 39.40625 
Q 19.671875 43.65625 24.015625 45.921875 
Q 28.375 48.1875 33.59375 48.1875 
Q 44.578125 48.1875 50.953125 41.515625 
Q 57.328125 34.859375 57.328125 23.390625 
Q 57.328125 12.15625 50.6875 5.359375 
Q 44.046875 -1.421875 33.015625 -1.421875 
Q 20.359375 -1.421875 13.671875 8.265625 
Q 6.984375 17.96875 6.984375 36.375 
Q 6.984375 53.65625 15.1875 63.9375 
Q 23.390625 74.21875 37.203125 74.21875 
Q 40.921875 74.21875 44.703125 73.484375 
Q 48.484375 72.75 52.59375 71.296875 
z
" id="DejaVuSans-36"/>
      </defs>
      <g transform="translate(264.230558 322.182437)scale(0.1 -0.1)">
       <use xlink:href="#DejaVuSans-36"/>
       <use x="63.623047" xlink:href="#DejaVuSans-30"/>
      </g>
     </g>
    </g>
    <g id="xtick_5">
     <g id="line2d_9">
      <path clip-path="url(#pa0ffaa005b)" d="M 336.179835 307.584 
L 336.179835 41.472 
" style="fill:none;stroke:#b0b0b0;stroke-linecap:square;stroke-width:0.8;"/>
     </g>
     <g id="line2d_10">
      <g>
       <use style="stroke:#000000;stroke-width:0.8;" x="336.179835" xlink:href="#m361be2f680" y="307.584"/>
      </g>
     </g>
     <g id="text_5">
      <!-- 80 -->
      <defs>
       <path d="M 31.78125 34.625 
Q 24.75 34.625 20.71875 30.859375 
Q 16.703125 27.09375 16.703125 20.515625 
Q 16.703125 13.921875 20.71875 10.15625 
Q 24.75 6.390625 31.78125 6.390625 
Q 38.8125 6.390625 42.859375 10.171875 
Q 46.921875 13.96875 46.921875 20.515625 
Q 46.921875 27.09375 42.890625 30.859375 
Q 38.875 34.625 31.78125 34.625 
z
M 21.921875 38.8125 
Q 15.578125 40.375 12.03125 44.71875 
Q 8.5 49.078125 8.5 55.328125 
Q 8.5 64.0625 14.71875 69.140625 
Q 20.953125 74.21875 31.78125 74.21875 
Q 42.671875 74.21875 48.875 69.140625 
Q 55.078125 64.0625 55.078125 55.328125 
Q 55.078125 49.078125 51.53125 44.71875 
Q 48 40.375 41.703125 38.8125 
Q 48.828125 37.15625 52.796875 32.3125 
Q 56.78125 27.484375 56.78125 20.515625 
Q 56.78125 9.90625 50.3125 4.234375 
Q 43.84375 -1.421875 31.78125 -1.421875 
Q 19.734375 -1.421875 13.25 4.234375 
Q 6.78125 9.90625 6.78125 20.515625 
Q 6.78125 27.484375 10.78125 32.3125 
Q 14.796875 37.15625 21.921875 38.8125 
z
M 18.3125 54.390625 
Q 18.3125 48.734375 21.84375 45.5625 
Q 25.390625 42.390625 31.78125 42.390625 
Q 38.140625 42.390625 41.71875 45.5625 
Q 45.3125 48.734375 45.3125 54.390625 
Q 45.3125 60.0625 41.71875 63.234375 
Q 38.140625 66.40625 31.78125 66.40625 
Q 25.390625 66.40625 21.84375 63.234375 
Q 18.3125 60.0625 18.3125 54.390625 
z
" id="DejaVuSans-38"/>
      </defs>
      <g transform="translate(329.817335 322.182437)scale(0.1 -0.1)">
       <use xlink:href="#DejaVuSans-38"/>
       <use x="63.623047" xlink:href="#DejaVuSans-30"/>
      </g>
     </g>
    </g>
    <g id="xtick_6">
     <g id="line2d_11">
      <path clip-path="url(#pa0ffaa005b)" d="M 401.766612 307.584 
L 401.766612 41.472 
" style="fill:none;stroke:#b0b0b0;stroke-linecap:square;stroke-width:0.8;"/>
     </g>
     <g id="line2d_12">
      <g>
       <use style="stroke:#000000;stroke-width:0.8;" x="401.766612" xlink:href="#m361be2f680" y="307.584"/>
      </g>
     </g>
     <g id="text_6">
      <!-- 100 -->
      <defs>
       <path d="M 12.40625 8.296875 
L 28.515625 8.296875 
L 28.515625 63.921875 
L 10.984375 60.40625 
L 10.984375 69.390625 
L 28.421875 72.90625 
L 38.28125 72.90625 
L 38.28125 8.296875 
L 54.390625 8.296875 
L 54.390625 0 
L 12.40625 0 
z
" id="DejaVuSans-31"/>
      </defs>
      <g transform="translate(392.222862 322.182437)scale(0.1 -0.1)">
       <use xlink:href="#DejaVuSans-31"/>
       <use x="63.623047" xlink:href="#DejaVuSans-30"/>
       <use x="127.246094" xlink:href="#DejaVuSans-30"/>
      </g>
     </g>
    </g>
    <g id="text_7">
     <!-- Generations -->
     <defs>
      <path d="M 59.515625 10.40625 
L 59.515625 29.984375 
L 43.40625 29.984375 
L 43.40625 38.09375 
L 69.28125 38.09375 
L 69.28125 6.78125 
Q 63.578125 2.734375 56.6875 0.65625 
Q 49.8125 -1.421875 42 -1.421875 
Q 24.90625 -1.421875 15.25 8.5625 
Q 5.609375 18.5625 5.609375 36.375 
Q 5.609375 54.25 15.25 64.234375 
Q 24.90625 74.21875 42 74.21875 
Q 49.125 74.21875 55.546875 72.453125 
Q 61.96875 70.703125 67.390625 67.28125 
L 67.390625 56.78125 
Q 61.921875 61.421875 55.765625 63.765625 
Q 49.609375 66.109375 42.828125 66.109375 
Q 29.4375 66.109375 22.71875 58.640625 
Q 16.015625 51.171875 16.015625 36.375 
Q 16.015625 21.625 22.71875 14.15625 
Q 29.4375 6.6875 42.828125 6.6875 
Q 48.046875 6.6875 52.140625 7.59375 
Q 56.25 8.5 59.515625 10.40625 
z
" id="DejaVuSans-47"/>
      <path d="M 56.203125 29.59375 
L 56.203125 25.203125 
L 14.890625 25.203125 
Q 15.484375 15.921875 20.484375 11.0625 
Q 25.484375 6.203125 34.421875 6.203125 
Q 39.59375 6.203125 44.453125 7.46875 
Q 49.3125 8.734375 54.109375 11.28125 
L 54.109375 2.78125 
Q 49.265625 0.734375 44.1875 -0.34375 
Q 39.109375 -1.421875 33.890625 -1.421875 
Q 20.796875 -1.421875 13.15625 6.1875 
Q 5.515625 13.8125 5.515625 26.8125 
Q 5.515625 40.234375 12.765625 48.109375 
Q 20.015625 56 32.328125 56 
Q 43.359375 56 49.78125 48.890625 
Q 56.203125 41.796875 56.203125 29.59375 
z
M 47.21875 32.234375 
Q 47.125 39.59375 43.09375 43.984375 
Q 39.0625 48.390625 32.421875 48.390625 
Q 24.90625 48.390625 20.390625 44.140625 
Q 15.875 39.890625 15.1875 32.171875 
z
" id="DejaVuSans-65"/>
      <path d="M 54.890625 33.015625 
L 54.890625 0 
L 45.90625 0 
L 45.90625 32.71875 
Q 45.90625 40.484375 42.875 44.328125 
Q 39.84375 48.1875 33.796875 48.1875 
Q 26.515625 48.1875 22.3125 43.546875 
Q 18.109375 38.921875 18.109375 30.90625 
L 18.109375 0 
L 9.078125 0 
L 9.078125 54.6875 
L 18.109375 54.6875 
L 18.109375 46.1875 
Q 21.34375 51.125 25.703125 53.5625 
Q 30.078125 56 35.796875 56 
Q 45.21875 56 50.046875 50.171875 
Q 54.890625 44.34375 54.890625 33.015625 
z
" id="DejaVuSans-6e"/>
      <path d="M 41.109375 46.296875 
Q 39.59375 47.171875 37.8125 47.578125 
Q 36.03125 48 33.890625 48 
Q 26.265625 48 22.1875 43.046875 
Q 18.109375 38.09375 18.109375 28.8125 
L 18.109375 0 
L 9.078125 0 
L 9.078125 54.6875 
L 18.109375 54.6875 
L 18.109375 46.1875 
Q 20.953125 51.171875 25.484375 53.578125 
Q 30.03125 56 36.53125 56 
Q 37.453125 56 38.578125 55.875 
Q 39.703125 55.765625 41.0625 55.515625 
z
" id="DejaVuSans-72"/>
      <path d="M 34.28125 27.484375 
Q 23.390625 27.484375 19.1875 25 
Q 14.984375 22.515625 14.984375 16.5 
Q 14.984375 11.71875 18.140625 8.90625 
Q 21.296875 6.109375 26.703125 6.109375 
Q 34.1875 6.109375 38.703125 11.40625 
Q 43.21875 16.703125 43.21875 25.484375 
L 43.21875 27.484375 
z
M 52.203125 31.203125 
L 52.203125 0 
L 43.21875 0 
L 43.21875 8.296875 
Q 40.140625 3.328125 35.546875 0.953125 
Q 30.953125 -1.421875 24.3125 -1.421875 
Q 15.921875 -1.421875 10.953125 3.296875 
Q 6 8.015625 6 15.921875 
Q 6 25.140625 12.171875 29.828125 
Q 18.359375 34.515625 30.609375 34.515625 
L 43.21875 34.515625 
L 43.21875 35.40625 
Q 43.21875 41.609375 39.140625 45 
Q 35.0625 48.390625 27.6875 48.390625 
Q 23 48.390625 18.546875 47.265625 
Q 14.109375 46.140625 10.015625 43.890625 
L 10.015625 52.203125 
Q 14.9375 54.109375 19.578125 55.046875 
Q 24.21875 56 28.609375 56 
Q 40.484375 56 46.34375 49.84375 
Q 52.203125 43.703125 52.203125 31.203125 
z
" id="DejaVuSans-61"/>
      <path d="M 18.3125 70.21875 
L 18.3125 54.6875 
L 36.8125 54.6875 
L 36.8125 47.703125 
L 18.3125 47.703125 
L 18.3125 18.015625 
Q 18.3125 11.328125 20.140625 9.421875 
Q 21.96875 7.515625 27.59375 7.515625 
L 36.8125 7.515625 
L 36.8125 0 
L 27.59375 0 
Q 17.1875 0 13.234375 3.875 
Q 9.28125 7.765625 9.28125 18.015625 
L 9.28125 47.703125 
L 2.6875 47.703125 
L 2.6875 54.6875 
L 9.28125 54.6875 
L 9.28125 70.21875 
z
" id="DejaVuSans-74"/>
      <path d="M 9.421875 54.6875 
L 18.40625 54.6875 
L 18.40625 0 
L 9.421875 0 
z
M 9.421875 75.984375 
L 18.40625 75.984375 
L 18.40625 64.59375 
L 9.421875 64.59375 
z
" id="DejaVuSans-69"/>
      <path d="M 30.609375 48.390625 
Q 23.390625 48.390625 19.1875 42.75 
Q 14.984375 37.109375 14.984375 27.296875 
Q 14.984375 17.484375 19.15625 11.84375 
Q 23.34375 6.203125 30.609375 6.203125 
Q 37.796875 6.203125 41.984375 11.859375 
Q 46.1875 17.53125 46.1875 27.296875 
Q 46.1875 37.015625 41.984375 42.703125 
Q 37.796875 48.390625 30.609375 48.390625 
z
M 30.609375 56 
Q 42.328125 56 49.015625 48.375 
Q 55.71875 40.765625 55.71875 27.296875 
Q 55.71875 13.875 49.015625 6.21875 
Q 42.328125 -1.421875 30.609375 -1.421875 
Q 18.84375 -1.421875 12.171875 6.21875 
Q 5.515625 13.875 5.515625 27.296875 
Q 5.515625 40.765625 12.171875 48.375 
Q 18.84375 56 30.609375 56 
z
" id="DejaVuSans-6f"/>
      <path d="M 44.28125 53.078125 
L 44.28125 44.578125 
Q 40.484375 46.53125 36.375 47.5 
Q 32.28125 48.484375 27.875 48.484375 
Q 21.1875 48.484375 17.84375 46.4375 
Q 14.5 44.390625 14.5 40.28125 
Q 14.5 37.15625 16.890625 35.375 
Q 19.28125 33.59375 26.515625 31.984375 
L 29.59375 31.296875 
Q 39.15625 29.25 43.1875 25.515625 
Q 47.21875 21.78125 47.21875 15.09375 
Q 47.21875 7.46875 41.1875 3.015625 
Q 35.15625 -1.421875 24.609375 -1.421875 
Q 20.21875 -1.421875 15.453125 -0.5625 
Q 10.6875 0.296875 5.421875 2 
L 5.421875 11.28125 
Q 10.40625 8.6875 15.234375 7.390625 
Q 20.0625 6.109375 24.8125 6.109375 
Q 31.15625 6.109375 34.5625 8.28125 
Q 37.984375 10.453125 37.984375 14.40625 
Q 37.984375 18.0625 35.515625 20.015625 
Q 33.0625 21.96875 24.703125 23.78125 
L 21.578125 24.515625 
Q 13.234375 26.265625 9.515625 29.90625 
Q 5.8125 33.546875 5.8125 39.890625 
Q 5.8125 47.609375 11.28125 51.796875 
Q 16.75 56 26.8125 56 
Q 31.78125 56 36.171875 55.265625 
Q 40.578125 54.546875 44.28125 53.078125 
z
" id="DejaVuSans-73"/>
     </defs>
     <g transform="translate(205.662344 335.860562)scale(0.1 -0.1)">
      <use xlink:href="#DejaVuSans-47"/>
      <use x="77.490234" xlink:href="#DejaVuSans-65"/>
      <use x="139.013672" xlink:href="#DejaVuSans-6e"/>
      <use x="202.392578" xlink:href="#DejaVuSans-65"/>
      <use x="263.916016" xlink:href="#DejaVuSans-72"/>
      <use x="305.029297" xlink:href="#DejaVuSans-61"/>
      <use x="366.308594" xlink:href="#DejaVuSans-74"/>
      <use x="405.517578" xlink:href="#DejaVuSans-69"/>
      <use x="433.300781" xlink:href="#DejaVuSans-6f"/>
      <use x="494.482422" xlink:href="#DejaVuSans-6e"/>
      <use x="557.861328" xlink:href="#DejaVuSans-73"/>
     </g>
    </g>
   </g>
   <g id="matplotlib.axis_2">
    <g id="ytick_1">
     <g id="line2d_13">
      <path clip-path="url(#pa0ffaa005b)" d="M 57.6 267.81104 
L 414.72 267.81104 
" style="fill:none;stroke:#b0b0b0;stroke-linecap:square;stroke-width:0.8;"/>
     </g>
     <g id="line2d_14">
      <defs>
       <path d="M 0 0 
L -3.5 0 
" id="mfc7b63d1d8" style="stroke:#000000;stroke-width:0.8;"/>
      </defs>
      <g>
       <use style="stroke:#000000;stroke-width:0.8;" x="57.6" xlink:href="#mfc7b63d1d8" y="267.81104"/>
      </g>
     </g>
     <g id="text_8">
      <!-- 20 -->
      <g transform="translate(37.875 271.610259)scale(0.1 -0.1)">
       <use xlink:href="#DejaVuSans-32"/>
       <use x="63.623047" xlink:href="#DejaVuSans-30"/>
      </g>
     </g>
    </g>
    <g id="ytick_2">
     <g id="line2d_15">
      <path clip-path="url(#pa0ffaa005b)" d="M 57.6 220.988499 
L 414.72 220.988499 
" style="fill:none;stroke:#b0b0b0;stroke-linecap:square;stroke-width:0.8;"/>
     </g>
     <g id="line2d_16">
      <g>
       <use style="stroke:#000000;stroke-width:0.8;" x="57.6" xlink:href="#mfc7b63d1d8" y="220.988499"/>
      </g>
     </g>
     <g id="text_9">
      <!-- 40 -->
      <g transform="translate(37.875 224.787718)scale(0.1 -0.1)">
       <use xlink:href="#DejaVuSans-34"/>
       <use x="63.623047" xlink:href="#DejaVuSans-30"/>
      </g>
     </g>
    </g>
    <g id="ytick_3">
     <g id="line2d_17">
      <path clip-path="url(#pa0ffaa005b)" d="M 57.6 174.165958 
L 414.72 174.165958 
" style="fill:none;stroke:#b0b0b0;stroke-linecap:square;stroke-width:0.8;"/>
     </g>
     <g id="line2d_18">
      <g>
       <use style="stroke:#000000;stroke-width:0.8;" x="57.6" xlink:href="#mfc7b63d1d8" y="174.165958"/>
      </g>
     </g>
     <g id="text_10">
      <!-- 60 -->
      <g transform="translate(37.875 177.965177)scale(0.1 -0.1)">
       <use xlink:href="#DejaVuSans-36"/>
       <use x="63.623047" xlink:href="#DejaVuSans-30"/>
      </g>
     </g>
    </g>
    <g id="ytick_4">
     <g id="line2d_19">
      <path clip-path="url(#pa0ffaa005b)" d="M 57.6 127.343417 
L 414.72 127.343417 
" style="fill:none;stroke:#b0b0b0;stroke-linecap:square;stroke-width:0.8;"/>
     </g>
     <g id="line2d_20">
      <g>
       <use style="stroke:#000000;stroke-width:0.8;" x="57.6" xlink:href="#mfc7b63d1d8" y="127.343417"/>
      </g>
     </g>
     <g id="text_11">
      <!-- 80 -->
      <g transform="translate(37.875 131.142635)scale(0.1 -0.1)">
       <use xlink:href="#DejaVuSans-38"/>
       <use x="63.623047" xlink:href="#DejaVuSans-30"/>
      </g>
     </g>
    </g>
    <g id="ytick_5">
     <g id="line2d_21">
      <path clip-path="url(#pa0ffaa005b)" d="M 57.6 80.520876 
L 414.72 80.520876 
" style="fill:none;stroke:#b0b0b0;stroke-linecap:square;stroke-width:0.8;"/>
     </g>
     <g id="line2d_22">
      <g>
       <use style="stroke:#000000;stroke-width:0.8;" x="57.6" xlink:href="#mfc7b63d1d8" y="80.520876"/>
      </g>
     </g>
     <g id="text_12">
      <!-- 100 -->
      <g transform="translate(31.5125 84.320094)scale(0.1 -0.1)">
       <use xlink:href="#DejaVuSans-31"/>
       <use x="63.623047" xlink:href="#DejaVuSans-30"/>
       <use x="127.246094" xlink:href="#DejaVuSans-30"/>
      </g>
     </g>
    </g>
    <g id="text_13">
     <!-- Fitness -->
     <defs>
      <path d="M 9.8125 72.90625 
L 51.703125 72.90625 
L 51.703125 64.59375 
L 19.671875 64.59375 
L 19.671875 43.109375 
L 48.578125 43.109375 
L 48.578125 34.8125 
L 19.671875 34.8125 
L 19.671875 0 
L 9.8125 0 
z
" id="DejaVuSans-46"/>
     </defs>
     <g transform="translate(25.432812 192.202219)rotate(-90)scale(0.1 -0.1)">
      <use xlink:href="#DejaVuSans-46"/>
      <use x="57.410156" xlink:href="#DejaVuSans-69"/>
      <use x="85.193359" xlink:href="#DejaVuSans-74"/>
      <use x="124.402344" xlink:href="#DejaVuSans-6e"/>
      <use x="187.78125" xlink:href="#DejaVuSans-65"/>
      <use x="249.304688" xlink:href="#DejaVuSans-73"/>
      <use x="301.404297" xlink:href="#DejaVuSans-73"/>
     </g>
    </g>
   </g>
   <g id="line2d_23">
    <path clip-path="url(#pa0ffaa005b)" d="M 73.832727 197.299244 
L 77.112066 155.933909 
L 80.391405 140.359705 
L 83.670744 120.79148 
L 86.950083 127.237215 
L 90.229421 119.859296 
L 93.50876 112.123155 
L 96.788099 120.287456 
L 100.067438 131.276994 
L 103.346777 124.017536 
L 106.626116 115.093891 
L 109.905455 111.724603 
L 113.184793 119.738235 
L 116.464132 113.547869 
L 119.743471 129.668034 
L 123.02281 126.257287 
L 126.302149 108.306994 
L 129.581488 111.792209 
L 132.860826 123.699312 
L 136.140165 117.206439 
L 139.419504 118.314389 
L 142.698843 124.160535 
L 145.978182 116.90695 
L 149.257521 110.888541 
L 152.53686 115.843837 
L 155.816198 116.911371 
L 159.095537 117.973089 
L 162.374876 117.043214 
L 165.654215 110.432036 
L 168.933554 107.984782 
L 172.212893 99.892159 
L 175.492231 104.339933 
L 178.77157 109.117673 
L 182.050909 102.846324 
L 185.330248 106.262572 
L 188.609587 114.786543 
L 191.888926 108.57005 
L 195.168264 101.260649 
L 198.447603 103.593347 
L 201.726942 104.296987 
L 205.006281 114.030512 
L 208.28562 100.50461 
L 211.564959 103.912822 
L 214.844298 117.630645 
L 218.123636 115.825214 
L 221.402975 111.321359 
L 224.682314 111.876392 
L 227.961653 104.435842 
L 231.240992 100.729674 
L 234.520331 107.564236 
L 237.799669 102.951565 
L 241.079008 116.363543 
L 244.358347 104.927076 
L 247.637686 112.174182 
L 250.917025 114.00871 
L 254.196364 117.167645 
L 257.475702 115.908709 
L 260.755041 105.589437 
L 264.03438 113.048499 
L 267.313719 107.18197 
L 270.593058 99.429645 
L 273.872397 110.539696 
L 277.151736 106.516009 
L 280.431074 102.613803 
L 283.710413 100.75667 
L 286.989752 96.919042 
L 290.269091 107.130965 
L 293.54843 113.814422 
L 296.827769 103.766103 
L 300.107107 112.895366 
L 303.386446 111.856615 
L 306.665785 106.671304 
L 309.945124 101.548253 
L 313.224463 108.182132 
L 316.503802 112.63996 
L 319.78314 109.48212 
L 323.062479 111.259249 
L 326.341818 112.602255 
L 329.621157 112.460134 
L 332.900496 104.589625 
L 336.179835 115.510772 
L 339.459174 106.98611 
L 342.738512 109.837198 
L 346.017851 102.957194 
L 349.29719 111.230772 
L 352.576529 115.1997 
L 355.855868 107.647868 
L 359.135207 101.456771 
L 362.414545 102.623423 
L 365.693884 117.14735 
L 368.973223 103.72858 
L 372.252562 106.910553 
L 375.531901 107.03662 
L 378.81124 102.95282 
L 382.090579 110.128881 
L 385.369917 108.980796 
L 388.649256 115.095852 
L 391.928595 115.714509 
L 395.207934 106.523352 
L 398.487273 102.942754 
" style="fill:none;stroke:#0000ff;stroke-linecap:square;stroke-width:1.5;"/>
   </g>
   <g id="line2d_24">
    <path clip-path="url(#pa0ffaa005b)" d="M 73.832727 295.488 
L 77.112066 242.68267 
L 80.391405 217.579003 
L 83.670744 183.464627 
L 86.950083 198.955666 
L 90.229421 179.557391 
L 93.50876 164.466834 
L 96.788099 180.304147 
L 100.067438 203.738255 
L 103.346777 191.453174 
L 106.626116 172.043081 
L 109.905455 162.254914 
L 113.184793 180.442992 
L 116.464132 167.132888 
L 119.743471 202.779258 
L 123.02281 198.905159 
L 126.302149 155.605403 
L 129.581488 162.000389 
L 132.860826 189.094203 
L 136.140165 180.603042 
L 139.419504 180.843145 
L 142.698843 190.966228 
L 145.978182 174.537965 
L 149.257521 168.209083 
L 152.53686 174.664243 
L 155.816198 176.154868 
L 159.095537 176.209648 
L 162.374876 172.347215 
L 165.654215 162.044358 
L 168.933554 148.104951 
L 172.212893 130.794941 
L 175.492231 141.838996 
L 178.77157 158.799995 
L 182.050909 140.17055 
L 185.330248 150.804772 
L 188.609587 171.624872 
L 191.888926 153.932084 
L 195.168264 131.874488 
L 198.447603 143.306135 
L 201.726942 139.513144 
L 205.006281 172.516644 
L 208.28562 133.701539 
L 211.564959 140.725343 
L 214.844298 178.567599 
L 218.123636 175.893156 
L 221.402975 163.391287 
L 224.682314 163.902851 
L 227.961653 143.907326 
L 231.240992 130.363356 
L 234.520331 153.114592 
L 237.799669 142.213104 
L 241.079008 178.665487 
L 244.358347 144.729918 
L 247.637686 169.959889 
L 250.917025 171.089465 
L 254.196364 178.8283 
L 257.475702 174.48782 
L 260.755041 147.908232 
L 264.03438 170.82737 
L 267.313719 155.406505 
L 270.593058 121.308362 
L 273.872397 160.770202 
L 277.151736 151.767597 
L 280.431074 134.795905 
L 283.710413 131.581766 
L 286.989752 114.441032 
L 290.269091 152.961303 
L 293.54843 172.35758 
L 296.827769 141.817209 
L 300.107107 165.79619 
L 303.386446 165.624816 
L 306.665785 148.119689 
L 309.945124 136.198277 
L 313.224463 153.185769 
L 316.503802 171.609309 
L 319.78314 157.952289 
L 323.062479 162.700675 
L 326.341818 164.58959 
L 329.621157 164.606973 
L 332.900496 143.614496 
L 336.179835 170.640892 
L 339.459174 150.536024 
L 342.738512 160.30345 
L 346.017851 139.440493 
L 349.29719 162.677685 
L 352.576529 170.779669 
L 355.855868 155.926357 
L 359.135207 132.691585 
L 362.414545 143.313262 
L 365.693884 175.108535 
L 368.973223 145.502245 
L 372.252562 151.909618 
L 375.531901 145.417119 
L 378.81124 139.850582 
L 382.090579 162.923215 
L 385.369917 163.739895 
L 388.649256 174.368495 
L 391.928595 170.919875 
L 395.207934 153.68907 
L 398.487273 142.176406 
" style="fill:none;stroke:#008000;stroke-dasharray:9.6,2.4,1.5,2.4;stroke-dashoffset:0;stroke-width:1.5;"/>
   </g>
   <g id="line2d_25">
    <path clip-path="url(#pa0ffaa005b)" d="M 73.832727 99.110489 
L 77.112066 69.185148 
L 80.391405 63.140407 
L 83.670744 58.118334 
L 86.950083 55.518764 
L 90.229421 60.161202 
L 93.50876 59.779476 
L 96.788099 60.270764 
L 100.067438 58.815733 
L 103.346777 56.581898 
L 106.626116 58.1447 
L 109.905455 61.194293 
L 113.184793 59.033479 
L 116.464132 59.96285 
L 119.743471 56.556809 
L 123.02281 53.609414 
L 126.302149 61.008585 
L 129.581488 61.584028 
L 132.860826 58.304422 
L 136.140165 53.809836 
L 139.419504 55.785634 
L 142.698843 57.354842 
L 145.978182 59.275934 
L 149.257521 53.568 
L 152.53686 57.02343 
L 155.816198 57.667875 
L 159.095537 59.73653 
L 162.374876 61.739212 
L 165.654215 58.819713 
L 168.933554 67.864613 
L 172.212893 68.989377 
L 175.492231 66.840871 
L 178.77157 59.435352 
L 182.050909 65.522099 
L 185.330248 61.720371 
L 188.609587 57.948214 
L 191.888926 63.208016 
L 195.168264 70.646811 
L 198.447603 63.880558 
L 201.726942 69.080829 
L 205.006281 55.544379 
L 208.28562 67.30768 
L 211.564959 67.100302 
L 214.844298 56.693691 
L 218.123636 55.757272 
L 221.402975 59.251432 
L 224.682314 59.849933 
L 227.961653 64.964358 
L 231.240992 71.095992 
L 234.520331 62.01388 
L 237.799669 63.690027 
L 241.079008 54.061598 
L 244.358347 65.124234 
L 247.637686 54.388474 
L 250.917025 56.927954 
L 254.196364 55.50699 
L 257.475702 57.329597 
L 260.755041 63.270642 
L 264.03438 55.269627 
L 267.313719 58.957435 
L 270.593058 77.550927 
L 273.872397 60.309191 
L 277.151736 61.264421 
L 280.431074 70.431702 
L 283.710413 69.931574 
L 286.989752 79.397052 
L 290.269091 61.300628 
L 293.54843 55.271264 
L 296.827769 65.714998 
L 300.107107 59.994542 
L 303.386446 58.088413 
L 306.665785 65.22292 
L 309.945124 66.898229 
L 313.224463 63.178496 
L 316.503802 53.670611 
L 319.78314 61.01195 
L 323.062479 59.817823 
L 326.341818 60.614921 
L 329.621157 60.313296 
L 332.900496 65.564754 
L 336.179835 60.380651 
L 339.459174 63.436196 
L 342.738512 59.370945 
L 346.017851 66.473895 
L 349.29719 59.783859 
L 352.576529 59.619732 
L 355.855868 59.369379 
L 359.135207 70.221956 
L 362.414545 61.933585 
L 365.693884 59.186164 
L 368.973223 61.954915 
L 372.252562 61.911488 
L 375.531901 68.65612 
L 378.81124 66.055057 
L 382.090579 57.334547 
L 385.369917 54.221696 
L 388.649256 55.823209 
L 391.928595 60.509143 
L 395.207934 59.357634 
L 398.487273 63.709101 
" style="fill:none;stroke:#008000;stroke-dasharray:9.6,2.4,1.5,2.4;stroke-dashoffset:0;stroke-width:1.5;"/>
   </g>
   <g id="line2d_26">
    <path clip-path="url(#pa0ffaa005b)" d="M 73.832727 91.106957 
L 77.112066 91.525297 
L 80.391405 90.066909 
L 83.670744 90.628664 
L 86.950083 90.22048 
L 90.229421 90.659673 
L 93.50876 90.628664 
L 96.788099 90.183022 
L 100.067438 90.565386 
L 103.346777 90.533094 
L 106.626116 90.597239 
L 109.905455 90.364595 
L 113.184793 90.565386 
L 116.464132 90.22048 
L 119.743471 90.628664 
L 123.02281 90.659673 
L 126.302149 90.628664 
L 129.581488 90.565386 
L 132.860826 90.565386 
L 136.140165 90.598708 
L 139.419504 90.467143 
L 142.698843 90.183022 
L 145.978182 90.467143 
L 149.257521 90.293647 
L 152.53686 90.183022 
L 155.816198 90.467143 
L 159.095537 90.22048 
L 162.374876 90.293647 
L 165.654215 90.106256 
L 168.933554 90.364595 
L 172.212893 90.565386 
L 175.492231 90.364595 
L 178.77157 90.720484 
L 182.050909 90.467143 
L 185.330248 90.144954 
L 188.609587 90.433457 
L 191.888926 90.106256 
L 195.168264 90.32939 
L 198.447603 90.364595 
L 201.726942 90.533094 
L 205.006281 90.628664 
L 208.28562 90.433457 
L 211.564959 90.183022 
L 214.844298 90.32939 
L 218.123636 90.106256 
L 221.402975 90.144954 
L 224.682314 90.533094 
L 227.961653 90.106256 
L 231.240992 90.659673 
L 234.520331 90.533094 
L 237.799669 90.690276 
L 241.079008 90.500351 
L 244.358347 90.364595 
L 247.637686 90.467143 
L 250.917025 90.467143 
L 254.196364 90.293647 
L 257.475702 90.533094 
L 260.755041 90.565386 
L 264.03438 90.144954 
L 267.313719 90.106256 
L 270.593058 90.183022 
L 273.872397 90.500351 
L 277.151736 90.597239 
L 280.431074 90.597239 
L 283.710413 90.106256 
L 286.989752 90.533094 
L 290.269091 90.399279 
L 293.54843 90.690276 
L 296.827769 90.565386 
L 300.107107 90.467143 
L 303.386446 90.026889 
L 306.665785 90.106256 
L 309.945124 90.628664 
L 313.224463 90.565386 
L 316.503802 90.659673 
L 319.78314 90.533094 
L 323.062479 90.659673 
L 326.341818 90.533094 
L 329.621157 90.183022 
L 332.900496 90.026889 
L 336.179835 89.986172 
L 339.459174 90.026889 
L 342.738512 90.433457 
L 346.017851 90.144954 
L 349.29719 90.533094 
L 352.576529 89.944735 
L 355.855868 90.533094 
L 359.135207 90.659673 
L 362.414545 90.22048 
L 365.693884 90.467143 
L 368.973223 90.500351 
L 372.252562 90.433457 
L 375.531901 90.106256 
L 378.81124 90.106256 
L 382.090579 90.293647 
L 385.369917 90.467143 
L 388.649256 90.597239 
L 391.928595 90.628664 
L 395.207934 90.467143 
L 398.487273 90.533094 
" style="fill:none;stroke:#ff0000;stroke-linecap:square;stroke-width:1.5;"/>
   </g>
   <g id="patch_3">
    <path d="M 57.6 307.584 
L 57.6 41.472 
" style="fill:none;stroke:#000000;stroke-linecap:square;stroke-linejoin:miter;stroke-width:0.8;"/>
   </g>
   <g id="patch_4">
    <path d="M 414.72 307.584 
L 414.72 41.472 
" style="fill:none;stroke:#000000;stroke-linecap:square;stroke-linejoin:miter;stroke-width:0.8;"/>
   </g>
   <g id="patch_5">
    <path d="M 57.6 307.584 
L 414.72 307.584 
" style="fill:none;stroke:#000000;stroke-linecap:square;stroke-linejoin:miter;stroke-width:0.8;"/>
   </g>
   <g id="patch_6">
    <path d="M 57.6 41.472 
L 414.72 41.472 
" style="fill:none;stroke:#000000;stroke-linecap:square;stroke-linejoin:miter;stroke-width:0.8;"/>
   </g>
   <g id="text_14">
    <!-- Population's average and best fitness -->
    <defs>
     <path d="M 19.671875 64.796875 
L 19.671875 37.40625 
L 32.078125 37.40625 
Q 38.96875 37.40625 42.71875 40.96875 
Q 46.484375 44.53125 46.484375 51.125 
Q 46.484375 57.671875 42.71875 61.234375 
Q 38.96875 64.796875 32.078125 64.796875 
z
M 9.8125 72.90625 
L 32.078125 72.90625 
Q 44.34375 72.90625 50.609375 67.359375 
Q 56.890625 61.8125 56.890625 51.125 
Q 56.890625 40.328125 50.609375 34.8125 
Q 44.34375 29.296875 32.078125 29.296875 
L 19.671875 29.296875 
L 19.671875 0 
L 9.8125 0 
z
" id="DejaVuSans-50"/>
     <path d="M 18.109375 8.203125 
L 18.109375 -20.796875 
L 9.078125 -20.796875 
L 9.078125 54.6875 
L 18.109375 54.6875 
L 18.109375 46.390625 
Q 20.953125 51.265625 25.265625 53.625 
Q 29.59375 56 35.59375 56 
Q 45.5625 56 51.78125 48.09375 
Q 58.015625 40.1875 58.015625 27.296875 
Q 58.015625 14.40625 51.78125 6.484375 
Q 45.5625 -1.421875 35.59375 -1.421875 
Q 29.59375 -1.421875 25.265625 0.953125 
Q 20.953125 3.328125 18.109375 8.203125 
z
M 48.6875 27.296875 
Q 48.6875 37.203125 44.609375 42.84375 
Q 40.53125 48.484375 33.40625 48.484375 
Q 26.265625 48.484375 22.1875 42.84375 
Q 18.109375 37.203125 18.109375 27.296875 
Q 18.109375 17.390625 22.1875 11.75 
Q 26.265625 6.109375 33.40625 6.109375 
Q 40.53125 6.109375 44.609375 11.75 
Q 48.6875 17.390625 48.6875 27.296875 
z
" id="DejaVuSans-70"/>
     <path d="M 8.5 21.578125 
L 8.5 54.6875 
L 17.484375 54.6875 
L 17.484375 21.921875 
Q 17.484375 14.15625 20.5 10.265625 
Q 23.53125 6.390625 29.59375 6.390625 
Q 36.859375 6.390625 41.078125 11.03125 
Q 45.3125 15.671875 45.3125 23.6875 
L 45.3125 54.6875 
L 54.296875 54.6875 
L 54.296875 0 
L 45.3125 0 
L 45.3125 8.40625 
Q 42.046875 3.421875 37.71875 1 
Q 33.40625 -1.421875 27.6875 -1.421875 
Q 18.265625 -1.421875 13.375 4.4375 
Q 8.5 10.296875 8.5 21.578125 
z
M 31.109375 56 
z
" id="DejaVuSans-75"/>
     <path d="M 9.421875 75.984375 
L 18.40625 75.984375 
L 18.40625 0 
L 9.421875 0 
z
" id="DejaVuSans-6c"/>
     <path d="M 17.921875 72.90625 
L 17.921875 45.796875 
L 9.625 45.796875 
L 9.625 72.90625 
z
" id="DejaVuSans-27"/>
     <path id="DejaVuSans-20"/>
     <path d="M 2.984375 54.6875 
L 12.5 54.6875 
L 29.59375 8.796875 
L 46.6875 54.6875 
L 56.203125 54.6875 
L 35.6875 0 
L 23.484375 0 
z
" id="DejaVuSans-76"/>
     <path d="M 45.40625 27.984375 
Q 45.40625 37.75 41.375 43.109375 
Q 37.359375 48.484375 30.078125 48.484375 
Q 22.859375 48.484375 18.828125 43.109375 
Q 14.796875 37.75 14.796875 27.984375 
Q 14.796875 18.265625 18.828125 12.890625 
Q 22.859375 7.515625 30.078125 7.515625 
Q 37.359375 7.515625 41.375 12.890625 
Q 45.40625 18.265625 45.40625 27.984375 
z
M 54.390625 6.78125 
Q 54.390625 -7.171875 48.1875 -13.984375 
Q 42 -20.796875 29.203125 -20.796875 
Q 24.46875 -20.796875 20.265625 -20.09375 
Q 16.0625 -19.390625 12.109375 -17.921875 
L 12.109375 -9.1875 
Q 16.0625 -11.328125 19.921875 -12.34375 
Q 23.78125 -13.375 27.78125 -13.375 
Q 36.625 -13.375 41.015625 -8.765625 
Q 45.40625 -4.15625 45.40625 5.171875 
L 45.40625 9.625 
Q 42.625 4.78125 38.28125 2.390625 
Q 33.9375 0 27.875 0 
Q 17.828125 0 11.671875 7.65625 
Q 5.515625 15.328125 5.515625 27.984375 
Q 5.515625 40.671875 11.671875 48.328125 
Q 17.828125 56 27.875 56 
Q 33.9375 56 38.28125 53.609375 
Q 42.625 51.21875 45.40625 46.390625 
L 45.40625 54.6875 
L 54.390625 54.6875 
z
" id="DejaVuSans-67"/>
     <path d="M 45.40625 46.390625 
L 45.40625 75.984375 
L 54.390625 75.984375 
L 54.390625 0 
L 45.40625 0 
L 45.40625 8.203125 
Q 42.578125 3.328125 38.25 0.953125 
Q 33.9375 -1.421875 27.875 -1.421875 
Q 17.96875 -1.421875 11.734375 6.484375 
Q 5.515625 14.40625 5.515625 27.296875 
Q 5.515625 40.1875 11.734375 48.09375 
Q 17.96875 56 27.875 56 
Q 33.9375 56 38.25 53.625 
Q 42.578125 51.265625 45.40625 46.390625 
z
M 14.796875 27.296875 
Q 14.796875 17.390625 18.875 11.75 
Q 22.953125 6.109375 30.078125 6.109375 
Q 37.203125 6.109375 41.296875 11.75 
Q 45.40625 17.390625 45.40625 27.296875 
Q 45.40625 37.203125 41.296875 42.84375 
Q 37.203125 48.484375 30.078125 48.484375 
Q 22.953125 48.484375 18.875 42.84375 
Q 14.796875 37.203125 14.796875 27.296875 
z
" id="DejaVuSans-64"/>
     <path d="M 48.6875 27.296875 
Q 48.6875 37.203125 44.609375 42.84375 
Q 40.53125 48.484375 33.40625 48.484375 
Q 26.265625 48.484375 22.1875 42.84375 
Q 18.109375 37.203125 18.109375 27.296875 
Q 18.109375 17.390625 22.1875 11.75 
Q 26.265625 6.109375 33.40625 6.109375 
Q 40.53125 6.109375 44.609375 11.75 
Q 48.6875 17.390625 48.6875 27.296875 
z
M 18.109375 46.390625 
Q 20.953125 51.265625 25.265625 53.625 
Q 29.59375 56 35.59375 56 
Q 45.5625 56 51.78125 48.09375 
Q 58.015625 40.1875 58.015625 27.296875 
Q 58.015625 14.40625 51.78125 6.484375 
Q 45.5625 -1.421875 35.59375 -1.421875 
Q 29.59375 -1.421875 25.265625 0.953125 
Q 20.953125 3.328125 18.109375 8.203125 
L 18.109375 0 
L 9.078125 0 
L 9.078125 75.984375 
L 18.109375 75.984375 
z
" id="DejaVuSans-62"/>
     <path d="M 37.109375 75.984375 
L 37.109375 68.5 
L 28.515625 68.5 
Q 23.6875 68.5 21.796875 66.546875 
Q 19.921875 64.59375 19.921875 59.515625 
L 19.921875 54.6875 
L 34.71875 54.6875 
L 34.71875 47.703125 
L 19.921875 47.703125 
L 19.921875 0 
L 10.890625 0 
L 10.890625 47.703125 
L 2.296875 47.703125 
L 2.296875 54.6875 
L 10.890625 54.6875 
L 10.890625 58.5 
Q 10.890625 67.625 15.140625 71.796875 
Q 19.390625 75.984375 28.609375 75.984375 
z
" id="DejaVuSans-66"/>
    </defs>
    <g transform="translate(123.315 35.472)scale(0.12 -0.12)">
     <use xlink:href="#DejaVuSans-50"/>
     <use x="60.255859" xlink:href="#DejaVuSans-6f"/>
     <use x="121.4375" xlink:href="#DejaVuSans-70"/>
     <use x="184.914062" xlink:href="#DejaVuSans-75"/>
     <use x="248.292969" xlink:href="#DejaVuSans-6c"/>
     <use x="276.076172" xlink:href="#DejaVuSans-61"/>
     <use x="337.355469" xlink:href="#DejaVuSans-74"/>
     <use x="376.564453" xlink:href="#DejaVuSans-69"/>
     <use x="404.347656" xlink:href="#DejaVuSans-6f"/>
     <use x="465.529297" xlink:href="#DejaVuSans-6e"/>
     <use x="528.908203" xlink:href="#DejaVuSans-27"/>
     <use x="556.398438" xlink:href="#DejaVuSans-73"/>
     <use x="608.498047" xlink:href="#DejaVuSans-20"/>
     <use x="640.285156" xlink:href="#DejaVuSans-61"/>
     <use x="701.564453" xlink:href="#DejaVuSans-76"/>
     <use x="760.744141" xlink:href="#DejaVuSans-65"/>
     <use x="822.267578" xlink:href="#DejaVuSans-72"/>
     <use x="863.380859" xlink:href="#DejaVuSans-61"/>
     <use x="924.660156" xlink:href="#DejaVuSans-67"/>
     <use x="988.136719" xlink:href="#DejaVuSans-65"/>
     <use x="1049.660156" xlink:href="#DejaVuSans-20"/>
     <use x="1081.447266" xlink:href="#DejaVuSans-61"/>
     <use x="1142.726562" xlink:href="#DejaVuSans-6e"/>
     <use x="1206.105469" xlink:href="#DejaVuSans-64"/>
     <use x="1269.582031" xlink:href="#DejaVuSans-20"/>
     <use x="1301.369141" xlink:href="#DejaVuSans-62"/>
     <use x="1364.845703" xlink:href="#DejaVuSans-65"/>
     <use x="1426.369141" xlink:href="#DejaVuSans-73"/>
     <use x="1478.46875" xlink:href="#DejaVuSans-74"/>
     <use x="1517.677734" xlink:href="#DejaVuSans-20"/>
     <use x="1549.464844" xlink:href="#DejaVuSans-66"/>
     <use x="1584.669922" xlink:href="#DejaVuSans-69"/>
     <use x="1612.453125" xlink:href="#DejaVuSans-74"/>
     <use x="1651.662109" xlink:href="#DejaVuSans-6e"/>
     <use x="1715.041016" xlink:href="#DejaVuSans-65"/>
     <use x="1776.564453" xlink:href="#DejaVuSans-73"/>
     <use x="1828.664062" xlink:href="#DejaVuSans-73"/>
    </g>
   </g>
   <g id="legend_1">
    <g id="patch_7">
     <path d="M 334.779375 302.584 
L 407.72 302.584 
Q 409.72 302.584 409.72 300.584 
L 409.72 242.8715 
Q 409.72 240.8715 407.72 240.8715 
L 334.779375 240.8715 
Q 332.779375 240.8715 332.779375 242.8715 
L 332.779375 300.584 
Q 332.779375 302.584 334.779375 302.584 
z
" style="fill:#ffffff;opacity:0.8;stroke:#cccccc;stroke-linejoin:miter;"/>
    </g>
    <g id="line2d_27">
     <path d="M 336.779375 248.969937 
L 356.779375 248.969937 
" style="fill:none;stroke:#0000ff;stroke-linecap:square;stroke-width:1.5;"/>
    </g>
    <g id="line2d_28"/>
    <g id="text_15">
     <!-- average -->
     <g transform="translate(364.779375 252.469937)scale(0.1 -0.1)">
      <use xlink:href="#DejaVuSans-61"/>
      <use x="61.279297" xlink:href="#DejaVuSans-76"/>
      <use x="120.458984" xlink:href="#DejaVuSans-65"/>
      <use x="181.982422" xlink:href="#DejaVuSans-72"/>
      <use x="223.095703" xlink:href="#DejaVuSans-61"/>
      <use x="284.375" xlink:href="#DejaVuSans-67"/>
      <use x="347.851562" xlink:href="#DejaVuSans-65"/>
     </g>
    </g>
    <g id="line2d_29">
     <path d="M 336.779375 263.648062 
L 356.779375 263.648062 
" style="fill:none;stroke:#008000;stroke-dasharray:9.6,2.4,1.5,2.4;stroke-dashoffset:0;stroke-width:1.5;"/>
    </g>
    <g id="line2d_30"/>
    <g id="text_16">
     <!-- -1 sd -->
     <defs>
      <path d="M 4.890625 31.390625 
L 31.203125 31.390625 
L 31.203125 23.390625 
L 4.890625 23.390625 
z
" id="DejaVuSans-2d"/>
     </defs>
     <g transform="translate(364.779375 267.148062)scale(0.1 -0.1)">
      <use xlink:href="#DejaVuSans-2d"/>
      <use x="36.083984" xlink:href="#DejaVuSans-31"/>
      <use x="99.707031" xlink:href="#DejaVuSans-20"/>
      <use x="131.494141" xlink:href="#DejaVuSans-73"/>
      <use x="183.59375" xlink:href="#DejaVuSans-64"/>
     </g>
    </g>
    <g id="line2d_31">
     <path d="M 336.779375 278.326187 
L 356.779375 278.326187 
" style="fill:none;stroke:#008000;stroke-dasharray:9.6,2.4,1.5,2.4;stroke-dashoffset:0;stroke-width:1.5;"/>
    </g>
    <g id="line2d_32"/>
    <g id="text_17">
     <!-- +1 sd -->
     <defs>
      <path d="M 46 62.703125 
L 46 35.5 
L 73.1875 35.5 
L 73.1875 27.203125 
L 46 27.203125 
L 46 0 
L 37.796875 0 
L 37.796875 27.203125 
L 10.59375 27.203125 
L 10.59375 35.5 
L 37.796875 35.5 
L 37.796875 62.703125 
z
" id="DejaVuSans-2b"/>
     </defs>
     <g transform="translate(364.779375 281.826187)scale(0.1 -0.1)">
      <use xlink:href="#DejaVuSans-2b"/>
      <use x="83.789062" xlink:href="#DejaVuSans-31"/>
      <use x="147.412109" xlink:href="#DejaVuSans-20"/>
      <use x="179.199219" xlink:href="#DejaVuSans-73"/>
      <use x="231.298828" xlink:href="#DejaVuSans-64"/>
     </g>
    </g>
    <g id="line2d_33">
     <path d="M 336.779375 293.004312 
L 356.779375 293.004312 
" style="fill:none;stroke:#ff0000;stroke-linecap:square;stroke-width:1.5;"/>
    </g>
    <g id="line2d_34"/>
    <g id="text_18">
     <!-- best -->
     <g transform="translate(364.779375 296.504312)scale(0.1 -0.1)">
      <use xlink:href="#DejaVuSans-62"/>
      <use x="63.476562" xlink:href="#DejaVuSans-65"/>
      <use x="125" xlink:href="#DejaVuSans-73"/>
      <use x="177.099609" xlink:href="#DejaVuSans-74"/>
     </g>
    </g>
   </g>
  </g>
 </g>
 <defs>
  <clipPath id="pa0ffaa005b">
   <rect height="266.112" width="357.12" x="57.6" y="41.472"/>
  </clipPath>
 </defs>
</svg>
