<?xml version="1.0" encoding="UTF-8" standalone="no"?>
<!DOCTYPE svg PUBLIC "-//W3C//DTD SVG 1.1//EN"
 "http://www.w3.org/Graphics/SVG/1.1/DTD/svg11.dtd">
<!-- Generated by graphviz version 2.38.0 (20140413.2041)
 -->
<!-- Title: %3 Pages: 1 -->
<svg width="2237pt" height="301pt"
 viewBox="0.00 0.00 2237.32 300.88" xmlns="http://www.w3.org/2000/svg" xmlns:xlink="http://www.w3.org/1999/xlink">
<g id="graph0" class="graph" transform="scale(1 1) rotate(0) translate(4 296.877)">
<title>%3</title>
<polygon fill="white" stroke="none" points="-4,4 -4,-296.877 2233.32,-296.877 2233.32,4 -4,4"/>
<!-- dintancia projetil 1 -->
<g id="node1" class="node"><title>dintancia projetil 1</title>
<polygon fill="lightgray" stroke="black" points="759.955,-223.128 675.955,-223.128 675.955,-205.128 759.955,-205.128 759.955,-223.128"/>
<text text-anchor="middle" x="717.955" y="-211.928" font-family="Times New Roman,serif" font-size="9.00">dintancia projetil 1</text>
</g>
<!-- esquerda -->
<g id="node21" class="node"><title>esquerda</title>
<ellipse fill="lightblue" stroke="black" cx="977.955" cy="-119.439" rx="33.8824" ry="33.8824"/>
<text text-anchor="middle" x="977.955" y="-117.239" font-family="Times New Roman,serif" font-size="9.00">esquerda</text>
</g>
<!-- dintancia projetil 1&#45;&gt;esquerda -->
<g id="edge4" class="edge"><title>dintancia projetil 1&#45;&gt;esquerda</title>
<path fill="none" stroke="green" stroke-width="0.888827" d="M734.278,-204.931C744.183,-200.108 757.15,-194.056 768.955,-189.38 825.682,-166.905 892.966,-145.643 935.561,-132.825"/>
<polygon fill="green" stroke="green" stroke-width="0.888827" points="936.733,-136.128 945.311,-129.909 934.727,-129.422 936.733,-136.128"/>
</g>
<!-- direita -->
<g id="node22" class="node"><title>direita</title>
<ellipse fill="lightblue" stroke="black" cx="525.955" cy="-119.439" rx="27.6545" ry="27.6545"/>
<text text-anchor="middle" x="525.955" y="-117.239" font-family="Times New Roman,serif" font-size="9.00">direita</text>
</g>
<!-- dintancia projetil 1&#45;&gt;direita -->
<g id="edge21" class="edge"><title>dintancia projetil 1&#45;&gt;direita</title>
<path fill="none" stroke="green" stroke-width="0.167591" stroke-dasharray="1,5" d="M701.252,-205.065C669.765,-189.864 601.079,-156.706 559.649,-136.705"/>
<polygon fill="green" stroke="green" stroke-width="0.167591" points="561.021,-133.481 550.494,-132.285 557.978,-139.785 561.021,-133.481"/>
</g>
<!-- pular -->
<g id="node23" class="node"><title>pular</title>
<ellipse fill="lightblue" stroke="black" cx="1319.95" cy="-119.439" rx="25" ry="25"/>
<text text-anchor="middle" x="1319.95" y="-117.239" font-family="Times New Roman,serif" font-size="9.00">pular</text>
</g>
<!-- dintancia projetil 1&#45;&gt;pular -->
<g id="edge48" class="edge"><title>dintancia projetil 1&#45;&gt;pular</title>
<path fill="none" stroke="red" stroke-width="0.311582" stroke-dasharray="1,5" d="M732.216,-205.018C742.194,-199.716 756.002,-193.106 768.955,-189.38 793.942,-182.191 1168.22,-138.147 1285.25,-124.48"/>
<polygon fill="red" stroke="red" stroke-width="0.311582" points="1285.91,-127.926 1295.44,-123.29 1285.1,-120.973 1285.91,-127.926"/>
</g>
<!-- atirar -->
<g id="node24" class="node"><title>atirar</title>
<ellipse fill="lightblue" stroke="black" cx="717.955" cy="-119.439" rx="25" ry="25"/>
<text text-anchor="middle" x="717.955" y="-117.239" font-family="Times New Roman,serif" font-size="9.00">atirar</text>
</g>
<!-- dintancia projetil 1&#45;&gt;atirar -->
<g id="edge62" class="edge"><title>dintancia projetil 1&#45;&gt;atirar</title>
<path fill="none" stroke="red" stroke-width="0.133843" d="M717.955,-204.903C717.955,-193.591 717.955,-172.558 717.955,-154.311"/>
<polygon fill="red" stroke="red" stroke-width="0.133843" points="721.455,-154.263 717.955,-144.263 714.455,-154.263 721.455,-154.263"/>
</g>
<!-- release -->
<g id="node25" class="node"><title>release</title>
<ellipse fill="lightblue" stroke="black" cx="1425.95" cy="-119.439" rx="28.9828" ry="28.9828"/>
<text text-anchor="middle" x="1425.95" y="-117.239" font-family="Times New Roman,serif" font-size="9.00">release</text>
</g>
<!-- dintancia projetil 1&#45;&gt;release -->
<g id="edge76" class="edge"><title>dintancia projetil 1&#45;&gt;release</title>
<path fill="none" stroke="red" stroke-width="0.487717" stroke-dasharray="1,5" d="M731.714,-204.984C741.688,-199.521 755.698,-192.732 768.955,-189.38 1029.24,-123.552 1115.76,-233.667 1371.95,-153.38 1379.69,-150.955 1387.46,-147.189 1394.59,-143.058"/>
<polygon fill="red" stroke="red" stroke-width="0.487717" points="1396.58,-145.942 1403.24,-137.702 1392.9,-139.991 1396.58,-145.942"/>
</g>
<!-- distancia projetil 2 -->
<g id="node2" class="node"><title>distancia projetil 2</title>
<polygon fill="lightgray" stroke="black" points="2114.45,-223.128 2031.45,-223.128 2031.45,-205.128 2114.45,-205.128 2114.45,-223.128"/>
<text text-anchor="middle" x="2072.95" y="-211.928" font-family="Times New Roman,serif" font-size="9.00">distancia projetil 2</text>
</g>
<!-- distancia projetil 2&#45;&gt;esquerda -->
<g id="edge19" class="edge"><title>distancia projetil 2&#45;&gt;esquerda</title>
<path fill="none" stroke="green" stroke-width="0.256413" d="M2059.5,-204.938C2049.73,-199.453 2036,-192.658 2022.95,-189.38 1863.92,-149.429 1449.43,-166.104 1285.95,-153.38 1191.63,-146.038 1081.48,-133.229 1021.81,-125.935"/>
<polygon fill="green" stroke="green" stroke-width="0.256413" points="1021.97,-122.429 1011.62,-124.683 1021.12,-129.377 1021.97,-122.429"/>
</g>
<!-- distancia projetil 2&#45;&gt;release -->
<g id="edge9" class="edge"><title>distancia projetil 2&#45;&gt;release</title>
<path fill="none" stroke="green" stroke-width="0.259916" d="M2059,-204.972C2049.24,-199.65 2035.7,-193.034 2022.95,-189.38 1818.98,-130.903 1562.31,-121.828 1465.41,-120.567"/>
<polygon fill="green" stroke="green" stroke-width="0.259916" points="1465.23,-117.065 1455.19,-120.456 1465.15,-124.065 1465.23,-117.065"/>
</g>
<!-- distancia projetil 3 -->
<g id="node3" class="node"><title>distancia projetil 3</title>
<polygon fill="lightgray" stroke="black" points="1609.45,-223.128 1526.45,-223.128 1526.45,-205.128 1609.45,-205.128 1609.45,-223.128"/>
<text text-anchor="middle" x="1567.95" y="-211.928" font-family="Times New Roman,serif" font-size="9.00">distancia projetil 3</text>
</g>
<!-- distancia projetil 3&#45;&gt;pular -->
<g id="edge36" class="edge"><title>distancia projetil 3&#45;&gt;pular</title>
<path fill="none" stroke="red" stroke-width="0.417159" d="M1550.51,-205.099C1539.57,-200.22 1525.09,-194.052 1511.95,-189.38 1457.89,-170.143 1441.52,-173.962 1387.95,-153.38 1375.52,-148.601 1362.25,-142.43 1350.76,-136.722"/>
<polygon fill="red" stroke="red" stroke-width="0.417159" points="1352.09,-133.473 1341.59,-132.078 1348.93,-139.718 1352.09,-133.473"/>
</g>
<!-- distancia projetil 3&#45;&gt;atirar -->
<g id="edge16" class="edge"><title>distancia projetil 3&#45;&gt;atirar</title>
<path fill="none" stroke="green" stroke-width="0.169918" d="M1542.92,-205.047C1525.24,-199.687 1500.89,-192.996 1478.95,-189.38 1239.88,-149.958 1175.84,-179.586 934.955,-153.38 870.037,-146.317 794.792,-133.949 752.137,-126.543"/>
<polygon fill="green" stroke="green" stroke-width="0.169918" points="752.728,-123.093 742.274,-124.818 751.522,-129.989 752.728,-123.093"/>
</g>
<!-- distancia projetil 3&#45;&gt;release -->
<g id="edge77" class="edge"><title>distancia projetil 3&#45;&gt;release</title>
<path fill="none" stroke="red" stroke-width="0.239205" d="M1555.35,-204.903C1533.85,-190.87 1489.43,-161.875 1458.68,-141.8"/>
<polygon fill="red" stroke="red" stroke-width="0.239205" points="1460.29,-138.674 1450.01,-136.139 1456.47,-144.536 1460.29,-138.674"/>
</g>
<!-- distancia projetil 4 -->
<g id="node4" class="node"><title>distancia projetil 4</title>
<polygon fill="lightgray" stroke="black" points="457.455,-292.877 374.455,-292.877 374.455,-274.877 457.455,-274.877 457.455,-292.877"/>
<text text-anchor="middle" x="415.955" y="-281.677" font-family="Times New Roman,serif" font-size="9.00">distancia projetil 4</text>
</g>
<!-- distancia projetil 4&#45;&gt;esquerda -->
<g id="edge54" class="edge"><title>distancia projetil 4&#45;&gt;esquerda</title>
<path fill="none" stroke="red" stroke-width="0.509703" stroke-dasharray="1,5" d="M457.691,-282.501C502.829,-280.302 575.37,-271.411 627.955,-238.877 651.772,-224.142 643.238,-204.276 666.955,-189.38 711.236,-161.568 859.799,-137.226 934.417,-126.403"/>
<polygon fill="red" stroke="red" stroke-width="0.509703" points="935.034,-129.851 944.437,-124.967 934.041,-122.922 935.034,-129.851"/>
</g>
<!-- distancia projetil 4&#45;&gt;direita -->
<g id="edge72" class="edge"><title>distancia projetil 4&#45;&gt;direita</title>
<path fill="none" stroke="green" stroke-width="0.370183" stroke-dasharray="1,5" d="M374.147,-281.436C275.544,-277.607 34.9255,-265.593 10.9547,-238.877 -3.73683,-222.503 -3.53219,-205.935 10.9547,-189.38 42.426,-153.415 374.69,-129.752 488.196,-122.668"/>
<polygon fill="green" stroke="green" stroke-width="0.370183" points="488.714,-126.143 498.48,-122.035 488.283,-119.156 488.714,-126.143"/>
</g>
<!-- distancia projetil 4&#45;&gt;pular -->
<g id="edge61" class="edge"><title>distancia projetil 4&#45;&gt;pular</title>
<path fill="none" stroke="green" stroke-width="0.125458" d="M457.68,-282.746C649.984,-281.938 1443.01,-276.342 1478.95,-238.877 1494.19,-223.003 1491.32,-207.573 1478.95,-189.38 1454.5,-153.41 1427.78,-170.873 1387.95,-153.38 1375.76,-148.021 1362.53,-141.73 1351.02,-136.089"/>
<polygon fill="green" stroke="green" stroke-width="0.125458" points="1352.33,-132.83 1341.81,-131.539 1349.23,-139.106 1352.33,-132.83"/>
</g>
<!-- distancia projetil 4&#45;&gt;atirar -->
<g id="edge29" class="edge"><title>distancia projetil 4&#45;&gt;atirar</title>
<path fill="none" stroke="red" stroke-width="0.997759" d="M374.453,-282.252C307.211,-280.264 179.113,-272.096 150.955,-238.877 136.73,-222.096 136.062,-205.571 150.955,-189.38 183.412,-154.092 533.62,-161.006 580.955,-153.38 616.718,-147.618 656.947,-137.499 684.509,-129.993"/>
<polygon fill="red" stroke="red" stroke-width="0.997759" points="685.709,-133.293 694.417,-127.258 683.846,-126.545 685.709,-133.293"/>
</g>
<!-- distancia projetil 4&#45;&gt;release -->
<g id="edge60" class="edge"><title>distancia projetil 4&#45;&gt;release</title>
<path fill="none" stroke="green" stroke-width="0.338431" stroke-dasharray="1,5" d="M457.488,-282.658C724.204,-281.155 2186.18,-271.44 2217.95,-238.877 2233.32,-223.133 2232.82,-205.596 2217.95,-189.38 2166.66,-133.431 1618.76,-122.73 1465.55,-120.826"/>
<polygon fill="green" stroke="green" stroke-width="0.338431" points="1465.26,-117.323 1455.22,-120.704 1465.18,-124.322 1465.26,-117.323"/>
</g>
<!-- 1622 -->
<g id="node27" class="node"><title>1622</title>
<ellipse fill="white" stroke="black" cx="184.955" cy="-214.128" rx="25" ry="25"/>
<text text-anchor="middle" x="184.955" y="-211.928" font-family="Times New Roman,serif" font-size="9.00">1622</text>
</g>
<!-- distancia projetil 4&#45;&gt;1622 -->
<g id="edge56" class="edge"><title>distancia projetil 4&#45;&gt;1622</title>
<path fill="none" stroke="green" stroke-width="0.220785" d="M374.224,-278.574C333.055,-273.199 269.05,-261.771 217.955,-238.877 216.119,-238.055 214.283,-237.121 212.469,-236.111"/>
<polygon fill="green" stroke="green" stroke-width="0.220785" points="214.023,-232.953 203.695,-230.587 210.293,-238.877 214.023,-232.953"/>
</g>
<!-- distancia projetil 5 -->
<g id="node5" class="node"><title>distancia projetil 5</title>
<polygon fill="lightgray" stroke="black" points="619.455,-223.128 536.455,-223.128 536.455,-205.128 619.455,-205.128 619.455,-223.128"/>
<text text-anchor="middle" x="577.955" y="-211.928" font-family="Times New Roman,serif" font-size="9.00">distancia projetil 5</text>
</g>
<!-- distancia projetil 5&#45;&gt;esquerda -->
<g id="edge41" class="edge"><title>distancia projetil 5&#45;&gt;esquerda</title>
<path fill="none" stroke="green" stroke-width="0.332677" stroke-dasharray="1,5" d="M594.775,-204.933C605.724,-199.865 620.434,-193.554 633.955,-189.38 739.471,-156.804 868.068,-135.791 934.131,-126.302"/>
<polygon fill="green" stroke="green" stroke-width="0.332677" points="934.774,-129.746 944.184,-124.878 933.792,-122.815 934.774,-129.746"/>
</g>
<!-- distancia projetil 5&#45;&gt;direita -->
<g id="edge22" class="edge"><title>distancia projetil 5&#45;&gt;direita</title>
<path fill="none" stroke="red" stroke-width="0.135468" d="M573.34,-204.903C566.804,-193.252 554.481,-171.288 544.041,-152.678"/>
<polygon fill="red" stroke="red" stroke-width="0.135468" points="547.046,-150.88 539.101,-143.871 540.941,-154.305 547.046,-150.88"/>
</g>
<!-- distancia projetil 5&#45;&gt;atirar -->
<g id="edge58" class="edge"><title>distancia projetil 5&#45;&gt;atirar</title>
<path fill="none" stroke="red" stroke-width="0.473061" stroke-dasharray="1,5" d="M590.379,-204.903C612.427,-190.305 658.929,-159.518 689.281,-139.422"/>
<polygon fill="red" stroke="red" stroke-width="0.473061" points="691.353,-142.249 697.759,-133.81 687.488,-136.412 691.353,-142.249"/>
</g>
<!-- distancia projetil 5&#45;&gt;release -->
<g id="edge33" class="edge"><title>distancia projetil 5&#45;&gt;release</title>
<path fill="none" stroke="red" stroke-width="0.545821" stroke-dasharray="1,5" d="M602.592,-205.06C620.293,-199.633 644.837,-192.856 666.955,-189.38 821.923,-165.024 1222.06,-199.646 1371.95,-153.38 1379.7,-150.989 1387.47,-147.237 1394.61,-143.108"/>
<polygon fill="red" stroke="red" stroke-width="0.545821" points="1396.6,-145.992 1403.26,-137.751 1392.91,-140.041 1396.6,-145.992"/>
</g>
<!-- distancia projetil 6 -->
<g id="node6" class="node"><title>distancia projetil 6</title>
<polygon fill="lightgray" stroke="black" points="1805.45,-223.128 1722.45,-223.128 1722.45,-205.128 1805.45,-205.128 1805.45,-223.128"/>
<text text-anchor="middle" x="1763.95" y="-211.928" font-family="Times New Roman,serif" font-size="9.00">distancia projetil 6</text>
</g>
<!-- distancia projetil 6&#45;&gt;esquerda -->
<g id="edge74" class="edge"><title>distancia projetil 6&#45;&gt;esquerda</title>
<path fill="none" stroke="red" stroke-width="0.300061" d="M1750.17,-205.084C1740.18,-199.668 1726.17,-192.894 1712.95,-189.38 1528.9,-140.427 1475.54,-171.508 1285.95,-153.38 1191.77,-144.374 1081.57,-132.188 1021.85,-125.447"/>
<polygon fill="red" stroke="red" stroke-width="0.300061" points="1021.99,-121.94 1011.66,-124.293 1021.2,-128.895 1021.99,-121.94"/>
</g>
<!-- distancia projetil 6&#45;&gt;pular -->
<g id="edge65" class="edge"><title>distancia projetil 6&#45;&gt;pular</title>
<path fill="none" stroke="green" stroke-width="0.394323" d="M1749.71,-204.96C1739.74,-199.632 1725.93,-193.015 1712.95,-189.38 1573.01,-150.188 1527.59,-193.642 1387.95,-153.38 1375.05,-149.66 1361.6,-143.65 1350.1,-137.775"/>
<polygon fill="green" stroke="green" stroke-width="0.394323" points="1351.42,-134.517 1340.95,-132.925 1348.15,-140.701 1351.42,-134.517"/>
</g>
<!-- distancia projetil 6&#45;&gt;release -->
<g id="edge34" class="edge"><title>distancia projetil 6&#45;&gt;release</title>
<path fill="none" stroke="red" stroke-width="0.191667" d="M1748.67,-205.027C1738.71,-199.997 1725.31,-193.692 1712.95,-189.38 1626.37,-159.162 1520.58,-137.501 1464.76,-127.201"/>
<polygon fill="red" stroke="red" stroke-width="0.191667" points="1465.07,-123.7 1454.6,-125.352 1463.81,-130.587 1465.07,-123.7"/>
</g>
<!-- distancia projetil 7 -->
<g id="node7" class="node"><title>distancia projetil 7</title>
<polygon fill="lightgray" stroke="black" points="411.455,-223.128 328.455,-223.128 328.455,-205.128 411.455,-205.128 411.455,-223.128"/>
<text text-anchor="middle" x="369.955" y="-211.928" font-family="Times New Roman,serif" font-size="9.00">distancia projetil 7</text>
</g>
<!-- distancia projetil 7&#45;&gt;esquerda -->
<g id="edge14" class="edge"><title>distancia projetil 7&#45;&gt;esquerda</title>
<path fill="none" stroke="green" stroke-width="0.463661" stroke-dasharray="1,5" d="M384.191,-204.928C394.157,-199.587 407.962,-192.966 420.955,-189.38 571.269,-147.893 615.335,-173.583 769.955,-153.38 827.058,-145.918 892.635,-135.168 934.641,-128.001"/>
<polygon fill="green" stroke="green" stroke-width="0.463661" points="935.268,-131.444 944.532,-126.305 934.085,-124.545 935.268,-131.444"/>
</g>
<!-- distancia projetil 7&#45;&gt;direita -->
<g id="edge69" class="edge"><title>distancia projetil 7&#45;&gt;direita</title>
<path fill="none" stroke="red" stroke-width="0.292577" stroke-dasharray="1,5" d="M383.526,-205.065C407.955,-190.55 459.943,-159.66 493.893,-139.489"/>
<polygon fill="red" stroke="red" stroke-width="0.292577" points="495.72,-142.474 502.529,-134.357 492.145,-136.456 495.72,-142.474"/>
</g>
<!-- distancia projetil 7&#45;&gt;pular -->
<g id="edge55" class="edge"><title>distancia projetil 7&#45;&gt;pular</title>
<path fill="none" stroke="red" stroke-width="0.353063" d="M383.712,-204.978C393.686,-199.512 407.696,-192.723 420.955,-189.38 687.737,-122.113 764.874,-177.407 1038.95,-153.38 1127.99,-145.574 1232.42,-132.222 1285.38,-125.152"/>
<polygon fill="red" stroke="red" stroke-width="0.353063" points="1286.13,-128.583 1295.57,-123.784 1285.2,-121.646 1286.13,-128.583"/>
</g>
<!-- distancia projetil 7&#45;&gt;atirar -->
<g id="edge37" class="edge"><title>distancia projetil 7&#45;&gt;atirar</title>
<path fill="none" stroke="green" stroke-width="0.155159" stroke-dasharray="1,5" d="M385.223,-204.966C395.174,-199.912 408.567,-193.603 420.955,-189.38 489.945,-165.86 509.963,-169.9 580.955,-153.38 616.025,-145.218 656.059,-135.552 683.753,-128.809"/>
<polygon fill="green" stroke="green" stroke-width="0.155159" points="684.841,-132.147 693.728,-126.377 683.183,-125.346 684.841,-132.147"/>
</g>
<!-- distancia projetil 8 -->
<g id="node8" class="node"><title>distancia projetil 8</title>
<polygon fill="lightgray" stroke="black" points="103.455,-223.128 20.4547,-223.128 20.4547,-205.128 103.455,-205.128 103.455,-223.128"/>
<text text-anchor="middle" x="61.9547" y="-211.928" font-family="Times New Roman,serif" font-size="9.00">distancia projetil 8</text>
</g>
<!-- distancia projetil 8&#45;&gt;esquerda -->
<g id="edge78" class="edge"><title>distancia projetil 8&#45;&gt;esquerda</title>
<path fill="none" stroke="red" stroke-width="0.344624" d="M86.5993,-205.108C104.305,-199.703 128.85,-192.934 150.955,-189.38 423.036,-145.631 495.972,-182.969 769.955,-153.38 827.21,-147.196 892.752,-136.151 934.708,-128.568"/>
<polygon fill="red" stroke="red" stroke-width="0.344624" points="935.377,-132.004 944.588,-126.768 934.122,-125.117 935.377,-132.004"/>
</g>
<!-- distancia projetil 8&#45;&gt;direita -->
<g id="edge13" class="edge"><title>distancia projetil 8&#45;&gt;direita</title>
<path fill="none" stroke="green" stroke-width="0.209866" d="M78.2458,-205.021C89.2258,-199.858 104.169,-193.407 117.955,-189.38 251.043,-150.497 415.367,-131.057 488.176,-123.844"/>
<polygon fill="green" stroke="green" stroke-width="0.209866" points="488.625,-127.317 498.24,-122.868 487.949,-120.35 488.625,-127.317"/>
</g>
<!-- distancia projetil 8&#45;&gt;atirar -->
<g id="edge51" class="edge"><title>distancia projetil 8&#45;&gt;atirar</title>
<path fill="none" stroke="red" stroke-width="0.417646" d="M77.1816,-205.078C88.1901,-199.659 103.592,-192.885 117.955,-189.38 318.47,-140.449 377.087,-185.607 580.955,-153.38 616.735,-147.724 656.962,-137.589 684.518,-130.049"/>
<polygon fill="red" stroke="red" stroke-width="0.417646" points="685.723,-133.347 694.424,-127.302 683.852,-126.602 685.723,-133.347"/>
</g>
<!-- distancia projetil 9 -->
<g id="node9" class="node"><title>distancia projetil 9</title>
<polygon fill="lightgray" stroke="black" points="310.455,-223.128 227.455,-223.128 227.455,-205.128 310.455,-205.128 310.455,-223.128"/>
<text text-anchor="middle" x="268.955" y="-211.928" font-family="Times New Roman,serif" font-size="9.00">distancia projetil 9</text>
</g>
<!-- distancia projetil 9&#45;&gt;esquerda -->
<g id="edge53" class="edge"><title>distancia projetil 9&#45;&gt;esquerda</title>
<path fill="none" stroke="red" stroke-width="0.806476" d="M282.444,-205.062C292.223,-199.635 305.958,-192.859 318.955,-189.38 513.198,-137.386 570.28,-177.124 769.955,-153.38 827.14,-146.579 892.699,-135.677 934.677,-128.294"/>
<polygon fill="red" stroke="red" stroke-width="0.806476" points="935.326,-131.734 944.562,-126.544 934.105,-124.841 935.326,-131.734"/>
</g>
<!-- distancia projetil 9&#45;&gt;direita -->
<g id="edge35" class="edge"><title>distancia projetil 9&#45;&gt;direita</title>
<path fill="none" stroke="green" stroke-width="0.197674" d="M284.946,-204.921C294.652,-200.093 307.364,-194.042 318.955,-189.38 377.716,-165.742 448.028,-143.57 489.732,-131.035"/>
<polygon fill="green" stroke="green" stroke-width="0.197674" points="490.862,-134.35 499.442,-128.135 488.859,-127.643 490.862,-134.35"/>
</g>
<!-- distancia projetil 9&#45;&gt;pular -->
<g id="edge10" class="edge"><title>distancia projetil 9&#45;&gt;pular</title>
<path fill="none" stroke="red" stroke-width="0.148026" d="M282.413,-204.943C292.178,-199.46 305.908,-192.665 318.955,-189.38 474.305,-150.259 879.311,-166.713 1038.95,-153.38 1128.02,-145.941 1232.44,-132.434 1285.39,-125.244"/>
<polygon fill="red" stroke="red" stroke-width="0.148026" points="1286.14,-128.673 1295.58,-123.852 1285.2,-121.738 1286.14,-128.673"/>
</g>
<!-- distancia projetil 9&#45;&gt;atirar -->
<g id="edge70" class="edge"><title>distancia projetil 9&#45;&gt;atirar</title>
<path fill="none" stroke="red" stroke-width="0.196562" d="M282.931,-205.06C292.71,-199.777 306.247,-193.172 318.955,-189.38 431.586,-155.771 465.449,-175.146 580.955,-153.38 616.34,-146.712 656.326,-136.821 683.924,-129.618"/>
<polygon fill="red" stroke="red" stroke-width="0.196562" points="685.08,-132.933 693.859,-127.002 683.297,-126.164 685.08,-132.933"/>
</g>
<!-- distancia projetil 10 -->
<g id="node10" class="node"><title>distancia projetil 10</title>
<polygon fill="lightgray" stroke="black" points="1073.95,-223.128 985.955,-223.128 985.955,-205.128 1073.95,-205.128 1073.95,-223.128"/>
<text text-anchor="middle" x="1029.95" y="-211.928" font-family="Times New Roman,serif" font-size="9.00">distancia projetil 10</text>
</g>
<!-- distancia projetil 10&#45;&gt;esquerda -->
<g id="edge38" class="edge"><title>distancia projetil 10&#45;&gt;esquerda</title>
<path fill="none" stroke="red" stroke-width="0.27444" d="M1025.34,-204.903C1019.46,-194.414 1008.88,-175.567 999.214,-158.334"/>
<polygon fill="red" stroke="red" stroke-width="0.27444" points="1002.22,-156.531 994.271,-149.522 996.111,-159.956 1002.22,-156.531"/>
</g>
<!-- distancia projetil 10&#45;&gt;atirar -->
<g id="edge20" class="edge"><title>distancia projetil 10&#45;&gt;atirar</title>
<path fill="none" stroke="green" stroke-width="0.263535" d="M1013.2,-204.963C1002.67,-200.033 988.71,-193.859 975.955,-189.38 897.339,-161.772 801.952,-138.95 752.086,-127.801"/>
<polygon fill="green" stroke="green" stroke-width="0.263535" points="752.679,-124.347 742.159,-125.601 751.165,-131.181 752.679,-124.347"/>
</g>
<!-- distancia projetil 10&#45;&gt;release -->
<g id="edge30" class="edge"><title>distancia projetil 10&#45;&gt;release</title>
<path fill="none" stroke="green" stroke-width="0.139392" d="M1044.81,-205.031C1055.2,-199.734 1069.55,-193.126 1082.95,-189.38 1207.61,-154.531 1249.75,-196.038 1371.95,-153.38 1379.61,-150.708 1387.34,-146.837 1394.47,-142.682"/>
<polygon fill="green" stroke="green" stroke-width="0.139392" points="1396.45,-145.569 1403.12,-137.334 1392.77,-139.614 1396.45,-145.569"/>
</g>
<!-- distancia projetil 11 -->
<g id="node11" class="node"><title>distancia projetil 11</title>
<polygon fill="lightgray" stroke="black" points="865.955,-223.128 777.955,-223.128 777.955,-205.128 865.955,-205.128 865.955,-223.128"/>
<text text-anchor="middle" x="821.955" y="-211.928" font-family="Times New Roman,serif" font-size="9.00">distancia projetil 11</text>
</g>
<!-- distancia projetil 11&#45;&gt;esquerda -->
<g id="edge24" class="edge"><title>distancia projetil 11&#45;&gt;esquerda</title>
<path fill="none" stroke="green" stroke-width="0.849881" d="M835.526,-205.065C858.662,-191.318 906.517,-162.884 940.358,-142.778"/>
<polygon fill="green" stroke="green" stroke-width="0.849881" points="942.257,-145.72 949.066,-137.603 938.681,-139.702 942.257,-145.72"/>
</g>
<!-- distancia projetil 11&#45;&gt;direita -->
<g id="edge6" class="edge"><title>distancia projetil 11&#45;&gt;direita</title>
<path fill="none" stroke="green" stroke-width="0.463631" stroke-dasharray="1,5" d="M805.5,-205.013C795.163,-200.101 781.462,-193.929 768.955,-189.38 697.158,-163.265 610.542,-140.766 562.527,-129.055"/>
<polygon fill="green" stroke="green" stroke-width="0.463631" points="563.145,-125.604 552.603,-126.655 561.499,-132.408 563.145,-125.604"/>
</g>
<!-- distancia projetil 11&#45;&gt;pular -->
<g id="edge66" class="edge"><title>distancia projetil 11&#45;&gt;pular</title>
<path fill="none" stroke="red" stroke-width="0.324087" d="M837.305,-204.929C847.669,-199.727 861.805,-193.268 874.955,-189.38 952.388,-166.485 1194.6,-135.65 1285.25,-124.596"/>
<polygon fill="red" stroke="red" stroke-width="0.324087" points="1285.78,-128.057 1295.29,-123.378 1284.94,-121.108 1285.78,-128.057"/>
</g>
<!-- distancia projetil 11&#45;&gt;atirar -->
<g id="edge57" class="edge"><title>distancia projetil 11&#45;&gt;atirar</title>
<path fill="none" stroke="green" stroke-width="0.799628" stroke-dasharray="1,5" d="M812.725,-204.903C797.339,-191.19 765.923,-163.19 743.48,-143.188"/>
<polygon fill="green" stroke="green" stroke-width="0.799628" points="745.751,-140.524 735.957,-136.483 741.094,-145.749 745.751,-140.524"/>
</g>
<!-- distancia projetil 11&#45;&gt;release -->
<g id="edge31" class="edge"><title>distancia projetil 11&#45;&gt;release</title>
<path fill="none" stroke="green" stroke-width="0.186815" d="M836.307,-205.043C846.699,-199.607 861.266,-192.828 874.955,-189.38 1089.71,-135.278 1161.05,-220.947 1371.95,-153.38 1379.68,-150.906 1387.43,-147.12 1394.57,-142.983"/>
<polygon fill="green" stroke="green" stroke-width="0.186815" points="1396.56,-145.868 1403.22,-137.629 1392.87,-139.916 1396.56,-145.868"/>
</g>
<!-- distancia projetil 12 -->
<g id="node12" class="node"><title>distancia projetil 12</title>
<polygon fill="lightgray" stroke="black" points="1911.95,-223.128 1823.95,-223.128 1823.95,-205.128 1911.95,-205.128 1911.95,-223.128"/>
<text text-anchor="middle" x="1867.95" y="-211.928" font-family="Times New Roman,serif" font-size="9.00">distancia projetil 12</text>
</g>
<!-- distancia projetil 12&#45;&gt;esquerda -->
<g id="edge11" class="edge"><title>distancia projetil 12&#45;&gt;esquerda</title>
<path fill="none" stroke="green" stroke-width="0.12717" d="M1853.61,-205.025C1843.22,-199.58 1828.65,-192.798 1814.95,-189.38 1586.31,-132.31 1520.71,-173.914 1285.95,-153.38 1191.7,-145.135 1081.53,-132.664 1021.83,-125.67"/>
<polygon fill="green" stroke="green" stroke-width="0.12717" points="1021.98,-122.164 1011.64,-124.472 1021.16,-129.116 1021.98,-122.164"/>
</g>
<!-- distancia projetil 12&#45;&gt;pular -->
<g id="edge46" class="edge"><title>distancia projetil 12&#45;&gt;pular</title>
<path fill="none" stroke="red" stroke-width="0.17241" d="M1853.59,-205.093C1843.19,-199.681 1828.62,-192.909 1814.95,-189.38 1630.55,-141.766 1571.63,-203.74 1387.95,-153.38 1375.01,-149.83 1361.54,-143.853 1350.05,-137.958"/>
<polygon fill="red" stroke="red" stroke-width="0.17241" points="1351.38,-134.7 1340.91,-133.08 1348.08,-140.876 1351.38,-134.7"/>
</g>
<!-- distancia projetil 12&#45;&gt;release -->
<g id="edge18" class="edge"><title>distancia projetil 12&#45;&gt;release</title>
<path fill="none" stroke="green" stroke-width="0.477036" d="M1852.58,-205.023C1842.2,-199.861 1828.06,-193.41 1814.95,-189.38 1690.24,-151.029 1536.07,-131.606 1465.09,-124.157"/>
<polygon fill="green" stroke="green" stroke-width="0.477036" points="1465.14,-120.644 1454.83,-123.104 1464.42,-127.607 1465.14,-120.644"/>
</g>
<!-- distancia projetil 13 -->
<g id="node13" class="node"><title>distancia projetil 13</title>
<polygon fill="lightgray" stroke="black" points="1469.95,-223.128 1381.95,-223.128 1381.95,-205.128 1469.95,-205.128 1469.95,-223.128"/>
<text text-anchor="middle" x="1425.95" y="-211.928" font-family="Times New Roman,serif" font-size="9.00">distancia projetil 13</text>
</g>
<!-- distancia projetil 13&#45;&gt;esquerda -->
<g id="edge75" class="edge"><title>distancia projetil 13&#45;&gt;esquerda</title>
<path fill="none" stroke="red" stroke-width="0.185082" stroke-dasharray="1,5" d="M1410.58,-205.011C1400.21,-199.845 1386.07,-193.393 1372.95,-189.38 1248.92,-151.415 1096.18,-132.192 1022.23,-124.542"/>
<polygon fill="red" stroke="red" stroke-width="0.185082" points="1022.21,-121.021 1011.91,-123.496 1021.5,-127.986 1022.21,-121.021"/>
</g>
<!-- distancia projetil 13&#45;&gt;pular -->
<g id="edge44" class="edge"><title>distancia projetil 13&#45;&gt;pular</title>
<path fill="none" stroke="green" stroke-width="0.229059" d="M1416.55,-204.903C1400.87,-191.19 1368.85,-163.19 1345.97,-143.188"/>
<polygon fill="green" stroke="green" stroke-width="0.229059" points="1348.13,-140.431 1338.3,-136.483 1343.53,-145.701 1348.13,-140.431"/>
</g>
<!-- distancia projetil 13&#45;&gt;atirar -->
<g id="edge15" class="edge"><title>distancia projetil 13&#45;&gt;atirar</title>
<path fill="none" stroke="green" stroke-width="0.134776" stroke-dasharray="1,5" d="M1411.59,-205.084C1401.2,-199.668 1386.63,-192.894 1372.95,-189.38 1183.78,-140.747 1128.96,-176.05 934.955,-153.38 870.095,-145.8 794.83,-133.607 752.156,-126.373"/>
<polygon fill="green" stroke="green" stroke-width="0.134776" points="752.735,-122.922 742.289,-124.691 751.558,-129.822 752.735,-122.922"/>
</g>
<!-- distancia projetil 13&#45;&gt;release -->
<g id="edge73" class="edge"><title>distancia projetil 13&#45;&gt;release</title>
<path fill="none" stroke="red" stroke-width="0.348958" d="M1425.95,-204.903C1425.95,-194.556 1425.95,-176.076 1425.95,-159.034"/>
<polygon fill="red" stroke="red" stroke-width="0.348958" points="1429.45,-158.695 1425.95,-148.695 1422.45,-158.695 1429.45,-158.695"/>
</g>
<!-- distancia projetil 14 -->
<g id="node14" class="node"><title>distancia projetil 14</title>
<polygon fill="lightgray" stroke="black" points="517.955,-223.128 429.955,-223.128 429.955,-205.128 517.955,-205.128 517.955,-223.128"/>
<text text-anchor="middle" x="473.955" y="-211.928" font-family="Times New Roman,serif" font-size="9.00">distancia projetil 14</text>
</g>
<!-- distancia projetil 14&#45;&gt;esquerda -->
<g id="edge59" class="edge"><title>distancia projetil 14&#45;&gt;esquerda</title>
<path fill="none" stroke="red" stroke-width="0.626419" stroke-dasharray="1,5" d="M489.297,-204.9C499.657,-199.687 513.792,-193.224 526.955,-189.38 631.755,-158.77 662.036,-169.919 769.955,-153.38 826.879,-144.656 892.497,-134.197 934.561,-127.44"/>
<polygon fill="red" stroke="red" stroke-width="0.626419" points="935.15,-130.891 944.468,-125.847 934.039,-123.979 935.15,-130.891"/>
</g>
<!-- distancia projetil 14&#45;&gt;direita -->
<g id="edge80" class="edge"><title>distancia projetil 14&#45;&gt;direita</title>
<path fill="none" stroke="green" stroke-width="0.246258" stroke-dasharray="1,5" d="M478.569,-204.903C485.106,-193.252 497.428,-171.288 507.868,-152.678"/>
<polygon fill="green" stroke="green" stroke-width="0.246258" points="510.968,-154.305 512.809,-143.871 504.863,-150.88 510.968,-154.305"/>
</g>
<!-- distancia projetil 14&#45;&gt;atirar -->
<g id="edge43" class="edge"><title>distancia projetil 14&#45;&gt;atirar</title>
<path fill="none" stroke="red" stroke-width="0.131329" d="M491.001,-205.1C501.323,-200.336 514.801,-194.288 526.955,-189.38 581.718,-167.263 646.602,-144.569 684.908,-131.525"/>
<polygon fill="red" stroke="red" stroke-width="0.131329" points="686.169,-134.793 694.515,-128.266 683.92,-128.164 686.169,-134.793"/>
</g>
<!-- distancia projetil 14&#45;&gt;release -->
<g id="edge67" class="edge"><title>distancia projetil 14&#45;&gt;release</title>
<path fill="none" stroke="green" stroke-width="1.11839" d="M488.277,-204.918C498.654,-199.423 513.217,-192.624 526.955,-189.38 709.871,-146.18 1192.13,-208.054 1371.95,-153.38 1379.71,-151.021 1387.49,-147.283 1394.62,-143.158"/>
<polygon fill="green" stroke="green" stroke-width="1.11839" points="1396.61,-146.042 1403.27,-137.8 1392.93,-140.091 1396.61,-146.042"/>
</g>
<!-- distancia projetil 15 -->
<g id="node15" class="node"><title>distancia projetil 15</title>
<polygon fill="lightgray" stroke="black" points="1257.95,-223.128 1169.95,-223.128 1169.95,-205.128 1257.95,-205.128 1257.95,-223.128"/>
<text text-anchor="middle" x="1213.95" y="-211.928" font-family="Times New Roman,serif" font-size="9.00">distancia projetil 15</text>
</g>
<!-- distancia projetil 15&#45;&gt;esquerda -->
<g id="edge47" class="edge"><title>distancia projetil 15&#45;&gt;esquerda</title>
<path fill="none" stroke="green" stroke-width="0.158298" d="M1196.4,-204.941C1186.14,-200.233 1172.89,-194.296 1160.95,-189.38 1112.83,-169.555 1056.72,-148.751 1019.44,-135.25"/>
<polygon fill="green" stroke="green" stroke-width="0.158298" points="1020.52,-131.916 1009.92,-131.812 1018.14,-138.5 1020.52,-131.916"/>
</g>
<!-- distancia projetil 15&#45;&gt;direita -->
<g id="edge28" class="edge"><title>distancia projetil 15&#45;&gt;direita</title>
<path fill="none" stroke="red" stroke-width="0.228881" d="M1199.6,-205.056C1189.21,-199.626 1174.64,-192.849 1160.95,-189.38 954.872,-137.132 894.465,-183.139 683.955,-153.38 641.896,-147.434 594.244,-136.979 562.372,-129.44"/>
<polygon fill="red" stroke="red" stroke-width="0.228881" points="563.146,-126.026 552.606,-127.104 561.517,-132.834 563.146,-126.026"/>
</g>
<!-- distancia projetil 15&#45;&gt;pular -->
<g id="edge12" class="edge"><title>distancia projetil 15&#45;&gt;pular</title>
<path fill="none" stroke="green" stroke-width="0.221937" d="M1223.36,-204.903C1239.04,-191.19 1271.06,-163.19 1293.94,-143.188"/>
<polygon fill="green" stroke="green" stroke-width="0.221937" points="1296.38,-145.701 1301.61,-136.483 1291.77,-140.431 1296.38,-145.701"/>
</g>
<!-- distancia projetil 15&#45;&gt;release -->
<g id="edge39" class="edge"><title>distancia projetil 15&#45;&gt;release</title>
<path fill="none" stroke="red" stroke-width="0.417654" d="M1230.97,-205.028C1241.28,-200.239 1254.76,-194.19 1266.95,-189.38 1312.85,-171.274 1327.3,-174.349 1371.95,-153.38 1379.22,-149.966 1386.75,-145.815 1393.78,-141.626"/>
<polygon fill="red" stroke="red" stroke-width="0.417654" points="1395.69,-144.564 1402.38,-136.353 1392.03,-138.597 1395.69,-144.564"/>
</g>
<!-- distancia projetil 16 -->
<g id="node16" class="node"><title>distancia projetil 16</title>
<polygon fill="lightgray" stroke="black" points="1363.95,-223.128 1275.95,-223.128 1275.95,-205.128 1363.95,-205.128 1363.95,-223.128"/>
<text text-anchor="middle" x="1319.95" y="-211.928" font-family="Times New Roman,serif" font-size="9.00">distancia projetil 16</text>
</g>
<!-- distancia projetil 16&#45;&gt;esquerda -->
<g id="edge32" class="edge"><title>distancia projetil 16&#45;&gt;esquerda</title>
<path fill="none" stroke="red" stroke-width="0.24339" d="M1304.03,-205.052C1293.67,-200.032 1279.75,-193.729 1266.95,-189.38 1181.9,-160.463 1078.82,-138.984 1021.6,-128.205"/>
<polygon fill="red" stroke="red" stroke-width="0.24339" points="1021.94,-124.708 1011.47,-126.318 1020.66,-131.59 1021.94,-124.708"/>
</g>
<!-- distancia projetil 16&#45;&gt;pular -->
<g id="edge26" class="edge"><title>distancia projetil 16&#45;&gt;pular</title>
<path fill="none" stroke="green" stroke-width="0.173841" d="M1319.95,-204.903C1319.95,-193.591 1319.95,-172.558 1319.95,-154.311"/>
<polygon fill="green" stroke="green" stroke-width="0.173841" points="1323.45,-154.263 1319.95,-144.263 1316.45,-154.263 1323.45,-154.263"/>
</g>
<!-- distancia projetil 16&#45;&gt;atirar -->
<g id="edge7" class="edge"><title>distancia projetil 16&#45;&gt;atirar</title>
<path fill="none" stroke="green" stroke-width="0.23673" d="M1305.11,-204.963C1294.74,-199.636 1280.38,-193.019 1266.95,-189.38 1123.7,-150.559 1082.14,-172.522 934.955,-153.38 870.199,-144.958 794.899,-133.05 752.19,-126.097"/>
<polygon fill="green" stroke="green" stroke-width="0.23673" points="752.748,-122.642 742.314,-124.483 751.619,-129.55 752.748,-122.642"/>
</g>
<!-- distancia projetil 16&#45;&gt;release -->
<g id="edge25" class="edge"><title>distancia projetil 16&#45;&gt;release</title>
<path fill="none" stroke="red" stroke-width="0.100127" stroke-dasharray="1,5" d="M1329.36,-204.903C1344.32,-191.824 1374.14,-165.749 1396.71,-146.012"/>
<polygon fill="red" stroke="red" stroke-width="0.100127" points="1399.13,-148.544 1404.35,-139.327 1394.52,-143.275 1399.13,-148.544"/>
</g>
<!-- distancia inimigo 1 -->
<g id="node17" class="node"><title>distancia inimigo 1</title>
<polygon fill="lightgray" stroke="black" points="967.455,-223.128 884.455,-223.128 884.455,-205.128 967.455,-205.128 967.455,-223.128"/>
<text text-anchor="middle" x="925.955" y="-211.928" font-family="Times New Roman,serif" font-size="9.00">distancia inimigo 1</text>
</g>
<!-- distancia inimigo 1&#45;&gt;esquerda -->
<g id="edge8" class="edge"><title>distancia inimigo 1&#45;&gt;esquerda</title>
<path fill="none" stroke="green" stroke-width="0.41187" d="M930.569,-204.903C936.454,-194.414 947.027,-175.567 956.695,-158.334"/>
<polygon fill="green" stroke="green" stroke-width="0.41187" points="959.798,-159.956 961.639,-149.522 953.693,-156.531 959.798,-159.956"/>
</g>
<!-- distancia inimigo 1&#45;&gt;direita -->
<g id="edge68" class="edge"><title>distancia inimigo 1&#45;&gt;direita</title>
<path fill="none" stroke="green" stroke-width="0.264032" d="M911.178,-205.046C901.204,-199.894 887.6,-193.445 874.955,-189.38 792.716,-162.941 768.686,-170.196 683.955,-153.38 642.29,-145.111 594.566,-135.084 562.569,-128.281"/>
<polygon fill="green" stroke="green" stroke-width="0.264032" points="563.27,-124.852 552.761,-126.191 561.812,-131.698 563.27,-124.852"/>
</g>
<!-- distancia inimigo 1&#45;&gt;pular -->
<g id="edge45" class="edge"><title>distancia inimigo 1&#45;&gt;pular</title>
<path fill="none" stroke="red" stroke-width="0.221168" d="M940.748,-205.096C950.729,-199.965 964.334,-193.521 976.955,-189.38 1086.61,-153.396 1222.44,-132.849 1285.19,-124.647"/>
<polygon fill="red" stroke="red" stroke-width="0.221168" points="1285.85,-128.091 1295.32,-123.347 1284.96,-121.148 1285.85,-128.091"/>
</g>
<!-- distancia inimigo 1&#45;&gt;atirar -->
<g id="edge27" class="edge"><title>distancia inimigo 1&#45;&gt;atirar</title>
<path fill="none" stroke="green" stroke-width="0.33939" d="M908.998,-205.118C899.095,-200.469 886.345,-194.532 874.955,-189.38 831.693,-169.811 781.394,-147.865 749.62,-134.1"/>
<polygon fill="green" stroke="green" stroke-width="0.33939" points="750.95,-130.862 740.383,-130.102 748.17,-137.286 750.95,-130.862"/>
</g>
<!-- distancia inimigo 1&#45;&gt;release -->
<g id="edge17" class="edge"><title>distancia inimigo 1&#45;&gt;release</title>
<path fill="none" stroke="red" stroke-width="0.651256" stroke-dasharray="1,5" d="M939.747,-205.112C949.737,-199.708 963.752,-192.939 976.955,-189.38 1147.16,-143.491 1204.58,-208.719 1371.95,-153.38 1379.65,-150.835 1387.4,-147.018 1394.53,-142.874"/>
<polygon fill="red" stroke="red" stroke-width="0.651256" points="1396.52,-145.76 1403.18,-137.523 1392.84,-139.807 1396.52,-145.76"/>
</g>
<!-- distancia inimigo 2 -->
<g id="node18" class="node"><title>distancia inimigo 2</title>
<polygon fill="lightgray" stroke="black" points="2013.45,-223.128 1930.45,-223.128 1930.45,-205.128 2013.45,-205.128 2013.45,-223.128"/>
<text text-anchor="middle" x="1971.95" y="-211.928" font-family="Times New Roman,serif" font-size="9.00">distancia inimigo 2</text>
</g>
<!-- distancia inimigo 2&#45;&gt;esquerda -->
<g id="edge79" class="edge"><title>distancia inimigo 2&#45;&gt;esquerda</title>
<path fill="none" stroke="green" stroke-width="0.124073" d="M1958.2,-204.972C1948.23,-199.503 1934.22,-192.713 1920.95,-189.38 1646.8,-120.481 1567.69,-176.417 1285.95,-153.38 1191.66,-145.669 1081.5,-132.998 1021.82,-125.827"/>
<polygon fill="green" stroke="green" stroke-width="0.124073" points="1021.98,-122.32 1011.63,-124.597 1021.14,-129.27 1021.98,-122.32"/>
</g>
<!-- distancia inimigo 2&#45;&gt;release -->
<g id="edge63" class="edge"><title>distancia inimigo 2&#45;&gt;release</title>
<path fill="none" stroke="red" stroke-width="0.548885" d="M1957.68,-205.075C1947.69,-199.799 1933.88,-193.196 1920.95,-189.38 1756.16,-140.725 1550.12,-126.091 1465.26,-121.958"/>
<polygon fill="red" stroke="red" stroke-width="0.548885" points="1465.2,-118.452 1455.04,-121.484 1464.87,-125.444 1465.2,-118.452"/>
</g>
<!-- direcao sprites 1 -->
<g id="node19" class="node"><title>direcao sprites 1</title>
<polygon fill="lightgray" stroke="black" points="1703.95,-223.128 1627.95,-223.128 1627.95,-205.128 1703.95,-205.128 1703.95,-223.128"/>
<text text-anchor="middle" x="1665.95" y="-211.928" font-family="Times New Roman,serif" font-size="9.00">direcao sprites 1</text>
</g>
<!-- direcao sprites 1&#45;&gt;atirar -->
<g id="edge5" class="edge"><title>direcao sprites 1&#45;&gt;atirar</title>
<path fill="none" stroke="green" stroke-width="0.719952" d="M1653.37,-204.948C1644.22,-199.467 1631.32,-192.673 1618.95,-189.38 1471.87,-150.216 1086.38,-168.82 934.955,-153.38 869.991,-146.755 794.761,-134.238 752.121,-126.687"/>
<polygon fill="green" stroke="green" stroke-width="0.719952" points="752.722,-123.239 742.263,-124.926 751.492,-130.13 752.722,-123.239"/>
</g>
<!-- direcao sprites 1&#45;&gt;release -->
<g id="edge64" class="edge"><title>direcao sprites 1&#45;&gt;release</title>
<path fill="none" stroke="red" stroke-width="0.226706" d="M1650.94,-204.939C1641.83,-200.119 1629.88,-194.068 1618.95,-189.38 1565.87,-166.592 1502.48,-144.977 1463.22,-132.215"/>
<polygon fill="red" stroke="red" stroke-width="0.226706" points="1464.13,-128.83 1453.54,-129.088 1461.98,-135.492 1464.13,-128.83"/>
</g>
<!-- direcao sprites 2 -->
<g id="node20" class="node"><title>direcao sprites 2</title>
<polygon fill="lightgray" stroke="black" points="2208.95,-223.128 2132.95,-223.128 2132.95,-205.128 2208.95,-205.128 2208.95,-223.128"/>
<text text-anchor="middle" x="2170.95" y="-211.928" font-family="Times New Roman,serif" font-size="9.00">direcao sprites 2</text>
</g>
<!-- direcao sprites 2&#45;&gt;pular -->
<g id="edge2" class="edge"><title>direcao sprites 2&#45;&gt;pular</title>
<path fill="none" stroke="green" stroke-width="0.142065" d="M2158.37,-204.933C2149.23,-199.446 2136.33,-192.65 2123.95,-189.38 1807.32,-105.7 1705.28,-234.403 1387.95,-153.38 1374.95,-150.058 1361.47,-144.128 1349.98,-138.205"/>
<polygon fill="green" stroke="green" stroke-width="0.142065" points="1351.31,-134.948 1340.85,-133.289 1348,-141.112 1351.31,-134.948"/>
</g>
<!-- direcao sprites 2&#45;&gt;release -->
<g id="edge71" class="edge"><title>direcao sprites 2&#45;&gt;release</title>
<path fill="none" stroke="red" stroke-width="0.524246" d="M2158.32,-205.122C2149.15,-199.723 2136.24,-192.956 2123.95,-189.38 1998.57,-152.896 1593.37,-129.155 1465.2,-122.412"/>
<polygon fill="red" stroke="red" stroke-width="0.524246" points="1465.23,-118.909 1455.06,-121.884 1464.87,-125.9 1465.23,-118.909"/>
</g>
<!-- esquerda&#45;&gt;esquerda -->
<g id="edge42" class="edge"><title>esquerda&#45;&gt;esquerda</title>
<path fill="none" stroke="red" stroke-width="0.369354" d="M1007.32,-136.909C1019.54,-138.114 1029.9,-132.29 1029.9,-119.439 1029.9,-110.402 1024.78,-104.841 1017.49,-102.754"/>
<polygon fill="red" stroke="red" stroke-width="0.369354" points="1017.56,-99.2491 1007.32,-101.969 1017.02,-106.228 1017.56,-99.2491"/>
</g>
<!-- direita&#45;&gt;direita -->
<g id="edge49" class="edge"><title>direita&#45;&gt;direita</title>
<path fill="none" stroke="red" stroke-width="0.355282" d="M547.996,-136.22C560.249,-139.353 571.532,-133.759 571.532,-119.439 571.532,-109.258 565.829,-103.488 558.129,-102.128"/>
<polygon fill="red" stroke="red" stroke-width="0.355282" points="557.8,-98.6403 547.996,-102.657 558.165,-105.631 557.8,-98.6403"/>
</g>
<!-- pular&#45;&gt;pular -->
<g id="edge50" class="edge"><title>pular&#45;&gt;pular</title>
<path fill="none" stroke="red" stroke-width="0.471456" d="M1338.85,-135.669C1351.01,-139.904 1362.7,-134.493 1362.7,-119.439 1362.7,-108.736 1356.79,-102.907 1349.01,-101.954"/>
<polygon fill="red" stroke="red" stroke-width="0.471456" points="1348.35,-98.5081 1338.85,-103.208 1349.21,-105.455 1348.35,-98.5081"/>
</g>
<!-- atirar&#45;&gt;atirar -->
<g id="edge23" class="edge"><title>atirar&#45;&gt;atirar</title>
<path fill="none" stroke="green" stroke-width="0.212687" stroke-dasharray="1,5" d="M736.854,-135.669C749.007,-139.904 760.703,-134.493 760.703,-119.439 760.703,-108.736 754.792,-102.907 747.007,-101.954"/>
<polygon fill="green" stroke="green" stroke-width="0.212687" points="746.35,-98.5081 736.854,-103.208 747.208,-105.455 746.35,-98.5081"/>
</g>
<!-- 1637 -->
<g id="node26" class="node"><title>1637</title>
<ellipse fill="white" stroke="black" cx="717.955" cy="-24.7487" rx="25" ry="25"/>
<text text-anchor="middle" x="717.955" y="-22.5487" font-family="Times New Roman,serif" font-size="9.00">1637</text>
</g>
<!-- atirar&#45;&gt;1637 -->
<g id="edge81" class="edge"><title>atirar&#45;&gt;1637</title>
<path fill="none" stroke="green" stroke-width="0.790002" d="M712.002,-95.049C711.173,-84.0984 710.991,-70.8603 711.454,-58.9008"/>
<polygon fill="green" stroke="green" stroke-width="0.790002" points="714.954,-58.9923 712.027,-48.8097 707.966,-58.595 714.954,-58.9923"/>
</g>
<!-- 1637&#45;&gt;atirar -->
<g id="edge40" class="edge"><title>1637&#45;&gt;atirar</title>
<path fill="none" stroke="green" stroke-width="0.161689" d="M723.882,-48.8097C724.724,-59.7141 724.92,-72.9418 724.469,-84.9266"/>
<polygon fill="green" stroke="green" stroke-width="0.161689" points="720.967,-84.8703 723.907,-95.049 727.956,-85.2585 720.967,-84.8703"/>
</g>
<!-- 1622&#45;&gt;atirar -->
<g id="edge1" class="edge"><title>1622&#45;&gt;atirar</title>
<path fill="none" stroke="green" stroke-width="0.192818" stroke-dasharray="1,5" d="M203.514,-197.229C207.99,-194.14 212.937,-191.276 217.955,-189.38 369.611,-132.066 421.096,-180.394 580.955,-153.38 616.673,-147.344 656.909,-137.269 684.485,-129.847"/>
<polygon fill="green" stroke="green" stroke-width="0.192818" points="685.67,-133.152 694.398,-127.146 683.83,-126.398 685.67,-133.152"/>
</g>
<!-- 736 -->
<g id="node28" class="node"><title>736</title>
<ellipse fill="white" stroke="black" cx="1112.95" cy="-214.128" rx="21.4286" ry="21.4286"/>
<text text-anchor="middle" x="1112.95" y="-211.928" font-family="Times New Roman,serif" font-size="9.00">736</text>
</g>
<!-- 736&#45;&gt;esquerda -->
<g id="edge52" class="edge"><title>736&#45;&gt;esquerda</title>
<path fill="none" stroke="red" stroke-width="0.349661" d="M1096.96,-200.043C1092.49,-196.501 1087.59,-192.724 1082.95,-189.38 1060.93,-173.479 1035.48,-156.73 1015.15,-143.722"/>
<polygon fill="red" stroke="red" stroke-width="0.349661" points="1016.8,-140.626 1006.49,-138.208 1013.05,-146.531 1016.8,-140.626"/>
</g>
<!-- 736&#45;&gt;736 -->
<g id="edge3" class="edge"><title>736&#45;&gt;736</title>
<path fill="none" stroke="red" stroke-width="0.351969" d="M1130.7,-225.979C1141.7,-228.836 1152.17,-224.886 1152.17,-214.128 1152.17,-206.901 1147.44,-202.746 1141,-201.664"/>
<polygon fill="red" stroke="red" stroke-width="0.351969" points="1140.47,-198.189 1130.7,-202.278 1140.89,-205.177 1140.47,-198.189"/>
</g>
</g>
</svg>
