<?xml version="1.0" encoding="UTF-8" standalone="no"?>
<!DOCTYPE svg PUBLIC "-//W3C//DTD SVG 1.1//EN"
 "http://www.w3.org/Graphics/SVG/1.1/DTD/svg11.dtd">
<!-- Generated by graphviz version 2.38.0 (20140413.2041)
 -->
<!-- Title: %3 Pages: 1 -->
<svg width="2261pt" height="208pt"
 viewBox="0.00 0.00 2261.04 208.31" xmlns="http://www.w3.org/2000/svg" xmlns:xlink="http://www.w3.org/1999/xlink">
<g id="graph0" class="graph" transform="scale(1 1) rotate(0) translate(4 204.309)">
<title>%3</title>
<polygon fill="white" stroke="none" points="-4,4 -4,-204.309 2257.04,-204.309 2257.04,4 -4,4"/>
<!-- dintancia projetil 1 -->
<g id="node1" class="node"><title>dintancia projetil 1</title>
<polygon fill="lightgray" stroke="black" points="971.822,-134.095 887.822,-134.095 887.822,-116.095 971.822,-116.095 971.822,-134.095"/>
<text text-anchor="middle" x="929.822" y="-122.895" font-family="Times New Roman,serif" font-size="9.00">dintancia projetil 1</text>
</g>
<!-- esquerda -->
<g id="node21" class="node"><title>esquerda</title>
<ellipse fill="lightblue" stroke="black" cx="451.822" cy="-33.9411" rx="33.8824" ry="33.8824"/>
<text text-anchor="middle" x="451.822" y="-31.7411" font-family="Times New Roman,serif" font-size="9.00">esquerda</text>
</g>
<!-- dintancia projetil 1&#45;&gt;esquerda -->
<g id="edge19" class="edge"><title>dintancia projetil 1&#45;&gt;esquerda</title>
<path fill="none" stroke="green" stroke-width="1.02271" d="M898.278,-116.017C881.337,-111.911 860.041,-107.118 840.822,-103.882 697.512,-79.7505 654.964,-109.833 515.822,-67.8823 506.948,-65.2067 497.843,-61.3162 489.387,-57.1395"/>
<polygon fill="green" stroke="green" stroke-width="1.02271" points="490.996,-54.0314 480.507,-52.5389 487.776,-60.2468 490.996,-54.0314"/>
</g>
<!-- direita -->
<g id="node22" class="node"><title>direita</title>
<ellipse fill="lightblue" stroke="black" cx="1394.82" cy="-33.9411" rx="27.6545" ry="27.6545"/>
<text text-anchor="middle" x="1394.82" y="-31.7411" font-family="Times New Roman,serif" font-size="9.00">direita</text>
</g>
<!-- dintancia projetil 1&#45;&gt;direita -->
<g id="edge21" class="edge"><title>dintancia projetil 1&#45;&gt;direita</title>
<path fill="none" stroke="red" stroke-width="0.315601" stroke-dasharray="1,5" d="M947.442,-116.039C957.123,-111.887 969.444,-107.046 980.822,-103.882 1116.65,-66.118 1283.65,-46.0567 1357.11,-38.5108"/>
<polygon fill="red" stroke="red" stroke-width="0.315601" points="1357.66,-41.9735 1367.26,-37.4877 1356.96,-35.0088 1357.66,-41.9735"/>
</g>
<!-- pular -->
<g id="node23" class="node"><title>pular</title>
<ellipse fill="lightblue" stroke="black" cx="1860.82" cy="-33.9411" rx="25" ry="25"/>
<text text-anchor="middle" x="1860.82" y="-31.7411" font-family="Times New Roman,serif" font-size="9.00">pular</text>
</g>
<!-- dintancia projetil 1&#45;&gt;pular -->
<g id="edge1" class="edge"><title>dintancia projetil 1&#45;&gt;pular</title>
<path fill="none" stroke="red" stroke-width="0.605858" d="M946.414,-116.046C956.194,-111.679 968.944,-106.626 980.822,-103.882 1184.52,-56.8374 1241.41,-84.2333 1449.82,-67.8823 1588.97,-56.9652 1754.59,-43.5677 1825.63,-37.802"/>
<polygon fill="red" stroke="red" stroke-width="0.605858" points="1826.12,-41.2737 1835.8,-36.9758 1825.55,-34.2967 1826.12,-41.2737"/>
</g>
<!-- atirar -->
<g id="node24" class="node"><title>atirar</title>
<ellipse fill="lightblue" stroke="black" cx="549.822" cy="-33.9411" rx="25" ry="25"/>
<text text-anchor="middle" x="549.822" y="-31.7411" font-family="Times New Roman,serif" font-size="9.00">atirar</text>
</g>
<!-- dintancia projetil 1&#45;&gt;atirar -->
<g id="edge58" class="edge"><title>dintancia projetil 1&#45;&gt;atirar</title>
<path fill="none" stroke="red" stroke-width="0.962306" d="M895.43,-116.026C822.991,-99.031 655.481,-59.7303 583.591,-42.8638"/>
<polygon fill="red" stroke="red" stroke-width="0.962306" points="584.236,-39.4202 573.701,-40.5435 582.637,-46.2351 584.236,-39.4202"/>
</g>
<!-- distancia projetil 2 -->
<g id="node2" class="node"><title>distancia projetil 2</title>
<polygon fill="lightgray" stroke="black" points="1073.32,-134.095 990.322,-134.095 990.322,-116.095 1073.32,-116.095 1073.32,-134.095"/>
<text text-anchor="middle" x="1031.82" y="-122.895" font-family="Times New Roman,serif" font-size="9.00">distancia projetil 2</text>
</g>
<!-- distancia projetil 2&#45;&gt;esquerda -->
<g id="edge3" class="edge"><title>distancia projetil 2&#45;&gt;esquerda</title>
<path fill="none" stroke="green" stroke-width="0.770606" d="M1015.23,-116.049C1005.45,-111.683 992.7,-106.63 980.822,-103.882 778.869,-57.17 715.245,-124.43 515.822,-67.8823 506.905,-65.3537 497.782,-61.5251 489.322,-57.362"/>
<polygon fill="green" stroke="green" stroke-width="0.770606" points="490.932,-54.2541 480.443,-52.7591 487.71,-60.4687 490.932,-54.2541"/>
</g>
<!-- distancia projetil 2&#45;&gt;direita -->
<g id="edge44" class="edge"><title>distancia projetil 2&#45;&gt;direita</title>
<path fill="none" stroke="red" stroke-width="0.100526" d="M1049.61,-116.058C1059.04,-112.012 1070.91,-107.263 1081.82,-103.882 1179.59,-73.5858 1298.47,-51.2322 1357.64,-41.0499"/>
<polygon fill="red" stroke="red" stroke-width="0.100526" points="1358.36,-44.4772 1367.63,-39.3484 1357.19,-37.5765 1358.36,-44.4772"/>
</g>
<!-- distancia projetil 2&#45;&gt;pular -->
<g id="edge43" class="edge"><title>distancia projetil 2&#45;&gt;pular</title>
<path fill="none" stroke="green" stroke-width="0.182786" d="M1048.08,-116.092C1057.67,-111.74 1070.17,-106.687 1081.82,-103.882 1118.48,-95.0572 1678.33,-49.6178 1825.57,-37.7693"/>
<polygon fill="green" stroke="green" stroke-width="0.182786" points="1826.14,-41.2343 1835.83,-36.944 1825.58,-34.2568 1826.14,-41.2343"/>
</g>
<!-- distancia projetil 2&#45;&gt;atirar -->
<g id="edge65" class="edge"><title>distancia projetil 2&#45;&gt;atirar</title>
<path fill="none" stroke="red" stroke-width="0.421122" stroke-dasharray="1,5" d="M1014.21,-116.009C1004.53,-111.849 992.211,-107.009 980.822,-103.882 836.652,-64.2954 658.704,-44.7784 584.675,-37.9092"/>
<polygon fill="red" stroke="red" stroke-width="0.421122" points="584.799,-34.4061 574.523,-36.9866 584.166,-41.3774 584.799,-34.4061"/>
</g>
<!-- release -->
<g id="node25" class="node"><title>release</title>
<ellipse fill="lightblue" stroke="black" cx="859.822" cy="-33.9411" rx="28.9828" ry="28.9828"/>
<text text-anchor="middle" x="859.822" y="-31.7411" font-family="Times New Roman,serif" font-size="9.00">release</text>
</g>
<!-- distancia projetil 2&#45;&gt;release -->
<g id="edge69" class="edge"><title>distancia projetil 2&#45;&gt;release</title>
<path fill="none" stroke="red" stroke-width="0.324841" d="M1016.26,-116.026C988.887,-101.841 931.539,-72.1146 894.403,-52.8658"/>
<polygon fill="red" stroke="red" stroke-width="0.324841" points="895.917,-49.7082 885.428,-48.2136 892.696,-55.9229 895.917,-49.7082"/>
</g>
<!-- distancia projetil 3 -->
<g id="node3" class="node"><title>distancia projetil 3</title>
<polygon fill="lightgray" stroke="black" points="520.322,-200.309 437.322,-200.309 437.322,-182.309 520.322,-182.309 520.322,-200.309"/>
<text text-anchor="middle" x="478.822" y="-189.109" font-family="Times New Roman,serif" font-size="9.00">distancia projetil 3</text>
</g>
<!-- distancia projetil 3&#45;&gt;esquerda -->
<g id="edge13" class="edge"><title>distancia projetil 3&#45;&gt;esquerda</title>
<path fill="none" stroke="green" stroke-width="0.147197" stroke-dasharray="1,5" d="M437.274,-189.426C329.877,-186.717 49.4895,-176.768 21.8223,-146.309 9.14394,-132.351 9.58975,-118.232 21.8223,-103.882 71.1477,-46.0187 308.397,-36.5227 407.829,-35.1102"/>
<polygon fill="green" stroke="green" stroke-width="0.147197" points="407.896,-38.6097 417.853,-34.9888 407.811,-31.6103 407.896,-38.6097"/>
</g>
<!-- distancia projetil 3&#45;&gt;direita -->
<g id="edge46" class="edge"><title>distancia projetil 3&#45;&gt;direita</title>
<path fill="none" stroke="green" stroke-width="0.107209" d="M520.372,-190.1C707.392,-188.963 1463.49,-182.156 1497.82,-146.309 1529.75,-112.977 1469.7,-73.0915 1428.63,-51.2448"/>
<polygon fill="green" stroke="green" stroke-width="0.107209" points="1430.18,-48.1039 1419.69,-46.6082 1426.96,-54.3183 1430.18,-48.1039"/>
</g>
<!-- distancia projetil 3&#45;&gt;pular -->
<g id="edge34" class="edge"><title>distancia projetil 3&#45;&gt;pular</title>
<path fill="none" stroke="red" stroke-width="0.668316" d="M520.647,-189.963C770.847,-187.796 2059.67,-175.24 2087.82,-146.309 2149.51,-82.9073 1973.41,-50.3127 1895.67,-39.3113"/>
<polygon fill="red" stroke="red" stroke-width="0.668316" points="1895.77,-35.7924 1885.39,-37.9012 1894.82,-42.7275 1895.77,-35.7924"/>
</g>
<!-- distancia projetil 3&#45;&gt;atirar -->
<g id="edge15" class="edge"><title>distancia projetil 3&#45;&gt;atirar</title>
<path fill="none" stroke="green" stroke-width="0.268713" stroke-dasharray="1,5" d="M437.026,-190.595C343.722,-189.9 131.825,-180.149 199.822,-103.882 246.416,-51.6229 448.921,-96.4933 512.822,-67.8823 517.39,-65.8372 521.792,-63.02 525.869,-59.8872"/>
<polygon fill="green" stroke="green" stroke-width="0.268713" points="528.407,-62.3219 533.728,-53.1601 523.855,-57.004 528.407,-62.3219"/>
</g>
<!-- distancia projetil 3&#45;&gt;release -->
<g id="edge70" class="edge"><title>distancia projetil 3&#45;&gt;release</title>
<path fill="none" stroke="red" stroke-width="0.418274" stroke-dasharray="1,5" d="M520.499,-189.599C566.498,-187.138 641.361,-178.047 696.822,-146.309 718.793,-133.736 715.015,-119.645 734.822,-103.882 762.455,-81.8907 798.056,-63.0206 824.192,-50.611"/>
<polygon fill="red" stroke="red" stroke-width="0.418274" points="825.776,-53.7345 833.361,-46.3375 822.818,-47.3899 825.776,-53.7345"/>
</g>
<!-- 714 -->
<g id="node26" class="node"><title>714</title>
<ellipse fill="white" stroke="black" cx="229.822" cy="-125.095" rx="21.4286" ry="21.4286"/>
<text text-anchor="middle" x="229.822" y="-122.895" font-family="Times New Roman,serif" font-size="9.00">714</text>
</g>
<!-- distancia projetil 3&#45;&gt;714 -->
<g id="edge14" class="edge"><title>distancia projetil 3&#45;&gt;714</title>
<path fill="none" stroke="red" stroke-width="0.135449" d="M437.038,-186.841C391.882,-181.982 318.511,-170.817 259.822,-146.309 258.229,-145.643 256.631,-144.887 255.049,-144.068"/>
<polygon fill="red" stroke="red" stroke-width="0.135449" points="256.677,-140.965 246.29,-138.875 253.107,-146.986 256.677,-140.965"/>
</g>
<!-- distancia projetil 4 -->
<g id="node4" class="node"><title>distancia projetil 4</title>
<polygon fill="lightgray" stroke="black" points="114.322,-134.095 31.3223,-134.095 31.3223,-116.095 114.322,-116.095 114.322,-134.095"/>
<text text-anchor="middle" x="72.8223" y="-122.895" font-family="Times New Roman,serif" font-size="9.00">distancia projetil 4</text>
</g>
<!-- distancia projetil 4&#45;&gt;esquerda -->
<g id="edge48" class="edge"><title>distancia projetil 4&#45;&gt;esquerda</title>
<path fill="none" stroke="green" stroke-width="0.303182" d="M93.0844,-116.027C103.629,-112.022 116.797,-107.319 128.822,-103.882 227.528,-75.6762 346.15,-53.2036 408.555,-42.2403"/>
<polygon fill="green" stroke="green" stroke-width="0.303182" points="409.191,-45.6823 418.442,-40.5173 407.989,-38.7862 409.191,-45.6823"/>
</g>
<!-- distancia projetil 4&#45;&gt;atirar -->
<g id="edge28" class="edge"><title>distancia projetil 4&#45;&gt;atirar</title>
<path fill="none" stroke="red" stroke-width="0.14072" stroke-dasharray="1,5" d="M91.3916,-116.052C102.129,-111.743 116.012,-106.746 128.822,-103.882 296.108,-66.485 355.645,-136.281 512.822,-67.8823 517.411,-65.8854 521.825,-63.0944 525.907,-59.9735"/>
<polygon fill="red" stroke="red" stroke-width="0.14072" points="528.442,-62.4111 533.769,-53.2528 523.894,-57.0903 528.442,-62.4111"/>
</g>
<!-- distancia projetil 5 -->
<g id="node5" class="node"><title>distancia projetil 5</title>
<polygon fill="lightgray" stroke="black" points="492.322,-134.095 409.322,-134.095 409.322,-116.095 492.322,-116.095 492.322,-134.095"/>
<text text-anchor="middle" x="450.822" y="-122.895" font-family="Times New Roman,serif" font-size="9.00">distancia projetil 5</text>
</g>
<!-- distancia projetil 5&#45;&gt;esquerda -->
<g id="edge37" class="edge"><title>distancia projetil 5&#45;&gt;esquerda</title>
<path fill="none" stroke="green" stroke-width="0.242787" d="M450.915,-115.868C451.013,-107.126 451.175,-92.615 451.336,-78.2752"/>
<polygon fill="green" stroke="green" stroke-width="0.242787" points="454.84,-77.9876 451.452,-67.9489 447.84,-77.909 454.84,-77.9876"/>
</g>
<!-- distancia projetil 5&#45;&gt;direita -->
<g id="edge22" class="edge"><title>distancia projetil 5&#45;&gt;direita</title>
<path fill="none" stroke="red" stroke-width="0.307326" d="M467.072,-116.043C476.655,-111.674 489.155,-106.621 500.822,-103.882 543.132,-93.9502 1192.09,-48.8731 1356.96,-37.5352"/>
<polygon fill="red" stroke="red" stroke-width="0.307326" points="1357.37,-41.0153 1367.11,-36.8379 1356.89,-34.0318 1357.37,-41.0153"/>
</g>
<!-- distancia projetil 5&#45;&gt;atirar -->
<g id="edge53" class="edge"><title>distancia projetil 5&#45;&gt;atirar</title>
<path fill="none" stroke="red" stroke-width="0.30389" stroke-dasharray="1,5" d="M459.958,-115.868C474.39,-102.872 502.984,-77.1211 524.058,-58.1429"/>
<polygon fill="red" stroke="red" stroke-width="0.30389" points="526.633,-60.5343 531.722,-51.2415 521.949,-55.3326 526.633,-60.5343"/>
</g>
<!-- distancia projetil 5&#45;&gt;release -->
<g id="edge31" class="edge"><title>distancia projetil 5&#45;&gt;release</title>
<path fill="none" stroke="green" stroke-width="0.188614" stroke-dasharray="1,5" d="M468.574,-115.936C477.997,-111.857 489.866,-107.115 500.822,-103.882 614.936,-70.2077 754.44,-48.8821 820.95,-39.8777"/>
<polygon fill="green" stroke="green" stroke-width="0.188614" points="821.534,-43.3309 830.983,-38.5384 820.608,-36.3925 821.534,-43.3309"/>
</g>
<!-- distancia projetil 6 -->
<g id="node6" class="node"><title>distancia projetil 6</title>
<polygon fill="lightgray" stroke="black" points="352.322,-134.095 269.322,-134.095 269.322,-116.095 352.322,-116.095 352.322,-134.095"/>
<text text-anchor="middle" x="310.822" y="-122.895" font-family="Times New Roman,serif" font-size="9.00">distancia projetil 6</text>
</g>
<!-- distancia projetil 6&#45;&gt;esquerda -->
<g id="edge67" class="edge"><title>distancia projetil 6&#45;&gt;esquerda</title>
<path fill="none" stroke="red" stroke-width="0.278701" stroke-dasharray="1,5" d="M323.834,-115.868C344.311,-102.92 384.808,-77.3145 414.789,-58.3571"/>
<polygon fill="red" stroke="red" stroke-width="0.278701" points="416.75,-61.2586 423.331,-52.956 413.009,-55.3421 416.75,-61.2586"/>
</g>
<!-- distancia projetil 6&#45;&gt;atirar -->
<g id="edge8" class="edge"><title>distancia projetil 6&#45;&gt;atirar</title>
<path fill="none" stroke="green" stroke-width="0.4812" d="M331.393,-116.087C341.905,-112.144 354.951,-107.477 366.822,-103.882 430.786,-84.5106 453.685,-99.0159 512.822,-67.8823 517.251,-65.551 521.577,-62.5776 525.62,-59.3745"/>
<polygon fill="green" stroke="green" stroke-width="0.4812" points="528.176,-61.792 533.46,-52.6092 523.603,-56.4922 528.176,-61.792"/>
</g>
<!-- distancia projetil 6&#45;&gt;release -->
<g id="edge32" class="edge"><title>distancia projetil 6&#45;&gt;release</title>
<path fill="none" stroke="red" stroke-width="0.11685" d="M343.668,-116.02C360.413,-112.061 381.137,-107.399 399.822,-103.882 555.139,-74.6482 741.83,-49.8195 821.146,-39.7466"/>
<polygon fill="red" stroke="red" stroke-width="0.11685" points="821.685,-43.2064 831.167,-38.4801 820.807,-36.2617 821.685,-43.2064"/>
</g>
<!-- distancia projetil 7 -->
<g id="node7" class="node"><title>distancia projetil 7</title>
<polygon fill="lightgray" stroke="black" points="1832.32,-134.095 1749.32,-134.095 1749.32,-116.095 1832.32,-116.095 1832.32,-134.095"/>
<text text-anchor="middle" x="1790.82" y="-122.895" font-family="Times New Roman,serif" font-size="9.00">distancia projetil 7</text>
</g>
<!-- distancia projetil 7&#45;&gt;direita -->
<g id="edge66" class="edge"><title>distancia projetil 7&#45;&gt;direita</title>
<path fill="none" stroke="green" stroke-width="0.569671" d="M1770.84,-116.076C1760.25,-112.035 1746.96,-107.285 1734.82,-103.882 1626.55,-73.5396 1495.36,-50.7867 1432.28,-40.6915"/>
<polygon fill="green" stroke="green" stroke-width="0.569671" points="1432.45,-37.1759 1422.03,-39.0676 1431.36,-44.0897 1432.45,-37.1759"/>
</g>
<!-- distancia projetil 7&#45;&gt;pular -->
<g id="edge71" class="edge"><title>distancia projetil 7&#45;&gt;pular</title>
<path fill="none" stroke="green" stroke-width="0.617256" d="M1797.28,-115.868C1806.79,-103.756 1825,-80.5667 1839.49,-62.1051"/>
<polygon fill="green" stroke="green" stroke-width="0.617256" points="1842.43,-64.039 1845.85,-54.0123 1836.92,-59.7162 1842.43,-64.039"/>
</g>
<!-- distancia projetil 7&#45;&gt;release -->
<g id="edge4" class="edge"><title>distancia projetil 7&#45;&gt;release</title>
<path fill="none" stroke="red" stroke-width="0.116836" stroke-dasharray="1,5" d="M1760.14,-115.997C1743.08,-111.781 1721.4,-106.891 1701.82,-103.882 1543.6,-79.5627 1043.01,-46.5918 898.956,-37.4054"/>
<polygon fill="red" stroke="red" stroke-width="0.116836" points="899.024,-33.9027 888.822,-36.7609 898.58,-40.8886 899.024,-33.9027"/>
</g>
<!-- distancia projetil 8 -->
<g id="node8" class="node"><title>distancia projetil 8</title>
<polygon fill="lightgray" stroke="black" points="1488.32,-134.095 1405.32,-134.095 1405.32,-116.095 1488.32,-116.095 1488.32,-134.095"/>
<text text-anchor="middle" x="1446.82" y="-122.895" font-family="Times New Roman,serif" font-size="9.00">distancia projetil 8</text>
</g>
<!-- distancia projetil 8&#45;&gt;direita -->
<g id="edge16" class="edge"><title>distancia projetil 8&#45;&gt;direita</title>
<path fill="none" stroke="green" stroke-width="0.1181" stroke-dasharray="1,5" d="M1442.02,-115.868C1435.56,-104.782 1423.68,-84.4153 1413.46,-66.8881"/>
<polygon fill="green" stroke="green" stroke-width="0.1181" points="1416.36,-64.9202 1408.3,-58.0455 1410.31,-68.447 1416.36,-64.9202"/>
</g>
<!-- distancia projetil 8&#45;&gt;release -->
<g id="edge17" class="edge"><title>distancia projetil 8&#45;&gt;release</title>
<path fill="none" stroke="red" stroke-width="0.151716" d="M1429.71,-116.073C1419.98,-111.825 1407.44,-106.882 1395.82,-103.882 1213.81,-56.8966 988.386,-41.2285 898.987,-36.6371"/>
<polygon fill="red" stroke="red" stroke-width="0.151716" points="898.932,-33.1301 888.771,-36.1307 898.586,-40.1216 898.932,-33.1301"/>
</g>
<!-- distancia projetil 9 -->
<g id="node9" class="node"><title>distancia projetil 9</title>
<polygon fill="lightgray" stroke="black" points="1972.32,-134.095 1889.32,-134.095 1889.32,-116.095 1972.32,-116.095 1972.32,-134.095"/>
<text text-anchor="middle" x="1930.82" y="-122.895" font-family="Times New Roman,serif" font-size="9.00">distancia projetil 9</text>
</g>
<!-- distancia projetil 9&#45;&gt;direita -->
<g id="edge33" class="edge"><title>distancia projetil 9&#45;&gt;direita</title>
<path fill="none" stroke="red" stroke-width="0.696382" stroke-dasharray="1,5" d="M1911.69,-116.091C1901,-111.903 1887.36,-107.01 1874.82,-103.882 1713,-63.5052 1514.19,-44.3348 1432.54,-37.729"/>
<polygon fill="red" stroke="red" stroke-width="0.696382" points="1432.51,-34.2158 1422.26,-36.9144 1431.95,-41.1939 1432.51,-34.2158"/>
</g>
<!-- distancia projetil 9&#45;&gt;pular -->
<g id="edge9" class="edge"><title>distancia projetil 9&#45;&gt;pular</title>
<path fill="none" stroke="green" stroke-width="0.173473" stroke-dasharray="1,5" d="M1924.36,-115.868C1914.85,-103.756 1896.65,-80.5667 1882.15,-62.1051"/>
<polygon fill="green" stroke="green" stroke-width="0.173473" points="1884.72,-59.7162 1875.8,-54.0123 1879.22,-64.039 1884.72,-59.7162"/>
</g>
<!-- distancia projetil 10 -->
<g id="node10" class="node"><title>distancia projetil 10</title>
<polygon fill="lightgray" stroke="black" points="1386.82,-134.095 1298.82,-134.095 1298.82,-116.095 1386.82,-116.095 1386.82,-134.095"/>
<text text-anchor="middle" x="1342.82" y="-122.895" font-family="Times New Roman,serif" font-size="9.00">distancia projetil 10</text>
</g>
<!-- distancia projetil 10&#45;&gt;direita -->
<g id="edge50" class="edge"><title>distancia projetil 10&#45;&gt;direita</title>
<path fill="none" stroke="red" stroke-width="0.736054" d="M1347.62,-115.868C1354.09,-104.782 1365.97,-84.4153 1376.19,-66.8881"/>
<polygon fill="red" stroke="red" stroke-width="0.736054" points="1379.33,-68.447 1381.35,-58.0455 1373.28,-64.9202 1379.33,-68.447"/>
</g>
<!-- distancia projetil 10&#45;&gt;pular -->
<g id="edge2" class="edge"><title>distancia projetil 10&#45;&gt;pular</title>
<path fill="none" stroke="green" stroke-width="0.441319" d="M1361.14,-115.979C1371.2,-111.811 1384.01,-106.972 1395.82,-103.882 1553.24,-62.7178 1747.5,-43.8563 1825.74,-37.5261"/>
<polygon fill="green" stroke="green" stroke-width="0.441319" points="1826.3,-40.9927 1835.99,-36.715 1825.75,-34.0145 1826.3,-40.9927"/>
</g>
<!-- distancia projetil 10&#45;&gt;atirar -->
<g id="edge20" class="edge"><title>distancia projetil 10&#45;&gt;atirar</title>
<path fill="none" stroke="green" stroke-width="0.204491" stroke-dasharray="1,5" d="M1325.55,-116.057C1315.37,-111.693 1302.12,-106.64 1289.82,-103.882 1086.26,-58.2419 1029.42,-88.4279 821.822,-67.8823 736.352,-59.4235 636.137,-46.5097 584.496,-39.6333"/>
<polygon fill="green" stroke="green" stroke-width="0.204491" points="584.91,-36.1577 574.535,-38.3015 583.983,-43.0959 584.91,-36.1577"/>
</g>
<!-- distancia projetil 10&#45;&gt;release -->
<g id="edge29" class="edge"><title>distancia projetil 10&#45;&gt;release</title>
<path fill="none" stroke="red" stroke-width="0.398681" d="M1324.49,-116.035C1314.42,-111.882 1301.62,-107.041 1289.82,-103.882 1148.4,-66.0089 974.896,-45.9859 898.76,-38.4784"/>
<polygon fill="red" stroke="red" stroke-width="0.398681" points="898.968,-34.9823 888.677,-37.5016 898.293,-41.9496 898.968,-34.9823"/>
</g>
<!-- distancia projetil 11 -->
<g id="node11" class="node"><title>distancia projetil 11</title>
<polygon fill="lightgray" stroke="black" points="2078.82,-134.095 1990.82,-134.095 1990.82,-116.095 2078.82,-116.095 2078.82,-134.095"/>
<text text-anchor="middle" x="2034.82" y="-122.895" font-family="Times New Roman,serif" font-size="9.00">distancia projetil 11</text>
</g>
<!-- distancia projetil 11&#45;&gt;direita -->
<g id="edge6" class="edge"><title>distancia projetil 11&#45;&gt;direita</title>
<path fill="none" stroke="red" stroke-width="0.634064" stroke-dasharray="1,5" d="M2017.02,-116.04C2006.9,-111.782 1993.87,-106.839 1981.82,-103.882 1778.64,-54.0231 1526.75,-39.8529 1432.63,-36.1501"/>
<polygon fill="red" stroke="red" stroke-width="0.634064" points="1432.58,-32.6461 1422.46,-35.7672 1432.32,-39.6411 1432.58,-32.6461"/>
</g>
<!-- distancia projetil 11&#45;&gt;pular -->
<g id="edge61" class="edge"><title>distancia projetil 11&#45;&gt;pular</title>
<path fill="none" stroke="red" stroke-width="0.296448" stroke-dasharray="1,5" d="M2019.07,-116.026C1990.31,-101.287 1928.8,-69.7725 1891.51,-50.6632"/>
<polygon fill="red" stroke="red" stroke-width="0.296448" points="1893.08,-47.5351 1882.58,-46.0899 1889.88,-53.7649 1893.08,-47.5351"/>
</g>
<!-- distancia projetil 12 -->
<g id="node12" class="node"><title>distancia projetil 12</title>
<polygon fill="lightgray" stroke="black" points="1686.82,-200.309 1598.82,-200.309 1598.82,-182.309 1686.82,-182.309 1686.82,-200.309"/>
<text text-anchor="middle" x="1642.82" y="-189.109" font-family="Times New Roman,serif" font-size="9.00">distancia projetil 12</text>
</g>
<!-- distancia projetil 12&#45;&gt;direita -->
<g id="edge26" class="edge"><title>distancia projetil 12&#45;&gt;direita</title>
<path fill="none" stroke="red" stroke-width="0.351236" stroke-dasharray="1,5" d="M1661.22,-182.302C1675.2,-175.113 1693.4,-163.098 1701.82,-146.309 1710.28,-129.455 1713.6,-118.604 1701.82,-103.882 1668.48,-62.2165 1507.19,-43.992 1432.69,-37.6979"/>
<polygon fill="red" stroke="red" stroke-width="0.351236" points="1432.61,-34.1794 1422.35,-36.8545 1432.04,-41.1562 1432.61,-34.1794"/>
</g>
<!-- distancia projetil 12&#45;&gt;pular -->
<g id="edge41" class="edge"><title>distancia projetil 12&#45;&gt;pular</title>
<path fill="none" stroke="red" stroke-width="0.489194" stroke-dasharray="1,5" d="M1687.09,-189.558C1800.01,-187.186 2091.9,-178.017 2120.82,-146.309 2188.73,-71.8665 1980.74,-45.2115 1895.51,-37.5633"/>
<polygon fill="red" stroke="red" stroke-width="0.489194" points="1895.77,-34.0735 1885.51,-36.7035 1895.17,-41.0478 1895.77,-34.0735"/>
</g>
<!-- distancia projetil 12&#45;&gt;atirar -->
<g id="edge57" class="edge"><title>distancia projetil 12&#45;&gt;atirar</title>
<path fill="none" stroke="green" stroke-width="0.214903" d="M1598.8,-190.443C1382.64,-190.89 442.281,-190.297 399.822,-146.309 386.727,-132.742 388.695,-119.105 399.822,-103.882 430.926,-61.3286 467.026,-93.9775 512.822,-67.8823 517.082,-65.4552 521.279,-62.4759 525.23,-59.3106"/>
<polygon fill="green" stroke="green" stroke-width="0.214903" points="527.646,-61.8489 532.936,-52.6693 523.076,-56.5463 527.646,-61.8489"/>
</g>
<!-- 560 -->
<g id="node28" class="node"><title>560</title>
<ellipse fill="white" stroke="black" cx="1565.82" cy="-125.095" rx="21.4286" ry="21.4286"/>
<text text-anchor="middle" x="1565.82" y="-122.895" font-family="Times New Roman,serif" font-size="9.00">560</text>
</g>
<!-- distancia projetil 12&#45;&gt;560 -->
<g id="edge36" class="edge"><title>distancia projetil 12&#45;&gt;560</title>
<path fill="none" stroke="red" stroke-width="0.127019" d="M1633.07,-182.176C1622.14,-173.064 1604.04,-157.967 1589.37,-145.731"/>
<polygon fill="red" stroke="red" stroke-width="0.127019" points="1591.56,-143 1581.64,-139.284 1587.08,-148.376 1591.56,-143"/>
</g>
<!-- distancia projetil 13 -->
<g id="node13" class="node"><title>distancia projetil 13</title>
<polygon fill="lightgray" stroke="black" points="1280.82,-134.095 1192.82,-134.095 1192.82,-116.095 1280.82,-116.095 1280.82,-134.095"/>
<text text-anchor="middle" x="1236.82" y="-122.895" font-family="Times New Roman,serif" font-size="9.00">distancia projetil 13</text>
</g>
<!-- distancia projetil 13&#45;&gt;esquerda -->
<g id="edge68" class="edge"><title>distancia projetil 13&#45;&gt;esquerda</title>
<path fill="none" stroke="green" stroke-width="0.109527" stroke-dasharray="1,5" d="M1219.23,-115.955C1208.86,-111.557 1195.36,-106.504 1182.82,-103.882 892.226,-43.1438 802.364,-145.531 515.822,-67.8823 506.787,-65.4339 497.56,-61.5981 489.027,-57.3963"/>
<polygon fill="green" stroke="green" stroke-width="0.109527" points="490.568,-54.2529 480.082,-52.7417 487.337,-60.4625 490.568,-54.2529"/>
</g>
<!-- distancia projetil 13&#45;&gt;direita -->
<g id="edge51" class="edge"><title>distancia projetil 13&#45;&gt;direita</title>
<path fill="none" stroke="red" stroke-width="0.63465" d="M1251.12,-116.026C1275.98,-102 1327.76,-72.7807 1361.9,-53.5186"/>
<polygon fill="red" stroke="red" stroke-width="0.63465" points="1364.03,-56.3332 1371.02,-48.3706 1360.59,-50.2368 1364.03,-56.3332"/>
</g>
<!-- distancia projetil 13&#45;&gt;pular -->
<g id="edge30" class="edge"><title>distancia projetil 13&#45;&gt;pular</title>
<path fill="none" stroke="green" stroke-width="1.17677" d="M1254.62,-116.055C1264.75,-111.802 1277.78,-106.859 1289.82,-103.882 1488.7,-54.7389 1735.54,-40.0855 1825.74,-36.2036"/>
<polygon fill="green" stroke="green" stroke-width="1.17677" points="1826.1,-39.6917 1835.95,-35.782 1825.81,-32.6977 1826.1,-39.6917"/>
</g>
<!-- distancia projetil 13&#45;&gt;release -->
<g id="edge45" class="edge"><title>distancia projetil 13&#45;&gt;release</title>
<path fill="none" stroke="red" stroke-width="0.101659" d="M1217.56,-116.094C1207.36,-112.058 1194.54,-107.307 1182.82,-103.882 1081.89,-74.3949 959.806,-51.7756 898.675,-41.3168"/>
<polygon fill="red" stroke="red" stroke-width="0.101659" points="899.138,-37.8454 888.693,-39.6247 897.968,-44.7469 899.138,-37.8454"/>
</g>
<!-- distancia projetil 14 -->
<g id="node14" class="node"><title>distancia projetil 14</title>
<polygon fill="lightgray" stroke="black" points="2065.82,-200.309 1977.82,-200.309 1977.82,-182.309 2065.82,-182.309 2065.82,-200.309"/>
<text text-anchor="middle" x="2021.82" y="-189.109" font-family="Times New Roman,serif" font-size="9.00">distancia projetil 14</text>
</g>
<!-- distancia projetil 14&#45;&gt;direita -->
<g id="edge72" class="edge"><title>distancia projetil 14&#45;&gt;direita</title>
<path fill="none" stroke="red" stroke-width="0.668778" d="M1977.66,-182.747C1948.51,-176.314 1910.39,-165.049 1880.82,-146.309 1859.19,-132.596 1864.42,-115.942 1841.82,-103.882 1770.87,-66.0139 1527.24,-44.6051 1432.72,-37.5623"/>
<polygon fill="red" stroke="red" stroke-width="0.668778" points="1432.71,-34.0519 1422.48,-36.812 1432.19,-41.0332 1432.71,-34.0519"/>
</g>
<!-- distancia projetil 14&#45;&gt;pular -->
<g id="edge60" class="edge"><title>distancia projetil 14&#45;&gt;pular</title>
<path fill="none" stroke="red" stroke-width="0.248841" stroke-dasharray="1,5" d="M2066.03,-189.03C2097.49,-185.52 2137.78,-175.174 2158.82,-146.309 2169.93,-131.073 2170.56,-118.642 2158.82,-103.882 2126.29,-62.9621 1967.52,-44.2053 1895.94,-37.7253"/>
<polygon fill="red" stroke="red" stroke-width="0.248841" points="1895.9,-34.2087 1885.64,-36.8231 1895.29,-41.182 1895.9,-34.2087"/>
</g>
<!-- distancia projetil 14&#45;&gt;release -->
<g id="edge62" class="edge"><title>distancia projetil 14&#45;&gt;release</title>
<path fill="none" stroke="green" stroke-width="0.335572" stroke-dasharray="1,5" d="M1977.81,-188.987C1769.17,-182.678 889.348,-155.543 878.822,-146.309 858.568,-128.539 854.58,-97.7706 855.233,-73.0716"/>
<polygon fill="green" stroke="green" stroke-width="0.335572" points="858.737,-73.0823 855.763,-62.9134 851.747,-72.7173 858.737,-73.0823"/>
</g>
<!-- 523 -->
<g id="node27" class="node"><title>523</title>
<ellipse fill="white" stroke="black" cx="2231.82" cy="-125.095" rx="21.4286" ry="21.4286"/>
<text text-anchor="middle" x="2231.82" y="-122.895" font-family="Times New Roman,serif" font-size="9.00">523</text>
</g>
<!-- distancia projetil 14&#45;&gt;523 -->
<g id="edge52" class="edge"><title>distancia projetil 14&#45;&gt;523</title>
<path fill="none" stroke="red" stroke-width="0.278138" d="M2066.04,-182.721C2102.08,-175.708 2153.85,-163.722 2196.82,-146.309 2199.72,-145.134 2202.67,-143.756 2205.57,-142.281"/>
<polygon fill="red" stroke="red" stroke-width="0.278138" points="2207.42,-145.253 2214.5,-137.368 2204.05,-139.119 2207.42,-145.253"/>
</g>
<!-- distancia projetil 15 -->
<g id="node15" class="node"><title>distancia projetil 15</title>
<polygon fill="lightgray" stroke="black" points="1692.82,-134.095 1604.82,-134.095 1604.82,-116.095 1692.82,-116.095 1692.82,-134.095"/>
<text text-anchor="middle" x="1648.82" y="-122.895" font-family="Times New Roman,serif" font-size="9.00">distancia projetil 15</text>
</g>
<!-- distancia projetil 15&#45;&gt;direita -->
<g id="edge27" class="edge"><title>distancia projetil 15&#45;&gt;direita</title>
<path fill="none" stroke="red" stroke-width="0.171449" d="M1628.24,-116.061C1618.45,-112.286 1606.56,-107.771 1595.82,-103.882 1538.26,-83.0416 1470.87,-60.2526 1430.58,-46.7973"/>
<polygon fill="red" stroke="red" stroke-width="0.171449" points="1431.53,-43.4267 1420.94,-43.5844 1429.32,-50.0674 1431.53,-43.4267"/>
</g>
<!-- distancia projetil 16 -->
<g id="node16" class="node"><title>distancia projetil 16</title>
<polygon fill="lightgray" stroke="black" points="831.822,-134.095 743.822,-134.095 743.822,-116.095 831.822,-116.095 831.822,-134.095"/>
<text text-anchor="middle" x="787.822" y="-122.895" font-family="Times New Roman,serif" font-size="9.00">distancia projetil 16</text>
</g>
<!-- distancia projetil 16&#45;&gt;release -->
<g id="edge24" class="edge"><title>distancia projetil 16&#45;&gt;release</title>
<path fill="none" stroke="green" stroke-width="1.18445" d="M794.467,-115.868C803.765,-104.354 821.148,-82.8299 835.65,-64.8728"/>
<polygon fill="green" stroke="green" stroke-width="1.18445" points="838.511,-66.9009 842.071,-56.9221 833.065,-62.5029 838.511,-66.9009"/>
</g>
<!-- distancia inimigo 1 -->
<g id="node17" class="node"><title>distancia inimigo 1</title>
<polygon fill="lightgray" stroke="black" points="1174.32,-134.095 1091.32,-134.095 1091.32,-116.095 1174.32,-116.095 1174.32,-134.095"/>
<text text-anchor="middle" x="1132.82" y="-122.895" font-family="Times New Roman,serif" font-size="9.00">distancia inimigo 1</text>
</g>
<!-- distancia inimigo 1&#45;&gt;direita -->
<g id="edge64" class="edge"><title>distancia inimigo 1&#45;&gt;direita</title>
<path fill="none" stroke="green" stroke-width="0.191365" d="M1152.57,-115.939C1161.99,-112.137 1173.43,-107.635 1183.82,-103.882 1244.77,-81.8726 1316.67,-59.0353 1358.85,-45.9517"/>
<polygon fill="green" stroke="green" stroke-width="0.191365" points="1360.14,-49.2181 1368.66,-42.9203 1358.07,-42.5304 1360.14,-49.2181"/>
</g>
<!-- distancia inimigo 1&#45;&gt;atirar -->
<g id="edge25" class="edge"><title>distancia inimigo 1&#45;&gt;atirar</title>
<path fill="none" stroke="green" stroke-width="0.265522" stroke-dasharray="1,5" d="M1115.71,-116.077C1105.98,-111.831 1093.44,-106.887 1081.82,-103.882 1057.59,-97.6134 698.698,-53.2326 584.465,-39.1902"/>
<polygon fill="green" stroke="green" stroke-width="0.265522" points="584.852,-35.7115 574.5,-37.9658 583.998,-42.6592 584.852,-35.7115"/>
</g>
<!-- distancia inimigo 1&#45;&gt;release -->
<g id="edge11" class="edge"><title>distancia inimigo 1&#45;&gt;release</title>
<path fill="none" stroke="green" stroke-width="0.25725" d="M1113.58,-116.067C1104.08,-112.209 1092.42,-107.622 1081.82,-103.882 1017.74,-81.2698 941.913,-58.5777 897.516,-45.6937"/>
<polygon fill="green" stroke="green" stroke-width="0.25725" points="898.312,-42.2806 887.733,-42.8661 896.368,-49.0053 898.312,-42.2806"/>
</g>
<!-- distancia inimigo 2 -->
<g id="node18" class="node"><title>distancia inimigo 2</title>
<polygon fill="lightgray" stroke="black" points="593.322,-134.095 510.322,-134.095 510.322,-116.095 593.322,-116.095 593.322,-134.095"/>
<text text-anchor="middle" x="551.822" y="-122.895" font-family="Times New Roman,serif" font-size="9.00">distancia inimigo 2</text>
</g>
<!-- distancia inimigo 2&#45;&gt;esquerda -->
<g id="edge39" class="edge"><title>distancia inimigo 2&#45;&gt;esquerda</title>
<path fill="none" stroke="green" stroke-width="0.751623" d="M542.594,-115.868C529.474,-104.171 504.767,-82.1437 484.439,-64.02"/>
<polygon fill="green" stroke="green" stroke-width="0.751623" points="486.689,-61.3369 476.895,-57.2947 482.03,-66.5619 486.689,-61.3369"/>
</g>
<!-- distancia inimigo 2&#45;&gt;direita -->
<g id="edge12" class="edge"><title>distancia inimigo 2&#45;&gt;direita</title>
<path fill="none" stroke="green" stroke-width="0.339037" d="M568.424,-116.092C578.208,-111.74 590.958,-106.686 602.822,-103.882 676.696,-86.4225 1208.49,-48.0587 1356.61,-37.6126"/>
<polygon fill="green" stroke="green" stroke-width="0.339037" points="1357.27,-41.0751 1367,-36.8816 1356.78,-34.0924 1357.27,-41.0751"/>
</g>
<!-- distancia inimigo 2&#45;&gt;atirar -->
<g id="edge49" class="edge"><title>distancia inimigo 2&#45;&gt;atirar</title>
<path fill="none" stroke="red" stroke-width="0.163816" stroke-dasharray="1,5" d="M551.638,-115.868C551.399,-105.23 550.969,-86.0459 550.587,-69.0257"/>
<polygon fill="red" stroke="red" stroke-width="0.163816" points="554.081,-68.7225 550.358,-58.8036 547.083,-68.8796 554.081,-68.7225"/>
</g>
<!-- distancia inimigo 2&#45;&gt;release -->
<g id="edge59" class="edge"><title>distancia inimigo 2&#45;&gt;release</title>
<path fill="none" stroke="red" stroke-width="0.393275" d="M570.523,-116.084C580.088,-112.14 591.972,-107.474 602.822,-103.882 679.545,-78.4816 771.429,-55.6011 821.921,-43.6589"/>
<polygon fill="red" stroke="red" stroke-width="0.393275" points="822.815,-47.0443 831.749,-41.3492 821.213,-40.2299 822.815,-47.0443"/>
</g>
<!-- direcao sprites 1 -->
<g id="node19" class="node"><title>direcao sprites 1</title>
<polygon fill="lightgray" stroke="black" points="180.822,-200.309 104.822,-200.309 104.822,-182.309 180.822,-182.309 180.822,-200.309"/>
<text text-anchor="middle" x="142.822" y="-189.109" font-family="Times New Roman,serif" font-size="9.00">direcao sprites 1</text>
</g>
<!-- direcao sprites 1&#45;&gt;esquerda -->
<g id="edge54" class="edge"><title>direcao sprites 1&#45;&gt;esquerda</title>
<path fill="none" stroke="green" stroke-width="0.519845" stroke-dasharray="1,5" d="M104.631,-189.288C73.2324,-186.182 30.5084,-176.255 8.82227,-146.309 -2.2374,-131.036 -3.44315,-118.204 8.82227,-103.882 59.922,-44.2151 305.866,-35.7801 407.614,-34.8812"/>
<polygon fill="green" stroke="green" stroke-width="0.519845" points="407.883,-38.3795 417.859,-34.8121 407.836,-31.3797 407.883,-38.3795"/>
</g>
<!-- direcao sprites 1&#45;&gt;atirar -->
<g id="edge5" class="edge"><title>direcao sprites 1&#45;&gt;atirar</title>
<path fill="none" stroke="green" stroke-width="0.25471" d="M143.914,-182.218C146.753,-164.655 156.101,-123.08 182.822,-103.882 302.642,-17.7988 377.991,-127.779 512.822,-67.8823 517.396,-65.8506 521.802,-63.0406 525.88,-59.9112"/>
<polygon fill="green" stroke="green" stroke-width="0.25471" points="528.417,-62.3467 533.74,-53.1858 523.866,-57.028 528.417,-62.3467"/>
</g>
<!-- direcao sprites 1&#45;&gt;560 -->
<g id="edge63" class="edge"><title>direcao sprites 1&#45;&gt;560</title>
<path fill="none" stroke="green" stroke-width="0.149161" d="M180.88,-189.207C397.296,-182.925 1464.42,-151.722 1497.82,-146.309 1510.7,-144.221 1524.57,-140.398 1536.4,-136.635"/>
<polygon fill="green" stroke="green" stroke-width="0.149161" points="1537.81,-139.856 1546.2,-133.388 1535.61,-133.212 1537.81,-139.856"/>
</g>
<!-- direcao sprites 2 -->
<g id="node20" class="node"><title>direcao sprites 2</title>
<polygon fill="lightgray" stroke="black" points="687.822,-134.095 611.822,-134.095 611.822,-116.095 687.822,-116.095 687.822,-134.095"/>
<text text-anchor="middle" x="649.822" y="-122.895" font-family="Times New Roman,serif" font-size="9.00">direcao sprites 2</text>
</g>
<!-- direcao sprites 2&#45;&gt;esquerda -->
<g id="edge40" class="edge"><title>direcao sprites 2&#45;&gt;esquerda</title>
<path fill="none" stroke="green" stroke-width="0.135397" d="M630.673,-116.021C621.885,-112.317 611.327,-107.873 601.822,-103.882 563.617,-87.8416 553.384,-85.3773 515.822,-67.8823 507.592,-64.0487 498.878,-59.7378 490.618,-55.5292"/>
<polygon fill="green" stroke="green" stroke-width="0.135397" points="492.028,-52.3186 481.535,-50.8521 488.823,-58.5419 492.028,-52.3186"/>
</g>
<!-- direcao sprites 2&#45;&gt;direita -->
<g id="edge56" class="edge"><title>direcao sprites 2&#45;&gt;direita</title>
<path fill="none" stroke="green" stroke-width="0.635572" stroke-dasharray="1,5" d="M679.525,-116.035C695.759,-111.883 716.281,-107.042 734.822,-103.882 969.829,-63.8387 1256.14,-43.4867 1357.27,-37.1555"/>
<polygon fill="green" stroke="green" stroke-width="0.635572" points="1357.54,-40.6458 1367.3,-36.5357 1357.1,-33.6592 1357.54,-40.6458"/>
</g>
<!-- direcao sprites 2&#45;&gt;atirar -->
<g id="edge18" class="edge"><title>direcao sprites 2&#45;&gt;atirar</title>
<path fill="none" stroke="green" stroke-width="0.354852" d="M640.594,-115.868C626.017,-102.872 597.133,-77.1211 575.846,-58.1429"/>
<polygon fill="green" stroke="green" stroke-width="0.354852" points="577.899,-55.2838 568.106,-51.2415 573.241,-60.5088 577.899,-55.2838"/>
</g>
<!-- direcao sprites 2&#45;&gt;release -->
<g id="edge47" class="edge"><title>direcao sprites 2&#45;&gt;release</title>
<path fill="none" stroke="green" stroke-width="0.239036" stroke-dasharray="1,5" d="M668.829,-116.026C703.82,-101.171 778.951,-69.2746 823.849,-50.2135"/>
<polygon fill="green" stroke="green" stroke-width="0.239036" points="825.379,-53.3664 833.216,-46.2368 822.643,-46.923 825.379,-53.3664"/>
</g>
<!-- esquerda&#45;&gt;esquerda -->
<g id="edge38" class="edge"><title>esquerda&#45;&gt;esquerda</title>
<path fill="none" stroke="green" stroke-width="0.143894" stroke-dasharray="1,5" d="M481.452,-50.6915C493.555,-51.7414 503.763,-46.1579 503.763,-33.9411 503.763,-25.3512 498.716,-20.0407 491.513,-18.0096"/>
<polygon fill="green" stroke="green" stroke-width="0.143894" points="491.703,-14.5136 481.452,-17.1908 491.135,-21.4905 491.703,-14.5136"/>
</g>
<!-- direita&#45;&gt;direita -->
<g id="edge35" class="edge"><title>direita&#45;&gt;direita</title>
<path fill="none" stroke="green" stroke-width="0.458641" d="M1417.33,-50.1199C1429.4,-52.8692 1440.4,-47.4763 1440.4,-33.9411 1440.4,-24.4242 1434.96,-18.9327 1427.54,-17.4666"/>
<polygon fill="green" stroke="green" stroke-width="0.458641" points="1427.23,-13.9741 1417.33,-17.7624 1427.43,-20.9711 1427.23,-13.9741"/>
</g>
<!-- atirar&#45;&gt;atirar -->
<g id="edge23" class="edge"><title>atirar&#45;&gt;atirar</title>
<path fill="none" stroke="green" stroke-width="0.293943" d="M569.166,-49.6255C581.158,-53.4075 592.571,-48.1794 592.571,-33.9411 592.571,-23.8186 586.803,-18.2501 579.159,-17.2356"/>
<polygon fill="green" stroke="green" stroke-width="0.293943" points="578.759,-13.7582 569.166,-18.2568 579.47,-20.7219 578.759,-13.7582"/>
</g>
<!-- 714&#45;&gt;atirar -->
<g id="edge55" class="edge"><title>714&#45;&gt;atirar</title>
<path fill="none" stroke="green" stroke-width="0.32865" d="M246.215,-111.127C250.445,-108.336 255.133,-105.686 259.822,-103.882 365.831,-63.1156 409.793,-115.682 512.822,-67.8823 517.362,-65.7761 521.749,-62.9256 525.819,-59.7778"/>
<polygon fill="green" stroke="green" stroke-width="0.32865" points="528.361,-62.2087 533.675,-53.0425 523.805,-56.8947 528.361,-62.2087"/>
</g>
<!-- 523&#45;&gt;pular -->
<g id="edge7" class="edge"><title>523&#45;&gt;pular</title>
<path fill="none" stroke="green" stroke-width="0.144675" d="M2214.56,-112.66C2209.07,-109.43 2202.86,-106.175 2196.82,-103.882 2091.31,-63.8007 1957.86,-45.2795 1895.67,-38.3641"/>
<polygon fill="green" stroke="green" stroke-width="0.144675" points="1895.93,-34.8719 1885.61,-37.2785 1895.18,-41.8315 1895.93,-34.8719"/>
</g>
<!-- 560&#45;&gt;pular -->
<g id="edge10" class="edge"><title>560&#45;&gt;pular</title>
<path fill="none" stroke="green" stroke-width="0.143492" d="M1582.37,-111.499C1586.6,-108.696 1591.24,-105.948 1595.82,-103.882 1674.27,-68.5 1774.28,-48.6843 1826.13,-40.1125"/>
<polygon fill="green" stroke="green" stroke-width="0.143492" points="1826.83,-43.5462 1836.14,-38.4996 1825.71,-36.6353 1826.83,-43.5462"/>
</g>
<!-- 560&#45;&gt;atirar -->
<g id="edge42" class="edge"><title>560&#45;&gt;atirar</title>
<path fill="none" stroke="green" stroke-width="0.694271" d="M1546.18,-116.915C1532.75,-112.342 1514.45,-106.755 1497.82,-103.882 1201.34,-52.6632 1121.56,-93.9836 821.822,-67.8823 736.258,-60.4312 636.082,-47.1037 584.471,-39.8958"/>
<polygon fill="green" stroke="green" stroke-width="0.694271" points="584.906,-36.4226 574.516,-38.4972 583.932,-43.3546 584.906,-36.4226"/>
</g>
</g>
</svg>
