<?xml version="1.0" encoding="UTF-8" standalone="no"?>
<!DOCTYPE svg PUBLIC "-//W3C//DTD SVG 1.1//EN"
 "http://www.w3.org/Graphics/SVG/1.1/DTD/svg11.dtd">
<!-- Generated by graphviz version 2.38.0 (20140413.2041)
 -->
<!-- Title: %3 Pages: 1 -->
<svg width="2290pt" height="287pt"
 viewBox="0.00 0.00 2290.22 286.74" xmlns="http://www.w3.org/2000/svg" xmlns:xlink="http://www.w3.org/1999/xlink">
<g id="graph0" class="graph" transform="scale(1 1) rotate(0) translate(4 282.735)">
<title>%3</title>
<polygon fill="white" stroke="none" points="-4,4 -4,-282.735 2286.22,-282.735 2286.22,4 -4,4"/>
<!-- dintancia projetil 1 -->
<g id="node1" class="node"><title>dintancia projetil 1</title>
<polygon fill="lightgray" stroke="black" points="1109.07,-134.095 1025.07,-134.095 1025.07,-116.095 1109.07,-116.095 1109.07,-134.095"/>
<text text-anchor="middle" x="1067.07" y="-122.895" font-family="Times New Roman,serif" font-size="9.00">dintancia projetil 1</text>
</g>
<!-- esquerda -->
<g id="node21" class="node"><title>esquerda</title>
<ellipse fill="lightblue" stroke="black" cx="731.075" cy="-33.9411" rx="33.8824" ry="33.8824"/>
<text text-anchor="middle" x="731.075" y="-31.7411" font-family="Times New Roman,serif" font-size="9.00">esquerda</text>
</g>
<!-- dintancia projetil 1&#45;&gt;esquerda -->
<g id="edge1" class="edge"><title>dintancia projetil 1&#45;&gt;esquerda</title>
<path fill="none" stroke="green" stroke-width="0.608372" d="M1048.42,-115.941C1038.87,-111.961 1026.98,-107.306 1016.07,-103.882 949.426,-82.9568 930.966,-84.3398 863.075,-67.8823 833.185,-60.6365 799.55,-52.2391 773.713,-45.7363"/>
<polygon fill="green" stroke="green" stroke-width="0.608372" points="774.416,-42.304 763.864,-43.254 772.705,-49.0918 774.416,-42.304"/>
</g>
<!-- direita -->
<g id="node22" class="node"><title>direita</title>
<ellipse fill="lightblue" stroke="black" cx="1219.07" cy="-33.9411" rx="27.6545" ry="27.6545"/>
<text text-anchor="middle" x="1219.07" y="-31.7411" font-family="Times New Roman,serif" font-size="9.00">direita</text>
</g>
<!-- dintancia projetil 1&#45;&gt;direita -->
<g id="edge30" class="edge"><title>dintancia projetil 1&#45;&gt;direita</title>
<path fill="none" stroke="red" stroke-width="0.220168" d="M1080.83,-116.026C1104.61,-102.078 1154.01,-73.1067 1186.85,-53.8423"/>
<polygon fill="red" stroke="red" stroke-width="0.220168" points="1188.78,-56.7652 1195.64,-48.6868 1185.24,-50.7271 1188.78,-56.7652"/>
</g>
<!-- pular -->
<g id="node23" class="node"><title>pular</title>
<ellipse fill="lightblue" stroke="black" cx="897.075" cy="-33.9411" rx="25" ry="25"/>
<text text-anchor="middle" x="897.075" y="-31.7411" font-family="Times New Roman,serif" font-size="9.00">pular</text>
</g>
<!-- dintancia projetil 1&#45;&gt;pular -->
<g id="edge41" class="edge"><title>dintancia projetil 1&#45;&gt;pular</title>
<path fill="none" stroke="red" stroke-width="0.419712" d="M1051.69,-116.026C1023.78,-101.389 964.32,-70.2071 927.812,-51.0609"/>
<polygon fill="red" stroke="red" stroke-width="0.419712" points="929.095,-47.7817 918.614,-46.2368 925.844,-53.9809 929.095,-47.7817"/>
</g>
<!-- atirar -->
<g id="node24" class="node"><title>atirar</title>
<ellipse fill="lightblue" stroke="black" cx="1371.07" cy="-33.9411" rx="25" ry="25"/>
<text text-anchor="middle" x="1371.07" y="-31.7411" font-family="Times New Roman,serif" font-size="9.00">atirar</text>
</g>
<!-- dintancia projetil 1&#45;&gt;atirar -->
<g id="edge73" class="edge"><title>dintancia projetil 1&#45;&gt;atirar</title>
<path fill="none" stroke="green" stroke-width="0.110566" d="M1086.11,-115.946C1095.85,-111.967 1107.97,-107.311 1119.07,-103.882 1186.65,-83.0177 1206.06,-87.2769 1274.07,-67.8823 1295.82,-61.6809 1319.89,-53.5136 1338.62,-46.8629"/>
<polygon fill="green" stroke="green" stroke-width="0.110566" points="1339.92,-50.1147 1348.15,-43.4443 1337.56,-43.5256 1339.92,-50.1147"/>
</g>
<!-- release -->
<g id="node25" class="node"><title>release</title>
<ellipse fill="lightblue" stroke="black" cx="1468.07" cy="-33.9411" rx="28.9828" ry="28.9828"/>
<text text-anchor="middle" x="1468.07" y="-31.7411" font-family="Times New Roman,serif" font-size="9.00">release</text>
</g>
<!-- dintancia projetil 1&#45;&gt;release -->
<g id="edge23" class="edge"><title>dintancia projetil 1&#45;&gt;release</title>
<path fill="none" stroke="red" stroke-width="1.0708" stroke-dasharray="1,5" d="M1084.52,-116.036C1094.45,-111.777 1107.23,-106.834 1119.07,-103.882 1251.09,-70.9728 1296.47,-117.701 1423.07,-67.8823 1428.26,-65.8437 1433.38,-63.0591 1438.21,-59.9664"/>
<polygon fill="red" stroke="red" stroke-width="1.0708" points="1440.34,-62.7509 1446.54,-54.1613 1436.33,-57.0082 1440.34,-62.7509"/>
</g>
<!-- distancia projetil 2 -->
<g id="node2" class="node"><title>distancia projetil 2</title>
<polygon fill="lightgray" stroke="black" points="1210.57,-134.095 1127.57,-134.095 1127.57,-116.095 1210.57,-116.095 1210.57,-134.095"/>
<text text-anchor="middle" x="1169.07" y="-122.895" font-family="Times New Roman,serif" font-size="9.00">distancia projetil 2</text>
</g>
<!-- distancia projetil 2&#45;&gt;esquerda -->
<g id="edge9" class="edge"><title>distancia projetil 2&#45;&gt;esquerda</title>
<path fill="none" stroke="green" stroke-width="0.200916" d="M1151.49,-115.926C1141.81,-111.742 1129.49,-106.905 1118.07,-103.882 1007.43,-74.5906 975.42,-89.7687 863.075,-67.8823 832.886,-62.0011 799.257,-53.5801 773.497,-46.7247"/>
<polygon fill="green" stroke="green" stroke-width="0.200916" points="774.247,-43.3021 763.682,-44.087 772.431,-50.0623 774.247,-43.3021"/>
</g>
<!-- distancia projetil 2&#45;&gt;direita -->
<g id="edge91" class="edge"><title>distancia projetil 2&#45;&gt;direita</title>
<path fill="none" stroke="green" stroke-width="0.55603" d="M1173.69,-115.868C1179.87,-104.855 1191.18,-84.6846 1200.96,-67.2367"/>
<polygon fill="green" stroke="green" stroke-width="0.55603" points="1204.07,-68.8577 1205.91,-58.4237 1197.96,-65.4336 1204.07,-68.8577"/>
</g>
<!-- distancia projetil 2&#45;&gt;pular -->
<g id="edge39" class="edge"><title>distancia projetil 2&#45;&gt;pular</title>
<path fill="none" stroke="green" stroke-width="0.129346" d="M1149.83,-116.073C1140.33,-112.216 1128.67,-107.629 1118.07,-103.882 1052.3,-80.625 974.115,-57.2105 930.591,-44.545"/>
<polygon fill="green" stroke="green" stroke-width="0.129346" points="931.395,-41.134 920.816,-41.7117 929.446,-47.8573 931.395,-41.134"/>
</g>
<!-- distancia projetil 2&#45;&gt;atirar -->
<g id="edge21" class="edge"><title>distancia projetil 2&#45;&gt;atirar</title>
<path fill="none" stroke="red" stroke-width="0.218685" d="M1187.36,-116.026C1221.78,-100.836 1296.57,-67.8257 1339.35,-48.9425"/>
<polygon fill="red" stroke="red" stroke-width="0.218685" points="1341,-52.0419 1348.73,-44.8021 1338.17,-45.6379 1341,-52.0419"/>
</g>
<!-- distancia projetil 2&#45;&gt;release -->
<g id="edge44" class="edge"><title>distancia projetil 2&#45;&gt;release</title>
<path fill="none" stroke="green" stroke-width="0.178229" d="M1186.71,-116.086C1196.39,-111.949 1208.71,-107.105 1220.07,-103.882 1308.23,-78.8743 1338.81,-103.877 1423.07,-67.8823 1428.19,-65.6953 1433.28,-62.8289 1438.1,-59.6986"/>
<polygon fill="green" stroke="green" stroke-width="0.178229" points="1440.24,-62.4743 1446.42,-53.8689 1436.22,-56.7419 1440.24,-62.4743"/>
</g>
<!-- distancia projetil 3 -->
<g id="node3" class="node"><title>distancia projetil 3</title>
<polygon fill="lightgray" stroke="black" points="1908.57,-134.095 1825.57,-134.095 1825.57,-116.095 1908.57,-116.095 1908.57,-134.095"/>
<text text-anchor="middle" x="1867.07" y="-122.895" font-family="Times New Roman,serif" font-size="9.00">distancia projetil 3</text>
</g>
<!-- distancia projetil 3&#45;&gt;esquerda -->
<g id="edge50" class="edge"><title>distancia projetil 3&#45;&gt;esquerda</title>
<path fill="none" stroke="green" stroke-width="0.275738" d="M1850.98,-116.08C1841.15,-111.606 1828.19,-106.434 1816.07,-103.882 1401.31,-16.5403 1282.72,-127.515 863.075,-67.8823 832.522,-63.5405 798.772,-55.05 773.047,-47.7765"/>
<polygon fill="green" stroke="green" stroke-width="0.275738" points="773.831,-44.3602 763.253,-44.9569 771.894,-51.0869 773.831,-44.3602"/>
</g>
<!-- distancia projetil 3&#45;&gt;direita -->
<g id="edge16" class="edge"><title>distancia projetil 3&#45;&gt;direita</title>
<path fill="none" stroke="red" stroke-width="0.212416" stroke-dasharray="1,5" d="M1850.49,-116.039C1840.71,-111.669 1827.96,-106.616 1816.07,-103.882 1608.02,-56.0058 1547.35,-104.763 1337.07,-67.8823 1308.97,-62.9532 1277.92,-54.1445 1254.73,-46.8757"/>
<polygon fill="red" stroke="red" stroke-width="0.212416" points="1255.57,-43.4717 1244.98,-43.7674 1253.44,-50.1407 1255.57,-43.4717"/>
</g>
<!-- distancia projetil 3&#45;&gt;atirar -->
<g id="edge56" class="edge"><title>distancia projetil 3&#45;&gt;atirar</title>
<path fill="none" stroke="red" stroke-width="0.167292" stroke-dasharray="1,5" d="M1850.01,-115.915C1840.28,-111.619 1827.75,-106.678 1816.07,-103.882 1648.52,-63.7349 1594.62,-118.982 1430.07,-67.8823 1419.74,-64.6727 1409.19,-59.4987 1399.93,-54.1929"/>
<polygon fill="red" stroke="red" stroke-width="0.167292" points="1401.52,-51.0656 1391.14,-48.911 1397.91,-57.0643 1401.52,-51.0656"/>
</g>
<!-- distancia projetil 3&#45;&gt;release -->
<g id="edge24" class="edge"><title>distancia projetil 3&#45;&gt;release</title>
<path fill="none" stroke="red" stroke-width="0.538258" stroke-dasharray="1,5" d="M1848.94,-115.977C1839.33,-111.91 1827.22,-107.165 1816.07,-103.882 1706.1,-71.4888 1572.07,-49.7545 1507.11,-40.3044"/>
<polygon fill="red" stroke="red" stroke-width="0.538258" points="1507.32,-36.7979 1496.92,-38.8406 1506.32,-43.7268 1507.32,-36.7979"/>
</g>
<!-- distancia projetil 4 -->
<g id="node4" class="node"><title>distancia projetil 4</title>
<polygon fill="lightgray" stroke="black" points="1588.57,-278.735 1505.57,-278.735 1505.57,-260.735 1588.57,-260.735 1588.57,-278.735"/>
<text text-anchor="middle" x="1547.07" y="-267.535" font-family="Times New Roman,serif" font-size="9.00">distancia projetil 4</text>
</g>
<!-- distancia projetil 4&#45;&gt;esquerda -->
<g id="edge93" class="edge"><title>distancia projetil 4&#45;&gt;esquerda</title>
<path fill="none" stroke="red" stroke-width="0.201615" stroke-dasharray="1,5" d="M1505.3,-268.218C1275.33,-265.276 171.351,-249.884 104.075,-224.735 52.4684,-205.444 31.6865,-196.087 8.07492,-146.309 -0.00619795,-129.272 -4.60981,-117.834 8.07492,-103.882 53.8407,-53.5449 536.299,-39.0826 686.617,-35.7829"/>
<polygon fill="red" stroke="red" stroke-width="0.201615" points="686.932,-39.277 696.855,-35.5642 686.783,-32.2786 686.932,-39.277"/>
</g>
<!-- distancia projetil 4&#45;&gt;direita -->
<g id="edge22" class="edge"><title>distancia projetil 4&#45;&gt;direita</title>
<path fill="none" stroke="green" stroke-width="0.278445" d="M1549.1,-260.523C1555.14,-233.887 1570.08,-149.009 1528.07,-103.882 1469.22,-40.6542 1421.2,-87.5138 1337.07,-67.8823 1309.29,-61.3979 1278.22,-52.664 1254.94,-45.8186"/>
<polygon fill="green" stroke="green" stroke-width="0.278445" points="1255.74,-42.4037 1245.15,-42.9171 1253.75,-49.1151 1255.74,-42.4037"/>
</g>
<!-- distancia projetil 4&#45;&gt;pular -->
<g id="edge55" class="edge"><title>distancia projetil 4&#45;&gt;pular</title>
<path fill="none" stroke="green" stroke-width="0.525959" d="M1505.41,-268.794C1270.87,-268.688 122.105,-262.227 23.0749,-146.309 -88.5012,-15.7042 622.935,-97.8557 792.075,-67.8823 816.972,-63.4703 844.189,-54.8163 864.673,-47.4854"/>
<polygon fill="green" stroke="green" stroke-width="0.525959" points="865.961,-50.7412 874.148,-44.0173 863.555,-44.1677 865.961,-50.7412"/>
</g>
<!-- distancia projetil 4&#45;&gt;atirar -->
<g id="edge85" class="edge"><title>distancia projetil 4&#45;&gt;atirar</title>
<path fill="none" stroke="green" stroke-width="0.20209" d="M1588.86,-268.111C1728.23,-264.732 2161.14,-243.044 2030.07,-103.882 1984.29,-55.2634 1494.18,-86.6322 1430.07,-67.8823 1419.6,-64.8193 1408.95,-59.6344 1399.64,-54.2735"/>
<polygon fill="green" stroke="green" stroke-width="0.20209" points="1401.19,-51.1197 1390.82,-48.9261 1397.56,-57.1048 1401.19,-51.1197"/>
</g>
<!-- 133 -->
<g id="node26" class="node"><title>133</title>
<ellipse fill="white" stroke="black" cx="2145.07" cy="-203.522" rx="21.4286" ry="21.4286"/>
<text text-anchor="middle" x="2145.07" y="-201.322" font-family="Times New Roman,serif" font-size="9.00">133</text>
</g>
<!-- distancia projetil 4&#45;&gt;133 -->
<g id="edge78" class="edge"><title>distancia projetil 4&#45;&gt;133</title>
<path fill="none" stroke="red" stroke-width="0.373094" d="M1588.65,-264.271C1701.86,-252.114 2013.83,-218.614 2113.81,-207.879"/>
<polygon fill="red" stroke="red" stroke-width="0.373094" points="2114.31,-211.346 2123.87,-206.798 2113.56,-204.386 2114.31,-211.346"/>
</g>
<!-- distancia projetil 5 -->
<g id="node5" class="node"><title>distancia projetil 5</title>
<polygon fill="lightgray" stroke="black" points="1412.57,-134.095 1329.57,-134.095 1329.57,-116.095 1412.57,-116.095 1412.57,-134.095"/>
<text text-anchor="middle" x="1371.07" y="-122.895" font-family="Times New Roman,serif" font-size="9.00">distancia projetil 5</text>
</g>
<!-- distancia projetil 5&#45;&gt;esquerda -->
<g id="edge38" class="edge"><title>distancia projetil 5&#45;&gt;esquerda</title>
<path fill="none" stroke="red" stroke-width="0.238888" stroke-dasharray="1,5" d="M1354.82,-116.049C1345.24,-111.683 1332.74,-106.63 1321.07,-103.882 1122.33,-57.0728 1064.6,-100.715 863.075,-67.8823 832.616,-62.9199 798.864,-54.4423 773.115,-47.3302"/>
<polygon fill="red" stroke="red" stroke-width="0.238888" points="773.884,-43.9109 763.31,-44.5816 771.994,-50.651 773.884,-43.9109"/>
</g>
<!-- distancia projetil 5&#45;&gt;direita -->
<g id="edge11" class="edge"><title>distancia projetil 5&#45;&gt;direita</title>
<path fill="none" stroke="red" stroke-width="0.190996" d="M1357.32,-116.026C1333.54,-102.078 1284.14,-73.1067 1251.3,-53.8423"/>
<polygon fill="red" stroke="red" stroke-width="0.190996" points="1252.91,-50.7271 1242.51,-48.6868 1249.36,-56.7652 1252.91,-50.7271"/>
</g>
<!-- distancia projetil 5&#45;&gt;pular -->
<g id="edge99" class="edge"><title>distancia projetil 5&#45;&gt;pular</title>
<path fill="none" stroke="green" stroke-width="0.121865" d="M1353.82,-116.009C1344.34,-111.849 1332.26,-107.009 1321.07,-103.882 1179.71,-64.351 1005.09,-44.8543 931.912,-37.9528"/>
<polygon fill="green" stroke="green" stroke-width="0.121865" points="932.146,-34.4596 921.866,-37.025 931.502,-41.4299 932.146,-34.4596"/>
</g>
<!-- distancia projetil 5&#45;&gt;atirar -->
<g id="edge72" class="edge"><title>distancia projetil 5&#45;&gt;atirar</title>
<path fill="none" stroke="red" stroke-width="0.552249" d="M1371.07,-115.868C1371.07,-105.23 1371.07,-86.0459 1371.07,-69.0257"/>
<polygon fill="red" stroke="red" stroke-width="0.552249" points="1374.58,-68.8035 1371.07,-58.8036 1367.58,-68.8036 1374.58,-68.8035"/>
</g>
<!-- distancia projetil 5&#45;&gt;release -->
<g id="edge64" class="edge"><title>distancia projetil 5&#45;&gt;release</title>
<path fill="none" stroke="green" stroke-width="0.176746" d="M1380.03,-115.868C1393.42,-103.56 1419.26,-79.8119 1439.49,-61.2111"/>
<polygon fill="green" stroke="green" stroke-width="0.176746" points="1441.94,-63.7127 1446.94,-54.3687 1437.21,-58.5589 1441.94,-63.7127"/>
</g>
<!-- distancia projetil 6 -->
<g id="node6" class="node"><title>distancia projetil 6</title>
<polygon fill="lightgray" stroke="black" points="611.575,-212.522 528.575,-212.522 528.575,-194.522 611.575,-194.522 611.575,-212.522"/>
<text text-anchor="middle" x="570.075" y="-201.322" font-family="Times New Roman,serif" font-size="9.00">distancia projetil 6</text>
</g>
<!-- distancia projetil 6&#45;&gt;esquerda -->
<g id="edge83" class="edge"><title>distancia projetil 6&#45;&gt;esquerda</title>
<path fill="none" stroke="red" stroke-width="0.199401" d="M528.445,-200.398C422.27,-194.557 147.847,-176.642 121.075,-146.309 108.597,-132.171 108.513,-117.944 121.075,-103.882 158.708,-61.7559 552.375,-42.1211 686.561,-36.6169"/>
<polygon fill="red" stroke="red" stroke-width="0.199401" points="687.028,-40.101 696.879,-36.2007 686.746,-33.1067 687.028,-40.101"/>
</g>
<!-- distancia projetil 6&#45;&gt;direita -->
<g id="edge15" class="edge"><title>distancia projetil 6&#45;&gt;direita</title>
<path fill="none" stroke="green" stroke-width="0.572778" d="M611.697,-203.04C673.286,-202.078 790.611,-193.506 876.075,-146.309 898.496,-133.927 892.915,-116.725 915.075,-103.882 1001.43,-53.8373 1121.14,-40.1183 1181.32,-36.359"/>
<polygon fill="green" stroke="green" stroke-width="0.572778" points="1181.72,-39.8426 1191.5,-35.7838 1181.32,-32.8537 1181.72,-39.8426"/>
</g>
<!-- distancia projetil 6&#45;&gt;pular -->
<g id="edge20" class="edge"><title>distancia projetil 6&#45;&gt;pular</title>
<path fill="none" stroke="green" stroke-width="0.410439" d="M528.212,-202.243C427.859,-200.258 187.486,-186.952 265.075,-103.882 305.137,-60.9898 734.396,-78.7421 792.075,-67.8823 816.923,-63.2038 844.141,-54.5589 864.639,-47.2989"/>
<polygon fill="green" stroke="green" stroke-width="0.410439" points="865.908,-50.5619 874.122,-43.8696 863.527,-43.9791 865.908,-50.5619"/>
</g>
<!-- distancia projetil 6&#45;&gt;atirar -->
<g id="edge53" class="edge"><title>distancia projetil 6&#45;&gt;atirar</title>
<path fill="none" stroke="red" stroke-width="0.64772" stroke-dasharray="1,5" d="M611.63,-202.505C842.848,-202.211 1962.25,-198.111 2012.07,-146.309 2025.15,-132.718 2024.99,-117.621 2012.07,-103.882 1967.7,-56.6756 1492.24,-86.1292 1430.07,-67.8823 1419.61,-64.8096 1408.96,-59.6221 1399.64,-54.2617"/>
<polygon fill="red" stroke="red" stroke-width="0.64772" points="1401.19,-51.1079 1390.82,-48.9158 1397.56,-57.0935 1401.19,-51.1079"/>
</g>
<!-- distancia projetil 6&#45;&gt;release -->
<g id="edge65" class="edge"><title>distancia projetil 6&#45;&gt;release</title>
<path fill="none" stroke="green" stroke-width="0.194564" d="M611.766,-202.525C845.015,-202.346 1979.59,-198.773 2030.07,-146.309 2043.15,-132.721 2042.57,-118.004 2030.07,-103.882 1995.38,-64.6725 1629.22,-42.9781 1507.31,-36.8013"/>
<polygon fill="green" stroke="green" stroke-width="0.194564" points="1507.45,-33.3039 1497.29,-36.3007 1507.1,-40.2952 1507.45,-33.3039"/>
</g>
<!-- 152 -->
<g id="node28" class="node"><title>152</title>
<ellipse fill="white" stroke="black" cx="53.0749" cy="-125.095" rx="21.4286" ry="21.4286"/>
<text text-anchor="middle" x="53.0749" y="-122.895" font-family="Times New Roman,serif" font-size="9.00">152</text>
</g>
<!-- distancia projetil 6&#45;&gt;152 -->
<g id="edge48" class="edge"><title>distancia projetil 6&#45;&gt;152</title>
<path fill="none" stroke="green" stroke-width="0.493427" d="M528.561,-203.265C443.582,-203.588 244.622,-198.172 88.0749,-146.309 85.1067,-145.325 82.1112,-144.072 79.1881,-142.672"/>
<polygon fill="green" stroke="green" stroke-width="0.493427" points="80.684,-139.503 70.2182,-137.854 77.3715,-145.669 80.684,-139.503"/>
</g>
<!-- distancia projetil 7 -->
<g id="node7" class="node"><title>distancia projetil 7</title>
<polygon fill="lightgray" stroke="black" points="1006.57,-134.095 923.575,-134.095 923.575,-116.095 1006.57,-116.095 1006.57,-134.095"/>
<text text-anchor="middle" x="965.075" y="-122.895" font-family="Times New Roman,serif" font-size="9.00">distancia projetil 7</text>
</g>
<!-- distancia projetil 7&#45;&gt;direita -->
<g id="edge98" class="edge"><title>distancia projetil 7&#45;&gt;direita</title>
<path fill="none" stroke="green" stroke-width="0.208946" d="M984.847,-115.993C994.262,-112.203 1005.71,-107.695 1016.07,-103.882 1074.2,-82.5077 1142.53,-59.7927 1183.24,-46.5104"/>
<polygon fill="green" stroke="green" stroke-width="0.208946" points="1184.55,-49.7662 1192.97,-43.3434 1182.38,-43.1098 1184.55,-49.7662"/>
</g>
<!-- distancia projetil 7&#45;&gt;pular -->
<g id="edge70" class="edge"><title>distancia projetil 7&#45;&gt;pular</title>
<path fill="none" stroke="red" stroke-width="0.145895" d="M958.8,-115.868C949.562,-103.756 931.875,-80.5667 917.794,-62.1051"/>
<polygon fill="red" stroke="red" stroke-width="0.145895" points="920.468,-59.8409 911.621,-54.0123 914.903,-64.0861 920.468,-59.8409"/>
</g>
<!-- distancia projetil 7&#45;&gt;atirar -->
<g id="edge36" class="edge"><title>distancia projetil 7&#45;&gt;atirar</title>
<path fill="none" stroke="red" stroke-width="0.336244" d="M982.662,-115.919C992.333,-111.732 1004.66,-106.895 1016.07,-103.882 1128.02,-74.3428 1161.43,-94.6161 1274.07,-67.8823 1296.08,-62.6607 1320.15,-54.4999 1338.81,-47.6076"/>
<polygon fill="red" stroke="red" stroke-width="0.336244" points="1340.18,-50.8339 1348.31,-44.0388 1337.71,-44.2815 1340.18,-50.8339"/>
</g>
<!-- distancia projetil 8 -->
<g id="node8" class="node"><title>distancia projetil 8</title>
<polygon fill="lightgray" stroke="black" points="1311.57,-134.095 1228.57,-134.095 1228.57,-116.095 1311.57,-116.095 1311.57,-134.095"/>
<text text-anchor="middle" x="1270.07" y="-122.895" font-family="Times New Roman,serif" font-size="9.00">distancia projetil 8</text>
</g>
<!-- distancia projetil 8&#45;&gt;esquerda -->
<g id="edge77" class="edge"><title>distancia projetil 8&#45;&gt;esquerda</title>
<path fill="none" stroke="red" stroke-width="0.413086" d="M1253.35,-115.942C1243.82,-111.654 1231.53,-106.713 1220.07,-103.882 1065.26,-65.6133 1020.18,-95.2595 863.075,-67.8823 832.775,-62.6022 799.148,-54.1708 773.417,-47.1601"/>
<polygon fill="red" stroke="red" stroke-width="0.413086" points="774.185,-43.7412 763.614,-44.4539 772.322,-50.4888 774.185,-43.7412"/>
</g>
<!-- distancia projetil 8&#45;&gt;direita -->
<g id="edge6" class="edge"><title>distancia projetil 8&#45;&gt;direita</title>
<path fill="none" stroke="red" stroke-width="0.163025" d="M1265.37,-115.868C1259.07,-104.855 1247.53,-84.6846 1237.55,-67.2367"/>
<polygon fill="red" stroke="red" stroke-width="0.163025" points="1240.51,-65.3659 1232.51,-58.4237 1234.44,-68.8417 1240.51,-65.3659"/>
</g>
<!-- distancia projetil 8&#45;&gt;pular -->
<g id="edge34" class="edge"><title>distancia projetil 8&#45;&gt;pular</title>
<path fill="none" stroke="green" stroke-width="0.128502" d="M1252.3,-116.029C1242.86,-111.975 1231,-107.228 1220.07,-103.882 1117.15,-72.3566 991.486,-49.9943 931.779,-40.309"/>
<polygon fill="green" stroke="green" stroke-width="0.128502" points="932.185,-36.8295 921.757,-38.7023 931.076,-43.7412 932.185,-36.8295"/>
</g>
<!-- distancia projetil 8&#45;&gt;atirar -->
<g id="edge69" class="edge"><title>distancia projetil 8&#45;&gt;atirar</title>
<path fill="none" stroke="red" stroke-width="0.317779" stroke-dasharray="1,5" d="M1279.4,-115.868C1294.27,-102.738 1323.89,-76.5886 1345.45,-57.5578"/>
<polygon fill="red" stroke="red" stroke-width="0.317779" points="1347.81,-60.1476 1352.99,-50.9059 1343.18,-54.8997 1347.81,-60.1476"/>
</g>
<!-- distancia projetil 8&#45;&gt;release -->
<g id="edge97" class="edge"><title>distancia projetil 8&#45;&gt;release</title>
<path fill="none" stroke="red" stroke-width="0.454875" d="M1289.87,-116.048C1299.29,-112.27 1310.73,-107.757 1321.07,-103.882 1366.1,-87.0227 1380.56,-90.3201 1423.07,-67.8823 1428,-65.2839 1432.98,-62.1909 1437.75,-58.9565"/>
<polygon fill="red" stroke="red" stroke-width="0.454875" points="1439.92,-61.709 1446.03,-53.0584 1435.86,-56.0063 1439.92,-61.709"/>
</g>
<!-- distancia projetil 9 -->
<g id="node9" class="node"><title>distancia projetil 9</title>
<polygon fill="lightgray" stroke="black" points="357.575,-134.095 274.575,-134.095 274.575,-116.095 357.575,-116.095 357.575,-134.095"/>
<text text-anchor="middle" x="316.075" y="-122.895" font-family="Times New Roman,serif" font-size="9.00">distancia projetil 9</text>
</g>
<!-- distancia projetil 9&#45;&gt;esquerda -->
<g id="edge92" class="edge"><title>distancia projetil 9&#45;&gt;esquerda</title>
<path fill="none" stroke="green" stroke-width="0.474155" stroke-dasharray="1,5" d="M334.194,-115.939C343.809,-111.861 355.915,-107.119 367.075,-103.882 480.475,-70.9956 618.416,-49.8234 687.388,-40.476"/>
<polygon fill="green" stroke="green" stroke-width="0.474155" points="688.004,-43.9249 697.452,-39.13 687.076,-36.9866 688.004,-43.9249"/>
</g>
<!-- distancia projetil 9&#45;&gt;pular -->
<g id="edge54" class="edge"><title>distancia projetil 9&#45;&gt;pular</title>
<path fill="none" stroke="red" stroke-width="0.547812" d="M332.674,-116.082C342.458,-111.726 355.208,-106.673 367.075,-103.882 551.608,-60.495 606.075,-104.475 792.075,-67.8823 816.884,-63.0015 844.104,-54.3634 864.612,-47.1573"/>
<polygon fill="red" stroke="red" stroke-width="0.547812" points="865.867,-50.4256 874.1,-43.7575 863.505,-43.8358 865.867,-50.4256"/>
</g>
<!-- distancia projetil 9&#45;&gt;atirar -->
<g id="edge66" class="edge"><title>distancia projetil 9&#45;&gt;atirar</title>
<path fill="none" stroke="green" stroke-width="0.26379" d="M332.174,-116.088C341.999,-111.618 354.962,-106.445 367.075,-103.882 761.766,-20.3725 877.421,-141.506 1274.07,-67.8823 1296.31,-63.7554 1320.38,-55.6019 1338.99,-48.4396"/>
<polygon fill="green" stroke="green" stroke-width="0.26379" points="1340.43,-51.6327 1348.45,-44.7031 1337.86,-45.1223 1340.43,-51.6327"/>
</g>
<!-- distancia projetil 10 -->
<g id="node10" class="node"><title>distancia projetil 10</title>
<polygon fill="lightgray" stroke="black" points="1519.07,-134.095 1431.07,-134.095 1431.07,-116.095 1519.07,-116.095 1519.07,-134.095"/>
<text text-anchor="middle" x="1475.07" y="-122.895" font-family="Times New Roman,serif" font-size="9.00">distancia projetil 10</text>
</g>
<!-- distancia projetil 10&#45;&gt;esquerda -->
<g id="edge37" class="edge"><title>distancia projetil 10&#45;&gt;esquerda</title>
<path fill="none" stroke="red" stroke-width="0.172969" stroke-dasharray="1,5" d="M1457.81,-116C1447.64,-111.617 1434.39,-106.563 1422.07,-103.882 1178.81,-50.9298 1109.07,-106.178 863.075,-67.8823 832.582,-63.1352 798.831,-54.6531 773.09,-47.485"/>
<polygon fill="red" stroke="red" stroke-width="0.172969" points="773.865,-44.0668 763.289,-44.7118 771.959,-50.8023 773.865,-44.0668"/>
</g>
<!-- distancia projetil 10&#45;&gt;direita -->
<g id="edge71" class="edge"><title>distancia projetil 10&#45;&gt;direita</title>
<path fill="none" stroke="red" stroke-width="0.488685" stroke-dasharray="1,5" d="M1454.5,-116.046C1444.71,-112.268 1432.82,-107.755 1422.07,-103.882 1363.81,-82.8857 1295.52,-60.0574 1254.86,-46.6494"/>
<polygon fill="red" stroke="red" stroke-width="0.488685" points="1255.73,-43.252 1245.14,-43.4504 1253.54,-49.9012 1255.73,-43.252"/>
</g>
<!-- distancia projetil 10&#45;&gt;pular -->
<g id="edge79" class="edge"><title>distancia projetil 10&#45;&gt;pular</title>
<path fill="none" stroke="red" stroke-width="0.659837" d="M1456.78,-115.901C1446.72,-111.709 1433.91,-106.873 1422.07,-103.882 1374.53,-91.8696 1041.46,-51.9807 931.909,-39.0361"/>
<polygon fill="red" stroke="red" stroke-width="0.659837" points="932.069,-35.5307 921.728,-37.8346 931.248,-42.4825 932.069,-35.5307"/>
</g>
<!-- distancia projetil 10&#45;&gt;atirar -->
<g id="edge10" class="edge"><title>distancia projetil 10&#45;&gt;atirar</title>
<path fill="none" stroke="red" stroke-width="0.799094" stroke-dasharray="1,5" d="M1465.48,-115.868C1450.16,-102.738 1419.66,-76.5886 1397.46,-57.5578"/>
<polygon fill="red" stroke="red" stroke-width="0.799094" points="1399.57,-54.757 1389.7,-50.9059 1395.01,-60.0715 1399.57,-54.757"/>
</g>
<!-- distancia projetil 10&#45;&gt;release -->
<g id="edge63" class="edge"><title>distancia projetil 10&#45;&gt;release</title>
<path fill="none" stroke="green" stroke-width="0.134842" stroke-dasharray="1,5" d="M1474.43,-115.868C1473.66,-106.108 1472.33,-89.1554 1471.09,-73.2796"/>
<polygon fill="green" stroke="green" stroke-width="0.134842" points="1474.56,-72.7842 1470.28,-63.0889 1467.58,-73.3322 1474.56,-72.7842"/>
</g>
<!-- distancia projetil 11 -->
<g id="node11" class="node"><title>distancia projetil 11</title>
<polygon fill="lightgray" stroke="black" points="218.075,-134.095 130.075,-134.095 130.075,-116.095 218.075,-116.095 218.075,-134.095"/>
<text text-anchor="middle" x="174.075" y="-122.895" font-family="Times New Roman,serif" font-size="9.00">distancia projetil 11</text>
</g>
<!-- distancia projetil 11&#45;&gt;esquerda -->
<g id="edge82" class="edge"><title>distancia projetil 11&#45;&gt;esquerda</title>
<path fill="none" stroke="red" stroke-width="0.273772" stroke-dasharray="1,5" d="M193.914,-116.085C204.984,-111.895 219.116,-107.003 232.075,-103.882 397.319,-64.089 599.263,-44.9818 686.945,-38.0867"/>
<polygon fill="red" stroke="red" stroke-width="0.273772" points="687.36,-41.5651 697.061,-37.3058 686.821,-34.5859 687.36,-41.5651"/>
</g>
<!-- distancia projetil 11&#45;&gt;direita -->
<g id="edge52" class="edge"><title>distancia projetil 11&#45;&gt;direita</title>
<path fill="none" stroke="red" stroke-width="0.398492" d="M204.181,-116.089C221.8,-111.735 244.55,-106.682 265.075,-103.882 566.702,-62.7356 645.805,-94.3315 949.075,-67.8823 1032.48,-60.6084 1129.85,-47.611 1181.85,-40.3058"/>
<polygon fill="red" stroke="red" stroke-width="0.398492" points="1182.52,-43.7461 1191.93,-38.8808 1181.54,-36.815 1182.52,-43.7461"/>
</g>
<!-- distancia projetil 11&#45;&gt;pular -->
<g id="edge19" class="edge"><title>distancia projetil 11&#45;&gt;pular</title>
<path fill="none" stroke="red" stroke-width="0.416503" d="M193.042,-116.02C204.197,-111.644 218.697,-106.591 232.075,-103.882 476.518,-54.39 546.887,-113.538 792.075,-67.8823 816.932,-63.2536 844.15,-54.607 864.645,-47.3338"/>
<polygon fill="red" stroke="red" stroke-width="0.416503" points="865.918,-50.5954 874.127,-43.8972 863.532,-44.0144 865.918,-50.5954"/>
</g>
<!-- distancia projetil 12 -->
<g id="node12" class="node"><title>distancia projetil 12</title>
<polygon fill="lightgray" stroke="black" points="1663.07,-134.095 1575.07,-134.095 1575.07,-116.095 1663.07,-116.095 1663.07,-134.095"/>
<text text-anchor="middle" x="1619.07" y="-122.895" font-family="Times New Roman,serif" font-size="9.00">distancia projetil 12</text>
</g>
<!-- distancia projetil 12&#45;&gt;esquerda -->
<g id="edge28" class="edge"><title>distancia projetil 12&#45;&gt;esquerda</title>
<path fill="none" stroke="green" stroke-width="0.247073" d="M1588.55,-115.998C1570.99,-111.672 1548.44,-106.676 1528.07,-103.882 1234.83,-63.6555 1155.77,-111.915 863.075,-67.8823 832.558,-63.2913 798.807,-54.8059 773.073,-47.5973"/>
<polygon fill="green" stroke="green" stroke-width="0.247073" points="773.851,-44.1798 763.275,-44.8061 771.934,-50.9119 773.851,-44.1798"/>
</g>
<!-- distancia projetil 12&#45;&gt;direita -->
<g id="edge62" class="edge"><title>distancia projetil 12&#45;&gt;direita</title>
<path fill="none" stroke="green" stroke-width="0.736728" stroke-dasharray="1,5" d="M1598.67,-115.997C1587.68,-111.885 1573.79,-107.093 1561.07,-103.882 1463.31,-79.1951 1435.57,-89.4727 1337.07,-67.8823 1309.2,-61.7728 1278.14,-53.0209 1254.88,-46.0734"/>
<polygon fill="green" stroke="green" stroke-width="0.736728" points="1255.69,-42.6616 1245.11,-43.1221 1253.67,-49.3629 1255.69,-42.6616"/>
</g>
<!-- distancia projetil 12&#45;&gt;pular -->
<g id="edge90" class="edge"><title>distancia projetil 12&#45;&gt;pular</title>
<path fill="none" stroke="green" stroke-width="1.27559" d="M1587.24,-116.083C1569.85,-111.945 1547.88,-107.102 1528.07,-103.882 1375.47,-79.0789 1335.76,-84.7584 1182.07,-67.8823 1091.79,-57.9685 985.531,-45.465 931.857,-39.0907"/>
<polygon fill="green" stroke="green" stroke-width="1.27559" points="932.187,-35.6054 921.843,-37.9002 931.36,-42.5564 932.187,-35.6054"/>
</g>
<!-- distancia projetil 12&#45;&gt;atirar -->
<g id="edge18" class="edge"><title>distancia projetil 12&#45;&gt;atirar</title>
<path fill="none" stroke="green" stroke-width="0.223109" d="M1597.16,-116.067C1586.35,-112.209 1573.09,-107.622 1561.07,-103.882 1503.42,-85.9368 1485.95,-90.7657 1430.07,-67.8823 1420.06,-63.7808 1409.6,-58.3577 1400.32,-53.0982"/>
<polygon fill="green" stroke="green" stroke-width="0.223109" points="1401.89,-49.9631 1391.49,-47.9481 1398.36,-56.0098 1401.89,-49.9631"/>
</g>
<!-- distancia projetil 12&#45;&gt;release -->
<g id="edge7" class="edge"><title>distancia projetil 12&#45;&gt;release</title>
<path fill="none" stroke="green" stroke-width="0.548228" d="M1605.41,-116.026C1582.12,-102.274 1534.09,-73.9175 1501.47,-54.6597"/>
<polygon fill="green" stroke="green" stroke-width="0.548228" points="1503.11,-51.5594 1492.71,-49.489 1499.55,-57.5871 1503.11,-51.5594"/>
</g>
<!-- distancia projetil 13 -->
<g id="node13" class="node"><title>distancia projetil 13</title>
<polygon fill="lightgray" stroke="black" points="570.075,-134.095 482.075,-134.095 482.075,-116.095 570.075,-116.095 570.075,-134.095"/>
<text text-anchor="middle" x="526.075" y="-122.895" font-family="Times New Roman,serif" font-size="9.00">distancia projetil 13</text>
</g>
<!-- distancia projetil 13&#45;&gt;esquerda -->
<g id="edge76" class="edge"><title>distancia projetil 13&#45;&gt;esquerda</title>
<path fill="none" stroke="green" stroke-width="0.268992" d="M544.629,-116.026C577.501,-101.73 646.664,-71.6512 690.888,-52.4185"/>
<polygon fill="green" stroke="green" stroke-width="0.268992" points="692.421,-55.5684 700.195,-48.3706 689.629,-49.1492 692.421,-55.5684"/>
</g>
<!-- distancia projetil 13&#45;&gt;direita -->
<g id="edge46" class="edge"><title>distancia projetil 13&#45;&gt;direita</title>
<path fill="none" stroke="green" stroke-width="0.981158" d="M544.202,-115.955C554.514,-111.671 567.788,-106.73 580.075,-103.882 740.6,-66.6834 785.28,-85.8614 949.075,-67.8823 1032.07,-58.7717 1129.23,-46.5314 1181.38,-39.8311"/>
<polygon fill="green" stroke="green" stroke-width="0.981158" points="1182.03,-43.2766 1191.5,-38.528 1181.14,-36.3339 1182.03,-43.2766"/>
</g>
<!-- distancia projetil 13&#45;&gt;pular -->
<g id="edge33" class="edge"><title>distancia projetil 13&#45;&gt;pular</title>
<path fill="none" stroke="red" stroke-width="0.790467" d="M544.781,-116.091C555.046,-111.955 568.09,-107.112 580.075,-103.882 672.355,-79.0183 699.155,-90.2379 792.075,-67.8823 816.658,-61.9678 843.886,-53.3648 864.453,-46.4337"/>
<polygon fill="red" stroke="red" stroke-width="0.790467" points="865.641,-49.7267 873.975,-43.1846 863.38,-43.1019 865.641,-49.7267"/>
</g>
<!-- distancia projetil 13&#45;&gt;atirar -->
<g id="edge5" class="edge"><title>distancia projetil 13&#45;&gt;atirar</title>
<path fill="none" stroke="red" stroke-width="0.175071" stroke-dasharray="1,5" d="M543.666,-115.945C554.03,-111.544 567.53,-106.491 580.075,-103.882 882.467,-41.0087 970.751,-126.093 1274.07,-67.8823 1296.28,-63.6204 1320.36,-55.4659 1338.97,-48.337"/>
<polygon fill="red" stroke="red" stroke-width="0.175071" points="1340.4,-51.5344 1348.43,-44.6211 1337.84,-45.0188 1340.4,-51.5344"/>
</g>
<!-- distancia projetil 14 -->
<g id="node14" class="node"><title>distancia projetil 14</title>
<polygon fill="lightgray" stroke="black" points="1807.07,-134.095 1719.07,-134.095 1719.07,-116.095 1807.07,-116.095 1807.07,-134.095"/>
<text text-anchor="middle" x="1763.07" y="-122.895" font-family="Times New Roman,serif" font-size="9.00">distancia projetil 14</text>
</g>
<!-- distancia projetil 14&#45;&gt;esquerda -->
<g id="edge17" class="edge"><title>distancia projetil 14&#45;&gt;esquerda</title>
<path fill="none" stroke="red" stroke-width="0.332131" stroke-dasharray="1,5" d="M1732.98,-116.026C1715.36,-111.652 1692.61,-106.599 1672.07,-103.882 1315.27,-56.6822 1219.23,-119.714 863.075,-67.8823 832.536,-63.438 798.786,-54.9496 773.058,-47.7028"/>
<polygon fill="red" stroke="red" stroke-width="0.332131" points="773.839,-44.286 763.262,-44.8949 771.91,-51.015 773.839,-44.286"/>
</g>
<!-- distancia projetil 14&#45;&gt;direita -->
<g id="edge51" class="edge"><title>distancia projetil 14&#45;&gt;direita</title>
<path fill="none" stroke="green" stroke-width="0.167686" stroke-dasharray="1,5" d="M1743.81,-116.086C1732.68,-111.788 1718.3,-106.79 1705.07,-103.882 1544.57,-68.5922 1498.61,-98.0909 1337.07,-67.8823 1309.03,-62.6373 1277.97,-53.8438 1254.76,-46.661"/>
<polygon fill="green" stroke="green" stroke-width="0.167686" points="1255.6,-43.2551 1245.01,-43.5948 1253.5,-49.9329 1255.6,-43.2551"/>
</g>
<!-- distancia projetil 14&#45;&gt;pular -->
<g id="edge60" class="edge"><title>distancia projetil 14&#45;&gt;pular</title>
<path fill="none" stroke="red" stroke-width="0.389055" d="M1732.12,-116.046C1714.61,-111.791 1692.25,-106.848 1672.07,-103.882 1456.03,-72.1236 1399.47,-88.4229 1182.07,-67.8823 1091.65,-59.3389 985.451,-46.2536 931.822,-39.4311"/>
<polygon fill="red" stroke="red" stroke-width="0.389055" points="932.18,-35.9485 921.818,-38.1533 931.294,-42.8921 932.18,-35.9485"/>
</g>
<!-- distancia projetil 14&#45;&gt;atirar -->
<g id="edge88" class="edge"><title>distancia projetil 14&#45;&gt;atirar</title>
<path fill="none" stroke="green" stroke-width="0.246768" stroke-dasharray="1,5" d="M1743.24,-116.049C1732.18,-111.848 1718.04,-106.957 1705.07,-103.882 1585.13,-75.4501 1547.09,-106.621 1430.07,-67.8823 1419.8,-64.4811 1409.27,-59.2537 1400,-53.9578"/>
<polygon fill="green" stroke="green" stroke-width="0.246768" points="1401.59,-50.8295 1391.21,-48.7042 1398,-56.8384 1401.59,-50.8295"/>
</g>
<!-- distancia projetil 14&#45;&gt;release -->
<g id="edge96" class="edge"><title>distancia projetil 14&#45;&gt;release</title>
<path fill="none" stroke="green" stroke-width="0.469011" d="M1740.86,-116.047C1730.1,-112.227 1716.96,-107.679 1705.07,-103.882 1635.1,-81.529 1552.57,-58.1997 1505.68,-45.2244"/>
<polygon fill="green" stroke="green" stroke-width="0.469011" points="1506.52,-41.8261 1495.95,-42.5399 1504.66,-48.5739 1506.52,-41.8261"/>
</g>
<!-- distancia projetil 15 -->
<g id="node15" class="node"><title>distancia projetil 15</title>
<polygon fill="lightgray" stroke="black" points="464.075,-134.095 376.075,-134.095 376.075,-116.095 464.075,-116.095 464.075,-134.095"/>
<text text-anchor="middle" x="420.075" y="-122.895" font-family="Times New Roman,serif" font-size="9.00">distancia projetil 15</text>
</g>
<!-- distancia projetil 15&#45;&gt;esquerda -->
<g id="edge68" class="edge"><title>distancia projetil 15&#45;&gt;esquerda</title>
<path fill="none" stroke="green" stroke-width="0.664364" d="M439.785,-116.022C449.688,-112.109 461.924,-107.488 473.075,-103.882 547.932,-79.6778 636.907,-57.2709 688.395,-44.913"/>
<polygon fill="green" stroke="green" stroke-width="0.664364" points="689.263,-48.3041 698.177,-42.5778 687.638,-41.4954 689.263,-48.3041"/>
</g>
<!-- distancia projetil 15&#45;&gt;direita -->
<g id="edge32" class="edge"><title>distancia projetil 15&#45;&gt;direita</title>
<path fill="none" stroke="red" stroke-width="0.266039" stroke-dasharray="1,5" d="M437.349,-116.051C447.523,-111.685 460.773,-106.632 473.075,-103.882 680.125,-57.5993 737.942,-88.7347 949.075,-67.8823 1032.17,-59.6755 1129.28,-47.0906 1181.41,-40.0905"/>
<polygon fill="red" stroke="red" stroke-width="0.266039" points="1182.08,-43.5318 1191.52,-38.7266 1181.15,-36.5946 1182.08,-43.5318"/>
</g>
<!-- distancia projetil 15&#45;&gt;pular -->
<g id="edge3" class="edge"><title>distancia projetil 15&#45;&gt;pular</title>
<path fill="none" stroke="green" stroke-width="0.535456" d="M437.868,-116.019C447.99,-111.754 461.017,-106.812 473.075,-103.882 611.718,-70.194 652.478,-97.3721 792.075,-67.8823 816.813,-62.6562 844.036,-54.0299 864.562,-46.9156"/>
<polygon fill="green" stroke="green" stroke-width="0.535456" points="865.794,-50.1926 874.061,-43.5661 863.466,-43.591 865.794,-50.1926"/>
</g>
<!-- distancia projetil 15&#45;&gt;atirar -->
<g id="edge74" class="edge"><title>distancia projetil 15&#45;&gt;atirar</title>
<path fill="none" stroke="green" stroke-width="0.128747" d="M437.318,-115.91C447.483,-111.497 460.733,-106.444 473.075,-103.882 821.999,-31.4671 923.872,-133.835 1274.07,-67.8823 1296.3,-63.6972 1320.37,-55.5432 1338.98,-48.3953"/>
<polygon fill="green" stroke="green" stroke-width="0.128747" points="1340.42,-51.5903 1348.44,-44.6677 1337.85,-45.0777 1340.42,-51.5903"/>
</g>
<!-- distancia projetil 16 -->
<g id="node16" class="node"><title>distancia projetil 16</title>
<polygon fill="lightgray" stroke="black" points="2189.07,-278.735 2101.07,-278.735 2101.07,-260.735 2189.07,-260.735 2189.07,-278.735"/>
<text text-anchor="middle" x="2145.07" y="-267.535" font-family="Times New Roman,serif" font-size="9.00">distancia projetil 16</text>
</g>
<!-- distancia projetil 16&#45;&gt;esquerda -->
<g id="edge12" class="edge"><title>distancia projetil 16&#45;&gt;esquerda</title>
<path fill="none" stroke="green" stroke-width="0.390464" d="M2100.8,-267.881C1856.7,-263.125 680.239,-239.594 519.075,-224.735 296.834,-204.245 168.043,-316 23.0749,-146.309 10.8269,-131.972 10.4042,-117.847 23.0749,-103.882 67.7999,-54.5907 539.259,-39.4277 687.035,-35.8681"/>
<polygon fill="green" stroke="green" stroke-width="0.390464" points="687.191,-39.3655 697.106,-35.6315 687.026,-32.3674 687.191,-39.3655"/>
</g>
<!-- distancia projetil 16&#45;&gt;direita -->
<g id="edge42" class="edge"><title>distancia projetil 16&#45;&gt;direita</title>
<path fill="none" stroke="green" stroke-width="0.218329" d="M2100.75,-264.508C2018.21,-254.936 1837.74,-225.882 1710.07,-146.309 1688.59,-132.919 1694.6,-115.43 1672.07,-103.882 1538.82,-35.5687 1484.14,-96.1104 1337.07,-67.8823 1309.05,-62.5037 1278,-53.7166 1254.78,-46.5702"/>
<polygon fill="green" stroke="green" stroke-width="0.218329" points="1255.61,-43.1634 1245.03,-43.5217 1253.53,-49.8449 1255.61,-43.1634"/>
</g>
<!-- distancia projetil 16&#45;&gt;atirar -->
<g id="edge2" class="edge"><title>distancia projetil 16&#45;&gt;atirar</title>
<path fill="none" stroke="red" stroke-width="0.516788" stroke-dasharray="1,5" d="M2154.97,-260.481C2185.08,-234.423 2270.78,-152.753 2224.07,-103.882 2163.06,-40.0371 1515.02,-92.0554 1430.07,-67.8823 1419.58,-64.8959 1408.93,-59.732 1399.61,-54.3667"/>
<polygon fill="red" stroke="red" stroke-width="0.516788" points="1401.16,-51.213 1390.8,-49.0076 1397.52,-57.1939 1401.16,-51.213"/>
</g>
<!-- distancia projetil 16&#45;&gt;release -->
<g id="edge31" class="edge"><title>distancia projetil 16&#45;&gt;release</title>
<path fill="none" stroke="red" stroke-width="0.351626" d="M2189.21,-263.435C2213.58,-258.003 2241.9,-247.004 2257.07,-224.735 2287.32,-180.351 2293.36,-143.481 2257.07,-103.882 2205.99,-48.1354 1660.15,-37.2895 1507.52,-35.3408"/>
<polygon fill="red" stroke="red" stroke-width="0.351626" points="1507.27,-31.8375 1497.23,-35.2154 1507.18,-38.837 1507.27,-31.8375"/>
</g>
<!-- distancia projetil 16&#45;&gt;133 -->
<g id="edge40" class="edge"><title>distancia projetil 16&#45;&gt;133</title>
<path fill="none" stroke="green" stroke-width="0.232081" d="M2145.07,-260.602C2145.07,-254.06 2145.07,-244.431 2145.07,-234.991"/>
<polygon fill="green" stroke="green" stroke-width="0.232081" points="2148.58,-234.977 2145.07,-224.977 2141.58,-234.977 2148.58,-234.977"/>
</g>
<!-- distancia inimigo 1 -->
<g id="node17" class="node"><title>distancia inimigo 1</title>
<polygon fill="lightgray" stroke="black" points="671.575,-134.095 588.575,-134.095 588.575,-116.095 671.575,-116.095 671.575,-134.095"/>
<text text-anchor="middle" x="630.075" y="-122.895" font-family="Times New Roman,serif" font-size="9.00">distancia inimigo 1</text>
</g>
<!-- distancia inimigo 1&#45;&gt;esquerda -->
<g id="edge27" class="edge"><title>distancia inimigo 1&#45;&gt;esquerda</title>
<path fill="none" stroke="red" stroke-width="0.392624" d="M639.396,-115.868C652.646,-104.171 677.601,-82.1437 698.132,-64.02"/>
<polygon fill="red" stroke="red" stroke-width="0.392624" points="700.57,-66.5365 705.751,-57.2947 695.938,-61.2885 700.57,-66.5365"/>
</g>
<!-- distancia inimigo 1&#45;&gt;direita -->
<g id="edge80" class="edge"><title>distancia inimigo 1&#45;&gt;direita</title>
<path fill="none" stroke="red" stroke-width="0.385999" stroke-dasharray="1,5" d="M647.183,-116.07C656.918,-111.823 669.455,-106.879 681.075,-103.882 705.416,-97.6049 1063.53,-53.8255 1181.62,-39.4806"/>
<polygon fill="red" stroke="red" stroke-width="0.385999" points="1182.13,-42.9439 1191.64,-38.264 1181.29,-35.9949 1182.13,-42.9439"/>
</g>
<!-- distancia inimigo 1&#45;&gt;pular -->
<g id="edge89" class="edge"><title>distancia inimigo 1&#45;&gt;pular</title>
<path fill="none" stroke="red" stroke-width="0.122874" d="M649.816,-115.907C659.224,-112.098 670.671,-107.599 681.075,-103.882 698.567,-97.6326 807.689,-63.1204 863.812,-45.4198"/>
<polygon fill="red" stroke="red" stroke-width="0.122874" points="865.155,-48.666 873.64,-42.321 863.051,-41.99 865.155,-48.666"/>
</g>
<!-- distancia inimigo 1&#45;&gt;atirar -->
<g id="edge61" class="edge"><title>distancia inimigo 1&#45;&gt;atirar</title>
<path fill="none" stroke="green" stroke-width="0.786289" d="M646.65,-115.975C656.425,-111.584 669.175,-106.531 681.075,-103.882 938.81,-46.5212 1014.99,-118.787 1274.07,-67.8823 1296.26,-63.5226 1320.34,-55.3675 1338.95,-48.2627"/>
<polygon fill="green" stroke="green" stroke-width="0.786289" points="1340.38,-51.4632 1348.42,-44.5618 1337.83,-44.9439 1340.38,-51.4632"/>
</g>
<!-- distancia inimigo 1&#45;&gt;release -->
<g id="edge29" class="edge"><title>distancia inimigo 1&#45;&gt;release</title>
<path fill="none" stroke="red" stroke-width="0.164874" stroke-dasharray="1,5" d="M646.638,-115.921C656.409,-111.512 669.159,-106.458 681.075,-103.882 842.43,-68.9991 1267.45,-122.965 1423.07,-67.8823 1428.44,-65.9843 1433.71,-63.2226 1438.65,-60.0935"/>
<polygon fill="red" stroke="red" stroke-width="0.164874" points="1440.93,-62.7665 1447.13,-54.1717 1436.93,-57.0273 1440.93,-62.7665"/>
</g>
<!-- distancia inimigo 2 -->
<g id="node18" class="node"><title>distancia inimigo 2</title>
<polygon fill="lightgray" stroke="black" points="772.575,-134.095 689.575,-134.095 689.575,-116.095 772.575,-116.095 772.575,-134.095"/>
<text text-anchor="middle" x="731.075" y="-122.895" font-family="Times New Roman,serif" font-size="9.00">distancia inimigo 2</text>
</g>
<!-- distancia inimigo 2&#45;&gt;esquerda -->
<g id="edge75" class="edge"><title>distancia inimigo 2&#45;&gt;esquerda</title>
<path fill="none" stroke="green" stroke-width="0.31576" d="M731.075,-115.868C731.075,-107.126 731.075,-92.615 731.075,-78.2752"/>
<polygon fill="green" stroke="green" stroke-width="0.31576" points="734.575,-77.9489 731.075,-67.9489 727.575,-77.9489 734.575,-77.9489"/>
</g>
<!-- distancia inimigo 2&#45;&gt;direita -->
<g id="edge4" class="edge"><title>distancia inimigo 2&#45;&gt;direita</title>
<path fill="none" stroke="red" stroke-width="0.237907" d="M748.684,-116C758.361,-111.837 770.683,-106.997 782.075,-103.882 926.776,-64.3163 1105.05,-44.9941 1181.44,-38.0566"/>
<polygon fill="red" stroke="red" stroke-width="0.237907" points="1181.88,-41.5315 1191.53,-37.1591 1181.26,-34.5591 1181.88,-41.5315"/>
</g>
<!-- distancia inimigo 2&#45;&gt;pular -->
<g id="edge13" class="edge"><title>distancia inimigo 2&#45;&gt;pular</title>
<path fill="none" stroke="green" stroke-width="0.378661" d="M746.099,-116.026C773.206,-101.468 830.788,-70.5419 866.484,-51.3707"/>
<polygon fill="green" stroke="green" stroke-width="0.378661" points="868.338,-54.3479 875.492,-46.5329 865.026,-48.1811 868.338,-54.3479"/>
</g>
<!-- distancia inimigo 2&#45;&gt;atirar -->
<g id="edge45" class="edge"><title>distancia inimigo 2&#45;&gt;atirar</title>
<path fill="none" stroke="green" stroke-width="0.6511" d="M747.663,-116.03C757.442,-111.658 770.192,-106.604 782.075,-103.882 995.79,-54.9247 1059.2,-111.486 1274.07,-67.8823 1296.24,-63.3851 1320.31,-55.2291 1338.93,-48.1581"/>
<polygon fill="green" stroke="green" stroke-width="0.6511" points="1340.35,-51.363 1348.4,-44.4784 1337.81,-44.8383 1340.35,-51.363"/>
</g>
<!-- distancia inimigo 2&#45;&gt;release -->
<g id="edge94" class="edge"><title>distancia inimigo 2&#45;&gt;release</title>
<path fill="none" stroke="green" stroke-width="0.146071" d="M747.646,-115.955C757.419,-111.557 770.169,-106.504 782.075,-103.882 921.406,-73.2039 1288.76,-115.998 1423.07,-67.8823 1428.43,-65.9639 1433.7,-63.1911 1438.63,-60.0571"/>
<polygon fill="green" stroke="green" stroke-width="0.146071" points="1440.92,-62.729 1447.11,-54.1324 1436.91,-56.9909 1440.92,-62.729"/>
</g>
<!-- direcao sprites 1 -->
<g id="node19" class="node"><title>direcao sprites 1</title>
<polygon fill="lightgray" stroke="black" points="2003.07,-134.095 1927.07,-134.095 1927.07,-116.095 2003.07,-116.095 2003.07,-134.095"/>
<text text-anchor="middle" x="1965.07" y="-122.895" font-family="Times New Roman,serif" font-size="9.00">direcao sprites 1</text>
</g>
<!-- direcao sprites 1&#45;&gt;direita -->
<g id="edge86" class="edge"><title>direcao sprites 1&#45;&gt;direita</title>
<path fill="none" stroke="green" stroke-width="0.191109" stroke-dasharray="1,5" d="M1949.87,-115.966C1940.88,-111.572 1929.13,-106.519 1918.07,-103.882 1666.41,-43.8885 1592.19,-110.902 1337.07,-67.8823 1308.94,-63.1378 1277.89,-54.3203 1254.7,-47.0012"/>
<polygon fill="green" stroke="green" stroke-width="0.191109" points="1255.55,-43.5981 1244.96,-43.8684 1253.41,-50.262 1255.55,-43.5981"/>
</g>
<!-- direcao sprites 1&#45;&gt;pular -->
<g id="edge59" class="edge"><title>direcao sprites 1&#45;&gt;pular</title>
<path fill="none" stroke="green" stroke-width="0.377032" d="M1949.88,-115.912C1940.9,-111.5 1929.15,-106.447 1918.07,-103.882 1758.54,-66.947 1345.28,-81.2904 1182.07,-67.8823 1091.56,-60.4455 985.395,-46.8904 931.798,-39.7059"/>
<polygon fill="green" stroke="green" stroke-width="0.377032" points="932.178,-36.2255 921.8,-38.3576 931.242,-43.1627 932.178,-36.2255"/>
</g>
<!-- direcao sprites 1&#45;&gt;atirar -->
<g id="edge26" class="edge"><title>direcao sprites 1&#45;&gt;atirar</title>
<path fill="none" stroke="green" stroke-width="0.114303" d="M1949.86,-116.015C1940.87,-111.637 1929.12,-106.584 1918.07,-103.882 1706.82,-52.209 1638.38,-130.367 1430.07,-67.8823 1419.62,-64.7476 1408.98,-59.5431 1399.66,-54.1863"/>
<polygon fill="green" stroke="green" stroke-width="0.114303" points="1401.21,-51.0323 1390.84,-48.8498 1397.59,-57.0213 1401.21,-51.0323"/>
</g>
<!-- direcao sprites 1&#45;&gt;release -->
<g id="edge95" class="edge"><title>direcao sprites 1&#45;&gt;release</title>
<path fill="none" stroke="green" stroke-width="0.136506" d="M1948.92,-115.935C1940.02,-111.754 1928.66,-106.916 1918.07,-103.882 1769.74,-61.3741 1585.93,-43.6054 1507.03,-37.565"/>
<polygon fill="green" stroke="green" stroke-width="0.136506" points="1507.28,-34.0742 1497.05,-36.8212 1506.76,-41.0548 1507.28,-34.0742"/>
</g>
<!-- direcao sprites 2 -->
<g id="node20" class="node"><title>direcao sprites 2</title>
<polygon fill="lightgray" stroke="black" points="867.075,-134.095 791.075,-134.095 791.075,-116.095 867.075,-116.095 867.075,-134.095"/>
<text text-anchor="middle" x="829.075" y="-122.895" font-family="Times New Roman,serif" font-size="9.00">direcao sprites 2</text>
</g>
<!-- direcao sprites 2&#45;&gt;esquerda -->
<g id="edge67" class="edge"><title>direcao sprites 2&#45;&gt;esquerda</title>
<path fill="none" stroke="red" stroke-width="0.126463" stroke-dasharray="1,5" d="M820.031,-115.868C807.314,-104.299 783.488,-82.6232 763.693,-64.6147"/>
<polygon fill="red" stroke="red" stroke-width="0.126463" points="765.81,-61.8096 756.058,-57.6692 761.1,-66.9876 765.81,-61.8096"/>
</g>
<!-- direcao sprites 2&#45;&gt;pular -->
<g id="edge25" class="edge"><title>direcao sprites 2&#45;&gt;pular</title>
<path fill="none" stroke="red" stroke-width="0.117452" d="M835.35,-115.868C844.588,-103.756 862.275,-80.5667 876.356,-62.1051"/>
<polygon fill="red" stroke="red" stroke-width="0.117452" points="879.247,-64.0861 882.529,-54.0123 873.681,-59.8409 879.247,-64.0861"/>
</g>
<!-- direcao sprites 2&#45;&gt;atirar -->
<g id="edge58" class="edge"><title>direcao sprites 2&#45;&gt;atirar</title>
<path fill="none" stroke="green" stroke-width="0.14881" d="M859.128,-116.013C875.553,-111.854 896.316,-107.013 915.075,-103.882 1073.24,-77.4808 1117.37,-101.884 1274.07,-67.8823 1296.17,-63.0874 1320.25,-54.9294 1338.89,-47.9319"/>
<polygon fill="green" stroke="green" stroke-width="0.14881" points="1340.28,-51.1458 1348.36,-44.2977 1337.77,-44.6097 1340.28,-51.1458"/>
</g>
<!-- direcao sprites 2&#45;&gt;release -->
<g id="edge43" class="edge"><title>direcao sprites 2&#45;&gt;release</title>
<path fill="none" stroke="green" stroke-width="0.290492" d="M858.302,-115.998C874.837,-111.727 895.969,-106.785 915.075,-103.882 1026.96,-86.8808 1316.82,-106.829 1423.07,-67.8823 1428.42,-65.9247 1433.68,-63.1308 1438.61,-59.9874"/>
<polygon fill="green" stroke="green" stroke-width="0.290492" points="1440.9,-62.6572 1447.09,-54.0571 1436.89,-56.9213 1440.9,-62.6572"/>
</g>
<!-- esquerda&#45;&gt;esquerda -->
<g id="edge87" class="edge"><title>esquerda&#45;&gt;esquerda</title>
<path fill="none" stroke="red" stroke-width="0.20723" d="M760.704,-50.6915C772.807,-51.7414 783.016,-46.1579 783.016,-33.9411 783.016,-25.3512 777.969,-20.0407 770.765,-18.0096"/>
<polygon fill="red" stroke="red" stroke-width="0.20723" points="770.955,-14.5136 760.704,-17.1908 770.388,-21.4905 770.955,-14.5136"/>
</g>
<!-- direita&#45;&gt;direita -->
<g id="edge14" class="edge"><title>direita&#45;&gt;direita</title>
<path fill="none" stroke="green" stroke-width="0.110096" d="M1241.59,-50.1199C1253.66,-52.8692 1264.65,-47.4763 1264.65,-33.9411 1264.65,-24.4242 1259.22,-18.9327 1251.79,-17.4666"/>
<polygon fill="green" stroke="green" stroke-width="0.110096" points="1251.48,-13.9741 1241.59,-17.7624 1251.68,-20.9711 1251.48,-13.9741"/>
</g>
<!-- pular&#45;&gt;pular -->
<g id="edge35" class="edge"><title>pular&#45;&gt;pular</title>
<path fill="none" stroke="green" stroke-width="0.34992" stroke-dasharray="1,5" d="M916.419,-49.6255C928.411,-53.4075 939.824,-48.1794 939.824,-33.9411 939.824,-23.8186 934.055,-18.2501 926.411,-17.2356"/>
<polygon fill="green" stroke="green" stroke-width="0.34992" points="926.011,-13.7582 916.419,-18.2568 926.723,-20.7219 926.011,-13.7582"/>
</g>
<!-- atirar&#45;&gt;atirar -->
<g id="edge81" class="edge"><title>atirar&#45;&gt;atirar</title>
<path fill="none" stroke="green" stroke-width="0.190494" stroke-dasharray="1,5" d="M1390.42,-49.6255C1402.41,-53.4075 1413.82,-48.1794 1413.82,-33.9411 1413.82,-23.8186 1408.06,-18.2501 1400.41,-17.2356"/>
<polygon fill="green" stroke="green" stroke-width="0.190494" points="1400.01,-13.7582 1390.42,-18.2568 1400.72,-20.7219 1400.01,-13.7582"/>
</g>
<!-- release&#45;&gt;release -->
<g id="edge84" class="edge"><title>release&#45;&gt;release</title>
<path fill="none" stroke="green" stroke-width="0.405011" d="M1492.25,-50.3176C1504.31,-52.5836 1515.07,-47.1247 1515.07,-33.9411 1515.07,-24.6714 1509.75,-19.2207 1502.4,-17.589"/>
<polygon fill="green" stroke="green" stroke-width="0.405011" points="1502.26,-14.0888 1492.25,-17.5646 1502.24,-21.0887 1502.26,-14.0888"/>
</g>
<!-- 133&#45;&gt;atirar -->
<g id="edge47" class="edge"><title>133&#45;&gt;atirar</title>
<path fill="none" stroke="green" stroke-width="0.271675" d="M2138.96,-182.926C2130.53,-159.552 2112.88,-121.438 2083.07,-103.882 1957.86,-30.1165 1569.66,-108.345 1430.07,-67.8823 1419.6,-64.8447 1408.94,-59.6668 1399.63,-54.3044"/>
<polygon fill="green" stroke="green" stroke-width="0.271675" points="1401.18,-51.1506 1390.81,-48.9531 1397.55,-57.1343 1401.18,-51.1506"/>
</g>
<!-- 138 -->
<g id="node27" class="node"><title>138</title>
<ellipse fill="white" stroke="black" cx="2194.07" cy="-125.095" rx="21.4286" ry="21.4286"/>
<text text-anchor="middle" x="2194.07" y="-122.895" font-family="Times New Roman,serif" font-size="9.00">138</text>
</g>
<!-- 133&#45;&gt;138 -->
<g id="edge49" class="edge"><title>133&#45;&gt;138</title>
<path fill="none" stroke="green" stroke-width="0.394428" d="M2156.19,-185.18C2162.46,-175.408 2170.41,-163.01 2177.4,-152.097"/>
<polygon fill="green" stroke="green" stroke-width="0.394428" points="2180.55,-153.677 2183,-143.369 2174.66,-149.898 2180.55,-153.677"/>
</g>
<!-- 138&#45;&gt;atirar -->
<g id="edge8" class="edge"><title>138&#45;&gt;atirar</title>
<path fill="none" stroke="green" stroke-width="0.969103" d="M2177.01,-112.084C2171.53,-108.83 2165.27,-105.707 2159.07,-103.882 1847.91,-12.1987 1741.9,-157.305 1430.07,-67.8823 1419.59,-64.8747 1408.93,-59.705 1399.62,-54.341"/>
<polygon fill="green" stroke="green" stroke-width="0.969103" points="1401.17,-51.1872 1390.8,-48.9851 1397.53,-57.1693 1401.17,-51.1872"/>
</g>
<!-- 152&#45;&gt;esquerda -->
<g id="edge57" class="edge"><title>152&#45;&gt;esquerda</title>
<path fill="none" stroke="red" stroke-width="0.483535" d="M70.2067,-112.302C75.6911,-109.057 81.9375,-105.884 88.0749,-103.882 200.07,-67.3554 560.521,-44.3874 686.84,-37.2935"/>
<polygon fill="red" stroke="red" stroke-width="0.483535" points="687.137,-40.7825 696.927,-36.7329 686.748,-33.7933 687.137,-40.7825"/>
</g>
</g>
</svg>
