<?xml version="1.0" encoding="UTF-8" standalone="no"?>
<!DOCTYPE svg PUBLIC "-//W3C//DTD SVG 1.1//EN"
 "http://www.w3.org/Graphics/SVG/1.1/DTD/svg11.dtd">
<!-- Generated by graphviz version 2.38.0 (20140413.2041)
 -->
<!-- Title: %3 Pages: 1 -->
<svg width="2345pt" height="208pt"
 viewBox="0.00 0.00 2345.37 208.31" xmlns="http://www.w3.org/2000/svg" xmlns:xlink="http://www.w3.org/1999/xlink">
<g id="graph0" class="graph" transform="scale(1 1) rotate(0) translate(4 204.309)">
<title>%3</title>
<polygon fill="white" stroke="none" points="-4,4 -4,-204.309 2341.37,-204.309 2341.37,4 -4,4"/>
<!-- dintancia projetil 1 -->
<g id="node1" class="node"><title>dintancia projetil 1</title>
<polygon fill="lightgray" stroke="black" points="900.302,-134.095 816.302,-134.095 816.302,-116.095 900.302,-116.095 900.302,-134.095"/>
<text text-anchor="middle" x="858.302" y="-122.895" font-family="Times New Roman,serif" font-size="9.00">dintancia projetil 1</text>
</g>
<!-- esquerda -->
<g id="node21" class="node"><title>esquerda</title>
<ellipse fill="lightblue" stroke="black" cx="1676.3" cy="-33.9411" rx="33.8824" ry="33.8824"/>
<text text-anchor="middle" x="1676.3" y="-31.7411" font-family="Times New Roman,serif" font-size="9.00">esquerda</text>
</g>
<!-- dintancia projetil 1&#45;&gt;esquerda -->
<g id="edge20" class="edge"><title>dintancia projetil 1&#45;&gt;esquerda</title>
<path fill="none" stroke="green" stroke-width="1.07621" d="M875.368,-115.9C885.09,-111.599 897.628,-106.659 909.302,-103.882 944.665,-95.4718 1473.6,-51.5874 1631.88,-38.5788"/>
<polygon fill="green" stroke="green" stroke-width="1.07621" points="1632.52,-42.0387 1642.2,-37.7318 1631.94,-35.0622 1632.52,-42.0387"/>
</g>
<!-- pular -->
<g id="node23" class="node"><title>pular</title>
<ellipse fill="lightblue" stroke="black" cx="756.302" cy="-33.9411" rx="25" ry="25"/>
<text text-anchor="middle" x="756.302" y="-31.7411" font-family="Times New Roman,serif" font-size="9.00">pular</text>
</g>
<!-- dintancia projetil 1&#45;&gt;pular -->
<g id="edge50" class="edge"><title>dintancia projetil 1&#45;&gt;pular</title>
<path fill="none" stroke="red" stroke-width="0.213523" stroke-dasharray="1,5" d="M848.889,-115.868C833.867,-102.738 803.951,-76.5886 782.178,-57.5578"/>
<polygon fill="red" stroke="red" stroke-width="0.213523" points="784.4,-54.8517 774.567,-50.9059 779.793,-60.1222 784.4,-54.8517"/>
</g>
<!-- atirar -->
<g id="node24" class="node"><title>atirar</title>
<ellipse fill="lightblue" stroke="black" cx="409.302" cy="-33.9411" rx="25" ry="25"/>
<text text-anchor="middle" x="409.302" y="-31.7411" font-family="Times New Roman,serif" font-size="9.00">atirar</text>
</g>
<!-- dintancia projetil 1&#45;&gt;atirar -->
<g id="edge60" class="edge"><title>dintancia projetil 1&#45;&gt;atirar</title>
<path fill="none" stroke="red" stroke-width="0.690455" d="M840.313,-116.083C830.435,-111.944 817.873,-107.101 806.302,-103.882 674.887,-67.3224 513.342,-46.4597 443.808,-38.5922"/>
<polygon fill="red" stroke="red" stroke-width="0.690455" points="444.169,-35.1109 433.843,-37.4829 443.394,-42.0679 444.169,-35.1109"/>
</g>
<!-- release -->
<g id="node25" class="node"><title>release</title>
<ellipse fill="lightblue" stroke="black" cx="1244.3" cy="-33.9411" rx="28.9828" ry="28.9828"/>
<text text-anchor="middle" x="1244.3" y="-31.7411" font-family="Times New Roman,serif" font-size="9.00">release</text>
</g>
<!-- dintancia projetil 1&#45;&gt;release -->
<g id="edge71" class="edge"><title>dintancia projetil 1&#45;&gt;release</title>
<path fill="none" stroke="green" stroke-width="0.258067" d="M876.442,-116.011C886.064,-111.953 898.169,-107.207 909.302,-103.882 1014.45,-72.4867 1142.37,-50.4918 1205.39,-40.6866"/>
<polygon fill="green" stroke="green" stroke-width="0.258067" points="1206.3,-44.087 1215.65,-39.1078 1205.24,-37.1683 1206.3,-44.087"/>
</g>
<!-- distancia projetil 2 -->
<g id="node2" class="node"><title>distancia projetil 2</title>
<polygon fill="lightgray" stroke="black" points="1999.8,-134.095 1916.8,-134.095 1916.8,-116.095 1999.8,-116.095 1999.8,-134.095"/>
<text text-anchor="middle" x="1958.3" y="-122.895" font-family="Times New Roman,serif" font-size="9.00">distancia projetil 2</text>
</g>
<!-- distancia projetil 2&#45;&gt;esquerda -->
<g id="edge3" class="edge"><title>distancia projetil 2&#45;&gt;esquerda</title>
<path fill="none" stroke="green" stroke-width="0.235789" stroke-dasharray="1,5" d="M1936.85,-116.066C1926.46,-112.251 1913.78,-107.701 1902.3,-103.882 1838.62,-82.6894 1764.01,-60.4235 1718.47,-47.1142"/>
<polygon fill="green" stroke="green" stroke-width="0.235789" points="1719.23,-43.6907 1708.65,-44.2525 1717.27,-50.411 1719.23,-43.6907"/>
</g>
<!-- direita -->
<g id="node22" class="node"><title>direita</title>
<ellipse fill="lightblue" stroke="black" cx="2048.3" cy="-33.9411" rx="27.6545" ry="27.6545"/>
<text text-anchor="middle" x="2048.3" y="-31.7411" font-family="Times New Roman,serif" font-size="9.00">direita</text>
</g>
<!-- distancia projetil 2&#45;&gt;direita -->
<g id="edge22" class="edge"><title>distancia projetil 2&#45;&gt;direita</title>
<path fill="none" stroke="red" stroke-width="0.209811" d="M1966.61,-115.868C1979.06,-103.538 2003.09,-79.7274 2021.88,-61.1119"/>
<polygon fill="red" stroke="red" stroke-width="0.209811" points="2024.41,-63.5364 2029.05,-54.0123 2019.48,-58.5634 2024.41,-63.5364"/>
</g>
<!-- distancia projetil 2&#45;&gt;release -->
<g id="edge27" class="edge"><title>distancia projetil 2&#45;&gt;release</title>
<path fill="none" stroke="red" stroke-width="0.850822" d="M1916.57,-117.078C1891.58,-112.983 1859.16,-107.857 1830.3,-103.882 1624.86,-75.5872 1377.88,-48.9297 1283.53,-39.0149"/>
<polygon fill="red" stroke="red" stroke-width="0.850822" points="1283.63,-35.5057 1273.32,-37.9441 1282.9,-42.4676 1283.63,-35.5057"/>
</g>
<!-- distancia projetil 3 -->
<g id="node3" class="node"><title>distancia projetil 3</title>
<polygon fill="lightgray" stroke="black" points="521.802,-134.095 438.802,-134.095 438.802,-116.095 521.802,-116.095 521.802,-134.095"/>
<text text-anchor="middle" x="480.302" y="-122.895" font-family="Times New Roman,serif" font-size="9.00">distancia projetil 3</text>
</g>
<!-- distancia projetil 3&#45;&gt;pular -->
<g id="edge35" class="edge"><title>distancia projetil 3&#45;&gt;pular</title>
<path fill="none" stroke="red" stroke-width="0.585895" d="M502.034,-116.007C512.377,-112.22 524.94,-107.711 536.302,-103.882 602.143,-81.6948 679.845,-57.8993 723.051,-44.8776"/>
<polygon fill="red" stroke="red" stroke-width="0.585895" points="724.185,-48.1915 732.753,-41.9599 722.169,-41.4881 724.185,-48.1915"/>
</g>
<!-- distancia projetil 3&#45;&gt;atirar -->
<g id="edge17" class="edge"><title>distancia projetil 3&#45;&gt;atirar</title>
<path fill="none" stroke="red" stroke-width="0.658868" d="M473.75,-115.868C464.061,-103.701 445.471,-80.3575 430.737,-61.8559"/>
<polygon fill="red" stroke="red" stroke-width="0.658868" points="433.458,-59.6544 424.49,-54.0123 427.982,-64.0152 433.458,-59.6544"/>
</g>
<!-- distancia projetil 3&#45;&gt;release -->
<g id="edge72" class="edge"><title>distancia projetil 3&#45;&gt;release</title>
<path fill="none" stroke="red" stroke-width="0.64772" d="M511.423,-116.051C528.427,-111.904 549.914,-107.062 569.302,-103.882 809.243,-64.5316 1101.08,-43.818 1205.14,-37.2699"/>
<polygon fill="red" stroke="red" stroke-width="0.64772" points="1205.43,-40.7591 1215.19,-36.6451 1204.99,-33.7726 1205.43,-40.7591"/>
</g>
<!-- distancia projetil 4 -->
<g id="node4" class="node"><title>distancia projetil 4</title>
<polygon fill="lightgray" stroke="black" points="591.802,-200.309 508.802,-200.309 508.802,-182.309 591.802,-182.309 591.802,-200.309"/>
<text text-anchor="middle" x="550.302" y="-189.109" font-family="Times New Roman,serif" font-size="9.00">distancia projetil 4</text>
</g>
<!-- distancia projetil 4&#45;&gt;esquerda -->
<g id="edge54" class="edge"><title>distancia projetil 4&#45;&gt;esquerda</title>
<path fill="none" stroke="green" stroke-width="0.161865" d="M592.1,-189.662C810.174,-186.195 1808.29,-169.095 1830.3,-146.309 1871.81,-103.354 1777.6,-65.4605 1718.87,-46.9494"/>
<polygon fill="green" stroke="green" stroke-width="0.161865" points="1719.65,-43.5284 1709.07,-43.9341 1717.59,-50.2191 1719.65,-43.5284"/>
</g>
<!-- distancia projetil 4&#45;&gt;pular -->
<g id="edge13" class="edge"><title>distancia projetil 4&#45;&gt;pular</title>
<path fill="none" stroke="red" stroke-width="0.283531" d="M549.696,-182.288C548.884,-165.578 549.415,-126.695 569.302,-103.882 608.29,-59.1599 678.944,-43.4184 721.353,-37.8989"/>
<polygon fill="red" stroke="red" stroke-width="0.283531" points="721.968,-41.3507 731.49,-36.7044 721.149,-34.3988 721.968,-41.3507"/>
</g>
<!-- distancia projetil 4&#45;&gt;atirar -->
<g id="edge32" class="edge"><title>distancia projetil 4&#45;&gt;atirar</title>
<path fill="none" stroke="red" stroke-width="0.4165" d="M508.5,-186.458C406.978,-177.009 155.27,-152.966 149.302,-146.309 82.0518,-71.2753 289.645,-44.9768 374.696,-37.4935"/>
<polygon fill="red" stroke="red" stroke-width="0.4165" points="374.999,-40.9804 384.67,-36.6531 374.411,-34.0052 374.999,-40.9804"/>
</g>
<!-- distancia projetil 4&#45;&gt;release -->
<g id="edge58" class="edge"><title>distancia projetil 4&#45;&gt;release</title>
<path fill="none" stroke="green" stroke-width="0.385229" d="M591.937,-188.863C714.862,-184.346 1070.55,-169.407 1117.3,-146.309 1140,-135.095 1136.78,-121.132 1155.3,-103.882 1173.25,-87.1716 1194.98,-70.2808 1212.48,-57.4005"/>
<polygon fill="green" stroke="green" stroke-width="0.385229" points="1214.67,-60.1344 1220.69,-51.4179 1210.55,-54.4761 1214.67,-60.1344"/>
</g>
<!-- 933 -->
<g id="node26" class="node"><title>933</title>
<ellipse fill="white" stroke="black" cx="179.302" cy="-125.095" rx="21.4286" ry="21.4286"/>
<text text-anchor="middle" x="179.302" y="-122.895" font-family="Times New Roman,serif" font-size="9.00">933</text>
</g>
<!-- distancia projetil 4&#45;&gt;933 -->
<g id="edge44" class="edge"><title>distancia projetil 4&#45;&gt;933</title>
<path fill="none" stroke="red" stroke-width="0.128929" d="M508.723,-185.787C424.988,-176.547 241.672,-155.591 214.302,-146.309 211.341,-145.304 208.35,-144.037 205.43,-142.629"/>
<polygon fill="red" stroke="red" stroke-width="0.128929" points="206.928,-139.461 196.464,-137.801 203.609,-145.624 206.928,-139.461"/>
</g>
<!-- distancia projetil 5 -->
<g id="node5" class="node"><title>distancia projetil 5</title>
<polygon fill="lightgray" stroke="black" points="1821.8,-134.095 1738.8,-134.095 1738.8,-116.095 1821.8,-116.095 1821.8,-134.095"/>
<text text-anchor="middle" x="1780.3" y="-122.895" font-family="Times New Roman,serif" font-size="9.00">distancia projetil 5</text>
</g>
<!-- distancia projetil 5&#45;&gt;direita -->
<g id="edge23" class="edge"><title>distancia projetil 5&#45;&gt;direita</title>
<path fill="none" stroke="green" stroke-width="1.39864" d="M1804.56,-116.026C1851.99,-100.249 1957.2,-65.2478 2012.6,-46.8185"/>
<polygon fill="green" stroke="green" stroke-width="1.39864" points="2013.95,-50.0563 2022.34,-43.5786 2011.74,-43.4141 2013.95,-50.0563"/>
</g>
<!-- distancia projetil 5&#45;&gt;pular -->
<g id="edge56" class="edge"><title>distancia projetil 5&#45;&gt;pular</title>
<path fill="none" stroke="red" stroke-width="0.802602" d="M1763.72,-116.011C1753.94,-111.632 1741.19,-106.579 1729.3,-103.882 1502.08,-52.3461 1438.71,-84.3874 1206.3,-67.8823 1051.77,-56.9075 867.429,-43.2294 791.568,-37.5751"/>
<polygon fill="red" stroke="red" stroke-width="0.802602" points="791.412,-34.0538 781.179,-36.8003 790.891,-41.0344 791.412,-34.0538"/>
</g>
<!-- distancia projetil 6 -->
<g id="node6" class="node"><title>distancia projetil 6</title>
<polygon fill="lightgray" stroke="black" points="797.802,-134.095 714.802,-134.095 714.802,-116.095 797.802,-116.095 797.802,-134.095"/>
<text text-anchor="middle" x="756.302" y="-122.895" font-family="Times New Roman,serif" font-size="9.00">distancia projetil 6</text>
</g>
<!-- distancia projetil 6&#45;&gt;esquerda -->
<g id="edge28" class="edge"><title>distancia projetil 6&#45;&gt;esquerda</title>
<path fill="none" stroke="green" stroke-width="0.209412" d="M772.893,-116.042C782.673,-111.673 795.423,-106.62 807.302,-103.882 1013.61,-56.3385 1071.26,-84.7021 1282.3,-67.8823 1409.48,-57.7469 1559.67,-44.9653 1632.42,-38.7221"/>
<polygon fill="green" stroke="green" stroke-width="0.209412" points="1632.92,-42.1924 1642.58,-37.8495 1632.32,-35.2181 1632.92,-42.1924"/>
</g>
<!-- distancia projetil 6&#45;&gt;pular -->
<g id="edge66" class="edge"><title>distancia projetil 6&#45;&gt;pular</title>
<path fill="none" stroke="green" stroke-width="0.361357" d="M756.302,-115.868C756.302,-105.23 756.302,-86.0459 756.302,-69.0257"/>
<polygon fill="green" stroke="green" stroke-width="0.361357" points="759.802,-68.8035 756.302,-58.8036 752.802,-68.8036 759.802,-68.8035"/>
</g>
<!-- distancia projetil 6&#45;&gt;atirar -->
<g id="edge48" class="edge"><title>distancia projetil 6&#45;&gt;atirar</title>
<path fill="none" stroke="red" stroke-width="0.336881" stroke-dasharray="1,5" d="M724.896,-116.026C659.811,-99.304 510.678,-60.9875 443.37,-43.6941"/>
<polygon fill="red" stroke="red" stroke-width="0.336881" points="443.852,-40.2043 433.295,-41.1056 442.11,-46.9841 443.852,-40.2043"/>
</g>
<!-- distancia projetil 6&#45;&gt;release -->
<g id="edge42" class="edge"><title>distancia projetil 6&#45;&gt;release</title>
<path fill="none" stroke="green" stroke-width="0.116898" stroke-dasharray="1,5" d="M773.911,-116C783.589,-111.837 795.911,-106.997 807.302,-103.882 951.119,-64.5581 1128.1,-45.231 1205.26,-38.1852"/>
<polygon fill="green" stroke="green" stroke-width="0.116898" points="1205.82,-41.649 1215.47,-37.2717 1205.19,-34.6768 1205.82,-41.649"/>
</g>
<!-- distancia projetil 7 -->
<g id="node7" class="node"><title>distancia projetil 7</title>
<polygon fill="lightgray" stroke="black" points="1321.8,-200.309 1238.8,-200.309 1238.8,-182.309 1321.8,-182.309 1321.8,-200.309"/>
<text text-anchor="middle" x="1280.3" y="-189.109" font-family="Times New Roman,serif" font-size="9.00">distancia projetil 7</text>
</g>
<!-- distancia projetil 7&#45;&gt;esquerda -->
<g id="edge14" class="edge"><title>distancia projetil 7&#45;&gt;esquerda</title>
<path fill="none" stroke="green" stroke-width="0.207861" d="M1321.91,-186.709C1338.52,-185.298 1357.81,-183.689 1375.3,-182.309 1429.61,-178.023 1827.22,-186.221 1864.3,-146.309 1912.85,-94.0587 1788.7,-58.4887 1719.32,-43.2794"/>
<polygon fill="green" stroke="green" stroke-width="0.207861" points="1720.02,-39.8499 1709.51,-41.1836 1718.56,-46.6954 1720.02,-39.8499"/>
</g>
<!-- distancia projetil 7&#45;&gt;release -->
<g id="edge4" class="edge"><title>distancia projetil 7&#45;&gt;release</title>
<path fill="none" stroke="red" stroke-width="0.115386" stroke-dasharray="1,5" d="M1278.59,-182.191C1275.34,-166.86 1268,-132.608 1261.3,-103.882 1258.91,-93.6176 1256.22,-82.5194 1253.7,-72.2893"/>
<polygon fill="red" stroke="red" stroke-width="0.115386" points="1257.05,-71.2752 1251.25,-62.4117 1250.26,-72.9601 1257.05,-71.2752"/>
</g>
<!-- 801 -->
<g id="node27" class="node"><title>801</title>
<ellipse fill="white" stroke="black" cx="599.302" cy="-125.095" rx="21.4286" ry="21.4286"/>
<text text-anchor="middle" x="599.302" y="-122.895" font-family="Times New Roman,serif" font-size="9.00">801</text>
</g>
<!-- distancia projetil 7&#45;&gt;801 -->
<g id="edge37" class="edge"><title>distancia projetil 7&#45;&gt;801</title>
<path fill="none" stroke="red" stroke-width="0.34478" d="M1238.4,-189.919C1113.9,-188.374 747.879,-180.928 634.302,-146.309 631.311,-145.397 628.301,-144.19 625.369,-142.819"/>
<polygon fill="red" stroke="red" stroke-width="0.34478" points="626.859,-139.647 616.388,-138.036 623.569,-145.826 626.859,-139.647"/>
</g>
<!-- distancia projetil 8 -->
<g id="node8" class="node"><title>distancia projetil 8</title>
<polygon fill="lightgray" stroke="black" points="2138.8,-200.309 2055.8,-200.309 2055.8,-182.309 2138.8,-182.309 2138.8,-200.309"/>
<text text-anchor="middle" x="2097.3" y="-189.109" font-family="Times New Roman,serif" font-size="9.00">distancia projetil 8</text>
</g>
<!-- distancia projetil 8&#45;&gt;esquerda -->
<g id="edge29" class="edge"><title>distancia projetil 8&#45;&gt;esquerda</title>
<path fill="none" stroke="red" stroke-width="0.171595" stroke-dasharray="1,5" d="M2093.19,-182.047C2084.02,-164.519 2060.05,-123.603 2027.3,-103.882 1929.38,-44.9223 1790.83,-35.106 1720.69,-34.2454"/>
<polygon fill="red" stroke="red" stroke-width="0.171595" points="1720.47,-30.744 1710.44,-34.1782 1720.42,-37.7438 1720.47,-30.744"/>
</g>
<!-- distancia projetil 8&#45;&gt;direita -->
<g id="edge18" class="edge"><title>distancia projetil 8&#45;&gt;direita</title>
<path fill="none" stroke="red" stroke-width="0.252914" d="M2138.99,-189.082C2218.29,-185.24 2378.58,-169.376 2327.3,-103.882 2297.68,-66.0483 2154.69,-46.1192 2085.7,-38.5695"/>
<polygon fill="red" stroke="red" stroke-width="0.252914" points="2086,-35.0817 2075.68,-37.5039 2085.26,-42.0424 2086,-35.0817"/>
</g>
<!-- distancia projetil 8&#45;&gt;pular -->
<g id="edge36" class="edge"><title>distancia projetil 8&#45;&gt;pular</title>
<path fill="none" stroke="green" stroke-width="0.277045" stroke-dasharray="1,5" d="M2055.61,-183.321C2052.47,-182.931 2049.34,-182.586 2046.3,-182.309 1972.09,-175.52 757.289,-199.71 705.302,-146.309 681.209,-121.56 708.218,-83.3853 731.183,-58.7838"/>
<polygon fill="green" stroke="green" stroke-width="0.277045" points="733.982,-60.9247 738.427,-51.3074 728.954,-56.0536 733.982,-60.9247"/>
</g>
<!-- distancia projetil 8&#45;&gt;release -->
<g id="edge19" class="edge"><title>distancia projetil 8&#45;&gt;release</title>
<path fill="none" stroke="red" stroke-width="0.179816" d="M2055.59,-183.467C2052.45,-183.043 2049.33,-182.651 2046.3,-182.309 1931.86,-169.373 1637.47,-185.857 1529.3,-146.309 1499.31,-135.341 1499.88,-118.153 1471.3,-103.882 1408.61,-72.5727 1328.99,-52.4295 1282.63,-42.4392"/>
<polygon fill="red" stroke="red" stroke-width="0.179816" points="1283.21,-38.9847 1272.7,-40.3463 1281.76,-45.8341 1283.21,-38.9847"/>
</g>
<!-- 907 -->
<g id="node28" class="node"><title>907</title>
<ellipse fill="white" stroke="black" cx="2297.3" cy="-125.095" rx="21.4286" ry="21.4286"/>
<text text-anchor="middle" x="2297.3" y="-122.895" font-family="Times New Roman,serif" font-size="9.00">907</text>
</g>
<!-- distancia projetil 8&#45;&gt;907 -->
<g id="edge38" class="edge"><title>distancia projetil 8&#45;&gt;907</title>
<path fill="none" stroke="red" stroke-width="0.152189" d="M2138.97,-182.377C2172.94,-175.164 2221.76,-163.078 2262.3,-146.309 2265.19,-145.114 2268.14,-143.722 2271.03,-142.239"/>
<polygon fill="red" stroke="red" stroke-width="0.152189" points="2272.89,-145.208 2279.96,-137.316 2269.51,-139.078 2272.89,-145.208"/>
</g>
<!-- distancia projetil 9 -->
<g id="node9" class="node"><title>distancia projetil 9</title>
<polygon fill="lightgray" stroke="black" points="101.802,-134.095 18.8024,-134.095 18.8024,-116.095 101.802,-116.095 101.802,-134.095"/>
<text text-anchor="middle" x="60.3024" y="-122.895" font-family="Times New Roman,serif" font-size="9.00">distancia projetil 9</text>
</g>
<!-- distancia projetil 9&#45;&gt;atirar -->
<g id="edge67" class="edge"><title>distancia projetil 9&#45;&gt;atirar</title>
<path fill="none" stroke="green" stroke-width="0.122255" d="M80.857,-116.033C91.3646,-112.076 104.412,-107.414 116.302,-103.882 208.777,-76.4132 320.241,-52.7115 375.222,-41.6275"/>
<polygon fill="green" stroke="green" stroke-width="0.122255" points="376.01,-45.0392 385.129,-39.644 374.636,-38.1754 376.01,-45.0392"/>
</g>
<!-- distancia projetil 10 -->
<g id="node10" class="node"><title>distancia projetil 10</title>
<polygon fill="lightgray" stroke="black" points="382.302,-134.095 294.302,-134.095 294.302,-116.095 382.302,-116.095 382.302,-134.095"/>
<text text-anchor="middle" x="338.302" y="-122.895" font-family="Times New Roman,serif" font-size="9.00">distancia projetil 10</text>
</g>
<!-- distancia projetil 10&#45;&gt;pular -->
<g id="edge2" class="edge"><title>distancia projetil 10&#45;&gt;pular</title>
<path fill="none" stroke="green" stroke-width="0.418077" d="M359.012,-116.051C369.976,-112.004 383.738,-107.255 396.302,-103.882 513.904,-72.3109 656.829,-49.4194 721.519,-39.8706"/>
<polygon fill="green" stroke="green" stroke-width="0.418077" points="722.189,-43.3099 731.578,-38.4007 721.177,-36.3835 722.189,-43.3099"/>
</g>
<!-- distancia projetil 10&#45;&gt;atirar -->
<g id="edge21" class="edge"><title>distancia projetil 10&#45;&gt;atirar</title>
<path fill="none" stroke="red" stroke-width="0.193829" d="M344.855,-115.868C354.544,-103.701 373.134,-80.3575 387.868,-61.8559"/>
<polygon fill="red" stroke="red" stroke-width="0.193829" points="390.623,-64.0152 394.115,-54.0123 385.147,-59.6544 390.623,-64.0152"/>
</g>
<!-- distancia projetil 11 -->
<g id="node11" class="node"><title>distancia projetil 11</title>
<polygon fill="lightgray" stroke="black" points="454.302,-200.309 366.302,-200.309 366.302,-182.309 454.302,-182.309 454.302,-200.309"/>
<text text-anchor="middle" x="410.302" y="-189.109" font-family="Times New Roman,serif" font-size="9.00">distancia projetil 11</text>
</g>
<!-- distancia projetil 11&#45;&gt;pular -->
<g id="edge63" class="edge"><title>distancia projetil 11&#45;&gt;pular</title>
<path fill="none" stroke="green" stroke-width="0.461001" d="M409.46,-182.308C408.148,-165.287 407.701,-125.299 429.302,-103.882 470.34,-63.1965 645.51,-44.0853 721.217,-37.6078"/>
<polygon fill="green" stroke="green" stroke-width="0.461001" points="721.961,-41.0581 731.637,-36.7427 721.382,-34.0821 721.961,-41.0581"/>
</g>
<!-- distancia projetil 11&#45;&gt;atirar -->
<g id="edge52" class="edge"><title>distancia projetil 11&#45;&gt;atirar</title>
<path fill="none" stroke="green" stroke-width="0.151731" d="M365.98,-188.718C266.6,-184.694 32.7913,-172.516 9.30239,-146.309 -3.28282,-132.267 -2.84597,-118.304 9.30239,-103.882 55.983,-48.4678 285.774,-37.5951 374.375,-35.4619"/>
<polygon fill="green" stroke="green" stroke-width="0.151731" points="374.537,-38.9593 384.458,-35.2426 374.384,-31.9609 374.537,-38.9593"/>
</g>
<!-- distancia projetil 11&#45;&gt;801 -->
<g id="edge40" class="edge"><title>distancia projetil 11&#45;&gt;801</title>
<path fill="none" stroke="red" stroke-width="0.124268" d="M433.857,-182.306C468.229,-170.628 532.108,-148.925 569.64,-136.173"/>
<polygon fill="red" stroke="red" stroke-width="0.124268" points="571.138,-139.361 579.481,-132.83 568.886,-132.733 571.138,-139.361"/>
</g>
<!-- distancia projetil 12 -->
<g id="node12" class="node"><title>distancia projetil 12</title>
<polygon fill="lightgray" stroke="black" points="2182.3,-134.095 2094.3,-134.095 2094.3,-116.095 2182.3,-116.095 2182.3,-134.095"/>
<text text-anchor="middle" x="2138.3" y="-122.895" font-family="Times New Roman,serif" font-size="9.00">distancia projetil 12</text>
</g>
<!-- distancia projetil 12&#45;&gt;esquerda -->
<g id="edge11" class="edge"><title>distancia projetil 12&#45;&gt;esquerda</title>
<path fill="none" stroke="green" stroke-width="0.345304" d="M2117.89,-116.047C2106.89,-111.949 2093,-107.155 2080.3,-103.882 1951.16,-70.6058 1794.55,-49.1001 1719.93,-39.9672"/>
<polygon fill="green" stroke="green" stroke-width="0.345304" points="1720.3,-36.487 1709.95,-38.7607 1719.46,-43.4364 1720.3,-36.487"/>
</g>
<!-- distancia projetil 12&#45;&gt;direita -->
<g id="edge30" class="edge"><title>distancia projetil 12&#45;&gt;direita</title>
<path fill="none" stroke="green" stroke-width="0.792119" d="M2130,-115.868C2117.55,-103.538 2093.51,-79.7274 2074.72,-61.1119"/>
<polygon fill="green" stroke="green" stroke-width="0.792119" points="2077.12,-58.5634 2067.55,-54.0123 2072.2,-63.5364 2077.12,-58.5634"/>
</g>
<!-- distancia projetil 13 -->
<g id="node13" class="node"><title>distancia projetil 13</title>
<polygon fill="lightgray" stroke="black" points="1108.3,-134.095 1020.3,-134.095 1020.3,-116.095 1108.3,-116.095 1108.3,-134.095"/>
<text text-anchor="middle" x="1064.3" y="-122.895" font-family="Times New Roman,serif" font-size="9.00">distancia projetil 13</text>
</g>
<!-- distancia projetil 13&#45;&gt;direita -->
<g id="edge55" class="edge"><title>distancia projetil 13&#45;&gt;direita</title>
<path fill="none" stroke="green" stroke-width="0.873273" d="M1094.83,-116.073C1112.4,-111.771 1134.95,-106.774 1155.3,-103.882 1403.98,-68.544 1468.96,-88.3976 1719.3,-67.8823 1825.03,-59.2174 1949.57,-45.8957 2010.65,-39.1565"/>
<polygon fill="green" stroke="green" stroke-width="0.873273" points="2011.05,-42.6342 2020.6,-38.0551 2010.28,-35.6767 2011.05,-42.6342"/>
</g>
<!-- distancia projetil 13&#45;&gt;pular -->
<g id="edge33" class="edge"><title>distancia projetil 13&#45;&gt;pular</title>
<path fill="none" stroke="red" stroke-width="0.459154" d="M1044.2,-116.062C1034.11,-112.159 1021.64,-107.534 1010.3,-103.882 932.343,-78.7715 839.027,-55.0256 790.082,-43.0444"/>
<polygon fill="red" stroke="red" stroke-width="0.459154" points="790.877,-39.6357 780.333,-40.67 789.22,-46.4369 790.877,-39.6357"/>
</g>
<!-- distancia projetil 13&#45;&gt;atirar -->
<g id="edge16" class="edge"><title>distancia projetil 13&#45;&gt;atirar</title>
<path fill="none" stroke="red" stroke-width="0.16" stroke-dasharray="1,5" d="M1046.16,-116.035C1035.84,-111.776 1022.57,-106.834 1010.3,-103.882 982.522,-97.1959 567.533,-52.0436 443.842,-38.6677"/>
<polygon fill="red" stroke="red" stroke-width="0.16" points="444.105,-35.1757 433.786,-37.5809 443.352,-42.1352 444.105,-35.1757"/>
</g>
<!-- distancia projetil 13&#45;&gt;release -->
<g id="edge6" class="edge"><title>distancia projetil 13&#45;&gt;release</title>
<path fill="none" stroke="red" stroke-width="0.282594" stroke-dasharray="1,5" d="M1080.59,-116.026C1109.47,-101.722 1170.26,-71.6167 1209.08,-52.3854"/>
<polygon fill="red" stroke="red" stroke-width="0.282594" points="1211.04,-55.3215 1218.45,-47.7466 1207.93,-49.0487 1211.04,-55.3215"/>
</g>
<!-- distancia projetil 14 -->
<g id="node14" class="node"><title>distancia projetil 14</title>
<polygon fill="lightgray" stroke="black" points="1472.3,-200.309 1384.3,-200.309 1384.3,-182.309 1472.3,-182.309 1472.3,-200.309"/>
<text text-anchor="middle" x="1428.3" y="-189.109" font-family="Times New Roman,serif" font-size="9.00">distancia projetil 14</text>
</g>
<!-- distancia projetil 14&#45;&gt;direita -->
<g id="edge74" class="edge"><title>distancia projetil 14&#45;&gt;direita</title>
<path fill="none" stroke="red" stroke-width="0.509655" stroke-dasharray="1,5" d="M1472.38,-189.42C1631.25,-186.006 2166.5,-172.586 2191.3,-146.309 2231.26,-103.98 2138.8,-64.6738 2084.43,-46.1242"/>
<polygon fill="red" stroke="red" stroke-width="0.509655" points="2085.36,-42.7434 2074.76,-42.906 2083.15,-49.3852 2085.36,-42.7434"/>
</g>
<!-- distancia projetil 14&#45;&gt;atirar -->
<g id="edge45" class="edge"><title>distancia projetil 14&#45;&gt;atirar</title>
<path fill="none" stroke="red" stroke-width="0.320886" stroke-dasharray="1,5" d="M1383.94,-186.233C1367.15,-184.81 1347.86,-183.318 1330.3,-182.309 1270.48,-178.87 293.961,-189.381 252.302,-146.309 207.921,-100.421 317.198,-61.004 375.523,-43.9526"/>
<polygon fill="red" stroke="red" stroke-width="0.320886" points="376.777,-47.2347 385.434,-41.1265 374.857,-40.5031 376.777,-47.2347"/>
</g>
<!-- distancia projetil 14&#45;&gt;release -->
<g id="edge64" class="edge"><title>distancia projetil 14&#45;&gt;release</title>
<path fill="none" stroke="red" stroke-width="0.421974" stroke-dasharray="1,5" d="M1434.92,-182.13C1447.3,-165.79 1471.15,-128.564 1453.3,-103.882 1414.51,-50.2318 1332.47,-37.6249 1283.51,-35.0791"/>
<polygon fill="red" stroke="red" stroke-width="0.421974" points="1283.43,-31.5731 1273.3,-34.669 1283.15,-38.5675 1283.43,-31.5731"/>
</g>
<!-- 920 -->
<g id="node29" class="node"><title>920</title>
<ellipse fill="white" stroke="black" cx="1329.3" cy="-125.095" rx="21.4286" ry="21.4286"/>
<text text-anchor="middle" x="1329.3" y="-122.895" font-family="Times New Roman,serif" font-size="9.00">920</text>
</g>
<!-- distancia projetil 14&#45;&gt;920 -->
<g id="edge9" class="edge"><title>distancia projetil 14&#45;&gt;920</title>
<path fill="none" stroke="red" stroke-width="0.291029" d="M1415.52,-182.295C1401.63,-173.548 1378.79,-159.083 1359.3,-146.309 1357.86,-145.362 1356.38,-144.385 1354.89,-143.396"/>
<polygon fill="red" stroke="red" stroke-width="0.291029" points="1356.65,-140.362 1346.39,-137.715 1352.76,-146.182 1356.65,-140.362"/>
</g>
<!-- distancia projetil 15 -->
<g id="node15" class="node"><title>distancia projetil 15</title>
<polygon fill="lightgray" stroke="black" points="1720.3,-134.095 1632.3,-134.095 1632.3,-116.095 1720.3,-116.095 1720.3,-134.095"/>
<text text-anchor="middle" x="1676.3" y="-122.895" font-family="Times New Roman,serif" font-size="9.00">distancia projetil 15</text>
</g>
<!-- distancia projetil 15&#45;&gt;esquerda -->
<g id="edge49" class="edge"><title>distancia projetil 15&#45;&gt;esquerda</title>
<path fill="none" stroke="green" stroke-width="0.365435" d="M1676.3,-115.868C1676.3,-107.126 1676.3,-92.615 1676.3,-78.2752"/>
<polygon fill="green" stroke="green" stroke-width="0.365435" points="1679.8,-77.9489 1676.3,-67.9489 1672.8,-77.9489 1679.8,-77.9489"/>
</g>
<!-- distancia projetil 15&#45;&gt;direita -->
<g id="edge31" class="edge"><title>distancia projetil 15&#45;&gt;direita</title>
<path fill="none" stroke="green" stroke-width="0.654583" stroke-dasharray="1,5" d="M1695.2,-116.089C1705.21,-112.053 1717.78,-107.302 1729.3,-103.882 1829.48,-74.1415 1950.88,-51.4717 2010.93,-41.1203"/>
<polygon fill="green" stroke="green" stroke-width="0.654583" points="2011.8,-44.523 2021.07,-39.3901 2010.62,-37.6228 2011.8,-44.523"/>
</g>
<!-- distancia projetil 15&#45;&gt;pular -->
<g id="edge12" class="edge"><title>distancia projetil 15&#45;&gt;pular</title>
<path fill="none" stroke="red" stroke-width="0.194881" d="M1659.02,-116.069C1648.85,-111.709 1635.6,-106.656 1623.3,-103.882 1582.04,-94.5752 948.625,-48.7322 791.411,-37.4521"/>
<polygon fill="red" stroke="red" stroke-width="0.194881" points="791.565,-33.9543 781.341,-36.7302 791.065,-40.9364 791.565,-33.9543"/>
</g>
<!-- distancia projetil 15&#45;&gt;release -->
<g id="edge41" class="edge"><title>distancia projetil 15&#45;&gt;release</title>
<path fill="none" stroke="green" stroke-width="0.359087" d="M1657.45,-115.933C1647.45,-111.854 1634.87,-107.112 1623.3,-103.882 1501.37,-69.8553 1352.55,-48.4569 1283.27,-39.6145"/>
<polygon fill="green" stroke="green" stroke-width="0.359087" points="1283.6,-36.1287 1273.24,-38.352 1282.72,-43.0739 1283.6,-36.1287"/>
</g>
<!-- distancia projetil 16 -->
<g id="node16" class="node"><title>distancia projetil 16</title>
<polygon fill="lightgray" stroke="black" points="1252.3,-134.095 1164.3,-134.095 1164.3,-116.095 1252.3,-116.095 1252.3,-134.095"/>
<text text-anchor="middle" x="1208.3" y="-122.895" font-family="Times New Roman,serif" font-size="9.00">distancia projetil 16</text>
</g>
<!-- distancia projetil 16&#45;&gt;esquerda -->
<g id="edge68" class="edge"><title>distancia projetil 16&#45;&gt;esquerda</title>
<path fill="none" stroke="green" stroke-width="0.251656" stroke-dasharray="1,5" d="M1243.24,-116.012C1260.14,-112.184 1280.74,-107.639 1299.3,-103.882 1419.64,-79.5234 1562.37,-54.4612 1632.69,-42.3657"/>
<polygon fill="green" stroke="green" stroke-width="0.251656" points="1633.67,-45.7487 1642.94,-40.6073 1632.49,-38.8496 1633.67,-45.7487"/>
</g>
<!-- distancia projetil 16&#45;&gt;atirar -->
<g id="edge7" class="edge"><title>distancia projetil 16&#45;&gt;atirar</title>
<path fill="none" stroke="green" stroke-width="0.192669" d="M1176.9,-116.083C1159.45,-111.892 1137.29,-107 1117.3,-103.882 943.125,-76.7144 897.742,-85.108 722.302,-67.8823 621.197,-57.9551 501.851,-45.0718 444.092,-38.7628"/>
<polygon fill="green" stroke="green" stroke-width="0.192669" points="444.363,-35.2717 434.042,-37.6635 443.602,-42.2302 444.363,-35.2717"/>
</g>
<!-- distancia projetil 16&#45;&gt;release -->
<g id="edge26" class="edge"><title>distancia projetil 16&#45;&gt;release</title>
<path fill="none" stroke="green" stroke-width="0.354115" stroke-dasharray="1,5" d="M1211.62,-115.868C1215.79,-105.562 1223.19,-87.2352 1229.89,-70.6255"/>
<polygon fill="green" stroke="green" stroke-width="0.354115" points="1233.23,-71.7011 1233.73,-61.118 1226.74,-69.0801 1233.23,-71.7011"/>
</g>
<!-- distancia inimigo 1 -->
<g id="node17" class="node"><title>distancia inimigo 1</title>
<polygon fill="lightgray" stroke="black" points="2037.8,-200.309 1954.8,-200.309 1954.8,-182.309 2037.8,-182.309 2037.8,-200.309"/>
<text text-anchor="middle" x="1996.3" y="-189.109" font-family="Times New Roman,serif" font-size="9.00">distancia inimigo 1</text>
</g>
<!-- distancia inimigo 1&#45;&gt;esquerda -->
<g id="edge8" class="edge"><title>distancia inimigo 1&#45;&gt;esquerda</title>
<path fill="none" stroke="red" stroke-width="0.101673" d="M2001.06,-182.087C2010.05,-165.339 2027.04,-126.913 2008.3,-103.882 1972.45,-59.8191 1801.96,-43.0108 1720.22,-37.4063"/>
<polygon fill="red" stroke="red" stroke-width="0.101673" points="1720.44,-33.9136 1710.23,-36.7474 1719.98,-40.8984 1720.44,-33.9136"/>
</g>
<!-- distancia inimigo 1&#45;&gt;direita -->
<g id="edge15" class="edge"><title>distancia inimigo 1&#45;&gt;direita</title>
<path fill="none" stroke="green" stroke-width="0.516901" stroke-dasharray="1,5" d="M2037.82,-183.692C2101.94,-173.275 2218.37,-153.498 2224.3,-146.309 2268.24,-93.0822 2148.82,-57.3156 2085.21,-42.5624"/>
<polygon fill="green" stroke="green" stroke-width="0.516901" points="2085.67,-39.078 2075.14,-40.2944 2084.13,-45.9069 2085.67,-39.078"/>
</g>
<!-- distancia inimigo 1&#45;&gt;pular -->
<g id="edge46" class="edge"><title>distancia inimigo 1&#45;&gt;pular</title>
<path fill="none" stroke="red" stroke-width="0.202026" d="M1954.54,-189.712C1732.03,-186.435 695.138,-169.916 672.302,-146.309 643.043,-116.061 692.211,-75.5623 726.815,-52.667"/>
<polygon fill="red" stroke="red" stroke-width="0.202026" points="728.728,-55.5981 735.242,-47.2424 724.939,-49.712 728.728,-55.5981"/>
</g>
<!-- distancia inimigo 1&#45;&gt;atirar -->
<g id="edge70" class="edge"><title>distancia inimigo 1&#45;&gt;atirar</title>
<path fill="none" stroke="green" stroke-width="0.312933" stroke-dasharray="1,5" d="M1954.4,-189.628C1693.35,-185.338 300.339,-161.737 285.302,-146.309 248.081,-108.118 328.723,-67.1944 376.813,-47.2675"/>
<polygon fill="green" stroke="green" stroke-width="0.312933" points="378.281,-50.4493 386.239,-43.4557 375.657,-43.9598 378.281,-50.4493"/>
</g>
<!-- distancia inimigo 1&#45;&gt;907 -->
<g id="edge59" class="edge"><title>distancia inimigo 1&#45;&gt;907</title>
<path fill="none" stroke="green" stroke-width="0.434332" d="M2038.02,-183.604C2111.56,-171.758 2257.04,-148.192 2262.3,-146.309 2265.25,-145.255 2268.23,-143.955 2271.14,-142.527"/>
<polygon fill="green" stroke="green" stroke-width="0.434332" points="2272.97,-145.515 2280.1,-137.674 2269.64,-139.36 2272.97,-145.515"/>
</g>
<!-- distancia inimigo 2 -->
<g id="node18" class="node"><title>distancia inimigo 2</title>
<polygon fill="lightgray" stroke="black" points="1001.8,-134.095 918.802,-134.095 918.802,-116.095 1001.8,-116.095 1001.8,-134.095"/>
<text text-anchor="middle" x="960.302" y="-122.895" font-family="Times New Roman,serif" font-size="9.00">distancia inimigo 2</text>
</g>
<!-- distancia inimigo 2&#45;&gt;esquerda -->
<g id="edge69" class="edge"><title>distancia inimigo 2&#45;&gt;esquerda</title>
<path fill="none" stroke="red" stroke-width="0.268771" d="M977.383,-115.962C987.11,-111.68 999.647,-106.739 1011.3,-103.882 1071.46,-89.1407 1493.57,-51.0572 1632.26,-38.8017"/>
<polygon fill="red" stroke="red" stroke-width="0.268771" points="1632.86,-42.2627 1642.51,-37.8973 1632.24,-35.2898 1632.86,-42.2627"/>
</g>
<!-- distancia inimigo 2&#45;&gt;pular -->
<g id="edge39" class="edge"><title>distancia inimigo 2&#45;&gt;pular</title>
<path fill="none" stroke="green" stroke-width="0.177678" d="M941.839,-116.026C907.007,-100.804 831.23,-67.6866 788.067,-48.8234"/>
<polygon fill="green" stroke="green" stroke-width="0.177678" points="789.431,-45.5996 778.866,-44.8021 786.627,-52.0138 789.431,-45.5996"/>
</g>
<!-- distancia inimigo 2&#45;&gt;atirar -->
<g id="edge51" class="edge"><title>distancia inimigo 2&#45;&gt;atirar</title>
<path fill="none" stroke="red" stroke-width="0.328781" d="M942.717,-115.911C933.047,-111.722 920.724,-106.886 909.302,-103.882 820.485,-80.5226 541.899,-49.1964 443.855,-38.6107"/>
<polygon fill="red" stroke="red" stroke-width="0.328781" points="444.192,-35.1268 433.875,-37.5375 443.443,-42.0866 444.192,-35.1268"/>
</g>
<!-- distancia inimigo 2&#45;&gt;release -->
<g id="edge61" class="edge"><title>distancia inimigo 2&#45;&gt;release</title>
<path fill="none" stroke="red" stroke-width="0.33193" stroke-dasharray="1,5" d="M979.524,-116.005C989.014,-112.132 1000.68,-107.551 1011.3,-103.882 1079.33,-80.3911 1160.16,-57.5931 1206.52,-44.9965"/>
<polygon fill="red" stroke="red" stroke-width="0.33193" points="1207.69,-48.3066 1216.43,-42.3176 1205.86,-41.5493 1207.69,-48.3066"/>
</g>
<!-- direcao sprites 1 -->
<g id="node19" class="node"><title>direcao sprites 1</title>
<polygon fill="lightgray" stroke="black" points="1614.3,-134.095 1538.3,-134.095 1538.3,-116.095 1614.3,-116.095 1614.3,-134.095"/>
<text text-anchor="middle" x="1576.3" y="-122.895" font-family="Times New Roman,serif" font-size="9.00">direcao sprites 1</text>
</g>
<!-- direcao sprites 1&#45;&gt;esquerda -->
<g id="edge57" class="edge"><title>direcao sprites 1&#45;&gt;esquerda</title>
<path fill="none" stroke="red" stroke-width="0.27454" d="M1585.53,-115.868C1598.65,-104.171 1623.36,-82.1437 1643.69,-64.02"/>
<polygon fill="red" stroke="red" stroke-width="0.27454" points="1646.09,-66.5619 1651.23,-57.2947 1641.44,-61.3369 1646.09,-66.5619"/>
</g>
<!-- direcao sprites 1&#45;&gt;direita -->
<g id="edge10" class="edge"><title>direcao sprites 1&#45;&gt;direita</title>
<path fill="none" stroke="green" stroke-width="0.278585" d="M1592.47,-115.972C1601.37,-111.802 1612.73,-106.963 1623.3,-103.882 1762.67,-63.2799 1935.16,-44.6058 2010.32,-37.9559"/>
<polygon fill="green" stroke="green" stroke-width="0.278585" points="2011.03,-41.4081 2020.69,-37.0608 2010.43,-34.434 2011.03,-41.4081"/>
</g>
<!-- direcao sprites 1&#45;&gt;pular -->
<g id="edge24" class="edge"><title>direcao sprites 1&#45;&gt;pular</title>
<path fill="none" stroke="green" stroke-width="0.185976" d="M1538.17,-117.179C1513.92,-112.944 1481.84,-107.634 1453.3,-103.882 1200.05,-70.5831 893.105,-45.512 791.109,-37.5871"/>
<polygon fill="green" stroke="green" stroke-width="0.185976" points="791.302,-34.0917 781.062,-36.8105 790.762,-41.0708 791.302,-34.0917"/>
</g>
<!-- direcao sprites 1&#45;&gt;atirar -->
<g id="edge5" class="edge"><title>direcao sprites 1&#45;&gt;atirar</title>
<path fill="none" stroke="red" stroke-width="0.248716" stroke-dasharray="1,5" d="M1538.23,-116.691C1514,-112.265 1481.92,-106.929 1453.3,-103.882 1129.85,-69.4528 1046.62,-92.9148 722.302,-67.8823 621.012,-60.0641 501.75,-46.2264 444.05,-39.2369"/>
<polygon fill="red" stroke="red" stroke-width="0.248716" points="444.361,-35.7489 434.011,-38.0144 443.514,-42.6976 444.361,-35.7489"/>
</g>
<!-- direcao sprites 1&#45;&gt;release -->
<g id="edge62" class="edge"><title>direcao sprites 1&#45;&gt;release</title>
<path fill="none" stroke="red" stroke-width="0.168614" d="M1557.25,-116.008C1547.5,-112.045 1535.39,-107.385 1524.3,-103.882 1439.32,-77.0269 1337.12,-54.1827 1282.75,-42.7581"/>
<polygon fill="red" stroke="red" stroke-width="0.168614" points="1283.36,-39.3091 1272.86,-40.6935 1281.93,-46.1616 1283.36,-39.3091"/>
</g>
<!-- direcao sprites 2 -->
<g id="node20" class="node"><title>direcao sprites 2</title>
<polygon fill="lightgray" stroke="black" points="1444.3,-134.095 1368.3,-134.095 1368.3,-116.095 1444.3,-116.095 1444.3,-134.095"/>
<text text-anchor="middle" x="1406.3" y="-122.895" font-family="Times New Roman,serif" font-size="9.00">direcao sprites 2</text>
</g>
<!-- direcao sprites 2&#45;&gt;esquerda -->
<g id="edge47" class="edge"><title>direcao sprites 2&#45;&gt;esquerda</title>
<path fill="none" stroke="green" stroke-width="0.945736" stroke-dasharray="1,5" d="M1430.74,-116.026C1476.91,-100.782 1577.42,-67.5922 1634.5,-48.7429"/>
<polygon fill="green" stroke="green" stroke-width="0.945736" points="1635.9,-51.9689 1644.3,-45.5098 1633.7,-45.3219 1635.9,-51.9689"/>
</g>
<!-- direcao sprites 2&#45;&gt;pular -->
<g id="edge1" class="edge"><title>direcao sprites 2&#45;&gt;pular</title>
<path fill="none" stroke="green" stroke-width="0.312643" stroke-dasharray="1,5" d="M1390.62,-115.978C1381.67,-111.701 1370.12,-106.759 1359.3,-103.882 1148.74,-47.8694 884.915,-37.364 791.251,-35.3949"/>
<polygon fill="green" stroke="green" stroke-width="0.312643" points="791.257,-31.8945 781.192,-35.2031 791.124,-38.8932 791.257,-31.8945"/>
</g>
<!-- direcao sprites 2&#45;&gt;release -->
<g id="edge53" class="edge"><title>direcao sprites 2&#45;&gt;release</title>
<path fill="none" stroke="red" stroke-width="0.698657" d="M1391.64,-116.026C1366.19,-102.019 1313.2,-72.8588 1278.2,-53.5959"/>
<polygon fill="red" stroke="red" stroke-width="0.698657" points="1279.73,-50.4419 1269.28,-48.6868 1276.35,-56.5746 1279.73,-50.4419"/>
</g>
<!-- atirar&#45;&gt;atirar -->
<g id="edge25" class="edge"><title>atirar&#45;&gt;atirar</title>
<path fill="none" stroke="red" stroke-width="0.121355" stroke-dasharray="1,5" d="M428.647,-49.6255C440.639,-53.4075 452.051,-48.1794 452.051,-33.9411 452.051,-23.8186 446.283,-18.2501 438.639,-17.2356"/>
<polygon fill="red" stroke="red" stroke-width="0.121355" points="438.239,-13.7582 428.647,-18.2568 438.951,-20.7219 438.239,-13.7582"/>
</g>
<!-- 933&#45;&gt;atirar -->
<g id="edge75" class="edge"><title>933&#45;&gt;atirar</title>
<path fill="none" stroke="green" stroke-width="0.260504" d="M197.131,-112.954C202.538,-109.808 208.567,-106.525 214.302,-103.882 269.354,-78.5161 336.59,-56.6268 376.006,-44.6584"/>
<polygon fill="green" stroke="green" stroke-width="0.260504" points="377.071,-47.993 385.641,-41.7626 375.056,-41.2892 377.071,-47.993"/>
</g>
<!-- 801&#45;&gt;pular -->
<g id="edge43" class="edge"><title>801&#45;&gt;pular</title>
<path fill="none" stroke="red" stroke-width="0.511056" d="M617.449,-113.572C622.865,-110.443 628.819,-107.015 634.302,-103.882 665.584,-86.0116 701.497,-65.7477 726.217,-51.8388"/>
<polygon fill="red" stroke="red" stroke-width="0.511056" points="728.109,-54.79 735.11,-46.8375 724.678,-48.6887 728.109,-54.79"/>
</g>
<!-- 801&#45;&gt;release -->
<g id="edge65" class="edge"><title>801&#45;&gt;release</title>
<path fill="none" stroke="green" stroke-width="0.941267" d="M619.954,-119.769C641.269,-115.395 675.515,-108.623 705.302,-103.882 891.966,-74.1756 1116.6,-48.7401 1205.43,-39.0862"/>
<polygon fill="green" stroke="green" stroke-width="0.941267" points="1206.02,-42.5436 1215.58,-37.9879 1205.26,-35.5842 1206.02,-42.5436"/>
</g>
<!-- 907&#45;&gt;direita -->
<g id="edge34" class="edge"><title>907&#45;&gt;direita</title>
<path fill="none" stroke="red" stroke-width="0.6031" d="M2279.52,-112.852C2274.11,-109.703 2268.07,-106.444 2262.3,-103.882 2202.02,-77.1302 2128.1,-55.6608 2084.79,-44.1537"/>
<polygon fill="red" stroke="red" stroke-width="0.6031" points="2085.55,-40.7345 2074.99,-41.5807 2083.78,-47.5051 2085.55,-40.7345"/>
</g>
<!-- 920&#45;&gt;release -->
<g id="edge73" class="edge"><title>920&#45;&gt;release</title>
<path fill="none" stroke="red" stroke-width="0.482893" d="M1314.88,-108.972C1302.94,-96.4492 1285.65,-78.3139 1271.18,-63.1273"/>
<polygon fill="red" stroke="red" stroke-width="0.482893" points="1273.34,-60.3224 1263.9,-55.4999 1268.27,-65.1527 1273.34,-60.3224"/>
</g>
</g>
</svg>
