<?xml version="1.0" encoding="UTF-8" standalone="no"?>
<!DOCTYPE svg PUBLIC "-//W3C//DTD SVG 1.1//EN"
 "http://www.w3.org/Graphics/SVG/1.1/DTD/svg11.dtd">
<!-- Generated by graphviz version 2.38.0 (20140413.2041)
 -->
<!-- Title: %3 Pages: 1 -->
<svg width="2122pt" height="208pt"
 viewBox="0.00 0.00 2121.55 208.31" xmlns="http://www.w3.org/2000/svg" xmlns:xlink="http://www.w3.org/1999/xlink">
<g id="graph0" class="graph" transform="scale(1 1) rotate(0) translate(4 204.309)">
<title>%3</title>
<polygon fill="white" stroke="none" points="-4,4 -4,-204.309 2117.55,-204.309 2117.55,4 -4,4"/>
<!-- dintancia projetil 1 -->
<g id="node1" class="node"><title>dintancia projetil 1</title>
<polygon fill="lightgray" stroke="black" points="301.549,-134.095 217.549,-134.095 217.549,-116.095 301.549,-116.095 301.549,-134.095"/>
<text text-anchor="middle" x="259.549" y="-122.895" font-family="Times New Roman,serif" font-size="9.00">dintancia projetil 1</text>
</g>
<!-- esquerda -->
<g id="node21" class="node"><title>esquerda</title>
<ellipse fill="lightblue" stroke="black" cx="867.549" cy="-33.9411" rx="33.8824" ry="33.8824"/>
<text text-anchor="middle" x="867.549" y="-31.7411" font-family="Times New Roman,serif" font-size="9.00">esquerda</text>
</g>
<!-- dintancia projetil 1&#45;&gt;esquerda -->
<g id="edge6" class="edge"><title>dintancia projetil 1&#45;&gt;esquerda</title>
<path fill="none" stroke="green" stroke-width="0.858412" d="M276.134,-116.019C285.912,-111.642 298.662,-106.589 310.549,-103.882 532.107,-53.4275 606.394,-143.852 820.549,-67.8823 824.892,-66.3415 829.2,-64.2823 833.344,-61.9422"/>
<polygon fill="green" stroke="green" stroke-width="0.858412" points="835.481,-64.7338 842.103,-56.4631 831.769,-58.7993 835.481,-64.7338"/>
</g>
<!-- direita -->
<g id="node22" class="node"><title>direita</title>
<ellipse fill="lightblue" stroke="black" cx="972.549" cy="-33.9411" rx="27.6545" ry="27.6545"/>
<text text-anchor="middle" x="972.549" y="-31.7411" font-family="Times New Roman,serif" font-size="9.00">direita</text>
</g>
<!-- dintancia projetil 1&#45;&gt;direita -->
<g id="edge29" class="edge"><title>dintancia projetil 1&#45;&gt;direita</title>
<path fill="none" stroke="green" stroke-width="0.468678" stroke-dasharray="1,5" d="M276.122,-115.964C285.896,-111.569 298.646,-106.516 310.549,-103.882 444.866,-74.1613 799.343,-115.107 928.549,-67.8823 934.176,-65.8257 939.689,-62.7966 944.806,-59.3958"/>
<polygon fill="green" stroke="green" stroke-width="0.468678" points="946.974,-62.1465 952.994,-53.4275 942.851,-56.4898 946.974,-62.1465"/>
</g>
<!-- pular -->
<g id="node23" class="node"><title>pular</title>
<ellipse fill="lightblue" stroke="black" cx="768.549" cy="-33.9411" rx="25" ry="25"/>
<text text-anchor="middle" x="768.549" y="-31.7411" font-family="Times New Roman,serif" font-size="9.00">pular</text>
</g>
<!-- dintancia projetil 1&#45;&gt;pular -->
<g id="edge37" class="edge"><title>dintancia projetil 1&#45;&gt;pular</title>
<path fill="none" stroke="red" stroke-width="0.474591" d="M277.149,-115.968C286.824,-111.795 299.146,-106.957 310.549,-103.882 465.15,-62.1958 656.358,-43.6477 733.677,-37.4643"/>
<polygon fill="red" stroke="red" stroke-width="0.474591" points="734.118,-40.9406 743.816,-36.6728 733.574,-33.9619 734.118,-40.9406"/>
</g>
<!-- atirar -->
<g id="node24" class="node"><title>atirar</title>
<ellipse fill="lightblue" stroke="black" cx="1173.55" cy="-33.9411" rx="25" ry="25"/>
<text text-anchor="middle" x="1173.55" y="-31.7411" font-family="Times New Roman,serif" font-size="9.00">atirar</text>
</g>
<!-- dintancia projetil 1&#45;&gt;atirar -->
<g id="edge68" class="edge"><title>dintancia projetil 1&#45;&gt;atirar</title>
<path fill="none" stroke="green" stroke-width="0.137388" stroke-dasharray="1,5" d="M276.108,-115.9C285.877,-111.484 298.627,-106.431 310.549,-103.882 489.135,-65.7093 960.282,-131.267 1131.55,-67.8823 1137.59,-65.6448 1143.46,-62.1911 1148.79,-58.3473"/>
<polygon fill="green" stroke="green" stroke-width="0.137388" points="1151.01,-61.0542 1156.68,-52.1046 1146.66,-55.5646 1151.01,-61.0542"/>
</g>
<!-- release -->
<g id="node25" class="node"><title>release</title>
<ellipse fill="lightblue" stroke="black" cx="1075.55" cy="-33.9411" rx="28.9828" ry="28.9828"/>
<text text-anchor="middle" x="1075.55" y="-31.7411" font-family="Times New Roman,serif" font-size="9.00">release</text>
</g>
<!-- dintancia projetil 1&#45;&gt;release -->
<g id="edge21" class="edge"><title>dintancia projetil 1&#45;&gt;release</title>
<path fill="none" stroke="red" stroke-width="0.516626" stroke-dasharray="1,5" d="M276.114,-115.928C285.886,-111.522 298.636,-106.468 310.549,-103.882 466.452,-70.04 876.408,-118.945 1027.55,-67.8823 1033.71,-65.8017 1039.8,-62.6876 1045.47,-59.1904"/>
<polygon fill="red" stroke="red" stroke-width="0.516626" points="1047.64,-61.9529 1053.99,-53.4732 1043.74,-56.1411 1047.64,-61.9529"/>
</g>
<!-- distancia projetil 2 -->
<g id="node2" class="node"><title>distancia projetil 2</title>
<polygon fill="lightgray" stroke="black" points="403.049,-134.095 320.049,-134.095 320.049,-116.095 403.049,-116.095 403.049,-134.095"/>
<text text-anchor="middle" x="361.549" y="-122.895" font-family="Times New Roman,serif" font-size="9.00">distancia projetil 2</text>
</g>
<!-- distancia projetil 2&#45;&gt;esquerda -->
<g id="edge1" class="edge"><title>distancia projetil 2&#45;&gt;esquerda</title>
<path fill="none" stroke="red" stroke-width="0.390344" d="M377.81,-116.09C387.397,-111.738 399.897,-106.684 411.549,-103.882 588.972,-61.2181 649.104,-130.378 820.549,-67.8823 824.879,-66.3039 829.178,-64.2207 833.317,-61.8666"/>
<polygon fill="red" stroke="red" stroke-width="0.390344" points="835.462,-64.6527 842.07,-56.371 831.74,-58.7243 835.462,-64.6527"/>
</g>
<!-- distancia projetil 2&#45;&gt;direita -->
<g id="edge86" class="edge"><title>distancia projetil 2&#45;&gt;direita</title>
<path fill="none" stroke="green" stroke-width="0.54839" d="M377.791,-116.01C387.371,-111.631 399.871,-106.578 411.549,-103.882 635.982,-52.0783 712.664,-148.178 928.549,-67.8823 934.164,-65.7938 939.671,-62.7485 944.786,-59.3414"/>
<polygon fill="green" stroke="green" stroke-width="0.54839" points="946.956,-62.0911 952.973,-53.3707 942.831,-56.4354 946.956,-62.0911"/>
</g>
<!-- distancia projetil 2&#45;&gt;pular -->
<g id="edge36" class="edge"><title>distancia projetil 2&#45;&gt;pular</title>
<path fill="none" stroke="red" stroke-width="0.359211" stroke-dasharray="1,5" d="M379.302,-115.941C388.726,-111.863 400.595,-107.121 411.549,-103.882 527.379,-69.6359 669.505,-48.0682 733.904,-39.3587"/>
<polygon fill="red" stroke="red" stroke-width="0.359211" points="734.469,-42.8145 743.919,-38.0237 733.544,-35.8758 734.469,-42.8145"/>
</g>
<!-- distancia projetil 2&#45;&gt;atirar -->
<g id="edge18" class="edge"><title>distancia projetil 2&#45;&gt;atirar</title>
<path fill="none" stroke="red" stroke-width="0.454514" d="M377.772,-115.925C387.346,-111.517 399.846,-106.463 411.549,-103.882 567.99,-69.3805 981.48,-123.946 1131.55,-67.8823 1137.59,-65.6263 1143.45,-62.1641 1148.78,-58.3178"/>
<polygon fill="red" stroke="red" stroke-width="0.454514" points="1150.99,-61.0249 1156.67,-52.0755 1146.65,-55.5351 1150.99,-61.0249"/>
</g>
<!-- distancia projetil 2&#45;&gt;release -->
<g id="edge40" class="edge"><title>distancia projetil 2&#45;&gt;release</title>
<path fill="none" stroke="red" stroke-width="0.90982" d="M377.78,-115.962C387.357,-111.566 399.857,-106.513 411.549,-103.882 679.107,-43.6924 768.094,-156.727 1027.55,-67.8823 1033.7,-65.7765 1039.79,-62.6498 1045.46,-59.148"/>
<polygon fill="red" stroke="red" stroke-width="0.90982" points="1047.62,-61.9099 1053.97,-53.4292 1043.72,-56.0986 1047.62,-61.9099"/>
</g>
<!-- distancia projetil 3 -->
<g id="node3" class="node"><title>distancia projetil 3</title>
<polygon fill="lightgray" stroke="black" points="504.049,-134.095 421.049,-134.095 421.049,-116.095 504.049,-116.095 504.049,-134.095"/>
<text text-anchor="middle" x="462.549" y="-122.895" font-family="Times New Roman,serif" font-size="9.00">distancia projetil 3</text>
</g>
<!-- distancia projetil 3&#45;&gt;esquerda -->
<g id="edge43" class="edge"><title>distancia projetil 3&#45;&gt;esquerda</title>
<path fill="none" stroke="green" stroke-width="0.169118" d="M479.293,-116.012C488.828,-111.746 501.119,-106.804 512.549,-103.882 646.076,-69.7493 691.75,-116.927 820.549,-67.8823 824.802,-66.2628 829.034,-64.1727 833.116,-61.8314"/>
<polygon fill="green" stroke="green" stroke-width="0.169118" points="835.164,-64.6778 841.764,-56.39 831.436,-58.7529 835.164,-64.6778"/>
</g>
<!-- distancia projetil 3&#45;&gt;direita -->
<g id="edge12" class="edge"><title>distancia projetil 3&#45;&gt;direita</title>
<path fill="none" stroke="red" stroke-width="0.123726" stroke-dasharray="1,5" d="M478.808,-116.084C488.395,-111.729 500.895,-106.676 512.549,-103.882 693.017,-60.6261 755.16,-134.035 928.549,-67.8823 933.899,-65.8413 939.157,-62.9475 944.074,-59.7128"/>
<polygon fill="red" stroke="red" stroke-width="0.123726" points="946.44,-62.3222 952.501,-53.6327 942.344,-56.6456 946.44,-62.3222"/>
</g>
<!-- distancia projetil 3&#45;&gt;pular -->
<g id="edge79" class="edge"><title>distancia projetil 3&#45;&gt;pular</title>
<path fill="none" stroke="green" stroke-width="0.120868" d="M480.871,-116.068C490.245,-112.12 501.897,-107.455 512.549,-103.882 590.975,-77.5774 685.453,-54.2293 734.794,-42.6503"/>
<polygon fill="green" stroke="green" stroke-width="0.120868" points="735.671,-46.0398 744.616,-40.3613 734.082,-39.2225 735.671,-46.0398"/>
</g>
<!-- distancia projetil 3&#45;&gt;atirar -->
<g id="edge50" class="edge"><title>distancia projetil 3&#45;&gt;atirar</title>
<path fill="none" stroke="red" stroke-width="0.293652" stroke-dasharray="1,5" d="M478.779,-115.96C488.356,-111.564 500.856,-106.511 512.549,-103.882 646.982,-73.6602 1002.67,-116.627 1131.55,-67.8823 1137.58,-65.6018 1143.43,-62.1284 1148.76,-58.2787"/>
<polygon fill="red" stroke="red" stroke-width="0.293652" points="1150.98,-60.9861 1156.65,-52.037 1146.64,-55.496 1150.98,-60.9861"/>
</g>
<!-- distancia projetil 3&#45;&gt;release -->
<g id="edge22" class="edge"><title>distancia projetil 3&#45;&gt;release</title>
<path fill="none" stroke="red" stroke-width="0.187301" d="M478.791,-116.012C488.372,-111.633 500.872,-106.579 512.549,-103.882 736.111,-52.2476 810.904,-143.452 1027.55,-67.8823 1033.69,-65.7414 1039.77,-62.5973 1045.44,-59.089"/>
<polygon fill="red" stroke="red" stroke-width="0.187301" points="1047.6,-61.8501 1053.95,-53.3682 1043.7,-56.0397 1047.6,-61.8501"/>
</g>
<!-- distancia projetil 4 -->
<g id="node4" class="node"><title>distancia projetil 4</title>
<polygon fill="lightgray" stroke="black" points="605.049,-134.095 522.049,-134.095 522.049,-116.095 605.049,-116.095 605.049,-134.095"/>
<text text-anchor="middle" x="563.549" y="-122.895" font-family="Times New Roman,serif" font-size="9.00">distancia projetil 4</text>
</g>
<!-- distancia projetil 4&#45;&gt;esquerda -->
<g id="edge89" class="edge"><title>distancia projetil 4&#45;&gt;esquerda</title>
<path fill="none" stroke="red" stroke-width="0.317481" d="M580.816,-116.058C590.305,-111.913 602.385,-107.071 613.549,-103.882 703.34,-78.2389 734.243,-103.536 820.549,-67.8823 824.755,-66.1447 828.957,-63.9786 833.021,-61.5923"/>
<polygon fill="red" stroke="red" stroke-width="0.317481" points="835.094,-64.4215 841.648,-56.0971 831.333,-58.5174 835.094,-64.4215"/>
</g>
<!-- distancia projetil 4&#45;&gt;direita -->
<g id="edge20" class="edge"><title>distancia projetil 4&#45;&gt;direita</title>
<path fill="none" stroke="green" stroke-width="0.21377" d="M580.29,-116.001C589.824,-111.731 602.116,-106.789 613.549,-103.882 750.115,-69.1589 797.597,-119.916 928.549,-67.8823 933.87,-65.768 939.114,-62.8353 944.024,-59.584"/>
<polygon fill="green" stroke="green" stroke-width="0.21377" points="946.393,-62.19 952.448,-53.4953 942.293,-56.5168 946.393,-62.19"/>
</g>
<!-- distancia projetil 4&#45;&gt;pular -->
<g id="edge49" class="edge"><title>distancia projetil 4&#45;&gt;pular</title>
<path fill="none" stroke="red" stroke-width="0.263255" d="M582.103,-116.026C617.197,-100.764 693.654,-67.5131 736.968,-48.6756"/>
<polygon fill="red" stroke="red" stroke-width="0.263255" points="738.421,-51.8607 746.195,-44.6629 735.629,-45.4415 738.421,-51.8607"/>
</g>
<!-- distancia projetil 4&#45;&gt;atirar -->
<g id="edge78" class="edge"><title>distancia projetil 4&#45;&gt;atirar</title>
<path fill="none" stroke="red" stroke-width="0.30158" d="M579.791,-116.01C589.371,-111.63 601.871,-106.577 613.549,-103.882 838.418,-51.9936 916.16,-150.742 1131.55,-67.8823 1137.31,-65.6655 1142.92,-62.3714 1148.06,-58.7109"/>
<polygon fill="red" stroke="red" stroke-width="0.30158" points="1150.5,-61.2463 1156.23,-52.3301 1146.19,-55.7313 1150.5,-61.2463"/>
</g>
<!-- distancia projetil 4&#45;&gt;release -->
<g id="edge67" class="edge"><title>distancia projetil 4&#45;&gt;release</title>
<path fill="none" stroke="red" stroke-width="0.292288" d="M579.809,-116.086C589.395,-111.731 601.895,-106.678 613.549,-103.882 793.147,-60.7953 853.681,-130.188 1027.55,-67.8823 1033.67,-65.6895 1039.74,-62.5195 1045.41,-59.0016"/>
<polygon fill="red" stroke="red" stroke-width="0.292288" points="1047.58,-61.7617 1053.92,-53.2777 1043.67,-55.9524 1047.58,-61.7617"/>
</g>
<!-- distancia projetil 5 -->
<g id="node5" class="node"><title>distancia projetil 5</title>
<polygon fill="lightgray" stroke="black" points="706.049,-134.095 623.049,-134.095 623.049,-116.095 706.049,-116.095 706.049,-134.095"/>
<text text-anchor="middle" x="664.549" y="-122.895" font-family="Times New Roman,serif" font-size="9.00">distancia projetil 5</text>
</g>
<!-- distancia projetil 5&#45;&gt;esquerda -->
<g id="edge35" class="edge"><title>distancia projetil 5&#45;&gt;esquerda</title>
<path fill="none" stroke="green" stroke-width="0.19108" d="M683.92,-115.966C693.148,-112.17 704.368,-107.666 714.549,-103.882 761.187,-86.5515 776.176,-90.3866 820.549,-67.8823 824.557,-65.8499 828.61,-63.5114 832.57,-61.0377"/>
<polygon fill="green" stroke="green" stroke-width="0.19108" points="834.601,-63.8914 841.034,-55.4728 830.755,-58.0424 834.601,-63.8914"/>
</g>
<!-- distancia projetil 5&#45;&gt;direita -->
<g id="edge8" class="edge"><title>distancia projetil 5&#45;&gt;direita</title>
<path fill="none" stroke="red" stroke-width="0.124283" d="M681.809,-116.034C691.296,-111.881 703.377,-107.04 714.549,-103.882 807.362,-77.6532 839.891,-105.854 928.549,-67.8823 933.812,-65.6281 939.025,-62.6211 943.923,-59.3379"/>
<polygon fill="red" stroke="red" stroke-width="0.124283" points="946.299,-61.9377 952.339,-53.233 942.189,-56.2713 946.299,-61.9377"/>
</g>
<!-- distancia projetil 5&#45;&gt;pular -->
<g id="edge97" class="edge"><title>distancia projetil 5&#45;&gt;pular</title>
<path fill="none" stroke="red" stroke-width="0.151643" d="M674.147,-115.868C689.463,-102.738 719.967,-76.5886 742.166,-57.5578"/>
<polygon fill="red" stroke="red" stroke-width="0.151643" points="744.612,-60.0715 749.926,-50.9059 740.056,-54.757 744.612,-60.0715"/>
</g>
<!-- distancia projetil 5&#45;&gt;atirar -->
<g id="edge65" class="edge"><title>distancia projetil 5&#45;&gt;atirar</title>
<path fill="none" stroke="green" stroke-width="0.469343" d="M680.808,-116.083C690.394,-111.728 702.894,-106.675 714.549,-103.882 895.453,-60.5416 958.495,-136.123 1131.55,-67.8823 1137.29,-65.6174 1142.89,-62.3002 1148.03,-58.6319"/>
<polygon fill="green" stroke="green" stroke-width="0.469343" points="1150.47,-61.1671 1156.19,-52.2506 1146.16,-55.6523 1150.47,-61.1671"/>
</g>
<!-- distancia projetil 5&#45;&gt;release -->
<g id="edge58" class="edge"><title>distancia projetil 5&#45;&gt;release</title>
<path fill="none" stroke="green" stroke-width="0.183378" stroke-dasharray="1,5" d="M681.291,-116.004C690.825,-111.736 703.117,-106.793 714.549,-103.882 850.247,-69.3276 896.398,-116.946 1027.55,-67.8823 1033.51,-65.6512 1039.45,-62.5233 1045.01,-59.075"/>
<polygon fill="green" stroke="green" stroke-width="0.183378" points="1047.02,-61.9422 1053.39,-53.4755 1043.13,-56.1224 1047.02,-61.9422"/>
</g>
<!-- distancia projetil 6 -->
<g id="node6" class="node"><title>distancia projetil 6</title>
<polygon fill="lightgray" stroke="black" points="807.049,-134.095 724.049,-134.095 724.049,-116.095 807.049,-116.095 807.049,-134.095"/>
<text text-anchor="middle" x="765.549" y="-122.895" font-family="Times New Roman,serif" font-size="9.00">distancia projetil 6</text>
</g>
<!-- distancia projetil 6&#45;&gt;esquerda -->
<g id="edge76" class="edge"><title>distancia projetil 6&#45;&gt;esquerda</title>
<path fill="none" stroke="red" stroke-width="0.757486" stroke-dasharray="1,5" d="M774.962,-115.868C788.432,-104.095 813.875,-81.8553 834.687,-63.6651"/>
<polygon fill="red" stroke="red" stroke-width="0.757486" points="837.175,-66.1384 842.401,-56.9221 832.568,-60.8679 837.175,-66.1384"/>
</g>
<!-- distancia projetil 6&#45;&gt;direita -->
<g id="edge11" class="edge"><title>distancia projetil 6&#45;&gt;direita</title>
<path fill="none" stroke="red" stroke-width="0.693207" d="M784.413,-116.076C793.722,-112.22 805.157,-107.632 815.549,-103.882 865.129,-85.9918 881.688,-92.0131 928.549,-67.8823 933.639,-65.2611 938.761,-62.059 943.619,-58.6924"/>
<polygon fill="red" stroke="red" stroke-width="0.693207" points="946.014,-61.2763 952.015,-52.5447 941.879,-55.6283 946.014,-61.2763"/>
</g>
<!-- distancia projetil 6&#45;&gt;pular -->
<g id="edge17" class="edge"><title>distancia projetil 6&#45;&gt;pular</title>
<path fill="none" stroke="red" stroke-width="0.308331" d="M765.826,-115.868C766.184,-105.23 766.83,-86.0459 767.402,-69.0257"/>
<polygon fill="red" stroke="red" stroke-width="0.308331" points="770.908,-68.9156 767.746,-58.8036 763.912,-68.6802 770.908,-68.9156"/>
</g>
<!-- distancia projetil 6&#45;&gt;atirar -->
<g id="edge47" class="edge"><title>distancia projetil 6&#45;&gt;atirar</title>
<path fill="none" stroke="red" stroke-width="0.387389" d="M782.289,-115.999C791.824,-111.729 804.115,-106.787 815.549,-103.882 952.549,-69.0745 1000.77,-121.527 1131.55,-67.8823 1137.26,-65.5391 1142.84,-62.1844 1147.98,-58.5034"/>
<polygon fill="red" stroke="red" stroke-width="0.387389" points="1150.42,-61.0383 1156.14,-52.1215 1146.11,-55.5238 1150.42,-61.0383"/>
</g>
<!-- distancia projetil 6&#45;&gt;release -->
<g id="edge59" class="edge"><title>distancia projetil 6&#45;&gt;release</title>
<path fill="none" stroke="red" stroke-width="0.228565" d="M782.811,-116.041C792.299,-111.89 804.379,-107.048 815.549,-103.882 907.498,-77.8206 938.968,-103.76 1027.55,-67.8823 1033.45,-65.4919 1039.35,-62.2831 1044.9,-58.8034"/>
<polygon fill="red" stroke="red" stroke-width="0.228565" points="1046.92,-61.6662 1053.28,-53.191 1043.02,-55.8516 1046.92,-61.6662"/>
</g>
<!-- distancia projetil 7 -->
<g id="node7" class="node"><title>distancia projetil 7</title>
<polygon fill="lightgray" stroke="black" points="199.049,-134.095 116.049,-134.095 116.049,-116.095 199.049,-116.095 199.049,-134.095"/>
<text text-anchor="middle" x="157.549" y="-122.895" font-family="Times New Roman,serif" font-size="9.00">distancia projetil 7</text>
</g>
<!-- distancia projetil 7&#45;&gt;esquerda -->
<g id="edge28" class="edge"><title>distancia projetil 7&#45;&gt;esquerda</title>
<path fill="none" stroke="green" stroke-width="0.290546" d="M174.122,-115.967C183.897,-111.573 196.647,-106.519 208.549,-103.882 341.558,-74.411 691.889,-112.677 820.549,-67.8823 824.901,-66.367 829.215,-64.324 833.362,-61.9935"/>
<polygon fill="green" stroke="green" stroke-width="0.290546" points="835.494,-64.7889 842.125,-56.5256 831.788,-58.8502 835.494,-64.7889"/>
</g>
<!-- distancia projetil 7&#45;&gt;direita -->
<g id="edge96" class="edge"><title>distancia projetil 7&#45;&gt;direita</title>
<path fill="none" stroke="red" stroke-width="0.451747" d="M174.114,-115.927C183.885,-111.52 196.635,-106.467 208.549,-103.882 365.107,-69.9151 777.86,-122.257 928.549,-67.8823 934.184,-65.8488 939.702,-62.8316 944.821,-59.4354"/>
<polygon fill="red" stroke="red" stroke-width="0.451747" points="946.988,-62.1867 953.009,-53.4688 942.865,-56.5294 946.988,-62.1867"/>
</g>
<!-- distancia projetil 7&#45;&gt;pular -->
<g id="edge63" class="edge"><title>distancia projetil 7&#45;&gt;pular</title>
<path fill="none" stroke="red" stroke-width="0.170507" d="M174.651,-116.048C184.385,-111.793 196.921,-106.85 208.549,-103.882 403.045,-54.2362 644.985,-39.8963 733.791,-36.1504"/>
<polygon fill="red" stroke="red" stroke-width="0.170507" points="733.998,-39.645 743.848,-35.7444 733.715,-32.6507 733.998,-39.645"/>
</g>
<!-- distancia projetil 7&#45;&gt;release -->
<g id="edge45" class="edge"><title>distancia projetil 7&#45;&gt;release</title>
<path fill="none" stroke="green" stroke-width="0.422044" d="M174.108,-115.901C183.878,-111.484 196.628,-106.431 208.549,-103.882 386.698,-65.7925 854.776,-125.654 1027.55,-67.8823 1033.71,-65.821 1039.81,-62.7164 1045.48,-59.2228"/>
<polygon fill="green" stroke="green" stroke-width="0.422044" points="1047.65,-61.9856 1054,-53.5067 1043.75,-56.1734 1047.65,-61.9856"/>
</g>
<!-- distancia projetil 8 -->
<g id="node8" class="node"><title>distancia projetil 8</title>
<polygon fill="lightgray" stroke="black" points="908.049,-134.095 825.049,-134.095 825.049,-116.095 908.049,-116.095 908.049,-134.095"/>
<text text-anchor="middle" x="866.549" y="-122.895" font-family="Times New Roman,serif" font-size="9.00">distancia projetil 8</text>
</g>
<!-- distancia projetil 8&#45;&gt;esquerda -->
<g id="edge73" class="edge"><title>distancia projetil 8&#45;&gt;esquerda</title>
<path fill="none" stroke="red" stroke-width="0.550003" d="M866.641,-115.868C866.739,-107.126 866.902,-92.615 867.063,-78.2752"/>
<polygon fill="red" stroke="red" stroke-width="0.550003" points="870.566,-77.9876 867.179,-67.9489 863.567,-77.909 870.566,-77.9876"/>
</g>
<!-- distancia projetil 8&#45;&gt;direita -->
<g id="edge4" class="edge"><title>distancia projetil 8&#45;&gt;direita</title>
<path fill="none" stroke="red" stroke-width="0.856279" d="M876.331,-115.868C891.486,-103.122 921.228,-78.1067 943.653,-59.245"/>
<polygon fill="red" stroke="red" stroke-width="0.856279" points="946.144,-61.7238 951.544,-52.6084 941.638,-56.3667 946.144,-61.7238"/>
</g>
<!-- distancia projetil 8&#45;&gt;pular -->
<g id="edge32" class="edge"><title>distancia projetil 8&#45;&gt;pular</title>
<path fill="none" stroke="green" stroke-width="0.169242" d="M857.505,-115.868C843.22,-102.872 814.914,-77.1211 794.053,-58.1429"/>
<polygon fill="green" stroke="green" stroke-width="0.169242" points="796.219,-55.382 786.467,-51.2415 791.509,-60.5599 796.219,-55.382"/>
</g>
<!-- distancia projetil 8&#45;&gt;atirar -->
<g id="edge62" class="edge"><title>distancia projetil 8&#45;&gt;atirar</title>
<path fill="none" stroke="red" stroke-width="0.371289" d="M883.808,-116.03C893.295,-111.876 905.375,-107.035 916.549,-103.882 1009.79,-77.5695 1042.91,-106.99 1131.55,-67.8823 1137.2,-65.3901 1142.75,-61.964 1147.88,-58.2588"/>
<polygon fill="red" stroke="red" stroke-width="0.371289" points="1150.32,-60.7931 1156.04,-51.8754 1146,-55.2792 1150.32,-60.7931"/>
</g>
<!-- distancia projetil 8&#45;&gt;release -->
<g id="edge95" class="edge"><title>distancia projetil 8&#45;&gt;release</title>
<path fill="none" stroke="red" stroke-width="0.349008" d="M885.897,-115.903C895.119,-112.094 906.342,-107.595 916.549,-103.882 965.287,-86.1522 981.021,-90.7922 1027.55,-67.8823 1033.26,-65.0695 1039.07,-61.6462 1044.58,-58.0831"/>
<polygon fill="red" stroke="red" stroke-width="0.349008" points="1046.61,-60.9351 1052.94,-52.4367 1042.69,-55.1347 1046.61,-60.9351"/>
</g>
<!-- distancia projetil 9 -->
<g id="node9" class="node"><title>distancia projetil 9</title>
<polygon fill="lightgray" stroke="black" points="1009.05,-134.095 926.049,-134.095 926.049,-116.095 1009.05,-116.095 1009.05,-134.095"/>
<text text-anchor="middle" x="967.549" y="-122.895" font-family="Times New Roman,serif" font-size="9.00">distancia projetil 9</text>
</g>
<!-- distancia projetil 9&#45;&gt;esquerda -->
<g id="edge88" class="edge"><title>distancia projetil 9&#45;&gt;esquerda</title>
<path fill="none" stroke="red" stroke-width="0.344393" stroke-dasharray="1,5" d="M958.321,-115.868C945.201,-104.171 920.494,-82.1437 900.165,-64.02"/>
<polygon fill="red" stroke="red" stroke-width="0.344393" points="902.415,-61.3369 892.622,-57.2947 897.757,-66.5619 902.415,-61.3369"/>
</g>
<!-- distancia projetil 9&#45;&gt;direita -->
<g id="edge60" class="edge"><title>distancia projetil 9&#45;&gt;direita</title>
<path fill="none" stroke="red" stroke-width="0.65161" stroke-dasharray="1,5" d="M968.011,-115.868C968.574,-105.825 969.564,-88.1666 970.476,-71.902"/>
<polygon fill="red" stroke="red" stroke-width="0.65161" points="973.994,-71.6896 971.059,-61.5093 967.005,-71.2976 973.994,-71.6896"/>
</g>
<!-- distancia projetil 9&#45;&gt;pular -->
<g id="edge48" class="edge"><title>distancia projetil 9&#45;&gt;pular</title>
<path fill="none" stroke="red" stroke-width="0.328464" d="M947.207,-116.01C937.87,-112.304 926.652,-107.861 916.549,-103.882 875.695,-87.7932 864.041,-87.0737 824.549,-67.8823 815.683,-63.5738 806.345,-58.3681 797.889,-53.3799"/>
<polygon fill="red" stroke="red" stroke-width="0.328464" points="799.498,-50.263 789.125,-48.1053 795.888,-56.2606 799.498,-50.263"/>
</g>
<!-- distancia projetil 9&#45;&gt;atirar -->
<g id="edge19" class="edge"><title>distancia projetil 9&#45;&gt;atirar</title>
<path fill="none" stroke="red" stroke-width="0.410135" d="M987.289,-115.904C996.697,-112.095 1008.14,-107.597 1018.55,-103.882 1068.19,-86.1613 1084.96,-92.5378 1131.55,-67.8823 1137.01,-64.9943 1142.47,-61.3783 1147.56,-57.6089"/>
<polygon fill="red" stroke="red" stroke-width="0.410135" points="1150,-60.1418 1155.72,-51.2219 1145.69,-54.6295 1150,-60.1418"/>
</g>
<!-- distancia projetil 9&#45;&gt;release -->
<g id="edge66" class="edge"><title>distancia projetil 9&#45;&gt;release</title>
<path fill="none" stroke="red" stroke-width="0.595287" d="M977.516,-115.868C992.837,-103.22 1022.79,-78.4919 1045.58,-59.6826"/>
<polygon fill="red" stroke="red" stroke-width="0.595287" points="1047.82,-62.3712 1053.3,-53.3059 1043.36,-56.9729 1047.82,-62.3712"/>
</g>
<!-- distancia projetil 10 -->
<g id="node10" class="node"><title>distancia projetil 10</title>
<polygon fill="lightgray" stroke="black" points="1115.55,-134.095 1027.55,-134.095 1027.55,-116.095 1115.55,-116.095 1115.55,-134.095"/>
<text text-anchor="middle" x="1071.55" y="-122.895" font-family="Times New Roman,serif" font-size="9.00">distancia projetil 10</text>
</g>
<!-- distancia projetil 10&#45;&gt;esquerda -->
<g id="edge34" class="edge"><title>distancia projetil 10&#45;&gt;esquerda</title>
<path fill="none" stroke="green" stroke-width="0.112026" d="M1051.11,-116.086C1024.36,-105.504 976.112,-86.0711 935.549,-67.8823 926.123,-63.6555 916.062,-58.9121 906.648,-54.3698"/>
<polygon fill="green" stroke="green" stroke-width="0.112026" points="908.021,-51.1456 897.497,-49.9211 904.96,-57.4411 908.021,-51.1456"/>
</g>
<!-- distancia projetil 10&#45;&gt;direita -->
<g id="edge64" class="edge"><title>distancia projetil 10&#45;&gt;direita</title>
<path fill="none" stroke="red" stroke-width="0.19881" d="M1062.41,-115.868C1048.41,-103.254 1021.06,-78.6248 1000.19,-59.8345"/>
<polygon fill="red" stroke="red" stroke-width="0.19881" points="1002.33,-57.0471 992.553,-52.956 997.642,-62.2488 1002.33,-57.0471"/>
</g>
<!-- distancia projetil 10&#45;&gt;pular -->
<g id="edge74" class="edge"><title>distancia projetil 10&#45;&gt;pular</title>
<path fill="none" stroke="green" stroke-width="0.101833" d="M1052.32,-115.969C1042.13,-111.899 1029.32,-107.155 1017.55,-103.882 933.483,-80.4994 906.272,-98.4628 824.549,-67.8823 815.239,-64.3986 805.703,-59.4098 797.2,-54.365"/>
<polygon fill="green" stroke="green" stroke-width="0.101833" points="798.782,-51.2279 788.437,-48.9374 795.096,-57.1787 798.782,-51.2279"/>
</g>
<!-- distancia projetil 10&#45;&gt;atirar -->
<g id="edge7" class="edge"><title>distancia projetil 10&#45;&gt;atirar</title>
<path fill="none" stroke="red" stroke-width="0.307077" d="M1080.96,-115.868C1095.98,-102.738 1125.9,-76.5886 1147.67,-57.5578"/>
<polygon fill="red" stroke="red" stroke-width="0.307077" points="1150.06,-60.1222 1155.28,-50.9059 1145.45,-54.8517 1150.06,-60.1222"/>
</g>
<!-- distancia projetil 10&#45;&gt;release -->
<g id="edge56" class="edge"><title>distancia projetil 10&#45;&gt;release</title>
<path fill="none" stroke="red" stroke-width="0.130668" stroke-dasharray="1,5" d="M1071.92,-115.868C1072.36,-106.108 1073.12,-89.1554 1073.83,-73.2796"/>
<polygon fill="red" stroke="red" stroke-width="0.130668" points="1077.33,-73.2358 1074.29,-63.0889 1070.34,-72.922 1077.33,-73.2358"/>
</g>
<!-- distancia projetil 11 -->
<g id="node11" class="node"><title>distancia projetil 11</title>
<polygon fill="lightgray" stroke="black" points="1761.55,-134.095 1673.55,-134.095 1673.55,-116.095 1761.55,-116.095 1761.55,-134.095"/>
<text text-anchor="middle" x="1717.55" y="-122.895" font-family="Times New Roman,serif" font-size="9.00">distancia projetil 11</text>
</g>
<!-- distancia projetil 11&#45;&gt;direita -->
<g id="edge46" class="edge"><title>distancia projetil 11&#45;&gt;direita</title>
<path fill="none" stroke="red" stroke-width="0.226507" d="M1698.85,-116.091C1687.66,-111.681 1673.04,-106.569 1659.55,-103.882 1387.98,-49.7985 1304.9,-139.989 1037.55,-67.8823 1026.23,-64.8303 1014.6,-59.6734 1004.35,-54.3347"/>
<polygon fill="red" stroke="red" stroke-width="0.226507" points="1005.84,-51.1582 995.382,-49.4359 1002.48,-57.3015 1005.84,-51.1582"/>
</g>
<!-- distancia projetil 11&#45;&gt;pular -->
<g id="edge16" class="edge"><title>distancia projetil 11&#45;&gt;pular</title>
<path fill="none" stroke="green" stroke-width="0.139089" d="M1687.45,-116.029C1669.83,-111.656 1647.08,-106.603 1626.55,-103.882 1449.69,-80.4518 995.588,-118.604 824.549,-67.8823 814.838,-65.0023 805.048,-60.0891 796.431,-54.9237"/>
<polygon fill="green" stroke="green" stroke-width="0.139089" points="798.245,-51.9299 787.927,-49.5241 794.493,-57.8393 798.245,-51.9299"/>
</g>
<!-- distancia projetil 11&#45;&gt;atirar -->
<g id="edge87" class="edge"><title>distancia projetil 11&#45;&gt;atirar</title>
<path fill="none" stroke="red" stroke-width="0.654382" d="M1697.44,-116.003C1686.41,-111.841 1672.4,-107.001 1659.55,-103.882 1493.31,-63.5302 1288.95,-44.0715 1208.47,-37.5508"/>
<polygon fill="red" stroke="red" stroke-width="0.654382" points="1208.64,-34.0534 1198.4,-36.7501 1208.09,-41.0314 1208.64,-34.0534"/>
</g>
<!-- distancia projetil 11&#45;&gt;release -->
<g id="edge57" class="edge"><title>distancia projetil 11&#45;&gt;release</title>
<path fill="none" stroke="red" stroke-width="0.241454" stroke-dasharray="1,5" d="M1698.58,-116.045C1687.42,-111.677 1672.92,-106.624 1659.55,-103.882 1432.61,-57.3513 1362.68,-130.172 1139.55,-67.8823 1129.06,-64.954 1118.3,-60.2019 1108.66,-55.2072"/>
<polygon fill="red" stroke="red" stroke-width="0.241454" points="1110.27,-52.0982 1099.81,-50.3956 1106.92,-58.2478 1110.27,-52.0982"/>
</g>
<!-- distancia projetil 12 -->
<g id="node12" class="node"><title>distancia projetil 12</title>
<polygon fill="lightgray" stroke="black" points="1221.55,-134.095 1133.55,-134.095 1133.55,-116.095 1221.55,-116.095 1221.55,-134.095"/>
<text text-anchor="middle" x="1177.55" y="-122.895" font-family="Times New Roman,serif" font-size="9.00">distancia projetil 12</text>
</g>
<!-- distancia projetil 12&#45;&gt;esquerda -->
<g id="edge26" class="edge"><title>distancia projetil 12&#45;&gt;esquerda</title>
<path fill="none" stroke="green" stroke-width="0.65599" d="M1158.69,-115.973C1148.69,-111.904 1136.11,-107.16 1124.55,-103.882 1042.28,-80.5563 1016.73,-94.7539 935.549,-67.8823 925.742,-64.636 915.534,-60.2697 906.1,-55.7798"/>
<polygon fill="green" stroke="green" stroke-width="0.65599" points="907.484,-52.5604 896.967,-51.2855 904.394,-58.8412 907.484,-52.5604"/>
</g>
<!-- distancia projetil 12&#45;&gt;direita -->
<g id="edge55" class="edge"><title>distancia projetil 12&#45;&gt;direita</title>
<path fill="none" stroke="red" stroke-width="0.105159" d="M1156.85,-116.04C1123.59,-103.055 1059.74,-77.9354 1037.55,-67.8823 1027.05,-63.1251 1015.79,-57.5816 1005.64,-52.4141"/>
<polygon fill="red" stroke="red" stroke-width="0.105159" points="1007.18,-49.2702 996.69,-47.8075 1003.98,-55.4947 1007.18,-49.2702"/>
</g>
<!-- distancia projetil 12&#45;&gt;pular -->
<g id="edge85" class="edge"><title>distancia projetil 12&#45;&gt;pular</title>
<path fill="none" stroke="red" stroke-width="0.384856" d="M1159.75,-116.051C1149.62,-111.798 1136.6,-106.855 1124.55,-103.882 994.169,-71.7146 951.784,-110.836 824.549,-67.8823 815.031,-64.669 805.358,-59.7046 796.789,-54.5963"/>
<polygon fill="red" stroke="red" stroke-width="0.384856" points="798.646,-51.6292 788.313,-49.2882 794.93,-57.562 798.646,-51.6292"/>
</g>
<!-- distancia projetil 12&#45;&gt;atirar -->
<g id="edge15" class="edge"><title>distancia projetil 12&#45;&gt;atirar</title>
<path fill="none" stroke="red" stroke-width="0.56793" d="M1177.18,-115.868C1176.7,-105.23 1175.84,-86.0459 1175.08,-69.0257"/>
<polygon fill="red" stroke="red" stroke-width="0.56793" points="1178.56,-68.6366 1174.62,-58.8036 1171.57,-68.9504 1178.56,-68.6366"/>
</g>
<!-- distancia projetil 12&#45;&gt;release -->
<g id="edge5" class="edge"><title>distancia projetil 12&#45;&gt;release</title>
<path fill="none" stroke="red" stroke-width="0.577942" d="M1168.14,-115.868C1153.82,-103.352 1125.96,-79.0068 1104.53,-60.2735"/>
<polygon fill="red" stroke="red" stroke-width="0.577942" points="1106.8,-57.6038 1096.96,-53.658 1102.19,-62.8743 1106.8,-57.6038"/>
</g>
<!-- distancia projetil 13 -->
<g id="node13" class="node"><title>distancia projetil 13</title>
<polygon fill="lightgray" stroke="black" points="1969.55,-134.095 1881.55,-134.095 1881.55,-116.095 1969.55,-116.095 1969.55,-134.095"/>
<text text-anchor="middle" x="1925.55" y="-122.895" font-family="Times New Roman,serif" font-size="9.00">distancia projetil 13</text>
</g>
<!-- distancia projetil 13&#45;&gt;esquerda -->
<g id="edge72" class="edge"><title>distancia projetil 13&#45;&gt;esquerda</title>
<path fill="none" stroke="green" stroke-width="0.37412" d="M1908.79,-116.087C1898.56,-111.615 1885.09,-106.443 1872.55,-103.882 1668.38,-62.2031 1137.71,-118.376 935.549,-67.8823 925.431,-65.3552 915.04,-61.2208 905.52,-56.7212"/>
<polygon fill="green" stroke="green" stroke-width="0.37412" points="906.845,-53.4711 896.334,-52.1458 903.725,-59.737 906.845,-53.4711"/>
</g>
<!-- distancia projetil 13&#45;&gt;direita -->
<g id="edge42" class="edge"><title>distancia projetil 13&#45;&gt;direita</title>
<path fill="none" stroke="green" stroke-width="0.35531" d="M1908.31,-115.902C1898.14,-111.486 1884.89,-106.432 1872.55,-103.882 1508.77,-28.7315 1396.89,-161.966 1037.55,-67.8823 1026.21,-64.9137 1014.57,-59.7799 1004.32,-54.4366"/>
<polygon fill="green" stroke="green" stroke-width="0.35531" points="1005.81,-51.2604 995.358,-49.5267 1002.45,-57.4 1005.81,-51.2604"/>
</g>
<!-- distancia projetil 13&#45;&gt;atirar -->
<g id="edge3" class="edge"><title>distancia projetil 13&#45;&gt;atirar</title>
<path fill="none" stroke="green" stroke-width="0.403183" stroke-dasharray="1,5" d="M1907.77,-115.953C1897.65,-111.668 1884.63,-106.727 1872.55,-103.882 1622.93,-45.0838 1311.7,-36.3655 1208.55,-35.1265"/>
<polygon fill="green" stroke="green" stroke-width="0.403183" points="1208.43,-31.6251 1198.39,-35.0211 1208.35,-38.6247 1208.43,-31.6251"/>
</g>
<!-- distancia projetil 13&#45;&gt;release -->
<g id="edge93" class="edge"><title>distancia projetil 13&#45;&gt;release</title>
<path fill="none" stroke="green" stroke-width="0.117901" d="M1908.3,-115.929C1898.14,-111.523 1884.89,-106.469 1872.55,-103.882 1553.32,-36.9375 1454.57,-152.43 1139.55,-67.8823 1128.94,-65.0347 1118.07,-60.2586 1108.37,-55.2142"/>
<polygon fill="green" stroke="green" stroke-width="0.117901" points="1109.93,-52.0771 1099.47,-50.3497 1106.57,-58.2187 1109.93,-52.0771"/>
</g>
<!-- distancia projetil 14 -->
<g id="node14" class="node"><title>distancia projetil 14</title>
<polygon fill="lightgray" stroke="black" points="1327.55,-134.095 1239.55,-134.095 1239.55,-116.095 1327.55,-116.095 1327.55,-134.095"/>
<text text-anchor="middle" x="1283.55" y="-122.895" font-family="Times New Roman,serif" font-size="9.00">distancia projetil 14</text>
</g>
<!-- distancia projetil 14&#45;&gt;esquerda -->
<g id="edge14" class="edge"><title>distancia projetil 14&#45;&gt;esquerda</title>
<path fill="none" stroke="red" stroke-width="0.453629" d="M1265.75,-116.061C1255.62,-111.81 1242.59,-106.867 1230.55,-103.882 1102.34,-72.1145 1062.26,-105.18 935.549,-67.8823 925.639,-64.9652 915.392,-60.7256 905.952,-56.2533"/>
<polygon fill="red" stroke="red" stroke-width="0.453629" points="907.339,-53.035 896.823,-51.7437 904.239,-59.3109 907.339,-53.035"/>
</g>
<!-- distancia projetil 14&#45;&gt;pular -->
<g id="edge53" class="edge"><title>distancia projetil 14&#45;&gt;pular</title>
<path fill="none" stroke="green" stroke-width="0.271384" d="M1265.78,-115.907C1255.67,-111.608 1242.64,-106.668 1230.55,-103.882 1054.02,-63.2195 997.062,-123.158 824.549,-67.8823 814.903,-64.7914 805.133,-59.8153 796.513,-54.657"/>
<polygon fill="green" stroke="green" stroke-width="0.271384" points="798.326,-51.6622 788,-49.2871 794.591,-57.5826 798.326,-51.6622"/>
</g>
<!-- distancia projetil 14&#45;&gt;atirar -->
<g id="edge83" class="edge"><title>distancia projetil 14&#45;&gt;atirar</title>
<path fill="none" stroke="green" stroke-width="0.261284" d="M1273.4,-115.868C1256.94,-102.526 1223.89,-75.7415 1200.32,-56.6424"/>
<polygon fill="green" stroke="green" stroke-width="0.261284" points="1202.4,-53.8194 1192.43,-50.242 1197.99,-59.2576 1202.4,-53.8194"/>
</g>
<!-- distancia projetil 14&#45;&gt;release -->
<g id="edge94" class="edge"><title>distancia projetil 14&#45;&gt;release</title>
<path fill="none" stroke="red" stroke-width="0.238516" d="M1262.67,-116.083C1225.64,-101.849 1151.23,-73.1516 1139.55,-67.8823 1129.81,-63.4889 1119.44,-58.3557 1109.94,-53.467"/>
<polygon fill="red" stroke="red" stroke-width="0.238516" points="1111.28,-50.2166 1100.79,-48.6961 1108.04,-56.4234 1111.28,-50.2166"/>
</g>
<!-- distancia projetil 15 -->
<g id="node15" class="node"><title>distancia projetil 15</title>
<polygon fill="lightgray" stroke="black" points="2113.55,-134.095 2025.55,-134.095 2025.55,-116.095 2113.55,-116.095 2113.55,-134.095"/>
<text text-anchor="middle" x="2069.55" y="-122.895" font-family="Times New Roman,serif" font-size="9.00">distancia projetil 15</text>
</g>
<!-- distancia projetil 15&#45;&gt;atirar -->
<g id="edge70" class="edge"><title>distancia projetil 15&#45;&gt;atirar</title>
<path fill="none" stroke="green" stroke-width="0.599597" d="M2050.3,-116.008C2039.18,-111.685 2024.8,-106.688 2011.55,-103.882 1705.49,-39.0608 1324.58,-34.4545 1208.63,-34.6734"/>
<polygon fill="green" stroke="green" stroke-width="0.599597" points="1208.55,-31.1735 1198.56,-34.7063 1208.57,-38.1735 1208.55,-31.1735"/>
</g>
<!-- distancia projetil 15&#45;&gt;release -->
<g id="edge80" class="edge"><title>distancia projetil 15&#45;&gt;release</title>
<path fill="none" stroke="green" stroke-width="0.24577" d="M2050.87,-116.008C2039.68,-111.57 2025.06,-106.457 2011.55,-103.882 1821.03,-67.5781 1327.06,-117.423 1139.55,-67.8823 1128.93,-65.0762 1118.06,-60.3131 1108.36,-55.2678"/>
<polygon fill="green" stroke="green" stroke-width="0.24577" points="1109.91,-52.1309 1099.46,-50.3988 1106.55,-58.271 1109.91,-52.1309"/>
</g>
<!-- distancia projetil 16 -->
<g id="node16" class="node"><title>distancia projetil 16</title>
<polygon fill="lightgray" stroke="black" points="131.549,-200.309 43.5492,-200.309 43.5492,-182.309 131.549,-182.309 131.549,-200.309"/>
<text text-anchor="middle" x="87.5492" y="-189.109" font-family="Times New Roman,serif" font-size="9.00">distancia projetil 16</text>
</g>
<!-- distancia projetil 16&#45;&gt;esquerda -->
<g id="edge9" class="edge"><title>distancia projetil 16&#45;&gt;esquerda</title>
<path fill="none" stroke="red" stroke-width="0.357146" d="M86.4848,-182.3C84.6764,-164.902 83.2134,-123.633 106.549,-103.882 167.181,-52.5645 745.423,-93.6858 820.549,-67.8823 824.908,-66.3852 829.225,-64.3539 833.375,-62.0303"/>
<polygon fill="red" stroke="red" stroke-width="0.357146" points="835.503,-64.8283 842.14,-56.5703 831.802,-58.8867 835.503,-64.8283"/>
</g>
<!-- distancia projetil 16&#45;&gt;direita -->
<g id="edge38" class="edge"><title>distancia projetil 16&#45;&gt;direita</title>
<path fill="none" stroke="red" stroke-width="0.430006" d="M131.931,-189.884C381.497,-187.393 1599.8,-173.834 1626.55,-146.309 1639.69,-132.786 1639.47,-117.616 1626.55,-103.882 1581.62,-56.1264 1100.83,-85.0581 1037.55,-67.8823 1026.24,-64.812 1014.6,-59.6501 1004.36,-54.3124"/>
<polygon fill="red" stroke="red" stroke-width="0.430006" points="1005.84,-51.1358 995.388,-49.4159 1002.49,-57.2799 1005.84,-51.1358"/>
</g>
<!-- distancia projetil 16&#45;&gt;pular -->
<g id="edge69" class="edge"><title>distancia projetil 16&#45;&gt;pular</title>
<path fill="none" stroke="green" stroke-width="0.352656" stroke-dasharray="1,5" d="M58.0865,-182.212C40.3531,-175.651 19.2078,-164.445 8.54915,-146.309 -1.00461,-130.052 -4.16765,-117.805 8.54915,-103.882 57.9679,-49.7778 589.576,-37.6993 733.045,-35.4166"/>
<polygon fill="green" stroke="green" stroke-width="0.352656" points="733.507,-38.9101 743.452,-35.2576 733.4,-31.9109 733.507,-38.9101"/>
</g>
<!-- distancia projetil 16&#45;&gt;release -->
<g id="edge30" class="edge"><title>distancia projetil 16&#45;&gt;release</title>
<path fill="none" stroke="red" stroke-width="0.320804" d="M131.585,-190.127C412.668,-188.868 1945.2,-180.441 1978.55,-146.309 2109.41,-12.3666 1320.56,-115.862 1139.55,-67.8823 1128.93,-65.0676 1118.06,-60.3018 1108.36,-55.2567"/>
<polygon fill="red" stroke="red" stroke-width="0.320804" points="1109.92,-52.1197 1099.46,-50.3886 1106.56,-58.2601 1109.92,-52.1197"/>
</g>
<!-- 220 -->
<g id="node26" class="node"><title>220</title>
<ellipse fill="white" stroke="black" cx="38.5492" cy="-125.095" rx="21.4286" ry="21.4286"/>
<text text-anchor="middle" x="38.5492" y="-122.895" font-family="Times New Roman,serif" font-size="9.00">220</text>
</g>
<!-- distancia projetil 16&#45;&gt;220 -->
<g id="edge31" class="edge"><title>distancia projetil 16&#45;&gt;220</title>
<path fill="none" stroke="green" stroke-width="0.115937" d="M81.3433,-182.176C75.31,-174.27 65.8379,-161.857 57.3373,-150.717"/>
<polygon fill="green" stroke="green" stroke-width="0.115937" points="59.9481,-148.369 51.0993,-142.542 54.3832,-152.615 59.9481,-148.369"/>
</g>
<!-- distancia inimigo 1 -->
<g id="node17" class="node"><title>distancia inimigo 1</title>
<polygon fill="lightgray" stroke="black" points="1429.05,-134.095 1346.05,-134.095 1346.05,-116.095 1429.05,-116.095 1429.05,-134.095"/>
<text text-anchor="middle" x="1387.55" y="-122.895" font-family="Times New Roman,serif" font-size="9.00">distancia inimigo 1</text>
</g>
<!-- distancia inimigo 1&#45;&gt;esquerda -->
<g id="edge25" class="edge"><title>distancia inimigo 1&#45;&gt;esquerda</title>
<path fill="none" stroke="green" stroke-width="0.372794" d="M1370.48,-115.9C1360.76,-111.598 1348.22,-106.658 1336.55,-103.882 1162.46,-62.489 1107.99,-115.667 935.549,-67.8823 925.499,-65.0973 915.133,-60.8653 905.617,-56.3535"/>
<polygon fill="green" stroke="green" stroke-width="0.372794" points="906.94,-53.103 896.427,-51.7917 903.828,-59.373 906.94,-53.103"/>
</g>
<!-- distancia inimigo 1&#45;&gt;direita -->
<g id="edge75" class="edge"><title>distancia inimigo 1&#45;&gt;direita</title>
<path fill="none" stroke="red" stroke-width="0.238471" d="M1370.45,-116.036C1360.72,-111.778 1348.18,-106.835 1336.55,-103.882 1206.81,-70.9511 1165.64,-106.726 1037.55,-67.8823 1026.43,-64.5091 1014.91,-59.3143 1004.73,-54.0399"/>
<polygon fill="red" stroke="red" stroke-width="0.238471" points="1006.25,-50.8874 995.791,-49.2235 1002.93,-57.0493 1006.25,-50.8874"/>
</g>
<!-- distancia inimigo 1&#45;&gt;pular -->
<g id="edge84" class="edge"><title>distancia inimigo 1&#45;&gt;pular</title>
<path fill="none" stroke="red" stroke-width="0.207934" d="M1370.96,-116.018C1361.19,-111.641 1348.44,-106.588 1336.55,-103.882 1114.12,-53.2612 1042.41,-135.505 824.549,-67.8823 814.875,-64.8795 805.097,-59.9297 796.478,-54.7685"/>
<polygon fill="red" stroke="red" stroke-width="0.207934" points="798.291,-51.7741 787.969,-49.3861 794.549,-57.6899 798.291,-51.7741"/>
</g>
<!-- distancia inimigo 1&#45;&gt;atirar -->
<g id="edge54" class="edge"><title>distancia inimigo 1&#45;&gt;atirar</title>
<path fill="none" stroke="red" stroke-width="0.162384" d="M1368.18,-116.026C1331.28,-100.652 1250.56,-67.0244 1205.53,-48.2635"/>
<polygon fill="red" stroke="red" stroke-width="0.162384" points="1206.8,-45.0019 1196.22,-44.3869 1204.11,-51.4635 1206.8,-45.0019"/>
</g>
<!-- distancia inimigo 1&#45;&gt;release -->
<g id="edge27" class="edge"><title>distancia inimigo 1&#45;&gt;release</title>
<path fill="none" stroke="red" stroke-width="0.321328" d="M1369.44,-115.909C1359.83,-111.823 1347.72,-107.083 1336.55,-103.882 1250.99,-79.3667 1223.81,-96.5591 1139.55,-67.8823 1129.24,-64.3734 1118.53,-59.4361 1108.89,-54.4494"/>
<polygon fill="red" stroke="red" stroke-width="0.321328" points="1110.49,-51.3364 1100.03,-49.6984 1107.19,-57.5065 1110.49,-51.3364"/>
</g>
<!-- distancia inimigo 2 -->
<g id="node18" class="node"><title>distancia inimigo 2</title>
<polygon fill="lightgray" stroke="black" points="1863.05,-134.095 1780.05,-134.095 1780.05,-116.095 1863.05,-116.095 1863.05,-134.095"/>
<text text-anchor="middle" x="1821.55" y="-122.895" font-family="Times New Roman,serif" font-size="9.00">distancia inimigo 2</text>
</g>
<!-- distancia inimigo 2&#45;&gt;esquerda -->
<g id="edge71" class="edge"><title>distancia inimigo 2&#45;&gt;esquerda</title>
<path fill="none" stroke="green" stroke-width="0.335519" d="M1804.99,-115.897C1795.22,-111.479 1782.47,-106.426 1770.55,-103.882 1407.27,-26.3701 1295.72,-158.738 935.549,-67.8823 925.437,-65.3315 915.048,-61.1881 905.529,-56.6874"/>
<polygon fill="green" stroke="green" stroke-width="0.335519" points="906.854,-53.4373 896.342,-52.1132 903.734,-59.7035 906.854,-53.4373"/>
</g>
<!-- distancia inimigo 2&#45;&gt;direita -->
<g id="edge2" class="edge"><title>distancia inimigo 2&#45;&gt;direita</title>
<path fill="none" stroke="red" stroke-width="0.134104" d="M1804.99,-115.924C1795.21,-111.515 1782.46,-106.462 1770.55,-103.882 1451.76,-34.8653 1352.84,-151.441 1037.55,-67.8823 1026.22,-64.8798 1014.58,-59.7366 1004.33,-54.3952"/>
<polygon fill="red" stroke="red" stroke-width="0.134104" points="1005.82,-51.2189 995.368,-49.4898 1002.46,-57.3599 1005.82,-51.2189"/>
</g>
<!-- distancia inimigo 2&#45;&gt;atirar -->
<g id="edge41" class="edge"><title>distancia inimigo 2&#45;&gt;atirar</title>
<path fill="none" stroke="red" stroke-width="0.437847" d="M1804.46,-116.014C1794.72,-111.749 1782.19,-106.807 1770.55,-103.882 1561.76,-51.4244 1301.72,-38.7421 1208.67,-35.7956"/>
<polygon fill="red" stroke="red" stroke-width="0.437847" points="1208.52,-32.2895 1198.42,-35.4895 1208.31,-39.2864 1208.52,-32.2895"/>
</g>
<!-- distancia inimigo 2&#45;&gt;release -->
<g id="edge91" class="edge"><title>distancia inimigo 2&#45;&gt;release</title>
<path fill="none" stroke="green" stroke-width="0.226798" d="M1804.98,-115.959C1795.2,-111.562 1782.45,-106.509 1770.55,-103.882 1496.25,-43.3581 1410.56,-141.769 1139.55,-67.8823 1128.95,-64.9928 1118.08,-60.2035 1108.38,-55.1599"/>
<polygon fill="green" stroke="green" stroke-width="0.226798" points="1109.94,-52.0226 1099.49,-50.3 1106.59,-58.1657 1109.94,-52.0226"/>
</g>
<!-- direcao sprites 1 -->
<g id="node19" class="node"><title>direcao sprites 1</title>
<polygon fill="lightgray" stroke="black" points="1523.55,-134.095 1447.55,-134.095 1447.55,-116.095 1523.55,-116.095 1523.55,-134.095"/>
<text text-anchor="middle" x="1485.55" y="-122.895" font-family="Times New Roman,serif" font-size="9.00">direcao sprites 1</text>
</g>
<!-- direcao sprites 1&#45;&gt;esquerda -->
<g id="edge13" class="edge"><title>direcao sprites 1&#45;&gt;esquerda</title>
<path fill="none" stroke="green" stroke-width="0.227675" d="M1470.33,-116.006C1461.35,-111.625 1449.6,-106.572 1438.55,-103.882 1220.78,-50.8674 1152.07,-125.778 935.549,-67.8823 925.474,-65.1883 915.099,-60.9908 905.582,-56.4833"/>
<polygon fill="green" stroke="green" stroke-width="0.227675" points="906.906,-53.2329 896.393,-51.9167 903.79,-59.5015 906.906,-53.2329"/>
</g>
<!-- direcao sprites 1&#45;&gt;direita -->
<g id="edge81" class="edge"><title>direcao sprites 1&#45;&gt;direita</title>
<path fill="none" stroke="red" stroke-width="0.170579" d="M1470.32,-116.081C1461.32,-111.725 1449.57,-106.671 1438.55,-103.882 1265.08,-59.9857 1209.55,-117.212 1037.55,-67.8823 1026.38,-64.6779 1014.85,-59.5308 1004.67,-54.248"/>
<polygon fill="red" stroke="red" stroke-width="0.170579" points="1006.2,-51.0967 995.736,-49.4102 1002.86,-57.2514 1006.2,-51.0967"/>
</g>
<!-- direcao sprites 1&#45;&gt;pular -->
<g id="edge52" class="edge"><title>direcao sprites 1&#45;&gt;pular</title>
<path fill="none" stroke="red" stroke-width="0.202654" d="M1470.35,-115.952C1461.36,-111.554 1449.61,-106.5 1438.55,-103.882 1172.54,-40.9349 1086.09,-147.396 824.549,-67.8823 814.858,-64.9358 805.074,-60.0028 796.456,-54.8397"/>
<polygon fill="red" stroke="red" stroke-width="0.202654" points="798.27,-51.8456 787.95,-49.4494 794.523,-57.7584 798.27,-51.8456"/>
</g>
<!-- direcao sprites 1&#45;&gt;atirar -->
<g id="edge24" class="edge"><title>direcao sprites 1&#45;&gt;atirar</title>
<path fill="none" stroke="red" stroke-width="0.330795" d="M1468.39,-115.97C1459.59,-111.997 1448.63,-107.34 1438.55,-103.882 1357.14,-75.9686 1258.36,-53.0588 1207.48,-42.0342"/>
<polygon fill="red" stroke="red" stroke-width="0.330795" points="1208.18,-38.6047 1197.66,-39.9271 1206.71,-45.4487 1208.18,-38.6047"/>
</g>
<!-- direcao sprites 1&#45;&gt;release -->
<g id="edge92" class="edge"><title>direcao sprites 1&#45;&gt;release</title>
<path fill="none" stroke="green" stroke-width="0.193832" d="M1469.86,-116.003C1460.91,-111.734 1449.36,-106.792 1438.55,-103.882 1309.3,-69.0858 1267.51,-107.128 1139.55,-67.8823 1129.14,-64.689 1118.4,-59.8524 1108.76,-54.8614"/>
<polygon fill="green" stroke="green" stroke-width="0.193832" points="1110.37,-51.7508 1099.9,-50.0774 1107.04,-57.9097 1110.37,-51.7508"/>
</g>
<!-- direcao sprites 2 -->
<g id="node20" class="node"><title>direcao sprites 2</title>
<polygon fill="lightgray" stroke="black" points="1617.55,-134.095 1541.55,-134.095 1541.55,-116.095 1617.55,-116.095 1617.55,-134.095"/>
<text text-anchor="middle" x="1579.55" y="-122.895" font-family="Times New Roman,serif" font-size="9.00">direcao sprites 2</text>
</g>
<!-- direcao sprites 2&#45;&gt;esquerda -->
<g id="edge61" class="edge"><title>direcao sprites 2&#45;&gt;esquerda</title>
<path fill="none" stroke="red" stroke-width="0.187545" d="M1564.35,-115.959C1555.36,-111.563 1543.61,-106.51 1532.55,-103.882 1273.93,-42.4565 1192.72,-135.105 935.549,-67.8823 925.459,-65.2449 915.079,-61.0688 905.56,-56.5639"/>
<polygon fill="red" stroke="red" stroke-width="0.187545" points="906.885,-53.3137 896.372,-51.9943 903.768,-59.5813 906.885,-53.3137"/>
</g>
<!-- direcao sprites 2&#45;&gt;direita -->
<g id="edge90" class="edge"><title>direcao sprites 2&#45;&gt;direita</title>
<path fill="none" stroke="red" stroke-width="0.404569" d="M1564.33,-116.011C1555.34,-111.631 1543.59,-106.578 1532.55,-103.882 1318.26,-51.5829 1250.09,-126.895 1037.55,-67.8823 1026.35,-64.7727 1014.82,-59.6522 1004.63,-54.3648"/>
<polygon fill="red" stroke="red" stroke-width="0.404569" points="1006.16,-51.214 995.707,-49.515 1002.82,-57.3647 1006.16,-51.214"/>
</g>
<!-- direcao sprites 2&#45;&gt;pular -->
<g id="edge23" class="edge"><title>direcao sprites 2&#45;&gt;pular</title>
<path fill="none" stroke="green" stroke-width="0.590036" d="M1564.35,-115.92C1555.37,-111.511 1543.62,-106.457 1532.55,-103.882 1225.66,-32.5191 1126.35,-158.36 824.549,-67.8823 814.846,-64.9734 805.06,-60.0517 796.442,-54.8872"/>
<polygon fill="green" stroke="green" stroke-width="0.590036" points="798.256,-51.8933 787.937,-49.4917 794.506,-57.8042 798.256,-51.8933"/>
</g>
<!-- direcao sprites 2&#45;&gt;atirar -->
<g id="edge51" class="edge"><title>direcao sprites 2&#45;&gt;atirar</title>
<path fill="none" stroke="green" stroke-width="0.284844" d="M1563.35,-116.094C1554.43,-111.959 1543.08,-107.115 1532.55,-103.882 1416.46,-68.2334 1273.35,-47.3598 1208.46,-39.0904"/>
<polygon fill="green" stroke="green" stroke-width="0.284844" points="1208.73,-35.5965 1198.37,-37.8261 1207.86,-42.5422 1208.73,-35.5965"/>
</g>
<!-- direcao sprites 2&#45;&gt;release -->
<g id="edge39" class="edge"><title>direcao sprites 2&#45;&gt;release</title>
<path fill="none" stroke="green" stroke-width="0.302683" d="M1564.31,-116.088C1555.32,-111.735 1543.57,-106.681 1532.55,-103.882 1362.55,-60.7003 1307.95,-116.918 1139.55,-67.8823 1129.09,-64.8376 1118.34,-60.0484 1108.7,-55.0553"/>
<polygon fill="green" stroke="green" stroke-width="0.302683" points="1110.31,-51.9456 1099.85,-50.2558 1106.97,-58.0993 1110.31,-51.9456"/>
</g>
<!-- esquerda&#45;&gt;esquerda -->
<g id="edge82" class="edge"><title>esquerda&#45;&gt;esquerda</title>
<path fill="none" stroke="green" stroke-width="0.335686" d="M897.179,-50.6915C909.282,-51.7414 919.49,-46.1579 919.49,-33.9411 919.49,-25.3512 914.443,-20.0407 907.239,-18.0096"/>
<polygon fill="green" stroke="green" stroke-width="0.335686" points="907.43,-14.5136 897.179,-17.1908 906.862,-21.4905 907.43,-14.5136"/>
</g>
<!-- direita&#45;&gt;direita -->
<g id="edge10" class="edge"><title>direita&#45;&gt;direita</title>
<path fill="none" stroke="red" stroke-width="0.29574" stroke-dasharray="1,5" d="M995.061,-50.1199C1007.13,-52.8692 1018.13,-47.4763 1018.13,-33.9411 1018.13,-24.4242 1012.69,-18.9327 1005.27,-17.4666"/>
<polygon fill="red" stroke="red" stroke-width="0.29574" points="1004.96,-13.9741 995.061,-17.7624 1005.16,-20.9711 1004.96,-13.9741"/>
</g>
<!-- pular&#45;&gt;pular -->
<g id="edge33" class="edge"><title>pular&#45;&gt;pular</title>
<path fill="none" stroke="green" stroke-width="0.183162" d="M787.893,-49.6255C799.885,-53.4075 811.298,-48.1794 811.298,-33.9411 811.298,-23.8186 805.53,-18.2501 797.886,-17.2356"/>
<polygon fill="green" stroke="green" stroke-width="0.183162" points="797.486,-13.7582 787.893,-18.2568 798.197,-20.7219 797.486,-13.7582"/>
</g>
<!-- release&#45;&gt;release -->
<g id="edge77" class="edge"><title>release&#45;&gt;release</title>
<path fill="none" stroke="green" stroke-width="0.319206" d="M1099.73,-50.3176C1111.79,-52.5836 1122.54,-47.1247 1122.54,-33.9411 1122.54,-24.6714 1117.22,-19.2207 1109.87,-17.589"/>
<polygon fill="green" stroke="green" stroke-width="0.319206" points="1109.74,-14.0888 1099.73,-17.5646 1109.72,-21.0887 1109.74,-14.0888"/>
</g>
<!-- 220&#45;&gt;pular -->
<g id="edge44" class="edge"><title>220&#45;&gt;pular</title>
<path fill="none" stroke="green" stroke-width="0.267344" d="M55.6712,-112.272C61.1552,-109.026 67.4039,-105.86 73.5492,-103.882 198.742,-63.6 610.803,-42.0834 733.67,-36.4537"/>
<polygon fill="green" stroke="green" stroke-width="0.267344" points="733.831,-39.9501 743.662,-36.0019 733.514,-32.9573 733.831,-39.9501"/>
</g>
</g>
</svg>
